<?xml version="1.0" encoding="utf-8" standalone="no"?>
<!DOCTYPE svg PUBLIC "-//W3C//DTD SVG 1.1//EN"
  "http://www.w3.org/Graphics/SVG/1.1/DTD/svg11.dtd">
<!-- Created with matplotlib (https://matplotlib.org/) -->
<svg height="221.550386pt" version="1.1" viewBox="0 0 907.744685 221.550386" width="907.744685pt" xmlns="http://www.w3.org/2000/svg" xmlns:xlink="http://www.w3.org/1999/xlink">
 <metadata>
  <rdf:RDF xmlns:cc="http://creativecommons.org/ns#" xmlns:dc="http://purl.org/dc/elements/1.1/" xmlns:rdf="http://www.w3.org/1999/02/22-rdf-syntax-ns#">
   <cc:Work>
    <dc:type rdf:resource="http://purl.org/dc/dcmitype/StillImage"/>
    <dc:date>2021-07-04T23:48:55.191561</dc:date>
    <dc:format>image/svg+xml</dc:format>
    <dc:creator>
     <cc:Agent>
      <dc:title>Matplotlib v3.3.4, https://matplotlib.org/</dc:title>
     </cc:Agent>
    </dc:creator>
   </cc:Work>
  </rdf:RDF>
 </metadata>
 <defs>
  <style type="text/css">*{stroke-linecap:butt;stroke-linejoin:round;}</style>
 </defs>
 <g id="figure_1">
  <g id="patch_1">
   <path d="M 0 221.550386 
L 907.744685 221.550386 
L 907.744685 0 
L 0 0 
z
" style="fill:none;"/>
  </g>
  <g id="axes_1">
   <g id="patch_2">
    <path d="M 48.190938 178.590698 
L 848.495435 178.590698 
L 848.495435 22.318125 
L 48.190938 22.318125 
z
" style="fill:#eaeaf2;"/>
   </g>
   <g id="matplotlib.axis_1">
    <g id="xtick_1">
     <g id="line2d_1">
      <path clip-path="url(#p3c7d1b2234)" d="M 48.190938 178.590698 
L 48.190938 22.318125 
" style="fill:none;stroke:#ffffff;stroke-linecap:round;"/>
     </g>
     <g id="text_1">
      <!-- 0 -->
      <g style="fill:#262626;" transform="translate(44.691563 196.44898)scale(0.11 -0.11)">
       <defs>
        <path d="M 31.78125 66.40625 
Q 24.171875 66.40625 20.328125 58.90625 
Q 16.5 51.421875 16.5 36.375 
Q 16.5 21.390625 20.328125 13.890625 
Q 24.171875 6.390625 31.78125 6.390625 
Q 39.453125 6.390625 43.28125 13.890625 
Q 47.125 21.390625 47.125 36.375 
Q 47.125 51.421875 43.28125 58.90625 
Q 39.453125 66.40625 31.78125 66.40625 
z
M 31.78125 74.21875 
Q 44.046875 74.21875 50.515625 64.515625 
Q 56.984375 54.828125 56.984375 36.375 
Q 56.984375 17.96875 50.515625 8.265625 
Q 44.046875 -1.421875 31.78125 -1.421875 
Q 19.53125 -1.421875 13.0625 8.265625 
Q 6.59375 17.96875 6.59375 36.375 
Q 6.59375 54.828125 13.0625 64.515625 
Q 19.53125 74.21875 31.78125 74.21875 
z
" id="DejaVuSans-48"/>
       </defs>
       <use xlink:href="#DejaVuSans-48"/>
      </g>
     </g>
    </g>
    <g id="xtick_2">
     <g id="line2d_2">
      <path clip-path="url(#p3c7d1b2234)" d="M 148.229 178.590698 
L 148.229 22.318125 
" style="fill:none;stroke:#ffffff;stroke-linecap:round;"/>
     </g>
     <g id="text_2">
      <!-- 25 -->
      <g style="fill:#262626;" transform="translate(141.23025 196.44898)scale(0.11 -0.11)">
       <defs>
        <path d="M 19.1875 8.296875 
L 53.609375 8.296875 
L 53.609375 0 
L 7.328125 0 
L 7.328125 8.296875 
Q 12.9375 14.109375 22.625 23.890625 
Q 32.328125 33.6875 34.8125 36.53125 
Q 39.546875 41.84375 41.421875 45.53125 
Q 43.3125 49.21875 43.3125 52.78125 
Q 43.3125 58.59375 39.234375 62.25 
Q 35.15625 65.921875 28.609375 65.921875 
Q 23.96875 65.921875 18.8125 64.3125 
Q 13.671875 62.703125 7.8125 59.421875 
L 7.8125 69.390625 
Q 13.765625 71.78125 18.9375 73 
Q 24.125 74.21875 28.421875 74.21875 
Q 39.75 74.21875 46.484375 68.546875 
Q 53.21875 62.890625 53.21875 53.421875 
Q 53.21875 48.921875 51.53125 44.890625 
Q 49.859375 40.875 45.40625 35.40625 
Q 44.1875 33.984375 37.640625 27.21875 
Q 31.109375 20.453125 19.1875 8.296875 
z
" id="DejaVuSans-50"/>
        <path d="M 10.796875 72.90625 
L 49.515625 72.90625 
L 49.515625 64.59375 
L 19.828125 64.59375 
L 19.828125 46.734375 
Q 21.96875 47.46875 24.109375 47.828125 
Q 26.265625 48.1875 28.421875 48.1875 
Q 40.625 48.1875 47.75 41.5 
Q 54.890625 34.8125 54.890625 23.390625 
Q 54.890625 11.625 47.5625 5.09375 
Q 40.234375 -1.421875 26.90625 -1.421875 
Q 22.3125 -1.421875 17.546875 -0.640625 
Q 12.796875 0.140625 7.71875 1.703125 
L 7.71875 11.625 
Q 12.109375 9.234375 16.796875 8.0625 
Q 21.484375 6.890625 26.703125 6.890625 
Q 35.15625 6.890625 40.078125 11.328125 
Q 45.015625 15.765625 45.015625 23.390625 
Q 45.015625 31 40.078125 35.4375 
Q 35.15625 39.890625 26.703125 39.890625 
Q 22.75 39.890625 18.8125 39.015625 
Q 14.890625 38.140625 10.796875 36.28125 
z
" id="DejaVuSans-53"/>
       </defs>
       <use xlink:href="#DejaVuSans-50"/>
       <use x="63.623047" xlink:href="#DejaVuSans-53"/>
      </g>
     </g>
    </g>
    <g id="xtick_3">
     <g id="line2d_3">
      <path clip-path="url(#p3c7d1b2234)" d="M 248.267062 178.590698 
L 248.267062 22.318125 
" style="fill:none;stroke:#ffffff;stroke-linecap:round;"/>
     </g>
     <g id="text_3">
      <!-- 50 -->
      <g style="fill:#262626;" transform="translate(241.268312 196.44898)scale(0.11 -0.11)">
       <use xlink:href="#DejaVuSans-53"/>
       <use x="63.623047" xlink:href="#DejaVuSans-48"/>
      </g>
     </g>
    </g>
    <g id="xtick_4">
     <g id="line2d_4">
      <path clip-path="url(#p3c7d1b2234)" d="M 348.305124 178.590698 
L 348.305124 22.318125 
" style="fill:none;stroke:#ffffff;stroke-linecap:round;"/>
     </g>
     <g id="text_4">
      <!-- 75 -->
      <g style="fill:#262626;" transform="translate(341.306374 196.44898)scale(0.11 -0.11)">
       <defs>
        <path d="M 8.203125 72.90625 
L 55.078125 72.90625 
L 55.078125 68.703125 
L 28.609375 0 
L 18.3125 0 
L 43.21875 64.59375 
L 8.203125 64.59375 
z
" id="DejaVuSans-55"/>
       </defs>
       <use xlink:href="#DejaVuSans-55"/>
       <use x="63.623047" xlink:href="#DejaVuSans-53"/>
      </g>
     </g>
    </g>
    <g id="xtick_5">
     <g id="line2d_5">
      <path clip-path="url(#p3c7d1b2234)" d="M 448.343186 178.590698 
L 448.343186 22.318125 
" style="fill:none;stroke:#ffffff;stroke-linecap:round;"/>
     </g>
     <g id="text_5">
      <!-- 100 -->
      <g style="fill:#262626;" transform="translate(437.845061 196.44898)scale(0.11 -0.11)">
       <defs>
        <path d="M 12.40625 8.296875 
L 28.515625 8.296875 
L 28.515625 63.921875 
L 10.984375 60.40625 
L 10.984375 69.390625 
L 28.421875 72.90625 
L 38.28125 72.90625 
L 38.28125 8.296875 
L 54.390625 8.296875 
L 54.390625 0 
L 12.40625 0 
z
" id="DejaVuSans-49"/>
       </defs>
       <use xlink:href="#DejaVuSans-49"/>
       <use x="63.623047" xlink:href="#DejaVuSans-48"/>
       <use x="127.246094" xlink:href="#DejaVuSans-48"/>
      </g>
     </g>
    </g>
    <g id="xtick_6">
     <g id="line2d_6">
      <path clip-path="url(#p3c7d1b2234)" d="M 548.381249 178.590698 
L 548.381249 22.318125 
" style="fill:none;stroke:#ffffff;stroke-linecap:round;"/>
     </g>
     <g id="text_6">
      <!-- 125 -->
      <g style="fill:#262626;" transform="translate(537.883124 196.44898)scale(0.11 -0.11)">
       <use xlink:href="#DejaVuSans-49"/>
       <use x="63.623047" xlink:href="#DejaVuSans-50"/>
       <use x="127.246094" xlink:href="#DejaVuSans-53"/>
      </g>
     </g>
    </g>
    <g id="xtick_7">
     <g id="line2d_7">
      <path clip-path="url(#p3c7d1b2234)" d="M 648.419311 178.590698 
L 648.419311 22.318125 
" style="fill:none;stroke:#ffffff;stroke-linecap:round;"/>
     </g>
     <g id="text_7">
      <!-- 150 -->
      <g style="fill:#262626;" transform="translate(637.921186 196.44898)scale(0.11 -0.11)">
       <use xlink:href="#DejaVuSans-49"/>
       <use x="63.623047" xlink:href="#DejaVuSans-53"/>
       <use x="127.246094" xlink:href="#DejaVuSans-48"/>
      </g>
     </g>
    </g>
    <g id="xtick_8">
     <g id="line2d_8">
      <path clip-path="url(#p3c7d1b2234)" d="M 748.457373 178.590698 
L 748.457373 22.318125 
" style="fill:none;stroke:#ffffff;stroke-linecap:round;"/>
     </g>
     <g id="text_8">
      <!-- 175 -->
      <g style="fill:#262626;" transform="translate(737.959248 196.44898)scale(0.11 -0.11)">
       <use xlink:href="#DejaVuSans-49"/>
       <use x="63.623047" xlink:href="#DejaVuSans-55"/>
       <use x="127.246094" xlink:href="#DejaVuSans-53"/>
      </g>
     </g>
    </g>
    <g id="xtick_9">
     <g id="line2d_9">
      <path clip-path="url(#p3c7d1b2234)" d="M 848.495435 178.590698 
L 848.495435 22.318125 
" style="fill:none;stroke:#ffffff;stroke-linecap:round;"/>
     </g>
     <g id="text_9">
      <!-- 200 -->
      <g style="fill:#262626;" transform="translate(837.99731 196.44898)scale(0.11 -0.11)">
       <use xlink:href="#DejaVuSans-50"/>
       <use x="63.623047" xlink:href="#DejaVuSans-48"/>
       <use x="127.246094" xlink:href="#DejaVuSans-48"/>
      </g>
     </g>
    </g>
    <g id="text_10">
     <!-- trtbps -->
     <g style="fill:#262626;" transform="translate(430.428499 211.854761)scale(0.12 -0.12)">
      <defs>
       <path d="M 18.3125 70.21875 
L 18.3125 54.6875 
L 36.8125 54.6875 
L 36.8125 47.703125 
L 18.3125 47.703125 
L 18.3125 18.015625 
Q 18.3125 11.328125 20.140625 9.421875 
Q 21.96875 7.515625 27.59375 7.515625 
L 36.8125 7.515625 
L 36.8125 0 
L 27.59375 0 
Q 17.1875 0 13.234375 3.875 
Q 9.28125 7.765625 9.28125 18.015625 
L 9.28125 47.703125 
L 2.6875 47.703125 
L 2.6875 54.6875 
L 9.28125 54.6875 
L 9.28125 70.21875 
z
" id="DejaVuSans-116"/>
       <path d="M 41.109375 46.296875 
Q 39.59375 47.171875 37.8125 47.578125 
Q 36.03125 48 33.890625 48 
Q 26.265625 48 22.1875 43.046875 
Q 18.109375 38.09375 18.109375 28.8125 
L 18.109375 0 
L 9.078125 0 
L 9.078125 54.6875 
L 18.109375 54.6875 
L 18.109375 46.1875 
Q 20.953125 51.171875 25.484375 53.578125 
Q 30.03125 56 36.53125 56 
Q 37.453125 56 38.578125 55.875 
Q 39.703125 55.765625 41.0625 55.515625 
z
" id="DejaVuSans-114"/>
       <path d="M 48.6875 27.296875 
Q 48.6875 37.203125 44.609375 42.84375 
Q 40.53125 48.484375 33.40625 48.484375 
Q 26.265625 48.484375 22.1875 42.84375 
Q 18.109375 37.203125 18.109375 27.296875 
Q 18.109375 17.390625 22.1875 11.75 
Q 26.265625 6.109375 33.40625 6.109375 
Q 40.53125 6.109375 44.609375 11.75 
Q 48.6875 17.390625 48.6875 27.296875 
z
M 18.109375 46.390625 
Q 20.953125 51.265625 25.265625 53.625 
Q 29.59375 56 35.59375 56 
Q 45.5625 56 51.78125 48.09375 
Q 58.015625 40.1875 58.015625 27.296875 
Q 58.015625 14.40625 51.78125 6.484375 
Q 45.5625 -1.421875 35.59375 -1.421875 
Q 29.59375 -1.421875 25.265625 0.953125 
Q 20.953125 3.328125 18.109375 8.203125 
L 18.109375 0 
L 9.078125 0 
L 9.078125 75.984375 
L 18.109375 75.984375 
z
" id="DejaVuSans-98"/>
       <path d="M 18.109375 8.203125 
L 18.109375 -20.796875 
L 9.078125 -20.796875 
L 9.078125 54.6875 
L 18.109375 54.6875 
L 18.109375 46.390625 
Q 20.953125 51.265625 25.265625 53.625 
Q 29.59375 56 35.59375 56 
Q 45.5625 56 51.78125 48.09375 
Q 58.015625 40.1875 58.015625 27.296875 
Q 58.015625 14.40625 51.78125 6.484375 
Q 45.5625 -1.421875 35.59375 -1.421875 
Q 29.59375 -1.421875 25.265625 0.953125 
Q 20.953125 3.328125 18.109375 8.203125 
z
M 48.6875 27.296875 
Q 48.6875 37.203125 44.609375 42.84375 
Q 40.53125 48.484375 33.40625 48.484375 
Q 26.265625 48.484375 22.1875 42.84375 
Q 18.109375 37.203125 18.109375 27.296875 
Q 18.109375 17.390625 22.1875 11.75 
Q 26.265625 6.109375 33.40625 6.109375 
Q 40.53125 6.109375 44.609375 11.75 
Q 48.6875 17.390625 48.6875 27.296875 
z
" id="DejaVuSans-112"/>
       <path d="M 44.28125 53.078125 
L 44.28125 44.578125 
Q 40.484375 46.53125 36.375 47.5 
Q 32.28125 48.484375 27.875 48.484375 
Q 21.1875 48.484375 17.84375 46.4375 
Q 14.5 44.390625 14.5 40.28125 
Q 14.5 37.15625 16.890625 35.375 
Q 19.28125 33.59375 26.515625 31.984375 
L 29.59375 31.296875 
Q 39.15625 29.25 43.1875 25.515625 
Q 47.21875 21.78125 47.21875 15.09375 
Q 47.21875 7.46875 41.1875 3.015625 
Q 35.15625 -1.421875 24.609375 -1.421875 
Q 20.21875 -1.421875 15.453125 -0.5625 
Q 10.6875 0.296875 5.421875 2 
L 5.421875 11.28125 
Q 10.40625 8.6875 15.234375 7.390625 
Q 20.0625 6.109375 24.8125 6.109375 
Q 31.15625 6.109375 34.5625 8.28125 
Q 37.984375 10.453125 37.984375 14.40625 
Q 37.984375 18.0625 35.515625 20.015625 
Q 33.0625 21.96875 24.703125 23.78125 
L 21.578125 24.515625 
Q 13.234375 26.265625 9.515625 29.90625 
Q 5.8125 33.546875 5.8125 39.890625 
Q 5.8125 47.609375 11.28125 51.796875 
Q 16.75 56 26.8125 56 
Q 31.78125 56 36.171875 55.265625 
Q 40.578125 54.546875 44.28125 53.078125 
z
" id="DejaVuSans-115"/>
      </defs>
      <use xlink:href="#DejaVuSans-116"/>
      <use x="39.208984" xlink:href="#DejaVuSans-114"/>
      <use x="80.322266" xlink:href="#DejaVuSans-116"/>
      <use x="119.53125" xlink:href="#DejaVuSans-98"/>
      <use x="183.007812" xlink:href="#DejaVuSans-112"/>
      <use x="246.484375" xlink:href="#DejaVuSans-115"/>
     </g>
    </g>
   </g>
   <g id="matplotlib.axis_2">
    <g id="ytick_1">
     <g id="line2d_10">
      <path clip-path="url(#p3c7d1b2234)" d="M 48.190938 178.590698 
L 848.495435 178.590698 
" style="fill:none;stroke:#ffffff;stroke-linecap:round;"/>
     </g>
     <g id="text_11">
      <!-- 0.000 -->
      <g style="fill:#262626;" transform="translate(7.2 182.769839)scale(0.11 -0.11)">
       <defs>
        <path d="M 10.6875 12.40625 
L 21 12.40625 
L 21 0 
L 10.6875 0 
z
" id="DejaVuSans-46"/>
       </defs>
       <use xlink:href="#DejaVuSans-48"/>
       <use x="63.623047" xlink:href="#DejaVuSans-46"/>
       <use x="95.410156" xlink:href="#DejaVuSans-48"/>
       <use x="159.033203" xlink:href="#DejaVuSans-48"/>
       <use x="222.65625" xlink:href="#DejaVuSans-48"/>
      </g>
     </g>
    </g>
    <g id="ytick_2">
     <g id="line2d_11">
      <path clip-path="url(#p3c7d1b2234)" d="M 48.190938 147.770084 
L 848.495435 147.770084 
" style="fill:none;stroke:#ffffff;stroke-linecap:round;"/>
     </g>
     <g id="text_12">
      <!-- 0.005 -->
      <g style="fill:#262626;" transform="translate(7.2 151.949225)scale(0.11 -0.11)">
       <use xlink:href="#DejaVuSans-48"/>
       <use x="63.623047" xlink:href="#DejaVuSans-46"/>
       <use x="95.410156" xlink:href="#DejaVuSans-48"/>
       <use x="159.033203" xlink:href="#DejaVuSans-48"/>
       <use x="222.65625" xlink:href="#DejaVuSans-53"/>
      </g>
     </g>
    </g>
    <g id="ytick_3">
     <g id="line2d_12">
      <path clip-path="url(#p3c7d1b2234)" d="M 48.190938 116.94947 
L 848.495435 116.94947 
" style="fill:none;stroke:#ffffff;stroke-linecap:round;"/>
     </g>
     <g id="text_13">
      <!-- 0.010 -->
      <g style="fill:#262626;" transform="translate(7.2 121.128611)scale(0.11 -0.11)">
       <use xlink:href="#DejaVuSans-48"/>
       <use x="63.623047" xlink:href="#DejaVuSans-46"/>
       <use x="95.410156" xlink:href="#DejaVuSans-48"/>
       <use x="159.033203" xlink:href="#DejaVuSans-49"/>
       <use x="222.65625" xlink:href="#DejaVuSans-48"/>
      </g>
     </g>
    </g>
    <g id="ytick_4">
     <g id="line2d_13">
      <path clip-path="url(#p3c7d1b2234)" d="M 48.190938 86.128856 
L 848.495435 86.128856 
" style="fill:none;stroke:#ffffff;stroke-linecap:round;"/>
     </g>
     <g id="text_14">
      <!-- 0.015 -->
      <g style="fill:#262626;" transform="translate(7.2 90.307997)scale(0.11 -0.11)">
       <use xlink:href="#DejaVuSans-48"/>
       <use x="63.623047" xlink:href="#DejaVuSans-46"/>
       <use x="95.410156" xlink:href="#DejaVuSans-48"/>
       <use x="159.033203" xlink:href="#DejaVuSans-49"/>
       <use x="222.65625" xlink:href="#DejaVuSans-53"/>
      </g>
     </g>
    </g>
    <g id="ytick_5">
     <g id="line2d_14">
      <path clip-path="url(#p3c7d1b2234)" d="M 48.190938 55.308242 
L 848.495435 55.308242 
" style="fill:none;stroke:#ffffff;stroke-linecap:round;"/>
     </g>
     <g id="text_15">
      <!-- 0.020 -->
      <g style="fill:#262626;" transform="translate(7.2 59.487383)scale(0.11 -0.11)">
       <use xlink:href="#DejaVuSans-48"/>
       <use x="63.623047" xlink:href="#DejaVuSans-46"/>
       <use x="95.410156" xlink:href="#DejaVuSans-48"/>
       <use x="159.033203" xlink:href="#DejaVuSans-50"/>
       <use x="222.65625" xlink:href="#DejaVuSans-48"/>
      </g>
     </g>
    </g>
    <g id="ytick_6">
     <g id="line2d_15">
      <path clip-path="url(#p3c7d1b2234)" d="M 48.190938 24.487628 
L 848.495435 24.487628 
" style="fill:none;stroke:#ffffff;stroke-linecap:round;"/>
     </g>
     <g id="text_16">
      <!-- 0.025 -->
      <g style="fill:#262626;" transform="translate(7.2 28.666769)scale(0.11 -0.11)">
       <use xlink:href="#DejaVuSans-48"/>
       <use x="63.623047" xlink:href="#DejaVuSans-46"/>
       <use x="95.410156" xlink:href="#DejaVuSans-48"/>
       <use x="159.033203" xlink:href="#DejaVuSans-50"/>
       <use x="222.65625" xlink:href="#DejaVuSans-53"/>
      </g>
     </g>
    </g>
   </g>
   <g id="PolyCollection_1">
    <defs>
     <path d="M 364.415128 -43.018964 
L 364.415128 -42.959688 
L 367.269441 -42.959688 
L 370.123755 -42.959688 
L 372.978068 -42.959688 
L 375.832381 -42.959688 
L 378.686695 -42.959688 
L 381.541008 -42.959688 
L 384.395322 -42.959688 
L 387.249635 -42.959688 
L 390.103948 -42.959688 
L 392.958262 -42.959688 
L 395.812575 -42.959688 
L 398.666889 -42.959688 
L 401.521202 -42.959688 
L 404.375515 -42.959688 
L 407.229829 -42.959688 
L 410.084142 -42.959688 
L 412.938456 -42.959688 
L 415.792769 -42.959688 
L 418.647082 -42.959688 
L 421.501396 -42.959688 
L 424.355709 -42.959688 
L 427.210023 -42.959688 
L 430.064336 -42.959688 
L 432.918649 -42.959688 
L 435.772963 -42.959688 
L 438.627276 -42.959688 
L 441.48159 -42.959688 
L 444.335903 -42.959688 
L 447.190216 -42.959688 
L 450.04453 -42.959688 
L 452.898843 -42.959688 
L 455.753157 -42.959688 
L 458.60747 -42.959688 
L 461.461783 -42.959688 
L 464.316097 -42.959688 
L 467.17041 -42.959688 
L 470.024723 -42.959688 
L 472.879037 -42.959688 
L 475.73335 -42.959688 
L 478.587664 -42.959688 
L 481.441977 -42.959688 
L 484.29629 -42.959688 
L 487.150604 -42.959688 
L 490.004917 -42.959688 
L 492.859231 -42.959688 
L 495.713544 -42.959688 
L 498.567857 -42.959688 
L 501.422171 -42.959688 
L 504.276484 -42.959688 
L 507.130798 -42.959688 
L 509.985111 -42.959688 
L 512.839424 -42.959688 
L 515.693738 -42.959688 
L 518.548051 -42.959688 
L 521.402365 -42.959688 
L 524.256678 -42.959688 
L 527.110991 -42.959688 
L 529.965305 -42.959688 
L 532.819618 -42.959688 
L 535.673932 -42.959688 
L 538.528245 -42.959688 
L 541.382558 -42.959688 
L 544.236872 -42.959688 
L 547.091185 -42.959688 
L 549.945499 -42.959688 
L 552.799812 -42.959688 
L 555.654125 -42.959688 
L 558.508439 -42.959688 
L 561.362752 -42.959688 
L 564.217066 -42.959688 
L 567.071379 -42.959688 
L 569.925692 -42.959688 
L 572.780006 -42.959688 
L 575.634319 -42.959688 
L 578.488633 -42.959688 
L 581.342946 -42.959688 
L 584.197259 -42.959688 
L 587.051573 -42.959688 
L 589.905886 -42.959688 
L 592.7602 -42.959688 
L 595.614513 -42.959688 
L 598.468826 -42.959688 
L 601.32314 -42.959688 
L 604.177453 -42.959688 
L 607.031767 -42.959688 
L 609.88608 -42.959688 
L 612.740393 -42.959688 
L 615.594707 -42.959688 
L 618.44902 -42.959688 
L 621.303334 -42.959688 
L 624.157647 -42.959688 
L 627.01196 -42.959688 
L 629.866274 -42.959688 
L 632.720587 -42.959688 
L 635.574901 -42.959688 
L 638.429214 -42.959688 
L 641.283527 -42.959688 
L 644.137841 -42.959688 
L 646.992154 -42.959688 
L 649.846468 -42.959688 
L 652.700781 -42.959688 
L 655.555094 -42.959688 
L 658.409408 -42.959688 
L 661.263721 -42.959688 
L 664.118035 -42.959688 
L 666.972348 -42.959688 
L 669.826661 -42.959688 
L 672.680975 -42.959688 
L 675.535288 -42.959688 
L 678.389602 -42.959688 
L 681.243915 -42.959688 
L 684.098228 -42.959688 
L 686.952542 -42.959688 
L 689.806855 -42.959688 
L 692.661169 -42.959688 
L 695.515482 -42.959688 
L 698.369795 -42.959688 
L 701.224109 -42.959688 
L 704.078422 -42.959688 
L 706.932736 -42.959688 
L 709.787049 -42.959688 
L 712.641362 -42.959688 
L 715.495676 -42.959688 
L 718.349989 -42.959688 
L 721.204303 -42.959688 
L 724.058616 -42.959688 
L 726.912929 -42.959688 
L 729.767243 -42.959688 
L 732.621556 -42.959688 
L 735.47587 -42.959688 
L 738.330183 -42.959688 
L 741.184496 -42.959688 
L 744.03881 -42.959688 
L 746.893123 -42.959688 
L 749.747437 -42.959688 
L 752.60175 -42.959688 
L 755.456063 -42.959688 
L 758.310377 -42.959688 
L 761.16469 -42.959688 
L 764.019003 -42.959688 
L 766.873317 -42.959688 
L 769.72763 -42.959688 
L 772.581944 -42.959688 
L 775.436257 -42.959688 
L 778.29057 -42.959688 
L 781.144884 -42.959688 
L 783.999197 -42.959688 
L 786.853511 -42.959688 
L 789.707824 -42.959688 
L 792.562137 -42.959688 
L 795.416451 -42.959688 
L 798.270764 -42.959688 
L 801.125078 -42.959688 
L 803.979391 -42.959688 
L 806.833704 -42.959688 
L 809.688018 -42.959688 
L 812.542331 -42.959688 
L 815.396645 -42.959688 
L 818.250958 -42.959688 
L 821.105271 -42.959688 
L 823.959585 -42.959688 
L 826.813898 -42.959688 
L 829.668212 -42.959688 
L 832.522525 -42.959688 
L 835.376838 -42.959688 
L 838.231152 -42.959688 
L 841.085465 -42.959688 
L 843.939779 -42.959688 
L 846.794092 -42.959688 
L 849.648405 -42.959688 
L 852.502719 -42.959688 
L 855.357032 -42.959688 
L 858.211346 -42.959688 
L 861.065659 -42.959688 
L 863.919972 -42.959688 
L 866.774286 -42.959688 
L 869.628599 -42.959688 
L 872.482913 -42.959688 
L 875.337226 -42.959688 
L 878.191539 -42.959688 
L 881.045853 -42.959688 
L 883.900166 -42.959688 
L 886.75448 -42.959688 
L 889.608793 -42.959688 
L 892.463106 -42.959688 
L 895.31742 -42.959688 
L 898.171733 -42.959688 
L 901.026047 -42.959688 
L 903.88036 -42.959688 
L 906.734673 -42.959688 
L 909.588987 -42.959688 
L 912.4433 -42.959688 
L 915.297614 -42.959688 
L 918.151927 -42.959688 
L 921.00624 -42.959688 
L 923.860554 -42.959688 
L 926.714867 -42.959688 
L 929.569181 -42.959688 
L 932.423494 -42.959688 
L 932.423494 -42.988478 
L 932.423494 -42.988478 
L 929.569181 -42.998664 
L 926.714867 -43.011921 
L 923.860554 -43.028981 
L 921.00624 -43.050689 
L 918.151927 -43.078002 
L 915.297614 -43.111979 
L 912.4433 -43.153768 
L 909.588987 -43.204581 
L 906.734673 -43.265663 
L 903.88036 -43.33825 
L 901.026047 -43.423519 
L 898.171733 -43.52253 
L 895.31742 -43.636167 
L 892.463106 -43.765072 
L 889.608793 -43.909586 
L 886.75448 -44.069692 
L 883.900166 -44.244972 
L 881.045853 -44.434578 
L 878.191539 -44.637215 
L 875.337226 -44.851156 
L 872.482913 -45.074274 
L 869.628599 -45.304091 
L 866.774286 -45.537864 
L 863.919972 -45.772673 
L 861.065659 -46.005541 
L 858.211346 -46.233552 
L 855.357032 -46.453984 
L 852.502719 -46.664441 
L 849.648405 -46.862972 
L 846.794092 -47.048193 
L 843.939779 -47.219382 
L 841.085465 -47.376562 
L 838.231152 -47.520558 
L 835.376838 -47.653027 
L 832.522525 -47.776465 
L 829.668212 -47.894172 
L 826.813898 -48.010193 
L 823.959585 -48.12922 
L 821.105271 -48.256463 
L 818.250958 -48.39748 
L 815.396645 -48.557992 
L 812.542331 -48.743657 
L 809.688018 -48.959847 
L 806.833704 -49.211406 
L 803.979391 -49.502423 
L 801.125078 -49.83603 
L 798.270764 -50.214232 
L 795.416451 -50.637789 
L 792.562137 -51.106158 
L 789.707824 -51.617509 
L 786.853511 -52.168801 
L 783.999197 -52.755943 
L 781.144884 -53.374 
L 778.29057 -54.017463 
L 775.436257 -54.680539 
L 772.581944 -55.35747 
L 769.72763 -56.04283 
L 766.873317 -56.731811 
L 764.019003 -57.420459 
L 761.16469 -58.105855 
L 758.310377 -58.786238 
L 755.456063 -59.461054 
L 752.60175 -60.130938 
L 749.747437 -60.797635 
L 746.893123 -61.463871 
L 744.03881 -62.133183 
L 741.184496 -62.809716 
L 738.330183 -63.498023 
L 735.47587 -64.202855 
L 732.621556 -64.928981 
L 729.767243 -65.681031 
L 726.912929 -66.46339 
L 724.058616 -67.280132 
L 721.204303 -68.135018 
L 718.349989 -69.031537 
L 715.495676 -69.972998 
L 712.641362 -70.962666 
L 709.787049 -72.003908 
L 706.932736 -73.100354 
L 704.078422 -74.256035 
L 701.224109 -75.475487 
L 698.369795 -76.763794 
L 695.515482 -78.126563 
L 692.661169 -79.569816 
L 689.806855 -81.099799 
L 686.952542 -82.722722 
L 684.098228 -84.444438 
L 681.243915 -86.270091 
L 678.389602 -88.203766 
L 675.535288 -90.248153 
L 672.680975 -92.404277 
L 669.826661 -94.671304 
L 666.972348 -97.04643 
L 664.118035 -99.524879 
L 661.263721 -102.099987 
L 658.409408 -104.763372 
L 655.555094 -107.505159 
L 652.700781 -110.314251 
L 649.846468 -113.178618 
L 646.992154 -116.085585 
L 644.137841 -119.022122 
L 641.283527 -121.975105 
L 638.429214 -124.931581 
L 635.574901 -127.879015 
L 632.720587 -130.805542 
L 629.866274 -133.700219 
L 627.01196 -136.553273 
L 624.157647 -139.356338 
L 621.303334 -142.102654 
L 618.44902 -144.787204 
L 615.594707 -147.406762 
L 612.740393 -149.959808 
L 609.88608 -152.4463 
L 607.031767 -154.867283 
L 604.177453 -157.224338 
L 601.32314 -159.518899 
L 598.468826 -161.751472 
L 595.614513 -163.920825 
L 592.7602 -166.023209 
L 589.905886 -168.051686 
L 587.051573 -169.995647 
L 584.197259 -171.840559 
L 581.342946 -173.568012 
L 578.488633 -175.156052 
L 575.634319 -176.57983 
L 572.780006 -177.81251 
L 569.925692 -178.826393 
L 567.071379 -179.594187 
L 564.217066 -180.090343 
L 561.362752 -180.292362 
L 558.508439 -180.182008 
L 555.654125 -179.746322 
L 552.799812 -178.978412 
L 549.945499 -177.877933 
L 547.091185 -176.451261 
L 544.236872 -174.711318 
L 541.382558 -172.677085 
L 538.528245 -170.372797 
L 535.673932 -167.826878 
L 532.819618 -165.07067 
L 529.965305 -162.137009 
L 527.110991 -159.058745 
L 524.256678 -155.867286 
L 521.402365 -152.591247 
L 518.548051 -149.255315 
L 515.693738 -145.879381 
L 512.839424 -142.47803 
L 509.985111 -139.060407 
L 507.130798 -135.630495 
L 504.276484 -132.187771 
L 501.422171 -128.728197 
L 498.567857 -125.245474 
L 495.713544 -121.732451 
L 492.859231 -118.182576 
L 490.004917 -114.591267 
L 487.150604 -110.957087 
L 484.29629 -107.282638 
L 481.441977 -103.575091 
L 478.587664 -99.846318 
L 475.73335 -96.112636 
L 472.879037 -92.39419 
L 470.024723 -88.714036 
L 467.17041 -85.097019 
L 464.316097 -81.568547 
L 461.461783 -78.153355 
L 458.60747 -74.874369 
L 455.753157 -71.751731 
L 452.898843 -68.802064 
L 450.04453 -66.037988 
L 447.190216 -63.46791 
L 444.335903 -61.096069 
L 441.48159 -58.922788 
L 438.627276 -56.944902 
L 435.772963 -55.156303 
L 432.918649 -53.548535 
L 430.064336 -52.111411 
L 427.210023 -50.833585 
L 424.355709 -49.703075 
L 421.501396 -48.70769 
L 418.647082 -47.835379 
L 415.792769 -47.074482 
L 412.938456 -46.413904 
L 410.084142 -45.843215 
L 407.229829 -45.352707 
L 404.375515 -44.933399 
L 401.521202 -44.577026 
L 398.666889 -44.276008 
L 395.812575 -44.023418 
L 392.958262 -43.812948 
L 390.103948 -43.63887 
L 387.249635 -43.496013 
L 384.395322 -43.379736 
L 381.541008 -43.285897 
L 378.686695 -43.210834 
L 375.832381 -43.151337 
L 372.978068 -43.104617 
L 370.123755 -43.068283 
L 367.269441 -43.040301 
L 364.415128 -43.018964 
z
" id="m772084e6c8" style="stroke:#4c72b0;"/>
    </defs>
    <g clip-path="url(#p3c7d1b2234)">
     <use style="fill:#4c72b0;fill-opacity:0.25;stroke:#4c72b0;" x="0" xlink:href="#m772084e6c8" y="221.550386"/>
    </g>
   </g>
   <g id="PolyCollection_2">
    <defs>
     <path d="M 354.422432 -43.018902 
L 354.422432 -42.959688 
L 356.854363 -42.959688 
L 359.286293 -42.959688 
L 361.718224 -42.959688 
L 364.150154 -42.959688 
L 366.582085 -42.959688 
L 369.014015 -42.959688 
L 371.445946 -42.959688 
L 373.877876 -42.959688 
L 376.309807 -42.959688 
L 378.741737 -42.959688 
L 381.173668 -42.959688 
L 383.605598 -42.959688 
L 386.037529 -42.959688 
L 388.469459 -42.959688 
L 390.90139 -42.959688 
L 393.333321 -42.959688 
L 395.765251 -42.959688 
L 398.197182 -42.959688 
L 400.629112 -42.959688 
L 403.061043 -42.959688 
L 405.492973 -42.959688 
L 407.924904 -42.959688 
L 410.356834 -42.959688 
L 412.788765 -42.959688 
L 415.220695 -42.959688 
L 417.652626 -42.959688 
L 420.084556 -42.959688 
L 422.516487 -42.959688 
L 424.948417 -42.959688 
L 427.380348 -42.959688 
L 429.812278 -42.959688 
L 432.244209 -42.959688 
L 434.676139 -42.959688 
L 437.10807 -42.959688 
L 439.54 -42.959688 
L 441.971931 -42.959688 
L 444.403861 -42.959688 
L 446.835792 -42.959688 
L 449.267722 -42.959688 
L 451.699653 -42.959688 
L 454.131583 -42.959688 
L 456.563514 -42.959688 
L 458.995444 -42.959688 
L 461.427375 -42.959688 
L 463.859305 -42.959688 
L 466.291236 -42.959688 
L 468.723166 -42.959688 
L 471.155097 -42.959688 
L 473.587028 -42.959688 
L 476.018958 -42.959688 
L 478.450889 -42.959688 
L 480.882819 -42.959688 
L 483.31475 -42.959688 
L 485.74668 -42.959688 
L 488.178611 -42.959688 
L 490.610541 -42.959688 
L 493.042472 -42.959688 
L 495.474402 -42.959688 
L 497.906333 -42.959688 
L 500.338263 -42.959688 
L 502.770194 -42.959688 
L 505.202124 -42.959688 
L 507.634055 -42.959688 
L 510.065985 -42.959688 
L 512.497916 -42.959688 
L 514.929846 -42.959688 
L 517.361777 -42.959688 
L 519.793707 -42.959688 
L 522.225638 -42.959688 
L 524.657568 -42.959688 
L 527.089499 -42.959688 
L 529.521429 -42.959688 
L 531.95336 -42.959688 
L 534.38529 -42.959688 
L 536.817221 -42.959688 
L 539.249151 -42.959688 
L 541.681082 -42.959688 
L 544.113012 -42.959688 
L 546.544943 -42.959688 
L 548.976873 -42.959688 
L 551.408804 -42.959688 
L 553.840735 -42.959688 
L 556.272665 -42.959688 
L 558.704596 -42.959688 
L 561.136526 -42.959688 
L 563.568457 -42.959688 
L 566.000387 -42.959688 
L 568.432318 -42.959688 
L 570.864248 -42.959688 
L 573.296179 -42.959688 
L 575.728109 -42.959688 
L 578.16004 -42.959688 
L 580.59197 -42.959688 
L 583.023901 -42.959688 
L 585.455831 -42.959688 
L 587.887762 -42.959688 
L 590.319692 -42.959688 
L 592.751623 -42.959688 
L 595.183553 -42.959688 
L 597.615484 -42.959688 
L 600.047414 -42.959688 
L 602.479345 -42.959688 
L 604.911275 -42.959688 
L 607.343206 -42.959688 
L 609.775136 -42.959688 
L 612.207067 -42.959688 
L 614.638997 -42.959688 
L 617.070928 -42.959688 
L 619.502858 -42.959688 
L 621.934789 -42.959688 
L 624.366719 -42.959688 
L 626.79865 -42.959688 
L 629.23058 -42.959688 
L 631.662511 -42.959688 
L 634.094441 -42.959688 
L 636.526372 -42.959688 
L 638.958303 -42.959688 
L 641.390233 -42.959688 
L 643.822164 -42.959688 
L 646.254094 -42.959688 
L 648.686025 -42.959688 
L 651.117955 -42.959688 
L 653.549886 -42.959688 
L 655.981816 -42.959688 
L 658.413747 -42.959688 
L 660.845677 -42.959688 
L 663.277608 -42.959688 
L 665.709538 -42.959688 
L 668.141469 -42.959688 
L 670.573399 -42.959688 
L 673.00533 -42.959688 
L 675.43726 -42.959688 
L 677.869191 -42.959688 
L 680.301121 -42.959688 
L 682.733052 -42.959688 
L 685.164982 -42.959688 
L 687.596913 -42.959688 
L 690.028843 -42.959688 
L 692.460774 -42.959688 
L 694.892704 -42.959688 
L 697.324635 -42.959688 
L 699.756565 -42.959688 
L 702.188496 -42.959688 
L 704.620426 -42.959688 
L 707.052357 -42.959688 
L 709.484287 -42.959688 
L 711.916218 -42.959688 
L 714.348148 -42.959688 
L 716.780079 -42.959688 
L 719.21201 -42.959688 
L 721.64394 -42.959688 
L 724.075871 -42.959688 
L 726.507801 -42.959688 
L 728.939732 -42.959688 
L 731.371662 -42.959688 
L 733.803593 -42.959688 
L 736.235523 -42.959688 
L 738.667454 -42.959688 
L 741.099384 -42.959688 
L 743.531315 -42.959688 
L 745.963245 -42.959688 
L 748.395176 -42.959688 
L 750.827106 -42.959688 
L 753.259037 -42.959688 
L 755.690967 -42.959688 
L 758.122898 -42.959688 
L 760.554828 -42.959688 
L 762.986759 -42.959688 
L 765.418689 -42.959688 
L 767.85062 -42.959688 
L 770.28255 -42.959688 
L 772.714481 -42.959688 
L 775.146411 -42.959688 
L 777.578342 -42.959688 
L 780.010272 -42.959688 
L 782.442203 -42.959688 
L 784.874133 -42.959688 
L 787.306064 -42.959688 
L 789.737994 -42.959688 
L 792.169925 -42.959688 
L 794.601855 -42.959688 
L 797.033786 -42.959688 
L 799.465717 -42.959688 
L 801.897647 -42.959688 
L 804.329578 -42.959688 
L 806.761508 -42.959688 
L 809.193439 -42.959688 
L 811.625369 -42.959688 
L 814.0573 -42.959688 
L 816.48923 -42.959688 
L 818.921161 -42.959688 
L 821.353091 -42.959688 
L 823.785022 -42.959688 
L 826.216952 -42.959688 
L 828.648883 -42.959688 
L 831.080813 -42.959688 
L 833.512744 -42.959688 
L 835.944674 -42.959688 
L 838.376605 -42.959688 
L 838.376605 -42.9979 
L 838.376605 -42.9979 
L 835.944674 -43.012187 
L 833.512744 -43.03106 
L 831.080813 -43.055705 
L 828.648883 -43.087515 
L 826.216952 -43.128096 
L 823.785022 -43.179265 
L 821.353091 -43.243026 
L 818.921161 -43.321546 
L 816.48923 -43.417098 
L 814.0573 -43.531995 
L 811.625369 -43.668507 
L 809.193439 -43.828752 
L 806.761508 -44.014587 
L 804.329578 -44.22748 
L 801.897647 -44.468393 
L 799.465717 -44.73766 
L 797.033786 -45.034891 
L 794.601855 -45.358898 
L 792.169925 -45.707653 
L 789.737994 -46.078289 
L 787.306064 -46.467144 
L 784.874133 -46.86985 
L 782.442203 -47.281466 
L 780.010272 -47.696645 
L 777.578342 -48.109834 
L 775.146411 -48.51549 
L 772.714481 -48.908295 
L 770.28255 -49.283375 
L 767.85062 -49.636491 
L 765.418689 -49.964204 
L 762.986759 -50.264016 
L 760.554828 -50.534464 
L 758.122898 -50.775191 
L 755.690967 -50.986982 
L 753.259037 -51.171777 
L 750.827106 -51.332666 
L 748.395176 -51.473872 
L 745.963245 -51.600711 
L 743.531315 -51.719553 
L 741.099384 -51.837751 
L 738.667454 -51.963549 
L 736.235523 -52.105959 
L 733.803593 -52.274587 
L 731.371662 -52.47942 
L 728.939732 -52.730557 
L 726.507801 -53.037905 
L 724.075871 -53.410832 
L 721.64394 -53.857824 
L 719.21201 -54.38614 
L 716.780079 -55.00152 
L 714.348148 -55.707955 
L 711.916218 -56.507551 
L 709.484287 -57.400504 
L 707.052357 -58.385197 
L 704.620426 -59.458396 
L 702.188496 -60.615558 
L 699.756565 -61.851189 
L 697.324635 -63.159244 
L 694.892704 -64.53351 
L 692.460774 -65.967947 
L 690.028843 -67.456945 
L 687.596913 -68.995492 
L 685.164982 -70.579235 
L 682.733052 -72.204461 
L 680.301121 -73.868025 
L 677.869191 -75.567255 
L 675.43726 -77.299902 
L 673.00533 -79.064164 
L 670.573399 -80.858829 
L 668.141469 -82.683544 
L 665.709538 -84.539227 
L 663.277608 -86.428562 
L 660.845677 -88.356537 
L 658.413747 -90.330942 
L 655.981816 -92.362732 
L 653.549886 -94.466163 
L 651.117955 -96.658616 
L 648.686025 -98.960055 
L 646.254094 -101.392094 
L 643.822164 -103.976701 
L 641.390233 -106.734597 
L 638.958303 -109.683474 
L 636.526372 -112.836185 
L 634.094441 -116.199053 
L 631.662511 -119.770508 
L 629.23058 -123.540169 
L 626.79865 -127.488528 
L 624.366719 -131.587276 
L 621.934789 -135.800289 
L 619.502858 -140.085209 
L 617.070928 -144.395488 
L 614.638997 -148.682727 
L 612.207067 -152.899089 
L 609.775136 -156.999582 
L 607.343206 -160.943992 
L 604.911275 -164.698328 
L 602.479345 -168.235644 
L 600.047414 -171.536241 
L 597.615484 -174.58726 
L 595.183553 -177.381791 
L 592.751623 -179.917652 
L 590.319692 -182.196022 
L 587.887762 -184.220128 
L 585.455831 -185.99415 
L 583.023901 -187.522473 
L 580.59197 -188.80934 
L 578.16004 -189.858911 
L 575.728109 -190.675651 
L 573.296179 -191.264924 
L 570.864248 -191.633625 
L 568.432318 -191.79071 
L 566.000387 -191.747441 
L 563.568457 -191.517274 
L 561.136526 -191.115323 
L 558.704596 -190.557439 
L 556.272665 -189.858985 
L 553.840735 -189.033471 
L 551.408804 -188.091216 
L 548.976873 -187.038248 
L 546.544943 -185.875614 
L 544.113012 -184.599229 
L 541.681082 -183.200333 
L 539.249151 -181.666558 
L 536.817221 -179.983498 
L 534.38529 -178.136647 
L 531.95336 -176.11348 
L 529.521429 -173.905454 
L 527.089499 -171.5097 
L 524.657568 -168.930202 
L 522.225638 -166.178334 
L 519.793707 -163.272674 
L 517.361777 -160.238119 
L 514.929846 -157.104385 
L 512.497916 -153.904046 
L 510.065985 -150.670322 
L 507.634055 -147.434832 
L 505.202124 -144.225534 
L 502.770194 -141.065041 
L 500.338263 -137.969453 
L 497.906333 -134.947796 
L 495.474402 -132.002073 
L 493.042472 -129.12789 
L 490.610541 -126.315552 
L 488.178611 -123.551507 
L 485.74668 -120.819964 
L 483.31475 -118.10455 
L 480.882819 -115.389838 
L 478.450889 -112.662663 
L 476.018958 -109.913109 
L 473.587028 -107.135157 
L 471.155097 -104.326965 
L 468.723166 -101.490821 
L 466.291236 -98.63281 
L 463.859305 -95.762261 
L 461.427375 -92.891055 
L 458.995444 -90.032853 
L 456.563514 -87.202309 
L 454.131583 -84.414333 
L 451.699653 -81.683419 
L 449.267722 -79.023093 
L 446.835792 -76.445473 
L 444.403861 -73.96095 
L 441.971931 -71.578001 
L 439.54 -69.303103 
L 437.10807 -67.140757 
L 434.676139 -65.093585 
L 432.244209 -63.162506 
L 429.812278 -61.346958 
L 427.380348 -59.645147 
L 424.948417 -58.054316 
L 422.516487 -56.571014 
L 420.084556 -55.191336 
L 417.652626 -53.911143 
L 415.220695 -52.726234 
L 412.788765 -51.632473 
L 410.356834 -50.62587 
L 407.924904 -49.702612 
L 405.492973 -48.859059 
L 403.061043 -48.091701 
L 400.629112 -47.397107 
L 398.197182 -46.771852 
L 395.765251 -46.212456 
L 393.333321 -45.715329 
L 390.90139 -45.276738 
L 388.469459 -44.892787 
L 386.037529 -44.559434 
L 383.605598 -44.272513 
L 381.173668 -44.027787 
L 378.741737 -43.821009 
L 376.309807 -43.647984 
L 373.877876 -43.504641 
L 371.445946 -43.387094 
L 369.014015 -43.291698 
L 366.582085 -43.215094 
L 364.150154 -43.154234 
L 361.718224 -43.106405 
L 359.286293 -43.069224 
L 356.854363 -43.040638 
L 354.422432 -43.018902 
z
" id="m51646a2b03" style="stroke:#dd8452;"/>
    </defs>
    <g clip-path="url(#p3c7d1b2234)">
     <use style="fill:#dd8452;fill-opacity:0.25;stroke:#dd8452;" x="0" xlink:href="#m51646a2b03" y="221.550386"/>
    </g>
   </g>
   <g id="patch_3">
    <path d="M 48.190938 178.590698 
L 48.190938 22.318125 
" style="fill:none;stroke:#ffffff;stroke-linecap:square;stroke-linejoin:miter;stroke-width:1.25;"/>
   </g>
   <g id="patch_4">
    <path d="M 48.190938 178.590698 
L 848.495435 178.590698 
" style="fill:none;stroke:#ffffff;stroke-linecap:square;stroke-linejoin:miter;stroke-width:1.25;"/>
   </g>
   <g id="text_17">
    <!-- Output: trtbps -->
    <g style="fill:#262626;" transform="translate(405.658811 16.318125)scale(0.12 -0.12)">
     <defs>
      <path d="M 39.40625 66.21875 
Q 28.65625 66.21875 22.328125 58.203125 
Q 16.015625 50.203125 16.015625 36.375 
Q 16.015625 22.609375 22.328125 14.59375 
Q 28.65625 6.59375 39.40625 6.59375 
Q 50.140625 6.59375 56.421875 14.59375 
Q 62.703125 22.609375 62.703125 36.375 
Q 62.703125 50.203125 56.421875 58.203125 
Q 50.140625 66.21875 39.40625 66.21875 
z
M 39.40625 74.21875 
Q 54.734375 74.21875 63.90625 63.9375 
Q 73.09375 53.65625 73.09375 36.375 
Q 73.09375 19.140625 63.90625 8.859375 
Q 54.734375 -1.421875 39.40625 -1.421875 
Q 24.03125 -1.421875 14.8125 8.828125 
Q 5.609375 19.09375 5.609375 36.375 
Q 5.609375 53.65625 14.8125 63.9375 
Q 24.03125 74.21875 39.40625 74.21875 
z
" id="DejaVuSans-79"/>
      <path d="M 8.5 21.578125 
L 8.5 54.6875 
L 17.484375 54.6875 
L 17.484375 21.921875 
Q 17.484375 14.15625 20.5 10.265625 
Q 23.53125 6.390625 29.59375 6.390625 
Q 36.859375 6.390625 41.078125 11.03125 
Q 45.3125 15.671875 45.3125 23.6875 
L 45.3125 54.6875 
L 54.296875 54.6875 
L 54.296875 0 
L 45.3125 0 
L 45.3125 8.40625 
Q 42.046875 3.421875 37.71875 1 
Q 33.40625 -1.421875 27.6875 -1.421875 
Q 18.265625 -1.421875 13.375 4.4375 
Q 8.5 10.296875 8.5 21.578125 
z
M 31.109375 56 
z
" id="DejaVuSans-117"/>
      <path d="M 11.71875 12.40625 
L 22.015625 12.40625 
L 22.015625 0 
L 11.71875 0 
z
M 11.71875 51.703125 
L 22.015625 51.703125 
L 22.015625 39.3125 
L 11.71875 39.3125 
z
" id="DejaVuSans-58"/>
      <path id="DejaVuSans-32"/>
     </defs>
     <use xlink:href="#DejaVuSans-79"/>
     <use x="78.710938" xlink:href="#DejaVuSans-117"/>
     <use x="142.089844" xlink:href="#DejaVuSans-116"/>
     <use x="181.298828" xlink:href="#DejaVuSans-112"/>
     <use x="244.775391" xlink:href="#DejaVuSans-117"/>
     <use x="308.154297" xlink:href="#DejaVuSans-116"/>
     <use x="347.363281" xlink:href="#DejaVuSans-58"/>
     <use x="381.054688" xlink:href="#DejaVuSans-32"/>
     <use x="412.841797" xlink:href="#DejaVuSans-116"/>
     <use x="452.050781" xlink:href="#DejaVuSans-114"/>
     <use x="493.164062" xlink:href="#DejaVuSans-116"/>
     <use x="532.373047" xlink:href="#DejaVuSans-98"/>
     <use x="595.849609" xlink:href="#DejaVuSans-112"/>
     <use x="659.326172" xlink:href="#DejaVuSans-115"/>
    </g>
   </g>
  </g>
  <g id="legend_1">
   <g id="text_18">
    <!-- output -->
    <g style="fill:#262626;" transform="translate(858.26531 97.940505)scale(0.12 -0.12)">
     <defs>
      <path d="M 30.609375 48.390625 
Q 23.390625 48.390625 19.1875 42.75 
Q 14.984375 37.109375 14.984375 27.296875 
Q 14.984375 17.484375 19.15625 11.84375 
Q 23.34375 6.203125 30.609375 6.203125 
Q 37.796875 6.203125 41.984375 11.859375 
Q 46.1875 17.53125 46.1875 27.296875 
Q 46.1875 37.015625 41.984375 42.703125 
Q 37.796875 48.390625 30.609375 48.390625 
z
M 30.609375 56 
Q 42.328125 56 49.015625 48.375 
Q 55.71875 40.765625 55.71875 27.296875 
Q 55.71875 13.875 49.015625 6.21875 
Q 42.328125 -1.421875 30.609375 -1.421875 
Q 18.84375 -1.421875 12.171875 6.21875 
Q 5.515625 13.875 5.515625 27.296875 
Q 5.515625 40.765625 12.171875 48.375 
Q 18.84375 56 30.609375 56 
z
" id="DejaVuSans-111"/>
     </defs>
     <use xlink:href="#DejaVuSans-111"/>
     <use x="61.181641" xlink:href="#DejaVuSans-117"/>
     <use x="124.560547" xlink:href="#DejaVuSans-116"/>
     <use x="163.769531" xlink:href="#DejaVuSans-112"/>
     <use x="227.246094" xlink:href="#DejaVuSans-117"/>
     <use x="290.625" xlink:href="#DejaVuSans-116"/>
    </g>
   </g>
   <g id="patch_5">
    <path d="M 859.155623 114.294412 
L 881.155623 114.294412 
L 881.155623 106.594412 
L 859.155623 106.594412 
z
" style="fill:#4c72b0;fill-opacity:0.25;stroke:#4c72b0;stroke-linejoin:miter;"/>
   </g>
   <g id="text_19">
    <!-- 0 -->
    <g style="fill:#262626;" transform="translate(889.955623 114.294412)scale(0.11 -0.11)">
     <use xlink:href="#DejaVuSans-48"/>
    </g>
   </g>
   <g id="patch_6">
    <path d="M 859.155623 130.440349 
L 881.155623 130.440349 
L 881.155623 122.740349 
L 859.155623 122.740349 
z
" style="fill:#dd8452;fill-opacity:0.25;stroke:#dd8452;stroke-linejoin:miter;"/>
   </g>
   <g id="text_20">
    <!-- 1 -->
    <g style="fill:#262626;" transform="translate(889.955623 130.440349)scale(0.11 -0.11)">
     <use xlink:href="#DejaVuSans-49"/>
    </g>
   </g>
  </g>
 </g>
 <defs>
  <clipPath id="p3c7d1b2234">
   <rect height="156.272573" width="800.304498" x="48.190938" y="22.318125"/>
  </clipPath>
 </defs>
</svg>
