<?xml version="1.0" encoding="utf-8" standalone="no"?>
<!DOCTYPE svg PUBLIC "-//W3C//DTD SVG 1.1//EN"
  "http://www.w3.org/Graphics/SVG/1.1/DTD/svg11.dtd">
<!-- Created with matplotlib (https://matplotlib.org/) -->
<svg height="223.177812pt" version="1.1" viewBox="0 0 908.53185 223.177812" width="908.53185pt" xmlns="http://www.w3.org/2000/svg" xmlns:xlink="http://www.w3.org/1999/xlink">
 <metadata>
  <rdf:RDF xmlns:cc="http://creativecommons.org/ns#" xmlns:dc="http://purl.org/dc/elements/1.1/" xmlns:rdf="http://www.w3.org/1999/02/22-rdf-syntax-ns#">
   <cc:Work>
    <dc:type rdf:resource="http://purl.org/dc/dcmitype/StillImage"/>
    <dc:date>2021-07-04T23:48:54.617160</dc:date>
    <dc:format>image/svg+xml</dc:format>
    <dc:creator>
     <cc:Agent>
      <dc:title>Matplotlib v3.3.4, https://matplotlib.org/</dc:title>
     </cc:Agent>
    </dc:creator>
   </cc:Work>
  </rdf:RDF>
 </metadata>
 <defs>
  <style type="text/css">*{stroke-linecap:butt;stroke-linejoin:round;}</style>
 </defs>
 <g id="figure_1">
  <g id="patch_1">
   <path d="M 0 223.177812 
L 908.53185 223.177812 
L 908.53185 0 
L 0 0 
z
" style="fill:none;"/>
  </g>
  <g id="axes_1">
   <g id="patch_2">
    <path d="M 34.193438 180.218125 
L 849.2826 180.218125 
L 849.2826 22.318125 
L 34.193438 22.318125 
z
" style="fill:#eaeaf2;"/>
   </g>
   <g id="matplotlib.axis_1">
    <g id="xtick_1">
     <g id="line2d_1">
      <path clip-path="url(#pc9dd36cfb1)" d="M 34.193438 180.218125 
L 34.193438 22.318125 
" style="fill:none;stroke:#ffffff;stroke-linecap:round;"/>
     </g>
     <g id="text_1">
      <!-- 0.0 -->
      <g style="fill:#262626;" transform="translate(25.446719 198.076406)scale(0.11 -0.11)">
       <defs>
        <path d="M 31.78125 66.40625 
Q 24.171875 66.40625 20.328125 58.90625 
Q 16.5 51.421875 16.5 36.375 
Q 16.5 21.390625 20.328125 13.890625 
Q 24.171875 6.390625 31.78125 6.390625 
Q 39.453125 6.390625 43.28125 13.890625 
Q 47.125 21.390625 47.125 36.375 
Q 47.125 51.421875 43.28125 58.90625 
Q 39.453125 66.40625 31.78125 66.40625 
z
M 31.78125 74.21875 
Q 44.046875 74.21875 50.515625 64.515625 
Q 56.984375 54.828125 56.984375 36.375 
Q 56.984375 17.96875 50.515625 8.265625 
Q 44.046875 -1.421875 31.78125 -1.421875 
Q 19.53125 -1.421875 13.0625 8.265625 
Q 6.59375 17.96875 6.59375 36.375 
Q 6.59375 54.828125 13.0625 64.515625 
Q 19.53125 74.21875 31.78125 74.21875 
z
" id="DejaVuSans-48"/>
        <path d="M 10.6875 12.40625 
L 21 12.40625 
L 21 0 
L 10.6875 0 
z
" id="DejaVuSans-46"/>
       </defs>
       <use xlink:href="#DejaVuSans-48"/>
       <use x="63.623047" xlink:href="#DejaVuSans-46"/>
       <use x="95.410156" xlink:href="#DejaVuSans-48"/>
      </g>
     </g>
    </g>
    <g id="xtick_2">
     <g id="line2d_2">
      <path clip-path="url(#pc9dd36cfb1)" d="M 197.21127 180.218125 
L 197.21127 22.318125 
" style="fill:none;stroke:#ffffff;stroke-linecap:round;"/>
     </g>
     <g id="text_2">
      <!-- 0.2 -->
      <g style="fill:#262626;" transform="translate(188.464551 198.076406)scale(0.11 -0.11)">
       <defs>
        <path d="M 19.1875 8.296875 
L 53.609375 8.296875 
L 53.609375 0 
L 7.328125 0 
L 7.328125 8.296875 
Q 12.9375 14.109375 22.625 23.890625 
Q 32.328125 33.6875 34.8125 36.53125 
Q 39.546875 41.84375 41.421875 45.53125 
Q 43.3125 49.21875 43.3125 52.78125 
Q 43.3125 58.59375 39.234375 62.25 
Q 35.15625 65.921875 28.609375 65.921875 
Q 23.96875 65.921875 18.8125 64.3125 
Q 13.671875 62.703125 7.8125 59.421875 
L 7.8125 69.390625 
Q 13.765625 71.78125 18.9375 73 
Q 24.125 74.21875 28.421875 74.21875 
Q 39.75 74.21875 46.484375 68.546875 
Q 53.21875 62.890625 53.21875 53.421875 
Q 53.21875 48.921875 51.53125 44.890625 
Q 49.859375 40.875 45.40625 35.40625 
Q 44.1875 33.984375 37.640625 27.21875 
Q 31.109375 20.453125 19.1875 8.296875 
z
" id="DejaVuSans-50"/>
       </defs>
       <use xlink:href="#DejaVuSans-48"/>
       <use x="63.623047" xlink:href="#DejaVuSans-46"/>
       <use x="95.410156" xlink:href="#DejaVuSans-50"/>
      </g>
     </g>
    </g>
    <g id="xtick_3">
     <g id="line2d_3">
      <path clip-path="url(#pc9dd36cfb1)" d="M 360.229102 180.218125 
L 360.229102 22.318125 
" style="fill:none;stroke:#ffffff;stroke-linecap:round;"/>
     </g>
     <g id="text_3">
      <!-- 0.4 -->
      <g style="fill:#262626;" transform="translate(351.482384 198.076406)scale(0.11 -0.11)">
       <defs>
        <path d="M 37.796875 64.3125 
L 12.890625 25.390625 
L 37.796875 25.390625 
z
M 35.203125 72.90625 
L 47.609375 72.90625 
L 47.609375 25.390625 
L 58.015625 25.390625 
L 58.015625 17.1875 
L 47.609375 17.1875 
L 47.609375 0 
L 37.796875 0 
L 37.796875 17.1875 
L 4.890625 17.1875 
L 4.890625 26.703125 
z
" id="DejaVuSans-52"/>
       </defs>
       <use xlink:href="#DejaVuSans-48"/>
       <use x="63.623047" xlink:href="#DejaVuSans-46"/>
       <use x="95.410156" xlink:href="#DejaVuSans-52"/>
      </g>
     </g>
    </g>
    <g id="xtick_4">
     <g id="line2d_4">
      <path clip-path="url(#pc9dd36cfb1)" d="M 523.246935 180.218125 
L 523.246935 22.318125 
" style="fill:none;stroke:#ffffff;stroke-linecap:round;"/>
     </g>
     <g id="text_4">
      <!-- 0.6 -->
      <g style="fill:#262626;" transform="translate(514.500216 198.076406)scale(0.11 -0.11)">
       <defs>
        <path d="M 33.015625 40.375 
Q 26.375 40.375 22.484375 35.828125 
Q 18.609375 31.296875 18.609375 23.390625 
Q 18.609375 15.53125 22.484375 10.953125 
Q 26.375 6.390625 33.015625 6.390625 
Q 39.65625 6.390625 43.53125 10.953125 
Q 47.40625 15.53125 47.40625 23.390625 
Q 47.40625 31.296875 43.53125 35.828125 
Q 39.65625 40.375 33.015625 40.375 
z
M 52.59375 71.296875 
L 52.59375 62.3125 
Q 48.875 64.0625 45.09375 64.984375 
Q 41.3125 65.921875 37.59375 65.921875 
Q 27.828125 65.921875 22.671875 59.328125 
Q 17.53125 52.734375 16.796875 39.40625 
Q 19.671875 43.65625 24.015625 45.921875 
Q 28.375 48.1875 33.59375 48.1875 
Q 44.578125 48.1875 50.953125 41.515625 
Q 57.328125 34.859375 57.328125 23.390625 
Q 57.328125 12.15625 50.6875 5.359375 
Q 44.046875 -1.421875 33.015625 -1.421875 
Q 20.359375 -1.421875 13.671875 8.265625 
Q 6.984375 17.96875 6.984375 36.375 
Q 6.984375 53.65625 15.1875 63.9375 
Q 23.390625 74.21875 37.203125 74.21875 
Q 40.921875 74.21875 44.703125 73.484375 
Q 48.484375 72.75 52.59375 71.296875 
z
" id="DejaVuSans-54"/>
       </defs>
       <use xlink:href="#DejaVuSans-48"/>
       <use x="63.623047" xlink:href="#DejaVuSans-46"/>
       <use x="95.410156" xlink:href="#DejaVuSans-54"/>
      </g>
     </g>
    </g>
    <g id="xtick_5">
     <g id="line2d_5">
      <path clip-path="url(#pc9dd36cfb1)" d="M 686.264767 180.218125 
L 686.264767 22.318125 
" style="fill:none;stroke:#ffffff;stroke-linecap:round;"/>
     </g>
     <g id="text_5">
      <!-- 0.8 -->
      <g style="fill:#262626;" transform="translate(677.518048 198.076406)scale(0.11 -0.11)">
       <defs>
        <path d="M 31.78125 34.625 
Q 24.75 34.625 20.71875 30.859375 
Q 16.703125 27.09375 16.703125 20.515625 
Q 16.703125 13.921875 20.71875 10.15625 
Q 24.75 6.390625 31.78125 6.390625 
Q 38.8125 6.390625 42.859375 10.171875 
Q 46.921875 13.96875 46.921875 20.515625 
Q 46.921875 27.09375 42.890625 30.859375 
Q 38.875 34.625 31.78125 34.625 
z
M 21.921875 38.8125 
Q 15.578125 40.375 12.03125 44.71875 
Q 8.5 49.078125 8.5 55.328125 
Q 8.5 64.0625 14.71875 69.140625 
Q 20.953125 74.21875 31.78125 74.21875 
Q 42.671875 74.21875 48.875 69.140625 
Q 55.078125 64.0625 55.078125 55.328125 
Q 55.078125 49.078125 51.53125 44.71875 
Q 48 40.375 41.703125 38.8125 
Q 48.828125 37.15625 52.796875 32.3125 
Q 56.78125 27.484375 56.78125 20.515625 
Q 56.78125 9.90625 50.3125 4.234375 
Q 43.84375 -1.421875 31.78125 -1.421875 
Q 19.734375 -1.421875 13.25 4.234375 
Q 6.78125 9.90625 6.78125 20.515625 
Q 6.78125 27.484375 10.78125 32.3125 
Q 14.796875 37.15625 21.921875 38.8125 
z
M 18.3125 54.390625 
Q 18.3125 48.734375 21.84375 45.5625 
Q 25.390625 42.390625 31.78125 42.390625 
Q 38.140625 42.390625 41.71875 45.5625 
Q 45.3125 48.734375 45.3125 54.390625 
Q 45.3125 60.0625 41.71875 63.234375 
Q 38.140625 66.40625 31.78125 66.40625 
Q 25.390625 66.40625 21.84375 63.234375 
Q 18.3125 60.0625 18.3125 54.390625 
z
" id="DejaVuSans-56"/>
       </defs>
       <use xlink:href="#DejaVuSans-48"/>
       <use x="63.623047" xlink:href="#DejaVuSans-46"/>
       <use x="95.410156" xlink:href="#DejaVuSans-56"/>
      </g>
     </g>
    </g>
    <g id="xtick_6">
     <g id="line2d_6">
      <path clip-path="url(#pc9dd36cfb1)" d="M 849.2826 180.218125 
L 849.2826 22.318125 
" style="fill:none;stroke:#ffffff;stroke-linecap:round;"/>
     </g>
     <g id="text_6">
      <!-- 1.0 -->
      <g style="fill:#262626;" transform="translate(840.535881 198.076406)scale(0.11 -0.11)">
       <defs>
        <path d="M 12.40625 8.296875 
L 28.515625 8.296875 
L 28.515625 63.921875 
L 10.984375 60.40625 
L 10.984375 69.390625 
L 28.421875 72.90625 
L 38.28125 72.90625 
L 38.28125 8.296875 
L 54.390625 8.296875 
L 54.390625 0 
L 12.40625 0 
z
" id="DejaVuSans-49"/>
       </defs>
       <use xlink:href="#DejaVuSans-49"/>
       <use x="63.623047" xlink:href="#DejaVuSans-46"/>
       <use x="95.410156" xlink:href="#DejaVuSans-48"/>
      </g>
     </g>
    </g>
    <g id="text_7">
     <!-- sex -->
     <g style="fill:#262626;" transform="translate(431.474269 213.482187)scale(0.12 -0.12)">
      <defs>
       <path d="M 44.28125 53.078125 
L 44.28125 44.578125 
Q 40.484375 46.53125 36.375 47.5 
Q 32.28125 48.484375 27.875 48.484375 
Q 21.1875 48.484375 17.84375 46.4375 
Q 14.5 44.390625 14.5 40.28125 
Q 14.5 37.15625 16.890625 35.375 
Q 19.28125 33.59375 26.515625 31.984375 
L 29.59375 31.296875 
Q 39.15625 29.25 43.1875 25.515625 
Q 47.21875 21.78125 47.21875 15.09375 
Q 47.21875 7.46875 41.1875 3.015625 
Q 35.15625 -1.421875 24.609375 -1.421875 
Q 20.21875 -1.421875 15.453125 -0.5625 
Q 10.6875 0.296875 5.421875 2 
L 5.421875 11.28125 
Q 10.40625 8.6875 15.234375 7.390625 
Q 20.0625 6.109375 24.8125 6.109375 
Q 31.15625 6.109375 34.5625 8.28125 
Q 37.984375 10.453125 37.984375 14.40625 
Q 37.984375 18.0625 35.515625 20.015625 
Q 33.0625 21.96875 24.703125 23.78125 
L 21.578125 24.515625 
Q 13.234375 26.265625 9.515625 29.90625 
Q 5.8125 33.546875 5.8125 39.890625 
Q 5.8125 47.609375 11.28125 51.796875 
Q 16.75 56 26.8125 56 
Q 31.78125 56 36.171875 55.265625 
Q 40.578125 54.546875 44.28125 53.078125 
z
" id="DejaVuSans-115"/>
       <path d="M 56.203125 29.59375 
L 56.203125 25.203125 
L 14.890625 25.203125 
Q 15.484375 15.921875 20.484375 11.0625 
Q 25.484375 6.203125 34.421875 6.203125 
Q 39.59375 6.203125 44.453125 7.46875 
Q 49.3125 8.734375 54.109375 11.28125 
L 54.109375 2.78125 
Q 49.265625 0.734375 44.1875 -0.34375 
Q 39.109375 -1.421875 33.890625 -1.421875 
Q 20.796875 -1.421875 13.15625 6.1875 
Q 5.515625 13.8125 5.515625 26.8125 
Q 5.515625 40.234375 12.765625 48.109375 
Q 20.015625 56 32.328125 56 
Q 43.359375 56 49.78125 48.890625 
Q 56.203125 41.796875 56.203125 29.59375 
z
M 47.21875 32.234375 
Q 47.125 39.59375 43.09375 43.984375 
Q 39.0625 48.390625 32.421875 48.390625 
Q 24.90625 48.390625 20.390625 44.140625 
Q 15.875 39.890625 15.1875 32.171875 
z
" id="DejaVuSans-101"/>
       <path d="M 54.890625 54.6875 
L 35.109375 28.078125 
L 55.90625 0 
L 45.3125 0 
L 29.390625 21.484375 
L 13.484375 0 
L 2.875 0 
L 24.125 28.609375 
L 4.6875 54.6875 
L 15.28125 54.6875 
L 29.78125 35.203125 
L 44.28125 54.6875 
z
" id="DejaVuSans-120"/>
      </defs>
      <use xlink:href="#DejaVuSans-115"/>
      <use x="52.099609" xlink:href="#DejaVuSans-101"/>
      <use x="111.873047" xlink:href="#DejaVuSans-120"/>
     </g>
    </g>
   </g>
   <g id="matplotlib.axis_2">
    <g id="ytick_1">
     <g id="line2d_7">
      <path clip-path="url(#pc9dd36cfb1)" d="M 34.193438 180.218125 
L 849.2826 180.218125 
" style="fill:none;stroke:#ffffff;stroke-linecap:round;"/>
     </g>
     <g id="text_8">
      <!-- 0.0 -->
      <g style="fill:#262626;" transform="translate(7.2 184.397266)scale(0.11 -0.11)">
       <use xlink:href="#DejaVuSans-48"/>
       <use x="63.623047" xlink:href="#DejaVuSans-46"/>
       <use x="95.410156" xlink:href="#DejaVuSans-48"/>
      </g>
     </g>
    </g>
    <g id="ytick_2">
     <g id="line2d_8">
      <path clip-path="url(#pc9dd36cfb1)" d="M 34.193438 147.817226 
L 849.2826 147.817226 
" style="fill:none;stroke:#ffffff;stroke-linecap:round;"/>
     </g>
     <g id="text_9">
      <!-- 0.5 -->
      <g style="fill:#262626;" transform="translate(7.2 151.996366)scale(0.11 -0.11)">
       <defs>
        <path d="M 10.796875 72.90625 
L 49.515625 72.90625 
L 49.515625 64.59375 
L 19.828125 64.59375 
L 19.828125 46.734375 
Q 21.96875 47.46875 24.109375 47.828125 
Q 26.265625 48.1875 28.421875 48.1875 
Q 40.625 48.1875 47.75 41.5 
Q 54.890625 34.8125 54.890625 23.390625 
Q 54.890625 11.625 47.5625 5.09375 
Q 40.234375 -1.421875 26.90625 -1.421875 
Q 22.3125 -1.421875 17.546875 -0.640625 
Q 12.796875 0.140625 7.71875 1.703125 
L 7.71875 11.625 
Q 12.109375 9.234375 16.796875 8.0625 
Q 21.484375 6.890625 26.703125 6.890625 
Q 35.15625 6.890625 40.078125 11.328125 
Q 45.015625 15.765625 45.015625 23.390625 
Q 45.015625 31 40.078125 35.4375 
Q 35.15625 39.890625 26.703125 39.890625 
Q 22.75 39.890625 18.8125 39.015625 
Q 14.890625 38.140625 10.796875 36.28125 
z
" id="DejaVuSans-53"/>
       </defs>
       <use xlink:href="#DejaVuSans-48"/>
       <use x="63.623047" xlink:href="#DejaVuSans-46"/>
       <use x="95.410156" xlink:href="#DejaVuSans-53"/>
      </g>
     </g>
    </g>
    <g id="ytick_3">
     <g id="line2d_9">
      <path clip-path="url(#pc9dd36cfb1)" d="M 34.193438 115.416326 
L 849.2826 115.416326 
" style="fill:none;stroke:#ffffff;stroke-linecap:round;"/>
     </g>
     <g id="text_10">
      <!-- 1.0 -->
      <g style="fill:#262626;" transform="translate(7.2 119.595467)scale(0.11 -0.11)">
       <use xlink:href="#DejaVuSans-49"/>
       <use x="63.623047" xlink:href="#DejaVuSans-46"/>
       <use x="95.410156" xlink:href="#DejaVuSans-48"/>
      </g>
     </g>
    </g>
    <g id="ytick_4">
     <g id="line2d_10">
      <path clip-path="url(#pc9dd36cfb1)" d="M 34.193438 83.015427 
L 849.2826 83.015427 
" style="fill:none;stroke:#ffffff;stroke-linecap:round;"/>
     </g>
     <g id="text_11">
      <!-- 1.5 -->
      <g style="fill:#262626;" transform="translate(7.2 87.194568)scale(0.11 -0.11)">
       <use xlink:href="#DejaVuSans-49"/>
       <use x="63.623047" xlink:href="#DejaVuSans-46"/>
       <use x="95.410156" xlink:href="#DejaVuSans-53"/>
      </g>
     </g>
    </g>
    <g id="ytick_5">
     <g id="line2d_11">
      <path clip-path="url(#pc9dd36cfb1)" d="M 34.193438 50.614528 
L 849.2826 50.614528 
" style="fill:none;stroke:#ffffff;stroke-linecap:round;"/>
     </g>
     <g id="text_12">
      <!-- 2.0 -->
      <g style="fill:#262626;" transform="translate(7.2 54.793668)scale(0.11 -0.11)">
       <use xlink:href="#DejaVuSans-50"/>
       <use x="63.623047" xlink:href="#DejaVuSans-46"/>
       <use x="95.410156" xlink:href="#DejaVuSans-48"/>
      </g>
     </g>
    </g>
   </g>
   <g id="PolyCollection_1">
    <path clip-path="url(#pc9dd36cfb1)" d="M -313.029795 179.866385 
L -313.029795 180.218125 
L -305.444189 180.218125 
L -297.858583 180.218125 
L -290.272976 180.218125 
L -282.68737 180.218125 
L -275.101764 180.218125 
L -267.516158 180.218125 
L -259.930552 180.218125 
L -252.344946 180.218125 
L -244.759339 180.218125 
L -237.173733 180.218125 
L -229.588127 180.218125 
L -222.002521 180.218125 
L -214.416915 180.218125 
L -206.831309 180.218125 
L -199.245702 180.218125 
L -191.660096 180.218125 
L -184.07449 180.218125 
L -176.488884 180.218125 
L -168.903278 180.218125 
L -161.317672 180.218125 
L -153.732065 180.218125 
L -146.146459 180.218125 
L -138.560853 180.218125 
L -130.975247 180.218125 
L -123.389641 180.218125 
L -115.804035 180.218125 
L -108.218428 180.218125 
L -100.632822 180.218125 
L -93.047216 180.218125 
L -85.46161 180.218125 
L -77.876004 180.218125 
L -70.290398 180.218125 
L -62.704791 180.218125 
L -55.119185 180.218125 
L -47.533579 180.218125 
L -39.947973 180.218125 
L -32.362367 180.218125 
L -24.776761 180.218125 
L -17.191154 180.218125 
L -9.605548 180.218125 
L -2.019942 180.218125 
L 5.565664 180.218125 
L 13.15127 180.218125 
L 20.736876 180.218125 
L 28.322483 180.218125 
L 35.908089 180.218125 
L 43.493695 180.218125 
L 51.079301 180.218125 
L 58.664907 180.218125 
L 66.250513 180.218125 
L 73.83612 180.218125 
L 81.421726 180.218125 
L 89.007332 180.218125 
L 96.592938 180.218125 
L 104.178544 180.218125 
L 111.76415 180.218125 
L 119.349757 180.218125 
L 126.935363 180.218125 
L 134.520969 180.218125 
L 142.106575 180.218125 
L 149.692181 180.218125 
L 157.277787 180.218125 
L 164.863394 180.218125 
L 172.449 180.218125 
L 180.034606 180.218125 
L 187.620212 180.218125 
L 195.205818 180.218125 
L 202.791424 180.218125 
L 210.377031 180.218125 
L 217.962637 180.218125 
L 225.548243 180.218125 
L 233.133849 180.218125 
L 240.719455 180.218125 
L 248.305061 180.218125 
L 255.890668 180.218125 
L 263.476274 180.218125 
L 271.06188 180.218125 
L 278.647486 180.218125 
L 286.233092 180.218125 
L 293.818698 180.218125 
L 301.404305 180.218125 
L 308.989911 180.218125 
L 316.575517 180.218125 
L 324.161123 180.218125 
L 331.746729 180.218125 
L 339.332335 180.218125 
L 346.917942 180.218125 
L 354.503548 180.218125 
L 362.089154 180.218125 
L 369.67476 180.218125 
L 377.260366 180.218125 
L 384.845972 180.218125 
L 392.431579 180.218125 
L 400.017185 180.218125 
L 407.602791 180.218125 
L 415.188397 180.218125 
L 422.774003 180.218125 
L 430.359609 180.218125 
L 437.945216 180.218125 
L 445.530822 180.218125 
L 453.116428 180.218125 
L 460.702034 180.218125 
L 468.28764 180.218125 
L 475.873246 180.218125 
L 483.458853 180.218125 
L 491.044459 180.218125 
L 498.630065 180.218125 
L 506.215671 180.218125 
L 513.801277 180.218125 
L 521.386883 180.218125 
L 528.97249 180.218125 
L 536.558096 180.218125 
L 544.143702 180.218125 
L 551.729308 180.218125 
L 559.314914 180.218125 
L 566.90052 180.218125 
L 574.486126 180.218125 
L 582.071733 180.218125 
L 589.657339 180.218125 
L 597.242945 180.218125 
L 604.828551 180.218125 
L 612.414157 180.218125 
L 619.999763 180.218125 
L 627.58537 180.218125 
L 635.170976 180.218125 
L 642.756582 180.218125 
L 650.342188 180.218125 
L 657.927794 180.218125 
L 665.5134 180.218125 
L 673.099007 180.218125 
L 680.684613 180.218125 
L 688.270219 180.218125 
L 695.855825 180.218125 
L 703.441431 180.218125 
L 711.027037 180.218125 
L 718.612644 180.218125 
L 726.19825 180.218125 
L 733.783856 180.218125 
L 741.369462 180.218125 
L 748.955068 180.218125 
L 756.540674 180.218125 
L 764.126281 180.218125 
L 771.711887 180.218125 
L 779.297493 180.218125 
L 786.883099 180.218125 
L 794.468705 180.218125 
L 802.054311 180.218125 
L 809.639918 180.218125 
L 817.225524 180.218125 
L 824.81113 180.218125 
L 832.396736 180.218125 
L 839.982342 180.218125 
L 847.567948 180.218125 
L 855.153555 180.218125 
L 862.739161 180.218125 
L 870.324767 180.218125 
L 877.910373 180.218125 
L 885.495979 180.218125 
L 893.081585 180.218125 
L 900.667192 180.218125 
L 908.252798 180.218125 
L 915.838404 180.218125 
L 923.42401 180.218125 
L 931.009616 180.218125 
L 938.595222 180.218125 
L 946.180829 180.218125 
L 953.766435 180.218125 
L 961.352041 180.218125 
L 968.937647 180.218125 
L 976.523253 180.218125 
L 984.108859 180.218125 
L 991.694466 180.218125 
L 999.280072 180.218125 
L 1006.865678 180.218125 
L 1014.451284 180.218125 
L 1022.03689 180.218125 
L 1029.622496 180.218125 
L 1037.208103 180.218125 
L 1044.793709 180.218125 
L 1052.379315 180.218125 
L 1059.964921 180.218125 
L 1067.550527 180.218125 
L 1075.136133 180.218125 
L 1082.72174 180.218125 
L 1090.307346 180.218125 
L 1097.892952 180.218125 
L 1105.478558 180.218125 
L 1113.064164 180.218125 
L 1120.64977 180.218125 
L 1128.235377 180.218125 
L 1135.820983 180.218125 
L 1143.406589 180.218125 
L 1150.992195 180.218125 
L 1158.577801 180.218125 
L 1166.163407 180.218125 
L 1173.749014 180.218125 
L 1181.33462 180.218125 
L 1188.920226 180.218125 
L 1196.505832 180.218125 
L 1196.505832 178.54736 
L 1196.505832 178.54736 
L 1188.920226 178.188701 
L 1181.33462 177.763615 
L 1173.749014 177.262213 
L 1166.163407 176.673645 
L 1158.577801 175.986101 
L 1150.992195 175.186847 
L 1143.406589 174.262286 
L 1135.820983 173.198044 
L 1128.235377 171.979099 
L 1120.64977 170.589948 
L 1113.064164 169.014803 
L 1105.478558 167.237844 
L 1097.892952 165.243502 
L 1090.307346 163.016787 
L 1082.72174 160.543653 
L 1075.136133 157.811397 
L 1067.550527 154.80908 
L 1059.964921 151.527979 
L 1052.379315 147.962037 
L 1044.793709 144.108319 
L 1037.208103 139.967452 
L 1029.622496 135.544041 
L 1022.03689 130.847038 
L 1014.451284 125.890059 
L 1006.865678 120.691629 
L 999.280072 115.275338 
L 991.694466 109.669907 
L 984.108859 103.909137 
L 976.523253 98.031742 
L 968.937647 92.081064 
L 961.352041 86.104656 
L 953.766435 80.153742 
L 946.180829 74.282561 
L 938.595222 68.547596 
L 931.009616 63.006717 
L 923.42401 57.71823 
L 915.838404 52.739881 
L 908.252798 48.127817 
L 900.667192 43.935542 
L 893.081585 40.212887 
L 885.495979 37.005029 
L 877.910373 34.351576 
L 870.324767 32.285759 
L 862.739161 30.833733 
L 855.153555 30.014033 
L 847.567948 29.837173 
L 839.982342 30.305427 
L 832.396736 31.41278 
L 824.81113 33.145052 
L 817.225524 35.480205 
L 809.639918 38.388809 
L 802.054311 41.834656 
L 794.468705 45.775513 
L 786.883099 50.163982 
L 779.297493 54.948445 
L 771.711887 60.074076 
L 764.126281 65.483873 
L 756.540674 71.119712 
L 748.955068 76.923363 
L 741.369462 82.83747 
L 733.783856 88.806463 
L 726.19825 94.777377 
L 718.612644 100.700572 
L 711.027037 106.530342 
L 703.441431 112.225391 
L 695.855825 117.749199 
L 688.270219 123.070248 
L 680.684613 128.162137 
L 673.099007 133.003579 
L 665.5134 137.578293 
L 657.927794 141.874807 
L 650.342188 145.886175 
L 642.756582 149.609641 
L 635.170976 153.046238 
L 627.58537 156.200367 
L 619.999763 159.079347 
L 612.414157 161.692955 
L 604.828551 164.052978 
L 597.242945 166.172773 
L 589.657339 168.066855 
L 582.071733 169.750512 
L 574.486126 171.239454 
L 566.90052 172.549507 
L 559.314914 173.69634 
L 551.729308 174.695242 
L 544.143702 175.560931 
L 536.558096 176.307409 
L 528.97249 176.947847 
L 521.386883 177.494512 
L 513.801277 177.95871 
L 506.215671 178.35077 
L 498.630065 178.680038 
L 491.044459 178.954893 
L 483.458853 179.18278 
L 475.873246 179.370245 
L 468.28764 179.522989 
L 460.702034 179.645914 
L 453.116428 179.743183 
L 445.530822 179.818268 
L 437.945216 179.874007 
L 430.359609 179.912653 
L 422.774003 179.935917 
L 415.188397 179.945015 
L 407.602791 179.940697 
L 400.017185 179.923286 
L 392.431579 179.892705 
L 384.845972 179.848496 
L 377.260366 179.789849 
L 369.67476 179.715611 
L 362.089154 179.624314 
L 354.503548 179.514183 
L 346.917942 179.383157 
L 339.332335 179.228909 
L 331.746729 179.048869 
L 324.161123 178.840246 
L 316.575517 178.600069 
L 308.989911 178.325214 
L 301.404305 178.012459 
L 293.818698 177.65853 
L 286.233092 177.260165 
L 278.647486 176.814179 
L 271.06188 176.317542 
L 263.476274 175.767463 
L 255.890668 175.161473 
L 248.305061 174.497527 
L 240.719455 173.774091 
L 233.133849 172.990245 
L 225.548243 172.145776 
L 217.962637 171.241269 
L 210.377031 170.278186 
L 202.791424 169.258945 
L 195.205818 168.186976 
L 187.620212 167.066761 
L 180.034606 165.903857 
L 172.449 164.704902 
L 164.863394 163.477584 
L 157.277787 162.230597 
L 149.692181 160.973563 
L 142.106575 159.716933 
L 134.520969 158.471859 
L 126.935363 157.250038 
L 119.349757 156.063545 
L 111.76415 154.924641 
L 104.178544 153.845561 
L 96.592938 152.838305 
L 89.007332 151.914417 
L 81.421726 151.084763 
L 73.83612 150.359322 
L 66.250513 149.746984 
L 58.664907 149.255373 
L 51.079301 148.890684 
L 43.493695 148.657557 
L 35.908089 148.558977 
L 28.322483 148.596211 
L 20.736876 148.768779 
L 13.15127 149.074469 
L 5.565664 149.509378 
L -2.019942 150.068 
L -9.605548 150.743338 
L -17.191154 151.527055 
L -24.776761 152.409639 
L -32.362367 153.3806 
L -39.947973 154.428673 
L -47.533579 155.542039 
L -55.119185 156.70854 
L -62.704791 157.915901 
L -70.290398 159.151939 
L -77.876004 160.404763 
L -85.46161 161.662954 
L -93.047216 162.915729 
L -100.632822 164.153075 
L -108.218428 165.365869 
L -115.804035 166.545959 
L -123.389641 167.686231 
L -130.975247 168.780637 
L -138.560853 169.824212 
L -146.146459 170.813055 
L -153.732065 171.744299 
L -161.317672 172.61606 
L -168.903278 173.42737 
L -176.488884 174.178094 
L -184.07449 174.868852 
L -191.660096 175.500919 
L -199.245702 176.076131 
L -206.831309 176.596791 
L -214.416915 177.065573 
L -222.002521 177.485434 
L -229.588127 177.859531 
L -237.173733 178.19114 
L -244.759339 178.483593 
L -252.344946 178.740213 
L -259.930552 178.964264 
L -267.516158 179.158909 
L -275.101764 179.327173 
L -282.68737 179.471919 
L -290.272976 179.595828 
L -297.858583 179.701386 
L -305.444189 179.790878 
L -313.029795 179.866385 
z
" style="fill:#4c72b0;fill-opacity:0.25;stroke:#4c72b0;"/>
   </g>
   <g id="PolyCollection_2">
    <path clip-path="url(#pc9dd36cfb1)" d="M -403.906722 179.518648 
L -403.906722 180.218125 
L -395.407779 180.218125 
L -386.908837 180.218125 
L -378.409895 180.218125 
L -369.910953 180.218125 
L -361.412011 180.218125 
L -352.913069 180.218125 
L -344.414127 180.218125 
L -335.915185 180.218125 
L -327.416243 180.218125 
L -318.9173 180.218125 
L -310.418358 180.218125 
L -301.919416 180.218125 
L -293.420474 180.218125 
L -284.921532 180.218125 
L -276.42259 180.218125 
L -267.923648 180.218125 
L -259.424706 180.218125 
L -250.925764 180.218125 
L -242.426821 180.218125 
L -233.927879 180.218125 
L -225.428937 180.218125 
L -216.929995 180.218125 
L -208.431053 180.218125 
L -199.932111 180.218125 
L -191.433169 180.218125 
L -182.934227 180.218125 
L -174.435285 180.218125 
L -165.936342 180.218125 
L -157.4374 180.218125 
L -148.938458 180.218125 
L -140.439516 180.218125 
L -131.940574 180.218125 
L -123.441632 180.218125 
L -114.94269 180.218125 
L -106.443748 180.218125 
L -97.944806 180.218125 
L -89.445863 180.218125 
L -80.946921 180.218125 
L -72.447979 180.218125 
L -63.949037 180.218125 
L -55.450095 180.218125 
L -46.951153 180.218125 
L -38.452211 180.218125 
L -29.953269 180.218125 
L -21.454327 180.218125 
L -12.955384 180.218125 
L -4.456442 180.218125 
L 4.0425 180.218125 
L 12.541442 180.218125 
L 21.040384 180.218125 
L 29.539326 180.218125 
L 38.038268 180.218125 
L 46.53721 180.218125 
L 55.036153 180.218125 
L 63.535095 180.218125 
L 72.034037 180.218125 
L 80.532979 180.218125 
L 89.031921 180.218125 
L 97.530863 180.218125 
L 106.029805 180.218125 
L 114.528747 180.218125 
L 123.027689 180.218125 
L 131.526632 180.218125 
L 140.025574 180.218125 
L 148.524516 180.218125 
L 157.023458 180.218125 
L 165.5224 180.218125 
L 174.021342 180.218125 
L 182.520284 180.218125 
L 191.019226 180.218125 
L 199.518168 180.218125 
L 208.017111 180.218125 
L 216.516053 180.218125 
L 225.014995 180.218125 
L 233.513937 180.218125 
L 242.012879 180.218125 
L 250.511821 180.218125 
L 259.010763 180.218125 
L 267.509705 180.218125 
L 276.008647 180.218125 
L 284.50759 180.218125 
L 293.006532 180.218125 
L 301.505474 180.218125 
L 310.004416 180.218125 
L 318.503358 180.218125 
L 327.0023 180.218125 
L 335.501242 180.218125 
L 344.000184 180.218125 
L 352.499126 180.218125 
L 360.998069 180.218125 
L 369.497011 180.218125 
L 377.995953 180.218125 
L 386.494895 180.218125 
L 394.993837 180.218125 
L 403.492779 180.218125 
L 411.991721 180.218125 
L 420.490663 180.218125 
L 428.989605 180.218125 
L 437.488548 180.218125 
L 445.98749 180.218125 
L 454.486432 180.218125 
L 462.985374 180.218125 
L 471.484316 180.218125 
L 479.983258 180.218125 
L 488.4822 180.218125 
L 496.981142 180.218125 
L 505.480084 180.218125 
L 513.979027 180.218125 
L 522.477969 180.218125 
L 530.976911 180.218125 
L 539.475853 180.218125 
L 547.974795 180.218125 
L 556.473737 180.218125 
L 564.972679 180.218125 
L 573.471621 180.218125 
L 581.970563 180.218125 
L 590.469506 180.218125 
L 598.968448 180.218125 
L 607.46739 180.218125 
L 615.966332 180.218125 
L 624.465274 180.218125 
L 632.964216 180.218125 
L 641.463158 180.218125 
L 649.9621 180.218125 
L 658.461042 180.218125 
L 666.959985 180.218125 
L 675.458927 180.218125 
L 683.957869 180.218125 
L 692.456811 180.218125 
L 700.955753 180.218125 
L 709.454695 180.218125 
L 717.953637 180.218125 
L 726.452579 180.218125 
L 734.951521 180.218125 
L 743.450464 180.218125 
L 751.949406 180.218125 
L 760.448348 180.218125 
L 768.94729 180.218125 
L 777.446232 180.218125 
L 785.945174 180.218125 
L 794.444116 180.218125 
L 802.943058 180.218125 
L 811.442 180.218125 
L 819.940943 180.218125 
L 828.439885 180.218125 
L 836.938827 180.218125 
L 845.437769 180.218125 
L 853.936711 180.218125 
L 862.435653 180.218125 
L 870.934595 180.218125 
L 879.433537 180.218125 
L 887.932479 180.218125 
L 896.431422 180.218125 
L 904.930364 180.218125 
L 913.429306 180.218125 
L 921.928248 180.218125 
L 930.42719 180.218125 
L 938.926132 180.218125 
L 947.425074 180.218125 
L 955.924016 180.218125 
L 964.422958 180.218125 
L 972.921901 180.218125 
L 981.420843 180.218125 
L 989.919785 180.218125 
L 998.418727 180.218125 
L 1006.917669 180.218125 
L 1015.416611 180.218125 
L 1023.915553 180.218125 
L 1032.414495 180.218125 
L 1040.913437 180.218125 
L 1049.41238 180.218125 
L 1057.911322 180.218125 
L 1066.410264 180.218125 
L 1074.909206 180.218125 
L 1083.408148 180.218125 
L 1091.90709 180.218125 
L 1100.406032 180.218125 
L 1108.904974 180.218125 
L 1117.403916 180.218125 
L 1125.902859 180.218125 
L 1134.401801 180.218125 
L 1142.900743 180.218125 
L 1151.399685 180.218125 
L 1159.898627 180.218125 
L 1168.397569 180.218125 
L 1176.896511 180.218125 
L 1185.395453 180.218125 
L 1193.894395 180.218125 
L 1202.393338 180.218125 
L 1210.89228 180.218125 
L 1219.391222 180.218125 
L 1227.890164 180.218125 
L 1236.389106 180.218125 
L 1244.888048 180.218125 
L 1253.38699 180.218125 
L 1261.885932 180.218125 
L 1270.384874 180.218125 
L 1278.883817 180.218125 
L 1287.382759 180.218125 
L 1287.382759 179.314634 
L 1287.382759 179.314634 
L 1278.883817 179.1441 
L 1270.384874 178.945695 
L 1261.885932 178.715736 
L 1253.38699 178.450215 
L 1244.888048 178.144803 
L 1236.389106 177.794853 
L 1227.890164 177.395411 
L 1219.391222 176.941246 
L 1210.89228 176.42687 
L 1202.393338 175.846583 
L 1193.894395 175.194522 
L 1185.395453 174.46472 
L 1176.896511 173.651177 
L 1168.397569 172.747942 
L 1159.898627 171.749208 
L 1151.399685 170.649411 
L 1142.900743 169.443349 
L 1134.401801 168.126297 
L 1125.902859 166.694141 
L 1117.403916 165.143505 
L 1108.904974 163.471893 
L 1100.406032 161.677821 
L 1091.90709 159.760953 
L 1083.408148 157.722226 
L 1074.909206 155.56397 
L 1066.410264 153.290014 
L 1057.911322 150.905772 
L 1049.41238 148.418319 
L 1040.913437 145.83643 
L 1032.414495 143.170609 
L 1023.915553 140.433074 
L 1015.416611 137.637723 
L 1006.917669 134.800062 
L 998.418727 131.937102 
L 989.919785 129.067219 
L 981.420843 126.209987 
L 972.921901 123.385974 
L 964.422958 120.616516 
L 955.924016 117.923455 
L 947.425074 115.328867 
L 938.926132 112.854766 
L 930.42719 110.522796 
L 921.928248 108.353921 
L 913.429306 106.368112 
L 904.930364 104.584043 
L 896.431422 103.018797 
L 887.932479 101.687599 
L 879.433537 100.603563 
L 870.934595 99.777485 
L 862.435653 99.217654 
L 853.936711 98.929724 
L 845.437769 98.91661 
L 836.938827 99.178447 
L 828.439885 99.71258 
L 819.940943 100.513612 
L 811.442 101.573499 
L 802.943058 102.881675 
L 794.444116 104.425237 
L 785.945174 106.189149 
L 777.446232 108.156491 
L 768.94729 110.308725 
L 760.448348 112.625987 
L 751.949406 115.087388 
L 743.450464 117.67133 
L 734.951521 120.355812 
L 726.452579 123.118742 
L 717.953637 125.938227 
L 709.454695 128.792856 
L 700.955753 131.661955 
L 692.456811 134.52582 
L 683.957869 137.36592 
L 675.458927 140.165064 
L 666.959985 142.907546 
L 658.461042 145.579248 
L 649.9621 148.167709 
L 641.463158 150.662167 
L 632.964216 153.053561 
L 624.465274 155.334515 
L 615.966332 157.499284 
L 607.46739 159.543685 
L 598.968448 161.464999 
L 590.469506 163.261862 
L 581.970563 164.934141 
L 573.471621 166.482796 
L 564.972679 167.909741 
L 556.473737 169.217694 
L 547.974795 170.410031 
L 539.475853 171.490641 
L 530.976911 172.463783 
L 522.477969 173.33395 
L 513.979027 174.105742 
L 505.480084 174.783746 
L 496.981142 175.372428 
L 488.4822 175.876035 
L 479.983258 176.29851 
L 471.484316 176.643415 
L 462.985374 176.913872 
L 454.486432 177.112514 
L 445.98749 177.241445 
L 437.488548 177.302216 
L 428.989605 177.295811 
L 420.490663 177.222648 
L 411.991721 177.082584 
L 403.492779 176.874943 
L 394.993837 176.598542 
L 386.494895 176.251737 
L 377.995953 175.832477 
L 369.497011 175.338367 
L 360.998069 174.766744 
L 352.499126 174.114756 
L 344.000184 173.379457 
L 335.501242 172.557908 
L 327.0023 171.647279 
L 318.503358 170.644964 
L 310.004416 169.548699 
L 301.505474 168.356678 
L 293.006532 167.067675 
L 284.50759 165.681164 
L 276.008647 164.197431 
L 267.509705 162.617686 
L 259.010763 160.944164 
L 250.511821 159.180211 
L 242.012879 157.330365 
L 233.513937 155.400411 
L 225.014995 153.397424 
L 216.516053 151.329786 
L 208.017111 149.207186 
L 199.518168 147.040587 
L 191.019226 144.842176 
L 182.520284 142.625283 
L 174.021342 140.404272 
L 165.5224 138.194412 
L 157.023458 136.011721 
L 148.524516 133.872783 
L 140.025574 131.794554 
L 131.526632 129.794144 
L 123.027689 127.888589 
L 114.528747 126.094615 
L 106.029805 124.428396 
L 97.530863 122.905312 
L 89.031921 121.539718 
L 80.532979 120.344713 
L 72.034037 119.33194 
L 63.535095 118.511389 
L 55.036153 117.891239 
L 46.53721 117.47772 
L 38.038268 117.27501 
L 29.539326 117.285164 
L 21.040384 117.50808 
L 12.541442 117.941498 
L 4.0425 118.581043 
L -4.456442 119.420297 
L -12.955384 120.450903 
L -21.454327 121.662706 
L -29.953269 123.043921 
L -38.452211 124.581322 
L -46.951153 126.260451 
L -55.450095 128.065847 
L -63.949037 129.98128 
L -72.447979 131.989993 
L -80.946921 134.074944 
L -89.445863 136.219041 
L -97.944806 138.405373 
L -106.443748 140.617424 
L -114.94269 142.839269 
L -123.441632 145.055754 
L -131.940574 147.252652 
L -140.439516 149.416795 
L -148.938458 151.536177 
L -157.4374 153.600039 
L -165.936342 155.59892 
L -174.435285 157.524691 
L -182.934227 159.370555 
L -191.433169 161.131038 
L -199.932111 162.801945 
L -208.431053 164.380315 
L -216.929995 165.864341 
L -225.428937 167.2533 
L -233.927879 168.547451 
L -242.426821 169.747943 
L -250.925764 170.85671 
L -259.424706 171.876363 
L -267.923648 172.810088 
L -276.42259 173.661544 
L -284.921532 174.434758 
L -293.420474 175.134036 
L -301.919416 175.763876 
L -310.418358 176.328884 
L -318.9173 176.833705 
L -327.416243 177.28296 
L -335.915185 177.681186 
L -344.414127 178.032798 
L -352.913069 178.342043 
L -361.412011 178.612973 
L -369.910953 178.849421 
L -378.409895 179.054985 
L -386.908837 179.233018 
L -395.407779 179.386622 
L -403.906722 179.518648 
z
" style="fill:#dd8452;fill-opacity:0.25;stroke:#dd8452;"/>
   </g>
   <g id="patch_3">
    <path d="M 34.193438 180.218125 
L 34.193438 22.318125 
" style="fill:none;stroke:#ffffff;stroke-linecap:square;stroke-linejoin:miter;stroke-width:1.25;"/>
   </g>
   <g id="patch_4">
    <path d="M 34.193438 180.218125 
L 849.2826 180.218125 
" style="fill:none;stroke:#ffffff;stroke-linecap:square;stroke-linejoin:miter;stroke-width:1.25;"/>
   </g>
   <g id="text_13">
    <!-- Output: sex -->
    <g style="fill:#262626;" transform="translate(406.704581 16.318125)scale(0.12 -0.12)">
     <defs>
      <path d="M 39.40625 66.21875 
Q 28.65625 66.21875 22.328125 58.203125 
Q 16.015625 50.203125 16.015625 36.375 
Q 16.015625 22.609375 22.328125 14.59375 
Q 28.65625 6.59375 39.40625 6.59375 
Q 50.140625 6.59375 56.421875 14.59375 
Q 62.703125 22.609375 62.703125 36.375 
Q 62.703125 50.203125 56.421875 58.203125 
Q 50.140625 66.21875 39.40625 66.21875 
z
M 39.40625 74.21875 
Q 54.734375 74.21875 63.90625 63.9375 
Q 73.09375 53.65625 73.09375 36.375 
Q 73.09375 19.140625 63.90625 8.859375 
Q 54.734375 -1.421875 39.40625 -1.421875 
Q 24.03125 -1.421875 14.8125 8.828125 
Q 5.609375 19.09375 5.609375 36.375 
Q 5.609375 53.65625 14.8125 63.9375 
Q 24.03125 74.21875 39.40625 74.21875 
z
" id="DejaVuSans-79"/>
      <path d="M 8.5 21.578125 
L 8.5 54.6875 
L 17.484375 54.6875 
L 17.484375 21.921875 
Q 17.484375 14.15625 20.5 10.265625 
Q 23.53125 6.390625 29.59375 6.390625 
Q 36.859375 6.390625 41.078125 11.03125 
Q 45.3125 15.671875 45.3125 23.6875 
L 45.3125 54.6875 
L 54.296875 54.6875 
L 54.296875 0 
L 45.3125 0 
L 45.3125 8.40625 
Q 42.046875 3.421875 37.71875 1 
Q 33.40625 -1.421875 27.6875 -1.421875 
Q 18.265625 -1.421875 13.375 4.4375 
Q 8.5 10.296875 8.5 21.578125 
z
M 31.109375 56 
z
" id="DejaVuSans-117"/>
      <path d="M 18.3125 70.21875 
L 18.3125 54.6875 
L 36.8125 54.6875 
L 36.8125 47.703125 
L 18.3125 47.703125 
L 18.3125 18.015625 
Q 18.3125 11.328125 20.140625 9.421875 
Q 21.96875 7.515625 27.59375 7.515625 
L 36.8125 7.515625 
L 36.8125 0 
L 27.59375 0 
Q 17.1875 0 13.234375 3.875 
Q 9.28125 7.765625 9.28125 18.015625 
L 9.28125 47.703125 
L 2.6875 47.703125 
L 2.6875 54.6875 
L 9.28125 54.6875 
L 9.28125 70.21875 
z
" id="DejaVuSans-116"/>
      <path d="M 18.109375 8.203125 
L 18.109375 -20.796875 
L 9.078125 -20.796875 
L 9.078125 54.6875 
L 18.109375 54.6875 
L 18.109375 46.390625 
Q 20.953125 51.265625 25.265625 53.625 
Q 29.59375 56 35.59375 56 
Q 45.5625 56 51.78125 48.09375 
Q 58.015625 40.1875 58.015625 27.296875 
Q 58.015625 14.40625 51.78125 6.484375 
Q 45.5625 -1.421875 35.59375 -1.421875 
Q 29.59375 -1.421875 25.265625 0.953125 
Q 20.953125 3.328125 18.109375 8.203125 
z
M 48.6875 27.296875 
Q 48.6875 37.203125 44.609375 42.84375 
Q 40.53125 48.484375 33.40625 48.484375 
Q 26.265625 48.484375 22.1875 42.84375 
Q 18.109375 37.203125 18.109375 27.296875 
Q 18.109375 17.390625 22.1875 11.75 
Q 26.265625 6.109375 33.40625 6.109375 
Q 40.53125 6.109375 44.609375 11.75 
Q 48.6875 17.390625 48.6875 27.296875 
z
" id="DejaVuSans-112"/>
      <path d="M 11.71875 12.40625 
L 22.015625 12.40625 
L 22.015625 0 
L 11.71875 0 
z
M 11.71875 51.703125 
L 22.015625 51.703125 
L 22.015625 39.3125 
L 11.71875 39.3125 
z
" id="DejaVuSans-58"/>
      <path id="DejaVuSans-32"/>
     </defs>
     <use xlink:href="#DejaVuSans-79"/>
     <use x="78.710938" xlink:href="#DejaVuSans-117"/>
     <use x="142.089844" xlink:href="#DejaVuSans-116"/>
     <use x="181.298828" xlink:href="#DejaVuSans-112"/>
     <use x="244.775391" xlink:href="#DejaVuSans-117"/>
     <use x="308.154297" xlink:href="#DejaVuSans-116"/>
     <use x="347.363281" xlink:href="#DejaVuSans-58"/>
     <use x="381.054688" xlink:href="#DejaVuSans-32"/>
     <use x="412.841797" xlink:href="#DejaVuSans-115"/>
     <use x="464.941406" xlink:href="#DejaVuSans-101"/>
     <use x="524.714844" xlink:href="#DejaVuSans-120"/>
    </g>
   </g>
  </g>
  <g id="legend_1">
   <g id="text_14">
    <!-- output -->
    <g style="fill:#262626;" transform="translate(859.052475 98.754219)scale(0.12 -0.12)">
     <defs>
      <path d="M 30.609375 48.390625 
Q 23.390625 48.390625 19.1875 42.75 
Q 14.984375 37.109375 14.984375 27.296875 
Q 14.984375 17.484375 19.15625 11.84375 
Q 23.34375 6.203125 30.609375 6.203125 
Q 37.796875 6.203125 41.984375 11.859375 
Q 46.1875 17.53125 46.1875 27.296875 
Q 46.1875 37.015625 41.984375 42.703125 
Q 37.796875 48.390625 30.609375 48.390625 
z
M 30.609375 56 
Q 42.328125 56 49.015625 48.375 
Q 55.71875 40.765625 55.71875 27.296875 
Q 55.71875 13.875 49.015625 6.21875 
Q 42.328125 -1.421875 30.609375 -1.421875 
Q 18.84375 -1.421875 12.171875 6.21875 
Q 5.515625 13.875 5.515625 27.296875 
Q 5.515625 40.765625 12.171875 48.375 
Q 18.84375 56 30.609375 56 
z
" id="DejaVuSans-111"/>
     </defs>
     <use xlink:href="#DejaVuSans-111"/>
     <use x="61.181641" xlink:href="#DejaVuSans-117"/>
     <use x="124.560547" xlink:href="#DejaVuSans-116"/>
     <use x="163.769531" xlink:href="#DejaVuSans-112"/>
     <use x="227.246094" xlink:href="#DejaVuSans-117"/>
     <use x="290.625" xlink:href="#DejaVuSans-116"/>
    </g>
   </g>
   <g id="patch_5">
    <path d="M 859.942787 115.108125 
L 881.942787 115.108125 
L 881.942787 107.408125 
L 859.942787 107.408125 
z
" style="fill:#4c72b0;fill-opacity:0.25;stroke:#4c72b0;stroke-linejoin:miter;"/>
   </g>
   <g id="text_15">
    <!-- 0 -->
    <g style="fill:#262626;" transform="translate(890.742787 115.108125)scale(0.11 -0.11)">
     <use xlink:href="#DejaVuSans-48"/>
    </g>
   </g>
   <g id="patch_6">
    <path d="M 859.942787 131.254063 
L 881.942787 131.254063 
L 881.942787 123.554063 
L 859.942787 123.554063 
z
" style="fill:#dd8452;fill-opacity:0.25;stroke:#dd8452;stroke-linejoin:miter;"/>
   </g>
   <g id="text_16">
    <!-- 1 -->
    <g style="fill:#262626;" transform="translate(890.742787 131.254063)scale(0.11 -0.11)">
     <use xlink:href="#DejaVuSans-49"/>
    </g>
   </g>
  </g>
 </g>
 <defs>
  <clipPath id="pc9dd36cfb1">
   <rect height="157.9" width="815.089162" x="34.193438" y="22.318125"/>
  </clipPath>
 </defs>
</svg>
