<?xml version="1.0" encoding="utf-8" standalone="no"?>
<!DOCTYPE svg PUBLIC "-//W3C//DTD SVG 1.1//EN"
  "http://www.w3.org/Graphics/SVG/1.1/DTD/svg11.dtd">
<!-- Created with matplotlib (https://matplotlib.org/) -->
<svg height="223.177812pt" version="1.1" viewBox="0 0 908.53185 223.177812" width="908.53185pt" xmlns="http://www.w3.org/2000/svg" xmlns:xlink="http://www.w3.org/1999/xlink">
 <metadata>
  <rdf:RDF xmlns:cc="http://creativecommons.org/ns#" xmlns:dc="http://purl.org/dc/elements/1.1/" xmlns:rdf="http://www.w3.org/1999/02/22-rdf-syntax-ns#">
   <cc:Work>
    <dc:type rdf:resource="http://purl.org/dc/dcmitype/StillImage"/>
    <dc:date>2021-07-04T23:48:58.057419</dc:date>
    <dc:format>image/svg+xml</dc:format>
    <dc:creator>
     <cc:Agent>
      <dc:title>Matplotlib v3.3.4, https://matplotlib.org/</dc:title>
     </cc:Agent>
    </dc:creator>
   </cc:Work>
  </rdf:RDF>
 </metadata>
 <defs>
  <style type="text/css">*{stroke-linecap:butt;stroke-linejoin:round;}</style>
 </defs>
 <g id="figure_1">
  <g id="patch_1">
   <path d="M 0 223.177812 
L 908.53185 223.177812 
L 908.53185 0 
L 0 0 
z
" style="fill:none;"/>
  </g>
  <g id="axes_1">
   <g id="patch_2">
    <path d="M 34.193438 180.218125 
L 849.2826 180.218125 
L 849.2826 22.318125 
L 34.193438 22.318125 
z
" style="fill:#eaeaf2;"/>
   </g>
   <g id="matplotlib.axis_1">
    <g id="xtick_1">
     <g id="line2d_1">
      <path clip-path="url(#pce0345002b)" d="M 34.193438 180.218125 
L 34.193438 22.318125 
" style="fill:none;stroke:#ffffff;stroke-linecap:round;"/>
     </g>
     <g id="text_1">
      <!-- 0.0 -->
      <g style="fill:#262626;" transform="translate(25.446719 198.076406)scale(0.11 -0.11)">
       <defs>
        <path d="M 31.78125 66.40625 
Q 24.171875 66.40625 20.328125 58.90625 
Q 16.5 51.421875 16.5 36.375 
Q 16.5 21.390625 20.328125 13.890625 
Q 24.171875 6.390625 31.78125 6.390625 
Q 39.453125 6.390625 43.28125 13.890625 
Q 47.125 21.390625 47.125 36.375 
Q 47.125 51.421875 43.28125 58.90625 
Q 39.453125 66.40625 31.78125 66.40625 
z
M 31.78125 74.21875 
Q 44.046875 74.21875 50.515625 64.515625 
Q 56.984375 54.828125 56.984375 36.375 
Q 56.984375 17.96875 50.515625 8.265625 
Q 44.046875 -1.421875 31.78125 -1.421875 
Q 19.53125 -1.421875 13.0625 8.265625 
Q 6.59375 17.96875 6.59375 36.375 
Q 6.59375 54.828125 13.0625 64.515625 
Q 19.53125 74.21875 31.78125 74.21875 
z
" id="DejaVuSans-48"/>
        <path d="M 10.6875 12.40625 
L 21 12.40625 
L 21 0 
L 10.6875 0 
z
" id="DejaVuSans-46"/>
       </defs>
       <use xlink:href="#DejaVuSans-48"/>
       <use x="63.623047" xlink:href="#DejaVuSans-46"/>
       <use x="95.410156" xlink:href="#DejaVuSans-48"/>
      </g>
     </g>
    </g>
    <g id="xtick_2">
     <g id="line2d_2">
      <path clip-path="url(#pce0345002b)" d="M 170.041631 180.218125 
L 170.041631 22.318125 
" style="fill:none;stroke:#ffffff;stroke-linecap:round;"/>
     </g>
     <g id="text_2">
      <!-- 0.5 -->
      <g style="fill:#262626;" transform="translate(161.294912 198.076406)scale(0.11 -0.11)">
       <defs>
        <path d="M 10.796875 72.90625 
L 49.515625 72.90625 
L 49.515625 64.59375 
L 19.828125 64.59375 
L 19.828125 46.734375 
Q 21.96875 47.46875 24.109375 47.828125 
Q 26.265625 48.1875 28.421875 48.1875 
Q 40.625 48.1875 47.75 41.5 
Q 54.890625 34.8125 54.890625 23.390625 
Q 54.890625 11.625 47.5625 5.09375 
Q 40.234375 -1.421875 26.90625 -1.421875 
Q 22.3125 -1.421875 17.546875 -0.640625 
Q 12.796875 0.140625 7.71875 1.703125 
L 7.71875 11.625 
Q 12.109375 9.234375 16.796875 8.0625 
Q 21.484375 6.890625 26.703125 6.890625 
Q 35.15625 6.890625 40.078125 11.328125 
Q 45.015625 15.765625 45.015625 23.390625 
Q 45.015625 31 40.078125 35.4375 
Q 35.15625 39.890625 26.703125 39.890625 
Q 22.75 39.890625 18.8125 39.015625 
Q 14.890625 38.140625 10.796875 36.28125 
z
" id="DejaVuSans-53"/>
       </defs>
       <use xlink:href="#DejaVuSans-48"/>
       <use x="63.623047" xlink:href="#DejaVuSans-46"/>
       <use x="95.410156" xlink:href="#DejaVuSans-53"/>
      </g>
     </g>
    </g>
    <g id="xtick_3">
     <g id="line2d_3">
      <path clip-path="url(#pce0345002b)" d="M 305.889825 180.218125 
L 305.889825 22.318125 
" style="fill:none;stroke:#ffffff;stroke-linecap:round;"/>
     </g>
     <g id="text_3">
      <!-- 1.0 -->
      <g style="fill:#262626;" transform="translate(297.143106 198.076406)scale(0.11 -0.11)">
       <defs>
        <path d="M 12.40625 8.296875 
L 28.515625 8.296875 
L 28.515625 63.921875 
L 10.984375 60.40625 
L 10.984375 69.390625 
L 28.421875 72.90625 
L 38.28125 72.90625 
L 38.28125 8.296875 
L 54.390625 8.296875 
L 54.390625 0 
L 12.40625 0 
z
" id="DejaVuSans-49"/>
       </defs>
       <use xlink:href="#DejaVuSans-49"/>
       <use x="63.623047" xlink:href="#DejaVuSans-46"/>
       <use x="95.410156" xlink:href="#DejaVuSans-48"/>
      </g>
     </g>
    </g>
    <g id="xtick_4">
     <g id="line2d_4">
      <path clip-path="url(#pce0345002b)" d="M 441.738019 180.218125 
L 441.738019 22.318125 
" style="fill:none;stroke:#ffffff;stroke-linecap:round;"/>
     </g>
     <g id="text_4">
      <!-- 1.5 -->
      <g style="fill:#262626;" transform="translate(432.9913 198.076406)scale(0.11 -0.11)">
       <use xlink:href="#DejaVuSans-49"/>
       <use x="63.623047" xlink:href="#DejaVuSans-46"/>
       <use x="95.410156" xlink:href="#DejaVuSans-53"/>
      </g>
     </g>
    </g>
    <g id="xtick_5">
     <g id="line2d_5">
      <path clip-path="url(#pce0345002b)" d="M 577.586212 180.218125 
L 577.586212 22.318125 
" style="fill:none;stroke:#ffffff;stroke-linecap:round;"/>
     </g>
     <g id="text_5">
      <!-- 2.0 -->
      <g style="fill:#262626;" transform="translate(568.839494 198.076406)scale(0.11 -0.11)">
       <defs>
        <path d="M 19.1875 8.296875 
L 53.609375 8.296875 
L 53.609375 0 
L 7.328125 0 
L 7.328125 8.296875 
Q 12.9375 14.109375 22.625 23.890625 
Q 32.328125 33.6875 34.8125 36.53125 
Q 39.546875 41.84375 41.421875 45.53125 
Q 43.3125 49.21875 43.3125 52.78125 
Q 43.3125 58.59375 39.234375 62.25 
Q 35.15625 65.921875 28.609375 65.921875 
Q 23.96875 65.921875 18.8125 64.3125 
Q 13.671875 62.703125 7.8125 59.421875 
L 7.8125 69.390625 
Q 13.765625 71.78125 18.9375 73 
Q 24.125 74.21875 28.421875 74.21875 
Q 39.75 74.21875 46.484375 68.546875 
Q 53.21875 62.890625 53.21875 53.421875 
Q 53.21875 48.921875 51.53125 44.890625 
Q 49.859375 40.875 45.40625 35.40625 
Q 44.1875 33.984375 37.640625 27.21875 
Q 31.109375 20.453125 19.1875 8.296875 
z
" id="DejaVuSans-50"/>
       </defs>
       <use xlink:href="#DejaVuSans-50"/>
       <use x="63.623047" xlink:href="#DejaVuSans-46"/>
       <use x="95.410156" xlink:href="#DejaVuSans-48"/>
      </g>
     </g>
    </g>
    <g id="xtick_6">
     <g id="line2d_6">
      <path clip-path="url(#pce0345002b)" d="M 713.434406 180.218125 
L 713.434406 22.318125 
" style="fill:none;stroke:#ffffff;stroke-linecap:round;"/>
     </g>
     <g id="text_6">
      <!-- 2.5 -->
      <g style="fill:#262626;" transform="translate(704.687687 198.076406)scale(0.11 -0.11)">
       <use xlink:href="#DejaVuSans-50"/>
       <use x="63.623047" xlink:href="#DejaVuSans-46"/>
       <use x="95.410156" xlink:href="#DejaVuSans-53"/>
      </g>
     </g>
    </g>
    <g id="xtick_7">
     <g id="line2d_7">
      <path clip-path="url(#pce0345002b)" d="M 849.2826 180.218125 
L 849.2826 22.318125 
" style="fill:none;stroke:#ffffff;stroke-linecap:round;"/>
     </g>
     <g id="text_7">
      <!-- 3.0 -->
      <g style="fill:#262626;" transform="translate(840.535881 198.076406)scale(0.11 -0.11)">
       <defs>
        <path d="M 40.578125 39.3125 
Q 47.65625 37.796875 51.625 33 
Q 55.609375 28.21875 55.609375 21.1875 
Q 55.609375 10.40625 48.1875 4.484375 
Q 40.765625 -1.421875 27.09375 -1.421875 
Q 22.515625 -1.421875 17.65625 -0.515625 
Q 12.796875 0.390625 7.625 2.203125 
L 7.625 11.71875 
Q 11.71875 9.328125 16.59375 8.109375 
Q 21.484375 6.890625 26.8125 6.890625 
Q 36.078125 6.890625 40.9375 10.546875 
Q 45.796875 14.203125 45.796875 21.1875 
Q 45.796875 27.640625 41.28125 31.265625 
Q 36.765625 34.90625 28.71875 34.90625 
L 20.21875 34.90625 
L 20.21875 43.015625 
L 29.109375 43.015625 
Q 36.375 43.015625 40.234375 45.921875 
Q 44.09375 48.828125 44.09375 54.296875 
Q 44.09375 59.90625 40.109375 62.90625 
Q 36.140625 65.921875 28.71875 65.921875 
Q 24.65625 65.921875 20.015625 65.03125 
Q 15.375 64.15625 9.8125 62.3125 
L 9.8125 71.09375 
Q 15.4375 72.65625 20.34375 73.4375 
Q 25.25 74.21875 29.59375 74.21875 
Q 40.828125 74.21875 47.359375 69.109375 
Q 53.90625 64.015625 53.90625 55.328125 
Q 53.90625 49.265625 50.4375 45.09375 
Q 46.96875 40.921875 40.578125 39.3125 
z
" id="DejaVuSans-51"/>
       </defs>
       <use xlink:href="#DejaVuSans-51"/>
       <use x="63.623047" xlink:href="#DejaVuSans-46"/>
       <use x="95.410156" xlink:href="#DejaVuSans-48"/>
      </g>
     </g>
    </g>
    <g id="text_8">
     <!-- thall -->
     <g style="fill:#262626;" transform="translate(428.572706 213.482187)scale(0.12 -0.12)">
      <defs>
       <path d="M 18.3125 70.21875 
L 18.3125 54.6875 
L 36.8125 54.6875 
L 36.8125 47.703125 
L 18.3125 47.703125 
L 18.3125 18.015625 
Q 18.3125 11.328125 20.140625 9.421875 
Q 21.96875 7.515625 27.59375 7.515625 
L 36.8125 7.515625 
L 36.8125 0 
L 27.59375 0 
Q 17.1875 0 13.234375 3.875 
Q 9.28125 7.765625 9.28125 18.015625 
L 9.28125 47.703125 
L 2.6875 47.703125 
L 2.6875 54.6875 
L 9.28125 54.6875 
L 9.28125 70.21875 
z
" id="DejaVuSans-116"/>
       <path d="M 54.890625 33.015625 
L 54.890625 0 
L 45.90625 0 
L 45.90625 32.71875 
Q 45.90625 40.484375 42.875 44.328125 
Q 39.84375 48.1875 33.796875 48.1875 
Q 26.515625 48.1875 22.3125 43.546875 
Q 18.109375 38.921875 18.109375 30.90625 
L 18.109375 0 
L 9.078125 0 
L 9.078125 75.984375 
L 18.109375 75.984375 
L 18.109375 46.1875 
Q 21.34375 51.125 25.703125 53.5625 
Q 30.078125 56 35.796875 56 
Q 45.21875 56 50.046875 50.171875 
Q 54.890625 44.34375 54.890625 33.015625 
z
" id="DejaVuSans-104"/>
       <path d="M 34.28125 27.484375 
Q 23.390625 27.484375 19.1875 25 
Q 14.984375 22.515625 14.984375 16.5 
Q 14.984375 11.71875 18.140625 8.90625 
Q 21.296875 6.109375 26.703125 6.109375 
Q 34.1875 6.109375 38.703125 11.40625 
Q 43.21875 16.703125 43.21875 25.484375 
L 43.21875 27.484375 
z
M 52.203125 31.203125 
L 52.203125 0 
L 43.21875 0 
L 43.21875 8.296875 
Q 40.140625 3.328125 35.546875 0.953125 
Q 30.953125 -1.421875 24.3125 -1.421875 
Q 15.921875 -1.421875 10.953125 3.296875 
Q 6 8.015625 6 15.921875 
Q 6 25.140625 12.171875 29.828125 
Q 18.359375 34.515625 30.609375 34.515625 
L 43.21875 34.515625 
L 43.21875 35.40625 
Q 43.21875 41.609375 39.140625 45 
Q 35.0625 48.390625 27.6875 48.390625 
Q 23 48.390625 18.546875 47.265625 
Q 14.109375 46.140625 10.015625 43.890625 
L 10.015625 52.203125 
Q 14.9375 54.109375 19.578125 55.046875 
Q 24.21875 56 28.609375 56 
Q 40.484375 56 46.34375 49.84375 
Q 52.203125 43.703125 52.203125 31.203125 
z
" id="DejaVuSans-97"/>
       <path d="M 9.421875 75.984375 
L 18.40625 75.984375 
L 18.40625 0 
L 9.421875 0 
z
" id="DejaVuSans-108"/>
      </defs>
      <use xlink:href="#DejaVuSans-116"/>
      <use x="39.208984" xlink:href="#DejaVuSans-104"/>
      <use x="102.587891" xlink:href="#DejaVuSans-97"/>
      <use x="163.867188" xlink:href="#DejaVuSans-108"/>
      <use x="191.650391" xlink:href="#DejaVuSans-108"/>
     </g>
    </g>
   </g>
   <g id="matplotlib.axis_2">
    <g id="ytick_1">
     <g id="line2d_8">
      <path clip-path="url(#pce0345002b)" d="M 34.193438 180.218125 
L 849.2826 180.218125 
" style="fill:none;stroke:#ffffff;stroke-linecap:round;"/>
     </g>
     <g id="text_9">
      <!-- 0.0 -->
      <g style="fill:#262626;" transform="translate(7.2 184.397266)scale(0.11 -0.11)">
       <use xlink:href="#DejaVuSans-48"/>
       <use x="63.623047" xlink:href="#DejaVuSans-46"/>
       <use x="95.410156" xlink:href="#DejaVuSans-48"/>
      </g>
     </g>
    </g>
    <g id="ytick_2">
     <g id="line2d_9">
      <path clip-path="url(#pce0345002b)" d="M 34.193438 140.057345 
L 849.2826 140.057345 
" style="fill:none;stroke:#ffffff;stroke-linecap:round;"/>
     </g>
     <g id="text_10">
      <!-- 0.5 -->
      <g style="fill:#262626;" transform="translate(7.2 144.236486)scale(0.11 -0.11)">
       <use xlink:href="#DejaVuSans-48"/>
       <use x="63.623047" xlink:href="#DejaVuSans-46"/>
       <use x="95.410156" xlink:href="#DejaVuSans-53"/>
      </g>
     </g>
    </g>
    <g id="ytick_3">
     <g id="line2d_10">
      <path clip-path="url(#pce0345002b)" d="M 34.193438 99.896565 
L 849.2826 99.896565 
" style="fill:none;stroke:#ffffff;stroke-linecap:round;"/>
     </g>
     <g id="text_11">
      <!-- 1.0 -->
      <g style="fill:#262626;" transform="translate(7.2 104.075706)scale(0.11 -0.11)">
       <use xlink:href="#DejaVuSans-49"/>
       <use x="63.623047" xlink:href="#DejaVuSans-46"/>
       <use x="95.410156" xlink:href="#DejaVuSans-48"/>
      </g>
     </g>
    </g>
    <g id="ytick_4">
     <g id="line2d_11">
      <path clip-path="url(#pce0345002b)" d="M 34.193438 59.735785 
L 849.2826 59.735785 
" style="fill:none;stroke:#ffffff;stroke-linecap:round;"/>
     </g>
     <g id="text_12">
      <!-- 1.5 -->
      <g style="fill:#262626;" transform="translate(7.2 63.914926)scale(0.11 -0.11)">
       <use xlink:href="#DejaVuSans-49"/>
       <use x="63.623047" xlink:href="#DejaVuSans-46"/>
       <use x="95.410156" xlink:href="#DejaVuSans-53"/>
      </g>
     </g>
    </g>
   </g>
   <g id="PolyCollection_1">
    <path clip-path="url(#pce0345002b)" d="M -174.144732 180.208033 
L -174.144732 180.218125 
L -167.954956 180.218125 
L -161.765179 180.218125 
L -155.575403 180.218125 
L -149.385627 180.218125 
L -143.19585 180.218125 
L -137.006074 180.218125 
L -130.816297 180.218125 
L -124.626521 180.218125 
L -118.436745 180.218125 
L -112.246968 180.218125 
L -106.057192 180.218125 
L -99.867416 180.218125 
L -93.677639 180.218125 
L -87.487863 180.218125 
L -81.298086 180.218125 
L -75.10831 180.218125 
L -68.918534 180.218125 
L -62.728757 180.218125 
L -56.538981 180.218125 
L -50.349204 180.218125 
L -44.159428 180.218125 
L -37.969652 180.218125 
L -31.779875 180.218125 
L -25.590099 180.218125 
L -19.400322 180.218125 
L -13.210546 180.218125 
L -7.02077 180.218125 
L -0.830993 180.218125 
L 5.358783 180.218125 
L 11.548559 180.218125 
L 17.738336 180.218125 
L 23.928112 180.218125 
L 30.117889 180.218125 
L 36.307665 180.218125 
L 42.497441 180.218125 
L 48.687218 180.218125 
L 54.876994 180.218125 
L 61.066771 180.218125 
L 67.256547 180.218125 
L 73.446323 180.218125 
L 79.6361 180.218125 
L 85.825876 180.218125 
L 92.015653 180.218125 
L 98.205429 180.218125 
L 104.395205 180.218125 
L 110.584982 180.218125 
L 116.774758 180.218125 
L 122.964535 180.218125 
L 129.154311 180.218125 
L 135.344087 180.218125 
L 141.533864 180.218125 
L 147.72364 180.218125 
L 153.913416 180.218125 
L 160.103193 180.218125 
L 166.292969 180.218125 
L 172.482746 180.218125 
L 178.672522 180.218125 
L 184.862298 180.218125 
L 191.052075 180.218125 
L 197.241851 180.218125 
L 203.431628 180.218125 
L 209.621404 180.218125 
L 215.81118 180.218125 
L 222.000957 180.218125 
L 228.190733 180.218125 
L 234.38051 180.218125 
L 240.570286 180.218125 
L 246.760062 180.218125 
L 252.949839 180.218125 
L 259.139615 180.218125 
L 265.329391 180.218125 
L 271.519168 180.218125 
L 277.708944 180.218125 
L 283.898721 180.218125 
L 290.088497 180.218125 
L 296.278273 180.218125 
L 302.46805 180.218125 
L 308.657826 180.218125 
L 314.847603 180.218125 
L 321.037379 180.218125 
L 327.227155 180.218125 
L 333.416932 180.218125 
L 339.606708 180.218125 
L 345.796485 180.218125 
L 351.986261 180.218125 
L 358.176037 180.218125 
L 364.365814 180.218125 
L 370.55559 180.218125 
L 376.745366 180.218125 
L 382.935143 180.218125 
L 389.124919 180.218125 
L 395.314696 180.218125 
L 401.504472 180.218125 
L 407.694248 180.218125 
L 413.884025 180.218125 
L 420.073801 180.218125 
L 426.263578 180.218125 
L 432.453354 180.218125 
L 438.64313 180.218125 
L 444.832907 180.218125 
L 451.022683 180.218125 
L 457.21246 180.218125 
L 463.402236 180.218125 
L 469.592012 180.218125 
L 475.781789 180.218125 
L 481.971565 180.218125 
L 488.161342 180.218125 
L 494.351118 180.218125 
L 500.540894 180.218125 
L 506.730671 180.218125 
L 512.920447 180.218125 
L 519.110223 180.218125 
L 525.3 180.218125 
L 531.489776 180.218125 
L 537.679553 180.218125 
L 543.869329 180.218125 
L 550.059105 180.218125 
L 556.248882 180.218125 
L 562.438658 180.218125 
L 568.628435 180.218125 
L 574.818211 180.218125 
L 581.007987 180.218125 
L 587.197764 180.218125 
L 593.38754 180.218125 
L 599.577317 180.218125 
L 605.767093 180.218125 
L 611.956869 180.218125 
L 618.146646 180.218125 
L 624.336422 180.218125 
L 630.526198 180.218125 
L 636.715975 180.218125 
L 642.905751 180.218125 
L 649.095528 180.218125 
L 655.285304 180.218125 
L 661.47508 180.218125 
L 667.664857 180.218125 
L 673.854633 180.218125 
L 680.04441 180.218125 
L 686.234186 180.218125 
L 692.423962 180.218125 
L 698.613739 180.218125 
L 704.803515 180.218125 
L 710.993292 180.218125 
L 717.183068 180.218125 
L 723.372844 180.218125 
L 729.562621 180.218125 
L 735.752397 180.218125 
L 741.942174 180.218125 
L 748.13195 180.218125 
L 754.321726 180.218125 
L 760.511503 180.218125 
L 766.701279 180.218125 
L 772.891055 180.218125 
L 779.080832 180.218125 
L 785.270608 180.218125 
L 791.460385 180.218125 
L 797.650161 180.218125 
L 803.839937 180.218125 
L 810.029714 180.218125 
L 816.21949 180.218125 
L 822.409267 180.218125 
L 828.599043 180.218125 
L 834.788819 180.218125 
L 840.978596 180.218125 
L 847.168372 180.218125 
L 853.358149 180.218125 
L 859.547925 180.218125 
L 865.737701 180.218125 
L 871.927478 180.218125 
L 878.117254 180.218125 
L 884.30703 180.218125 
L 890.496807 180.218125 
L 896.686583 180.218125 
L 902.87636 180.218125 
L 909.066136 180.218125 
L 915.255912 180.218125 
L 921.445689 180.218125 
L 927.635465 180.218125 
L 933.825242 180.218125 
L 940.015018 180.218125 
L 946.204794 180.218125 
L 952.394571 180.218125 
L 958.584347 180.218125 
L 964.774124 180.218125 
L 970.9639 180.218125 
L 977.153676 180.218125 
L 983.343453 180.218125 
L 989.533229 180.218125 
L 995.723005 180.218125 
L 1001.912782 180.218125 
L 1008.102558 180.218125 
L 1014.292335 180.218125 
L 1020.482111 180.218125 
L 1026.671887 180.218125 
L 1032.861664 180.218125 
L 1039.05144 180.218125 
L 1045.241217 180.218125 
L 1051.430993 180.218125 
L 1057.620769 180.218125 
L 1057.620769 179.319943 
L 1057.620769 179.319943 
L 1051.430993 179.049255 
L 1045.241217 178.709026 
L 1039.05144 178.285181 
L 1032.861664 177.761886 
L 1026.671887 177.121619 
L 1020.482111 176.345344 
L 1014.292335 175.412788 
L 1008.102558 174.302855 
L 1001.912782 172.994168 
L 995.723005 171.465756 
L 989.533229 169.69788 
L 983.343453 167.672971 
L 977.153676 165.376688 
L 970.9639 162.799023 
L 964.774124 159.935441 
L 958.584347 156.787981 
L 952.394571 153.366267 
L 946.204794 149.688351 
L 940.015018 145.781329 
L 933.825242 141.681668 
L 927.635465 137.435172 
L 921.445689 133.096561 
L 915.255912 128.728627 
L 909.066136 124.400969 
L 902.87636 120.188318 
L 896.686583 116.168509 
L 890.496807 112.420159 
L 884.30703 109.02015 
L 878.117254 106.041019 
L 871.927478 103.548385 
L 865.737701 101.598532 
L 859.547925 100.236267 
L 853.358149 99.493178 
L 847.168372 99.386367 
L 840.978596 99.917735 
L 834.788819 101.073858 
L 828.599043 102.826448 
L 822.409267 105.133384 
L 816.21949 107.940244 
L 810.029714 111.182262 
L 803.839937 114.786594 
L 797.650161 118.674788 
L 791.460385 122.765323 
L 785.270608 126.976097 
L 779.080832 131.22677 
L 772.891055 135.440845 
L 766.701279 139.547437 
L 760.511503 143.48267 
L 754.321726 147.190688 
L 748.13195 150.624283 
L 741.942174 153.74516 
L 735.752397 156.523899 
L 729.562621 158.939642 
L 723.372844 160.979603 
L 717.183068 162.638439 
L 710.993292 163.917556 
L 704.803515 164.824408 
L 698.613739 165.371821 
L 692.423962 165.577382 
L 686.234186 165.462897 
L 680.04441 165.053932 
L 673.854633 164.379418 
L 667.664857 163.471294 
L 661.47508 162.364179 
L 655.285304 161.095018 
L 649.095528 159.70269 
L 642.905751 158.227548 
L 636.715975 156.710868 
L 630.526198 155.194204 
L 624.336422 153.718647 
L 618.146646 152.324008 
L 611.956869 151.047939 
L 605.767093 149.925036 
L 599.577317 148.985962 
L 593.38754 148.256631 
L 587.197764 147.757496 
L 581.007987 147.502996 
L 574.818211 147.501175 
L 568.628435 147.75352 
L 562.438658 148.255019 
L 556.248882 148.994445 
L 550.059105 149.954852 
L 543.869329 151.11427 
L 537.679553 152.446543 
L 531.489776 153.922298 
L 525.3 155.50997 
L 519.110223 157.176852 
L 512.920447 158.890119 
L 506.730671 160.617769 
L 500.540894 162.329473 
L 494.351118 163.997275 
L 488.161342 165.596149 
L 481.971565 167.104387 
L 475.781789 168.503836 
L 469.592012 169.779983 
L 463.402236 170.921914 
L 457.21246 171.922166 
L 451.022683 172.776497 
L 444.832907 173.483605 
L 438.64313 174.04482 
L 432.453354 174.463789 
L 426.263578 174.746172 
L 420.073801 174.899367 
L 413.884025 174.93226 
L 407.694248 174.855018 
L 401.504472 174.678904 
L 395.314696 174.416122 
L 389.124919 174.079676 
L 382.935143 173.683225 
L 376.745366 173.240943 
L 370.55559 172.767352 
L 364.365814 172.277134 
L 358.176037 171.784919 
L 351.986261 171.305043 
L 345.796485 170.851277 
L 339.606708 170.43655 
L 333.416932 170.072661 
L 327.227155 169.769996 
L 321.037379 169.537275 
L 314.847603 169.381328 
L 308.657826 169.30693 
L 302.46805 169.316687 
L 296.278273 169.411 
L 290.088497 169.588104 
L 283.898721 169.844174 
L 277.708944 170.173508 
L 271.519168 170.568771 
L 265.329391 171.021288 
L 259.139615 171.521374 
L 252.949839 172.058688 
L 246.760062 172.622585 
L 240.570286 173.202466 
L 234.38051 173.788088 
L 228.190733 174.369852 
L 222.000957 174.939031 
L 215.81118 175.487946 
L 209.621404 176.010092 
L 203.431628 176.500203 
L 197.241851 176.954264 
L 191.052075 177.369477 
L 184.862298 177.744191 
L 178.672522 178.077797 
L 172.482746 178.370605 
L 166.292969 178.623706 
L 160.103193 178.838834 
L 153.913416 179.018222 
L 147.72364 179.16448 
L 141.533864 179.280471 
L 135.344087 179.369214 
L 129.154311 179.433796 
L 122.964535 179.477303 
L 116.774758 179.502763 
L 110.584982 179.51311 
L 104.395205 179.511148 
L 98.205429 179.499532 
L 92.015653 179.48075 
L 85.825876 179.457111 
L 79.6361 179.430736 
L 73.446323 179.403549 
L 67.256547 179.377268 
L 61.066771 179.353398 
L 54.876994 179.333222 
L 48.687218 179.317797 
L 42.497441 179.30795 
L 36.307665 179.304275 
L 30.117889 179.307137 
L 23.928112 179.316679 
L 17.738336 179.332835 
L 11.548559 179.355344 
L 5.358783 179.383771 
L -0.830993 179.417536 
L -7.02077 179.455939 
L -13.210546 179.498192 
L -19.400322 179.543452 
L -25.590099 179.590847 
L -31.779875 179.639514 
L -37.969652 179.688619 
L -44.159428 179.737386 
L -50.349204 179.785111 
L -56.538981 179.831182 
L -62.728757 179.875086 
L -68.918534 179.916414 
L -75.10831 179.954862 
L -81.298086 179.990228 
L -87.487863 180.022404 
L -93.677639 180.051367 
L -99.867416 180.077168 
L -106.057192 180.09992 
L -112.246968 180.119784 
L -118.436745 180.136957 
L -124.626521 180.151661 
L -130.816297 180.164132 
L -137.006074 180.174611 
L -143.19585 180.183333 
L -149.385627 180.190527 
L -155.575403 180.196407 
L -161.765179 180.201169 
L -167.954956 180.204992 
L -174.144732 180.208033 
z
" style="fill:#4c72b0;fill-opacity:0.25;stroke:#4c72b0;"/>
   </g>
   <g id="PolyCollection_2">
    <path clip-path="url(#pce0345002b)" d="M -102.536459 180.205264 
L -102.536459 180.218125 
L -97.066363 180.218125 
L -91.596268 180.218125 
L -86.126173 180.218125 
L -80.656078 180.218125 
L -75.185982 180.218125 
L -69.715887 180.218125 
L -64.245792 180.218125 
L -58.775697 180.218125 
L -53.305601 180.218125 
L -47.835506 180.218125 
L -42.365411 180.218125 
L -36.895316 180.218125 
L -31.42522 180.218125 
L -25.955125 180.218125 
L -20.48503 180.218125 
L -15.014935 180.218125 
L -9.54484 180.218125 
L -4.074744 180.218125 
L 1.395351 180.218125 
L 6.865446 180.218125 
L 12.335541 180.218125 
L 17.805637 180.218125 
L 23.275732 180.218125 
L 28.745827 180.218125 
L 34.215922 180.218125 
L 39.686018 180.218125 
L 45.156113 180.218125 
L 50.626208 180.218125 
L 56.096303 180.218125 
L 61.566399 180.218125 
L 67.036494 180.218125 
L 72.506589 180.218125 
L 77.976684 180.218125 
L 83.44678 180.218125 
L 88.916875 180.218125 
L 94.38697 180.218125 
L 99.857065 180.218125 
L 105.327161 180.218125 
L 110.797256 180.218125 
L 116.267351 180.218125 
L 121.737446 180.218125 
L 127.207542 180.218125 
L 132.677637 180.218125 
L 138.147732 180.218125 
L 143.617827 180.218125 
L 149.087923 180.218125 
L 154.558018 180.218125 
L 160.028113 180.218125 
L 165.498208 180.218125 
L 170.968304 180.218125 
L 176.438399 180.218125 
L 181.908494 180.218125 
L 187.378589 180.218125 
L 192.848685 180.218125 
L 198.31878 180.218125 
L 203.788875 180.218125 
L 209.25897 180.218125 
L 214.729066 180.218125 
L 220.199161 180.218125 
L 225.669256 180.218125 
L 231.139351 180.218125 
L 236.609447 180.218125 
L 242.079542 180.218125 
L 247.549637 180.218125 
L 253.019732 180.218125 
L 258.489828 180.218125 
L 263.959923 180.218125 
L 269.430018 180.218125 
L 274.900113 180.218125 
L 280.370209 180.218125 
L 285.840304 180.218125 
L 291.310399 180.218125 
L 296.780494 180.218125 
L 302.25059 180.218125 
L 307.720685 180.218125 
L 313.19078 180.218125 
L 318.660875 180.218125 
L 324.130971 180.218125 
L 329.601066 180.218125 
L 335.071161 180.218125 
L 340.541256 180.218125 
L 346.011352 180.218125 
L 351.481447 180.218125 
L 356.951542 180.218125 
L 362.421637 180.218125 
L 367.891733 180.218125 
L 373.361828 180.218125 
L 378.831923 180.218125 
L 384.302018 180.218125 
L 389.772114 180.218125 
L 395.242209 180.218125 
L 400.712304 180.218125 
L 406.182399 180.218125 
L 411.652495 180.218125 
L 417.12259 180.218125 
L 422.592685 180.218125 
L 428.06278 180.218125 
L 433.532876 180.218125 
L 439.002971 180.218125 
L 444.473066 180.218125 
L 449.943161 180.218125 
L 455.413257 180.218125 
L 460.883352 180.218125 
L 466.353447 180.218125 
L 471.823542 180.218125 
L 477.293638 180.218125 
L 482.763733 180.218125 
L 488.233828 180.218125 
L 493.703923 180.218125 
L 499.174019 180.218125 
L 504.644114 180.218125 
L 510.114209 180.218125 
L 515.584304 180.218125 
L 521.0544 180.218125 
L 526.524495 180.218125 
L 531.99459 180.218125 
L 537.464685 180.218125 
L 542.934781 180.218125 
L 548.404876 180.218125 
L 553.874971 180.218125 
L 559.345066 180.218125 
L 564.815162 180.218125 
L 570.285257 180.218125 
L 575.755352 180.218125 
L 581.225447 180.218125 
L 586.695543 180.218125 
L 592.165638 180.218125 
L 597.635733 180.218125 
L 603.105828 180.218125 
L 608.575924 180.218125 
L 614.046019 180.218125 
L 619.516114 180.218125 
L 624.986209 180.218125 
L 630.456305 180.218125 
L 635.9264 180.218125 
L 641.396495 180.218125 
L 646.86659 180.218125 
L 652.336686 180.218125 
L 657.806781 180.218125 
L 663.276876 180.218125 
L 668.746971 180.218125 
L 674.217067 180.218125 
L 679.687162 180.218125 
L 685.157257 180.218125 
L 690.627352 180.218125 
L 696.097448 180.218125 
L 701.567543 180.218125 
L 707.037638 180.218125 
L 712.507733 180.218125 
L 717.977829 180.218125 
L 723.447924 180.218125 
L 728.918019 180.218125 
L 734.388114 180.218125 
L 739.85821 180.218125 
L 745.328305 180.218125 
L 750.7984 180.218125 
L 756.268495 180.218125 
L 761.738591 180.218125 
L 767.208686 180.218125 
L 772.678781 180.218125 
L 778.148876 180.218125 
L 783.618972 180.218125 
L 789.089067 180.218125 
L 794.559162 180.218125 
L 800.029257 180.218125 
L 805.499353 180.218125 
L 810.969448 180.218125 
L 816.439543 180.218125 
L 821.909638 180.218125 
L 827.379734 180.218125 
L 832.849829 180.218125 
L 838.319924 180.218125 
L 843.790019 180.218125 
L 849.260115 180.218125 
L 854.73021 180.218125 
L 860.200305 180.218125 
L 865.6704 180.218125 
L 871.140496 180.218125 
L 876.610591 180.218125 
L 882.080686 180.218125 
L 887.550781 180.218125 
L 893.020877 180.218125 
L 898.490972 180.218125 
L 903.961067 180.218125 
L 909.431162 180.218125 
L 914.901258 180.218125 
L 920.371353 180.218125 
L 925.841448 180.218125 
L 931.311543 180.218125 
L 936.781639 180.218125 
L 942.251734 180.218125 
L 947.721829 180.218125 
L 953.191924 180.218125 
L 958.66202 180.218125 
L 964.132115 180.218125 
L 969.60221 180.218125 
L 975.072305 180.218125 
L 980.542401 180.218125 
L 986.012496 180.218125 
L 986.012496 179.858017 
L 986.012496 179.858017 
L 980.542401 179.705645 
L 975.072305 179.499232 
L 969.60221 179.224102 
L 964.132115 178.863333 
L 958.66202 178.398036 
L 953.191924 177.807904 
L 947.721829 177.072077 
L 942.251734 176.170336 
L 936.781639 175.084615 
L 931.311543 173.800784 
L 925.841448 172.310612 
L 920.371353 170.613756 
L 914.901258 168.719608 
L 909.431162 166.648779 
L 903.961067 164.434014 
L 898.490972 162.120339 
L 893.020877 159.764284 
L 887.550781 157.43211 
L 882.080686 155.197048 
L 876.610591 153.135689 
L 871.140496 151.323734 
L 865.6704 149.831429 
L 860.200305 148.719071 
L 854.73021 148.032966 
L 849.260115 147.802238 
L 843.790019 148.036773 
L 838.319924 148.726519 
L 832.849829 149.8422 
L 827.379734 151.337372 
L 821.909638 153.151634 
L 816.439543 155.214656 
L 810.969448 157.450686 
L 805.499353 159.783094 
L 800.029257 162.138606 
L 794.559162 164.45089 
L 789.089067 166.663272 
L 783.618972 168.730441 
L 778.148876 170.619144 
L 772.678781 172.307908 
L 767.208686 173.785947 
L 761.738591 175.051431 
L 756.268495 176.109301 
L 750.7984 176.968831 
L 745.328305 177.641077 
L 739.85821 178.136358 
L 734.388114 178.461834 
L 728.918019 178.61924 
L 723.447924 178.602822 
L 717.977829 178.397496 
L 712.507733 177.97729 
L 707.037638 177.304164 
L 701.567543 176.327321 
L 696.097448 174.983192 
L 690.627352 173.196308 
L 685.157257 170.881272 
L 679.687162 167.946056 
L 674.217067 164.296755 
L 668.746971 159.843854 
L 663.276876 154.509892 
L 657.806781 148.238222 
L 652.336686 141.002359 
L 646.86659 132.815185 
L 641.396495 123.737145 
L 635.9264 113.882427 
L 630.456305 103.422148 
L 624.986209 92.583708 
L 619.516114 81.645685 
L 614.046019 70.92807 
L 608.575924 60.778068 
L 603.105828 51.55221 
L 597.635733 43.595962 
L 592.165638 37.222446 
L 586.695543 32.692052 
L 581.225447 30.194811 
L 575.755352 29.837173 
L 570.285257 31.634479 
L 564.815162 35.509874 
L 559.345066 41.299754 
L 553.874971 48.765224 
L 548.404876 57.608441 
L 542.934781 67.492284 
L 537.464685 78.061552 
L 531.99459 88.963835 
L 526.524495 99.868391 
L 521.0544 110.48167 
L 515.584304 120.558609 
L 510.114209 129.909277 
L 504.644114 138.400967 
L 499.174019 145.956211 
L 493.703923 152.547518 
L 488.233828 158.189784 
L 482.763733 162.93137 
L 477.293638 166.844805 
L 471.823542 170.017863 
L 466.353447 172.545635 
L 460.883352 174.52394 
L 455.413257 176.044258 
L 449.943161 177.190175 
L 444.473066 178.035213 
L 439.002971 178.641832 
L 433.532876 179.061346 
L 428.06278 179.334518 
L 422.592685 179.492588 
L 417.12259 179.558561 
L 411.652495 179.548598 
L 406.182399 179.473428 
L 400.712304 179.339692 
L 395.242209 179.151217 
L 389.772114 178.910176 
L 384.302018 178.618132 
L 378.831923 178.276958 
L 373.361828 177.889622 
L 367.891733 177.460807 
L 362.421637 176.997347 
L 356.951542 176.508452 
L 351.481447 176.005709 
L 346.011352 175.502834 
L 340.541256 175.015193 
L 335.071161 174.55911 
L 329.601066 174.151012 
L 324.130971 173.806479 
L 318.660875 173.539268 
L 313.19078 173.360411 
L 307.720685 173.277462 
L 302.25059 173.29397 
L 296.780494 173.409228 
L 291.310399 173.618324 
L 285.840304 173.912487 
L 280.370209 174.279698 
L 274.900113 174.705507 
L 269.430018 175.173969 
L 263.959923 175.668629 
L 258.489828 176.173461 
L 253.019732 176.673699 
L 247.549637 177.156483 
L 242.079542 177.611321 
L 236.609447 178.030315 
L 231.139351 178.408196 
L 225.669256 178.742179 
L 220.199161 179.031673 
L 214.729066 179.277907 
L 209.25897 179.483504 
L 203.788875 179.652055 
L 198.31878 179.78771 
L 192.848685 179.894832 
L 187.378589 179.977705 
L 181.908494 180.040321 
L 176.438399 180.08623 
L 170.968304 180.11845 
L 165.498208 180.139431 
L 160.028113 180.151057 
L 154.558018 180.15468 
L 149.087923 180.151174 
L 143.617827 180.140999 
L 138.147732 180.124289 
L 132.677637 180.100931 
L 127.207542 180.070659 
L 121.737446 180.033152 
L 116.267351 179.988131 
L 110.797256 179.935452 
L 105.327161 179.875206 
L 99.857065 179.807793 
L 94.38697 179.73399 
L 88.916875 179.654991 
L 83.44678 179.572417 
L 77.976684 179.488297 
L 72.506589 179.404999 
L 67.036494 179.325142 
L 61.566399 179.251464 
L 56.096303 179.186669 
L 50.626208 179.13327 
L 45.156113 179.093425 
L 39.686018 179.068791 
L 34.215922 179.060415 
L 28.745827 179.068655 
L 23.275732 179.093159 
L 17.805637 179.132886 
L 12.335541 179.186182 
L 6.865446 179.250895 
L 1.395351 179.324515 
L -4.074744 179.404339 
L -9.54484 179.487631 
L -15.014935 179.571775 
L -20.48503 179.654407 
L -25.955125 179.733505 
L -31.42522 179.807464 
L -36.895316 179.875112 
L -42.365411 179.935714 
L -47.835506 179.988934 
L -53.305601 180.034785 
L -58.775697 180.073561 
L -64.245792 180.105766 
L -69.715887 180.132046 
L -75.185982 180.153122 
L -80.656078 180.16974 
L -86.126173 180.182624 
L -91.596268 180.19245 
L -97.066363 180.199822 
L -102.536459 180.205264 
z
" style="fill:#dd8452;fill-opacity:0.25;stroke:#dd8452;"/>
   </g>
   <g id="patch_3">
    <path d="M 34.193438 180.218125 
L 34.193438 22.318125 
" style="fill:none;stroke:#ffffff;stroke-linecap:square;stroke-linejoin:miter;stroke-width:1.25;"/>
   </g>
   <g id="patch_4">
    <path d="M 34.193438 180.218125 
L 849.2826 180.218125 
" style="fill:none;stroke:#ffffff;stroke-linecap:square;stroke-linejoin:miter;stroke-width:1.25;"/>
   </g>
   <g id="text_13">
    <!-- Output: thall -->
    <g style="fill:#262626;" transform="translate(403.803019 16.318125)scale(0.12 -0.12)">
     <defs>
      <path d="M 39.40625 66.21875 
Q 28.65625 66.21875 22.328125 58.203125 
Q 16.015625 50.203125 16.015625 36.375 
Q 16.015625 22.609375 22.328125 14.59375 
Q 28.65625 6.59375 39.40625 6.59375 
Q 50.140625 6.59375 56.421875 14.59375 
Q 62.703125 22.609375 62.703125 36.375 
Q 62.703125 50.203125 56.421875 58.203125 
Q 50.140625 66.21875 39.40625 66.21875 
z
M 39.40625 74.21875 
Q 54.734375 74.21875 63.90625 63.9375 
Q 73.09375 53.65625 73.09375 36.375 
Q 73.09375 19.140625 63.90625 8.859375 
Q 54.734375 -1.421875 39.40625 -1.421875 
Q 24.03125 -1.421875 14.8125 8.828125 
Q 5.609375 19.09375 5.609375 36.375 
Q 5.609375 53.65625 14.8125 63.9375 
Q 24.03125 74.21875 39.40625 74.21875 
z
" id="DejaVuSans-79"/>
      <path d="M 8.5 21.578125 
L 8.5 54.6875 
L 17.484375 54.6875 
L 17.484375 21.921875 
Q 17.484375 14.15625 20.5 10.265625 
Q 23.53125 6.390625 29.59375 6.390625 
Q 36.859375 6.390625 41.078125 11.03125 
Q 45.3125 15.671875 45.3125 23.6875 
L 45.3125 54.6875 
L 54.296875 54.6875 
L 54.296875 0 
L 45.3125 0 
L 45.3125 8.40625 
Q 42.046875 3.421875 37.71875 1 
Q 33.40625 -1.421875 27.6875 -1.421875 
Q 18.265625 -1.421875 13.375 4.4375 
Q 8.5 10.296875 8.5 21.578125 
z
M 31.109375 56 
z
" id="DejaVuSans-117"/>
      <path d="M 18.109375 8.203125 
L 18.109375 -20.796875 
L 9.078125 -20.796875 
L 9.078125 54.6875 
L 18.109375 54.6875 
L 18.109375 46.390625 
Q 20.953125 51.265625 25.265625 53.625 
Q 29.59375 56 35.59375 56 
Q 45.5625 56 51.78125 48.09375 
Q 58.015625 40.1875 58.015625 27.296875 
Q 58.015625 14.40625 51.78125 6.484375 
Q 45.5625 -1.421875 35.59375 -1.421875 
Q 29.59375 -1.421875 25.265625 0.953125 
Q 20.953125 3.328125 18.109375 8.203125 
z
M 48.6875 27.296875 
Q 48.6875 37.203125 44.609375 42.84375 
Q 40.53125 48.484375 33.40625 48.484375 
Q 26.265625 48.484375 22.1875 42.84375 
Q 18.109375 37.203125 18.109375 27.296875 
Q 18.109375 17.390625 22.1875 11.75 
Q 26.265625 6.109375 33.40625 6.109375 
Q 40.53125 6.109375 44.609375 11.75 
Q 48.6875 17.390625 48.6875 27.296875 
z
" id="DejaVuSans-112"/>
      <path d="M 11.71875 12.40625 
L 22.015625 12.40625 
L 22.015625 0 
L 11.71875 0 
z
M 11.71875 51.703125 
L 22.015625 51.703125 
L 22.015625 39.3125 
L 11.71875 39.3125 
z
" id="DejaVuSans-58"/>
      <path id="DejaVuSans-32"/>
     </defs>
     <use xlink:href="#DejaVuSans-79"/>
     <use x="78.710938" xlink:href="#DejaVuSans-117"/>
     <use x="142.089844" xlink:href="#DejaVuSans-116"/>
     <use x="181.298828" xlink:href="#DejaVuSans-112"/>
     <use x="244.775391" xlink:href="#DejaVuSans-117"/>
     <use x="308.154297" xlink:href="#DejaVuSans-116"/>
     <use x="347.363281" xlink:href="#DejaVuSans-58"/>
     <use x="381.054688" xlink:href="#DejaVuSans-32"/>
     <use x="412.841797" xlink:href="#DejaVuSans-116"/>
     <use x="452.050781" xlink:href="#DejaVuSans-104"/>
     <use x="515.429688" xlink:href="#DejaVuSans-97"/>
     <use x="576.708984" xlink:href="#DejaVuSans-108"/>
     <use x="604.492188" xlink:href="#DejaVuSans-108"/>
    </g>
   </g>
  </g>
  <g id="legend_1">
   <g id="text_14">
    <!-- output -->
    <g style="fill:#262626;" transform="translate(859.052475 98.754219)scale(0.12 -0.12)">
     <defs>
      <path d="M 30.609375 48.390625 
Q 23.390625 48.390625 19.1875 42.75 
Q 14.984375 37.109375 14.984375 27.296875 
Q 14.984375 17.484375 19.15625 11.84375 
Q 23.34375 6.203125 30.609375 6.203125 
Q 37.796875 6.203125 41.984375 11.859375 
Q 46.1875 17.53125 46.1875 27.296875 
Q 46.1875 37.015625 41.984375 42.703125 
Q 37.796875 48.390625 30.609375 48.390625 
z
M 30.609375 56 
Q 42.328125 56 49.015625 48.375 
Q 55.71875 40.765625 55.71875 27.296875 
Q 55.71875 13.875 49.015625 6.21875 
Q 42.328125 -1.421875 30.609375 -1.421875 
Q 18.84375 -1.421875 12.171875 6.21875 
Q 5.515625 13.875 5.515625 27.296875 
Q 5.515625 40.765625 12.171875 48.375 
Q 18.84375 56 30.609375 56 
z
" id="DejaVuSans-111"/>
     </defs>
     <use xlink:href="#DejaVuSans-111"/>
     <use x="61.181641" xlink:href="#DejaVuSans-117"/>
     <use x="124.560547" xlink:href="#DejaVuSans-116"/>
     <use x="163.769531" xlink:href="#DejaVuSans-112"/>
     <use x="227.246094" xlink:href="#DejaVuSans-117"/>
     <use x="290.625" xlink:href="#DejaVuSans-116"/>
    </g>
   </g>
   <g id="patch_5">
    <path d="M 859.942787 115.108125 
L 881.942787 115.108125 
L 881.942787 107.408125 
L 859.942787 107.408125 
z
" style="fill:#4c72b0;fill-opacity:0.25;stroke:#4c72b0;stroke-linejoin:miter;"/>
   </g>
   <g id="text_15">
    <!-- 0 -->
    <g style="fill:#262626;" transform="translate(890.742787 115.108125)scale(0.11 -0.11)">
     <use xlink:href="#DejaVuSans-48"/>
    </g>
   </g>
   <g id="patch_6">
    <path d="M 859.942787 131.254063 
L 881.942787 131.254063 
L 881.942787 123.554063 
L 859.942787 123.554063 
z
" style="fill:#dd8452;fill-opacity:0.25;stroke:#dd8452;stroke-linejoin:miter;"/>
   </g>
   <g id="text_16">
    <!-- 1 -->
    <g style="fill:#262626;" transform="translate(890.742787 131.254063)scale(0.11 -0.11)">
     <use xlink:href="#DejaVuSans-49"/>
    </g>
   </g>
  </g>
 </g>
 <defs>
  <clipPath id="pce0345002b">
   <rect height="157.9" width="815.089162" x="34.193438" y="22.318125"/>
  </clipPath>
 </defs>
</svg>
