<?xml version="1.0" encoding="utf-8" standalone="no"?>
<!DOCTYPE svg PUBLIC "-//W3C//DTD SVG 1.1//EN"
  "http://www.w3.org/Graphics/SVG/1.1/DTD/svg11.dtd">
<!-- Created with matplotlib (https://matplotlib.org/) -->
<svg height="223.177812pt" version="1.1" viewBox="0 0 908.53185 223.177812" width="908.53185pt" xmlns="http://www.w3.org/2000/svg" xmlns:xlink="http://www.w3.org/1999/xlink">
 <metadata>
  <rdf:RDF xmlns:cc="http://creativecommons.org/ns#" xmlns:dc="http://purl.org/dc/elements/1.1/" xmlns:rdf="http://www.w3.org/1999/02/22-rdf-syntax-ns#">
   <cc:Work>
    <dc:type rdf:resource="http://purl.org/dc/dcmitype/StillImage"/>
    <dc:date>2021-07-04T23:48:57.055541</dc:date>
    <dc:format>image/svg+xml</dc:format>
    <dc:creator>
     <cc:Agent>
      <dc:title>Matplotlib v3.3.4, https://matplotlib.org/</dc:title>
     </cc:Agent>
    </dc:creator>
   </cc:Work>
  </rdf:RDF>
 </metadata>
 <defs>
  <style type="text/css">*{stroke-linecap:butt;stroke-linejoin:round;}</style>
 </defs>
 <g id="figure_1">
  <g id="patch_1">
   <path d="M 0 223.177812 
L 908.53185 223.177812 
L 908.53185 0 
L 0 0 
z
" style="fill:none;"/>
  </g>
  <g id="axes_1">
   <g id="patch_2">
    <path d="M 34.193438 180.218125 
L 849.2826 180.218125 
L 849.2826 22.318125 
L 34.193438 22.318125 
z
" style="fill:#eaeaf2;"/>
   </g>
   <g id="matplotlib.axis_1">
    <g id="xtick_1">
     <g id="line2d_1">
      <path clip-path="url(#pf04f0838ee)" d="M 34.193438 180.218125 
L 34.193438 22.318125 
" style="fill:none;stroke:#ffffff;stroke-linecap:round;"/>
     </g>
     <g id="text_1">
      <!-- 0 -->
      <g style="fill:#262626;" transform="translate(30.694063 198.076406)scale(0.11 -0.11)">
       <defs>
        <path d="M 31.78125 66.40625 
Q 24.171875 66.40625 20.328125 58.90625 
Q 16.5 51.421875 16.5 36.375 
Q 16.5 21.390625 20.328125 13.890625 
Q 24.171875 6.390625 31.78125 6.390625 
Q 39.453125 6.390625 43.28125 13.890625 
Q 47.125 21.390625 47.125 36.375 
Q 47.125 51.421875 43.28125 58.90625 
Q 39.453125 66.40625 31.78125 66.40625 
z
M 31.78125 74.21875 
Q 44.046875 74.21875 50.515625 64.515625 
Q 56.984375 54.828125 56.984375 36.375 
Q 56.984375 17.96875 50.515625 8.265625 
Q 44.046875 -1.421875 31.78125 -1.421875 
Q 19.53125 -1.421875 13.0625 8.265625 
Q 6.59375 17.96875 6.59375 36.375 
Q 6.59375 54.828125 13.0625 64.515625 
Q 19.53125 74.21875 31.78125 74.21875 
z
" id="DejaVuSans-48"/>
       </defs>
       <use xlink:href="#DejaVuSans-48"/>
      </g>
     </g>
    </g>
    <g id="xtick_2">
     <g id="line2d_2">
      <path clip-path="url(#pf04f0838ee)" d="M 165.659431 180.218125 
L 165.659431 22.318125 
" style="fill:none;stroke:#ffffff;stroke-linecap:round;"/>
     </g>
     <g id="text_2">
      <!-- 1 -->
      <g style="fill:#262626;" transform="translate(162.160056 198.076406)scale(0.11 -0.11)">
       <defs>
        <path d="M 12.40625 8.296875 
L 28.515625 8.296875 
L 28.515625 63.921875 
L 10.984375 60.40625 
L 10.984375 69.390625 
L 28.421875 72.90625 
L 38.28125 72.90625 
L 38.28125 8.296875 
L 54.390625 8.296875 
L 54.390625 0 
L 12.40625 0 
z
" id="DejaVuSans-49"/>
       </defs>
       <use xlink:href="#DejaVuSans-49"/>
      </g>
     </g>
    </g>
    <g id="xtick_3">
     <g id="line2d_3">
      <path clip-path="url(#pf04f0838ee)" d="M 297.125425 180.218125 
L 297.125425 22.318125 
" style="fill:none;stroke:#ffffff;stroke-linecap:round;"/>
     </g>
     <g id="text_3">
      <!-- 2 -->
      <g style="fill:#262626;" transform="translate(293.62605 198.076406)scale(0.11 -0.11)">
       <defs>
        <path d="M 19.1875 8.296875 
L 53.609375 8.296875 
L 53.609375 0 
L 7.328125 0 
L 7.328125 8.296875 
Q 12.9375 14.109375 22.625 23.890625 
Q 32.328125 33.6875 34.8125 36.53125 
Q 39.546875 41.84375 41.421875 45.53125 
Q 43.3125 49.21875 43.3125 52.78125 
Q 43.3125 58.59375 39.234375 62.25 
Q 35.15625 65.921875 28.609375 65.921875 
Q 23.96875 65.921875 18.8125 64.3125 
Q 13.671875 62.703125 7.8125 59.421875 
L 7.8125 69.390625 
Q 13.765625 71.78125 18.9375 73 
Q 24.125 74.21875 28.421875 74.21875 
Q 39.75 74.21875 46.484375 68.546875 
Q 53.21875 62.890625 53.21875 53.421875 
Q 53.21875 48.921875 51.53125 44.890625 
Q 49.859375 40.875 45.40625 35.40625 
Q 44.1875 33.984375 37.640625 27.21875 
Q 31.109375 20.453125 19.1875 8.296875 
z
" id="DejaVuSans-50"/>
       </defs>
       <use xlink:href="#DejaVuSans-50"/>
      </g>
     </g>
    </g>
    <g id="xtick_4">
     <g id="line2d_4">
      <path clip-path="url(#pf04f0838ee)" d="M 428.591419 180.218125 
L 428.591419 22.318125 
" style="fill:none;stroke:#ffffff;stroke-linecap:round;"/>
     </g>
     <g id="text_4">
      <!-- 3 -->
      <g style="fill:#262626;" transform="translate(425.092044 198.076406)scale(0.11 -0.11)">
       <defs>
        <path d="M 40.578125 39.3125 
Q 47.65625 37.796875 51.625 33 
Q 55.609375 28.21875 55.609375 21.1875 
Q 55.609375 10.40625 48.1875 4.484375 
Q 40.765625 -1.421875 27.09375 -1.421875 
Q 22.515625 -1.421875 17.65625 -0.515625 
Q 12.796875 0.390625 7.625 2.203125 
L 7.625 11.71875 
Q 11.71875 9.328125 16.59375 8.109375 
Q 21.484375 6.890625 26.8125 6.890625 
Q 36.078125 6.890625 40.9375 10.546875 
Q 45.796875 14.203125 45.796875 21.1875 
Q 45.796875 27.640625 41.28125 31.265625 
Q 36.765625 34.90625 28.71875 34.90625 
L 20.21875 34.90625 
L 20.21875 43.015625 
L 29.109375 43.015625 
Q 36.375 43.015625 40.234375 45.921875 
Q 44.09375 48.828125 44.09375 54.296875 
Q 44.09375 59.90625 40.109375 62.90625 
Q 36.140625 65.921875 28.71875 65.921875 
Q 24.65625 65.921875 20.015625 65.03125 
Q 15.375 64.15625 9.8125 62.3125 
L 9.8125 71.09375 
Q 15.4375 72.65625 20.34375 73.4375 
Q 25.25 74.21875 29.59375 74.21875 
Q 40.828125 74.21875 47.359375 69.109375 
Q 53.90625 64.015625 53.90625 55.328125 
Q 53.90625 49.265625 50.4375 45.09375 
Q 46.96875 40.921875 40.578125 39.3125 
z
" id="DejaVuSans-51"/>
       </defs>
       <use xlink:href="#DejaVuSans-51"/>
      </g>
     </g>
    </g>
    <g id="xtick_5">
     <g id="line2d_5">
      <path clip-path="url(#pf04f0838ee)" d="M 560.057413 180.218125 
L 560.057413 22.318125 
" style="fill:none;stroke:#ffffff;stroke-linecap:round;"/>
     </g>
     <g id="text_5">
      <!-- 4 -->
      <g style="fill:#262626;" transform="translate(556.558038 198.076406)scale(0.11 -0.11)">
       <defs>
        <path d="M 37.796875 64.3125 
L 12.890625 25.390625 
L 37.796875 25.390625 
z
M 35.203125 72.90625 
L 47.609375 72.90625 
L 47.609375 25.390625 
L 58.015625 25.390625 
L 58.015625 17.1875 
L 47.609375 17.1875 
L 47.609375 0 
L 37.796875 0 
L 37.796875 17.1875 
L 4.890625 17.1875 
L 4.890625 26.703125 
z
" id="DejaVuSans-52"/>
       </defs>
       <use xlink:href="#DejaVuSans-52"/>
      </g>
     </g>
    </g>
    <g id="xtick_6">
     <g id="line2d_6">
      <path clip-path="url(#pf04f0838ee)" d="M 691.523407 180.218125 
L 691.523407 22.318125 
" style="fill:none;stroke:#ffffff;stroke-linecap:round;"/>
     </g>
     <g id="text_6">
      <!-- 5 -->
      <g style="fill:#262626;" transform="translate(688.024032 198.076406)scale(0.11 -0.11)">
       <defs>
        <path d="M 10.796875 72.90625 
L 49.515625 72.90625 
L 49.515625 64.59375 
L 19.828125 64.59375 
L 19.828125 46.734375 
Q 21.96875 47.46875 24.109375 47.828125 
Q 26.265625 48.1875 28.421875 48.1875 
Q 40.625 48.1875 47.75 41.5 
Q 54.890625 34.8125 54.890625 23.390625 
Q 54.890625 11.625 47.5625 5.09375 
Q 40.234375 -1.421875 26.90625 -1.421875 
Q 22.3125 -1.421875 17.546875 -0.640625 
Q 12.796875 0.140625 7.71875 1.703125 
L 7.71875 11.625 
Q 12.109375 9.234375 16.796875 8.0625 
Q 21.484375 6.890625 26.703125 6.890625 
Q 35.15625 6.890625 40.078125 11.328125 
Q 45.015625 15.765625 45.015625 23.390625 
Q 45.015625 31 40.078125 35.4375 
Q 35.15625 39.890625 26.703125 39.890625 
Q 22.75 39.890625 18.8125 39.015625 
Q 14.890625 38.140625 10.796875 36.28125 
z
" id="DejaVuSans-53"/>
       </defs>
       <use xlink:href="#DejaVuSans-53"/>
      </g>
     </g>
    </g>
    <g id="xtick_7">
     <g id="line2d_7">
      <path clip-path="url(#pf04f0838ee)" d="M 822.989401 180.218125 
L 822.989401 22.318125 
" style="fill:none;stroke:#ffffff;stroke-linecap:round;"/>
     </g>
     <g id="text_7">
      <!-- 6 -->
      <g style="fill:#262626;" transform="translate(819.490026 198.076406)scale(0.11 -0.11)">
       <defs>
        <path d="M 33.015625 40.375 
Q 26.375 40.375 22.484375 35.828125 
Q 18.609375 31.296875 18.609375 23.390625 
Q 18.609375 15.53125 22.484375 10.953125 
Q 26.375 6.390625 33.015625 6.390625 
Q 39.65625 6.390625 43.53125 10.953125 
Q 47.40625 15.53125 47.40625 23.390625 
Q 47.40625 31.296875 43.53125 35.828125 
Q 39.65625 40.375 33.015625 40.375 
z
M 52.59375 71.296875 
L 52.59375 62.3125 
Q 48.875 64.0625 45.09375 64.984375 
Q 41.3125 65.921875 37.59375 65.921875 
Q 27.828125 65.921875 22.671875 59.328125 
Q 17.53125 52.734375 16.796875 39.40625 
Q 19.671875 43.65625 24.015625 45.921875 
Q 28.375 48.1875 33.59375 48.1875 
Q 44.578125 48.1875 50.953125 41.515625 
Q 57.328125 34.859375 57.328125 23.390625 
Q 57.328125 12.15625 50.6875 5.359375 
Q 44.046875 -1.421875 33.015625 -1.421875 
Q 20.359375 -1.421875 13.671875 8.265625 
Q 6.984375 17.96875 6.984375 36.375 
Q 6.984375 53.65625 15.1875 63.9375 
Q 23.390625 74.21875 37.203125 74.21875 
Q 40.921875 74.21875 44.703125 73.484375 
Q 48.484375 72.75 52.59375 71.296875 
z
" id="DejaVuSans-54"/>
       </defs>
       <use xlink:href="#DejaVuSans-54"/>
      </g>
     </g>
    </g>
    <g id="text_8">
     <!-- oldpeak -->
     <g style="fill:#262626;" transform="translate(417.938644 213.482187)scale(0.12 -0.12)">
      <defs>
       <path d="M 30.609375 48.390625 
Q 23.390625 48.390625 19.1875 42.75 
Q 14.984375 37.109375 14.984375 27.296875 
Q 14.984375 17.484375 19.15625 11.84375 
Q 23.34375 6.203125 30.609375 6.203125 
Q 37.796875 6.203125 41.984375 11.859375 
Q 46.1875 17.53125 46.1875 27.296875 
Q 46.1875 37.015625 41.984375 42.703125 
Q 37.796875 48.390625 30.609375 48.390625 
z
M 30.609375 56 
Q 42.328125 56 49.015625 48.375 
Q 55.71875 40.765625 55.71875 27.296875 
Q 55.71875 13.875 49.015625 6.21875 
Q 42.328125 -1.421875 30.609375 -1.421875 
Q 18.84375 -1.421875 12.171875 6.21875 
Q 5.515625 13.875 5.515625 27.296875 
Q 5.515625 40.765625 12.171875 48.375 
Q 18.84375 56 30.609375 56 
z
" id="DejaVuSans-111"/>
       <path d="M 9.421875 75.984375 
L 18.40625 75.984375 
L 18.40625 0 
L 9.421875 0 
z
" id="DejaVuSans-108"/>
       <path d="M 45.40625 46.390625 
L 45.40625 75.984375 
L 54.390625 75.984375 
L 54.390625 0 
L 45.40625 0 
L 45.40625 8.203125 
Q 42.578125 3.328125 38.25 0.953125 
Q 33.9375 -1.421875 27.875 -1.421875 
Q 17.96875 -1.421875 11.734375 6.484375 
Q 5.515625 14.40625 5.515625 27.296875 
Q 5.515625 40.1875 11.734375 48.09375 
Q 17.96875 56 27.875 56 
Q 33.9375 56 38.25 53.625 
Q 42.578125 51.265625 45.40625 46.390625 
z
M 14.796875 27.296875 
Q 14.796875 17.390625 18.875 11.75 
Q 22.953125 6.109375 30.078125 6.109375 
Q 37.203125 6.109375 41.296875 11.75 
Q 45.40625 17.390625 45.40625 27.296875 
Q 45.40625 37.203125 41.296875 42.84375 
Q 37.203125 48.484375 30.078125 48.484375 
Q 22.953125 48.484375 18.875 42.84375 
Q 14.796875 37.203125 14.796875 27.296875 
z
" id="DejaVuSans-100"/>
       <path d="M 18.109375 8.203125 
L 18.109375 -20.796875 
L 9.078125 -20.796875 
L 9.078125 54.6875 
L 18.109375 54.6875 
L 18.109375 46.390625 
Q 20.953125 51.265625 25.265625 53.625 
Q 29.59375 56 35.59375 56 
Q 45.5625 56 51.78125 48.09375 
Q 58.015625 40.1875 58.015625 27.296875 
Q 58.015625 14.40625 51.78125 6.484375 
Q 45.5625 -1.421875 35.59375 -1.421875 
Q 29.59375 -1.421875 25.265625 0.953125 
Q 20.953125 3.328125 18.109375 8.203125 
z
M 48.6875 27.296875 
Q 48.6875 37.203125 44.609375 42.84375 
Q 40.53125 48.484375 33.40625 48.484375 
Q 26.265625 48.484375 22.1875 42.84375 
Q 18.109375 37.203125 18.109375 27.296875 
Q 18.109375 17.390625 22.1875 11.75 
Q 26.265625 6.109375 33.40625 6.109375 
Q 40.53125 6.109375 44.609375 11.75 
Q 48.6875 17.390625 48.6875 27.296875 
z
" id="DejaVuSans-112"/>
       <path d="M 56.203125 29.59375 
L 56.203125 25.203125 
L 14.890625 25.203125 
Q 15.484375 15.921875 20.484375 11.0625 
Q 25.484375 6.203125 34.421875 6.203125 
Q 39.59375 6.203125 44.453125 7.46875 
Q 49.3125 8.734375 54.109375 11.28125 
L 54.109375 2.78125 
Q 49.265625 0.734375 44.1875 -0.34375 
Q 39.109375 -1.421875 33.890625 -1.421875 
Q 20.796875 -1.421875 13.15625 6.1875 
Q 5.515625 13.8125 5.515625 26.8125 
Q 5.515625 40.234375 12.765625 48.109375 
Q 20.015625 56 32.328125 56 
Q 43.359375 56 49.78125 48.890625 
Q 56.203125 41.796875 56.203125 29.59375 
z
M 47.21875 32.234375 
Q 47.125 39.59375 43.09375 43.984375 
Q 39.0625 48.390625 32.421875 48.390625 
Q 24.90625 48.390625 20.390625 44.140625 
Q 15.875 39.890625 15.1875 32.171875 
z
" id="DejaVuSans-101"/>
       <path d="M 34.28125 27.484375 
Q 23.390625 27.484375 19.1875 25 
Q 14.984375 22.515625 14.984375 16.5 
Q 14.984375 11.71875 18.140625 8.90625 
Q 21.296875 6.109375 26.703125 6.109375 
Q 34.1875 6.109375 38.703125 11.40625 
Q 43.21875 16.703125 43.21875 25.484375 
L 43.21875 27.484375 
z
M 52.203125 31.203125 
L 52.203125 0 
L 43.21875 0 
L 43.21875 8.296875 
Q 40.140625 3.328125 35.546875 0.953125 
Q 30.953125 -1.421875 24.3125 -1.421875 
Q 15.921875 -1.421875 10.953125 3.296875 
Q 6 8.015625 6 15.921875 
Q 6 25.140625 12.171875 29.828125 
Q 18.359375 34.515625 30.609375 34.515625 
L 43.21875 34.515625 
L 43.21875 35.40625 
Q 43.21875 41.609375 39.140625 45 
Q 35.0625 48.390625 27.6875 48.390625 
Q 23 48.390625 18.546875 47.265625 
Q 14.109375 46.140625 10.015625 43.890625 
L 10.015625 52.203125 
Q 14.9375 54.109375 19.578125 55.046875 
Q 24.21875 56 28.609375 56 
Q 40.484375 56 46.34375 49.84375 
Q 52.203125 43.703125 52.203125 31.203125 
z
" id="DejaVuSans-97"/>
       <path d="M 9.078125 75.984375 
L 18.109375 75.984375 
L 18.109375 31.109375 
L 44.921875 54.6875 
L 56.390625 54.6875 
L 27.390625 29.109375 
L 57.625 0 
L 45.90625 0 
L 18.109375 26.703125 
L 18.109375 0 
L 9.078125 0 
z
" id="DejaVuSans-107"/>
      </defs>
      <use xlink:href="#DejaVuSans-111"/>
      <use x="61.181641" xlink:href="#DejaVuSans-108"/>
      <use x="88.964844" xlink:href="#DejaVuSans-100"/>
      <use x="152.441406" xlink:href="#DejaVuSans-112"/>
      <use x="215.917969" xlink:href="#DejaVuSans-101"/>
      <use x="277.441406" xlink:href="#DejaVuSans-97"/>
      <use x="338.720703" xlink:href="#DejaVuSans-107"/>
     </g>
    </g>
   </g>
   <g id="matplotlib.axis_2">
    <g id="ytick_1">
     <g id="line2d_8">
      <path clip-path="url(#pf04f0838ee)" d="M 34.193438 180.218125 
L 849.2826 180.218125 
" style="fill:none;stroke:#ffffff;stroke-linecap:round;"/>
     </g>
     <g id="text_9">
      <!-- 0.0 -->
      <g style="fill:#262626;" transform="translate(7.2 184.397266)scale(0.11 -0.11)">
       <defs>
        <path d="M 10.6875 12.40625 
L 21 12.40625 
L 21 0 
L 10.6875 0 
z
" id="DejaVuSans-46"/>
       </defs>
       <use xlink:href="#DejaVuSans-48"/>
       <use x="63.623047" xlink:href="#DejaVuSans-46"/>
       <use x="95.410156" xlink:href="#DejaVuSans-48"/>
      </g>
     </g>
    </g>
    <g id="ytick_2">
     <g id="line2d_9">
      <path clip-path="url(#pf04f0838ee)" d="M 34.193438 142.413485 
L 849.2826 142.413485 
" style="fill:none;stroke:#ffffff;stroke-linecap:round;"/>
     </g>
     <g id="text_10">
      <!-- 0.2 -->
      <g style="fill:#262626;" transform="translate(7.2 146.592626)scale(0.11 -0.11)">
       <use xlink:href="#DejaVuSans-48"/>
       <use x="63.623047" xlink:href="#DejaVuSans-46"/>
       <use x="95.410156" xlink:href="#DejaVuSans-50"/>
      </g>
     </g>
    </g>
    <g id="ytick_3">
     <g id="line2d_10">
      <path clip-path="url(#pf04f0838ee)" d="M 34.193438 104.608845 
L 849.2826 104.608845 
" style="fill:none;stroke:#ffffff;stroke-linecap:round;"/>
     </g>
     <g id="text_11">
      <!-- 0.4 -->
      <g style="fill:#262626;" transform="translate(7.2 108.787986)scale(0.11 -0.11)">
       <use xlink:href="#DejaVuSans-48"/>
       <use x="63.623047" xlink:href="#DejaVuSans-46"/>
       <use x="95.410156" xlink:href="#DejaVuSans-52"/>
      </g>
     </g>
    </g>
    <g id="ytick_4">
     <g id="line2d_11">
      <path clip-path="url(#pf04f0838ee)" d="M 34.193438 66.804205 
L 849.2826 66.804205 
" style="fill:none;stroke:#ffffff;stroke-linecap:round;"/>
     </g>
     <g id="text_12">
      <!-- 0.6 -->
      <g style="fill:#262626;" transform="translate(7.2 70.983346)scale(0.11 -0.11)">
       <use xlink:href="#DejaVuSans-48"/>
       <use x="63.623047" xlink:href="#DejaVuSans-46"/>
       <use x="95.410156" xlink:href="#DejaVuSans-54"/>
      </g>
     </g>
    </g>
    <g id="ytick_5">
     <g id="line2d_12">
      <path clip-path="url(#pf04f0838ee)" d="M 34.193438 28.999565 
L 849.2826 28.999565 
" style="fill:none;stroke:#ffffff;stroke-linecap:round;"/>
     </g>
     <g id="text_13">
      <!-- 0.8 -->
      <g style="fill:#262626;" transform="translate(7.2 33.178706)scale(0.11 -0.11)">
       <defs>
        <path d="M 31.78125 34.625 
Q 24.75 34.625 20.71875 30.859375 
Q 16.703125 27.09375 16.703125 20.515625 
Q 16.703125 13.921875 20.71875 10.15625 
Q 24.75 6.390625 31.78125 6.390625 
Q 38.8125 6.390625 42.859375 10.171875 
Q 46.921875 13.96875 46.921875 20.515625 
Q 46.921875 27.09375 42.890625 30.859375 
Q 38.875 34.625 31.78125 34.625 
z
M 21.921875 38.8125 
Q 15.578125 40.375 12.03125 44.71875 
Q 8.5 49.078125 8.5 55.328125 
Q 8.5 64.0625 14.71875 69.140625 
Q 20.953125 74.21875 31.78125 74.21875 
Q 42.671875 74.21875 48.875 69.140625 
Q 55.078125 64.0625 55.078125 55.328125 
Q 55.078125 49.078125 51.53125 44.71875 
Q 48 40.375 41.703125 38.8125 
Q 48.828125 37.15625 52.796875 32.3125 
Q 56.78125 27.484375 56.78125 20.515625 
Q 56.78125 9.90625 50.3125 4.234375 
Q 43.84375 -1.421875 31.78125 -1.421875 
Q 19.734375 -1.421875 13.25 4.234375 
Q 6.78125 9.90625 6.78125 20.515625 
Q 6.78125 27.484375 10.78125 32.3125 
Q 14.796875 37.15625 21.921875 38.8125 
z
M 18.3125 54.390625 
Q 18.3125 48.734375 21.84375 45.5625 
Q 25.390625 42.390625 31.78125 42.390625 
Q 38.140625 42.390625 41.71875 45.5625 
Q 45.3125 48.734375 45.3125 54.390625 
Q 45.3125 60.0625 41.71875 63.234375 
Q 38.140625 66.40625 31.78125 66.40625 
Q 25.390625 66.40625 21.84375 63.234375 
Q 18.3125 60.0625 18.3125 54.390625 
z
" id="DejaVuSans-56"/>
       </defs>
       <use xlink:href="#DejaVuSans-48"/>
       <use x="63.623047" xlink:href="#DejaVuSans-46"/>
       <use x="95.410156" xlink:href="#DejaVuSans-56"/>
      </g>
     </g>
    </g>
   </g>
   <g id="PolyCollection_1">
    <path clip-path="url(#pf04f0838ee)" d="M -157.239069 179.872185 
L -157.239069 180.218125 
L -151.219199 180.218125 
L -145.199329 180.218125 
L -139.179459 180.218125 
L -133.159588 180.218125 
L -127.139718 180.218125 
L -121.119848 180.218125 
L -115.099978 180.218125 
L -109.080107 180.218125 
L -103.060237 180.218125 
L -97.040367 180.218125 
L -91.020497 180.218125 
L -85.000626 180.218125 
L -78.980756 180.218125 
L -72.960886 180.218125 
L -66.941016 180.218125 
L -60.921146 180.218125 
L -54.901275 180.218125 
L -48.881405 180.218125 
L -42.861535 180.218125 
L -36.841665 180.218125 
L -30.821794 180.218125 
L -24.801924 180.218125 
L -18.782054 180.218125 
L -12.762184 180.218125 
L -6.742313 180.218125 
L -0.722443 180.218125 
L 5.297427 180.218125 
L 11.317297 180.218125 
L 17.337167 180.218125 
L 23.357038 180.218125 
L 29.376908 180.218125 
L 35.396778 180.218125 
L 41.416648 180.218125 
L 47.436519 180.218125 
L 53.456389 180.218125 
L 59.476259 180.218125 
L 65.496129 180.218125 
L 71.516 180.218125 
L 77.53587 180.218125 
L 83.55574 180.218125 
L 89.57561 180.218125 
L 95.59548 180.218125 
L 101.615351 180.218125 
L 107.635221 180.218125 
L 113.655091 180.218125 
L 119.674961 180.218125 
L 125.694832 180.218125 
L 131.714702 180.218125 
L 137.734572 180.218125 
L 143.754442 180.218125 
L 149.774312 180.218125 
L 155.794183 180.218125 
L 161.814053 180.218125 
L 167.833923 180.218125 
L 173.853793 180.218125 
L 179.873664 180.218125 
L 185.893534 180.218125 
L 191.913404 180.218125 
L 197.933274 180.218125 
L 203.953145 180.218125 
L 209.973015 180.218125 
L 215.992885 180.218125 
L 222.012755 180.218125 
L 228.032625 180.218125 
L 234.052496 180.218125 
L 240.072366 180.218125 
L 246.092236 180.218125 
L 252.112106 180.218125 
L 258.131977 180.218125 
L 264.151847 180.218125 
L 270.171717 180.218125 
L 276.191587 180.218125 
L 282.211458 180.218125 
L 288.231328 180.218125 
L 294.251198 180.218125 
L 300.271068 180.218125 
L 306.290938 180.218125 
L 312.310809 180.218125 
L 318.330679 180.218125 
L 324.350549 180.218125 
L 330.370419 180.218125 
L 336.39029 180.218125 
L 342.41016 180.218125 
L 348.43003 180.218125 
L 354.4499 180.218125 
L 360.46977 180.218125 
L 366.489641 180.218125 
L 372.509511 180.218125 
L 378.529381 180.218125 
L 384.549251 180.218125 
L 390.569122 180.218125 
L 396.588992 180.218125 
L 402.608862 180.218125 
L 408.628732 180.218125 
L 414.648603 180.218125 
L 420.668473 180.218125 
L 426.688343 180.218125 
L 432.708213 180.218125 
L 438.728083 180.218125 
L 444.747954 180.218125 
L 450.767824 180.218125 
L 456.787694 180.218125 
L 462.807564 180.218125 
L 468.827435 180.218125 
L 474.847305 180.218125 
L 480.867175 180.218125 
L 486.887045 180.218125 
L 492.906916 180.218125 
L 498.926786 180.218125 
L 504.946656 180.218125 
L 510.966526 180.218125 
L 516.986396 180.218125 
L 523.006267 180.218125 
L 529.026137 180.218125 
L 535.046007 180.218125 
L 541.065877 180.218125 
L 547.085748 180.218125 
L 553.105618 180.218125 
L 559.125488 180.218125 
L 565.145358 180.218125 
L 571.165229 180.218125 
L 577.185099 180.218125 
L 583.204969 180.218125 
L 589.224839 180.218125 
L 595.244709 180.218125 
L 601.26458 180.218125 
L 607.28445 180.218125 
L 613.30432 180.218125 
L 619.32419 180.218125 
L 625.344061 180.218125 
L 631.363931 180.218125 
L 637.383801 180.218125 
L 643.403671 180.218125 
L 649.423541 180.218125 
L 655.443412 180.218125 
L 661.463282 180.218125 
L 667.483152 180.218125 
L 673.503022 180.218125 
L 679.522893 180.218125 
L 685.542763 180.218125 
L 691.562633 180.218125 
L 697.582503 180.218125 
L 703.602374 180.218125 
L 709.622244 180.218125 
L 715.642114 180.218125 
L 721.661984 180.218125 
L 727.681854 180.218125 
L 733.701725 180.218125 
L 739.721595 180.218125 
L 745.741465 180.218125 
L 751.761335 180.218125 
L 757.781206 180.218125 
L 763.801076 180.218125 
L 769.820946 180.218125 
L 775.840816 180.218125 
L 781.860687 180.218125 
L 787.880557 180.218125 
L 793.900427 180.218125 
L 799.920297 180.218125 
L 805.940167 180.218125 
L 811.960038 180.218125 
L 817.979908 180.218125 
L 823.999778 180.218125 
L 830.019648 180.218125 
L 836.039519 180.218125 
L 842.059389 180.218125 
L 848.079259 180.218125 
L 854.099129 180.218125 
L 860.119 180.218125 
L 866.13887 180.218125 
L 872.15874 180.218125 
L 878.17861 180.218125 
L 884.19848 180.218125 
L 890.218351 180.218125 
L 896.238221 180.218125 
L 902.258091 180.218125 
L 908.277961 180.218125 
L 914.297832 180.218125 
L 920.317702 180.218125 
L 926.337572 180.218125 
L 932.357442 180.218125 
L 938.377312 180.218125 
L 944.397183 180.218125 
L 950.417053 180.218125 
L 956.436923 180.218125 
L 962.456793 180.218125 
L 968.476664 180.218125 
L 974.496534 180.218125 
L 980.516404 180.218125 
L 986.536274 180.218125 
L 992.556145 180.218125 
L 998.576015 180.218125 
L 1004.595885 180.218125 
L 1010.615755 180.218125 
L 1016.635625 180.218125 
L 1022.655496 180.218125 
L 1028.675366 180.218125 
L 1034.695236 180.218125 
L 1040.715106 180.218125 
L 1040.715106 180.205476 
L 1040.715106 180.205476 
L 1034.695236 180.201389 
L 1028.675366 180.196174 
L 1022.655496 180.189584 
L 1016.635625 180.181337 
L 1010.615755 180.171115 
L 1004.595885 180.15857 
L 998.576015 180.143323 
L 992.556145 180.124974 
L 986.536274 180.103109 
L 980.516404 180.077311 
L 974.496534 180.047175 
L 968.476664 180.012322 
L 962.456793 179.972416 
L 956.436923 179.927186 
L 950.417053 179.87644 
L 944.397183 179.820085 
L 938.377312 179.758144 
L 932.357442 179.690765 
L 926.337572 179.618237 
L 920.317702 179.540989 
L 914.297832 179.459593 
L 908.277961 179.374758 
L 902.258091 179.287313 
L 896.238221 179.1982 
L 890.218351 179.108442 
L 884.19848 179.019128 
L 878.17861 178.931378 
L 872.15874 178.846319 
L 866.13887 178.765056 
L 860.119 178.688646 
L 854.099129 178.618072 
L 848.079259 178.554225 
L 842.059389 178.49788 
L 836.039519 178.44969 
L 830.019648 178.410163 
L 823.999778 178.379659 
L 817.979908 178.358381 
L 811.960038 178.346359 
L 805.940167 178.343449 
L 799.920297 178.349317 
L 793.900427 178.363432 
L 787.880557 178.385051 
L 781.860687 178.413211 
L 775.840816 178.446715 
L 769.820946 178.484125 
L 763.801076 178.523757 
L 757.781206 178.563679 
L 751.761335 178.601722 
L 745.741465 178.635489 
L 739.721595 178.662377 
L 733.701725 178.679613 
L 727.681854 178.684284 
L 721.661984 178.673391 
L 715.642114 178.643895 
L 709.622244 178.592782 
L 703.602374 178.517119 
L 697.582503 178.414123 
L 691.562633 178.281219 
L 685.542763 178.116101 
L 679.522893 177.916793 
L 673.503022 177.681689 
L 667.483152 177.409602 
L 661.463282 177.099789 
L 655.443412 176.751972 
L 649.423541 176.366342 
L 643.403671 175.943554 
L 637.383801 175.484707 
L 631.363931 174.991311 
L 625.344061 174.46524 
L 619.32419 173.908679 
L 613.30432 173.324056 
L 607.28445 172.713972 
L 601.26458 172.081122 
L 595.244709 171.428217 
L 589.224839 170.757905 
L 583.204969 170.072699 
L 577.185099 169.374907 
L 571.165229 168.666577 
L 565.145358 167.949452 
L 559.125488 167.224938 
L 553.105618 166.494092 
L 547.085748 165.757629 
L 541.065877 165.015942 
L 535.046007 164.269145 
L 529.026137 163.517132 
L 523.006267 162.759651 
L 516.986396 161.996386 
L 510.966526 161.227056 
L 504.946656 160.451505 
L 498.926786 159.669794 
L 492.906916 158.882286 
L 486.887045 158.089704 
L 480.867175 157.293181 
L 474.847305 156.494264 
L 468.827435 155.694904 
L 462.807564 154.897399 
L 456.787694 154.10431 
L 450.767824 153.318344 
L 444.747954 152.542217 
L 438.728083 151.778491 
L 432.708213 151.029416 
L 426.688343 150.296772 
L 420.668473 149.58173 
L 414.648603 148.884744 
L 408.628732 148.20548 
L 402.608862 147.542795 
L 396.588992 146.894775 
L 390.569122 146.258809 
L 384.549251 145.631731 
L 378.529381 145.009988 
L 372.509511 144.389848 
L 366.489641 143.767613 
L 360.46977 143.13984 
L 354.4499 142.50354 
L 348.43003 141.856351 
L 342.41016 141.196664 
L 336.39029 140.523703 
L 330.370419 139.837554 
L 324.350549 139.139135 
L 318.330679 138.430134 
L 312.310809 137.712906 
L 306.290938 136.990351 
L 300.271068 136.26579 
L 294.251198 135.542846 
L 288.231328 134.825352 
L 282.211458 134.117279 
L 276.191587 133.422706 
L 270.171717 132.745817 
L 264.151847 132.090923 
L 258.131977 131.4625 
L 252.112106 130.865221 
L 246.092236 130.303975 
L 240.072366 129.783846 
L 234.052496 129.310046 
L 228.032625 128.887792 
L 222.012755 128.522115 
L 215.992885 128.217617 
L 209.973015 127.978177 
L 203.953145 127.806629 
L 197.933274 127.704438 
L 191.913404 127.671402 
L 185.893534 127.705415 
L 179.873664 127.802317 
L 173.853793 127.955873 
L 167.833923 128.157884 
L 161.814053 128.398458 
L 155.794183 128.666441 
L 149.774312 128.949991 
L 143.754442 129.237272 
L 137.734572 129.517241 
L 131.714702 129.78047 
L 125.694832 130.01996 
L 119.674961 130.23187 
L 113.655091 130.416132 
L 107.635221 130.576864 
L 101.615351 130.72257 
L 95.59548 130.866068 
L 89.57561 131.024147 
L 83.55574 131.216959 
L 77.53587 131.467156 
L 71.516 131.798824 
L 65.496129 132.236277 
L 59.476259 132.802758 
L 53.456389 133.519162 
L 47.436519 134.402819 
L 41.416648 135.46645 
L 35.396778 136.717336 
L 29.376908 138.156767 
L 23.357038 139.779792 
L 17.337167 141.575302 
L 11.317297 143.526413 
L 5.297427 145.611141 
L -0.722443 147.803312 
L -6.742313 150.073654 
L -12.762184 152.39099 
L -18.782054 154.723484 
L -24.801924 157.039837 
L -30.821794 159.310405 
L -36.841665 161.508154 
L -42.861535 163.609433 
L -48.881405 165.594533 
L -54.901275 167.448021 
L -60.921146 169.15886 
L -66.941016 170.720325 
L -72.960886 172.129746 
L -78.980756 173.388118 
L -85.000626 174.499598 
L -91.020497 175.470957 
L -97.040367 176.310988 
L -103.060237 177.029938 
L -109.080107 177.638959 
L -115.099978 178.149626 
L -121.119848 178.573514 
L -127.139718 178.921856 
L -133.159588 179.205276 
L -139.179459 179.433603 
L -145.199329 179.615744 
L -151.219199 179.759626 
L -157.239069 179.872185 
z
" style="fill:#4c72b0;fill-opacity:0.25;stroke:#4c72b0;"/>
   </g>
   <g id="PolyCollection_2">
    <defs>
     <path d="M -76.701768 -44.335818 
L -76.701768 -42.959688 
L -72.812584 -42.959688 
L -68.9234 -42.959688 
L -65.034216 -42.959688 
L -61.145032 -42.959688 
L -57.255848 -42.959688 
L -53.366665 -42.959688 
L -49.477481 -42.959688 
L -45.588297 -42.959688 
L -41.699113 -42.959688 
L -37.809929 -42.959688 
L -33.920745 -42.959688 
L -30.031562 -42.959688 
L -26.142378 -42.959688 
L -22.253194 -42.959688 
L -18.36401 -42.959688 
L -14.474826 -42.959688 
L -10.585642 -42.959688 
L -6.696458 -42.959688 
L -2.807275 -42.959688 
L 1.081909 -42.959688 
L 4.971093 -42.959688 
L 8.860277 -42.959688 
L 12.749461 -42.959688 
L 16.638645 -42.959688 
L 20.527828 -42.959688 
L 24.417012 -42.959688 
L 28.306196 -42.959688 
L 32.19538 -42.959688 
L 36.084564 -42.959688 
L 39.973748 -42.959688 
L 43.862931 -42.959688 
L 47.752115 -42.959688 
L 51.641299 -42.959688 
L 55.530483 -42.959688 
L 59.419667 -42.959688 
L 63.308851 -42.959688 
L 67.198035 -42.959688 
L 71.087218 -42.959688 
L 74.976402 -42.959688 
L 78.865586 -42.959688 
L 82.75477 -42.959688 
L 86.643954 -42.959688 
L 90.533138 -42.959688 
L 94.422321 -42.959688 
L 98.311505 -42.959688 
L 102.200689 -42.959688 
L 106.089873 -42.959688 
L 109.979057 -42.959688 
L 113.868241 -42.959688 
L 117.757424 -42.959688 
L 121.646608 -42.959688 
L 125.535792 -42.959688 
L 129.424976 -42.959688 
L 133.31416 -42.959688 
L 137.203344 -42.959688 
L 141.092528 -42.959688 
L 144.981711 -42.959688 
L 148.870895 -42.959688 
L 152.760079 -42.959688 
L 156.649263 -42.959688 
L 160.538447 -42.959688 
L 164.427631 -42.959688 
L 168.316814 -42.959688 
L 172.205998 -42.959688 
L 176.095182 -42.959688 
L 179.984366 -42.959688 
L 183.87355 -42.959688 
L 187.762734 -42.959688 
L 191.651917 -42.959688 
L 195.541101 -42.959688 
L 199.430285 -42.959688 
L 203.319469 -42.959688 
L 207.208653 -42.959688 
L 211.097837 -42.959688 
L 214.987021 -42.959688 
L 218.876204 -42.959688 
L 222.765388 -42.959688 
L 226.654572 -42.959688 
L 230.543756 -42.959688 
L 234.43294 -42.959688 
L 238.322124 -42.959688 
L 242.211307 -42.959688 
L 246.100491 -42.959688 
L 249.989675 -42.959688 
L 253.878859 -42.959688 
L 257.768043 -42.959688 
L 261.657227 -42.959688 
L 265.546411 -42.959688 
L 269.435594 -42.959688 
L 273.324778 -42.959688 
L 277.213962 -42.959688 
L 281.103146 -42.959688 
L 284.99233 -42.959688 
L 288.881514 -42.959688 
L 292.770697 -42.959688 
L 296.659881 -42.959688 
L 300.549065 -42.959688 
L 304.438249 -42.959688 
L 308.327433 -42.959688 
L 312.216617 -42.959688 
L 316.1058 -42.959688 
L 319.994984 -42.959688 
L 323.884168 -42.959688 
L 327.773352 -42.959688 
L 331.662536 -42.959688 
L 335.55172 -42.959688 
L 339.440904 -42.959688 
L 343.330087 -42.959688 
L 347.219271 -42.959688 
L 351.108455 -42.959688 
L 354.997639 -42.959688 
L 358.886823 -42.959688 
L 362.776007 -42.959688 
L 366.66519 -42.959688 
L 370.554374 -42.959688 
L 374.443558 -42.959688 
L 378.332742 -42.959688 
L 382.221926 -42.959688 
L 386.11111 -42.959688 
L 390.000293 -42.959688 
L 393.889477 -42.959688 
L 397.778661 -42.959688 
L 401.667845 -42.959688 
L 405.557029 -42.959688 
L 409.446213 -42.959688 
L 413.335397 -42.959688 
L 417.22458 -42.959688 
L 421.113764 -42.959688 
L 425.002948 -42.959688 
L 428.892132 -42.959688 
L 432.781316 -42.959688 
L 436.6705 -42.959688 
L 440.559683 -42.959688 
L 444.448867 -42.959688 
L 448.338051 -42.959688 
L 452.227235 -42.959688 
L 456.116419 -42.959688 
L 460.005603 -42.959688 
L 463.894786 -42.959688 
L 467.78397 -42.959688 
L 471.673154 -42.959688 
L 475.562338 -42.959688 
L 479.451522 -42.959688 
L 483.340706 -42.959688 
L 487.22989 -42.959688 
L 491.119073 -42.959688 
L 495.008257 -42.959688 
L 498.897441 -42.959688 
L 502.786625 -42.959688 
L 506.675809 -42.959688 
L 510.564993 -42.959688 
L 514.454176 -42.959688 
L 518.34336 -42.959688 
L 522.232544 -42.959688 
L 526.121728 -42.959688 
L 530.010912 -42.959688 
L 533.900096 -42.959688 
L 537.789279 -42.959688 
L 541.678463 -42.959688 
L 545.567647 -42.959688 
L 549.456831 -42.959688 
L 553.346015 -42.959688 
L 557.235199 -42.959688 
L 561.124383 -42.959688 
L 565.013566 -42.959688 
L 568.90275 -42.959688 
L 572.791934 -42.959688 
L 576.681118 -42.959688 
L 580.570302 -42.959688 
L 584.459486 -42.959688 
L 588.348669 -42.959688 
L 592.237853 -42.959688 
L 596.127037 -42.959688 
L 600.016221 -42.959688 
L 603.905405 -42.959688 
L 607.794589 -42.959688 
L 611.683772 -42.959688 
L 615.572956 -42.959688 
L 619.46214 -42.959688 
L 623.351324 -42.959688 
L 627.240508 -42.959688 
L 631.129692 -42.959688 
L 635.018876 -42.959688 
L 638.908059 -42.959688 
L 642.797243 -42.959688 
L 646.686427 -42.959688 
L 650.575611 -42.959688 
L 654.464795 -42.959688 
L 658.353979 -42.959688 
L 662.243162 -42.959688 
L 666.132346 -42.959688 
L 670.02153 -42.959688 
L 673.910714 -42.959688 
L 677.799898 -42.959688 
L 681.689082 -42.959688 
L 685.578265 -42.959688 
L 689.467449 -42.959688 
L 693.356633 -42.959688 
L 697.245817 -42.959688 
L 697.245817 -42.977745 
L 697.245817 -42.977745 
L 693.356633 -42.98431 
L 689.467449 -42.992892 
L 685.578265 -43.003974 
L 681.689082 -43.018103 
L 677.799898 -43.035892 
L 673.910714 -43.058006 
L 670.02153 -43.08514 
L 666.132346 -43.118004 
L 662.243162 -43.157279 
L 658.353979 -43.203588 
L 654.464795 -43.257442 
L 650.575611 -43.319198 
L 646.686427 -43.389002 
L 642.797243 -43.466742 
L 638.908059 -43.552007 
L 635.018876 -43.644056 
L 631.129692 -43.741795 
L 627.240508 -43.843788 
L 623.351324 -43.948275 
L 619.46214 -44.053222 
L 615.572956 -44.15639 
L 611.683772 -44.255431 
L 607.794589 -44.347997 
L 603.905405 -44.431861 
L 600.016221 -44.505043 
L 596.127037 -44.565932 
L 592.237853 -44.613392 
L 588.348669 -44.646849 
L 584.459486 -44.666347 
L 580.570302 -44.67257 
L 576.681118 -44.666819 
L 572.791934 -44.65096 
L 568.90275 -44.627327 
L 565.013566 -44.598598 
L 561.124383 -44.567647 
L 557.235199 -44.537379 
L 553.346015 -44.510568 
L 549.456831 -44.489697 
L 545.567647 -44.476821 
L 541.678463 -44.473461 
L 537.789279 -44.480529 
L 533.900096 -44.498297 
L 530.010912 -44.526412 
L 526.121728 -44.563948 
L 522.232544 -44.609499 
L 518.34336 -44.661297 
L 514.454176 -44.717357 
L 510.564993 -44.775626 
L 506.675809 -44.834134 
L 502.786625 -44.891129 
L 498.897441 -44.945189 
L 495.008257 -44.995301 
L 491.119073 -45.040914 
L 487.22989 -45.081941 
L 483.340706 -45.118733 
L 479.451522 -45.152027 
L 475.562338 -45.182862 
L 471.673154 -45.212489 
L 467.78397 -45.242278 
L 463.894786 -45.273634 
L 460.005603 -45.30792 
L 456.116419 -45.346419 
L 452.227235 -45.390307 
L 448.338051 -45.440656 
L 444.448867 -45.498464 
L 440.559683 -45.56469 
L 436.6705 -45.640304 
L 432.781316 -45.726336 
L 428.892132 -45.823902 
L 425.002948 -45.93423 
L 421.113764 -46.058644 
L 417.22458 -46.198538 
L 413.335397 -46.355317 
L 409.446213 -46.530323 
L 405.557029 -46.724747 
L 401.667845 -46.939549 
L 397.778661 -47.175376 
L 393.889477 -47.432511 
L 390.000293 -47.710851 
L 386.11111 -48.009917 
L 382.221926 -48.328919 
L 378.332742 -48.666848 
L 374.443558 -49.022617 
L 370.554374 -49.395226 
L 366.66519 -49.783947 
L 362.776007 -50.18851 
L 358.886823 -50.609278 
L 354.997639 -51.0474 
L 351.108455 -51.504907 
L 347.219271 -51.984772 
L 343.330087 -52.4909 
L 339.440904 -53.028051 
L 335.55172 -53.601704 
L 331.662536 -54.217864 
L 327.773352 -54.882819 
L 323.884168 -55.602865 
L 319.994984 -56.384 
L 316.1058 -57.231627 
L 312.216617 -58.150254 
L 308.327433 -59.143212 
L 304.438249 -60.212411 
L 300.549065 -61.358124 
L 296.659881 -62.578821 
L 292.770697 -63.871044 
L 288.881514 -65.229338 
L 284.99233 -66.64623 
L 281.103146 -68.112273 
L 277.213962 -69.616146 
L 273.324778 -71.144821 
L 269.435594 -72.683803 
L 265.546411 -74.217435 
L 261.657227 -75.729274 
L 257.768043 -77.202529 
L 253.878859 -78.620548 
L 249.989675 -79.967342 
L 246.100491 -81.228121 
L 242.211307 -82.389825 
L 238.322124 -83.441615 
L 234.43294 -84.375314 
L 230.543756 -85.185757 
L 226.654572 -85.871049 
L 222.765388 -86.432705 
L 218.876204 -86.875675 
L 214.987021 -87.20825 
L 211.097837 -87.441849 
L 207.208653 -87.590713 
L 203.319469 -87.671504 
L 199.430285 -87.702833 
L 195.541101 -87.704745 
L 191.651917 -87.698167 
L 187.762734 -87.704353 
L 183.87355 -87.744333 
L 179.984366 -87.838415 
L 176.095182 -88.005735 
L 172.205998 -88.263901 
L 168.316814 -88.628751 
L 164.427631 -89.114237 
L 160.538447 -89.73248 
L 156.649263 -90.493975 
L 152.760079 -91.407984 
L 148.870895 -92.483076 
L 144.981711 -93.727802 
L 141.092528 -95.15146 
L 137.203344 -96.764867 
L 133.31416 -98.581071 
L 129.424976 -100.615887 
L 125.535792 -102.888162 
L 121.646608 -105.41964 
L 117.757424 -108.234352 
L 113.868241 -111.357429 
L 109.979057 -114.81333 
L 106.089873 -118.623476 
L 102.200689 -122.803364 
L 98.311505 -127.359309 
L 94.422321 -132.285002 
L 90.533138 -137.558147 
L 86.643954 -143.13748 
L 82.75477 -148.960483 
L 78.865586 -154.94212 
L 74.976402 -160.974855 
L 71.087218 -166.930165 
L 67.198035 -172.661656 
L 63.308851 -178.009748 
L 59.419667 -182.807792 
L 55.530483 -186.88931 
L 51.641299 -190.095958 
L 47.752115 -192.285702 
L 43.862931 -193.34064 
L 39.973748 -193.173908 
L 36.084564 -191.735145 
L 32.19538 -189.014088 
L 28.306196 -185.041993 
L 24.417012 -179.890767 
L 20.527828 -173.669844 
L 16.638645 -166.521026 
L 12.749461 -158.611671 
L 8.860277 -150.12671 
L 4.971093 -141.260046 
L 1.081909 -132.205935 
L -2.807275 -123.150883 
L -6.696458 -114.266533 
L -10.585642 -105.703931 
L -14.474826 -97.589375 
L -18.36401 -90.021968 
L -22.253194 -83.07283 
L -26.142378 -76.785815 
L -30.031562 -71.179511 
L -33.920745 -66.250197 
L -37.809929 -61.975473 
L -41.699113 -58.318206 
L -45.588297 -55.230535 
L -49.477481 -52.657671 
L -53.366665 -50.541311 
L -57.255848 -48.822556 
L -61.145032 -47.444238 
L -65.034216 -46.352681 
L -68.9234 -45.498891 
L -72.812584 -44.839254 
L -76.701768 -44.335818 
z
" id="m8e29e08a3c" style="stroke:#dd8452;"/>
    </defs>
    <g clip-path="url(#pf04f0838ee)">
     <use style="fill:#dd8452;fill-opacity:0.25;stroke:#dd8452;" x="0" xlink:href="#m8e29e08a3c" y="223.177812"/>
    </g>
   </g>
   <g id="patch_3">
    <path d="M 34.193438 180.218125 
L 34.193438 22.318125 
" style="fill:none;stroke:#ffffff;stroke-linecap:square;stroke-linejoin:miter;stroke-width:1.25;"/>
   </g>
   <g id="patch_4">
    <path d="M 34.193438 180.218125 
L 849.2826 180.218125 
" style="fill:none;stroke:#ffffff;stroke-linecap:square;stroke-linejoin:miter;stroke-width:1.25;"/>
   </g>
   <g id="text_14">
    <!-- Output: oldpeak -->
    <g style="fill:#262626;" transform="translate(393.168956 16.318125)scale(0.12 -0.12)">
     <defs>
      <path d="M 39.40625 66.21875 
Q 28.65625 66.21875 22.328125 58.203125 
Q 16.015625 50.203125 16.015625 36.375 
Q 16.015625 22.609375 22.328125 14.59375 
Q 28.65625 6.59375 39.40625 6.59375 
Q 50.140625 6.59375 56.421875 14.59375 
Q 62.703125 22.609375 62.703125 36.375 
Q 62.703125 50.203125 56.421875 58.203125 
Q 50.140625 66.21875 39.40625 66.21875 
z
M 39.40625 74.21875 
Q 54.734375 74.21875 63.90625 63.9375 
Q 73.09375 53.65625 73.09375 36.375 
Q 73.09375 19.140625 63.90625 8.859375 
Q 54.734375 -1.421875 39.40625 -1.421875 
Q 24.03125 -1.421875 14.8125 8.828125 
Q 5.609375 19.09375 5.609375 36.375 
Q 5.609375 53.65625 14.8125 63.9375 
Q 24.03125 74.21875 39.40625 74.21875 
z
" id="DejaVuSans-79"/>
      <path d="M 8.5 21.578125 
L 8.5 54.6875 
L 17.484375 54.6875 
L 17.484375 21.921875 
Q 17.484375 14.15625 20.5 10.265625 
Q 23.53125 6.390625 29.59375 6.390625 
Q 36.859375 6.390625 41.078125 11.03125 
Q 45.3125 15.671875 45.3125 23.6875 
L 45.3125 54.6875 
L 54.296875 54.6875 
L 54.296875 0 
L 45.3125 0 
L 45.3125 8.40625 
Q 42.046875 3.421875 37.71875 1 
Q 33.40625 -1.421875 27.6875 -1.421875 
Q 18.265625 -1.421875 13.375 4.4375 
Q 8.5 10.296875 8.5 21.578125 
z
M 31.109375 56 
z
" id="DejaVuSans-117"/>
      <path d="M 18.3125 70.21875 
L 18.3125 54.6875 
L 36.8125 54.6875 
L 36.8125 47.703125 
L 18.3125 47.703125 
L 18.3125 18.015625 
Q 18.3125 11.328125 20.140625 9.421875 
Q 21.96875 7.515625 27.59375 7.515625 
L 36.8125 7.515625 
L 36.8125 0 
L 27.59375 0 
Q 17.1875 0 13.234375 3.875 
Q 9.28125 7.765625 9.28125 18.015625 
L 9.28125 47.703125 
L 2.6875 47.703125 
L 2.6875 54.6875 
L 9.28125 54.6875 
L 9.28125 70.21875 
z
" id="DejaVuSans-116"/>
      <path d="M 11.71875 12.40625 
L 22.015625 12.40625 
L 22.015625 0 
L 11.71875 0 
z
M 11.71875 51.703125 
L 22.015625 51.703125 
L 22.015625 39.3125 
L 11.71875 39.3125 
z
" id="DejaVuSans-58"/>
      <path id="DejaVuSans-32"/>
     </defs>
     <use xlink:href="#DejaVuSans-79"/>
     <use x="78.710938" xlink:href="#DejaVuSans-117"/>
     <use x="142.089844" xlink:href="#DejaVuSans-116"/>
     <use x="181.298828" xlink:href="#DejaVuSans-112"/>
     <use x="244.775391" xlink:href="#DejaVuSans-117"/>
     <use x="308.154297" xlink:href="#DejaVuSans-116"/>
     <use x="347.363281" xlink:href="#DejaVuSans-58"/>
     <use x="381.054688" xlink:href="#DejaVuSans-32"/>
     <use x="412.841797" xlink:href="#DejaVuSans-111"/>
     <use x="474.023438" xlink:href="#DejaVuSans-108"/>
     <use x="501.806641" xlink:href="#DejaVuSans-100"/>
     <use x="565.283203" xlink:href="#DejaVuSans-112"/>
     <use x="628.759766" xlink:href="#DejaVuSans-101"/>
     <use x="690.283203" xlink:href="#DejaVuSans-97"/>
     <use x="751.5625" xlink:href="#DejaVuSans-107"/>
    </g>
   </g>
  </g>
  <g id="legend_1">
   <g id="text_15">
    <!-- output -->
    <g style="fill:#262626;" transform="translate(859.052475 98.754219)scale(0.12 -0.12)">
     <use xlink:href="#DejaVuSans-111"/>
     <use x="61.181641" xlink:href="#DejaVuSans-117"/>
     <use x="124.560547" xlink:href="#DejaVuSans-116"/>
     <use x="163.769531" xlink:href="#DejaVuSans-112"/>
     <use x="227.246094" xlink:href="#DejaVuSans-117"/>
     <use x="290.625" xlink:href="#DejaVuSans-116"/>
    </g>
   </g>
   <g id="patch_5">
    <path d="M 859.942787 115.108125 
L 881.942787 115.108125 
L 881.942787 107.408125 
L 859.942787 107.408125 
z
" style="fill:#4c72b0;fill-opacity:0.25;stroke:#4c72b0;stroke-linejoin:miter;"/>
   </g>
   <g id="text_16">
    <!-- 0 -->
    <g style="fill:#262626;" transform="translate(890.742787 115.108125)scale(0.11 -0.11)">
     <use xlink:href="#DejaVuSans-48"/>
    </g>
   </g>
   <g id="patch_6">
    <path d="M 859.942787 131.254063 
L 881.942787 131.254063 
L 881.942787 123.554063 
L 859.942787 123.554063 
z
" style="fill:#dd8452;fill-opacity:0.25;stroke:#dd8452;stroke-linejoin:miter;"/>
   </g>
   <g id="text_17">
    <!-- 1 -->
    <g style="fill:#262626;" transform="translate(890.742787 131.254063)scale(0.11 -0.11)">
     <use xlink:href="#DejaVuSans-49"/>
    </g>
   </g>
  </g>
 </g>
 <defs>
  <clipPath id="pf04f0838ee">
   <rect height="157.9" width="815.089162" x="34.193438" y="22.318125"/>
  </clipPath>
 </defs>
</svg>
