<?xml version="1.0" encoding="utf-8" standalone="no"?>
<!DOCTYPE svg PUBLIC "-//W3C//DTD SVG 1.1//EN"
  "http://www.w3.org/Graphics/SVG/1.1/DTD/svg11.dtd">
<!-- Created with matplotlib (https://matplotlib.org/) -->
<svg height="223.177812pt" version="1.1" viewBox="0 0 908.53185 223.177812" width="908.53185pt" xmlns="http://www.w3.org/2000/svg" xmlns:xlink="http://www.w3.org/1999/xlink">
 <metadata>
  <rdf:RDF xmlns:cc="http://creativecommons.org/ns#" xmlns:dc="http://purl.org/dc/elements/1.1/" xmlns:rdf="http://www.w3.org/1999/02/22-rdf-syntax-ns#">
   <cc:Work>
    <dc:type rdf:resource="http://purl.org/dc/dcmitype/StillImage"/>
    <dc:date>2021-07-04T23:48:56.127568</dc:date>
    <dc:format>image/svg+xml</dc:format>
    <dc:creator>
     <cc:Agent>
      <dc:title>Matplotlib v3.3.4, https://matplotlib.org/</dc:title>
     </cc:Agent>
    </dc:creator>
   </cc:Work>
  </rdf:RDF>
 </metadata>
 <defs>
  <style type="text/css">*{stroke-linecap:butt;stroke-linejoin:round;}</style>
 </defs>
 <g id="figure_1">
  <g id="patch_1">
   <path d="M 0 223.177812 
L 908.53185 223.177812 
L 908.53185 0 
L 0 0 
z
" style="fill:none;"/>
  </g>
  <g id="axes_1">
   <g id="patch_2">
    <path d="M 34.193438 180.218125 
L 849.2826 180.218125 
L 849.2826 22.318125 
L 34.193438 22.318125 
z
" style="fill:#eaeaf2;"/>
   </g>
   <g id="matplotlib.axis_1">
    <g id="xtick_1">
     <g id="line2d_1">
      <path clip-path="url(#pf74c3c36cb)" d="M 34.193438 180.218125 
L 34.193438 22.318125 
" style="fill:none;stroke:#ffffff;stroke-linecap:round;"/>
     </g>
     <g id="text_1">
      <!-- 0.00 -->
      <g style="fill:#262626;" transform="translate(21.947344 198.076406)scale(0.11 -0.11)">
       <defs>
        <path d="M 31.78125 66.40625 
Q 24.171875 66.40625 20.328125 58.90625 
Q 16.5 51.421875 16.5 36.375 
Q 16.5 21.390625 20.328125 13.890625 
Q 24.171875 6.390625 31.78125 6.390625 
Q 39.453125 6.390625 43.28125 13.890625 
Q 47.125 21.390625 47.125 36.375 
Q 47.125 51.421875 43.28125 58.90625 
Q 39.453125 66.40625 31.78125 66.40625 
z
M 31.78125 74.21875 
Q 44.046875 74.21875 50.515625 64.515625 
Q 56.984375 54.828125 56.984375 36.375 
Q 56.984375 17.96875 50.515625 8.265625 
Q 44.046875 -1.421875 31.78125 -1.421875 
Q 19.53125 -1.421875 13.0625 8.265625 
Q 6.59375 17.96875 6.59375 36.375 
Q 6.59375 54.828125 13.0625 64.515625 
Q 19.53125 74.21875 31.78125 74.21875 
z
" id="DejaVuSans-48"/>
        <path d="M 10.6875 12.40625 
L 21 12.40625 
L 21 0 
L 10.6875 0 
z
" id="DejaVuSans-46"/>
       </defs>
       <use xlink:href="#DejaVuSans-48"/>
       <use x="63.623047" xlink:href="#DejaVuSans-46"/>
       <use x="95.410156" xlink:href="#DejaVuSans-48"/>
       <use x="159.033203" xlink:href="#DejaVuSans-48"/>
      </g>
     </g>
    </g>
    <g id="xtick_2">
     <g id="line2d_2">
      <path clip-path="url(#pf74c3c36cb)" d="M 136.079583 180.218125 
L 136.079583 22.318125 
" style="fill:none;stroke:#ffffff;stroke-linecap:round;"/>
     </g>
     <g id="text_2">
      <!-- 0.25 -->
      <g style="fill:#262626;" transform="translate(123.833489 198.076406)scale(0.11 -0.11)">
       <defs>
        <path d="M 19.1875 8.296875 
L 53.609375 8.296875 
L 53.609375 0 
L 7.328125 0 
L 7.328125 8.296875 
Q 12.9375 14.109375 22.625 23.890625 
Q 32.328125 33.6875 34.8125 36.53125 
Q 39.546875 41.84375 41.421875 45.53125 
Q 43.3125 49.21875 43.3125 52.78125 
Q 43.3125 58.59375 39.234375 62.25 
Q 35.15625 65.921875 28.609375 65.921875 
Q 23.96875 65.921875 18.8125 64.3125 
Q 13.671875 62.703125 7.8125 59.421875 
L 7.8125 69.390625 
Q 13.765625 71.78125 18.9375 73 
Q 24.125 74.21875 28.421875 74.21875 
Q 39.75 74.21875 46.484375 68.546875 
Q 53.21875 62.890625 53.21875 53.421875 
Q 53.21875 48.921875 51.53125 44.890625 
Q 49.859375 40.875 45.40625 35.40625 
Q 44.1875 33.984375 37.640625 27.21875 
Q 31.109375 20.453125 19.1875 8.296875 
z
" id="DejaVuSans-50"/>
        <path d="M 10.796875 72.90625 
L 49.515625 72.90625 
L 49.515625 64.59375 
L 19.828125 64.59375 
L 19.828125 46.734375 
Q 21.96875 47.46875 24.109375 47.828125 
Q 26.265625 48.1875 28.421875 48.1875 
Q 40.625 48.1875 47.75 41.5 
Q 54.890625 34.8125 54.890625 23.390625 
Q 54.890625 11.625 47.5625 5.09375 
Q 40.234375 -1.421875 26.90625 -1.421875 
Q 22.3125 -1.421875 17.546875 -0.640625 
Q 12.796875 0.140625 7.71875 1.703125 
L 7.71875 11.625 
Q 12.109375 9.234375 16.796875 8.0625 
Q 21.484375 6.890625 26.703125 6.890625 
Q 35.15625 6.890625 40.078125 11.328125 
Q 45.015625 15.765625 45.015625 23.390625 
Q 45.015625 31 40.078125 35.4375 
Q 35.15625 39.890625 26.703125 39.890625 
Q 22.75 39.890625 18.8125 39.015625 
Q 14.890625 38.140625 10.796875 36.28125 
z
" id="DejaVuSans-53"/>
       </defs>
       <use xlink:href="#DejaVuSans-48"/>
       <use x="63.623047" xlink:href="#DejaVuSans-46"/>
       <use x="95.410156" xlink:href="#DejaVuSans-50"/>
       <use x="159.033203" xlink:href="#DejaVuSans-53"/>
      </g>
     </g>
    </g>
    <g id="xtick_3">
     <g id="line2d_3">
      <path clip-path="url(#pf74c3c36cb)" d="M 237.965728 180.218125 
L 237.965728 22.318125 
" style="fill:none;stroke:#ffffff;stroke-linecap:round;"/>
     </g>
     <g id="text_3">
      <!-- 0.50 -->
      <g style="fill:#262626;" transform="translate(225.719634 198.076406)scale(0.11 -0.11)">
       <use xlink:href="#DejaVuSans-48"/>
       <use x="63.623047" xlink:href="#DejaVuSans-46"/>
       <use x="95.410156" xlink:href="#DejaVuSans-53"/>
       <use x="159.033203" xlink:href="#DejaVuSans-48"/>
      </g>
     </g>
    </g>
    <g id="xtick_4">
     <g id="line2d_4">
      <path clip-path="url(#pf74c3c36cb)" d="M 339.851873 180.218125 
L 339.851873 22.318125 
" style="fill:none;stroke:#ffffff;stroke-linecap:round;"/>
     </g>
     <g id="text_4">
      <!-- 0.75 -->
      <g style="fill:#262626;" transform="translate(327.60578 198.076406)scale(0.11 -0.11)">
       <defs>
        <path d="M 8.203125 72.90625 
L 55.078125 72.90625 
L 55.078125 68.703125 
L 28.609375 0 
L 18.3125 0 
L 43.21875 64.59375 
L 8.203125 64.59375 
z
" id="DejaVuSans-55"/>
       </defs>
       <use xlink:href="#DejaVuSans-48"/>
       <use x="63.623047" xlink:href="#DejaVuSans-46"/>
       <use x="95.410156" xlink:href="#DejaVuSans-55"/>
       <use x="159.033203" xlink:href="#DejaVuSans-53"/>
      </g>
     </g>
    </g>
    <g id="xtick_5">
     <g id="line2d_5">
      <path clip-path="url(#pf74c3c36cb)" d="M 441.738019 180.218125 
L 441.738019 22.318125 
" style="fill:none;stroke:#ffffff;stroke-linecap:round;"/>
     </g>
     <g id="text_5">
      <!-- 1.00 -->
      <g style="fill:#262626;" transform="translate(429.491925 198.076406)scale(0.11 -0.11)">
       <defs>
        <path d="M 12.40625 8.296875 
L 28.515625 8.296875 
L 28.515625 63.921875 
L 10.984375 60.40625 
L 10.984375 69.390625 
L 28.421875 72.90625 
L 38.28125 72.90625 
L 38.28125 8.296875 
L 54.390625 8.296875 
L 54.390625 0 
L 12.40625 0 
z
" id="DejaVuSans-49"/>
       </defs>
       <use xlink:href="#DejaVuSans-49"/>
       <use x="63.623047" xlink:href="#DejaVuSans-46"/>
       <use x="95.410156" xlink:href="#DejaVuSans-48"/>
       <use x="159.033203" xlink:href="#DejaVuSans-48"/>
      </g>
     </g>
    </g>
    <g id="xtick_6">
     <g id="line2d_6">
      <path clip-path="url(#pf74c3c36cb)" d="M 543.624164 180.218125 
L 543.624164 22.318125 
" style="fill:none;stroke:#ffffff;stroke-linecap:round;"/>
     </g>
     <g id="text_6">
      <!-- 1.25 -->
      <g style="fill:#262626;" transform="translate(531.37807 198.076406)scale(0.11 -0.11)">
       <use xlink:href="#DejaVuSans-49"/>
       <use x="63.623047" xlink:href="#DejaVuSans-46"/>
       <use x="95.410156" xlink:href="#DejaVuSans-50"/>
       <use x="159.033203" xlink:href="#DejaVuSans-53"/>
      </g>
     </g>
    </g>
    <g id="xtick_7">
     <g id="line2d_7">
      <path clip-path="url(#pf74c3c36cb)" d="M 645.510309 180.218125 
L 645.510309 22.318125 
" style="fill:none;stroke:#ffffff;stroke-linecap:round;"/>
     </g>
     <g id="text_7">
      <!-- 1.50 -->
      <g style="fill:#262626;" transform="translate(633.264215 198.076406)scale(0.11 -0.11)">
       <use xlink:href="#DejaVuSans-49"/>
       <use x="63.623047" xlink:href="#DejaVuSans-46"/>
       <use x="95.410156" xlink:href="#DejaVuSans-53"/>
       <use x="159.033203" xlink:href="#DejaVuSans-48"/>
      </g>
     </g>
    </g>
    <g id="xtick_8">
     <g id="line2d_8">
      <path clip-path="url(#pf74c3c36cb)" d="M 747.396454 180.218125 
L 747.396454 22.318125 
" style="fill:none;stroke:#ffffff;stroke-linecap:round;"/>
     </g>
     <g id="text_8">
      <!-- 1.75 -->
      <g style="fill:#262626;" transform="translate(735.150361 198.076406)scale(0.11 -0.11)">
       <use xlink:href="#DejaVuSans-49"/>
       <use x="63.623047" xlink:href="#DejaVuSans-46"/>
       <use x="95.410156" xlink:href="#DejaVuSans-55"/>
       <use x="159.033203" xlink:href="#DejaVuSans-53"/>
      </g>
     </g>
    </g>
    <g id="xtick_9">
     <g id="line2d_9">
      <path clip-path="url(#pf74c3c36cb)" d="M 849.2826 180.218125 
L 849.2826 22.318125 
" style="fill:none;stroke:#ffffff;stroke-linecap:round;"/>
     </g>
     <g id="text_9">
      <!-- 2.00 -->
      <g style="fill:#262626;" transform="translate(837.036506 198.076406)scale(0.11 -0.11)">
       <use xlink:href="#DejaVuSans-50"/>
       <use x="63.623047" xlink:href="#DejaVuSans-46"/>
       <use x="95.410156" xlink:href="#DejaVuSans-48"/>
       <use x="159.033203" xlink:href="#DejaVuSans-48"/>
      </g>
     </g>
    </g>
    <g id="text_10">
     <!-- restecg -->
     <g style="fill:#262626;" transform="translate(419.436769 213.482187)scale(0.12 -0.12)">
      <defs>
       <path d="M 41.109375 46.296875 
Q 39.59375 47.171875 37.8125 47.578125 
Q 36.03125 48 33.890625 48 
Q 26.265625 48 22.1875 43.046875 
Q 18.109375 38.09375 18.109375 28.8125 
L 18.109375 0 
L 9.078125 0 
L 9.078125 54.6875 
L 18.109375 54.6875 
L 18.109375 46.1875 
Q 20.953125 51.171875 25.484375 53.578125 
Q 30.03125 56 36.53125 56 
Q 37.453125 56 38.578125 55.875 
Q 39.703125 55.765625 41.0625 55.515625 
z
" id="DejaVuSans-114"/>
       <path d="M 56.203125 29.59375 
L 56.203125 25.203125 
L 14.890625 25.203125 
Q 15.484375 15.921875 20.484375 11.0625 
Q 25.484375 6.203125 34.421875 6.203125 
Q 39.59375 6.203125 44.453125 7.46875 
Q 49.3125 8.734375 54.109375 11.28125 
L 54.109375 2.78125 
Q 49.265625 0.734375 44.1875 -0.34375 
Q 39.109375 -1.421875 33.890625 -1.421875 
Q 20.796875 -1.421875 13.15625 6.1875 
Q 5.515625 13.8125 5.515625 26.8125 
Q 5.515625 40.234375 12.765625 48.109375 
Q 20.015625 56 32.328125 56 
Q 43.359375 56 49.78125 48.890625 
Q 56.203125 41.796875 56.203125 29.59375 
z
M 47.21875 32.234375 
Q 47.125 39.59375 43.09375 43.984375 
Q 39.0625 48.390625 32.421875 48.390625 
Q 24.90625 48.390625 20.390625 44.140625 
Q 15.875 39.890625 15.1875 32.171875 
z
" id="DejaVuSans-101"/>
       <path d="M 44.28125 53.078125 
L 44.28125 44.578125 
Q 40.484375 46.53125 36.375 47.5 
Q 32.28125 48.484375 27.875 48.484375 
Q 21.1875 48.484375 17.84375 46.4375 
Q 14.5 44.390625 14.5 40.28125 
Q 14.5 37.15625 16.890625 35.375 
Q 19.28125 33.59375 26.515625 31.984375 
L 29.59375 31.296875 
Q 39.15625 29.25 43.1875 25.515625 
Q 47.21875 21.78125 47.21875 15.09375 
Q 47.21875 7.46875 41.1875 3.015625 
Q 35.15625 -1.421875 24.609375 -1.421875 
Q 20.21875 -1.421875 15.453125 -0.5625 
Q 10.6875 0.296875 5.421875 2 
L 5.421875 11.28125 
Q 10.40625 8.6875 15.234375 7.390625 
Q 20.0625 6.109375 24.8125 6.109375 
Q 31.15625 6.109375 34.5625 8.28125 
Q 37.984375 10.453125 37.984375 14.40625 
Q 37.984375 18.0625 35.515625 20.015625 
Q 33.0625 21.96875 24.703125 23.78125 
L 21.578125 24.515625 
Q 13.234375 26.265625 9.515625 29.90625 
Q 5.8125 33.546875 5.8125 39.890625 
Q 5.8125 47.609375 11.28125 51.796875 
Q 16.75 56 26.8125 56 
Q 31.78125 56 36.171875 55.265625 
Q 40.578125 54.546875 44.28125 53.078125 
z
" id="DejaVuSans-115"/>
       <path d="M 18.3125 70.21875 
L 18.3125 54.6875 
L 36.8125 54.6875 
L 36.8125 47.703125 
L 18.3125 47.703125 
L 18.3125 18.015625 
Q 18.3125 11.328125 20.140625 9.421875 
Q 21.96875 7.515625 27.59375 7.515625 
L 36.8125 7.515625 
L 36.8125 0 
L 27.59375 0 
Q 17.1875 0 13.234375 3.875 
Q 9.28125 7.765625 9.28125 18.015625 
L 9.28125 47.703125 
L 2.6875 47.703125 
L 2.6875 54.6875 
L 9.28125 54.6875 
L 9.28125 70.21875 
z
" id="DejaVuSans-116"/>
       <path d="M 48.78125 52.59375 
L 48.78125 44.1875 
Q 44.96875 46.296875 41.140625 47.34375 
Q 37.3125 48.390625 33.40625 48.390625 
Q 24.65625 48.390625 19.8125 42.84375 
Q 14.984375 37.3125 14.984375 27.296875 
Q 14.984375 17.28125 19.8125 11.734375 
Q 24.65625 6.203125 33.40625 6.203125 
Q 37.3125 6.203125 41.140625 7.25 
Q 44.96875 8.296875 48.78125 10.40625 
L 48.78125 2.09375 
Q 45.015625 0.34375 40.984375 -0.53125 
Q 36.96875 -1.421875 32.421875 -1.421875 
Q 20.0625 -1.421875 12.78125 6.34375 
Q 5.515625 14.109375 5.515625 27.296875 
Q 5.515625 40.671875 12.859375 48.328125 
Q 20.21875 56 33.015625 56 
Q 37.15625 56 41.109375 55.140625 
Q 45.0625 54.296875 48.78125 52.59375 
z
" id="DejaVuSans-99"/>
       <path d="M 45.40625 27.984375 
Q 45.40625 37.75 41.375 43.109375 
Q 37.359375 48.484375 30.078125 48.484375 
Q 22.859375 48.484375 18.828125 43.109375 
Q 14.796875 37.75 14.796875 27.984375 
Q 14.796875 18.265625 18.828125 12.890625 
Q 22.859375 7.515625 30.078125 7.515625 
Q 37.359375 7.515625 41.375 12.890625 
Q 45.40625 18.265625 45.40625 27.984375 
z
M 54.390625 6.78125 
Q 54.390625 -7.171875 48.1875 -13.984375 
Q 42 -20.796875 29.203125 -20.796875 
Q 24.46875 -20.796875 20.265625 -20.09375 
Q 16.0625 -19.390625 12.109375 -17.921875 
L 12.109375 -9.1875 
Q 16.0625 -11.328125 19.921875 -12.34375 
Q 23.78125 -13.375 27.78125 -13.375 
Q 36.625 -13.375 41.015625 -8.765625 
Q 45.40625 -4.15625 45.40625 5.171875 
L 45.40625 9.625 
Q 42.625 4.78125 38.28125 2.390625 
Q 33.9375 0 27.875 0 
Q 17.828125 0 11.671875 7.65625 
Q 5.515625 15.328125 5.515625 27.984375 
Q 5.515625 40.671875 11.671875 48.328125 
Q 17.828125 56 27.875 56 
Q 33.9375 56 38.28125 53.609375 
Q 42.625 51.21875 45.40625 46.390625 
L 45.40625 54.6875 
L 54.390625 54.6875 
z
" id="DejaVuSans-103"/>
      </defs>
      <use xlink:href="#DejaVuSans-114"/>
      <use x="38.863281" xlink:href="#DejaVuSans-101"/>
      <use x="100.386719" xlink:href="#DejaVuSans-115"/>
      <use x="152.486328" xlink:href="#DejaVuSans-116"/>
      <use x="191.695312" xlink:href="#DejaVuSans-101"/>
      <use x="253.21875" xlink:href="#DejaVuSans-99"/>
      <use x="308.199219" xlink:href="#DejaVuSans-103"/>
     </g>
    </g>
   </g>
   <g id="matplotlib.axis_2">
    <g id="ytick_1">
     <g id="line2d_10">
      <path clip-path="url(#pf74c3c36cb)" d="M 34.193438 180.218125 
L 849.2826 180.218125 
" style="fill:none;stroke:#ffffff;stroke-linecap:round;"/>
     </g>
     <g id="text_11">
      <!-- 0.0 -->
      <g style="fill:#262626;" transform="translate(7.2 184.397266)scale(0.11 -0.11)">
       <use xlink:href="#DejaVuSans-48"/>
       <use x="63.623047" xlink:href="#DejaVuSans-46"/>
       <use x="95.410156" xlink:href="#DejaVuSans-48"/>
      </g>
     </g>
    </g>
    <g id="ytick_2">
     <g id="line2d_11">
      <path clip-path="url(#pf74c3c36cb)" d="M 34.193438 156.637274 
L 849.2826 156.637274 
" style="fill:none;stroke:#ffffff;stroke-linecap:round;"/>
     </g>
     <g id="text_12">
      <!-- 0.2 -->
      <g style="fill:#262626;" transform="translate(7.2 160.816414)scale(0.11 -0.11)">
       <use xlink:href="#DejaVuSans-48"/>
       <use x="63.623047" xlink:href="#DejaVuSans-46"/>
       <use x="95.410156" xlink:href="#DejaVuSans-50"/>
      </g>
     </g>
    </g>
    <g id="ytick_3">
     <g id="line2d_12">
      <path clip-path="url(#pf74c3c36cb)" d="M 34.193438 133.056422 
L 849.2826 133.056422 
" style="fill:none;stroke:#ffffff;stroke-linecap:round;"/>
     </g>
     <g id="text_13">
      <!-- 0.4 -->
      <g style="fill:#262626;" transform="translate(7.2 137.235563)scale(0.11 -0.11)">
       <defs>
        <path d="M 37.796875 64.3125 
L 12.890625 25.390625 
L 37.796875 25.390625 
z
M 35.203125 72.90625 
L 47.609375 72.90625 
L 47.609375 25.390625 
L 58.015625 25.390625 
L 58.015625 17.1875 
L 47.609375 17.1875 
L 47.609375 0 
L 37.796875 0 
L 37.796875 17.1875 
L 4.890625 17.1875 
L 4.890625 26.703125 
z
" id="DejaVuSans-52"/>
       </defs>
       <use xlink:href="#DejaVuSans-48"/>
       <use x="63.623047" xlink:href="#DejaVuSans-46"/>
       <use x="95.410156" xlink:href="#DejaVuSans-52"/>
      </g>
     </g>
    </g>
    <g id="ytick_4">
     <g id="line2d_13">
      <path clip-path="url(#pf74c3c36cb)" d="M 34.193438 109.475571 
L 849.2826 109.475571 
" style="fill:none;stroke:#ffffff;stroke-linecap:round;"/>
     </g>
     <g id="text_14">
      <!-- 0.6 -->
      <g style="fill:#262626;" transform="translate(7.2 113.654712)scale(0.11 -0.11)">
       <defs>
        <path d="M 33.015625 40.375 
Q 26.375 40.375 22.484375 35.828125 
Q 18.609375 31.296875 18.609375 23.390625 
Q 18.609375 15.53125 22.484375 10.953125 
Q 26.375 6.390625 33.015625 6.390625 
Q 39.65625 6.390625 43.53125 10.953125 
Q 47.40625 15.53125 47.40625 23.390625 
Q 47.40625 31.296875 43.53125 35.828125 
Q 39.65625 40.375 33.015625 40.375 
z
M 52.59375 71.296875 
L 52.59375 62.3125 
Q 48.875 64.0625 45.09375 64.984375 
Q 41.3125 65.921875 37.59375 65.921875 
Q 27.828125 65.921875 22.671875 59.328125 
Q 17.53125 52.734375 16.796875 39.40625 
Q 19.671875 43.65625 24.015625 45.921875 
Q 28.375 48.1875 33.59375 48.1875 
Q 44.578125 48.1875 50.953125 41.515625 
Q 57.328125 34.859375 57.328125 23.390625 
Q 57.328125 12.15625 50.6875 5.359375 
Q 44.046875 -1.421875 33.015625 -1.421875 
Q 20.359375 -1.421875 13.671875 8.265625 
Q 6.984375 17.96875 6.984375 36.375 
Q 6.984375 53.65625 15.1875 63.9375 
Q 23.390625 74.21875 37.203125 74.21875 
Q 40.921875 74.21875 44.703125 73.484375 
Q 48.484375 72.75 52.59375 71.296875 
z
" id="DejaVuSans-54"/>
       </defs>
       <use xlink:href="#DejaVuSans-48"/>
       <use x="63.623047" xlink:href="#DejaVuSans-46"/>
       <use x="95.410156" xlink:href="#DejaVuSans-54"/>
      </g>
     </g>
    </g>
    <g id="ytick_5">
     <g id="line2d_14">
      <path clip-path="url(#pf74c3c36cb)" d="M 34.193438 85.89472 
L 849.2826 85.89472 
" style="fill:none;stroke:#ffffff;stroke-linecap:round;"/>
     </g>
     <g id="text_15">
      <!-- 0.8 -->
      <g style="fill:#262626;" transform="translate(7.2 90.07386)scale(0.11 -0.11)">
       <defs>
        <path d="M 31.78125 34.625 
Q 24.75 34.625 20.71875 30.859375 
Q 16.703125 27.09375 16.703125 20.515625 
Q 16.703125 13.921875 20.71875 10.15625 
Q 24.75 6.390625 31.78125 6.390625 
Q 38.8125 6.390625 42.859375 10.171875 
Q 46.921875 13.96875 46.921875 20.515625 
Q 46.921875 27.09375 42.890625 30.859375 
Q 38.875 34.625 31.78125 34.625 
z
M 21.921875 38.8125 
Q 15.578125 40.375 12.03125 44.71875 
Q 8.5 49.078125 8.5 55.328125 
Q 8.5 64.0625 14.71875 69.140625 
Q 20.953125 74.21875 31.78125 74.21875 
Q 42.671875 74.21875 48.875 69.140625 
Q 55.078125 64.0625 55.078125 55.328125 
Q 55.078125 49.078125 51.53125 44.71875 
Q 48 40.375 41.703125 38.8125 
Q 48.828125 37.15625 52.796875 32.3125 
Q 56.78125 27.484375 56.78125 20.515625 
Q 56.78125 9.90625 50.3125 4.234375 
Q 43.84375 -1.421875 31.78125 -1.421875 
Q 19.734375 -1.421875 13.25 4.234375 
Q 6.78125 9.90625 6.78125 20.515625 
Q 6.78125 27.484375 10.78125 32.3125 
Q 14.796875 37.15625 21.921875 38.8125 
z
M 18.3125 54.390625 
Q 18.3125 48.734375 21.84375 45.5625 
Q 25.390625 42.390625 31.78125 42.390625 
Q 38.140625 42.390625 41.71875 45.5625 
Q 45.3125 48.734375 45.3125 54.390625 
Q 45.3125 60.0625 41.71875 63.234375 
Q 38.140625 66.40625 31.78125 66.40625 
Q 25.390625 66.40625 21.84375 63.234375 
Q 18.3125 60.0625 18.3125 54.390625 
z
" id="DejaVuSans-56"/>
       </defs>
       <use xlink:href="#DejaVuSans-48"/>
       <use x="63.623047" xlink:href="#DejaVuSans-46"/>
       <use x="95.410156" xlink:href="#DejaVuSans-56"/>
      </g>
     </g>
    </g>
    <g id="ytick_6">
     <g id="line2d_15">
      <path clip-path="url(#pf74c3c36cb)" d="M 34.193438 62.313868 
L 849.2826 62.313868 
" style="fill:none;stroke:#ffffff;stroke-linecap:round;"/>
     </g>
     <g id="text_16">
      <!-- 1.0 -->
      <g style="fill:#262626;" transform="translate(7.2 66.493009)scale(0.11 -0.11)">
       <use xlink:href="#DejaVuSans-49"/>
       <use x="63.623047" xlink:href="#DejaVuSans-46"/>
       <use x="95.410156" xlink:href="#DejaVuSans-48"/>
      </g>
     </g>
    </g>
    <g id="ytick_7">
     <g id="line2d_16">
      <path clip-path="url(#pf74c3c36cb)" d="M 34.193438 38.733017 
L 849.2826 38.733017 
" style="fill:none;stroke:#ffffff;stroke-linecap:round;"/>
     </g>
     <g id="text_17">
      <!-- 1.2 -->
      <g style="fill:#262626;" transform="translate(7.2 42.912157)scale(0.11 -0.11)">
       <use xlink:href="#DejaVuSans-49"/>
       <use x="63.623047" xlink:href="#DejaVuSans-46"/>
       <use x="95.410156" xlink:href="#DejaVuSans-50"/>
      </g>
     </g>
    </g>
   </g>
   <g id="PolyCollection_1">
    <path clip-path="url(#pf74c3c36cb)" d="M -212.851305 178.737711 
L -212.851305 180.218125 
L -206.272518 180.218125 
L -199.693731 180.218125 
L -193.114944 180.218125 
L -186.536156 180.218125 
L -179.957369 180.218125 
L -173.378582 180.218125 
L -166.799795 180.218125 
L -160.221008 180.218125 
L -153.642221 180.218125 
L -147.063433 180.218125 
L -140.484646 180.218125 
L -133.905859 180.218125 
L -127.327072 180.218125 
L -120.748285 180.218125 
L -114.169497 180.218125 
L -107.59071 180.218125 
L -101.011923 180.218125 
L -94.433136 180.218125 
L -87.854349 180.218125 
L -81.275562 180.218125 
L -74.696774 180.218125 
L -68.117987 180.218125 
L -61.5392 180.218125 
L -54.960413 180.218125 
L -48.381626 180.218125 
L -41.802839 180.218125 
L -35.224051 180.218125 
L -28.645264 180.218125 
L -22.066477 180.218125 
L -15.48769 180.218125 
L -8.908903 180.218125 
L -2.330116 180.218125 
L 4.248672 180.218125 
L 10.827459 180.218125 
L 17.406246 180.218125 
L 23.985033 180.218125 
L 30.56382 180.218125 
L 37.142607 180.218125 
L 43.721395 180.218125 
L 50.300182 180.218125 
L 56.878969 180.218125 
L 63.457756 180.218125 
L 70.036543 180.218125 
L 76.615331 180.218125 
L 83.194118 180.218125 
L 89.772905 180.218125 
L 96.351692 180.218125 
L 102.930479 180.218125 
L 109.509266 180.218125 
L 116.088054 180.218125 
L 122.666841 180.218125 
L 129.245628 180.218125 
L 135.824415 180.218125 
L 142.403202 180.218125 
L 148.981989 180.218125 
L 155.560777 180.218125 
L 162.139564 180.218125 
L 168.718351 180.218125 
L 175.297138 180.218125 
L 181.875925 180.218125 
L 188.454712 180.218125 
L 195.0335 180.218125 
L 201.612287 180.218125 
L 208.191074 180.218125 
L 214.769861 180.218125 
L 221.348648 180.218125 
L 227.927435 180.218125 
L 234.506223 180.218125 
L 241.08501 180.218125 
L 247.663797 180.218125 
L 254.242584 180.218125 
L 260.821371 180.218125 
L 267.400159 180.218125 
L 273.978946 180.218125 
L 280.557733 180.218125 
L 287.13652 180.218125 
L 293.715307 180.218125 
L 300.294094 180.218125 
L 306.872882 180.218125 
L 313.451669 180.218125 
L 320.030456 180.218125 
L 326.609243 180.218125 
L 333.18803 180.218125 
L 339.766817 180.218125 
L 346.345605 180.218125 
L 352.924392 180.218125 
L 359.503179 180.218125 
L 366.081966 180.218125 
L 372.660753 180.218125 
L 379.23954 180.218125 
L 385.818328 180.218125 
L 392.397115 180.218125 
L 398.975902 180.218125 
L 405.554689 180.218125 
L 412.133476 180.218125 
L 418.712263 180.218125 
L 425.291051 180.218125 
L 431.869838 180.218125 
L 438.448625 180.218125 
L 445.027412 180.218125 
L 451.606199 180.218125 
L 458.184987 180.218125 
L 464.763774 180.218125 
L 471.342561 180.218125 
L 477.921348 180.218125 
L 484.500135 180.218125 
L 491.078922 180.218125 
L 497.65771 180.218125 
L 504.236497 180.218125 
L 510.815284 180.218125 
L 517.394071 180.218125 
L 523.972858 180.218125 
L 530.551645 180.218125 
L 537.130433 180.218125 
L 543.70922 180.218125 
L 550.288007 180.218125 
L 556.866794 180.218125 
L 563.445581 180.218125 
L 570.024368 180.218125 
L 576.603156 180.218125 
L 583.181943 180.218125 
L 589.76073 180.218125 
L 596.339517 180.218125 
L 602.918304 180.218125 
L 609.497091 180.218125 
L 616.075879 180.218125 
L 622.654666 180.218125 
L 629.233453 180.218125 
L 635.81224 180.218125 
L 642.391027 180.218125 
L 648.969815 180.218125 
L 655.548602 180.218125 
L 662.127389 180.218125 
L 668.706176 180.218125 
L 675.284963 180.218125 
L 681.86375 180.218125 
L 688.442538 180.218125 
L 695.021325 180.218125 
L 701.600112 180.218125 
L 708.178899 180.218125 
L 714.757686 180.218125 
L 721.336473 180.218125 
L 727.915261 180.218125 
L 734.494048 180.218125 
L 741.072835 180.218125 
L 747.651622 180.218125 
L 754.230409 180.218125 
L 760.809196 180.218125 
L 767.387984 180.218125 
L 773.966771 180.218125 
L 780.545558 180.218125 
L 787.124345 180.218125 
L 793.703132 180.218125 
L 800.281919 180.218125 
L 806.860707 180.218125 
L 813.439494 180.218125 
L 820.018281 180.218125 
L 826.597068 180.218125 
L 833.175855 180.218125 
L 839.754643 180.218125 
L 846.33343 180.218125 
L 852.912217 180.218125 
L 859.491004 180.218125 
L 866.069791 180.218125 
L 872.648578 180.218125 
L 879.227366 180.218125 
L 885.806153 180.218125 
L 892.38494 180.218125 
L 898.963727 180.218125 
L 905.542514 180.218125 
L 912.121301 180.218125 
L 918.700089 180.218125 
L 925.278876 180.218125 
L 931.857663 180.218125 
L 938.43645 180.218125 
L 945.015237 180.218125 
L 951.594024 180.218125 
L 958.172812 180.218125 
L 964.751599 180.218125 
L 971.330386 180.218125 
L 977.909173 180.218125 
L 984.48796 180.218125 
L 991.066747 180.218125 
L 997.645535 180.218125 
L 1004.224322 180.218125 
L 1010.803109 180.218125 
L 1017.381896 180.218125 
L 1023.960683 180.218125 
L 1030.539471 180.218125 
L 1037.118258 180.218125 
L 1043.697045 180.218125 
L 1050.275832 180.218125 
L 1056.854619 180.218125 
L 1063.433406 180.218125 
L 1070.012194 180.218125 
L 1076.590981 180.218125 
L 1083.169768 180.218125 
L 1089.748555 180.218125 
L 1096.327342 180.218125 
L 1096.327342 180.161907 
L 1096.327342 180.161907 
L 1089.748555 180.146909 
L 1083.169768 180.128484 
L 1076.590981 180.10601 
L 1070.012194 180.078793 
L 1063.433406 180.046071 
L 1056.854619 180.007016 
L 1050.275832 179.960744 
L 1043.697045 179.906325 
L 1037.118258 179.842805 
L 1030.539471 179.769217 
L 1023.960683 179.684618 
L 1017.381896 179.58811 
L 1010.803109 179.478877 
L 1004.224322 179.356224 
L 997.645535 179.219614 
L 991.066747 179.068711 
L 984.48796 178.903419 
L 977.909173 178.723926 
L 971.330386 178.53073 
L 964.751599 178.324678 
L 958.172812 178.106982 
L 951.594024 177.879232 
L 945.015237 177.643397 
L 938.43645 177.401815 
L 931.857663 177.157165 
L 925.278876 176.912427 
L 918.700089 176.670834 
L 912.121301 176.4358 
L 905.542514 176.21085 
L 898.963727 175.99953 
L 892.38494 175.805318 
L 885.806153 175.631527 
L 879.227366 175.481213 
L 872.648578 175.357086 
L 866.069791 175.261425 
L 859.491004 175.196012 
L 852.912217 175.162068 
L 846.33343 175.160223 
L 839.754643 175.190481 
L 833.175855 175.252229 
L 826.597068 175.344241 
L 820.018281 175.464719 
L 813.439494 175.611333 
L 806.860707 175.781287 
L 800.281919 175.971388 
L 793.703132 176.178118 
L 787.124345 176.397713 
L 780.545558 176.626237 
L 773.966771 176.859644 
L 767.387984 177.093836 
L 760.809196 177.324697 
L 754.230409 177.548118 
L 747.651622 177.759992 
L 741.072835 177.956196 
L 734.494048 178.132538 
L 727.915261 178.284693 
L 721.336473 178.408114 
L 714.757686 178.497916 
L 708.178899 178.548759 
L 701.600112 178.554704 
L 695.021325 178.50908 
L 688.442538 178.404338 
L 681.86375 178.231923 
L 675.284963 177.982164 
L 668.706176 177.644186 
L 662.127389 177.20587 
L 655.548602 176.653852 
L 648.969815 175.973585 
L 642.391027 175.149473 
L 635.81224 174.16508 
L 629.233453 173.00342 
L 622.654666 171.64734 
L 616.075879 170.079994 
L 609.497091 168.285392 
L 602.918304 166.249045 
L 596.339517 163.958657 
L 589.76073 161.404876 
L 583.181943 158.582067 
L 576.603156 155.489076 
L 570.024368 152.129961 
L 563.445581 148.514649 
L 556.866794 144.659487 
L 550.288007 140.587639 
L 543.70922 136.329305 
L 537.130433 131.921733 
L 530.551645 127.408984 
L 523.972858 122.841451 
L 517.394071 118.275118 
L 510.815284 113.770566 
L 504.236497 109.391739 
L 497.65771 105.204516 
L 491.078922 101.275106 
L 484.500135 97.668341 
L 477.921348 94.44592 
L 471.342561 91.664654 
L 464.763774 89.374815 
L 458.184987 87.61862 
L 451.606199 86.428939 
L 445.027412 85.828269 
L 438.448625 85.828024 
L 431.869838 86.428171 
L 425.291051 87.617223 
L 418.712263 89.372601 
L 412.133476 91.661332 
L 405.554689 94.441065 
L 398.975902 97.661354 
L 392.397115 101.265151 
L 385.818328 105.190449 
L 379.23954 109.372004 
L 372.660753 113.743064 
L 366.081966 118.237043 
L 359.503179 122.789076 
L 352.924392 127.337401 
L 346.345605 131.824521 
L 339.766817 136.198128 
L 333.18803 140.411758 
L 326.609243 144.425169 
L 320.030456 148.204462 
L 313.451669 151.721951 
L 306.872882 154.95581 
L 300.294094 157.889525 
L 293.715307 160.511208 
L 287.13652 162.81279 
L 280.557733 164.789153 
L 273.978946 166.437251 
L 267.400159 167.755235 
L 260.821371 168.741655 
L 254.242584 169.394746 
L 247.663797 169.711853 
L 241.08501 169.689001 
L 234.506223 169.320643 
L 227.927435 168.599596 
L 221.348648 167.517176 
L 214.769861 166.063527 
L 208.191074 164.228149 
L 201.612287 162.000604 
L 195.0335 159.371378 
L 188.454712 156.332887 
L 181.875925 152.880568 
L 175.297138 149.014039 
L 168.718351 144.738259 
L 162.139564 140.064648 
L 155.560777 135.012105 
L 148.981989 129.607873 
L 142.403202 123.888186 
L 135.824415 117.89866 
L 129.245628 111.694362 
L 122.666841 105.339552 
L 116.088054 98.907045 
L 109.509266 92.47721 
L 102.930479 86.136593 
L 96.351692 79.976215 
L 89.772905 74.089567 
L 83.194118 68.570377 
L 76.615331 63.510217 
L 70.036543 58.996036 
L 63.457756 55.107721 
L 56.878969 51.915773 
L 50.300182 49.479207 
L 43.721395 47.843746 
L 37.142607 47.040407 
L 30.56382 47.084534 
L 23.985033 47.975312 
L 17.406246 49.6958 
L 10.827459 52.213466 
L 4.248672 55.481217 
L -2.330116 59.438861 
L -8.908903 64.014956 
L -15.48769 69.128948 
L -22.066477 74.693527 
L -28.645264 80.617094 
L -35.224051 86.80624 
L -41.802839 93.168159 
L -48.381626 99.612891 
L -54.960413 106.055337 
L -61.5392 112.416982 
L -68.117987 118.627281 
L -74.696774 124.624696 
L -81.275562 130.357361 
L -87.854349 135.783393 
L -94.433136 140.870876 
L -101.011923 145.597545 
L -107.59071 149.950212 
L -114.169497 153.923997 
L -120.748285 157.521398 
L -127.327072 160.751267 
L -133.905859 163.627732 
L -140.484646 166.169118 
L -147.063433 168.396893 
L -153.642221 170.334687 
L -160.221008 172.0074 
L -166.799795 173.440413 
L -173.378582 174.658917 
L -179.957369 175.687367 
L -186.536156 176.549047 
L -193.114944 177.265752 
L -199.693731 177.857572 
L -206.272518 178.342766 
L -212.851305 178.737711 
z
" style="fill:#4c72b0;fill-opacity:0.25;stroke:#4c72b0;"/>
   </g>
   <g id="PolyCollection_2">
    <path clip-path="url(#pf74c3c36cb)" d="M -188.10393 179.033717 
L -188.10393 180.218125 
L -181.77386 180.218125 
L -175.44379 180.218125 
L -169.11372 180.218125 
L -162.78365 180.218125 
L -156.453581 180.218125 
L -150.123511 180.218125 
L -143.793441 180.218125 
L -137.463371 180.218125 
L -131.133301 180.218125 
L -124.803231 180.218125 
L -118.473162 180.218125 
L -112.143092 180.218125 
L -105.813022 180.218125 
L -99.482952 180.218125 
L -93.152882 180.218125 
L -86.822812 180.218125 
L -80.492743 180.218125 
L -74.162673 180.218125 
L -67.832603 180.218125 
L -61.502533 180.218125 
L -55.172463 180.218125 
L -48.842393 180.218125 
L -42.512324 180.218125 
L -36.182254 180.218125 
L -29.852184 180.218125 
L -23.522114 180.218125 
L -17.192044 180.218125 
L -10.861974 180.218125 
L -4.531905 180.218125 
L 1.798165 180.218125 
L 8.128235 180.218125 
L 14.458305 180.218125 
L 20.788375 180.218125 
L 27.118445 180.218125 
L 33.448514 180.218125 
L 39.778584 180.218125 
L 46.108654 180.218125 
L 52.438724 180.218125 
L 58.768794 180.218125 
L 65.098864 180.218125 
L 71.428933 180.218125 
L 77.759003 180.218125 
L 84.089073 180.218125 
L 90.419143 180.218125 
L 96.749213 180.218125 
L 103.079283 180.218125 
L 109.409352 180.218125 
L 115.739422 180.218125 
L 122.069492 180.218125 
L 128.399562 180.218125 
L 134.729632 180.218125 
L 141.059702 180.218125 
L 147.389771 180.218125 
L 153.719841 180.218125 
L 160.049911 180.218125 
L 166.379981 180.218125 
L 172.710051 180.218125 
L 179.040121 180.218125 
L 185.37019 180.218125 
L 191.70026 180.218125 
L 198.03033 180.218125 
L 204.3604 180.218125 
L 210.69047 180.218125 
L 217.02054 180.218125 
L 223.350609 180.218125 
L 229.680679 180.218125 
L 236.010749 180.218125 
L 242.340819 180.218125 
L 248.670889 180.218125 
L 255.000959 180.218125 
L 261.331028 180.218125 
L 267.661098 180.218125 
L 273.991168 180.218125 
L 280.321238 180.218125 
L 286.651308 180.218125 
L 292.981378 180.218125 
L 299.311447 180.218125 
L 305.641517 180.218125 
L 311.971587 180.218125 
L 318.301657 180.218125 
L 324.631727 180.218125 
L 330.961797 180.218125 
L 337.291866 180.218125 
L 343.621936 180.218125 
L 349.952006 180.218125 
L 356.282076 180.218125 
L 362.612146 180.218125 
L 368.942216 180.218125 
L 375.272285 180.218125 
L 381.602355 180.218125 
L 387.932425 180.218125 
L 394.262495 180.218125 
L 400.592565 180.218125 
L 406.922635 180.218125 
L 413.252704 180.218125 
L 419.582774 180.218125 
L 425.912844 180.218125 
L 432.242914 180.218125 
L 438.572984 180.218125 
L 444.903054 180.218125 
L 451.233123 180.218125 
L 457.563193 180.218125 
L 463.893263 180.218125 
L 470.223333 180.218125 
L 476.553403 180.218125 
L 482.883472 180.218125 
L 489.213542 180.218125 
L 495.543612 180.218125 
L 501.873682 180.218125 
L 508.203752 180.218125 
L 514.533822 180.218125 
L 520.863891 180.218125 
L 527.193961 180.218125 
L 533.524031 180.218125 
L 539.854101 180.218125 
L 546.184171 180.218125 
L 552.514241 180.218125 
L 558.84431 180.218125 
L 565.17438 180.218125 
L 571.50445 180.218125 
L 577.83452 180.218125 
L 584.16459 180.218125 
L 590.49466 180.218125 
L 596.824729 180.218125 
L 603.154799 180.218125 
L 609.484869 180.218125 
L 615.814939 180.218125 
L 622.145009 180.218125 
L 628.475079 180.218125 
L 634.805148 180.218125 
L 641.135218 180.218125 
L 647.465288 180.218125 
L 653.795358 180.218125 
L 660.125428 180.218125 
L 666.455498 180.218125 
L 672.785567 180.218125 
L 679.115637 180.218125 
L 685.445707 180.218125 
L 691.775777 180.218125 
L 698.105847 180.218125 
L 704.435917 180.218125 
L 710.765986 180.218125 
L 717.096056 180.218125 
L 723.426126 180.218125 
L 729.756196 180.218125 
L 736.086266 180.218125 
L 742.416336 180.218125 
L 748.746405 180.218125 
L 755.076475 180.218125 
L 761.406545 180.218125 
L 767.736615 180.218125 
L 774.066685 180.218125 
L 780.396755 180.218125 
L 786.726824 180.218125 
L 793.056894 180.218125 
L 799.386964 180.218125 
L 805.717034 180.218125 
L 812.047104 180.218125 
L 818.377174 180.218125 
L 824.707243 180.218125 
L 831.037313 180.218125 
L 837.367383 180.218125 
L 843.697453 180.218125 
L 850.027523 180.218125 
L 856.357593 180.218125 
L 862.687662 180.218125 
L 869.017732 180.218125 
L 875.347802 180.218125 
L 881.677872 180.218125 
L 888.007942 180.218125 
L 894.338012 180.218125 
L 900.668081 180.218125 
L 906.998151 180.218125 
L 913.328221 180.218125 
L 919.658291 180.218125 
L 925.988361 180.218125 
L 932.318431 180.218125 
L 938.6485 180.218125 
L 944.97857 180.218125 
L 951.30864 180.218125 
L 957.63871 180.218125 
L 963.96878 180.218125 
L 970.29885 180.218125 
L 976.628919 180.218125 
L 982.958989 180.218125 
L 989.289059 180.218125 
L 995.619129 180.218125 
L 1001.949199 180.218125 
L 1008.279269 180.218125 
L 1014.609338 180.218125 
L 1020.939408 180.218125 
L 1027.269478 180.218125 
L 1033.599548 180.218125 
L 1039.929618 180.218125 
L 1046.259688 180.218125 
L 1052.589757 180.218125 
L 1058.919827 180.218125 
L 1065.249897 180.218125 
L 1071.579967 180.218125 
L 1071.579967 180.200707 
L 1071.579967 180.200707 
L 1065.249897 180.195701 
L 1058.919827 180.189466 
L 1052.589757 180.181764 
L 1046.259688 180.172327 
L 1039.929618 180.160861 
L 1033.599548 180.147044 
L 1027.269478 180.130535 
L 1020.939408 180.110977 
L 1014.609338 180.088004 
L 1008.279269 180.061256 
L 1001.949199 180.030383 
L 995.619129 179.995069 
L 989.289059 179.955038 
L 982.958989 179.91008 
L 976.628919 179.860062 
L 970.29885 179.804949 
L 963.96878 179.744819 
L 957.63871 179.679881 
L 951.30864 179.610485 
L 944.97857 179.537128 
L 938.6485 179.460465 
L 932.318431 179.381301 
L 925.988361 179.300587 
L 919.658291 179.219402 
L 913.328221 179.138938 
L 906.998151 179.06047 
L 900.668081 178.985327 
L 894.338012 178.914852 
L 888.007942 178.850366 
L 881.677872 178.793126 
L 875.347802 178.744285 
L 869.017732 178.704852 
L 862.687662 178.675661 
L 856.357593 178.657334 
L 850.027523 178.650268 
L 843.697453 178.654614 
L 837.367383 178.67027 
L 831.037313 178.696891 
L 824.707243 178.733891 
L 818.377174 178.780469 
L 812.047104 178.835632 
L 805.717034 178.898222 
L 799.386964 178.966957 
L 793.056894 179.040458 
L 786.726824 179.117286 
L 780.396755 179.19597 
L 774.066685 179.275026 
L 767.736615 179.352974 
L 761.406545 179.428341 
L 755.076475 179.499644 
L 748.746405 179.56537 
L 742.416336 179.623927 
L 736.086266 179.673583 
L 729.756196 179.712379 
L 723.426126 179.738027 
L 717.096056 179.747775 
L 710.765986 179.738256 
L 704.435917 179.70531 
L 698.105847 179.643782 
L 691.775777 179.547299 
L 685.445707 179.408035 
L 679.115637 179.216456 
L 672.785567 178.961071 
L 666.455498 178.628181 
L 660.125428 178.201657 
L 653.795358 177.66275 
L 647.465288 176.989959 
L 641.135218 176.158982 
L 634.805148 175.142763 
L 628.475079 173.91167 
L 622.145009 172.433822 
L 615.814939 170.675594 
L 609.484869 168.6023 
L 603.154799 166.179093 
L 596.824729 163.37205 
L 590.49466 160.149468 
L 584.16459 156.483323 
L 577.83452 152.350866 
L 571.50445 147.736316 
L 565.17438 142.632571 
L 558.84431 137.042868 
L 552.514241 130.982307 
L 546.184171 124.479144 
L 539.854101 117.575761 
L 533.524031 110.329215 
L 527.193961 102.811299 
L 520.863891 95.10804 
L 514.533822 87.318599 
L 508.203752 79.553554 
L 501.873682 71.93259 
L 495.543612 64.58164 
L 489.213542 57.629563 
L 482.883472 51.204481 
L 476.553403 45.429901 
L 470.223333 40.420794 
L 463.893263 36.279805 
L 457.563193 33.093762 
L 451.233123 30.930647 
L 444.903054 29.837186 
L 438.572984 29.837173 
L 432.242914 30.930604 
L 425.912844 33.093681 
L 419.582774 36.27967 
L 413.252704 40.420579 
L 406.922635 45.429566 
L 400.592565 51.203967 
L 394.262495 57.62878 
L 387.932425 64.580458 
L 381.602355 71.93082 
L 375.272285 79.550921 
L 368.942216 87.314711 
L 362.612146 95.102342 
L 356.282076 102.803008 
L 349.952006 110.31724 
L 343.621936 117.55859 
L 337.291866 124.454702 
L 330.961797 130.947768 
L 324.631727 136.994415 
L 318.301657 142.565095 
L 311.971587 147.64303 
L 305.641517 152.222836 
L 299.311447 156.308887 
L 292.981378 159.913533 
L 286.651308 163.055253 
L 280.321238 165.756815 
L 273.991168 168.043513 
L 267.661098 169.941544 
L 261.331028 171.476551 
L 255.000959 172.672373 
L 248.670889 173.550018 
L 242.340819 174.12687 
L 236.010749 174.416129 
L 229.680679 174.426496 
L 223.350609 174.16208 
L 217.02054 173.622539 
L 210.69047 172.803431 
L 204.3604 171.696774 
L 198.03033 170.291805 
L 191.70026 168.57591 
L 185.37019 166.535716 
L 179.040121 164.158324 
L 172.710051 161.432636 
L 166.379981 158.350756 
L 160.049911 154.909399 
L 153.719841 151.111276 
L 147.389771 146.966376 
L 141.059702 142.49309 
L 134.729632 137.719111 
L 128.399562 132.682043 
L 122.069492 127.429665 
L 115.739422 122.019794 
L 109.409352 116.519729 
L 103.079283 111.005237 
L 96.749213 105.559112 
L 90.419143 100.269317 
L 84.089073 95.226766 
L 77.759003 90.522826 
L 71.428933 86.246628 
L 65.098864 82.482294 
L 58.768794 79.306207 
L 52.438724 76.78445 
L 46.108654 74.970523 
L 39.778584 73.903463 
L 33.448514 73.606445 
L 27.118445 74.08595 
L 20.788375 75.331533 
L 14.458305 77.316197 
L 8.128235 79.99737 
L 1.798165 83.318421 
L -4.531905 87.210652 
L -10.861974 91.595654 
L -17.192044 96.387929 
L -23.522114 101.497647 
L -29.852184 106.833416 
L -36.182254 112.304948 
L -42.512324 117.825518 
L -48.842393 123.314121 
L -55.172463 128.697261 
L -61.502533 133.910334 
L -67.832603 138.898573 
L -74.162673 143.617563 
L -80.492743 148.033347 
L -86.822812 152.122164 
L -93.152882 155.869867 
L -99.482952 159.271093 
L -105.813022 162.328233 
L -112.143092 165.050292 
L -118.473162 167.45168 
L -124.803231 169.551008 
L -131.133301 171.369929 
L -137.463371 172.93206 
L -143.793441 174.262026 
L -150.123511 175.384628 
L -156.453581 176.324164 
L -162.78365 177.103883 
L -169.11372 177.745583 
L -175.44379 178.269332 
L -181.77386 178.693306 
L -188.10393 179.033717 
z
" style="fill:#dd8452;fill-opacity:0.25;stroke:#dd8452;"/>
   </g>
   <g id="patch_3">
    <path d="M 34.193438 180.218125 
L 34.193438 22.318125 
" style="fill:none;stroke:#ffffff;stroke-linecap:square;stroke-linejoin:miter;stroke-width:1.25;"/>
   </g>
   <g id="patch_4">
    <path d="M 34.193438 180.218125 
L 849.2826 180.218125 
" style="fill:none;stroke:#ffffff;stroke-linecap:square;stroke-linejoin:miter;stroke-width:1.25;"/>
   </g>
   <g id="text_18">
    <!-- Output: restecg -->
    <g style="fill:#262626;" transform="translate(394.667081 16.318125)scale(0.12 -0.12)">
     <defs>
      <path d="M 39.40625 66.21875 
Q 28.65625 66.21875 22.328125 58.203125 
Q 16.015625 50.203125 16.015625 36.375 
Q 16.015625 22.609375 22.328125 14.59375 
Q 28.65625 6.59375 39.40625 6.59375 
Q 50.140625 6.59375 56.421875 14.59375 
Q 62.703125 22.609375 62.703125 36.375 
Q 62.703125 50.203125 56.421875 58.203125 
Q 50.140625 66.21875 39.40625 66.21875 
z
M 39.40625 74.21875 
Q 54.734375 74.21875 63.90625 63.9375 
Q 73.09375 53.65625 73.09375 36.375 
Q 73.09375 19.140625 63.90625 8.859375 
Q 54.734375 -1.421875 39.40625 -1.421875 
Q 24.03125 -1.421875 14.8125 8.828125 
Q 5.609375 19.09375 5.609375 36.375 
Q 5.609375 53.65625 14.8125 63.9375 
Q 24.03125 74.21875 39.40625 74.21875 
z
" id="DejaVuSans-79"/>
      <path d="M 8.5 21.578125 
L 8.5 54.6875 
L 17.484375 54.6875 
L 17.484375 21.921875 
Q 17.484375 14.15625 20.5 10.265625 
Q 23.53125 6.390625 29.59375 6.390625 
Q 36.859375 6.390625 41.078125 11.03125 
Q 45.3125 15.671875 45.3125 23.6875 
L 45.3125 54.6875 
L 54.296875 54.6875 
L 54.296875 0 
L 45.3125 0 
L 45.3125 8.40625 
Q 42.046875 3.421875 37.71875 1 
Q 33.40625 -1.421875 27.6875 -1.421875 
Q 18.265625 -1.421875 13.375 4.4375 
Q 8.5 10.296875 8.5 21.578125 
z
M 31.109375 56 
z
" id="DejaVuSans-117"/>
      <path d="M 18.109375 8.203125 
L 18.109375 -20.796875 
L 9.078125 -20.796875 
L 9.078125 54.6875 
L 18.109375 54.6875 
L 18.109375 46.390625 
Q 20.953125 51.265625 25.265625 53.625 
Q 29.59375 56 35.59375 56 
Q 45.5625 56 51.78125 48.09375 
Q 58.015625 40.1875 58.015625 27.296875 
Q 58.015625 14.40625 51.78125 6.484375 
Q 45.5625 -1.421875 35.59375 -1.421875 
Q 29.59375 -1.421875 25.265625 0.953125 
Q 20.953125 3.328125 18.109375 8.203125 
z
M 48.6875 27.296875 
Q 48.6875 37.203125 44.609375 42.84375 
Q 40.53125 48.484375 33.40625 48.484375 
Q 26.265625 48.484375 22.1875 42.84375 
Q 18.109375 37.203125 18.109375 27.296875 
Q 18.109375 17.390625 22.1875 11.75 
Q 26.265625 6.109375 33.40625 6.109375 
Q 40.53125 6.109375 44.609375 11.75 
Q 48.6875 17.390625 48.6875 27.296875 
z
" id="DejaVuSans-112"/>
      <path d="M 11.71875 12.40625 
L 22.015625 12.40625 
L 22.015625 0 
L 11.71875 0 
z
M 11.71875 51.703125 
L 22.015625 51.703125 
L 22.015625 39.3125 
L 11.71875 39.3125 
z
" id="DejaVuSans-58"/>
      <path id="DejaVuSans-32"/>
     </defs>
     <use xlink:href="#DejaVuSans-79"/>
     <use x="78.710938" xlink:href="#DejaVuSans-117"/>
     <use x="142.089844" xlink:href="#DejaVuSans-116"/>
     <use x="181.298828" xlink:href="#DejaVuSans-112"/>
     <use x="244.775391" xlink:href="#DejaVuSans-117"/>
     <use x="308.154297" xlink:href="#DejaVuSans-116"/>
     <use x="347.363281" xlink:href="#DejaVuSans-58"/>
     <use x="381.054688" xlink:href="#DejaVuSans-32"/>
     <use x="412.841797" xlink:href="#DejaVuSans-114"/>
     <use x="451.705078" xlink:href="#DejaVuSans-101"/>
     <use x="513.228516" xlink:href="#DejaVuSans-115"/>
     <use x="565.328125" xlink:href="#DejaVuSans-116"/>
     <use x="604.537109" xlink:href="#DejaVuSans-101"/>
     <use x="666.060547" xlink:href="#DejaVuSans-99"/>
     <use x="721.041016" xlink:href="#DejaVuSans-103"/>
    </g>
   </g>
  </g>
  <g id="legend_1">
   <g id="text_19">
    <!-- output -->
    <g style="fill:#262626;" transform="translate(859.052475 98.754219)scale(0.12 -0.12)">
     <defs>
      <path d="M 30.609375 48.390625 
Q 23.390625 48.390625 19.1875 42.75 
Q 14.984375 37.109375 14.984375 27.296875 
Q 14.984375 17.484375 19.15625 11.84375 
Q 23.34375 6.203125 30.609375 6.203125 
Q 37.796875 6.203125 41.984375 11.859375 
Q 46.1875 17.53125 46.1875 27.296875 
Q 46.1875 37.015625 41.984375 42.703125 
Q 37.796875 48.390625 30.609375 48.390625 
z
M 30.609375 56 
Q 42.328125 56 49.015625 48.375 
Q 55.71875 40.765625 55.71875 27.296875 
Q 55.71875 13.875 49.015625 6.21875 
Q 42.328125 -1.421875 30.609375 -1.421875 
Q 18.84375 -1.421875 12.171875 6.21875 
Q 5.515625 13.875 5.515625 27.296875 
Q 5.515625 40.765625 12.171875 48.375 
Q 18.84375 56 30.609375 56 
z
" id="DejaVuSans-111"/>
     </defs>
     <use xlink:href="#DejaVuSans-111"/>
     <use x="61.181641" xlink:href="#DejaVuSans-117"/>
     <use x="124.560547" xlink:href="#DejaVuSans-116"/>
     <use x="163.769531" xlink:href="#DejaVuSans-112"/>
     <use x="227.246094" xlink:href="#DejaVuSans-117"/>
     <use x="290.625" xlink:href="#DejaVuSans-116"/>
    </g>
   </g>
   <g id="patch_5">
    <path d="M 859.942787 115.108125 
L 881.942787 115.108125 
L 881.942787 107.408125 
L 859.942787 107.408125 
z
" style="fill:#4c72b0;fill-opacity:0.25;stroke:#4c72b0;stroke-linejoin:miter;"/>
   </g>
   <g id="text_20">
    <!-- 0 -->
    <g style="fill:#262626;" transform="translate(890.742787 115.108125)scale(0.11 -0.11)">
     <use xlink:href="#DejaVuSans-48"/>
    </g>
   </g>
   <g id="patch_6">
    <path d="M 859.942787 131.254063 
L 881.942787 131.254063 
L 881.942787 123.554063 
L 859.942787 123.554063 
z
" style="fill:#dd8452;fill-opacity:0.25;stroke:#dd8452;stroke-linejoin:miter;"/>
   </g>
   <g id="text_21">
    <!-- 1 -->
    <g style="fill:#262626;" transform="translate(890.742787 131.254063)scale(0.11 -0.11)">
     <use xlink:href="#DejaVuSans-49"/>
    </g>
   </g>
  </g>
 </g>
 <defs>
  <clipPath id="pf74c3c36cb">
   <rect height="157.9" width="815.089162" x="34.193438" y="22.318125"/>
  </clipPath>
 </defs>
</svg>
