<?xml version="1.0" encoding="utf-8" standalone="no"?>
<!DOCTYPE svg PUBLIC "-//W3C//DTD SVG 1.1//EN"
  "http://www.w3.org/Graphics/SVG/1.1/DTD/svg11.dtd">
<!-- Created with matplotlib (https://matplotlib.org/) -->
<svg height="223.177812pt" version="1.1" viewBox="0 0 908.53185 223.177812" width="908.53185pt" xmlns="http://www.w3.org/2000/svg" xmlns:xlink="http://www.w3.org/1999/xlink">
 <metadata>
  <rdf:RDF xmlns:cc="http://creativecommons.org/ns#" xmlns:dc="http://purl.org/dc/elements/1.1/" xmlns:rdf="http://www.w3.org/1999/02/22-rdf-syntax-ns#">
   <cc:Work>
    <dc:type rdf:resource="http://purl.org/dc/dcmitype/StillImage"/>
    <dc:date>2021-07-04T23:48:55.828769</dc:date>
    <dc:format>image/svg+xml</dc:format>
    <dc:creator>
     <cc:Agent>
      <dc:title>Matplotlib v3.3.4, https://matplotlib.org/</dc:title>
     </cc:Agent>
    </dc:creator>
   </cc:Work>
  </rdf:RDF>
 </metadata>
 <defs>
  <style type="text/css">*{stroke-linecap:butt;stroke-linejoin:round;}</style>
 </defs>
 <g id="figure_1">
  <g id="patch_1">
   <path d="M 0 223.177812 
L 908.53185 223.177812 
L 908.53185 0 
L 0 0 
z
" style="fill:none;"/>
  </g>
  <g id="axes_1">
   <g id="patch_2">
    <path d="M 34.193438 180.218125 
L 849.2826 180.218125 
L 849.2826 22.318125 
L 34.193438 22.318125 
z
" style="fill:#eaeaf2;"/>
   </g>
   <g id="matplotlib.axis_1">
    <g id="xtick_1">
     <g id="line2d_1">
      <path clip-path="url(#p1244847b3b)" d="M 34.193438 180.218125 
L 34.193438 22.318125 
" style="fill:none;stroke:#ffffff;stroke-linecap:round;"/>
     </g>
     <g id="text_1">
      <!-- 0.0 -->
      <g style="fill:#262626;" transform="translate(25.446719 198.076406)scale(0.11 -0.11)">
       <defs>
        <path d="M 31.78125 66.40625 
Q 24.171875 66.40625 20.328125 58.90625 
Q 16.5 51.421875 16.5 36.375 
Q 16.5 21.390625 20.328125 13.890625 
Q 24.171875 6.390625 31.78125 6.390625 
Q 39.453125 6.390625 43.28125 13.890625 
Q 47.125 21.390625 47.125 36.375 
Q 47.125 51.421875 43.28125 58.90625 
Q 39.453125 66.40625 31.78125 66.40625 
z
M 31.78125 74.21875 
Q 44.046875 74.21875 50.515625 64.515625 
Q 56.984375 54.828125 56.984375 36.375 
Q 56.984375 17.96875 50.515625 8.265625 
Q 44.046875 -1.421875 31.78125 -1.421875 
Q 19.53125 -1.421875 13.0625 8.265625 
Q 6.59375 17.96875 6.59375 36.375 
Q 6.59375 54.828125 13.0625 64.515625 
Q 19.53125 74.21875 31.78125 74.21875 
z
" id="DejaVuSans-48"/>
        <path d="M 10.6875 12.40625 
L 21 12.40625 
L 21 0 
L 10.6875 0 
z
" id="DejaVuSans-46"/>
       </defs>
       <use xlink:href="#DejaVuSans-48"/>
       <use x="63.623047" xlink:href="#DejaVuSans-46"/>
       <use x="95.410156" xlink:href="#DejaVuSans-48"/>
      </g>
     </g>
    </g>
    <g id="xtick_2">
     <g id="line2d_2">
      <path clip-path="url(#p1244847b3b)" d="M 197.21127 180.218125 
L 197.21127 22.318125 
" style="fill:none;stroke:#ffffff;stroke-linecap:round;"/>
     </g>
     <g id="text_2">
      <!-- 0.2 -->
      <g style="fill:#262626;" transform="translate(188.464551 198.076406)scale(0.11 -0.11)">
       <defs>
        <path d="M 19.1875 8.296875 
L 53.609375 8.296875 
L 53.609375 0 
L 7.328125 0 
L 7.328125 8.296875 
Q 12.9375 14.109375 22.625 23.890625 
Q 32.328125 33.6875 34.8125 36.53125 
Q 39.546875 41.84375 41.421875 45.53125 
Q 43.3125 49.21875 43.3125 52.78125 
Q 43.3125 58.59375 39.234375 62.25 
Q 35.15625 65.921875 28.609375 65.921875 
Q 23.96875 65.921875 18.8125 64.3125 
Q 13.671875 62.703125 7.8125 59.421875 
L 7.8125 69.390625 
Q 13.765625 71.78125 18.9375 73 
Q 24.125 74.21875 28.421875 74.21875 
Q 39.75 74.21875 46.484375 68.546875 
Q 53.21875 62.890625 53.21875 53.421875 
Q 53.21875 48.921875 51.53125 44.890625 
Q 49.859375 40.875 45.40625 35.40625 
Q 44.1875 33.984375 37.640625 27.21875 
Q 31.109375 20.453125 19.1875 8.296875 
z
" id="DejaVuSans-50"/>
       </defs>
       <use xlink:href="#DejaVuSans-48"/>
       <use x="63.623047" xlink:href="#DejaVuSans-46"/>
       <use x="95.410156" xlink:href="#DejaVuSans-50"/>
      </g>
     </g>
    </g>
    <g id="xtick_3">
     <g id="line2d_3">
      <path clip-path="url(#p1244847b3b)" d="M 360.229102 180.218125 
L 360.229102 22.318125 
" style="fill:none;stroke:#ffffff;stroke-linecap:round;"/>
     </g>
     <g id="text_3">
      <!-- 0.4 -->
      <g style="fill:#262626;" transform="translate(351.482384 198.076406)scale(0.11 -0.11)">
       <defs>
        <path d="M 37.796875 64.3125 
L 12.890625 25.390625 
L 37.796875 25.390625 
z
M 35.203125 72.90625 
L 47.609375 72.90625 
L 47.609375 25.390625 
L 58.015625 25.390625 
L 58.015625 17.1875 
L 47.609375 17.1875 
L 47.609375 0 
L 37.796875 0 
L 37.796875 17.1875 
L 4.890625 17.1875 
L 4.890625 26.703125 
z
" id="DejaVuSans-52"/>
       </defs>
       <use xlink:href="#DejaVuSans-48"/>
       <use x="63.623047" xlink:href="#DejaVuSans-46"/>
       <use x="95.410156" xlink:href="#DejaVuSans-52"/>
      </g>
     </g>
    </g>
    <g id="xtick_4">
     <g id="line2d_4">
      <path clip-path="url(#p1244847b3b)" d="M 523.246935 180.218125 
L 523.246935 22.318125 
" style="fill:none;stroke:#ffffff;stroke-linecap:round;"/>
     </g>
     <g id="text_4">
      <!-- 0.6 -->
      <g style="fill:#262626;" transform="translate(514.500216 198.076406)scale(0.11 -0.11)">
       <defs>
        <path d="M 33.015625 40.375 
Q 26.375 40.375 22.484375 35.828125 
Q 18.609375 31.296875 18.609375 23.390625 
Q 18.609375 15.53125 22.484375 10.953125 
Q 26.375 6.390625 33.015625 6.390625 
Q 39.65625 6.390625 43.53125 10.953125 
Q 47.40625 15.53125 47.40625 23.390625 
Q 47.40625 31.296875 43.53125 35.828125 
Q 39.65625 40.375 33.015625 40.375 
z
M 52.59375 71.296875 
L 52.59375 62.3125 
Q 48.875 64.0625 45.09375 64.984375 
Q 41.3125 65.921875 37.59375 65.921875 
Q 27.828125 65.921875 22.671875 59.328125 
Q 17.53125 52.734375 16.796875 39.40625 
Q 19.671875 43.65625 24.015625 45.921875 
Q 28.375 48.1875 33.59375 48.1875 
Q 44.578125 48.1875 50.953125 41.515625 
Q 57.328125 34.859375 57.328125 23.390625 
Q 57.328125 12.15625 50.6875 5.359375 
Q 44.046875 -1.421875 33.015625 -1.421875 
Q 20.359375 -1.421875 13.671875 8.265625 
Q 6.984375 17.96875 6.984375 36.375 
Q 6.984375 53.65625 15.1875 63.9375 
Q 23.390625 74.21875 37.203125 74.21875 
Q 40.921875 74.21875 44.703125 73.484375 
Q 48.484375 72.75 52.59375 71.296875 
z
" id="DejaVuSans-54"/>
       </defs>
       <use xlink:href="#DejaVuSans-48"/>
       <use x="63.623047" xlink:href="#DejaVuSans-46"/>
       <use x="95.410156" xlink:href="#DejaVuSans-54"/>
      </g>
     </g>
    </g>
    <g id="xtick_5">
     <g id="line2d_5">
      <path clip-path="url(#p1244847b3b)" d="M 686.264767 180.218125 
L 686.264767 22.318125 
" style="fill:none;stroke:#ffffff;stroke-linecap:round;"/>
     </g>
     <g id="text_5">
      <!-- 0.8 -->
      <g style="fill:#262626;" transform="translate(677.518048 198.076406)scale(0.11 -0.11)">
       <defs>
        <path d="M 31.78125 34.625 
Q 24.75 34.625 20.71875 30.859375 
Q 16.703125 27.09375 16.703125 20.515625 
Q 16.703125 13.921875 20.71875 10.15625 
Q 24.75 6.390625 31.78125 6.390625 
Q 38.8125 6.390625 42.859375 10.171875 
Q 46.921875 13.96875 46.921875 20.515625 
Q 46.921875 27.09375 42.890625 30.859375 
Q 38.875 34.625 31.78125 34.625 
z
M 21.921875 38.8125 
Q 15.578125 40.375 12.03125 44.71875 
Q 8.5 49.078125 8.5 55.328125 
Q 8.5 64.0625 14.71875 69.140625 
Q 20.953125 74.21875 31.78125 74.21875 
Q 42.671875 74.21875 48.875 69.140625 
Q 55.078125 64.0625 55.078125 55.328125 
Q 55.078125 49.078125 51.53125 44.71875 
Q 48 40.375 41.703125 38.8125 
Q 48.828125 37.15625 52.796875 32.3125 
Q 56.78125 27.484375 56.78125 20.515625 
Q 56.78125 9.90625 50.3125 4.234375 
Q 43.84375 -1.421875 31.78125 -1.421875 
Q 19.734375 -1.421875 13.25 4.234375 
Q 6.78125 9.90625 6.78125 20.515625 
Q 6.78125 27.484375 10.78125 32.3125 
Q 14.796875 37.15625 21.921875 38.8125 
z
M 18.3125 54.390625 
Q 18.3125 48.734375 21.84375 45.5625 
Q 25.390625 42.390625 31.78125 42.390625 
Q 38.140625 42.390625 41.71875 45.5625 
Q 45.3125 48.734375 45.3125 54.390625 
Q 45.3125 60.0625 41.71875 63.234375 
Q 38.140625 66.40625 31.78125 66.40625 
Q 25.390625 66.40625 21.84375 63.234375 
Q 18.3125 60.0625 18.3125 54.390625 
z
" id="DejaVuSans-56"/>
       </defs>
       <use xlink:href="#DejaVuSans-48"/>
       <use x="63.623047" xlink:href="#DejaVuSans-46"/>
       <use x="95.410156" xlink:href="#DejaVuSans-56"/>
      </g>
     </g>
    </g>
    <g id="xtick_6">
     <g id="line2d_6">
      <path clip-path="url(#p1244847b3b)" d="M 849.2826 180.218125 
L 849.2826 22.318125 
" style="fill:none;stroke:#ffffff;stroke-linecap:round;"/>
     </g>
     <g id="text_6">
      <!-- 1.0 -->
      <g style="fill:#262626;" transform="translate(840.535881 198.076406)scale(0.11 -0.11)">
       <defs>
        <path d="M 12.40625 8.296875 
L 28.515625 8.296875 
L 28.515625 63.921875 
L 10.984375 60.40625 
L 10.984375 69.390625 
L 28.421875 72.90625 
L 38.28125 72.90625 
L 38.28125 8.296875 
L 54.390625 8.296875 
L 54.390625 0 
L 12.40625 0 
z
" id="DejaVuSans-49"/>
       </defs>
       <use xlink:href="#DejaVuSans-49"/>
       <use x="63.623047" xlink:href="#DejaVuSans-46"/>
       <use x="95.410156" xlink:href="#DejaVuSans-48"/>
      </g>
     </g>
    </g>
    <g id="text_7">
     <!-- fbs -->
     <g style="fill:#262626;" transform="translate(432.691144 213.482187)scale(0.12 -0.12)">
      <defs>
       <path d="M 37.109375 75.984375 
L 37.109375 68.5 
L 28.515625 68.5 
Q 23.6875 68.5 21.796875 66.546875 
Q 19.921875 64.59375 19.921875 59.515625 
L 19.921875 54.6875 
L 34.71875 54.6875 
L 34.71875 47.703125 
L 19.921875 47.703125 
L 19.921875 0 
L 10.890625 0 
L 10.890625 47.703125 
L 2.296875 47.703125 
L 2.296875 54.6875 
L 10.890625 54.6875 
L 10.890625 58.5 
Q 10.890625 67.625 15.140625 71.796875 
Q 19.390625 75.984375 28.609375 75.984375 
z
" id="DejaVuSans-102"/>
       <path d="M 48.6875 27.296875 
Q 48.6875 37.203125 44.609375 42.84375 
Q 40.53125 48.484375 33.40625 48.484375 
Q 26.265625 48.484375 22.1875 42.84375 
Q 18.109375 37.203125 18.109375 27.296875 
Q 18.109375 17.390625 22.1875 11.75 
Q 26.265625 6.109375 33.40625 6.109375 
Q 40.53125 6.109375 44.609375 11.75 
Q 48.6875 17.390625 48.6875 27.296875 
z
M 18.109375 46.390625 
Q 20.953125 51.265625 25.265625 53.625 
Q 29.59375 56 35.59375 56 
Q 45.5625 56 51.78125 48.09375 
Q 58.015625 40.1875 58.015625 27.296875 
Q 58.015625 14.40625 51.78125 6.484375 
Q 45.5625 -1.421875 35.59375 -1.421875 
Q 29.59375 -1.421875 25.265625 0.953125 
Q 20.953125 3.328125 18.109375 8.203125 
L 18.109375 0 
L 9.078125 0 
L 9.078125 75.984375 
L 18.109375 75.984375 
z
" id="DejaVuSans-98"/>
       <path d="M 44.28125 53.078125 
L 44.28125 44.578125 
Q 40.484375 46.53125 36.375 47.5 
Q 32.28125 48.484375 27.875 48.484375 
Q 21.1875 48.484375 17.84375 46.4375 
Q 14.5 44.390625 14.5 40.28125 
Q 14.5 37.15625 16.890625 35.375 
Q 19.28125 33.59375 26.515625 31.984375 
L 29.59375 31.296875 
Q 39.15625 29.25 43.1875 25.515625 
Q 47.21875 21.78125 47.21875 15.09375 
Q 47.21875 7.46875 41.1875 3.015625 
Q 35.15625 -1.421875 24.609375 -1.421875 
Q 20.21875 -1.421875 15.453125 -0.5625 
Q 10.6875 0.296875 5.421875 2 
L 5.421875 11.28125 
Q 10.40625 8.6875 15.234375 7.390625 
Q 20.0625 6.109375 24.8125 6.109375 
Q 31.15625 6.109375 34.5625 8.28125 
Q 37.984375 10.453125 37.984375 14.40625 
Q 37.984375 18.0625 35.515625 20.015625 
Q 33.0625 21.96875 24.703125 23.78125 
L 21.578125 24.515625 
Q 13.234375 26.265625 9.515625 29.90625 
Q 5.8125 33.546875 5.8125 39.890625 
Q 5.8125 47.609375 11.28125 51.796875 
Q 16.75 56 26.8125 56 
Q 31.78125 56 36.171875 55.265625 
Q 40.578125 54.546875 44.28125 53.078125 
z
" id="DejaVuSans-115"/>
      </defs>
      <use xlink:href="#DejaVuSans-102"/>
      <use x="35.205078" xlink:href="#DejaVuSans-98"/>
      <use x="98.681641" xlink:href="#DejaVuSans-115"/>
     </g>
    </g>
   </g>
   <g id="matplotlib.axis_2">
    <g id="ytick_1">
     <g id="line2d_7">
      <path clip-path="url(#p1244847b3b)" d="M 34.193438 180.218125 
L 849.2826 180.218125 
" style="fill:none;stroke:#ffffff;stroke-linecap:round;"/>
     </g>
     <g id="text_8">
      <!-- 0.0 -->
      <g style="fill:#262626;" transform="translate(7.2 184.397266)scale(0.11 -0.11)">
       <use xlink:href="#DejaVuSans-48"/>
       <use x="63.623047" xlink:href="#DejaVuSans-46"/>
       <use x="95.410156" xlink:href="#DejaVuSans-48"/>
      </g>
     </g>
    </g>
    <g id="ytick_2">
     <g id="line2d_8">
      <path clip-path="url(#p1244847b3b)" d="M 34.193438 152.807778 
L 849.2826 152.807778 
" style="fill:none;stroke:#ffffff;stroke-linecap:round;"/>
     </g>
     <g id="text_9">
      <!-- 0.5 -->
      <g style="fill:#262626;" transform="translate(7.2 156.986919)scale(0.11 -0.11)">
       <defs>
        <path d="M 10.796875 72.90625 
L 49.515625 72.90625 
L 49.515625 64.59375 
L 19.828125 64.59375 
L 19.828125 46.734375 
Q 21.96875 47.46875 24.109375 47.828125 
Q 26.265625 48.1875 28.421875 48.1875 
Q 40.625 48.1875 47.75 41.5 
Q 54.890625 34.8125 54.890625 23.390625 
Q 54.890625 11.625 47.5625 5.09375 
Q 40.234375 -1.421875 26.90625 -1.421875 
Q 22.3125 -1.421875 17.546875 -0.640625 
Q 12.796875 0.140625 7.71875 1.703125 
L 7.71875 11.625 
Q 12.109375 9.234375 16.796875 8.0625 
Q 21.484375 6.890625 26.703125 6.890625 
Q 35.15625 6.890625 40.078125 11.328125 
Q 45.015625 15.765625 45.015625 23.390625 
Q 45.015625 31 40.078125 35.4375 
Q 35.15625 39.890625 26.703125 39.890625 
Q 22.75 39.890625 18.8125 39.015625 
Q 14.890625 38.140625 10.796875 36.28125 
z
" id="DejaVuSans-53"/>
       </defs>
       <use xlink:href="#DejaVuSans-48"/>
       <use x="63.623047" xlink:href="#DejaVuSans-46"/>
       <use x="95.410156" xlink:href="#DejaVuSans-53"/>
      </g>
     </g>
    </g>
    <g id="ytick_3">
     <g id="line2d_9">
      <path clip-path="url(#p1244847b3b)" d="M 34.193438 125.397432 
L 849.2826 125.397432 
" style="fill:none;stroke:#ffffff;stroke-linecap:round;"/>
     </g>
     <g id="text_10">
      <!-- 1.0 -->
      <g style="fill:#262626;" transform="translate(7.2 129.576572)scale(0.11 -0.11)">
       <use xlink:href="#DejaVuSans-49"/>
       <use x="63.623047" xlink:href="#DejaVuSans-46"/>
       <use x="95.410156" xlink:href="#DejaVuSans-48"/>
      </g>
     </g>
    </g>
    <g id="ytick_4">
     <g id="line2d_10">
      <path clip-path="url(#p1244847b3b)" d="M 34.193438 97.987085 
L 849.2826 97.987085 
" style="fill:none;stroke:#ffffff;stroke-linecap:round;"/>
     </g>
     <g id="text_11">
      <!-- 1.5 -->
      <g style="fill:#262626;" transform="translate(7.2 102.166226)scale(0.11 -0.11)">
       <use xlink:href="#DejaVuSans-49"/>
       <use x="63.623047" xlink:href="#DejaVuSans-46"/>
       <use x="95.410156" xlink:href="#DejaVuSans-53"/>
      </g>
     </g>
    </g>
    <g id="ytick_5">
     <g id="line2d_11">
      <path clip-path="url(#p1244847b3b)" d="M 34.193438 70.576738 
L 849.2826 70.576738 
" style="fill:none;stroke:#ffffff;stroke-linecap:round;"/>
     </g>
     <g id="text_12">
      <!-- 2.0 -->
      <g style="fill:#262626;" transform="translate(7.2 74.755879)scale(0.11 -0.11)">
       <use xlink:href="#DejaVuSans-50"/>
       <use x="63.623047" xlink:href="#DejaVuSans-46"/>
       <use x="95.410156" xlink:href="#DejaVuSans-48"/>
      </g>
     </g>
    </g>
    <g id="ytick_6">
     <g id="line2d_12">
      <path clip-path="url(#p1244847b3b)" d="M 34.193438 43.166392 
L 849.2826 43.166392 
" style="fill:none;stroke:#ffffff;stroke-linecap:round;"/>
     </g>
     <g id="text_13">
      <!-- 2.5 -->
      <g style="fill:#262626;" transform="translate(7.2 47.345532)scale(0.11 -0.11)">
       <use xlink:href="#DejaVuSans-50"/>
       <use x="63.623047" xlink:href="#DejaVuSans-46"/>
       <use x="95.410156" xlink:href="#DejaVuSans-53"/>
      </g>
     </g>
    </g>
   </g>
   <g id="PolyCollection_1">
    <path clip-path="url(#p1244847b3b)" d="M -301.150967 178.728957 
L -301.150967 180.218125 
L -293.684746 180.218125 
L -286.218525 180.218125 
L -278.752304 180.218125 
L -271.286083 180.218125 
L -263.819862 180.218125 
L -256.353641 180.218125 
L -248.88742 180.218125 
L -241.421199 180.218125 
L -233.954978 180.218125 
L -226.488757 180.218125 
L -219.022537 180.218125 
L -211.556316 180.218125 
L -204.090095 180.218125 
L -196.623874 180.218125 
L -189.157653 180.218125 
L -181.691432 180.218125 
L -174.225211 180.218125 
L -166.75899 180.218125 
L -159.292769 180.218125 
L -151.826548 180.218125 
L -144.360327 180.218125 
L -136.894106 180.218125 
L -129.427885 180.218125 
L -121.961664 180.218125 
L -114.495443 180.218125 
L -107.029222 180.218125 
L -99.563001 180.218125 
L -92.09678 180.218125 
L -84.630559 180.218125 
L -77.164338 180.218125 
L -69.698117 180.218125 
L -62.231896 180.218125 
L -54.765675 180.218125 
L -47.299454 180.218125 
L -39.833233 180.218125 
L -32.367012 180.218125 
L -24.900792 180.218125 
L -17.434571 180.218125 
L -9.96835 180.218125 
L -2.502129 180.218125 
L 4.964092 180.218125 
L 12.430313 180.218125 
L 19.896534 180.218125 
L 27.362755 180.218125 
L 34.828976 180.218125 
L 42.295197 180.218125 
L 49.761418 180.218125 
L 57.227639 180.218125 
L 64.69386 180.218125 
L 72.160081 180.218125 
L 79.626302 180.218125 
L 87.092523 180.218125 
L 94.558744 180.218125 
L 102.024965 180.218125 
L 109.491186 180.218125 
L 116.957407 180.218125 
L 124.423628 180.218125 
L 131.889849 180.218125 
L 139.35607 180.218125 
L 146.822291 180.218125 
L 154.288512 180.218125 
L 161.754733 180.218125 
L 169.220953 180.218125 
L 176.687174 180.218125 
L 184.153395 180.218125 
L 191.619616 180.218125 
L 199.085837 180.218125 
L 206.552058 180.218125 
L 214.018279 180.218125 
L 221.4845 180.218125 
L 228.950721 180.218125 
L 236.416942 180.218125 
L 243.883163 180.218125 
L 251.349384 180.218125 
L 258.815605 180.218125 
L 266.281826 180.218125 
L 273.748047 180.218125 
L 281.214268 180.218125 
L 288.680489 180.218125 
L 296.14671 180.218125 
L 303.612931 180.218125 
L 311.079152 180.218125 
L 318.545373 180.218125 
L 326.011594 180.218125 
L 333.477815 180.218125 
L 340.944036 180.218125 
L 348.410257 180.218125 
L 355.876478 180.218125 
L 363.342698 180.218125 
L 370.808919 180.218125 
L 378.27514 180.218125 
L 385.741361 180.218125 
L 393.207582 180.218125 
L 400.673803 180.218125 
L 408.140024 180.218125 
L 415.606245 180.218125 
L 423.072466 180.218125 
L 430.538687 180.218125 
L 438.004908 180.218125 
L 445.471129 180.218125 
L 452.93735 180.218125 
L 460.403571 180.218125 
L 467.869792 180.218125 
L 475.336013 180.218125 
L 482.802234 180.218125 
L 490.268455 180.218125 
L 497.734676 180.218125 
L 505.200897 180.218125 
L 512.667118 180.218125 
L 520.133339 180.218125 
L 527.59956 180.218125 
L 535.065781 180.218125 
L 542.532002 180.218125 
L 549.998223 180.218125 
L 557.464443 180.218125 
L 564.930664 180.218125 
L 572.396885 180.218125 
L 579.863106 180.218125 
L 587.329327 180.218125 
L 594.795548 180.218125 
L 602.261769 180.218125 
L 609.72799 180.218125 
L 617.194211 180.218125 
L 624.660432 180.218125 
L 632.126653 180.218125 
L 639.592874 180.218125 
L 647.059095 180.218125 
L 654.525316 180.218125 
L 661.991537 180.218125 
L 669.457758 180.218125 
L 676.923979 180.218125 
L 684.3902 180.218125 
L 691.856421 180.218125 
L 699.322642 180.218125 
L 706.788863 180.218125 
L 714.255084 180.218125 
L 721.721305 180.218125 
L 729.187526 180.218125 
L 736.653747 180.218125 
L 744.119968 180.218125 
L 751.586188 180.218125 
L 759.052409 180.218125 
L 766.51863 180.218125 
L 773.984851 180.218125 
L 781.451072 180.218125 
L 788.917293 180.218125 
L 796.383514 180.218125 
L 803.849735 180.218125 
L 811.315956 180.218125 
L 818.782177 180.218125 
L 826.248398 180.218125 
L 833.714619 180.218125 
L 841.18084 180.218125 
L 848.647061 180.218125 
L 856.113282 180.218125 
L 863.579503 180.218125 
L 871.045724 180.218125 
L 878.511945 180.218125 
L 885.978166 180.218125 
L 893.444387 180.218125 
L 900.910608 180.218125 
L 908.376829 180.218125 
L 915.84305 180.218125 
L 923.309271 180.218125 
L 930.775492 180.218125 
L 938.241713 180.218125 
L 945.707933 180.218125 
L 953.174154 180.218125 
L 960.640375 180.218125 
L 968.106596 180.218125 
L 975.572817 180.218125 
L 983.039038 180.218125 
L 990.505259 180.218125 
L 997.97148 180.218125 
L 1005.437701 180.218125 
L 1012.903922 180.218125 
L 1020.370143 180.218125 
L 1027.836364 180.218125 
L 1035.302585 180.218125 
L 1042.768806 180.218125 
L 1050.235027 180.218125 
L 1057.701248 180.218125 
L 1065.167469 180.218125 
L 1072.63369 180.218125 
L 1080.099911 180.218125 
L 1087.566132 180.218125 
L 1095.032353 180.218125 
L 1102.498574 180.218125 
L 1109.964795 180.218125 
L 1117.431016 180.218125 
L 1124.897237 180.218125 
L 1132.363458 180.218125 
L 1139.829678 180.218125 
L 1147.295899 180.218125 
L 1154.76212 180.218125 
L 1162.228341 180.218125 
L 1169.694562 180.218125 
L 1177.160783 180.218125 
L 1184.627004 180.218125 
L 1184.627004 179.935697 
L 1184.627004 179.935697 
L 1177.160783 179.873804 
L 1169.694562 179.800217 
L 1162.228341 179.713161 
L 1154.76212 179.610687 
L 1147.295899 179.490669 
L 1139.829678 179.350816 
L 1132.363458 179.188679 
L 1124.897237 179.001671 
L 1117.431016 178.78709 
L 1109.964795 178.542151 
L 1102.498574 178.264024 
L 1095.032353 177.949885 
L 1087.566132 177.596966 
L 1080.099911 177.202617 
L 1072.63369 176.764383 
L 1065.167469 176.28007 
L 1057.701248 175.747829 
L 1050.235027 175.166244 
L 1042.768806 174.534407 
L 1035.302585 173.852012 
L 1027.836364 173.119427 
L 1020.370143 172.337775 
L 1012.903922 171.508994 
L 1005.437701 170.635895 
L 997.97148 169.722197 
L 990.505259 168.772552 
L 983.039038 167.792542 
L 975.572817 166.788668 
L 968.106596 165.768299 
L 960.640375 164.739611 
L 953.174154 163.711496 
L 945.707933 162.693449 
L 938.241713 161.695434 
L 930.775492 160.72773 
L 923.309271 159.80076 
L 915.84305 158.924911 
L 908.376829 158.110341 
L 900.910608 157.366784 
L 893.444387 156.703359 
L 885.978166 156.128386 
L 878.511945 155.649208 
L 871.045724 155.272039 
L 863.579503 155.00183 
L 856.113282 154.842156 
L 848.647061 154.795144 
L 841.18084 154.861422 
L 833.714619 155.040105 
L 826.248398 155.328815 
L 818.782177 155.723736 
L 811.315956 156.219695 
L 803.849735 156.810274 
L 796.383514 157.487952 
L 788.917293 158.244262 
L 781.451072 159.069967 
L 773.984851 159.955245 
L 766.51863 160.889886 
L 759.052409 161.863485 
L 751.586188 162.865629 
L 744.119968 163.886083 
L 736.653747 164.914951 
L 729.187526 165.942832 
L 721.721305 166.960949 
L 714.255084 167.961257 
L 706.788863 168.936531 
L 699.322642 169.880425 
L 691.856421 170.787513 
L 684.3902 171.653302 
L 676.923979 172.47423 
L 669.457758 173.247639 
L 661.991537 173.97173 
L 654.525316 174.645516 
L 647.059095 175.268747 
L 639.592874 175.841835 
L 632.126653 176.365778 
L 624.660432 176.842071 
L 617.194211 177.272621 
L 609.72799 177.659668 
L 602.261769 178.005699 
L 594.795548 178.313377 
L 587.329327 178.58547 
L 579.863106 178.824791 
L 572.396885 179.03414 
L 564.930664 179.216259 
L 557.464443 179.373792 
L 549.998223 179.509248 
L 542.532002 179.624981 
L 535.065781 179.723161 
L 527.59956 179.805767 
L 520.133339 179.874564 
L 512.667118 179.931104 
L 505.200897 179.976713 
L 497.734676 180.012482 
L 490.268455 180.039269 
L 482.802234 180.057682 
L 475.336013 180.068076 
L 467.869792 180.070536 
L 460.403571 180.064864 
L 452.93735 180.050559 
L 445.471129 180.02679 
L 438.004908 179.992367 
L 430.538687 179.945708 
L 423.072466 179.884796 
L 415.606245 179.807137 
L 408.140024 179.709707 
L 400.673803 179.588902 
L 393.207582 179.440479 
L 385.741361 179.259501 
L 378.27514 179.040281 
L 370.808919 178.776323 
L 363.342698 178.460283 
L 355.876478 178.08392 
L 348.410257 177.638073 
L 340.944036 177.112647 
L 333.477815 176.496619 
L 326.011594 175.778068 
L 318.545373 174.944233 
L 311.079152 173.981596 
L 303.612931 172.876012 
L 296.14671 171.612863 
L 288.680489 170.177261 
L 281.214268 168.554286 
L 273.748047 166.729274 
L 266.281826 164.688133 
L 258.815605 162.417707 
L 251.349384 159.906167 
L 243.883163 157.143432 
L 236.416942 154.121605 
L 228.950721 150.83542 
L 221.4845 147.282686 
L 214.018279 143.464717 
L 206.552058 139.386725 
L 199.085837 135.05818 
L 191.619616 130.493098 
L 184.153395 125.710266 
L 176.687174 120.733367 
L 169.220953 115.591011 
L 161.754733 110.316657 
L 154.288512 104.948402 
L 146.822291 99.528664 
L 139.35607 94.103723 
L 131.889849 88.723149 
L 124.423628 83.439114 
L 116.957407 78.305592 
L 109.491186 73.377483 
L 102.024965 68.709654 
L 94.558744 64.35594 
L 87.092523 60.368123 
L 79.626302 56.79491 
L 72.160081 53.680947 
L 64.69386 51.065893 
L 57.227639 48.983582 
L 49.761418 47.46129 
L 42.295197 46.519144 
L 34.828976 46.169679 
L 27.362755 46.41756 
L 19.896534 47.259477 
L 12.430313 48.68422 
L 4.964092 50.672927 
L -2.502129 53.199502 
L -9.96835 56.23118 
L -17.434571 59.729236 
L -24.900792 63.649809 
L -32.367012 67.944817 
L -39.833233 72.562929 
L -47.299454 77.450586 
L -54.765675 82.553027 
L -62.231896 87.815288 
L -69.698117 93.183172 
L -77.164338 98.604142 
L -84.630559 104.028133 
L -92.09678 109.408261 
L -99.563001 114.701416 
L -107.029222 119.868738 
L -114.495443 124.875961 
L -121.961664 129.693641 
L -129.427885 134.297255 
L -136.894106 138.667188 
L -144.360327 142.788627 
L -151.826548 146.651346 
L -159.292769 150.249431 
L -166.75899 153.580933 
L -174.225211 156.647476 
L -181.691432 159.453833 
L -189.157653 162.007486 
L -196.623874 164.318176 
L -204.090095 166.397466 
L -211.556316 168.258316 
L -219.022537 169.914685 
L -226.488757 171.381169 
L -233.954978 172.672667 
L -241.421199 173.804094 
L -248.88742 174.790136 
L -256.353641 175.64504 
L -263.819862 176.382447 
L -271.286083 177.015268 
L -278.752304 177.55559 
L -286.218525 178.014612 
L -293.684746 178.402616 
L -301.150967 178.728957 
z
" style="fill:#4c72b0;fill-opacity:0.25;stroke:#4c72b0;"/>
   </g>
   <g id="PolyCollection_2">
    <path clip-path="url(#p1244847b3b)" d="M -271.772992 178.547087 
L -271.772992 180.218125 
L -264.602027 180.218125 
L -257.431062 180.218125 
L -250.260097 180.218125 
L -243.089132 180.218125 
L -235.918167 180.218125 
L -228.747202 180.218125 
L -221.576238 180.218125 
L -214.405273 180.218125 
L -207.234308 180.218125 
L -200.063343 180.218125 
L -192.892378 180.218125 
L -185.721413 180.218125 
L -178.550448 180.218125 
L -171.379483 180.218125 
L -164.208518 180.218125 
L -157.037553 180.218125 
L -149.866588 180.218125 
L -142.695623 180.218125 
L -135.524658 180.218125 
L -128.353693 180.218125 
L -121.182728 180.218125 
L -114.011764 180.218125 
L -106.840799 180.218125 
L -99.669834 180.218125 
L -92.498869 180.218125 
L -85.327904 180.218125 
L -78.156939 180.218125 
L -70.985974 180.218125 
L -63.815009 180.218125 
L -56.644044 180.218125 
L -49.473079 180.218125 
L -42.302114 180.218125 
L -35.131149 180.218125 
L -27.960184 180.218125 
L -20.789219 180.218125 
L -13.618255 180.218125 
L -6.44729 180.218125 
L 0.723675 180.218125 
L 7.89464 180.218125 
L 15.065605 180.218125 
L 22.23657 180.218125 
L 29.407535 180.218125 
L 36.5785 180.218125 
L 43.749465 180.218125 
L 50.92043 180.218125 
L 58.091395 180.218125 
L 65.26236 180.218125 
L 72.433325 180.218125 
L 79.60429 180.218125 
L 86.775255 180.218125 
L 93.946219 180.218125 
L 101.117184 180.218125 
L 108.288149 180.218125 
L 115.459114 180.218125 
L 122.630079 180.218125 
L 129.801044 180.218125 
L 136.972009 180.218125 
L 144.142974 180.218125 
L 151.313939 180.218125 
L 158.484904 180.218125 
L 165.655869 180.218125 
L 172.826834 180.218125 
L 179.997799 180.218125 
L 187.168764 180.218125 
L 194.339728 180.218125 
L 201.510693 180.218125 
L 208.681658 180.218125 
L 215.852623 180.218125 
L 223.023588 180.218125 
L 230.194553 180.218125 
L 237.365518 180.218125 
L 244.536483 180.218125 
L 251.707448 180.218125 
L 258.878413 180.218125 
L 266.049378 180.218125 
L 273.220343 180.218125 
L 280.391308 180.218125 
L 287.562273 180.218125 
L 294.733238 180.218125 
L 301.904202 180.218125 
L 309.075167 180.218125 
L 316.246132 180.218125 
L 323.417097 180.218125 
L 330.588062 180.218125 
L 337.759027 180.218125 
L 344.929992 180.218125 
L 352.100957 180.218125 
L 359.271922 180.218125 
L 366.442887 180.218125 
L 373.613852 180.218125 
L 380.784817 180.218125 
L 387.955782 180.218125 
L 395.126747 180.218125 
L 402.297711 180.218125 
L 409.468676 180.218125 
L 416.639641 180.218125 
L 423.810606 180.218125 
L 430.981571 180.218125 
L 438.152536 180.218125 
L 445.323501 180.218125 
L 452.494466 180.218125 
L 459.665431 180.218125 
L 466.836396 180.218125 
L 474.007361 180.218125 
L 481.178326 180.218125 
L 488.349291 180.218125 
L 495.520256 180.218125 
L 502.691221 180.218125 
L 509.862185 180.218125 
L 517.03315 180.218125 
L 524.204115 180.218125 
L 531.37508 180.218125 
L 538.546045 180.218125 
L 545.71701 180.218125 
L 552.887975 180.218125 
L 560.05894 180.218125 
L 567.229905 180.218125 
L 574.40087 180.218125 
L 581.571835 180.218125 
L 588.7428 180.218125 
L 595.913765 180.218125 
L 603.08473 180.218125 
L 610.255694 180.218125 
L 617.426659 180.218125 
L 624.597624 180.218125 
L 631.768589 180.218125 
L 638.939554 180.218125 
L 646.110519 180.218125 
L 653.281484 180.218125 
L 660.452449 180.218125 
L 667.623414 180.218125 
L 674.794379 180.218125 
L 681.965344 180.218125 
L 689.136309 180.218125 
L 696.307274 180.218125 
L 703.478239 180.218125 
L 710.649203 180.218125 
L 717.820168 180.218125 
L 724.991133 180.218125 
L 732.162098 180.218125 
L 739.333063 180.218125 
L 746.504028 180.218125 
L 753.674993 180.218125 
L 760.845958 180.218125 
L 768.016923 180.218125 
L 775.187888 180.218125 
L 782.358853 180.218125 
L 789.529818 180.218125 
L 796.700783 180.218125 
L 803.871748 180.218125 
L 811.042713 180.218125 
L 818.213677 180.218125 
L 825.384642 180.218125 
L 832.555607 180.218125 
L 839.726572 180.218125 
L 846.897537 180.218125 
L 854.068502 180.218125 
L 861.239467 180.218125 
L 868.410432 180.218125 
L 875.581397 180.218125 
L 882.752362 180.218125 
L 889.923327 180.218125 
L 897.094292 180.218125 
L 904.265257 180.218125 
L 911.436222 180.218125 
L 918.607186 180.218125 
L 925.778151 180.218125 
L 932.949116 180.218125 
L 940.120081 180.218125 
L 947.291046 180.218125 
L 954.462011 180.218125 
L 961.632976 180.218125 
L 968.803941 180.218125 
L 975.974906 180.218125 
L 983.145871 180.218125 
L 990.316836 180.218125 
L 997.487801 180.218125 
L 1004.658766 180.218125 
L 1011.829731 180.218125 
L 1019.000696 180.218125 
L 1026.17166 180.218125 
L 1033.342625 180.218125 
L 1040.51359 180.218125 
L 1047.684555 180.218125 
L 1054.85552 180.218125 
L 1062.026485 180.218125 
L 1069.19745 180.218125 
L 1076.368415 180.218125 
L 1083.53938 180.218125 
L 1090.710345 180.218125 
L 1097.88131 180.218125 
L 1105.052275 180.218125 
L 1112.22324 180.218125 
L 1119.394205 180.218125 
L 1126.565169 180.218125 
L 1133.736134 180.218125 
L 1140.907099 180.218125 
L 1148.078064 180.218125 
L 1155.249029 180.218125 
L 1155.249029 179.947464 
L 1155.249029 179.947464 
L 1148.078064 179.884729 
L 1140.907099 179.80948 
L 1133.736134 179.719715 
L 1126.565169 179.613231 
L 1119.394205 179.487616 
L 1112.22324 179.340267 
L 1105.052275 179.168399 
L 1097.88131 178.969072 
L 1090.710345 178.739225 
L 1083.53938 178.475718 
L 1076.368415 178.175384 
L 1069.19745 177.835092 
L 1062.026485 177.451821 
L 1054.85552 177.022744 
L 1047.684555 176.545316 
L 1040.51359 176.017373 
L 1033.342625 175.437235 
L 1026.17166 174.80381 
L 1019.000696 174.116701 
L 1011.829731 173.376301 
L 1004.658766 172.58389 
L 997.487801 171.74171 
L 990.316836 170.853037 
L 983.145871 169.922221 
L 975.974906 168.954709 
L 968.803941 167.957045 
L 961.632976 166.936833 
L 954.462011 165.902678 
L 947.291046 164.864091 
L 940.120081 163.831366 
L 932.949116 162.815426 
L 925.778151 161.827641 
L 918.607186 160.879629 
L 911.436222 159.983032 
L 904.265257 159.149281 
L 897.094292 158.389358 
L 889.923327 157.713557 
L 882.752362 157.13125 
L 875.581397 156.650674 
L 868.410432 156.278736 
L 861.239467 156.020848 
L 854.068502 155.880796 
L 846.897537 155.860647 
L 839.726572 155.960699 
L 832.555607 156.179473 
L 825.384642 156.513752 
L 818.213677 156.958653 
L 811.042713 157.507756 
L 803.871748 158.153247 
L 796.700783 158.886111 
L 789.529818 159.696338 
L 782.358853 160.57315 
L 775.187888 161.505239 
L 768.016923 162.481007 
L 760.845958 163.488804 
L 753.674993 164.517152 
L 746.504028 165.554957 
L 739.333063 166.591697 
L 732.162098 167.617582 
L 724.991133 168.623693 
L 717.820168 169.602082 
L 710.649203 170.545845 
L 703.478239 171.449166 
L 696.307274 172.307329 
L 689.136309 173.116703 
L 681.965344 173.874705 
L 674.794379 174.579742 
L 667.623414 175.231132 
L 660.452449 175.829021 
L 653.281484 176.374278 
L 646.110519 176.868399 
L 638.939554 177.313397 
L 631.768589 177.711698 
L 624.597624 178.066048 
L 617.426659 178.379412 
L 610.255694 178.654891 
L 603.08473 178.895646 
L 595.913765 179.104832 
L 588.7428 179.285541 
L 581.571835 179.440755 
L 574.40087 179.573309 
L 567.229905 179.685865 
L 560.05894 179.780894 
L 552.887975 179.86066 
L 545.71701 179.92722 
L 538.546045 179.982418 
L 531.37508 180.027892 
L 524.204115 180.065081 
L 517.03315 180.095232 
L 509.862185 180.119409 
L 502.691221 180.138505 
L 495.520256 180.15325 
L 488.349291 180.164218 
L 481.178326 180.171834 
L 474.007361 180.176376 
L 466.836396 180.177973 
L 459.665431 180.176602 
L 452.494466 180.172078 
L 445.323501 180.164041 
L 438.152536 180.151934 
L 430.981571 180.134981 
L 423.810606 180.112147 
L 416.639641 180.082106 
L 409.468676 180.043191 
L 402.297711 179.993338 
L 395.126747 179.930025 
L 387.955782 179.850206 
L 380.784817 179.750227 
L 373.613852 179.625754 
L 366.442887 179.471679 
L 359.271922 179.282033 
L 352.100957 179.049897 
L 344.929992 178.767317 
L 337.759027 178.425223 
L 330.588062 178.013357 
L 323.417097 177.520224 
L 316.246132 176.933058 
L 309.075167 176.237817 
L 301.904202 175.419213 
L 294.733238 174.460779 
L 287.562273 173.344987 
L 280.391308 172.053413 
L 273.220343 170.566959 
L 266.049378 168.866142 
L 258.878413 166.931439 
L 251.707448 164.743697 
L 244.536483 162.284605 
L 237.365518 159.537223 
L 230.194553 156.48656 
L 223.023588 153.120184 
L 215.852623 149.428869 
L 208.681658 145.407238 
L 201.510693 141.054403 
L 194.339728 136.374563 
L 187.168764 131.37756 
L 179.997799 126.079338 
L 172.826834 120.502312 
L 165.655869 114.6756 
L 158.484904 108.635112 
L 151.313939 102.423469 
L 144.142974 96.089741 
L 136.972009 89.689001 
L 129.801044 83.281683 
L 122.630079 76.932753 
L 115.459114 70.710704 
L 108.288149 64.686396 
L 101.117184 58.931759 
L 93.946219 53.518398 
L 86.775255 48.516126 
L 79.60429 43.991487 
L 72.433325 40.006281 
L 65.26236 36.61617 
L 58.091395 33.869385 
L 50.92043 31.805579 
L 43.749465 30.454884 
L 36.5785 29.837173 
L 29.407535 29.961572 
L 22.23657 30.826243 
L 15.065605 32.418421 
L 7.89464 34.714732 
L 0.723675 37.681766 
L -6.44729 41.276878 
L -13.618255 45.449217 
L -20.789219 50.140914 
L -27.960184 55.288421 
L -35.131149 60.823935 
L -42.302114 66.676877 
L -49.473079 72.775373 
L -56.644044 79.047701 
L -63.815009 85.423655 
L -70.985974 91.835799 
L -78.156939 98.220582 
L -85.327904 104.519283 
L -92.498869 110.678775 
L -99.669834 116.652108 
L -106.840799 122.398887 
L -114.011764 127.885477 
L -121.182728 133.08502 
L -128.353693 137.977301 
L -135.524658 142.548465 
L -142.695623 146.790617 
L -149.866588 150.701324 
L -157.037553 154.283046 
L -164.208518 157.542522 
L -171.379483 160.490123 
L -178.550448 163.139208 
L -185.721413 165.505486 
L -192.892378 167.60642 
L -200.063343 169.460659 
L -207.234308 171.087528 
L -214.405273 172.50658 
L -221.576238 173.737207 
L -228.747202 174.798307 
L -235.918167 175.708028 
L -243.089132 176.48356 
L -250.260097 177.140986 
L -257.431062 177.695183 
L -264.602027 178.15977 
L -271.772992 178.547087 
z
" style="fill:#dd8452;fill-opacity:0.25;stroke:#dd8452;"/>
   </g>
   <g id="patch_3">
    <path d="M 34.193438 180.218125 
L 34.193438 22.318125 
" style="fill:none;stroke:#ffffff;stroke-linecap:square;stroke-linejoin:miter;stroke-width:1.25;"/>
   </g>
   <g id="patch_4">
    <path d="M 34.193438 180.218125 
L 849.2826 180.218125 
" style="fill:none;stroke:#ffffff;stroke-linecap:square;stroke-linejoin:miter;stroke-width:1.25;"/>
   </g>
   <g id="text_14">
    <!-- Output: fbs -->
    <g style="fill:#262626;" transform="translate(407.921456 16.318125)scale(0.12 -0.12)">
     <defs>
      <path d="M 39.40625 66.21875 
Q 28.65625 66.21875 22.328125 58.203125 
Q 16.015625 50.203125 16.015625 36.375 
Q 16.015625 22.609375 22.328125 14.59375 
Q 28.65625 6.59375 39.40625 6.59375 
Q 50.140625 6.59375 56.421875 14.59375 
Q 62.703125 22.609375 62.703125 36.375 
Q 62.703125 50.203125 56.421875 58.203125 
Q 50.140625 66.21875 39.40625 66.21875 
z
M 39.40625 74.21875 
Q 54.734375 74.21875 63.90625 63.9375 
Q 73.09375 53.65625 73.09375 36.375 
Q 73.09375 19.140625 63.90625 8.859375 
Q 54.734375 -1.421875 39.40625 -1.421875 
Q 24.03125 -1.421875 14.8125 8.828125 
Q 5.609375 19.09375 5.609375 36.375 
Q 5.609375 53.65625 14.8125 63.9375 
Q 24.03125 74.21875 39.40625 74.21875 
z
" id="DejaVuSans-79"/>
      <path d="M 8.5 21.578125 
L 8.5 54.6875 
L 17.484375 54.6875 
L 17.484375 21.921875 
Q 17.484375 14.15625 20.5 10.265625 
Q 23.53125 6.390625 29.59375 6.390625 
Q 36.859375 6.390625 41.078125 11.03125 
Q 45.3125 15.671875 45.3125 23.6875 
L 45.3125 54.6875 
L 54.296875 54.6875 
L 54.296875 0 
L 45.3125 0 
L 45.3125 8.40625 
Q 42.046875 3.421875 37.71875 1 
Q 33.40625 -1.421875 27.6875 -1.421875 
Q 18.265625 -1.421875 13.375 4.4375 
Q 8.5 10.296875 8.5 21.578125 
z
M 31.109375 56 
z
" id="DejaVuSans-117"/>
      <path d="M 18.3125 70.21875 
L 18.3125 54.6875 
L 36.8125 54.6875 
L 36.8125 47.703125 
L 18.3125 47.703125 
L 18.3125 18.015625 
Q 18.3125 11.328125 20.140625 9.421875 
Q 21.96875 7.515625 27.59375 7.515625 
L 36.8125 7.515625 
L 36.8125 0 
L 27.59375 0 
Q 17.1875 0 13.234375 3.875 
Q 9.28125 7.765625 9.28125 18.015625 
L 9.28125 47.703125 
L 2.6875 47.703125 
L 2.6875 54.6875 
L 9.28125 54.6875 
L 9.28125 70.21875 
z
" id="DejaVuSans-116"/>
      <path d="M 18.109375 8.203125 
L 18.109375 -20.796875 
L 9.078125 -20.796875 
L 9.078125 54.6875 
L 18.109375 54.6875 
L 18.109375 46.390625 
Q 20.953125 51.265625 25.265625 53.625 
Q 29.59375 56 35.59375 56 
Q 45.5625 56 51.78125 48.09375 
Q 58.015625 40.1875 58.015625 27.296875 
Q 58.015625 14.40625 51.78125 6.484375 
Q 45.5625 -1.421875 35.59375 -1.421875 
Q 29.59375 -1.421875 25.265625 0.953125 
Q 20.953125 3.328125 18.109375 8.203125 
z
M 48.6875 27.296875 
Q 48.6875 37.203125 44.609375 42.84375 
Q 40.53125 48.484375 33.40625 48.484375 
Q 26.265625 48.484375 22.1875 42.84375 
Q 18.109375 37.203125 18.109375 27.296875 
Q 18.109375 17.390625 22.1875 11.75 
Q 26.265625 6.109375 33.40625 6.109375 
Q 40.53125 6.109375 44.609375 11.75 
Q 48.6875 17.390625 48.6875 27.296875 
z
" id="DejaVuSans-112"/>
      <path d="M 11.71875 12.40625 
L 22.015625 12.40625 
L 22.015625 0 
L 11.71875 0 
z
M 11.71875 51.703125 
L 22.015625 51.703125 
L 22.015625 39.3125 
L 11.71875 39.3125 
z
" id="DejaVuSans-58"/>
      <path id="DejaVuSans-32"/>
     </defs>
     <use xlink:href="#DejaVuSans-79"/>
     <use x="78.710938" xlink:href="#DejaVuSans-117"/>
     <use x="142.089844" xlink:href="#DejaVuSans-116"/>
     <use x="181.298828" xlink:href="#DejaVuSans-112"/>
     <use x="244.775391" xlink:href="#DejaVuSans-117"/>
     <use x="308.154297" xlink:href="#DejaVuSans-116"/>
     <use x="347.363281" xlink:href="#DejaVuSans-58"/>
     <use x="381.054688" xlink:href="#DejaVuSans-32"/>
     <use x="412.841797" xlink:href="#DejaVuSans-102"/>
     <use x="448.046875" xlink:href="#DejaVuSans-98"/>
     <use x="511.523438" xlink:href="#DejaVuSans-115"/>
    </g>
   </g>
  </g>
  <g id="legend_1">
   <g id="text_15">
    <!-- output -->
    <g style="fill:#262626;" transform="translate(859.052475 98.754219)scale(0.12 -0.12)">
     <defs>
      <path d="M 30.609375 48.390625 
Q 23.390625 48.390625 19.1875 42.75 
Q 14.984375 37.109375 14.984375 27.296875 
Q 14.984375 17.484375 19.15625 11.84375 
Q 23.34375 6.203125 30.609375 6.203125 
Q 37.796875 6.203125 41.984375 11.859375 
Q 46.1875 17.53125 46.1875 27.296875 
Q 46.1875 37.015625 41.984375 42.703125 
Q 37.796875 48.390625 30.609375 48.390625 
z
M 30.609375 56 
Q 42.328125 56 49.015625 48.375 
Q 55.71875 40.765625 55.71875 27.296875 
Q 55.71875 13.875 49.015625 6.21875 
Q 42.328125 -1.421875 30.609375 -1.421875 
Q 18.84375 -1.421875 12.171875 6.21875 
Q 5.515625 13.875 5.515625 27.296875 
Q 5.515625 40.765625 12.171875 48.375 
Q 18.84375 56 30.609375 56 
z
" id="DejaVuSans-111"/>
     </defs>
     <use xlink:href="#DejaVuSans-111"/>
     <use x="61.181641" xlink:href="#DejaVuSans-117"/>
     <use x="124.560547" xlink:href="#DejaVuSans-116"/>
     <use x="163.769531" xlink:href="#DejaVuSans-112"/>
     <use x="227.246094" xlink:href="#DejaVuSans-117"/>
     <use x="290.625" xlink:href="#DejaVuSans-116"/>
    </g>
   </g>
   <g id="patch_5">
    <path d="M 859.942787 115.108125 
L 881.942787 115.108125 
L 881.942787 107.408125 
L 859.942787 107.408125 
z
" style="fill:#4c72b0;fill-opacity:0.25;stroke:#4c72b0;stroke-linejoin:miter;"/>
   </g>
   <g id="text_16">
    <!-- 0 -->
    <g style="fill:#262626;" transform="translate(890.742787 115.108125)scale(0.11 -0.11)">
     <use xlink:href="#DejaVuSans-48"/>
    </g>
   </g>
   <g id="patch_6">
    <path d="M 859.942787 131.254063 
L 881.942787 131.254063 
L 881.942787 123.554063 
L 859.942787 123.554063 
z
" style="fill:#dd8452;fill-opacity:0.25;stroke:#dd8452;stroke-linejoin:miter;"/>
   </g>
   <g id="text_17">
    <!-- 1 -->
    <g style="fill:#262626;" transform="translate(890.742787 131.254063)scale(0.11 -0.11)">
     <use xlink:href="#DejaVuSans-49"/>
    </g>
   </g>
  </g>
 </g>
 <defs>
  <clipPath id="p1244847b3b">
   <rect height="157.9" width="815.089162" x="34.193438" y="22.318125"/>
  </clipPath>
 </defs>
</svg>
