<?xml version="1.0" encoding="utf-8" standalone="no"?>
<!DOCTYPE svg PUBLIC "-//W3C//DTD SVG 1.1//EN"
  "http://www.w3.org/Graphics/SVG/1.1/DTD/svg11.dtd">
<!-- Created with matplotlib (https://matplotlib.org/) -->
<svg height="223.177812pt" version="1.1" viewBox="0 0 908.53185 223.177812" width="908.53185pt" xmlns="http://www.w3.org/2000/svg" xmlns:xlink="http://www.w3.org/1999/xlink">
 <metadata>
  <rdf:RDF xmlns:cc="http://creativecommons.org/ns#" xmlns:dc="http://purl.org/dc/elements/1.1/" xmlns:rdf="http://www.w3.org/1999/02/22-rdf-syntax-ns#">
   <cc:Work>
    <dc:type rdf:resource="http://purl.org/dc/dcmitype/StillImage"/>
    <dc:date>2021-07-04T23:48:57.381032</dc:date>
    <dc:format>image/svg+xml</dc:format>
    <dc:creator>
     <cc:Agent>
      <dc:title>Matplotlib v3.3.4, https://matplotlib.org/</dc:title>
     </cc:Agent>
    </dc:creator>
   </cc:Work>
  </rdf:RDF>
 </metadata>
 <defs>
  <style type="text/css">*{stroke-linecap:butt;stroke-linejoin:round;}</style>
 </defs>
 <g id="figure_1">
  <g id="patch_1">
   <path d="M 0 223.177812 
L 908.53185 223.177812 
L 908.53185 0 
L 0 0 
z
" style="fill:none;"/>
  </g>
  <g id="axes_1">
   <g id="patch_2">
    <path d="M 34.193438 180.218125 
L 849.2826 180.218125 
L 849.2826 22.318125 
L 34.193438 22.318125 
z
" style="fill:#eaeaf2;"/>
   </g>
   <g id="matplotlib.axis_1">
    <g id="xtick_1">
     <g id="line2d_1">
      <path clip-path="url(#pf99fcd6a43)" d="M 34.193438 180.218125 
L 34.193438 22.318125 
" style="fill:none;stroke:#ffffff;stroke-linecap:round;"/>
     </g>
     <g id="text_1">
      <!-- 0.00 -->
      <g style="fill:#262626;" transform="translate(21.947344 198.076406)scale(0.11 -0.11)">
       <defs>
        <path d="M 31.78125 66.40625 
Q 24.171875 66.40625 20.328125 58.90625 
Q 16.5 51.421875 16.5 36.375 
Q 16.5 21.390625 20.328125 13.890625 
Q 24.171875 6.390625 31.78125 6.390625 
Q 39.453125 6.390625 43.28125 13.890625 
Q 47.125 21.390625 47.125 36.375 
Q 47.125 51.421875 43.28125 58.90625 
Q 39.453125 66.40625 31.78125 66.40625 
z
M 31.78125 74.21875 
Q 44.046875 74.21875 50.515625 64.515625 
Q 56.984375 54.828125 56.984375 36.375 
Q 56.984375 17.96875 50.515625 8.265625 
Q 44.046875 -1.421875 31.78125 -1.421875 
Q 19.53125 -1.421875 13.0625 8.265625 
Q 6.59375 17.96875 6.59375 36.375 
Q 6.59375 54.828125 13.0625 64.515625 
Q 19.53125 74.21875 31.78125 74.21875 
z
" id="DejaVuSans-48"/>
        <path d="M 10.6875 12.40625 
L 21 12.40625 
L 21 0 
L 10.6875 0 
z
" id="DejaVuSans-46"/>
       </defs>
       <use xlink:href="#DejaVuSans-48"/>
       <use x="63.623047" xlink:href="#DejaVuSans-46"/>
       <use x="95.410156" xlink:href="#DejaVuSans-48"/>
       <use x="159.033203" xlink:href="#DejaVuSans-48"/>
      </g>
     </g>
    </g>
    <g id="xtick_2">
     <g id="line2d_2">
      <path clip-path="url(#pf99fcd6a43)" d="M 136.079583 180.218125 
L 136.079583 22.318125 
" style="fill:none;stroke:#ffffff;stroke-linecap:round;"/>
     </g>
     <g id="text_2">
      <!-- 0.25 -->
      <g style="fill:#262626;" transform="translate(123.833489 198.076406)scale(0.11 -0.11)">
       <defs>
        <path d="M 19.1875 8.296875 
L 53.609375 8.296875 
L 53.609375 0 
L 7.328125 0 
L 7.328125 8.296875 
Q 12.9375 14.109375 22.625 23.890625 
Q 32.328125 33.6875 34.8125 36.53125 
Q 39.546875 41.84375 41.421875 45.53125 
Q 43.3125 49.21875 43.3125 52.78125 
Q 43.3125 58.59375 39.234375 62.25 
Q 35.15625 65.921875 28.609375 65.921875 
Q 23.96875 65.921875 18.8125 64.3125 
Q 13.671875 62.703125 7.8125 59.421875 
L 7.8125 69.390625 
Q 13.765625 71.78125 18.9375 73 
Q 24.125 74.21875 28.421875 74.21875 
Q 39.75 74.21875 46.484375 68.546875 
Q 53.21875 62.890625 53.21875 53.421875 
Q 53.21875 48.921875 51.53125 44.890625 
Q 49.859375 40.875 45.40625 35.40625 
Q 44.1875 33.984375 37.640625 27.21875 
Q 31.109375 20.453125 19.1875 8.296875 
z
" id="DejaVuSans-50"/>
        <path d="M 10.796875 72.90625 
L 49.515625 72.90625 
L 49.515625 64.59375 
L 19.828125 64.59375 
L 19.828125 46.734375 
Q 21.96875 47.46875 24.109375 47.828125 
Q 26.265625 48.1875 28.421875 48.1875 
Q 40.625 48.1875 47.75 41.5 
Q 54.890625 34.8125 54.890625 23.390625 
Q 54.890625 11.625 47.5625 5.09375 
Q 40.234375 -1.421875 26.90625 -1.421875 
Q 22.3125 -1.421875 17.546875 -0.640625 
Q 12.796875 0.140625 7.71875 1.703125 
L 7.71875 11.625 
Q 12.109375 9.234375 16.796875 8.0625 
Q 21.484375 6.890625 26.703125 6.890625 
Q 35.15625 6.890625 40.078125 11.328125 
Q 45.015625 15.765625 45.015625 23.390625 
Q 45.015625 31 40.078125 35.4375 
Q 35.15625 39.890625 26.703125 39.890625 
Q 22.75 39.890625 18.8125 39.015625 
Q 14.890625 38.140625 10.796875 36.28125 
z
" id="DejaVuSans-53"/>
       </defs>
       <use xlink:href="#DejaVuSans-48"/>
       <use x="63.623047" xlink:href="#DejaVuSans-46"/>
       <use x="95.410156" xlink:href="#DejaVuSans-50"/>
       <use x="159.033203" xlink:href="#DejaVuSans-53"/>
      </g>
     </g>
    </g>
    <g id="xtick_3">
     <g id="line2d_3">
      <path clip-path="url(#pf99fcd6a43)" d="M 237.965728 180.218125 
L 237.965728 22.318125 
" style="fill:none;stroke:#ffffff;stroke-linecap:round;"/>
     </g>
     <g id="text_3">
      <!-- 0.50 -->
      <g style="fill:#262626;" transform="translate(225.719634 198.076406)scale(0.11 -0.11)">
       <use xlink:href="#DejaVuSans-48"/>
       <use x="63.623047" xlink:href="#DejaVuSans-46"/>
       <use x="95.410156" xlink:href="#DejaVuSans-53"/>
       <use x="159.033203" xlink:href="#DejaVuSans-48"/>
      </g>
     </g>
    </g>
    <g id="xtick_4">
     <g id="line2d_4">
      <path clip-path="url(#pf99fcd6a43)" d="M 339.851873 180.218125 
L 339.851873 22.318125 
" style="fill:none;stroke:#ffffff;stroke-linecap:round;"/>
     </g>
     <g id="text_4">
      <!-- 0.75 -->
      <g style="fill:#262626;" transform="translate(327.60578 198.076406)scale(0.11 -0.11)">
       <defs>
        <path d="M 8.203125 72.90625 
L 55.078125 72.90625 
L 55.078125 68.703125 
L 28.609375 0 
L 18.3125 0 
L 43.21875 64.59375 
L 8.203125 64.59375 
z
" id="DejaVuSans-55"/>
       </defs>
       <use xlink:href="#DejaVuSans-48"/>
       <use x="63.623047" xlink:href="#DejaVuSans-46"/>
       <use x="95.410156" xlink:href="#DejaVuSans-55"/>
       <use x="159.033203" xlink:href="#DejaVuSans-53"/>
      </g>
     </g>
    </g>
    <g id="xtick_5">
     <g id="line2d_5">
      <path clip-path="url(#pf99fcd6a43)" d="M 441.738019 180.218125 
L 441.738019 22.318125 
" style="fill:none;stroke:#ffffff;stroke-linecap:round;"/>
     </g>
     <g id="text_5">
      <!-- 1.00 -->
      <g style="fill:#262626;" transform="translate(429.491925 198.076406)scale(0.11 -0.11)">
       <defs>
        <path d="M 12.40625 8.296875 
L 28.515625 8.296875 
L 28.515625 63.921875 
L 10.984375 60.40625 
L 10.984375 69.390625 
L 28.421875 72.90625 
L 38.28125 72.90625 
L 38.28125 8.296875 
L 54.390625 8.296875 
L 54.390625 0 
L 12.40625 0 
z
" id="DejaVuSans-49"/>
       </defs>
       <use xlink:href="#DejaVuSans-49"/>
       <use x="63.623047" xlink:href="#DejaVuSans-46"/>
       <use x="95.410156" xlink:href="#DejaVuSans-48"/>
       <use x="159.033203" xlink:href="#DejaVuSans-48"/>
      </g>
     </g>
    </g>
    <g id="xtick_6">
     <g id="line2d_6">
      <path clip-path="url(#pf99fcd6a43)" d="M 543.624164 180.218125 
L 543.624164 22.318125 
" style="fill:none;stroke:#ffffff;stroke-linecap:round;"/>
     </g>
     <g id="text_6">
      <!-- 1.25 -->
      <g style="fill:#262626;" transform="translate(531.37807 198.076406)scale(0.11 -0.11)">
       <use xlink:href="#DejaVuSans-49"/>
       <use x="63.623047" xlink:href="#DejaVuSans-46"/>
       <use x="95.410156" xlink:href="#DejaVuSans-50"/>
       <use x="159.033203" xlink:href="#DejaVuSans-53"/>
      </g>
     </g>
    </g>
    <g id="xtick_7">
     <g id="line2d_7">
      <path clip-path="url(#pf99fcd6a43)" d="M 645.510309 180.218125 
L 645.510309 22.318125 
" style="fill:none;stroke:#ffffff;stroke-linecap:round;"/>
     </g>
     <g id="text_7">
      <!-- 1.50 -->
      <g style="fill:#262626;" transform="translate(633.264215 198.076406)scale(0.11 -0.11)">
       <use xlink:href="#DejaVuSans-49"/>
       <use x="63.623047" xlink:href="#DejaVuSans-46"/>
       <use x="95.410156" xlink:href="#DejaVuSans-53"/>
       <use x="159.033203" xlink:href="#DejaVuSans-48"/>
      </g>
     </g>
    </g>
    <g id="xtick_8">
     <g id="line2d_8">
      <path clip-path="url(#pf99fcd6a43)" d="M 747.396454 180.218125 
L 747.396454 22.318125 
" style="fill:none;stroke:#ffffff;stroke-linecap:round;"/>
     </g>
     <g id="text_8">
      <!-- 1.75 -->
      <g style="fill:#262626;" transform="translate(735.150361 198.076406)scale(0.11 -0.11)">
       <use xlink:href="#DejaVuSans-49"/>
       <use x="63.623047" xlink:href="#DejaVuSans-46"/>
       <use x="95.410156" xlink:href="#DejaVuSans-55"/>
       <use x="159.033203" xlink:href="#DejaVuSans-53"/>
      </g>
     </g>
    </g>
    <g id="xtick_9">
     <g id="line2d_9">
      <path clip-path="url(#pf99fcd6a43)" d="M 849.2826 180.218125 
L 849.2826 22.318125 
" style="fill:none;stroke:#ffffff;stroke-linecap:round;"/>
     </g>
     <g id="text_9">
      <!-- 2.00 -->
      <g style="fill:#262626;" transform="translate(837.036506 198.076406)scale(0.11 -0.11)">
       <use xlink:href="#DejaVuSans-50"/>
       <use x="63.623047" xlink:href="#DejaVuSans-46"/>
       <use x="95.410156" xlink:href="#DejaVuSans-48"/>
       <use x="159.033203" xlink:href="#DejaVuSans-48"/>
      </g>
     </g>
    </g>
    <g id="text_10">
     <!-- slp -->
     <g style="fill:#262626;" transform="translate(433.136456 213.482187)scale(0.12 -0.12)">
      <defs>
       <path d="M 44.28125 53.078125 
L 44.28125 44.578125 
Q 40.484375 46.53125 36.375 47.5 
Q 32.28125 48.484375 27.875 48.484375 
Q 21.1875 48.484375 17.84375 46.4375 
Q 14.5 44.390625 14.5 40.28125 
Q 14.5 37.15625 16.890625 35.375 
Q 19.28125 33.59375 26.515625 31.984375 
L 29.59375 31.296875 
Q 39.15625 29.25 43.1875 25.515625 
Q 47.21875 21.78125 47.21875 15.09375 
Q 47.21875 7.46875 41.1875 3.015625 
Q 35.15625 -1.421875 24.609375 -1.421875 
Q 20.21875 -1.421875 15.453125 -0.5625 
Q 10.6875 0.296875 5.421875 2 
L 5.421875 11.28125 
Q 10.40625 8.6875 15.234375 7.390625 
Q 20.0625 6.109375 24.8125 6.109375 
Q 31.15625 6.109375 34.5625 8.28125 
Q 37.984375 10.453125 37.984375 14.40625 
Q 37.984375 18.0625 35.515625 20.015625 
Q 33.0625 21.96875 24.703125 23.78125 
L 21.578125 24.515625 
Q 13.234375 26.265625 9.515625 29.90625 
Q 5.8125 33.546875 5.8125 39.890625 
Q 5.8125 47.609375 11.28125 51.796875 
Q 16.75 56 26.8125 56 
Q 31.78125 56 36.171875 55.265625 
Q 40.578125 54.546875 44.28125 53.078125 
z
" id="DejaVuSans-115"/>
       <path d="M 9.421875 75.984375 
L 18.40625 75.984375 
L 18.40625 0 
L 9.421875 0 
z
" id="DejaVuSans-108"/>
       <path d="M 18.109375 8.203125 
L 18.109375 -20.796875 
L 9.078125 -20.796875 
L 9.078125 54.6875 
L 18.109375 54.6875 
L 18.109375 46.390625 
Q 20.953125 51.265625 25.265625 53.625 
Q 29.59375 56 35.59375 56 
Q 45.5625 56 51.78125 48.09375 
Q 58.015625 40.1875 58.015625 27.296875 
Q 58.015625 14.40625 51.78125 6.484375 
Q 45.5625 -1.421875 35.59375 -1.421875 
Q 29.59375 -1.421875 25.265625 0.953125 
Q 20.953125 3.328125 18.109375 8.203125 
z
M 48.6875 27.296875 
Q 48.6875 37.203125 44.609375 42.84375 
Q 40.53125 48.484375 33.40625 48.484375 
Q 26.265625 48.484375 22.1875 42.84375 
Q 18.109375 37.203125 18.109375 27.296875 
Q 18.109375 17.390625 22.1875 11.75 
Q 26.265625 6.109375 33.40625 6.109375 
Q 40.53125 6.109375 44.609375 11.75 
Q 48.6875 17.390625 48.6875 27.296875 
z
" id="DejaVuSans-112"/>
      </defs>
      <use xlink:href="#DejaVuSans-115"/>
      <use x="52.099609" xlink:href="#DejaVuSans-108"/>
      <use x="79.882812" xlink:href="#DejaVuSans-112"/>
     </g>
    </g>
   </g>
   <g id="matplotlib.axis_2">
    <g id="ytick_1">
     <g id="line2d_10">
      <path clip-path="url(#pf99fcd6a43)" d="M 34.193438 180.218125 
L 849.2826 180.218125 
" style="fill:none;stroke:#ffffff;stroke-linecap:round;"/>
     </g>
     <g id="text_11">
      <!-- 0.0 -->
      <g style="fill:#262626;" transform="translate(7.2 184.397266)scale(0.11 -0.11)">
       <use xlink:href="#DejaVuSans-48"/>
       <use x="63.623047" xlink:href="#DejaVuSans-46"/>
       <use x="95.410156" xlink:href="#DejaVuSans-48"/>
      </g>
     </g>
    </g>
    <g id="ytick_2">
     <g id="line2d_11">
      <path clip-path="url(#pf99fcd6a43)" d="M 34.193438 156.245418 
L 849.2826 156.245418 
" style="fill:none;stroke:#ffffff;stroke-linecap:round;"/>
     </g>
     <g id="text_12">
      <!-- 0.2 -->
      <g style="fill:#262626;" transform="translate(7.2 160.424559)scale(0.11 -0.11)">
       <use xlink:href="#DejaVuSans-48"/>
       <use x="63.623047" xlink:href="#DejaVuSans-46"/>
       <use x="95.410156" xlink:href="#DejaVuSans-50"/>
      </g>
     </g>
    </g>
    <g id="ytick_3">
     <g id="line2d_12">
      <path clip-path="url(#pf99fcd6a43)" d="M 34.193438 132.272712 
L 849.2826 132.272712 
" style="fill:none;stroke:#ffffff;stroke-linecap:round;"/>
     </g>
     <g id="text_13">
      <!-- 0.4 -->
      <g style="fill:#262626;" transform="translate(7.2 136.451852)scale(0.11 -0.11)">
       <defs>
        <path d="M 37.796875 64.3125 
L 12.890625 25.390625 
L 37.796875 25.390625 
z
M 35.203125 72.90625 
L 47.609375 72.90625 
L 47.609375 25.390625 
L 58.015625 25.390625 
L 58.015625 17.1875 
L 47.609375 17.1875 
L 47.609375 0 
L 37.796875 0 
L 37.796875 17.1875 
L 4.890625 17.1875 
L 4.890625 26.703125 
z
" id="DejaVuSans-52"/>
       </defs>
       <use xlink:href="#DejaVuSans-48"/>
       <use x="63.623047" xlink:href="#DejaVuSans-46"/>
       <use x="95.410156" xlink:href="#DejaVuSans-52"/>
      </g>
     </g>
    </g>
    <g id="ytick_4">
     <g id="line2d_13">
      <path clip-path="url(#pf99fcd6a43)" d="M 34.193438 108.300005 
L 849.2826 108.300005 
" style="fill:none;stroke:#ffffff;stroke-linecap:round;"/>
     </g>
     <g id="text_14">
      <!-- 0.6 -->
      <g style="fill:#262626;" transform="translate(7.2 112.479146)scale(0.11 -0.11)">
       <defs>
        <path d="M 33.015625 40.375 
Q 26.375 40.375 22.484375 35.828125 
Q 18.609375 31.296875 18.609375 23.390625 
Q 18.609375 15.53125 22.484375 10.953125 
Q 26.375 6.390625 33.015625 6.390625 
Q 39.65625 6.390625 43.53125 10.953125 
Q 47.40625 15.53125 47.40625 23.390625 
Q 47.40625 31.296875 43.53125 35.828125 
Q 39.65625 40.375 33.015625 40.375 
z
M 52.59375 71.296875 
L 52.59375 62.3125 
Q 48.875 64.0625 45.09375 64.984375 
Q 41.3125 65.921875 37.59375 65.921875 
Q 27.828125 65.921875 22.671875 59.328125 
Q 17.53125 52.734375 16.796875 39.40625 
Q 19.671875 43.65625 24.015625 45.921875 
Q 28.375 48.1875 33.59375 48.1875 
Q 44.578125 48.1875 50.953125 41.515625 
Q 57.328125 34.859375 57.328125 23.390625 
Q 57.328125 12.15625 50.6875 5.359375 
Q 44.046875 -1.421875 33.015625 -1.421875 
Q 20.359375 -1.421875 13.671875 8.265625 
Q 6.984375 17.96875 6.984375 36.375 
Q 6.984375 53.65625 15.1875 63.9375 
Q 23.390625 74.21875 37.203125 74.21875 
Q 40.921875 74.21875 44.703125 73.484375 
Q 48.484375 72.75 52.59375 71.296875 
z
" id="DejaVuSans-54"/>
       </defs>
       <use xlink:href="#DejaVuSans-48"/>
       <use x="63.623047" xlink:href="#DejaVuSans-46"/>
       <use x="95.410156" xlink:href="#DejaVuSans-54"/>
      </g>
     </g>
    </g>
    <g id="ytick_5">
     <g id="line2d_14">
      <path clip-path="url(#pf99fcd6a43)" d="M 34.193438 84.327298 
L 849.2826 84.327298 
" style="fill:none;stroke:#ffffff;stroke-linecap:round;"/>
     </g>
     <g id="text_15">
      <!-- 0.8 -->
      <g style="fill:#262626;" transform="translate(7.2 88.506439)scale(0.11 -0.11)">
       <defs>
        <path d="M 31.78125 34.625 
Q 24.75 34.625 20.71875 30.859375 
Q 16.703125 27.09375 16.703125 20.515625 
Q 16.703125 13.921875 20.71875 10.15625 
Q 24.75 6.390625 31.78125 6.390625 
Q 38.8125 6.390625 42.859375 10.171875 
Q 46.921875 13.96875 46.921875 20.515625 
Q 46.921875 27.09375 42.890625 30.859375 
Q 38.875 34.625 31.78125 34.625 
z
M 21.921875 38.8125 
Q 15.578125 40.375 12.03125 44.71875 
Q 8.5 49.078125 8.5 55.328125 
Q 8.5 64.0625 14.71875 69.140625 
Q 20.953125 74.21875 31.78125 74.21875 
Q 42.671875 74.21875 48.875 69.140625 
Q 55.078125 64.0625 55.078125 55.328125 
Q 55.078125 49.078125 51.53125 44.71875 
Q 48 40.375 41.703125 38.8125 
Q 48.828125 37.15625 52.796875 32.3125 
Q 56.78125 27.484375 56.78125 20.515625 
Q 56.78125 9.90625 50.3125 4.234375 
Q 43.84375 -1.421875 31.78125 -1.421875 
Q 19.734375 -1.421875 13.25 4.234375 
Q 6.78125 9.90625 6.78125 20.515625 
Q 6.78125 27.484375 10.78125 32.3125 
Q 14.796875 37.15625 21.921875 38.8125 
z
M 18.3125 54.390625 
Q 18.3125 48.734375 21.84375 45.5625 
Q 25.390625 42.390625 31.78125 42.390625 
Q 38.140625 42.390625 41.71875 45.5625 
Q 45.3125 48.734375 45.3125 54.390625 
Q 45.3125 60.0625 41.71875 63.234375 
Q 38.140625 66.40625 31.78125 66.40625 
Q 25.390625 66.40625 21.84375 63.234375 
Q 18.3125 60.0625 18.3125 54.390625 
z
" id="DejaVuSans-56"/>
       </defs>
       <use xlink:href="#DejaVuSans-48"/>
       <use x="63.623047" xlink:href="#DejaVuSans-46"/>
       <use x="95.410156" xlink:href="#DejaVuSans-56"/>
      </g>
     </g>
    </g>
    <g id="ytick_6">
     <g id="line2d_15">
      <path clip-path="url(#pf99fcd6a43)" d="M 34.193438 60.354592 
L 849.2826 60.354592 
" style="fill:none;stroke:#ffffff;stroke-linecap:round;"/>
     </g>
     <g id="text_16">
      <!-- 1.0 -->
      <g style="fill:#262626;" transform="translate(7.2 64.533732)scale(0.11 -0.11)">
       <use xlink:href="#DejaVuSans-49"/>
       <use x="63.623047" xlink:href="#DejaVuSans-46"/>
       <use x="95.410156" xlink:href="#DejaVuSans-48"/>
      </g>
     </g>
    </g>
    <g id="ytick_7">
     <g id="line2d_16">
      <path clip-path="url(#pf99fcd6a43)" d="M 34.193438 36.381885 
L 849.2826 36.381885 
" style="fill:none;stroke:#ffffff;stroke-linecap:round;"/>
     </g>
     <g id="text_17">
      <!-- 1.2 -->
      <g style="fill:#262626;" transform="translate(7.2 40.561026)scale(0.11 -0.11)">
       <use xlink:href="#DejaVuSans-49"/>
       <use x="63.623047" xlink:href="#DejaVuSans-46"/>
       <use x="95.410156" xlink:href="#DejaVuSans-50"/>
      </g>
     </g>
    </g>
   </g>
   <g id="PolyCollection_1">
    <path clip-path="url(#pf99fcd6a43)" d="M -221.980258 179.997662 
L -221.980258 180.218125 
L -215.309723 180.218125 
L -208.639187 180.218125 
L -201.968652 180.218125 
L -195.298116 180.218125 
L -188.627581 180.218125 
L -181.957045 180.218125 
L -175.28651 180.218125 
L -168.615975 180.218125 
L -161.945439 180.218125 
L -155.274904 180.218125 
L -148.604368 180.218125 
L -141.933833 180.218125 
L -135.263297 180.218125 
L -128.592762 180.218125 
L -121.922226 180.218125 
L -115.251691 180.218125 
L -108.581156 180.218125 
L -101.91062 180.218125 
L -95.240085 180.218125 
L -88.569549 180.218125 
L -81.899014 180.218125 
L -75.228478 180.218125 
L -68.557943 180.218125 
L -61.887407 180.218125 
L -55.216872 180.218125 
L -48.546337 180.218125 
L -41.875801 180.218125 
L -35.205266 180.218125 
L -28.53473 180.218125 
L -21.864195 180.218125 
L -15.193659 180.218125 
L -8.523124 180.218125 
L -1.852588 180.218125 
L 4.817947 180.218125 
L 11.488482 180.218125 
L 18.159018 180.218125 
L 24.829553 180.218125 
L 31.500089 180.218125 
L 38.170624 180.218125 
L 44.84116 180.218125 
L 51.511695 180.218125 
L 58.182231 180.218125 
L 64.852766 180.218125 
L 71.523301 180.218125 
L 78.193837 180.218125 
L 84.864372 180.218125 
L 91.534908 180.218125 
L 98.205443 180.218125 
L 104.875979 180.218125 
L 111.546514 180.218125 
L 118.21705 180.218125 
L 124.887585 180.218125 
L 131.55812 180.218125 
L 138.228656 180.218125 
L 144.899191 180.218125 
L 151.569727 180.218125 
L 158.240262 180.218125 
L 164.910798 180.218125 
L 171.581333 180.218125 
L 178.251869 180.218125 
L 184.922404 180.218125 
L 191.592939 180.218125 
L 198.263475 180.218125 
L 204.93401 180.218125 
L 211.604546 180.218125 
L 218.275081 180.218125 
L 224.945617 180.218125 
L 231.616152 180.218125 
L 238.286688 180.218125 
L 244.957223 180.218125 
L 251.627758 180.218125 
L 258.298294 180.218125 
L 264.968829 180.218125 
L 271.639365 180.218125 
L 278.3099 180.218125 
L 284.980436 180.218125 
L 291.650971 180.218125 
L 298.321507 180.218125 
L 304.992042 180.218125 
L 311.662577 180.218125 
L 318.333113 180.218125 
L 325.003648 180.218125 
L 331.674184 180.218125 
L 338.344719 180.218125 
L 345.015255 180.218125 
L 351.68579 180.218125 
L 358.356326 180.218125 
L 365.026861 180.218125 
L 371.697396 180.218125 
L 378.367932 180.218125 
L 385.038467 180.218125 
L 391.709003 180.218125 
L 398.379538 180.218125 
L 405.050074 180.218125 
L 411.720609 180.218125 
L 418.391145 180.218125 
L 425.06168 180.218125 
L 431.732215 180.218125 
L 438.402751 180.218125 
L 445.073286 180.218125 
L 451.743822 180.218125 
L 458.414357 180.218125 
L 465.084893 180.218125 
L 471.755428 180.218125 
L 478.425964 180.218125 
L 485.096499 180.218125 
L 491.767034 180.218125 
L 498.43757 180.218125 
L 505.108105 180.218125 
L 511.778641 180.218125 
L 518.449176 180.218125 
L 525.119712 180.218125 
L 531.790247 180.218125 
L 538.460783 180.218125 
L 545.131318 180.218125 
L 551.801853 180.218125 
L 558.472389 180.218125 
L 565.142924 180.218125 
L 571.81346 180.218125 
L 578.483995 180.218125 
L 585.154531 180.218125 
L 591.825066 180.218125 
L 598.495602 180.218125 
L 605.166137 180.218125 
L 611.836672 180.218125 
L 618.507208 180.218125 
L 625.177743 180.218125 
L 631.848279 180.218125 
L 638.518814 180.218125 
L 645.18935 180.218125 
L 651.859885 180.218125 
L 658.530421 180.218125 
L 665.200956 180.218125 
L 671.871491 180.218125 
L 678.542027 180.218125 
L 685.212562 180.218125 
L 691.883098 180.218125 
L 698.553633 180.218125 
L 705.224169 180.218125 
L 711.894704 180.218125 
L 718.56524 180.218125 
L 725.235775 180.218125 
L 731.90631 180.218125 
L 738.576846 180.218125 
L 745.247381 180.218125 
L 751.917917 180.218125 
L 758.588452 180.218125 
L 765.258988 180.218125 
L 771.929523 180.218125 
L 778.600059 180.218125 
L 785.270594 180.218125 
L 791.941129 180.218125 
L 798.611665 180.218125 
L 805.2822 180.218125 
L 811.952736 180.218125 
L 818.623271 180.218125 
L 825.293807 180.218125 
L 831.964342 180.218125 
L 838.634878 180.218125 
L 845.305413 180.218125 
L 851.975948 180.218125 
L 858.646484 180.218125 
L 865.317019 180.218125 
L 871.987555 180.218125 
L 878.65809 180.218125 
L 885.328626 180.218125 
L 891.999161 180.218125 
L 898.669697 180.218125 
L 905.340232 180.218125 
L 912.010767 180.218125 
L 918.681303 180.218125 
L 925.351838 180.218125 
L 932.022374 180.218125 
L 938.692909 180.218125 
L 945.363445 180.218125 
L 952.03398 180.218125 
L 958.704516 180.218125 
L 965.375051 180.218125 
L 972.045586 180.218125 
L 978.716122 180.218125 
L 985.386657 180.218125 
L 992.057193 180.218125 
L 998.727728 180.218125 
L 1005.398264 180.218125 
L 1012.068799 180.218125 
L 1018.739335 180.218125 
L 1025.40987 180.218125 
L 1032.080405 180.218125 
L 1038.750941 180.218125 
L 1045.421476 180.218125 
L 1052.092012 180.218125 
L 1058.762547 180.218125 
L 1065.433083 180.218125 
L 1072.103618 180.218125 
L 1078.774154 180.218125 
L 1085.444689 180.218125 
L 1092.115224 180.218125 
L 1098.78576 180.218125 
L 1105.456295 180.218125 
L 1105.456295 179.575108 
L 1105.456295 179.575108 
L 1098.78576 179.40777 
L 1092.115224 179.203097 
L 1085.444689 178.954465 
L 1078.774154 178.654501 
L 1072.103618 178.295103 
L 1065.433083 177.867487 
L 1058.762547 177.362263 
L 1052.092012 176.769559 
L 1045.421476 176.079181 
L 1038.750941 175.280814 
L 1032.080405 174.364282 
L 1025.40987 173.319833 
L 1018.739335 172.138489 
L 1012.068799 170.81241 
L 1005.398264 169.335299 
L 998.727728 167.702824 
L 992.057193 165.91303 
L 985.386657 163.966755 
L 978.716122 161.868001 
L 972.045586 159.624262 
L 965.375051 157.246778 
L 958.704516 154.750709 
L 952.03398 152.155189 
L 945.363445 149.483272 
L 938.692909 146.761743 
L 932.022374 144.020789 
L 925.351838 141.293533 
L 918.681303 138.615441 
L 912.010767 136.0236 
L 905.340232 133.555901 
L 898.669697 131.250135 
L 891.999161 129.143048 
L 885.328626 127.269371 
L 878.65809 125.660872 
L 871.987555 124.34546 
L 865.317019 123.346376 
L 858.646484 122.681509 
L 851.975948 122.362857 
L 845.305413 122.396161 
L 838.634878 122.78072 
L 831.964342 123.509406 
L 825.293807 124.568865 
L 818.623271 125.939903 
L 811.952736 127.598034 
L 805.2822 129.514169 
L 798.611665 131.655417 
L 791.941129 133.985961 
L 785.270594 136.467972 
L 778.600059 139.062528 
L 771.929523 141.730499 
L 765.258988 144.433367 
L 758.588452 147.133947 
L 751.917917 149.796989 
L 745.247381 152.38965 
L 738.576846 154.881814 
L 731.90631 157.246258 
L 725.235775 159.458681 
L 718.56524 161.497589 
L 711.894704 163.344056 
L 705.224169 164.981386 
L 698.553633 166.394701 
L 691.883098 167.570469 
L 685.212562 168.496019 
L 678.542027 169.159057 
L 671.871491 169.547228 
L 665.200956 169.647733 
L 658.530421 169.447051 
L 651.859885 168.930769 
L 645.18935 168.083548 
L 638.518814 166.889251 
L 631.848279 165.331213 
L 625.177743 163.392694 
L 618.507208 161.057484 
L 611.836672 158.310659 
L 605.166137 155.139471 
L 598.495602 151.534347 
L 591.825066 147.489961 
L 585.154531 143.006336 
L 578.483995 138.089939 
L 571.81346 132.754711 
L 565.142924 127.022978 
L 558.472389 120.926197 
L 551.801853 114.50547 
L 545.131318 107.811796 
L 538.460783 100.906006 
L 531.790247 93.858357 
L 525.119712 86.747769 
L 518.449176 79.660689 
L 511.778641 72.689617 
L 505.108105 65.9313 
L 498.43757 59.484652 
L 491.767034 53.448462 
L 485.096499 47.918949 
L 478.425964 42.987278 
L 471.755428 38.737091 
L 465.084893 35.242182 
L 458.414357 32.564381 
L 451.743822 30.751754 
L 445.073286 29.837173 
L 438.402751 29.837334 
L 431.732215 30.752258 
L 425.06168 32.565288 
L 418.391145 35.243598 
L 411.720609 38.739182 
L 405.050074 42.990278 
L 398.379538 47.923185 
L 391.709003 53.454379 
L 385.038467 59.492851 
L 378.367932 65.942577 
L 371.697396 72.705027 
L 365.026861 79.681613 
L 358.356326 86.776006 
L 351.68579 93.896228 
L 345.015255 100.956487 
L 338.344719 107.878676 
L 331.674184 114.593537 
L 325.003648 121.041457 
L 318.333113 127.172909 
L 311.662577 132.948556 
L 304.992042 138.339036 
L 298.321507 143.324486 
L 291.650971 147.893834 
L 284.980436 152.043922 
L 278.3099 155.778499 
L 271.639365 159.107153 
L 264.968829 162.044206 
L 258.298294 164.607639 
L 251.627758 166.818067 
L 244.957223 168.697798 
L 238.286688 170.270007 
L 231.616152 171.558024 
L 224.945617 172.584765 
L 218.275081 173.372285 
L 211.604546 173.941475 
L 204.93401 174.311875 
L 198.263475 174.501598 
L 191.592939 174.527354 
L 184.922404 174.404554 
L 178.251869 174.147474 
L 171.581333 173.769471 
L 164.910798 173.28321 
L 158.240262 172.700918 
L 151.569727 172.034618 
L 144.899191 171.296346 
L 138.228656 170.49833 
L 131.55812 169.653131 
L 124.887585 168.773722 
L 118.21705 167.873519 
L 111.546514 166.966347 
L 104.875979 166.066345 
L 98.205443 165.187826 
L 91.534908 164.345075 
L 84.864372 163.552117 
L 78.193837 162.822448 
L 71.523301 162.168756 
L 64.852766 161.602626 
L 58.182231 161.134267 
L 51.511695 160.772249 
L 44.84116 160.523287 
L 38.170624 160.392055 
L 31.500089 160.381071 
L 24.829553 160.490626 
L 18.159018 160.718791 
L 11.488482 161.061479 
L 4.817947 161.512577 
L -1.852588 162.06413 
L -8.523124 162.706579 
L -15.193659 163.42904 
L -21.864195 164.219609 
L -28.53473 165.065691 
L -35.205266 165.954331 
L -41.875801 166.87254 
L -48.546337 167.807603 
L -55.216872 168.747361 
L -61.887407 169.680458 
L -68.557943 170.596545 
L -75.228478 171.486438 
L -81.899014 172.342234 
L -88.569549 173.157371 
L -95.240085 173.926654 
L -101.91062 174.646227 
L -108.581156 175.313521 
L -115.251691 175.927165 
L -121.922226 176.48687 
L -128.592762 176.993308 
L -135.263297 177.447964 
L -141.933833 177.852996 
L -148.604368 178.211093 
L -155.274904 178.525333 
L -161.945439 178.799058 
L -168.615975 179.03576 
L -175.28651 179.238972 
L -181.957045 179.412192 
L -188.627581 179.558803 
L -195.298116 179.682025 
L -201.968652 179.78487 
L -208.639187 179.870115 
L -215.309723 179.940289 
L -221.980258 179.997662 
z
" style="fill:#4c72b0;fill-opacity:0.25;stroke:#4c72b0;"/>
   </g>
   <g id="PolyCollection_2">
    <path clip-path="url(#pf99fcd6a43)" d="M -227.214526 180.082604 
L -227.214526 180.218125 
L -220.491385 180.218125 
L -213.768244 180.218125 
L -207.045103 180.218125 
L -200.321961 180.218125 
L -193.59882 180.218125 
L -186.875679 180.218125 
L -180.152538 180.218125 
L -173.429397 180.218125 
L -166.706256 180.218125 
L -159.983115 180.218125 
L -153.259973 180.218125 
L -146.536832 180.218125 
L -139.813691 180.218125 
L -133.09055 180.218125 
L -126.367409 180.218125 
L -119.644268 180.218125 
L -112.921126 180.218125 
L -106.197985 180.218125 
L -99.474844 180.218125 
L -92.751703 180.218125 
L -86.028562 180.218125 
L -79.305421 180.218125 
L -72.58228 180.218125 
L -65.859138 180.218125 
L -59.135997 180.218125 
L -52.412856 180.218125 
L -45.689715 180.218125 
L -38.966574 180.218125 
L -32.243433 180.218125 
L -25.520292 180.218125 
L -18.79715 180.218125 
L -12.074009 180.218125 
L -5.350868 180.218125 
L 1.372273 180.218125 
L 8.095414 180.218125 
L 14.818555 180.218125 
L 21.541697 180.218125 
L 28.264838 180.218125 
L 34.987979 180.218125 
L 41.71112 180.218125 
L 48.434261 180.218125 
L 55.157402 180.218125 
L 61.880543 180.218125 
L 68.603685 180.218125 
L 75.326826 180.218125 
L 82.049967 180.218125 
L 88.773108 180.218125 
L 95.496249 180.218125 
L 102.21939 180.218125 
L 108.942532 180.218125 
L 115.665673 180.218125 
L 122.388814 180.218125 
L 129.111955 180.218125 
L 135.835096 180.218125 
L 142.558237 180.218125 
L 149.281378 180.218125 
L 156.00452 180.218125 
L 162.727661 180.218125 
L 169.450802 180.218125 
L 176.173943 180.218125 
L 182.897084 180.218125 
L 189.620225 180.218125 
L 196.343367 180.218125 
L 203.066508 180.218125 
L 209.789649 180.218125 
L 216.51279 180.218125 
L 223.235931 180.218125 
L 229.959072 180.218125 
L 236.682213 180.218125 
L 243.405355 180.218125 
L 250.128496 180.218125 
L 256.851637 180.218125 
L 263.574778 180.218125 
L 270.297919 180.218125 
L 277.02106 180.218125 
L 283.744202 180.218125 
L 290.467343 180.218125 
L 297.190484 180.218125 
L 303.913625 180.218125 
L 310.636766 180.218125 
L 317.359907 180.218125 
L 324.083048 180.218125 
L 330.80619 180.218125 
L 337.529331 180.218125 
L 344.252472 180.218125 
L 350.975613 180.218125 
L 357.698754 180.218125 
L 364.421895 180.218125 
L 371.145036 180.218125 
L 377.868178 180.218125 
L 384.591319 180.218125 
L 391.31446 180.218125 
L 398.037601 180.218125 
L 404.760742 180.218125 
L 411.483883 180.218125 
L 418.207025 180.218125 
L 424.930166 180.218125 
L 431.653307 180.218125 
L 438.376448 180.218125 
L 445.099589 180.218125 
L 451.82273 180.218125 
L 458.545871 180.218125 
L 465.269013 180.218125 
L 471.992154 180.218125 
L 478.715295 180.218125 
L 485.438436 180.218125 
L 492.161577 180.218125 
L 498.884718 180.218125 
L 505.60786 180.218125 
L 512.331001 180.218125 
L 519.054142 180.218125 
L 525.777283 180.218125 
L 532.500424 180.218125 
L 539.223565 180.218125 
L 545.946706 180.218125 
L 552.669848 180.218125 
L 559.392989 180.218125 
L 566.11613 180.218125 
L 572.839271 180.218125 
L 579.562412 180.218125 
L 586.285553 180.218125 
L 593.008695 180.218125 
L 599.731836 180.218125 
L 606.454977 180.218125 
L 613.178118 180.218125 
L 619.901259 180.218125 
L 626.6244 180.218125 
L 633.347541 180.218125 
L 640.070683 180.218125 
L 646.793824 180.218125 
L 653.516965 180.218125 
L 660.240106 180.218125 
L 666.963247 180.218125 
L 673.686388 180.218125 
L 680.40953 180.218125 
L 687.132671 180.218125 
L 693.855812 180.218125 
L 700.578953 180.218125 
L 707.302094 180.218125 
L 714.025235 180.218125 
L 720.748376 180.218125 
L 727.471518 180.218125 
L 734.194659 180.218125 
L 740.9178 180.218125 
L 747.640941 180.218125 
L 754.364082 180.218125 
L 761.087223 180.218125 
L 767.810364 180.218125 
L 774.533506 180.218125 
L 781.256647 180.218125 
L 787.979788 180.218125 
L 794.702929 180.218125 
L 801.42607 180.218125 
L 808.149211 180.218125 
L 814.872353 180.218125 
L 821.595494 180.218125 
L 828.318635 180.218125 
L 835.041776 180.218125 
L 841.764917 180.218125 
L 848.488058 180.218125 
L 855.211199 180.218125 
L 861.934341 180.218125 
L 868.657482 180.218125 
L 875.380623 180.218125 
L 882.103764 180.218125 
L 888.826905 180.218125 
L 895.550046 180.218125 
L 902.273188 180.218125 
L 908.996329 180.218125 
L 915.71947 180.218125 
L 922.442611 180.218125 
L 929.165752 180.218125 
L 935.888893 180.218125 
L 942.612034 180.218125 
L 949.335176 180.218125 
L 956.058317 180.218125 
L 962.781458 180.218125 
L 969.504599 180.218125 
L 976.22774 180.218125 
L 982.950881 180.218125 
L 989.674023 180.218125 
L 996.397164 180.218125 
L 1003.120305 180.218125 
L 1009.843446 180.218125 
L 1016.566587 180.218125 
L 1023.289728 180.218125 
L 1030.012869 180.218125 
L 1036.736011 180.218125 
L 1043.459152 180.218125 
L 1050.182293 180.218125 
L 1056.905434 180.218125 
L 1063.628575 180.218125 
L 1070.351716 180.218125 
L 1077.074857 180.218125 
L 1083.797999 180.218125 
L 1090.52114 180.218125 
L 1097.244281 180.218125 
L 1103.967422 180.218125 
L 1110.690563 180.218125 
L 1110.690563 178.606925 
L 1110.690563 178.606925 
L 1103.967422 178.193321 
L 1097.244281 177.688644 
L 1090.52114 177.076935 
L 1083.797999 176.340448 
L 1077.074857 175.459696 
L 1070.351716 174.413555 
L 1063.628575 173.179446 
L 1056.905434 171.733614 
L 1050.182293 170.051494 
L 1043.459152 168.108189 
L 1036.736011 165.879047 
L 1030.012869 163.340352 
L 1023.289728 160.470102 
L 1016.566587 157.248883 
L 1009.843446 153.660803 
L 1003.120305 149.694475 
L 996.397164 145.344009 
L 989.674023 140.609979 
L 982.950881 135.500329 
L 976.22774 130.031172 
L 969.504599 124.227433 
L 962.781458 118.1233 
L 956.058317 111.762436 
L 949.335176 105.19792 
L 942.612034 98.491885 
L 935.888893 91.714847 
L 929.165752 84.944703 
L 922.442611 78.265423 
L 915.71947 71.765444 
L 908.996329 65.535817 
L 902.273188 59.668146 
L 895.550046 54.252384 
L 888.826905 49.374564 
L 882.103764 45.114536 
L 875.380623 41.5438 
L 868.657482 38.723509 
L 861.934341 36.702727 
L 855.211199 35.517008 
L 848.488058 35.187348 
L 841.764917 35.719568 
L 835.041776 37.104128 
L 828.318635 39.316411 
L 821.595494 42.317435 
L 814.872353 46.054982 
L 808.149211 50.46509 
L 801.42607 55.47385 
L 794.702929 60.999431 
L 787.979788 66.954262 
L 781.256647 73.247277 
L 774.533506 79.786153 
L 767.810364 86.479451 
L 761.087223 93.238598 
L 754.364082 99.979648 
L 747.640941 106.624768 
L 740.9178 113.103427 
L 734.194659 119.353262 
L 727.471518 125.320617 
L 720.748376 130.960764 
L 714.025235 136.237838 
L 707.302094 141.124497 
L 700.578953 145.601369 
L 693.855812 149.656315 
L 687.132671 153.283567 
L 680.40953 156.482781 
L 673.686388 159.258065 
L 666.963247 161.617012 
L 660.240106 163.569789 
L 653.516965 165.128318 
L 646.793824 166.305561 
L 640.070683 167.114949 
L 633.347541 167.569957 
L 626.6244 167.683832 
L 619.901259 167.469476 
L 613.178118 166.939471 
L 606.454977 166.106243 
L 599.731836 164.98233 
L 593.008695 163.580751 
L 586.285553 161.915426 
L 579.562412 160.001646 
L 572.839271 157.856533 
L 566.11613 155.499482 
L 559.392989 152.952545 
L 552.669848 150.240728 
L 545.946706 147.392179 
L 539.223565 144.438255 
L 532.500424 141.413428 
L 525.777283 138.35505 
L 519.054142 135.302958 
L 512.331001 132.298926 
L 505.60786 129.385981 
L 498.884718 126.607593 
L 492.161577 124.00678 
L 485.438436 121.62514 
L 478.715295 119.501868 
L 471.992154 117.672765 
L 465.269013 116.169316 
L 458.545871 115.017842 
L 451.82273 114.238778 
L 445.099589 113.846105 
L 438.376448 113.846961 
L 431.653307 114.241443 
L 424.930166 115.022615 
L 418.207025 116.176723 
L 411.483883 117.683604 
L 404.760742 119.517276 
L 398.037601 121.64668 
L 391.31446 124.036559 
L 384.591319 126.648421 
L 377.868178 129.441559 
L 371.145036 132.37409 
L 364.421895 135.403977 
L 357.698754 138.489995 
L 350.975613 141.592612 
L 344.252472 144.67476 
L 337.529331 147.702485 
L 330.80619 150.645444 
L 324.083048 153.477261 
L 317.359907 156.175739 
L 310.636766 158.722922 
L 303.913625 161.105035 
L 297.190484 163.312305 
L 290.467343 165.338689 
L 283.744202 167.181522 
L 277.02106 168.841115 
L 270.297919 170.320319 
L 263.574778 171.62407 
L 256.851637 172.758952 
L 250.128496 173.732763 
L 243.405355 174.554132 
L 236.682213 175.232171 
L 229.959072 175.776181 
L 223.235931 176.195414 
L 216.51279 176.498895 
L 209.789649 176.695294 
L 203.066508 176.79286 
L 196.343367 176.799397 
L 189.620225 176.722285 
L 182.897084 176.568534 
L 176.173943 176.344862 
L 169.450802 176.057797 
L 162.727661 175.713784 
L 156.00452 175.319285 
L 149.281378 174.880887 
L 142.558237 174.405382 
L 135.835096 173.899832 
L 129.111955 173.371606 
L 122.388814 172.828396 
L 115.665673 172.278186 
L 108.942532 171.72921 
L 102.21939 171.18986 
L 95.496249 170.668585 
L 88.773108 170.173747 
L 82.049967 169.713481 
L 75.326826 169.295519 
L 68.603685 168.927032 
L 61.880543 168.614457 
L 55.157402 168.363342 
L 48.434261 168.178208 
L 41.71112 168.062428 
L 34.987979 168.018146 
L 28.264838 168.046218 
L 21.541697 168.146194 
L 14.818555 168.316336 
L 8.095414 168.553675 
L 1.372273 168.854099 
L -5.350868 169.212475 
L -12.074009 169.622797 
L -18.79715 170.078355 
L -25.520292 170.571915 
L -32.243433 171.095914 
L -38.966574 171.642649 
L -45.689715 172.204463 
L -52.412856 172.773918 
L -59.135997 173.343951 
L -65.859138 173.908012 
L -72.58228 174.460168 
L -79.305421 174.995195 
L -86.028562 175.508627 
L -92.751703 175.996792 
L -99.474844 176.456815 
L -106.197985 176.886599 
L -112.921126 177.284788 
L -119.644268 177.650715 
L -126.367409 177.984332 
L -133.09055 178.286133 
L -139.813691 178.557076 
L -146.536832 178.798499 
L -153.259973 179.012034 
L -159.983115 179.199532 
L -166.706256 179.362988 
L -173.429397 179.504475 
L -180.152538 179.626087 
L -186.875679 179.72989 
L -193.59882 179.817883 
L -200.321961 179.891965 
L -207.045103 179.953913 
L -213.768244 180.005365 
L -220.491385 180.047814 
L -227.214526 180.082604 
z
" style="fill:#dd8452;fill-opacity:0.25;stroke:#dd8452;"/>
   </g>
   <g id="patch_3">
    <path d="M 34.193438 180.218125 
L 34.193438 22.318125 
" style="fill:none;stroke:#ffffff;stroke-linecap:square;stroke-linejoin:miter;stroke-width:1.25;"/>
   </g>
   <g id="patch_4">
    <path d="M 34.193438 180.218125 
L 849.2826 180.218125 
" style="fill:none;stroke:#ffffff;stroke-linecap:square;stroke-linejoin:miter;stroke-width:1.25;"/>
   </g>
   <g id="text_18">
    <!-- Output: slp -->
    <g style="fill:#262626;" transform="translate(408.366769 16.318125)scale(0.12 -0.12)">
     <defs>
      <path d="M 39.40625 66.21875 
Q 28.65625 66.21875 22.328125 58.203125 
Q 16.015625 50.203125 16.015625 36.375 
Q 16.015625 22.609375 22.328125 14.59375 
Q 28.65625 6.59375 39.40625 6.59375 
Q 50.140625 6.59375 56.421875 14.59375 
Q 62.703125 22.609375 62.703125 36.375 
Q 62.703125 50.203125 56.421875 58.203125 
Q 50.140625 66.21875 39.40625 66.21875 
z
M 39.40625 74.21875 
Q 54.734375 74.21875 63.90625 63.9375 
Q 73.09375 53.65625 73.09375 36.375 
Q 73.09375 19.140625 63.90625 8.859375 
Q 54.734375 -1.421875 39.40625 -1.421875 
Q 24.03125 -1.421875 14.8125 8.828125 
Q 5.609375 19.09375 5.609375 36.375 
Q 5.609375 53.65625 14.8125 63.9375 
Q 24.03125 74.21875 39.40625 74.21875 
z
" id="DejaVuSans-79"/>
      <path d="M 8.5 21.578125 
L 8.5 54.6875 
L 17.484375 54.6875 
L 17.484375 21.921875 
Q 17.484375 14.15625 20.5 10.265625 
Q 23.53125 6.390625 29.59375 6.390625 
Q 36.859375 6.390625 41.078125 11.03125 
Q 45.3125 15.671875 45.3125 23.6875 
L 45.3125 54.6875 
L 54.296875 54.6875 
L 54.296875 0 
L 45.3125 0 
L 45.3125 8.40625 
Q 42.046875 3.421875 37.71875 1 
Q 33.40625 -1.421875 27.6875 -1.421875 
Q 18.265625 -1.421875 13.375 4.4375 
Q 8.5 10.296875 8.5 21.578125 
z
M 31.109375 56 
z
" id="DejaVuSans-117"/>
      <path d="M 18.3125 70.21875 
L 18.3125 54.6875 
L 36.8125 54.6875 
L 36.8125 47.703125 
L 18.3125 47.703125 
L 18.3125 18.015625 
Q 18.3125 11.328125 20.140625 9.421875 
Q 21.96875 7.515625 27.59375 7.515625 
L 36.8125 7.515625 
L 36.8125 0 
L 27.59375 0 
Q 17.1875 0 13.234375 3.875 
Q 9.28125 7.765625 9.28125 18.015625 
L 9.28125 47.703125 
L 2.6875 47.703125 
L 2.6875 54.6875 
L 9.28125 54.6875 
L 9.28125 70.21875 
z
" id="DejaVuSans-116"/>
      <path d="M 11.71875 12.40625 
L 22.015625 12.40625 
L 22.015625 0 
L 11.71875 0 
z
M 11.71875 51.703125 
L 22.015625 51.703125 
L 22.015625 39.3125 
L 11.71875 39.3125 
z
" id="DejaVuSans-58"/>
      <path id="DejaVuSans-32"/>
     </defs>
     <use xlink:href="#DejaVuSans-79"/>
     <use x="78.710938" xlink:href="#DejaVuSans-117"/>
     <use x="142.089844" xlink:href="#DejaVuSans-116"/>
     <use x="181.298828" xlink:href="#DejaVuSans-112"/>
     <use x="244.775391" xlink:href="#DejaVuSans-117"/>
     <use x="308.154297" xlink:href="#DejaVuSans-116"/>
     <use x="347.363281" xlink:href="#DejaVuSans-58"/>
     <use x="381.054688" xlink:href="#DejaVuSans-32"/>
     <use x="412.841797" xlink:href="#DejaVuSans-115"/>
     <use x="464.941406" xlink:href="#DejaVuSans-108"/>
     <use x="492.724609" xlink:href="#DejaVuSans-112"/>
    </g>
   </g>
  </g>
  <g id="legend_1">
   <g id="text_19">
    <!-- output -->
    <g style="fill:#262626;" transform="translate(859.052475 98.754219)scale(0.12 -0.12)">
     <defs>
      <path d="M 30.609375 48.390625 
Q 23.390625 48.390625 19.1875 42.75 
Q 14.984375 37.109375 14.984375 27.296875 
Q 14.984375 17.484375 19.15625 11.84375 
Q 23.34375 6.203125 30.609375 6.203125 
Q 37.796875 6.203125 41.984375 11.859375 
Q 46.1875 17.53125 46.1875 27.296875 
Q 46.1875 37.015625 41.984375 42.703125 
Q 37.796875 48.390625 30.609375 48.390625 
z
M 30.609375 56 
Q 42.328125 56 49.015625 48.375 
Q 55.71875 40.765625 55.71875 27.296875 
Q 55.71875 13.875 49.015625 6.21875 
Q 42.328125 -1.421875 30.609375 -1.421875 
Q 18.84375 -1.421875 12.171875 6.21875 
Q 5.515625 13.875 5.515625 27.296875 
Q 5.515625 40.765625 12.171875 48.375 
Q 18.84375 56 30.609375 56 
z
" id="DejaVuSans-111"/>
     </defs>
     <use xlink:href="#DejaVuSans-111"/>
     <use x="61.181641" xlink:href="#DejaVuSans-117"/>
     <use x="124.560547" xlink:href="#DejaVuSans-116"/>
     <use x="163.769531" xlink:href="#DejaVuSans-112"/>
     <use x="227.246094" xlink:href="#DejaVuSans-117"/>
     <use x="290.625" xlink:href="#DejaVuSans-116"/>
    </g>
   </g>
   <g id="patch_5">
    <path d="M 859.942787 115.108125 
L 881.942787 115.108125 
L 881.942787 107.408125 
L 859.942787 107.408125 
z
" style="fill:#4c72b0;fill-opacity:0.25;stroke:#4c72b0;stroke-linejoin:miter;"/>
   </g>
   <g id="text_20">
    <!-- 0 -->
    <g style="fill:#262626;" transform="translate(890.742787 115.108125)scale(0.11 -0.11)">
     <use xlink:href="#DejaVuSans-48"/>
    </g>
   </g>
   <g id="patch_6">
    <path d="M 859.942787 131.254063 
L 881.942787 131.254063 
L 881.942787 123.554063 
L 859.942787 123.554063 
z
" style="fill:#dd8452;fill-opacity:0.25;stroke:#dd8452;stroke-linejoin:miter;"/>
   </g>
   <g id="text_21">
    <!-- 1 -->
    <g style="fill:#262626;" transform="translate(890.742787 131.254063)scale(0.11 -0.11)">
     <use xlink:href="#DejaVuSans-49"/>
    </g>
   </g>
  </g>
 </g>
 <defs>
  <clipPath id="pf99fcd6a43">
   <rect height="157.9" width="815.089162" x="34.193438" y="22.318125"/>
  </clipPath>
 </defs>
</svg>
