<?xml version="1.0" encoding="utf-8" standalone="no"?>
<!DOCTYPE svg PUBLIC "-//W3C//DTD SVG 1.1//EN"
  "http://www.w3.org/Graphics/SVG/1.1/DTD/svg11.dtd">
<!-- Created with matplotlib (https://matplotlib.org/) -->
<svg height="223.177812pt" version="1.1" viewBox="0 0 907.744685 223.177812" width="907.744685pt" xmlns="http://www.w3.org/2000/svg" xmlns:xlink="http://www.w3.org/1999/xlink">
 <metadata>
  <rdf:RDF xmlns:cc="http://creativecommons.org/ns#" xmlns:dc="http://purl.org/dc/elements/1.1/" xmlns:rdf="http://www.w3.org/1999/02/22-rdf-syntax-ns#">
   <cc:Work>
    <dc:type rdf:resource="http://purl.org/dc/dcmitype/StillImage"/>
    <dc:date>2021-07-04T23:48:56.450033</dc:date>
    <dc:format>image/svg+xml</dc:format>
    <dc:creator>
     <cc:Agent>
      <dc:title>Matplotlib v3.3.4, https://matplotlib.org/</dc:title>
     </cc:Agent>
    </dc:creator>
   </cc:Work>
  </rdf:RDF>
 </metadata>
 <defs>
  <style type="text/css">*{stroke-linecap:butt;stroke-linejoin:round;}</style>
 </defs>
 <g id="figure_1">
  <g id="patch_1">
   <path d="M 0 223.177812 
L 907.744685 223.177812 
L 907.744685 0 
L 0 0 
z
" style="fill:none;"/>
  </g>
  <g id="axes_1">
   <g id="patch_2">
    <path d="M 48.190938 180.218125 
L 848.495435 180.218125 
L 848.495435 22.318125 
L 48.190938 22.318125 
z
" style="fill:#eaeaf2;"/>
   </g>
   <g id="matplotlib.axis_1">
    <g id="xtick_1">
     <g id="line2d_1">
      <path clip-path="url(#p54683d4142)" d="M 48.190938 180.218125 
L 48.190938 22.318125 
" style="fill:none;stroke:#ffffff;stroke-linecap:round;"/>
     </g>
     <g id="text_1">
      <!-- 0 -->
      <g style="fill:#262626;" transform="translate(44.691563 198.076406)scale(0.11 -0.11)">
       <defs>
        <path d="M 31.78125 66.40625 
Q 24.171875 66.40625 20.328125 58.90625 
Q 16.5 51.421875 16.5 36.375 
Q 16.5 21.390625 20.328125 13.890625 
Q 24.171875 6.390625 31.78125 6.390625 
Q 39.453125 6.390625 43.28125 13.890625 
Q 47.125 21.390625 47.125 36.375 
Q 47.125 51.421875 43.28125 58.90625 
Q 39.453125 66.40625 31.78125 66.40625 
z
M 31.78125 74.21875 
Q 44.046875 74.21875 50.515625 64.515625 
Q 56.984375 54.828125 56.984375 36.375 
Q 56.984375 17.96875 50.515625 8.265625 
Q 44.046875 -1.421875 31.78125 -1.421875 
Q 19.53125 -1.421875 13.0625 8.265625 
Q 6.59375 17.96875 6.59375 36.375 
Q 6.59375 54.828125 13.0625 64.515625 
Q 19.53125 74.21875 31.78125 74.21875 
z
" id="DejaVuSans-48"/>
       </defs>
       <use xlink:href="#DejaVuSans-48"/>
      </g>
     </g>
    </g>
    <g id="xtick_2">
     <g id="line2d_2">
      <path clip-path="url(#p54683d4142)" d="M 147.238524 180.218125 
L 147.238524 22.318125 
" style="fill:none;stroke:#ffffff;stroke-linecap:round;"/>
     </g>
     <g id="text_2">
      <!-- 25 -->
      <g style="fill:#262626;" transform="translate(140.239774 198.076406)scale(0.11 -0.11)">
       <defs>
        <path d="M 19.1875 8.296875 
L 53.609375 8.296875 
L 53.609375 0 
L 7.328125 0 
L 7.328125 8.296875 
Q 12.9375 14.109375 22.625 23.890625 
Q 32.328125 33.6875 34.8125 36.53125 
Q 39.546875 41.84375 41.421875 45.53125 
Q 43.3125 49.21875 43.3125 52.78125 
Q 43.3125 58.59375 39.234375 62.25 
Q 35.15625 65.921875 28.609375 65.921875 
Q 23.96875 65.921875 18.8125 64.3125 
Q 13.671875 62.703125 7.8125 59.421875 
L 7.8125 69.390625 
Q 13.765625 71.78125 18.9375 73 
Q 24.125 74.21875 28.421875 74.21875 
Q 39.75 74.21875 46.484375 68.546875 
Q 53.21875 62.890625 53.21875 53.421875 
Q 53.21875 48.921875 51.53125 44.890625 
Q 49.859375 40.875 45.40625 35.40625 
Q 44.1875 33.984375 37.640625 27.21875 
Q 31.109375 20.453125 19.1875 8.296875 
z
" id="DejaVuSans-50"/>
        <path d="M 10.796875 72.90625 
L 49.515625 72.90625 
L 49.515625 64.59375 
L 19.828125 64.59375 
L 19.828125 46.734375 
Q 21.96875 47.46875 24.109375 47.828125 
Q 26.265625 48.1875 28.421875 48.1875 
Q 40.625 48.1875 47.75 41.5 
Q 54.890625 34.8125 54.890625 23.390625 
Q 54.890625 11.625 47.5625 5.09375 
Q 40.234375 -1.421875 26.90625 -1.421875 
Q 22.3125 -1.421875 17.546875 -0.640625 
Q 12.796875 0.140625 7.71875 1.703125 
L 7.71875 11.625 
Q 12.109375 9.234375 16.796875 8.0625 
Q 21.484375 6.890625 26.703125 6.890625 
Q 35.15625 6.890625 40.078125 11.328125 
Q 45.015625 15.765625 45.015625 23.390625 
Q 45.015625 31 40.078125 35.4375 
Q 35.15625 39.890625 26.703125 39.890625 
Q 22.75 39.890625 18.8125 39.015625 
Q 14.890625 38.140625 10.796875 36.28125 
z
" id="DejaVuSans-53"/>
       </defs>
       <use xlink:href="#DejaVuSans-50"/>
       <use x="63.623047" xlink:href="#DejaVuSans-53"/>
      </g>
     </g>
    </g>
    <g id="xtick_3">
     <g id="line2d_3">
      <path clip-path="url(#p54683d4142)" d="M 246.28611 180.218125 
L 246.28611 22.318125 
" style="fill:none;stroke:#ffffff;stroke-linecap:round;"/>
     </g>
     <g id="text_3">
      <!-- 50 -->
      <g style="fill:#262626;" transform="translate(239.28736 198.076406)scale(0.11 -0.11)">
       <use xlink:href="#DejaVuSans-53"/>
       <use x="63.623047" xlink:href="#DejaVuSans-48"/>
      </g>
     </g>
    </g>
    <g id="xtick_4">
     <g id="line2d_4">
      <path clip-path="url(#p54683d4142)" d="M 345.333697 180.218125 
L 345.333697 22.318125 
" style="fill:none;stroke:#ffffff;stroke-linecap:round;"/>
     </g>
     <g id="text_4">
      <!-- 75 -->
      <g style="fill:#262626;" transform="translate(338.334947 198.076406)scale(0.11 -0.11)">
       <defs>
        <path d="M 8.203125 72.90625 
L 55.078125 72.90625 
L 55.078125 68.703125 
L 28.609375 0 
L 18.3125 0 
L 43.21875 64.59375 
L 8.203125 64.59375 
z
" id="DejaVuSans-55"/>
       </defs>
       <use xlink:href="#DejaVuSans-55"/>
       <use x="63.623047" xlink:href="#DejaVuSans-53"/>
      </g>
     </g>
    </g>
    <g id="xtick_5">
     <g id="line2d_5">
      <path clip-path="url(#p54683d4142)" d="M 444.381283 180.218125 
L 444.381283 22.318125 
" style="fill:none;stroke:#ffffff;stroke-linecap:round;"/>
     </g>
     <g id="text_5">
      <!-- 100 -->
      <g style="fill:#262626;" transform="translate(433.883158 198.076406)scale(0.11 -0.11)">
       <defs>
        <path d="M 12.40625 8.296875 
L 28.515625 8.296875 
L 28.515625 63.921875 
L 10.984375 60.40625 
L 10.984375 69.390625 
L 28.421875 72.90625 
L 38.28125 72.90625 
L 38.28125 8.296875 
L 54.390625 8.296875 
L 54.390625 0 
L 12.40625 0 
z
" id="DejaVuSans-49"/>
       </defs>
       <use xlink:href="#DejaVuSans-49"/>
       <use x="63.623047" xlink:href="#DejaVuSans-48"/>
       <use x="127.246094" xlink:href="#DejaVuSans-48"/>
      </g>
     </g>
    </g>
    <g id="xtick_6">
     <g id="line2d_6">
      <path clip-path="url(#p54683d4142)" d="M 543.428869 180.218125 
L 543.428869 22.318125 
" style="fill:none;stroke:#ffffff;stroke-linecap:round;"/>
     </g>
     <g id="text_6">
      <!-- 125 -->
      <g style="fill:#262626;" transform="translate(532.930744 198.076406)scale(0.11 -0.11)">
       <use xlink:href="#DejaVuSans-49"/>
       <use x="63.623047" xlink:href="#DejaVuSans-50"/>
       <use x="127.246094" xlink:href="#DejaVuSans-53"/>
      </g>
     </g>
    </g>
    <g id="xtick_7">
     <g id="line2d_7">
      <path clip-path="url(#p54683d4142)" d="M 642.476456 180.218125 
L 642.476456 22.318125 
" style="fill:none;stroke:#ffffff;stroke-linecap:round;"/>
     </g>
     <g id="text_7">
      <!-- 150 -->
      <g style="fill:#262626;" transform="translate(631.978331 198.076406)scale(0.11 -0.11)">
       <use xlink:href="#DejaVuSans-49"/>
       <use x="63.623047" xlink:href="#DejaVuSans-53"/>
       <use x="127.246094" xlink:href="#DejaVuSans-48"/>
      </g>
     </g>
    </g>
    <g id="xtick_8">
     <g id="line2d_8">
      <path clip-path="url(#p54683d4142)" d="M 741.524042 180.218125 
L 741.524042 22.318125 
" style="fill:none;stroke:#ffffff;stroke-linecap:round;"/>
     </g>
     <g id="text_8">
      <!-- 175 -->
      <g style="fill:#262626;" transform="translate(731.025917 198.076406)scale(0.11 -0.11)">
       <use xlink:href="#DejaVuSans-49"/>
       <use x="63.623047" xlink:href="#DejaVuSans-55"/>
       <use x="127.246094" xlink:href="#DejaVuSans-53"/>
      </g>
     </g>
    </g>
    <g id="xtick_9">
     <g id="line2d_9">
      <path clip-path="url(#p54683d4142)" d="M 840.571628 180.218125 
L 840.571628 22.318125 
" style="fill:none;stroke:#ffffff;stroke-linecap:round;"/>
     </g>
     <g id="text_9">
      <!-- 200 -->
      <g style="fill:#262626;" transform="translate(830.073503 198.076406)scale(0.11 -0.11)">
       <use xlink:href="#DejaVuSans-50"/>
       <use x="63.623047" xlink:href="#DejaVuSans-48"/>
       <use x="127.246094" xlink:href="#DejaVuSans-48"/>
      </g>
     </g>
    </g>
    <g id="text_10">
     <!-- thalachh -->
     <g style="fill:#262626;" transform="translate(422.263811 213.482187)scale(0.12 -0.12)">
      <defs>
       <path d="M 18.3125 70.21875 
L 18.3125 54.6875 
L 36.8125 54.6875 
L 36.8125 47.703125 
L 18.3125 47.703125 
L 18.3125 18.015625 
Q 18.3125 11.328125 20.140625 9.421875 
Q 21.96875 7.515625 27.59375 7.515625 
L 36.8125 7.515625 
L 36.8125 0 
L 27.59375 0 
Q 17.1875 0 13.234375 3.875 
Q 9.28125 7.765625 9.28125 18.015625 
L 9.28125 47.703125 
L 2.6875 47.703125 
L 2.6875 54.6875 
L 9.28125 54.6875 
L 9.28125 70.21875 
z
" id="DejaVuSans-116"/>
       <path d="M 54.890625 33.015625 
L 54.890625 0 
L 45.90625 0 
L 45.90625 32.71875 
Q 45.90625 40.484375 42.875 44.328125 
Q 39.84375 48.1875 33.796875 48.1875 
Q 26.515625 48.1875 22.3125 43.546875 
Q 18.109375 38.921875 18.109375 30.90625 
L 18.109375 0 
L 9.078125 0 
L 9.078125 75.984375 
L 18.109375 75.984375 
L 18.109375 46.1875 
Q 21.34375 51.125 25.703125 53.5625 
Q 30.078125 56 35.796875 56 
Q 45.21875 56 50.046875 50.171875 
Q 54.890625 44.34375 54.890625 33.015625 
z
" id="DejaVuSans-104"/>
       <path d="M 34.28125 27.484375 
Q 23.390625 27.484375 19.1875 25 
Q 14.984375 22.515625 14.984375 16.5 
Q 14.984375 11.71875 18.140625 8.90625 
Q 21.296875 6.109375 26.703125 6.109375 
Q 34.1875 6.109375 38.703125 11.40625 
Q 43.21875 16.703125 43.21875 25.484375 
L 43.21875 27.484375 
z
M 52.203125 31.203125 
L 52.203125 0 
L 43.21875 0 
L 43.21875 8.296875 
Q 40.140625 3.328125 35.546875 0.953125 
Q 30.953125 -1.421875 24.3125 -1.421875 
Q 15.921875 -1.421875 10.953125 3.296875 
Q 6 8.015625 6 15.921875 
Q 6 25.140625 12.171875 29.828125 
Q 18.359375 34.515625 30.609375 34.515625 
L 43.21875 34.515625 
L 43.21875 35.40625 
Q 43.21875 41.609375 39.140625 45 
Q 35.0625 48.390625 27.6875 48.390625 
Q 23 48.390625 18.546875 47.265625 
Q 14.109375 46.140625 10.015625 43.890625 
L 10.015625 52.203125 
Q 14.9375 54.109375 19.578125 55.046875 
Q 24.21875 56 28.609375 56 
Q 40.484375 56 46.34375 49.84375 
Q 52.203125 43.703125 52.203125 31.203125 
z
" id="DejaVuSans-97"/>
       <path d="M 9.421875 75.984375 
L 18.40625 75.984375 
L 18.40625 0 
L 9.421875 0 
z
" id="DejaVuSans-108"/>
       <path d="M 48.78125 52.59375 
L 48.78125 44.1875 
Q 44.96875 46.296875 41.140625 47.34375 
Q 37.3125 48.390625 33.40625 48.390625 
Q 24.65625 48.390625 19.8125 42.84375 
Q 14.984375 37.3125 14.984375 27.296875 
Q 14.984375 17.28125 19.8125 11.734375 
Q 24.65625 6.203125 33.40625 6.203125 
Q 37.3125 6.203125 41.140625 7.25 
Q 44.96875 8.296875 48.78125 10.40625 
L 48.78125 2.09375 
Q 45.015625 0.34375 40.984375 -0.53125 
Q 36.96875 -1.421875 32.421875 -1.421875 
Q 20.0625 -1.421875 12.78125 6.34375 
Q 5.515625 14.109375 5.515625 27.296875 
Q 5.515625 40.671875 12.859375 48.328125 
Q 20.21875 56 33.015625 56 
Q 37.15625 56 41.109375 55.140625 
Q 45.0625 54.296875 48.78125 52.59375 
z
" id="DejaVuSans-99"/>
      </defs>
      <use xlink:href="#DejaVuSans-116"/>
      <use x="39.208984" xlink:href="#DejaVuSans-104"/>
      <use x="102.587891" xlink:href="#DejaVuSans-97"/>
      <use x="163.867188" xlink:href="#DejaVuSans-108"/>
      <use x="191.650391" xlink:href="#DejaVuSans-97"/>
      <use x="252.929688" xlink:href="#DejaVuSans-99"/>
      <use x="307.910156" xlink:href="#DejaVuSans-104"/>
      <use x="371.289062" xlink:href="#DejaVuSans-104"/>
     </g>
    </g>
   </g>
   <g id="matplotlib.axis_2">
    <g id="ytick_1">
     <g id="line2d_10">
      <path clip-path="url(#p54683d4142)" d="M 48.190938 180.218125 
L 848.495435 180.218125 
" style="fill:none;stroke:#ffffff;stroke-linecap:round;"/>
     </g>
     <g id="text_11">
      <!-- 0.000 -->
      <g style="fill:#262626;" transform="translate(7.2 184.397266)scale(0.11 -0.11)">
       <defs>
        <path d="M 10.6875 12.40625 
L 21 12.40625 
L 21 0 
L 10.6875 0 
z
" id="DejaVuSans-46"/>
       </defs>
       <use xlink:href="#DejaVuSans-48"/>
       <use x="63.623047" xlink:href="#DejaVuSans-46"/>
       <use x="95.410156" xlink:href="#DejaVuSans-48"/>
       <use x="159.033203" xlink:href="#DejaVuSans-48"/>
       <use x="222.65625" xlink:href="#DejaVuSans-48"/>
      </g>
     </g>
    </g>
    <g id="ytick_2">
     <g id="line2d_11">
      <path clip-path="url(#p54683d4142)" d="M 48.190938 145.423461 
L 848.495435 145.423461 
" style="fill:none;stroke:#ffffff;stroke-linecap:round;"/>
     </g>
     <g id="text_12">
      <!-- 0.005 -->
      <g style="fill:#262626;" transform="translate(7.2 149.602602)scale(0.11 -0.11)">
       <use xlink:href="#DejaVuSans-48"/>
       <use x="63.623047" xlink:href="#DejaVuSans-46"/>
       <use x="95.410156" xlink:href="#DejaVuSans-48"/>
       <use x="159.033203" xlink:href="#DejaVuSans-48"/>
       <use x="222.65625" xlink:href="#DejaVuSans-53"/>
      </g>
     </g>
    </g>
    <g id="ytick_3">
     <g id="line2d_12">
      <path clip-path="url(#p54683d4142)" d="M 48.190938 110.628798 
L 848.495435 110.628798 
" style="fill:none;stroke:#ffffff;stroke-linecap:round;"/>
     </g>
     <g id="text_13">
      <!-- 0.010 -->
      <g style="fill:#262626;" transform="translate(7.2 114.807938)scale(0.11 -0.11)">
       <use xlink:href="#DejaVuSans-48"/>
       <use x="63.623047" xlink:href="#DejaVuSans-46"/>
       <use x="95.410156" xlink:href="#DejaVuSans-48"/>
       <use x="159.033203" xlink:href="#DejaVuSans-49"/>
       <use x="222.65625" xlink:href="#DejaVuSans-48"/>
      </g>
     </g>
    </g>
    <g id="ytick_4">
     <g id="line2d_13">
      <path clip-path="url(#p54683d4142)" d="M 48.190938 75.834134 
L 848.495435 75.834134 
" style="fill:none;stroke:#ffffff;stroke-linecap:round;"/>
     </g>
     <g id="text_14">
      <!-- 0.015 -->
      <g style="fill:#262626;" transform="translate(7.2 80.013275)scale(0.11 -0.11)">
       <use xlink:href="#DejaVuSans-48"/>
       <use x="63.623047" xlink:href="#DejaVuSans-46"/>
       <use x="95.410156" xlink:href="#DejaVuSans-48"/>
       <use x="159.033203" xlink:href="#DejaVuSans-49"/>
       <use x="222.65625" xlink:href="#DejaVuSans-53"/>
      </g>
     </g>
    </g>
    <g id="ytick_5">
     <g id="line2d_14">
      <path clip-path="url(#p54683d4142)" d="M 48.190938 41.03947 
L 848.495435 41.03947 
" style="fill:none;stroke:#ffffff;stroke-linecap:round;"/>
     </g>
     <g id="text_15">
      <!-- 0.020 -->
      <g style="fill:#262626;" transform="translate(7.2 45.218611)scale(0.11 -0.11)">
       <use xlink:href="#DejaVuSans-48"/>
       <use x="63.623047" xlink:href="#DejaVuSans-46"/>
       <use x="95.410156" xlink:href="#DejaVuSans-48"/>
       <use x="159.033203" xlink:href="#DejaVuSans-50"/>
       <use x="222.65625" xlink:href="#DejaVuSans-48"/>
      </g>
     </g>
    </g>
   </g>
   <g id="PolyCollection_1">
    <defs>
     <path d="M 229.224544 -42.986192 
L 229.224544 -42.959688 
L 232.700922 -42.959688 
L 236.177299 -42.959688 
L 239.653677 -42.959688 
L 243.130054 -42.959688 
L 246.606431 -42.959688 
L 250.082809 -42.959688 
L 253.559186 -42.959688 
L 257.035564 -42.959688 
L 260.511941 -42.959688 
L 263.988318 -42.959688 
L 267.464696 -42.959688 
L 270.941073 -42.959688 
L 274.417451 -42.959688 
L 277.893828 -42.959688 
L 281.370206 -42.959688 
L 284.846583 -42.959688 
L 288.32296 -42.959688 
L 291.799338 -42.959688 
L 295.275715 -42.959688 
L 298.752093 -42.959688 
L 302.22847 -42.959688 
L 305.704847 -42.959688 
L 309.181225 -42.959688 
L 312.657602 -42.959688 
L 316.13398 -42.959688 
L 319.610357 -42.959688 
L 323.086735 -42.959688 
L 326.563112 -42.959688 
L 330.039489 -42.959688 
L 333.515867 -42.959688 
L 336.992244 -42.959688 
L 340.468622 -42.959688 
L 343.944999 -42.959688 
L 347.421376 -42.959688 
L 350.897754 -42.959688 
L 354.374131 -42.959688 
L 357.850509 -42.959688 
L 361.326886 -42.959688 
L 364.803263 -42.959688 
L 368.279641 -42.959688 
L 371.756018 -42.959688 
L 375.232396 -42.959688 
L 378.708773 -42.959688 
L 382.185151 -42.959688 
L 385.661528 -42.959688 
L 389.137905 -42.959688 
L 392.614283 -42.959688 
L 396.09066 -42.959688 
L 399.567038 -42.959688 
L 403.043415 -42.959688 
L 406.519792 -42.959688 
L 409.99617 -42.959688 
L 413.472547 -42.959688 
L 416.948925 -42.959688 
L 420.425302 -42.959688 
L 423.901679 -42.959688 
L 427.378057 -42.959688 
L 430.854434 -42.959688 
L 434.330812 -42.959688 
L 437.807189 -42.959688 
L 441.283567 -42.959688 
L 444.759944 -42.959688 
L 448.236321 -42.959688 
L 451.712699 -42.959688 
L 455.189076 -42.959688 
L 458.665454 -42.959688 
L 462.141831 -42.959688 
L 465.618208 -42.959688 
L 469.094586 -42.959688 
L 472.570963 -42.959688 
L 476.047341 -42.959688 
L 479.523718 -42.959688 
L 483.000096 -42.959688 
L 486.476473 -42.959688 
L 489.95285 -42.959688 
L 493.429228 -42.959688 
L 496.905605 -42.959688 
L 500.381983 -42.959688 
L 503.85836 -42.959688 
L 507.334737 -42.959688 
L 510.811115 -42.959688 
L 514.287492 -42.959688 
L 517.76387 -42.959688 
L 521.240247 -42.959688 
L 524.716624 -42.959688 
L 528.193002 -42.959688 
L 531.669379 -42.959688 
L 535.145757 -42.959688 
L 538.622134 -42.959688 
L 542.098512 -42.959688 
L 545.574889 -42.959688 
L 549.051266 -42.959688 
L 552.527644 -42.959688 
L 556.004021 -42.959688 
L 559.480399 -42.959688 
L 562.956776 -42.959688 
L 566.433153 -42.959688 
L 569.909531 -42.959688 
L 573.385908 -42.959688 
L 576.862286 -42.959688 
L 580.338663 -42.959688 
L 583.81504 -42.959688 
L 587.291418 -42.959688 
L 590.767795 -42.959688 
L 594.244173 -42.959688 
L 597.72055 -42.959688 
L 601.196928 -42.959688 
L 604.673305 -42.959688 
L 608.149682 -42.959688 
L 611.62606 -42.959688 
L 615.102437 -42.959688 
L 618.578815 -42.959688 
L 622.055192 -42.959688 
L 625.531569 -42.959688 
L 629.007947 -42.959688 
L 632.484324 -42.959688 
L 635.960702 -42.959688 
L 639.437079 -42.959688 
L 642.913457 -42.959688 
L 646.389834 -42.959688 
L 649.866211 -42.959688 
L 653.342589 -42.959688 
L 656.818966 -42.959688 
L 660.295344 -42.959688 
L 663.771721 -42.959688 
L 667.248098 -42.959688 
L 670.724476 -42.959688 
L 674.200853 -42.959688 
L 677.677231 -42.959688 
L 681.153608 -42.959688 
L 684.629985 -42.959688 
L 688.106363 -42.959688 
L 691.58274 -42.959688 
L 695.059118 -42.959688 
L 698.535495 -42.959688 
L 702.011873 -42.959688 
L 705.48825 -42.959688 
L 708.964627 -42.959688 
L 712.441005 -42.959688 
L 715.917382 -42.959688 
L 719.39376 -42.959688 
L 722.870137 -42.959688 
L 726.346514 -42.959688 
L 729.822892 -42.959688 
L 733.299269 -42.959688 
L 736.775647 -42.959688 
L 740.252024 -42.959688 
L 743.728401 -42.959688 
L 747.204779 -42.959688 
L 750.681156 -42.959688 
L 754.157534 -42.959688 
L 757.633911 -42.959688 
L 761.110289 -42.959688 
L 764.586666 -42.959688 
L 768.063043 -42.959688 
L 771.539421 -42.959688 
L 775.015798 -42.959688 
L 778.492176 -42.959688 
L 781.968553 -42.959688 
L 785.44493 -42.959688 
L 788.921308 -42.959688 
L 792.397685 -42.959688 
L 795.874063 -42.959688 
L 799.35044 -42.959688 
L 802.826818 -42.959688 
L 806.303195 -42.959688 
L 809.779572 -42.959688 
L 813.25595 -42.959688 
L 816.732327 -42.959688 
L 820.208705 -42.959688 
L 823.685082 -42.959688 
L 827.161459 -42.959688 
L 830.637837 -42.959688 
L 834.114214 -42.959688 
L 837.590592 -42.959688 
L 841.066969 -42.959688 
L 844.543346 -42.959688 
L 848.019724 -42.959688 
L 851.496101 -42.959688 
L 854.972479 -42.959688 
L 858.448856 -42.959688 
L 861.925234 -42.959688 
L 865.401611 -42.959688 
L 868.877988 -42.959688 
L 872.354366 -42.959688 
L 875.830743 -42.959688 
L 879.307121 -42.959688 
L 882.783498 -42.959688 
L 886.259875 -42.959688 
L 889.736253 -42.959688 
L 893.21263 -42.959688 
L 896.689008 -42.959688 
L 900.165385 -42.959688 
L 903.641763 -42.959688 
L 907.11814 -42.959688 
L 910.594517 -42.959688 
L 914.070895 -42.959688 
L 917.547272 -42.959688 
L 921.02365 -42.959688 
L 921.02365 -42.986313 
L 921.02365 -42.986313 
L 917.547272 -42.995901 
L 914.070895 -43.00842 
L 910.594517 -43.024573 
L 907.11814 -43.045172 
L 903.641763 -43.07113 
L 900.165385 -43.103454 
L 896.689008 -43.143232 
L 893.21263 -43.191605 
L 889.736253 -43.249737 
L 886.259875 -43.318778 
L 882.783498 -43.399821 
L 879.307121 -43.493857 
L 875.830743 -43.601736 
L 872.354366 -43.724125 
L 868.877988 -43.861489 
L 865.401611 -44.014083 
L 861.925234 -44.181969 
L 858.448856 -44.365054 
L 854.972479 -44.563167 
L 851.496101 -44.776151 
L 848.019724 -45.003996 
L 844.543346 -45.246987 
L 841.066969 -45.505864 
L 837.590592 -45.781992 
L 834.114214 -46.077525 
L 830.637837 -46.395543 
L 827.161459 -46.740167 
L 823.685082 -47.116622 
L 820.208705 -47.531259 
L 816.732327 -47.991514 
L 813.25595 -48.505807 
L 809.779572 -49.083391 
L 806.303195 -49.734152 
L 802.826818 -50.468361 
L 799.35044 -51.296406 
L 795.874063 -52.228509 
L 792.397685 -53.274439 
L 788.921308 -54.443242 
L 785.44493 -55.742993 
L 781.968553 -57.180577 
L 778.492176 -58.761516 
L 775.015798 -60.489828 
L 771.539421 -62.36793 
L 768.063043 -64.396572 
L 764.586666 -66.574807 
L 761.110289 -68.899979 
L 757.633911 -71.367725 
L 754.157534 -73.971995 
L 750.681156 -76.705067 
L 747.204779 -79.557564 
L 743.728401 -82.518482 
L 740.252024 -85.575206 
L 736.775647 -88.713555 
L 733.299269 -91.91784 
L 729.822892 -95.170961 
L 726.346514 -98.454557 
L 722.870137 -101.749222 
L 719.39376 -105.034798 
L 715.917382 -108.290756 
L 712.441005 -111.496663 
L 708.964627 -114.632727 
L 705.48825 -117.680398 
L 702.011873 -120.622996 
L 698.535495 -123.446326 
L 695.059118 -126.139223 
L 691.58274 -128.69399 
L 688.106363 -131.106665 
L 684.629985 -133.377069 
L 681.153608 -135.508624 
L 677.677231 -137.507903 
L 674.200853 -139.38394 
L 670.724476 -141.147317 
L 667.248098 -142.809105 
L 663.771721 -144.379718 
L 660.295344 -145.867783 
L 656.818966 -147.279128 
L 653.342589 -148.615976 
L 649.866211 -149.876446 
L 646.389834 -151.0544 
L 642.913457 -152.13969 
L 639.437079 -153.118788 
L 635.960702 -153.975758 
L 632.484324 -154.693498 
L 629.007947 -155.255135 
L 625.531569 -155.645466 
L 622.055192 -155.852293 
L 618.578815 -155.867536 
L 615.102437 -155.688026 
L 611.62606 -155.315884 
L 608.149682 -154.75847 
L 604.673305 -154.027899 
L 601.196928 -153.140182 
L 597.72055 -152.11407 
L 594.244173 -150.969728 
L 590.767795 -149.727362 
L 587.291418 -148.405937 
L 583.81504 -147.022093 
L 580.338663 -145.589373 
L 576.862286 -144.117798 
L 573.385908 -142.613833 
L 569.909531 -141.080703 
L 566.433153 -139.51902 
L 562.956776 -137.927623 
L 559.480399 -136.304531 
L 556.004021 -134.647897 
L 552.527644 -132.956864 
L 549.051266 -131.232221 
L 545.574889 -129.476805 
L 542.098512 -127.695614 
L 538.622134 -125.895623 
L 535.145757 -124.085338 
L 531.669379 -122.274146 
L 528.193002 -120.471532 
L 524.716624 -118.686249 
L 521.240247 -116.925529 
L 517.76387 -115.194425 
L 514.287492 -113.495325 
L 510.811115 -111.827714 
L 507.334737 -110.188175 
L 503.85836 -108.57065 
L 500.381983 -106.966908 
L 496.905605 -105.367206 
L 493.429228 -103.761043 
L 489.95285 -102.137982 
L 486.476473 -100.488433 
L 483.000096 -98.804364 
L 479.523718 -97.079864 
L 476.047341 -95.311539 
L 472.570963 -93.498707 
L 469.094586 -91.6434 
L 465.618208 -89.750176 
L 462.141831 -87.825778 
L 458.665454 -85.878672 
L 455.189076 -83.918513 
L 451.712699 -81.955586 
L 448.236321 -80.000266 
L 444.759944 -78.062531 
L 441.283567 -76.151573 
L 437.807189 -74.275505 
L 434.330812 -72.441201 
L 430.854434 -70.654239 
L 427.378057 -68.918961 
L 423.901679 -67.238608 
L 420.425302 -65.615529 
L 416.948925 -64.051422 
L 413.472547 -62.547578 
L 409.99617 -61.105116 
L 406.519792 -59.725177 
L 403.043415 -58.409059 
L 399.567038 -57.158294 
L 396.09066 -55.974645 
L 392.614283 -54.860049 
L 389.137905 -53.816488 
L 385.661528 -52.84582 
L 382.185151 -51.949583 
L 378.708773 -51.128784 
L 375.232396 -50.383695 
L 371.756018 -49.713682 
L 368.279641 -49.117073 
L 364.803263 -48.591087 
L 361.326886 -48.131822 
L 357.850509 -47.734317 
L 354.374131 -47.392677 
L 350.897754 -47.10026 
L 347.421376 -46.84991 
L 343.944999 -46.634221 
L 340.468622 -46.445818 
L 336.992244 -46.277637 
L 333.515867 -46.123175 
L 330.039489 -45.97671 
L 326.563112 -45.833469 
L 323.086735 -45.689736 
L 319.610357 -45.542898 
L 316.13398 -45.391428 
L 312.657602 -45.234813 
L 309.181225 -45.07343 
L 305.704847 -44.908392 
L 302.22847 -44.741367 
L 298.752093 -44.574387 
L 295.275715 -44.40966 
L 291.799338 -44.249405 
L 288.32296 -44.095702 
L 284.846583 -43.950376 
L 281.370206 -43.814915 
L 277.893828 -43.690422 
L 274.417451 -43.577596 
L 270.941073 -43.476745 
L 267.464696 -43.387815 
L 263.988318 -43.310442 
L 260.511941 -43.24401 
L 257.035564 -43.187712 
L 253.559186 -43.140613 
L 250.082809 -43.101711 
L 246.606431 -43.069981 
L 243.130054 -43.044424 
L 239.653677 -43.024091 
L 236.177299 -43.008112 
L 232.700922 -42.995707 
L 229.224544 -42.986192 
z
" id="m4755364822" style="stroke:#4c72b0;"/>
    </defs>
    <g clip-path="url(#p54683d4142)">
     <use style="fill:#4c72b0;fill-opacity:0.25;stroke:#4c72b0;" x="0" xlink:href="#m4755364822" y="223.177812"/>
    </g>
   </g>
   <g id="PolyCollection_2">
    <defs>
     <path d="M 346.451784 -42.98699 
L 346.451784 -42.959688 
L 349.387089 -42.959688 
L 352.322393 -42.959688 
L 355.257697 -42.959688 
L 358.193001 -42.959688 
L 361.128305 -42.959688 
L 364.06361 -42.959688 
L 366.998914 -42.959688 
L 369.934218 -42.959688 
L 372.869522 -42.959688 
L 375.804826 -42.959688 
L 378.740131 -42.959688 
L 381.675435 -42.959688 
L 384.610739 -42.959688 
L 387.546043 -42.959688 
L 390.481347 -42.959688 
L 393.416652 -42.959688 
L 396.351956 -42.959688 
L 399.28726 -42.959688 
L 402.222564 -42.959688 
L 405.157868 -42.959688 
L 408.093173 -42.959688 
L 411.028477 -42.959688 
L 413.963781 -42.959688 
L 416.899085 -42.959688 
L 419.834389 -42.959688 
L 422.769694 -42.959688 
L 425.704998 -42.959688 
L 428.640302 -42.959688 
L 431.575606 -42.959688 
L 434.51091 -42.959688 
L 437.446215 -42.959688 
L 440.381519 -42.959688 
L 443.316823 -42.959688 
L 446.252127 -42.959688 
L 449.187431 -42.959688 
L 452.122736 -42.959688 
L 455.05804 -42.959688 
L 457.993344 -42.959688 
L 460.928648 -42.959688 
L 463.863952 -42.959688 
L 466.799257 -42.959688 
L 469.734561 -42.959688 
L 472.669865 -42.959688 
L 475.605169 -42.959688 
L 478.540473 -42.959688 
L 481.475778 -42.959688 
L 484.411082 -42.959688 
L 487.346386 -42.959688 
L 490.28169 -42.959688 
L 493.216994 -42.959688 
L 496.152299 -42.959688 
L 499.087603 -42.959688 
L 502.022907 -42.959688 
L 504.958211 -42.959688 
L 507.893515 -42.959688 
L 510.82882 -42.959688 
L 513.764124 -42.959688 
L 516.699428 -42.959688 
L 519.634732 -42.959688 
L 522.570036 -42.959688 
L 525.505341 -42.959688 
L 528.440645 -42.959688 
L 531.375949 -42.959688 
L 534.311253 -42.959688 
L 537.246557 -42.959688 
L 540.181862 -42.959688 
L 543.117166 -42.959688 
L 546.05247 -42.959688 
L 548.987774 -42.959688 
L 551.923078 -42.959688 
L 554.858383 -42.959688 
L 557.793687 -42.959688 
L 560.728991 -42.959688 
L 563.664295 -42.959688 
L 566.599599 -42.959688 
L 569.534904 -42.959688 
L 572.470208 -42.959688 
L 575.405512 -42.959688 
L 578.340816 -42.959688 
L 581.27612 -42.959688 
L 584.211425 -42.959688 
L 587.146729 -42.959688 
L 590.082033 -42.959688 
L 593.017337 -42.959688 
L 595.952641 -42.959688 
L 598.887946 -42.959688 
L 601.82325 -42.959688 
L 604.758554 -42.959688 
L 607.693858 -42.959688 
L 610.629162 -42.959688 
L 613.564467 -42.959688 
L 616.499771 -42.959688 
L 619.435075 -42.959688 
L 622.370379 -42.959688 
L 625.305683 -42.959688 
L 628.240988 -42.959688 
L 631.176292 -42.959688 
L 634.111596 -42.959688 
L 637.0469 -42.959688 
L 639.982204 -42.959688 
L 642.917509 -42.959688 
L 645.852813 -42.959688 
L 648.788117 -42.959688 
L 651.723421 -42.959688 
L 654.658725 -42.959688 
L 657.59403 -42.959688 
L 660.529334 -42.959688 
L 663.464638 -42.959688 
L 666.399942 -42.959688 
L 669.335246 -42.959688 
L 672.270551 -42.959688 
L 675.205855 -42.959688 
L 678.141159 -42.959688 
L 681.076463 -42.959688 
L 684.011767 -42.959688 
L 686.947072 -42.959688 
L 689.882376 -42.959688 
L 692.81768 -42.959688 
L 695.752984 -42.959688 
L 698.688288 -42.959688 
L 701.623593 -42.959688 
L 704.558897 -42.959688 
L 707.494201 -42.959688 
L 710.429505 -42.959688 
L 713.364809 -42.959688 
L 716.300114 -42.959688 
L 719.235418 -42.959688 
L 722.170722 -42.959688 
L 725.106026 -42.959688 
L 728.04133 -42.959688 
L 730.976635 -42.959688 
L 733.911939 -42.959688 
L 736.847243 -42.959688 
L 739.782547 -42.959688 
L 742.717851 -42.959688 
L 745.653156 -42.959688 
L 748.58846 -42.959688 
L 751.523764 -42.959688 
L 754.459068 -42.959688 
L 757.394372 -42.959688 
L 760.329677 -42.959688 
L 763.264981 -42.959688 
L 766.200285 -42.959688 
L 769.135589 -42.959688 
L 772.070893 -42.959688 
L 775.006197 -42.959688 
L 777.941502 -42.959688 
L 780.876806 -42.959688 
L 783.81211 -42.959688 
L 786.747414 -42.959688 
L 789.682718 -42.959688 
L 792.618023 -42.959688 
L 795.553327 -42.959688 
L 798.488631 -42.959688 
L 801.423935 -42.959688 
L 804.359239 -42.959688 
L 807.294544 -42.959688 
L 810.229848 -42.959688 
L 813.165152 -42.959688 
L 816.100456 -42.959688 
L 819.03576 -42.959688 
L 821.971065 -42.959688 
L 824.906369 -42.959688 
L 827.841673 -42.959688 
L 830.776977 -42.959688 
L 833.712281 -42.959688 
L 836.647586 -42.959688 
L 839.58289 -42.959688 
L 842.518194 -42.959688 
L 845.453498 -42.959688 
L 848.388802 -42.959688 
L 851.324107 -42.959688 
L 854.259411 -42.959688 
L 857.194715 -42.959688 
L 860.130019 -42.959688 
L 863.065323 -42.959688 
L 866.000628 -42.959688 
L 868.935932 -42.959688 
L 871.871236 -42.959688 
L 874.80654 -42.959688 
L 877.741844 -42.959688 
L 880.677149 -42.959688 
L 883.612453 -42.959688 
L 886.547757 -42.959688 
L 889.483061 -42.959688 
L 892.418365 -42.959688 
L 895.35367 -42.959688 
L 898.288974 -42.959688 
L 901.224278 -42.959688 
L 904.159582 -42.959688 
L 907.094886 -42.959688 
L 910.030191 -42.959688 
L 912.965495 -42.959688 
L 915.900799 -42.959688 
L 918.836103 -42.959688 
L 921.771407 -42.959688 
L 924.706712 -42.959688 
L 927.642016 -42.959688 
L 930.57732 -42.959688 
L 930.57732 -42.987354 
L 930.57732 -42.987354 
L 927.642016 -42.997761 
L 924.706712 -43.011507 
L 921.771407 -43.029447 
L 918.836103 -43.052581 
L 915.900799 -43.082062 
L 912.965495 -43.119188 
L 910.030191 -43.165396 
L 907.094886 -43.222249 
L 904.159582 -43.291404 
L 901.224278 -43.374593 
L 898.288974 -43.47358 
L 895.35367 -43.590131 
L 892.418365 -43.725987 
L 889.483061 -43.882835 
L 886.547757 -44.062302 
L 883.612453 -44.265967 
L 880.677149 -44.495389 
L 877.741844 -44.752168 
L 874.80654 -45.038028 
L 871.871236 -45.354923 
L 868.935932 -45.705167 
L 866.000628 -46.091573 
L 863.065323 -46.517598 
L 860.130019 -46.987477 
L 857.194715 -47.506344 
L 854.259411 -48.080317 
L 851.324107 -48.716548 
L 848.388802 -49.423225 
L 845.453498 -50.209526 
L 842.518194 -51.085521 
L 839.58289 -52.062029 
L 836.647586 -53.150436 
L 833.712281 -54.362479 
L 830.776977 -55.710012 
L 827.841673 -57.204756 
L 824.906369 -58.858048 
L 821.971065 -60.680592 
L 819.03576 -62.682221 
L 816.100456 -64.871662 
L 813.165152 -67.25632 
L 810.229848 -69.842068 
L 807.294544 -72.633042 
L 804.359239 -75.631455 
L 801.423935 -78.837404 
L 798.488631 -82.248706 
L 795.553327 -85.860733 
L 792.618023 -89.666274 
L 789.682718 -93.655425 
L 786.747414 -97.815511 
L 783.81211 -102.131049 
L 780.876806 -106.583761 
L 777.941502 -111.152652 
L 775.006197 -115.814138 
L 772.070893 -120.542267 
L 769.135589 -125.309004 
L 766.200285 -130.084616 
L 763.264981 -134.838143 
L 760.329677 -139.537962 
L 757.394372 -144.152443 
L 754.459068 -148.650674 
L 751.523764 -153.003242 
L 748.58846 -157.18303 
L 745.653156 -161.165983 
L 742.717851 -164.931796 
L 739.782547 -168.464461 
L 736.847243 -171.752615 
L 733.911939 -174.789648 
L 730.976635 -177.573531 
L 728.04133 -180.106355 
L 725.106026 -182.393605 
L 722.170722 -184.443198 
L 719.235418 -186.264376 
L 716.300114 -187.86653 
L 713.364809 -189.258071 
L 710.429505 -190.445443 
L 707.494201 -191.432376 
L 704.558897 -192.219448 
L 701.623593 -192.804004 
L 698.688288 -193.18041 
L 695.752984 -193.34064 
L 692.81768 -193.275105 
L 689.882376 -192.973646 
L 686.947072 -192.426583 
L 684.011767 -191.625724 
L 681.076463 -190.565227 
L 678.141159 -189.24227 
L 675.205855 -187.657462 
L 672.270551 -185.814997 
L 669.335246 -183.722561 
L 666.399942 -181.391037 
L 663.464638 -178.834056 
L 660.529334 -176.067451 
L 657.59403 -173.108686 
L 654.658725 -169.976303 
L 651.723421 -166.689429 
L 648.788117 -163.267364 
L 645.852813 -159.729271 
L 642.917509 -156.093959 
L 639.982204 -152.379761 
L 637.0469 -148.604478 
L 634.111596 -144.785393 
L 631.176292 -140.939326 
L 628.240988 -137.082727 
L 625.305683 -133.23178 
L 622.370379 -129.402526 
L 619.435075 -125.610965 
L 616.499771 -121.873157 
L 613.564467 -118.205267 
L 610.629162 -114.623576 
L 607.693858 -111.14442 
L 604.758554 -107.784047 
L 601.82325 -104.558407 
L 598.887946 -101.482842 
L 595.952641 -98.571724 
L 593.017337 -95.838016 
L 590.082033 -93.292822 
L 587.146729 -90.944922 
L 584.211425 -88.800342 
L 581.27612 -86.86199 
L 578.340816 -85.129374 
L 575.405512 -83.598452 
L 572.470208 -82.261594 
L 569.534904 -81.107706 
L 566.599599 -80.122478 
L 563.664295 -79.28877 
L 560.728991 -78.587111 
L 557.793687 -77.996286 
L 554.858383 -77.493987 
L 551.923078 -77.057494 
L 548.987774 -76.664352 
L 546.05247 -76.293011 
L 543.117166 -75.923414 
L 540.181862 -75.537479 
L 537.246557 -75.119493 
L 534.311253 -74.656371 
L 531.375949 -74.137813 
L 528.440645 -73.556327 
L 525.505341 -72.907164 
L 522.570036 -72.188156 
L 519.634732 -71.399502 
L 516.699428 -70.543499 
L 513.764124 -69.624267 
L 510.82882 -68.647463 
L 507.893515 -67.62001 
L 504.958211 -66.549848 
L 502.022907 -65.445705 
L 499.087603 -64.316883 
L 496.152299 -63.173068 
L 493.216994 -62.024133 
L 490.28169 -60.879952 
L 487.346386 -59.750203 
L 484.411082 -58.644167 
L 481.475778 -57.570521 
L 478.540473 -56.537139 
L 475.605169 -55.550894 
L 472.669865 -54.617493 
L 469.734561 -53.74133 
L 466.799257 -52.925397 
L 463.863952 -52.171226 
L 460.928648 -51.478899 
L 457.993344 -50.847107 
L 455.05804 -50.273266 
L 452.122736 -49.753676 
L 449.187431 -49.283727 
L 446.252127 -48.858137 
L 443.316823 -48.4712 
L 440.381519 -48.117052 
L 437.446215 -47.789926 
L 434.51091 -47.484382 
L 431.575606 -47.195519 
L 428.640302 -46.919135 
L 425.704998 -46.651847 
L 422.769694 -46.391152 
L 419.834389 -46.135443 
L 416.899085 -45.883969 
L 413.963781 -45.636747 
L 411.028477 -45.394444 
L 408.093173 -45.158229 
L 405.157868 -44.929606 
L 402.222564 -44.710253 
L 399.28726 -44.501864 
L 396.351956 -44.306007 
L 393.416652 -44.124018 
L 390.481347 -43.956911 
L 387.546043 -43.805335 
L 384.610739 -43.669547 
L 381.675435 -43.549429 
L 378.740131 -43.444516 
L 375.804826 -43.354046 
L 372.869522 -43.277024 
L 369.934218 -43.212285 
L 366.998914 -43.158563 
L 364.06361 -43.11455 
L 361.128305 -43.078946 
L 358.193001 -43.05051 
L 355.257697 -43.028084 
L 352.322393 -43.01062 
L 349.387089 -42.997189 
L 346.451784 -42.98699 
z
" id="mad6770412c" style="stroke:#dd8452;"/>
    </defs>
    <g clip-path="url(#p54683d4142)">
     <use style="fill:#dd8452;fill-opacity:0.25;stroke:#dd8452;" x="0" xlink:href="#mad6770412c" y="223.177812"/>
    </g>
   </g>
   <g id="patch_3">
    <path d="M 48.190938 180.218125 
L 48.190938 22.318125 
" style="fill:none;stroke:#ffffff;stroke-linecap:square;stroke-linejoin:miter;stroke-width:1.25;"/>
   </g>
   <g id="patch_4">
    <path d="M 48.190938 180.218125 
L 848.495435 180.218125 
" style="fill:none;stroke:#ffffff;stroke-linecap:square;stroke-linejoin:miter;stroke-width:1.25;"/>
   </g>
   <g id="text_16">
    <!-- Output: thalachh -->
    <g style="fill:#262626;" transform="translate(397.494124 16.318125)scale(0.12 -0.12)">
     <defs>
      <path d="M 39.40625 66.21875 
Q 28.65625 66.21875 22.328125 58.203125 
Q 16.015625 50.203125 16.015625 36.375 
Q 16.015625 22.609375 22.328125 14.59375 
Q 28.65625 6.59375 39.40625 6.59375 
Q 50.140625 6.59375 56.421875 14.59375 
Q 62.703125 22.609375 62.703125 36.375 
Q 62.703125 50.203125 56.421875 58.203125 
Q 50.140625 66.21875 39.40625 66.21875 
z
M 39.40625 74.21875 
Q 54.734375 74.21875 63.90625 63.9375 
Q 73.09375 53.65625 73.09375 36.375 
Q 73.09375 19.140625 63.90625 8.859375 
Q 54.734375 -1.421875 39.40625 -1.421875 
Q 24.03125 -1.421875 14.8125 8.828125 
Q 5.609375 19.09375 5.609375 36.375 
Q 5.609375 53.65625 14.8125 63.9375 
Q 24.03125 74.21875 39.40625 74.21875 
z
" id="DejaVuSans-79"/>
      <path d="M 8.5 21.578125 
L 8.5 54.6875 
L 17.484375 54.6875 
L 17.484375 21.921875 
Q 17.484375 14.15625 20.5 10.265625 
Q 23.53125 6.390625 29.59375 6.390625 
Q 36.859375 6.390625 41.078125 11.03125 
Q 45.3125 15.671875 45.3125 23.6875 
L 45.3125 54.6875 
L 54.296875 54.6875 
L 54.296875 0 
L 45.3125 0 
L 45.3125 8.40625 
Q 42.046875 3.421875 37.71875 1 
Q 33.40625 -1.421875 27.6875 -1.421875 
Q 18.265625 -1.421875 13.375 4.4375 
Q 8.5 10.296875 8.5 21.578125 
z
M 31.109375 56 
z
" id="DejaVuSans-117"/>
      <path d="M 18.109375 8.203125 
L 18.109375 -20.796875 
L 9.078125 -20.796875 
L 9.078125 54.6875 
L 18.109375 54.6875 
L 18.109375 46.390625 
Q 20.953125 51.265625 25.265625 53.625 
Q 29.59375 56 35.59375 56 
Q 45.5625 56 51.78125 48.09375 
Q 58.015625 40.1875 58.015625 27.296875 
Q 58.015625 14.40625 51.78125 6.484375 
Q 45.5625 -1.421875 35.59375 -1.421875 
Q 29.59375 -1.421875 25.265625 0.953125 
Q 20.953125 3.328125 18.109375 8.203125 
z
M 48.6875 27.296875 
Q 48.6875 37.203125 44.609375 42.84375 
Q 40.53125 48.484375 33.40625 48.484375 
Q 26.265625 48.484375 22.1875 42.84375 
Q 18.109375 37.203125 18.109375 27.296875 
Q 18.109375 17.390625 22.1875 11.75 
Q 26.265625 6.109375 33.40625 6.109375 
Q 40.53125 6.109375 44.609375 11.75 
Q 48.6875 17.390625 48.6875 27.296875 
z
" id="DejaVuSans-112"/>
      <path d="M 11.71875 12.40625 
L 22.015625 12.40625 
L 22.015625 0 
L 11.71875 0 
z
M 11.71875 51.703125 
L 22.015625 51.703125 
L 22.015625 39.3125 
L 11.71875 39.3125 
z
" id="DejaVuSans-58"/>
      <path id="DejaVuSans-32"/>
     </defs>
     <use xlink:href="#DejaVuSans-79"/>
     <use x="78.710938" xlink:href="#DejaVuSans-117"/>
     <use x="142.089844" xlink:href="#DejaVuSans-116"/>
     <use x="181.298828" xlink:href="#DejaVuSans-112"/>
     <use x="244.775391" xlink:href="#DejaVuSans-117"/>
     <use x="308.154297" xlink:href="#DejaVuSans-116"/>
     <use x="347.363281" xlink:href="#DejaVuSans-58"/>
     <use x="381.054688" xlink:href="#DejaVuSans-32"/>
     <use x="412.841797" xlink:href="#DejaVuSans-116"/>
     <use x="452.050781" xlink:href="#DejaVuSans-104"/>
     <use x="515.429688" xlink:href="#DejaVuSans-97"/>
     <use x="576.708984" xlink:href="#DejaVuSans-108"/>
     <use x="604.492188" xlink:href="#DejaVuSans-97"/>
     <use x="665.771484" xlink:href="#DejaVuSans-99"/>
     <use x="720.751953" xlink:href="#DejaVuSans-104"/>
     <use x="784.130859" xlink:href="#DejaVuSans-104"/>
    </g>
   </g>
  </g>
  <g id="legend_1">
   <g id="text_17">
    <!-- output -->
    <g style="fill:#262626;" transform="translate(858.26531 98.754219)scale(0.12 -0.12)">
     <defs>
      <path d="M 30.609375 48.390625 
Q 23.390625 48.390625 19.1875 42.75 
Q 14.984375 37.109375 14.984375 27.296875 
Q 14.984375 17.484375 19.15625 11.84375 
Q 23.34375 6.203125 30.609375 6.203125 
Q 37.796875 6.203125 41.984375 11.859375 
Q 46.1875 17.53125 46.1875 27.296875 
Q 46.1875 37.015625 41.984375 42.703125 
Q 37.796875 48.390625 30.609375 48.390625 
z
M 30.609375 56 
Q 42.328125 56 49.015625 48.375 
Q 55.71875 40.765625 55.71875 27.296875 
Q 55.71875 13.875 49.015625 6.21875 
Q 42.328125 -1.421875 30.609375 -1.421875 
Q 18.84375 -1.421875 12.171875 6.21875 
Q 5.515625 13.875 5.515625 27.296875 
Q 5.515625 40.765625 12.171875 48.375 
Q 18.84375 56 30.609375 56 
z
" id="DejaVuSans-111"/>
     </defs>
     <use xlink:href="#DejaVuSans-111"/>
     <use x="61.181641" xlink:href="#DejaVuSans-117"/>
     <use x="124.560547" xlink:href="#DejaVuSans-116"/>
     <use x="163.769531" xlink:href="#DejaVuSans-112"/>
     <use x="227.246094" xlink:href="#DejaVuSans-117"/>
     <use x="290.625" xlink:href="#DejaVuSans-116"/>
    </g>
   </g>
   <g id="patch_5">
    <path d="M 859.155623 115.108125 
L 881.155623 115.108125 
L 881.155623 107.408125 
L 859.155623 107.408125 
z
" style="fill:#4c72b0;fill-opacity:0.25;stroke:#4c72b0;stroke-linejoin:miter;"/>
   </g>
   <g id="text_18">
    <!-- 0 -->
    <g style="fill:#262626;" transform="translate(889.955623 115.108125)scale(0.11 -0.11)">
     <use xlink:href="#DejaVuSans-48"/>
    </g>
   </g>
   <g id="patch_6">
    <path d="M 859.155623 131.254063 
L 881.155623 131.254063 
L 881.155623 123.554063 
L 859.155623 123.554063 
z
" style="fill:#dd8452;fill-opacity:0.25;stroke:#dd8452;stroke-linejoin:miter;"/>
   </g>
   <g id="text_19">
    <!-- 1 -->
    <g style="fill:#262626;" transform="translate(889.955623 131.254063)scale(0.11 -0.11)">
     <use xlink:href="#DejaVuSans-49"/>
    </g>
   </g>
  </g>
 </g>
 <defs>
  <clipPath id="p54683d4142">
   <rect height="157.9" width="800.304498" x="48.190938" y="22.318125"/>
  </clipPath>
 </defs>
</svg>
