<?xml version="1.0" encoding="utf-8" standalone="no"?>
<!DOCTYPE svg PUBLIC "-//W3C//DTD SVG 1.1//EN"
  "http://www.w3.org/Graphics/SVG/1.1/DTD/svg11.dtd">
<!-- Created with matplotlib (https://matplotlib.org/) -->
<svg height="223.177812pt" version="1.1" viewBox="0 0 908.53185 223.177812" width="908.53185pt" xmlns="http://www.w3.org/2000/svg" xmlns:xlink="http://www.w3.org/1999/xlink">
 <metadata>
  <rdf:RDF xmlns:cc="http://creativecommons.org/ns#" xmlns:dc="http://purl.org/dc/elements/1.1/" xmlns:rdf="http://www.w3.org/1999/02/22-rdf-syntax-ns#">
   <cc:Work>
    <dc:type rdf:resource="http://purl.org/dc/dcmitype/StillImage"/>
    <dc:date>2021-07-04T23:48:57.722481</dc:date>
    <dc:format>image/svg+xml</dc:format>
    <dc:creator>
     <cc:Agent>
      <dc:title>Matplotlib v3.3.4, https://matplotlib.org/</dc:title>
     </cc:Agent>
    </dc:creator>
   </cc:Work>
  </rdf:RDF>
 </metadata>
 <defs>
  <style type="text/css">*{stroke-linecap:butt;stroke-linejoin:round;}</style>
 </defs>
 <g id="figure_1">
  <g id="patch_1">
   <path d="M 0 223.177812 
L 908.53185 223.177812 
L 908.53185 0 
L 0 0 
z
" style="fill:none;"/>
  </g>
  <g id="axes_1">
   <g id="patch_2">
    <path d="M 34.193438 180.218125 
L 849.2826 180.218125 
L 849.2826 22.318125 
L 34.193438 22.318125 
z
" style="fill:#eaeaf2;"/>
   </g>
   <g id="matplotlib.axis_1">
    <g id="xtick_1">
     <g id="line2d_1">
      <path clip-path="url(#p5968073c6a)" d="M 34.193438 180.218125 
L 34.193438 22.318125 
" style="fill:none;stroke:#ffffff;stroke-linecap:round;"/>
     </g>
     <g id="text_1">
      <!-- 0.0 -->
      <g style="fill:#262626;" transform="translate(25.446719 198.076406)scale(0.11 -0.11)">
       <defs>
        <path d="M 31.78125 66.40625 
Q 24.171875 66.40625 20.328125 58.90625 
Q 16.5 51.421875 16.5 36.375 
Q 16.5 21.390625 20.328125 13.890625 
Q 24.171875 6.390625 31.78125 6.390625 
Q 39.453125 6.390625 43.28125 13.890625 
Q 47.125 21.390625 47.125 36.375 
Q 47.125 51.421875 43.28125 58.90625 
Q 39.453125 66.40625 31.78125 66.40625 
z
M 31.78125 74.21875 
Q 44.046875 74.21875 50.515625 64.515625 
Q 56.984375 54.828125 56.984375 36.375 
Q 56.984375 17.96875 50.515625 8.265625 
Q 44.046875 -1.421875 31.78125 -1.421875 
Q 19.53125 -1.421875 13.0625 8.265625 
Q 6.59375 17.96875 6.59375 36.375 
Q 6.59375 54.828125 13.0625 64.515625 
Q 19.53125 74.21875 31.78125 74.21875 
z
" id="DejaVuSans-48"/>
        <path d="M 10.6875 12.40625 
L 21 12.40625 
L 21 0 
L 10.6875 0 
z
" id="DejaVuSans-46"/>
       </defs>
       <use xlink:href="#DejaVuSans-48"/>
       <use x="63.623047" xlink:href="#DejaVuSans-46"/>
       <use x="95.410156" xlink:href="#DejaVuSans-48"/>
      </g>
     </g>
    </g>
    <g id="xtick_2">
     <g id="line2d_2">
      <path clip-path="url(#p5968073c6a)" d="M 136.079583 180.218125 
L 136.079583 22.318125 
" style="fill:none;stroke:#ffffff;stroke-linecap:round;"/>
     </g>
     <g id="text_2">
      <!-- 0.5 -->
      <g style="fill:#262626;" transform="translate(127.332864 198.076406)scale(0.11 -0.11)">
       <defs>
        <path d="M 10.796875 72.90625 
L 49.515625 72.90625 
L 49.515625 64.59375 
L 19.828125 64.59375 
L 19.828125 46.734375 
Q 21.96875 47.46875 24.109375 47.828125 
Q 26.265625 48.1875 28.421875 48.1875 
Q 40.625 48.1875 47.75 41.5 
Q 54.890625 34.8125 54.890625 23.390625 
Q 54.890625 11.625 47.5625 5.09375 
Q 40.234375 -1.421875 26.90625 -1.421875 
Q 22.3125 -1.421875 17.546875 -0.640625 
Q 12.796875 0.140625 7.71875 1.703125 
L 7.71875 11.625 
Q 12.109375 9.234375 16.796875 8.0625 
Q 21.484375 6.890625 26.703125 6.890625 
Q 35.15625 6.890625 40.078125 11.328125 
Q 45.015625 15.765625 45.015625 23.390625 
Q 45.015625 31 40.078125 35.4375 
Q 35.15625 39.890625 26.703125 39.890625 
Q 22.75 39.890625 18.8125 39.015625 
Q 14.890625 38.140625 10.796875 36.28125 
z
" id="DejaVuSans-53"/>
       </defs>
       <use xlink:href="#DejaVuSans-48"/>
       <use x="63.623047" xlink:href="#DejaVuSans-46"/>
       <use x="95.410156" xlink:href="#DejaVuSans-53"/>
      </g>
     </g>
    </g>
    <g id="xtick_3">
     <g id="line2d_3">
      <path clip-path="url(#p5968073c6a)" d="M 237.965728 180.218125 
L 237.965728 22.318125 
" style="fill:none;stroke:#ffffff;stroke-linecap:round;"/>
     </g>
     <g id="text_3">
      <!-- 1.0 -->
      <g style="fill:#262626;" transform="translate(229.219009 198.076406)scale(0.11 -0.11)">
       <defs>
        <path d="M 12.40625 8.296875 
L 28.515625 8.296875 
L 28.515625 63.921875 
L 10.984375 60.40625 
L 10.984375 69.390625 
L 28.421875 72.90625 
L 38.28125 72.90625 
L 38.28125 8.296875 
L 54.390625 8.296875 
L 54.390625 0 
L 12.40625 0 
z
" id="DejaVuSans-49"/>
       </defs>
       <use xlink:href="#DejaVuSans-49"/>
       <use x="63.623047" xlink:href="#DejaVuSans-46"/>
       <use x="95.410156" xlink:href="#DejaVuSans-48"/>
      </g>
     </g>
    </g>
    <g id="xtick_4">
     <g id="line2d_4">
      <path clip-path="url(#p5968073c6a)" d="M 339.851873 180.218125 
L 339.851873 22.318125 
" style="fill:none;stroke:#ffffff;stroke-linecap:round;"/>
     </g>
     <g id="text_4">
      <!-- 1.5 -->
      <g style="fill:#262626;" transform="translate(331.105155 198.076406)scale(0.11 -0.11)">
       <use xlink:href="#DejaVuSans-49"/>
       <use x="63.623047" xlink:href="#DejaVuSans-46"/>
       <use x="95.410156" xlink:href="#DejaVuSans-53"/>
      </g>
     </g>
    </g>
    <g id="xtick_5">
     <g id="line2d_5">
      <path clip-path="url(#p5968073c6a)" d="M 441.738019 180.218125 
L 441.738019 22.318125 
" style="fill:none;stroke:#ffffff;stroke-linecap:round;"/>
     </g>
     <g id="text_5">
      <!-- 2.0 -->
      <g style="fill:#262626;" transform="translate(432.9913 198.076406)scale(0.11 -0.11)">
       <defs>
        <path d="M 19.1875 8.296875 
L 53.609375 8.296875 
L 53.609375 0 
L 7.328125 0 
L 7.328125 8.296875 
Q 12.9375 14.109375 22.625 23.890625 
Q 32.328125 33.6875 34.8125 36.53125 
Q 39.546875 41.84375 41.421875 45.53125 
Q 43.3125 49.21875 43.3125 52.78125 
Q 43.3125 58.59375 39.234375 62.25 
Q 35.15625 65.921875 28.609375 65.921875 
Q 23.96875 65.921875 18.8125 64.3125 
Q 13.671875 62.703125 7.8125 59.421875 
L 7.8125 69.390625 
Q 13.765625 71.78125 18.9375 73 
Q 24.125 74.21875 28.421875 74.21875 
Q 39.75 74.21875 46.484375 68.546875 
Q 53.21875 62.890625 53.21875 53.421875 
Q 53.21875 48.921875 51.53125 44.890625 
Q 49.859375 40.875 45.40625 35.40625 
Q 44.1875 33.984375 37.640625 27.21875 
Q 31.109375 20.453125 19.1875 8.296875 
z
" id="DejaVuSans-50"/>
       </defs>
       <use xlink:href="#DejaVuSans-50"/>
       <use x="63.623047" xlink:href="#DejaVuSans-46"/>
       <use x="95.410156" xlink:href="#DejaVuSans-48"/>
      </g>
     </g>
    </g>
    <g id="xtick_6">
     <g id="line2d_6">
      <path clip-path="url(#p5968073c6a)" d="M 543.624164 180.218125 
L 543.624164 22.318125 
" style="fill:none;stroke:#ffffff;stroke-linecap:round;"/>
     </g>
     <g id="text_6">
      <!-- 2.5 -->
      <g style="fill:#262626;" transform="translate(534.877445 198.076406)scale(0.11 -0.11)">
       <use xlink:href="#DejaVuSans-50"/>
       <use x="63.623047" xlink:href="#DejaVuSans-46"/>
       <use x="95.410156" xlink:href="#DejaVuSans-53"/>
      </g>
     </g>
    </g>
    <g id="xtick_7">
     <g id="line2d_7">
      <path clip-path="url(#p5968073c6a)" d="M 645.510309 180.218125 
L 645.510309 22.318125 
" style="fill:none;stroke:#ffffff;stroke-linecap:round;"/>
     </g>
     <g id="text_7">
      <!-- 3.0 -->
      <g style="fill:#262626;" transform="translate(636.76359 198.076406)scale(0.11 -0.11)">
       <defs>
        <path d="M 40.578125 39.3125 
Q 47.65625 37.796875 51.625 33 
Q 55.609375 28.21875 55.609375 21.1875 
Q 55.609375 10.40625 48.1875 4.484375 
Q 40.765625 -1.421875 27.09375 -1.421875 
Q 22.515625 -1.421875 17.65625 -0.515625 
Q 12.796875 0.390625 7.625 2.203125 
L 7.625 11.71875 
Q 11.71875 9.328125 16.59375 8.109375 
Q 21.484375 6.890625 26.8125 6.890625 
Q 36.078125 6.890625 40.9375 10.546875 
Q 45.796875 14.203125 45.796875 21.1875 
Q 45.796875 27.640625 41.28125 31.265625 
Q 36.765625 34.90625 28.71875 34.90625 
L 20.21875 34.90625 
L 20.21875 43.015625 
L 29.109375 43.015625 
Q 36.375 43.015625 40.234375 45.921875 
Q 44.09375 48.828125 44.09375 54.296875 
Q 44.09375 59.90625 40.109375 62.90625 
Q 36.140625 65.921875 28.71875 65.921875 
Q 24.65625 65.921875 20.015625 65.03125 
Q 15.375 64.15625 9.8125 62.3125 
L 9.8125 71.09375 
Q 15.4375 72.65625 20.34375 73.4375 
Q 25.25 74.21875 29.59375 74.21875 
Q 40.828125 74.21875 47.359375 69.109375 
Q 53.90625 64.015625 53.90625 55.328125 
Q 53.90625 49.265625 50.4375 45.09375 
Q 46.96875 40.921875 40.578125 39.3125 
z
" id="DejaVuSans-51"/>
       </defs>
       <use xlink:href="#DejaVuSans-51"/>
       <use x="63.623047" xlink:href="#DejaVuSans-46"/>
       <use x="95.410156" xlink:href="#DejaVuSans-48"/>
      </g>
     </g>
    </g>
    <g id="xtick_8">
     <g id="line2d_8">
      <path clip-path="url(#p5968073c6a)" d="M 747.396454 180.218125 
L 747.396454 22.318125 
" style="fill:none;stroke:#ffffff;stroke-linecap:round;"/>
     </g>
     <g id="text_8">
      <!-- 3.5 -->
      <g style="fill:#262626;" transform="translate(738.649736 198.076406)scale(0.11 -0.11)">
       <use xlink:href="#DejaVuSans-51"/>
       <use x="63.623047" xlink:href="#DejaVuSans-46"/>
       <use x="95.410156" xlink:href="#DejaVuSans-53"/>
      </g>
     </g>
    </g>
    <g id="xtick_9">
     <g id="line2d_9">
      <path clip-path="url(#p5968073c6a)" d="M 849.2826 180.218125 
L 849.2826 22.318125 
" style="fill:none;stroke:#ffffff;stroke-linecap:round;"/>
     </g>
     <g id="text_9">
      <!-- 4.0 -->
      <g style="fill:#262626;" transform="translate(840.535881 198.076406)scale(0.11 -0.11)">
       <defs>
        <path d="M 37.796875 64.3125 
L 12.890625 25.390625 
L 37.796875 25.390625 
z
M 35.203125 72.90625 
L 47.609375 72.90625 
L 47.609375 25.390625 
L 58.015625 25.390625 
L 58.015625 17.1875 
L 47.609375 17.1875 
L 47.609375 0 
L 37.796875 0 
L 37.796875 17.1875 
L 4.890625 17.1875 
L 4.890625 26.703125 
z
" id="DejaVuSans-52"/>
       </defs>
       <use xlink:href="#DejaVuSans-52"/>
       <use x="63.623047" xlink:href="#DejaVuSans-46"/>
       <use x="95.410156" xlink:href="#DejaVuSans-48"/>
      </g>
     </g>
    </g>
    <g id="text_10">
     <!-- caa -->
     <g style="fill:#262626;" transform="translate(431.085206 213.482187)scale(0.12 -0.12)">
      <defs>
       <path d="M 48.78125 52.59375 
L 48.78125 44.1875 
Q 44.96875 46.296875 41.140625 47.34375 
Q 37.3125 48.390625 33.40625 48.390625 
Q 24.65625 48.390625 19.8125 42.84375 
Q 14.984375 37.3125 14.984375 27.296875 
Q 14.984375 17.28125 19.8125 11.734375 
Q 24.65625 6.203125 33.40625 6.203125 
Q 37.3125 6.203125 41.140625 7.25 
Q 44.96875 8.296875 48.78125 10.40625 
L 48.78125 2.09375 
Q 45.015625 0.34375 40.984375 -0.53125 
Q 36.96875 -1.421875 32.421875 -1.421875 
Q 20.0625 -1.421875 12.78125 6.34375 
Q 5.515625 14.109375 5.515625 27.296875 
Q 5.515625 40.671875 12.859375 48.328125 
Q 20.21875 56 33.015625 56 
Q 37.15625 56 41.109375 55.140625 
Q 45.0625 54.296875 48.78125 52.59375 
z
" id="DejaVuSans-99"/>
       <path d="M 34.28125 27.484375 
Q 23.390625 27.484375 19.1875 25 
Q 14.984375 22.515625 14.984375 16.5 
Q 14.984375 11.71875 18.140625 8.90625 
Q 21.296875 6.109375 26.703125 6.109375 
Q 34.1875 6.109375 38.703125 11.40625 
Q 43.21875 16.703125 43.21875 25.484375 
L 43.21875 27.484375 
z
M 52.203125 31.203125 
L 52.203125 0 
L 43.21875 0 
L 43.21875 8.296875 
Q 40.140625 3.328125 35.546875 0.953125 
Q 30.953125 -1.421875 24.3125 -1.421875 
Q 15.921875 -1.421875 10.953125 3.296875 
Q 6 8.015625 6 15.921875 
Q 6 25.140625 12.171875 29.828125 
Q 18.359375 34.515625 30.609375 34.515625 
L 43.21875 34.515625 
L 43.21875 35.40625 
Q 43.21875 41.609375 39.140625 45 
Q 35.0625 48.390625 27.6875 48.390625 
Q 23 48.390625 18.546875 47.265625 
Q 14.109375 46.140625 10.015625 43.890625 
L 10.015625 52.203125 
Q 14.9375 54.109375 19.578125 55.046875 
Q 24.21875 56 28.609375 56 
Q 40.484375 56 46.34375 49.84375 
Q 52.203125 43.703125 52.203125 31.203125 
z
" id="DejaVuSans-97"/>
      </defs>
      <use xlink:href="#DejaVuSans-99"/>
      <use x="54.980469" xlink:href="#DejaVuSans-97"/>
      <use x="116.259766" xlink:href="#DejaVuSans-97"/>
     </g>
    </g>
   </g>
   <g id="matplotlib.axis_2">
    <g id="ytick_1">
     <g id="line2d_10">
      <path clip-path="url(#p5968073c6a)" d="M 34.193438 180.218125 
L 849.2826 180.218125 
" style="fill:none;stroke:#ffffff;stroke-linecap:round;"/>
     </g>
     <g id="text_11">
      <!-- 0.0 -->
      <g style="fill:#262626;" transform="translate(7.2 184.397266)scale(0.11 -0.11)">
       <use xlink:href="#DejaVuSans-48"/>
       <use x="63.623047" xlink:href="#DejaVuSans-46"/>
       <use x="95.410156" xlink:href="#DejaVuSans-48"/>
      </g>
     </g>
    </g>
    <g id="ytick_2">
     <g id="line2d_11">
      <path clip-path="url(#p5968073c6a)" d="M 34.193438 150.972105 
L 849.2826 150.972105 
" style="fill:none;stroke:#ffffff;stroke-linecap:round;"/>
     </g>
     <g id="text_12">
      <!-- 0.2 -->
      <g style="fill:#262626;" transform="translate(7.2 155.151246)scale(0.11 -0.11)">
       <use xlink:href="#DejaVuSans-48"/>
       <use x="63.623047" xlink:href="#DejaVuSans-46"/>
       <use x="95.410156" xlink:href="#DejaVuSans-50"/>
      </g>
     </g>
    </g>
    <g id="ytick_3">
     <g id="line2d_12">
      <path clip-path="url(#p5968073c6a)" d="M 34.193438 121.726085 
L 849.2826 121.726085 
" style="fill:none;stroke:#ffffff;stroke-linecap:round;"/>
     </g>
     <g id="text_13">
      <!-- 0.4 -->
      <g style="fill:#262626;" transform="translate(7.2 125.905226)scale(0.11 -0.11)">
       <use xlink:href="#DejaVuSans-48"/>
       <use x="63.623047" xlink:href="#DejaVuSans-46"/>
       <use x="95.410156" xlink:href="#DejaVuSans-52"/>
      </g>
     </g>
    </g>
    <g id="ytick_4">
     <g id="line2d_13">
      <path clip-path="url(#p5968073c6a)" d="M 34.193438 92.480065 
L 849.2826 92.480065 
" style="fill:none;stroke:#ffffff;stroke-linecap:round;"/>
     </g>
     <g id="text_14">
      <!-- 0.6 -->
      <g style="fill:#262626;" transform="translate(7.2 96.659206)scale(0.11 -0.11)">
       <defs>
        <path d="M 33.015625 40.375 
Q 26.375 40.375 22.484375 35.828125 
Q 18.609375 31.296875 18.609375 23.390625 
Q 18.609375 15.53125 22.484375 10.953125 
Q 26.375 6.390625 33.015625 6.390625 
Q 39.65625 6.390625 43.53125 10.953125 
Q 47.40625 15.53125 47.40625 23.390625 
Q 47.40625 31.296875 43.53125 35.828125 
Q 39.65625 40.375 33.015625 40.375 
z
M 52.59375 71.296875 
L 52.59375 62.3125 
Q 48.875 64.0625 45.09375 64.984375 
Q 41.3125 65.921875 37.59375 65.921875 
Q 27.828125 65.921875 22.671875 59.328125 
Q 17.53125 52.734375 16.796875 39.40625 
Q 19.671875 43.65625 24.015625 45.921875 
Q 28.375 48.1875 33.59375 48.1875 
Q 44.578125 48.1875 50.953125 41.515625 
Q 57.328125 34.859375 57.328125 23.390625 
Q 57.328125 12.15625 50.6875 5.359375 
Q 44.046875 -1.421875 33.015625 -1.421875 
Q 20.359375 -1.421875 13.671875 8.265625 
Q 6.984375 17.96875 6.984375 36.375 
Q 6.984375 53.65625 15.1875 63.9375 
Q 23.390625 74.21875 37.203125 74.21875 
Q 40.921875 74.21875 44.703125 73.484375 
Q 48.484375 72.75 52.59375 71.296875 
z
" id="DejaVuSans-54"/>
       </defs>
       <use xlink:href="#DejaVuSans-48"/>
       <use x="63.623047" xlink:href="#DejaVuSans-46"/>
       <use x="95.410156" xlink:href="#DejaVuSans-54"/>
      </g>
     </g>
    </g>
    <g id="ytick_5">
     <g id="line2d_14">
      <path clip-path="url(#p5968073c6a)" d="M 34.193438 63.234045 
L 849.2826 63.234045 
" style="fill:none;stroke:#ffffff;stroke-linecap:round;"/>
     </g>
     <g id="text_15">
      <!-- 0.8 -->
      <g style="fill:#262626;" transform="translate(7.2 67.413186)scale(0.11 -0.11)">
       <defs>
        <path d="M 31.78125 34.625 
Q 24.75 34.625 20.71875 30.859375 
Q 16.703125 27.09375 16.703125 20.515625 
Q 16.703125 13.921875 20.71875 10.15625 
Q 24.75 6.390625 31.78125 6.390625 
Q 38.8125 6.390625 42.859375 10.171875 
Q 46.921875 13.96875 46.921875 20.515625 
Q 46.921875 27.09375 42.890625 30.859375 
Q 38.875 34.625 31.78125 34.625 
z
M 21.921875 38.8125 
Q 15.578125 40.375 12.03125 44.71875 
Q 8.5 49.078125 8.5 55.328125 
Q 8.5 64.0625 14.71875 69.140625 
Q 20.953125 74.21875 31.78125 74.21875 
Q 42.671875 74.21875 48.875 69.140625 
Q 55.078125 64.0625 55.078125 55.328125 
Q 55.078125 49.078125 51.53125 44.71875 
Q 48 40.375 41.703125 38.8125 
Q 48.828125 37.15625 52.796875 32.3125 
Q 56.78125 27.484375 56.78125 20.515625 
Q 56.78125 9.90625 50.3125 4.234375 
Q 43.84375 -1.421875 31.78125 -1.421875 
Q 19.734375 -1.421875 13.25 4.234375 
Q 6.78125 9.90625 6.78125 20.515625 
Q 6.78125 27.484375 10.78125 32.3125 
Q 14.796875 37.15625 21.921875 38.8125 
z
M 18.3125 54.390625 
Q 18.3125 48.734375 21.84375 45.5625 
Q 25.390625 42.390625 31.78125 42.390625 
Q 38.140625 42.390625 41.71875 45.5625 
Q 45.3125 48.734375 45.3125 54.390625 
Q 45.3125 60.0625 41.71875 63.234375 
Q 38.140625 66.40625 31.78125 66.40625 
Q 25.390625 66.40625 21.84375 63.234375 
Q 18.3125 60.0625 18.3125 54.390625 
z
" id="DejaVuSans-56"/>
       </defs>
       <use xlink:href="#DejaVuSans-48"/>
       <use x="63.623047" xlink:href="#DejaVuSans-46"/>
       <use x="95.410156" xlink:href="#DejaVuSans-56"/>
      </g>
     </g>
    </g>
    <g id="ytick_6">
     <g id="line2d_15">
      <path clip-path="url(#p5968073c6a)" d="M 34.193438 33.988025 
L 849.2826 33.988025 
" style="fill:none;stroke:#ffffff;stroke-linecap:round;"/>
     </g>
     <g id="text_16">
      <!-- 1.0 -->
      <g style="fill:#262626;" transform="translate(7.2 38.167166)scale(0.11 -0.11)">
       <use xlink:href="#DejaVuSans-49"/>
       <use x="63.623047" xlink:href="#DejaVuSans-46"/>
       <use x="95.410156" xlink:href="#DejaVuSans-48"/>
      </g>
     </g>
    </g>
   </g>
   <g id="PolyCollection_1">
    <path clip-path="url(#p5968073c6a)" d="M -203.910279 179.675547 
L -203.910279 180.218125 
L -197.421351 180.218125 
L -190.932423 180.218125 
L -184.443496 180.218125 
L -177.954568 180.218125 
L -171.465641 180.218125 
L -164.976713 180.218125 
L -158.487785 180.218125 
L -151.998858 180.218125 
L -145.50993 180.218125 
L -139.021003 180.218125 
L -132.532075 180.218125 
L -126.043147 180.218125 
L -119.55422 180.218125 
L -113.065292 180.218125 
L -106.576364 180.218125 
L -100.087437 180.218125 
L -93.598509 180.218125 
L -87.109582 180.218125 
L -80.620654 180.218125 
L -74.131726 180.218125 
L -67.642799 180.218125 
L -61.153871 180.218125 
L -54.664944 180.218125 
L -48.176016 180.218125 
L -41.687088 180.218125 
L -35.198161 180.218125 
L -28.709233 180.218125 
L -22.220306 180.218125 
L -15.731378 180.218125 
L -9.24245 180.218125 
L -2.753523 180.218125 
L 3.735405 180.218125 
L 10.224333 180.218125 
L 16.71326 180.218125 
L 23.202188 180.218125 
L 29.691115 180.218125 
L 36.180043 180.218125 
L 42.668971 180.218125 
L 49.157898 180.218125 
L 55.646826 180.218125 
L 62.135753 180.218125 
L 68.624681 180.218125 
L 75.113609 180.218125 
L 81.602536 180.218125 
L 88.091464 180.218125 
L 94.580391 180.218125 
L 101.069319 180.218125 
L 107.558247 180.218125 
L 114.047174 180.218125 
L 120.536102 180.218125 
L 127.025029 180.218125 
L 133.513957 180.218125 
L 140.002885 180.218125 
L 146.491812 180.218125 
L 152.98074 180.218125 
L 159.469668 180.218125 
L 165.958595 180.218125 
L 172.447523 180.218125 
L 178.93645 180.218125 
L 185.425378 180.218125 
L 191.914306 180.218125 
L 198.403233 180.218125 
L 204.892161 180.218125 
L 211.381088 180.218125 
L 217.870016 180.218125 
L 224.358944 180.218125 
L 230.847871 180.218125 
L 237.336799 180.218125 
L 243.825726 180.218125 
L 250.314654 180.218125 
L 256.803582 180.218125 
L 263.292509 180.218125 
L 269.781437 180.218125 
L 276.270365 180.218125 
L 282.759292 180.218125 
L 289.24822 180.218125 
L 295.737147 180.218125 
L 302.226075 180.218125 
L 308.715003 180.218125 
L 315.20393 180.218125 
L 321.692858 180.218125 
L 328.181785 180.218125 
L 334.670713 180.218125 
L 341.159641 180.218125 
L 347.648568 180.218125 
L 354.137496 180.218125 
L 360.626423 180.218125 
L 367.115351 180.218125 
L 373.604279 180.218125 
L 380.093206 180.218125 
L 386.582134 180.218125 
L 393.071062 180.218125 
L 399.559989 180.218125 
L 406.048917 180.218125 
L 412.537844 180.218125 
L 419.026772 180.218125 
L 425.5157 180.218125 
L 432.004627 180.218125 
L 438.493555 180.218125 
L 444.982482 180.218125 
L 451.47141 180.218125 
L 457.960338 180.218125 
L 464.449265 180.218125 
L 470.938193 180.218125 
L 477.42712 180.218125 
L 483.916048 180.218125 
L 490.404976 180.218125 
L 496.893903 180.218125 
L 503.382831 180.218125 
L 509.871758 180.218125 
L 516.360686 180.218125 
L 522.849614 180.218125 
L 529.338541 180.218125 
L 535.827469 180.218125 
L 542.316397 180.218125 
L 548.805324 180.218125 
L 555.294252 180.218125 
L 561.783179 180.218125 
L 568.272107 180.218125 
L 574.761035 180.218125 
L 581.249962 180.218125 
L 587.73889 180.218125 
L 594.227817 180.218125 
L 600.716745 180.218125 
L 607.205673 180.218125 
L 613.6946 180.218125 
L 620.183528 180.218125 
L 626.672455 180.218125 
L 633.161383 180.218125 
L 639.650311 180.218125 
L 646.139238 180.218125 
L 652.628166 180.218125 
L 659.117094 180.218125 
L 665.606021 180.218125 
L 672.094949 180.218125 
L 678.583876 180.218125 
L 685.072804 180.218125 
L 691.561732 180.218125 
L 698.050659 180.218125 
L 704.539587 180.218125 
L 711.028514 180.218125 
L 717.517442 180.218125 
L 724.00637 180.218125 
L 730.495297 180.218125 
L 736.984225 180.218125 
L 743.473152 180.218125 
L 749.96208 180.218125 
L 756.451008 180.218125 
L 762.939935 180.218125 
L 769.428863 180.218125 
L 775.917791 180.218125 
L 782.406718 180.218125 
L 788.895646 180.218125 
L 795.384573 180.218125 
L 801.873501 180.218125 
L 808.362429 180.218125 
L 814.851356 180.218125 
L 821.340284 180.218125 
L 827.829211 180.218125 
L 834.318139 180.218125 
L 840.807067 180.218125 
L 847.295994 180.218125 
L 853.784922 180.218125 
L 860.273849 180.218125 
L 866.762777 180.218125 
L 873.251705 180.218125 
L 879.740632 180.218125 
L 886.22956 180.218125 
L 892.718488 180.218125 
L 899.207415 180.218125 
L 905.696343 180.218125 
L 912.18527 180.218125 
L 918.674198 180.218125 
L 925.163126 180.218125 
L 931.652053 180.218125 
L 938.140981 180.218125 
L 944.629908 180.218125 
L 951.118836 180.218125 
L 957.607764 180.218125 
L 964.096691 180.218125 
L 970.585619 180.218125 
L 977.074546 180.218125 
L 983.563474 180.218125 
L 990.052402 180.218125 
L 996.541329 180.218125 
L 1003.030257 180.218125 
L 1009.519184 180.218125 
L 1016.008112 180.218125 
L 1022.49704 180.218125 
L 1028.985967 180.218125 
L 1035.474895 180.218125 
L 1041.963823 180.218125 
L 1048.45275 180.218125 
L 1054.941678 180.218125 
L 1061.430605 180.218125 
L 1067.919533 180.218125 
L 1074.408461 180.218125 
L 1080.897388 180.218125 
L 1087.386316 180.218125 
L 1087.386316 180.206064 
L 1087.386316 180.206064 
L 1080.897388 180.202762 
L 1074.408461 180.198686 
L 1067.919533 180.193692 
L 1061.430605 180.187619 
L 1054.941678 180.180288 
L 1048.45275 180.171508 
L 1041.963823 180.161069 
L 1035.474895 180.148755 
L 1028.985967 180.134338 
L 1022.49704 180.117592 
L 1016.008112 180.09829 
L 1009.519184 180.076217 
L 1003.030257 180.05117 
L 996.541329 180.022975 
L 990.052402 179.991484 
L 983.563474 179.956589 
L 977.074546 179.918226 
L 970.585619 179.876378 
L 964.096691 179.831076 
L 957.607764 179.782403 
L 951.118836 179.730484 
L 944.629908 179.67548 
L 938.140981 179.617572 
L 931.652053 179.556944 
L 925.163126 179.493759 
L 918.674198 179.428126 
L 912.18527 179.360067 
L 905.696343 179.289476 
L 899.207415 179.216081 
L 892.718488 179.139389 
L 886.22956 179.058652 
L 879.740632 178.972813 
L 873.251705 178.880475 
L 866.762777 178.779863 
L 860.273849 178.6688 
L 853.784922 178.544702 
L 847.295994 178.404579 
L 840.807067 178.245058 
L 834.318139 178.062428 
L 827.829211 177.852707 
L 821.340284 177.611725 
L 814.851356 177.335242 
L 808.362429 177.019078 
L 801.873501 176.659266 
L 795.384573 176.252223 
L 788.895646 175.79493 
L 782.406718 175.285118 
L 775.917791 174.721448 
L 769.428863 174.103689 
L 762.939935 173.432865 
L 756.451008 172.711385 
L 749.96208 171.943119 
L 743.473152 171.133447 
L 736.984225 170.289235 
L 730.495297 169.418761 
L 724.00637 168.531578 
L 717.517442 167.638306 
L 711.028514 166.750367 
L 704.539587 165.879665 
L 698.050659 165.038207 
L 691.561732 164.237705 
L 685.072804 163.489134 
L 678.583876 162.802304 
L 672.094949 162.185433 
L 665.606021 161.644754 
L 659.117094 161.184175 
L 652.628166 160.805005 
L 646.139238 160.505766 
L 639.650311 160.282102 
L 633.161383 160.126796 
L 626.672455 160.029902 
L 620.183528 159.978988 
L 613.6946 159.959488 
L 607.205673 159.955163 
L 600.716745 159.948637 
L 594.227817 159.922013 
L 587.73889 159.857536 
L 581.249962 159.738272 
L 574.761035 159.548792 
L 568.272107 159.275824 
L 561.783179 158.908844 
L 555.294252 158.44059 
L 548.805324 157.86746 
L 542.316397 157.189788 
L 535.827469 156.411971 
L 529.338541 155.542449 
L 522.849614 154.593512 
L 516.360686 153.580956 
L 509.871758 152.523588 
L 503.382831 151.442585 
L 496.893903 150.360746 
L 490.404976 149.301645 
L 483.916048 148.288729 
L 477.42712 147.344389 
L 470.938193 146.489043 
L 464.449265 145.740267 
L 457.960338 145.112016 
L 451.47141 144.613969 
L 444.982482 144.251016 
L 438.493555 144.022936 
L 432.004627 143.924263 
L 425.5157 143.944363 
L 419.026772 144.067717 
L 412.537844 144.274415 
L 406.048917 144.540827 
L 399.559989 144.840454 
L 393.071062 145.144906 
L 386.582134 145.424978 
L 380.093206 145.651794 
L 373.604279 145.797956 
L 367.115351 145.838667 
L 360.626423 145.752776 
L 354.137496 145.523703 
L 347.648568 145.140203 
L 341.159641 144.596944 
L 334.670713 143.894856 
L 328.181785 143.04125 
L 321.692858 142.04968 
L 315.20393 140.939564 
L 308.715003 139.735566 
L 302.226075 138.466748 
L 295.737147 137.165548 
L 289.24822 135.866592 
L 282.759292 134.605405 
L 276.270365 133.417054 
L 269.781437 132.334796 
L 263.292509 131.388767 
L 256.803582 130.604774 
L 250.314654 130.003244 
L 243.825726 129.598366 
L 237.336799 129.397471 
L 230.847871 129.400677 
L 224.358944 129.600809 
L 217.870016 129.983615 
L 211.381088 130.528258 
L 204.892161 131.208071 
L 198.403233 131.991552 
L 191.914306 132.843555 
L 185.425378 133.726631 
L 178.93645 134.602468 
L 172.447523 135.433377 
L 165.958595 136.183753 
L 159.469668 136.821477 
L 152.98074 137.319172 
L 146.491812 137.6553 
L 140.002885 137.815025 
L 133.513957 137.790833 
L 127.025029 137.582874 
L 120.536102 137.199011 
L 114.047174 136.654585 
L 107.558247 135.971896 
L 101.069319 135.179432 
L 94.580391 134.310858 
L 88.091464 133.403832 
L 81.602536 132.498669 
L 75.113609 131.636926 
L 68.624681 130.859946 
L 62.135753 130.207434 
L 55.646826 129.716109 
L 49.157898 129.418488 
L 42.668971 129.341839 
L 36.180043 129.507359 
L 29.691115 129.929579 
L 23.202188 130.61603 
L 16.71326 131.567169 
L 10.224333 132.776562 
L 3.735405 134.231299 
L -2.753523 135.912625 
L -9.24245 137.796744 
L -15.731378 139.855758 
L -22.220306 142.058699 
L -28.709233 144.372603 
L -35.198161 146.763583 
L -41.687088 149.197866 
L -48.176016 151.642735 
L -54.664944 154.067375 
L -61.153871 156.443577 
L -67.642799 158.74629 
L -74.131726 160.954021 
L -80.620654 163.04907 
L -87.109582 165.017623 
L -93.598509 166.8497 
L -100.087437 168.538988 
L -106.576364 170.082576 
L -113.065292 171.480604 
L -119.55422 172.735877 
L -126.043147 173.853426 
L -132.532075 174.840079 
L -139.021003 175.704022 
L -145.50993 176.454399 
L -151.998858 177.100933 
L -158.487785 177.653594 
L -164.976713 178.122321 
L -171.465641 178.516783 
L -177.954568 178.8462 
L -184.443496 179.119202 
L -190.932423 179.343743 
L -197.421351 179.527037 
L -203.910279 179.675547 
z
" style="fill:#4c72b0;fill-opacity:0.25;stroke:#4c72b0;"/>
   </g>
   <g id="PolyCollection_2">
    <path clip-path="url(#p5968073c6a)" d="M -152.712459 178.548094 
L -152.712459 180.218125 
L -146.738082 180.218125 
L -140.763706 180.218125 
L -134.789329 180.218125 
L -128.814952 180.218125 
L -122.840576 180.218125 
L -116.866199 180.218125 
L -110.891822 180.218125 
L -104.917446 180.218125 
L -98.943069 180.218125 
L -92.968692 180.218125 
L -86.994316 180.218125 
L -81.019939 180.218125 
L -75.045562 180.218125 
L -69.071186 180.218125 
L -63.096809 180.218125 
L -57.122432 180.218125 
L -51.148056 180.218125 
L -45.173679 180.218125 
L -39.199302 180.218125 
L -33.224926 180.218125 
L -27.250549 180.218125 
L -21.276172 180.218125 
L -15.301796 180.218125 
L -9.327419 180.218125 
L -3.353043 180.218125 
L 2.621334 180.218125 
L 8.595711 180.218125 
L 14.570087 180.218125 
L 20.544464 180.218125 
L 26.518841 180.218125 
L 32.493217 180.218125 
L 38.467594 180.218125 
L 44.441971 180.218125 
L 50.416347 180.218125 
L 56.390724 180.218125 
L 62.365101 180.218125 
L 68.339477 180.218125 
L 74.313854 180.218125 
L 80.288231 180.218125 
L 86.262607 180.218125 
L 92.236984 180.218125 
L 98.211361 180.218125 
L 104.185737 180.218125 
L 110.160114 180.218125 
L 116.134491 180.218125 
L 122.108867 180.218125 
L 128.083244 180.218125 
L 134.057621 180.218125 
L 140.031997 180.218125 
L 146.006374 180.218125 
L 151.980751 180.218125 
L 157.955127 180.218125 
L 163.929504 180.218125 
L 169.903881 180.218125 
L 175.878257 180.218125 
L 181.852634 180.218125 
L 187.827011 180.218125 
L 193.801387 180.218125 
L 199.775764 180.218125 
L 205.750141 180.218125 
L 211.724517 180.218125 
L 217.698894 180.218125 
L 223.673271 180.218125 
L 229.647647 180.218125 
L 235.622024 180.218125 
L 241.596401 180.218125 
L 247.570777 180.218125 
L 253.545154 180.218125 
L 259.51953 180.218125 
L 265.493907 180.218125 
L 271.468284 180.218125 
L 277.44266 180.218125 
L 283.417037 180.218125 
L 289.391414 180.218125 
L 295.36579 180.218125 
L 301.340167 180.218125 
L 307.314544 180.218125 
L 313.28892 180.218125 
L 319.263297 180.218125 
L 325.237674 180.218125 
L 331.21205 180.218125 
L 337.186427 180.218125 
L 343.160804 180.218125 
L 349.13518 180.218125 
L 355.109557 180.218125 
L 361.083934 180.218125 
L 367.05831 180.218125 
L 373.032687 180.218125 
L 379.007064 180.218125 
L 384.98144 180.218125 
L 390.955817 180.218125 
L 396.930194 180.218125 
L 402.90457 180.218125 
L 408.878947 180.218125 
L 414.853324 180.218125 
L 420.8277 180.218125 
L 426.802077 180.218125 
L 432.776454 180.218125 
L 438.75083 180.218125 
L 444.725207 180.218125 
L 450.699584 180.218125 
L 456.67396 180.218125 
L 462.648337 180.218125 
L 468.622714 180.218125 
L 474.59709 180.218125 
L 480.571467 180.218125 
L 486.545844 180.218125 
L 492.52022 180.218125 
L 498.494597 180.218125 
L 504.468974 180.218125 
L 510.44335 180.218125 
L 516.417727 180.218125 
L 522.392103 180.218125 
L 528.36648 180.218125 
L 534.340857 180.218125 
L 540.315233 180.218125 
L 546.28961 180.218125 
L 552.263987 180.218125 
L 558.238363 180.218125 
L 564.21274 180.218125 
L 570.187117 180.218125 
L 576.161493 180.218125 
L 582.13587 180.218125 
L 588.110247 180.218125 
L 594.084623 180.218125 
L 600.059 180.218125 
L 606.033377 180.218125 
L 612.007753 180.218125 
L 617.98213 180.218125 
L 623.956507 180.218125 
L 629.930883 180.218125 
L 635.90526 180.218125 
L 641.879637 180.218125 
L 647.854013 180.218125 
L 653.82839 180.218125 
L 659.802767 180.218125 
L 665.777143 180.218125 
L 671.75152 180.218125 
L 677.725897 180.218125 
L 683.700273 180.218125 
L 689.67465 180.218125 
L 695.649027 180.218125 
L 701.623403 180.218125 
L 707.59778 180.218125 
L 713.572157 180.218125 
L 719.546533 180.218125 
L 725.52091 180.218125 
L 731.495287 180.218125 
L 737.469663 180.218125 
L 743.44404 180.218125 
L 749.418417 180.218125 
L 755.392793 180.218125 
L 761.36717 180.218125 
L 767.341547 180.218125 
L 773.315923 180.218125 
L 779.2903 180.218125 
L 785.264676 180.218125 
L 791.239053 180.218125 
L 797.21343 180.218125 
L 803.187806 180.218125 
L 809.162183 180.218125 
L 815.13656 180.218125 
L 821.110936 180.218125 
L 827.085313 180.218125 
L 833.05969 180.218125 
L 839.034066 180.218125 
L 845.008443 180.218125 
L 850.98282 180.218125 
L 856.957196 180.218125 
L 862.931573 180.218125 
L 868.90595 180.218125 
L 874.880326 180.218125 
L 880.854703 180.218125 
L 886.82908 180.218125 
L 892.803456 180.218125 
L 898.777833 180.218125 
L 904.75221 180.218125 
L 910.726586 180.218125 
L 916.700963 180.218125 
L 922.67534 180.218125 
L 928.649716 180.218125 
L 934.624093 180.218125 
L 940.59847 180.218125 
L 946.572846 180.218125 
L 952.547223 180.218125 
L 958.5216 180.218125 
L 964.495976 180.218125 
L 970.470353 180.218125 
L 976.44473 180.218125 
L 982.419106 180.218125 
L 988.393483 180.218125 
L 994.36786 180.218125 
L 1000.342236 180.218125 
L 1006.316613 180.218125 
L 1012.29099 180.218125 
L 1018.265366 180.218125 
L 1024.239743 180.218125 
L 1030.21412 180.218125 
L 1036.188496 180.218125 
L 1036.188496 180.166739 
L 1036.188496 180.166739 
L 1030.21412 180.149925 
L 1024.239743 180.128438 
L 1018.265366 180.10126 
L 1012.29099 180.06724 
L 1006.316613 180.0251 
L 1000.342236 179.973451 
L 994.36786 179.910821 
L 988.393483 179.835692 
L 982.419106 179.746553 
L 976.44473 179.641959 
L 970.470353 179.520609 
L 964.495976 179.38143 
L 958.5216 179.223666 
L 952.547223 179.046973 
L 946.572846 178.851507 
L 940.59847 178.638012 
L 934.624093 178.407883 
L 928.649716 178.163212 
L 922.67534 177.906811 
L 916.700963 177.642195 
L 910.726586 177.373532 
L 904.75221 177.105558 
L 898.777833 176.84345 
L 892.803456 176.592666 
L 886.82908 176.358759 
L 880.854703 176.147165 
L 874.880326 175.962991 
L 868.90595 175.81079 
L 862.931573 175.694361 
L 856.957196 175.616567 
L 850.98282 175.579188 
L 845.008443 175.582825 
L 839.034066 175.626841 
L 833.05969 175.70937 
L 827.085313 175.82737 
L 821.110936 175.976723 
L 815.13656 176.152392 
L 809.162183 176.3486 
L 803.187806 176.559041 
L 797.21343 176.777107 
L 791.239053 176.996119 
L 785.264676 177.20955 
L 779.2903 177.411234 
L 773.315923 177.595558 
L 767.341547 177.757626 
L 761.36717 177.893385 
L 755.392793 177.999731 
L 749.418417 178.074575 
L 743.44404 178.116882 
L 737.469663 178.12667 
L 731.495287 178.104996 
L 725.52091 178.053896 
L 719.546533 177.976315 
L 713.572157 177.876001 
L 707.59778 177.75738 
L 701.623403 177.625414 
L 695.649027 177.485436 
L 689.67465 177.342969 
L 683.700273 177.203537 
L 677.725897 177.072477 
L 671.75152 176.954735 
L 665.777143 176.854691 
L 659.802767 176.775979 
L 653.82839 176.721349 
L 647.854013 176.692541 
L 641.879637 176.6902 
L 635.90526 176.713838 
L 629.930883 176.761818 
L 623.956507 176.8314 
L 617.98213 176.918807 
L 612.007753 177.019348 
L 606.033377 177.127554 
L 600.059 177.237356 
L 594.084623 177.342274 
L 588.110247 177.435626 
L 582.13587 177.510748 
L 576.161493 177.561208 
L 570.187117 177.58103 
L 564.21274 177.564904 
L 558.238363 177.508387 
L 552.263987 177.408088 
L 546.28961 177.261837 
L 540.315233 177.068818 
L 534.340857 176.82968 
L 528.36648 176.546608 
L 522.392103 176.223339 
L 516.417727 175.865141 
L 510.44335 175.478725 
L 504.468974 175.072102 
L 498.494597 174.654369 
L 492.52022 174.235449 
L 486.545844 173.825759 
L 480.571467 173.435846 
L 474.59709 173.075981 
L 468.622714 172.755733 
L 462.648337 172.48355 
L 456.67396 172.266351 
L 450.699584 172.109164 
L 444.725207 172.014814 
L 438.75083 171.983687 
L 432.776454 172.013579 
L 426.802077 172.099637 
L 420.8277 172.234399 
L 414.853324 172.40793 
L 408.878947 172.608049 
L 402.90457 172.820643 
L 396.930194 173.030052 
L 390.955817 173.21952 
L 384.98144 173.371691 
L 379.007064 173.46915 
L 373.032687 173.494979 
L 367.05831 173.433332 
L 361.083934 173.270015 
L 355.109557 172.993043 
L 349.13518 172.593181 
L 343.160804 172.064441 
L 337.186427 171.404513 
L 331.21205 170.615117 
L 325.237674 169.702256 
L 319.263297 168.676332 
L 313.28892 167.55211 
L 307.314544 166.348514 
L 301.340167 165.088232 
L 295.36579 163.797121 
L 289.391414 162.503415 
L 283.417037 161.236746 
L 277.44266 160.027009 
L 271.468284 158.903083 
L 265.493907 157.891481 
L 259.51953 157.014956 
L 253.545154 156.291133 
L 247.570777 155.731231 
L 241.596401 155.338916 
L 235.622024 155.109355 
L 229.647647 155.028508 
L 223.673271 155.072701 
L 217.698894 155.2085 
L 211.724517 155.392914 
L 205.750141 155.573927 
L 199.775764 155.691369 
L 193.801387 155.678122 
L 187.827011 155.461654 
L 181.852634 154.965864 
L 175.878257 154.11324 
L 169.903881 152.827294 
L 163.929504 151.03525 
L 157.955127 148.670941 
L 151.980751 145.677858 
L 146.006374 142.012259 
L 140.031997 137.646242 
L 134.057621 132.570641 
L 128.083244 126.7976 
L 122.108867 120.362643 
L 116.134491 113.326085 
L 110.160114 105.77358 
L 104.185737 97.815697 
L 98.211361 89.586366 
L 92.236984 81.240174 
L 86.262607 72.948478 
L 80.288231 64.894448 
L 74.313854 57.267159 
L 68.339477 50.255008 
L 62.365101 44.038717 
L 56.390724 38.784292 
L 50.416347 34.636317 
L 44.441971 31.711945 
L 38.467594 30.095957 
L 32.493217 29.837173 
L 26.518841 30.946441 
L 20.544464 33.396339 
L 14.570087 37.122583 
L 8.595711 42.027083 
L 2.621334 47.982433 
L -3.353043 54.837572 
L -9.327419 62.424262 
L -15.301796 70.564018 
L -21.276172 79.075089 
L -27.250549 87.779122 
L -33.224926 96.507184 
L -39.199302 105.104877 
L -45.173679 113.436352 
L -51.148056 121.387123 
L -57.122432 128.865658 
L -63.096809 135.803803 
L -69.071186 142.156147 
L -75.045562 147.898509 
L -81.019939 153.025725 
L -86.994316 157.54897 
L -92.968692 161.49279 
L -98.943069 164.892074 
L -104.917446 167.789092 
L -110.891822 170.230761 
L -116.866199 172.266228 
L -122.840576 173.94481 
L -128.814952 175.314359 
L -134.789329 176.420003 
L -140.763706 177.303288 
L -146.738082 178.001633 
L -152.712459 178.548094 
z
" style="fill:#dd8452;fill-opacity:0.25;stroke:#dd8452;"/>
   </g>
   <g id="patch_3">
    <path d="M 34.193438 180.218125 
L 34.193438 22.318125 
" style="fill:none;stroke:#ffffff;stroke-linecap:square;stroke-linejoin:miter;stroke-width:1.25;"/>
   </g>
   <g id="patch_4">
    <path d="M 34.193438 180.218125 
L 849.2826 180.218125 
" style="fill:none;stroke:#ffffff;stroke-linecap:square;stroke-linejoin:miter;stroke-width:1.25;"/>
   </g>
   <g id="text_17">
    <!-- Output: caa -->
    <g style="fill:#262626;" transform="translate(406.315519 16.318125)scale(0.12 -0.12)">
     <defs>
      <path d="M 39.40625 66.21875 
Q 28.65625 66.21875 22.328125 58.203125 
Q 16.015625 50.203125 16.015625 36.375 
Q 16.015625 22.609375 22.328125 14.59375 
Q 28.65625 6.59375 39.40625 6.59375 
Q 50.140625 6.59375 56.421875 14.59375 
Q 62.703125 22.609375 62.703125 36.375 
Q 62.703125 50.203125 56.421875 58.203125 
Q 50.140625 66.21875 39.40625 66.21875 
z
M 39.40625 74.21875 
Q 54.734375 74.21875 63.90625 63.9375 
Q 73.09375 53.65625 73.09375 36.375 
Q 73.09375 19.140625 63.90625 8.859375 
Q 54.734375 -1.421875 39.40625 -1.421875 
Q 24.03125 -1.421875 14.8125 8.828125 
Q 5.609375 19.09375 5.609375 36.375 
Q 5.609375 53.65625 14.8125 63.9375 
Q 24.03125 74.21875 39.40625 74.21875 
z
" id="DejaVuSans-79"/>
      <path d="M 8.5 21.578125 
L 8.5 54.6875 
L 17.484375 54.6875 
L 17.484375 21.921875 
Q 17.484375 14.15625 20.5 10.265625 
Q 23.53125 6.390625 29.59375 6.390625 
Q 36.859375 6.390625 41.078125 11.03125 
Q 45.3125 15.671875 45.3125 23.6875 
L 45.3125 54.6875 
L 54.296875 54.6875 
L 54.296875 0 
L 45.3125 0 
L 45.3125 8.40625 
Q 42.046875 3.421875 37.71875 1 
Q 33.40625 -1.421875 27.6875 -1.421875 
Q 18.265625 -1.421875 13.375 4.4375 
Q 8.5 10.296875 8.5 21.578125 
z
M 31.109375 56 
z
" id="DejaVuSans-117"/>
      <path d="M 18.3125 70.21875 
L 18.3125 54.6875 
L 36.8125 54.6875 
L 36.8125 47.703125 
L 18.3125 47.703125 
L 18.3125 18.015625 
Q 18.3125 11.328125 20.140625 9.421875 
Q 21.96875 7.515625 27.59375 7.515625 
L 36.8125 7.515625 
L 36.8125 0 
L 27.59375 0 
Q 17.1875 0 13.234375 3.875 
Q 9.28125 7.765625 9.28125 18.015625 
L 9.28125 47.703125 
L 2.6875 47.703125 
L 2.6875 54.6875 
L 9.28125 54.6875 
L 9.28125 70.21875 
z
" id="DejaVuSans-116"/>
      <path d="M 18.109375 8.203125 
L 18.109375 -20.796875 
L 9.078125 -20.796875 
L 9.078125 54.6875 
L 18.109375 54.6875 
L 18.109375 46.390625 
Q 20.953125 51.265625 25.265625 53.625 
Q 29.59375 56 35.59375 56 
Q 45.5625 56 51.78125 48.09375 
Q 58.015625 40.1875 58.015625 27.296875 
Q 58.015625 14.40625 51.78125 6.484375 
Q 45.5625 -1.421875 35.59375 -1.421875 
Q 29.59375 -1.421875 25.265625 0.953125 
Q 20.953125 3.328125 18.109375 8.203125 
z
M 48.6875 27.296875 
Q 48.6875 37.203125 44.609375 42.84375 
Q 40.53125 48.484375 33.40625 48.484375 
Q 26.265625 48.484375 22.1875 42.84375 
Q 18.109375 37.203125 18.109375 27.296875 
Q 18.109375 17.390625 22.1875 11.75 
Q 26.265625 6.109375 33.40625 6.109375 
Q 40.53125 6.109375 44.609375 11.75 
Q 48.6875 17.390625 48.6875 27.296875 
z
" id="DejaVuSans-112"/>
      <path d="M 11.71875 12.40625 
L 22.015625 12.40625 
L 22.015625 0 
L 11.71875 0 
z
M 11.71875 51.703125 
L 22.015625 51.703125 
L 22.015625 39.3125 
L 11.71875 39.3125 
z
" id="DejaVuSans-58"/>
      <path id="DejaVuSans-32"/>
     </defs>
     <use xlink:href="#DejaVuSans-79"/>
     <use x="78.710938" xlink:href="#DejaVuSans-117"/>
     <use x="142.089844" xlink:href="#DejaVuSans-116"/>
     <use x="181.298828" xlink:href="#DejaVuSans-112"/>
     <use x="244.775391" xlink:href="#DejaVuSans-117"/>
     <use x="308.154297" xlink:href="#DejaVuSans-116"/>
     <use x="347.363281" xlink:href="#DejaVuSans-58"/>
     <use x="381.054688" xlink:href="#DejaVuSans-32"/>
     <use x="412.841797" xlink:href="#DejaVuSans-99"/>
     <use x="467.822266" xlink:href="#DejaVuSans-97"/>
     <use x="529.101562" xlink:href="#DejaVuSans-97"/>
    </g>
   </g>
  </g>
  <g id="legend_1">
   <g id="text_18">
    <!-- output -->
    <g style="fill:#262626;" transform="translate(859.052475 98.754219)scale(0.12 -0.12)">
     <defs>
      <path d="M 30.609375 48.390625 
Q 23.390625 48.390625 19.1875 42.75 
Q 14.984375 37.109375 14.984375 27.296875 
Q 14.984375 17.484375 19.15625 11.84375 
Q 23.34375 6.203125 30.609375 6.203125 
Q 37.796875 6.203125 41.984375 11.859375 
Q 46.1875 17.53125 46.1875 27.296875 
Q 46.1875 37.015625 41.984375 42.703125 
Q 37.796875 48.390625 30.609375 48.390625 
z
M 30.609375 56 
Q 42.328125 56 49.015625 48.375 
Q 55.71875 40.765625 55.71875 27.296875 
Q 55.71875 13.875 49.015625 6.21875 
Q 42.328125 -1.421875 30.609375 -1.421875 
Q 18.84375 -1.421875 12.171875 6.21875 
Q 5.515625 13.875 5.515625 27.296875 
Q 5.515625 40.765625 12.171875 48.375 
Q 18.84375 56 30.609375 56 
z
" id="DejaVuSans-111"/>
     </defs>
     <use xlink:href="#DejaVuSans-111"/>
     <use x="61.181641" xlink:href="#DejaVuSans-117"/>
     <use x="124.560547" xlink:href="#DejaVuSans-116"/>
     <use x="163.769531" xlink:href="#DejaVuSans-112"/>
     <use x="227.246094" xlink:href="#DejaVuSans-117"/>
     <use x="290.625" xlink:href="#DejaVuSans-116"/>
    </g>
   </g>
   <g id="patch_5">
    <path d="M 859.942787 115.108125 
L 881.942787 115.108125 
L 881.942787 107.408125 
L 859.942787 107.408125 
z
" style="fill:#4c72b0;fill-opacity:0.25;stroke:#4c72b0;stroke-linejoin:miter;"/>
   </g>
   <g id="text_19">
    <!-- 0 -->
    <g style="fill:#262626;" transform="translate(890.742787 115.108125)scale(0.11 -0.11)">
     <use xlink:href="#DejaVuSans-48"/>
    </g>
   </g>
   <g id="patch_6">
    <path d="M 859.942787 131.254063 
L 881.942787 131.254063 
L 881.942787 123.554063 
L 859.942787 123.554063 
z
" style="fill:#dd8452;fill-opacity:0.25;stroke:#dd8452;stroke-linejoin:miter;"/>
   </g>
   <g id="text_20">
    <!-- 1 -->
    <g style="fill:#262626;" transform="translate(890.742787 131.254063)scale(0.11 -0.11)">
     <use xlink:href="#DejaVuSans-49"/>
    </g>
   </g>
  </g>
 </g>
 <defs>
  <clipPath id="p5968073c6a">
   <rect height="157.9" width="815.089162" x="34.193438" y="22.318125"/>
  </clipPath>
 </defs>
</svg>
