<?xml version="1.0" encoding="utf-8" standalone="no"?>
<!DOCTYPE svg PUBLIC "-//W3C//DTD SVG 1.1//EN"
  "http://www.w3.org/Graphics/SVG/1.1/DTD/svg11.dtd">
<!-- Created with matplotlib (https://matplotlib.org/) -->
<svg height="223.177812pt" version="1.1" viewBox="0 0 907.744685 223.177812" width="907.744685pt" xmlns="http://www.w3.org/2000/svg" xmlns:xlink="http://www.w3.org/1999/xlink">
 <metadata>
  <rdf:RDF xmlns:cc="http://creativecommons.org/ns#" xmlns:dc="http://purl.org/dc/elements/1.1/" xmlns:rdf="http://www.w3.org/1999/02/22-rdf-syntax-ns#">
   <cc:Work>
    <dc:type rdf:resource="http://purl.org/dc/dcmitype/StillImage"/>
    <dc:date>2021-07-04T23:48:55.529303</dc:date>
    <dc:format>image/svg+xml</dc:format>
    <dc:creator>
     <cc:Agent>
      <dc:title>Matplotlib v3.3.4, https://matplotlib.org/</dc:title>
     </cc:Agent>
    </dc:creator>
   </cc:Work>
  </rdf:RDF>
 </metadata>
 <defs>
  <style type="text/css">*{stroke-linecap:butt;stroke-linejoin:round;}</style>
 </defs>
 <g id="figure_1">
  <g id="patch_1">
   <path d="M 0 223.177812 
L 907.744685 223.177812 
L 907.744685 0 
L 0 0 
z
" style="fill:none;"/>
  </g>
  <g id="axes_1">
   <g id="patch_2">
    <path d="M 48.190938 180.218125 
L 848.495435 180.218125 
L 848.495435 22.318125 
L 48.190938 22.318125 
z
" style="fill:#eaeaf2;"/>
   </g>
   <g id="matplotlib.axis_1">
    <g id="xtick_1">
     <g id="line2d_1">
      <path clip-path="url(#pb99124df7c)" d="M 48.190938 180.218125 
L 48.190938 22.318125 
" style="fill:none;stroke:#ffffff;stroke-linecap:round;"/>
     </g>
     <g id="text_1">
      <!-- 0 -->
      <g style="fill:#262626;" transform="translate(44.691563 198.076406)scale(0.11 -0.11)">
       <defs>
        <path d="M 31.78125 66.40625 
Q 24.171875 66.40625 20.328125 58.90625 
Q 16.5 51.421875 16.5 36.375 
Q 16.5 21.390625 20.328125 13.890625 
Q 24.171875 6.390625 31.78125 6.390625 
Q 39.453125 6.390625 43.28125 13.890625 
Q 47.125 21.390625 47.125 36.375 
Q 47.125 51.421875 43.28125 58.90625 
Q 39.453125 66.40625 31.78125 66.40625 
z
M 31.78125 74.21875 
Q 44.046875 74.21875 50.515625 64.515625 
Q 56.984375 54.828125 56.984375 36.375 
Q 56.984375 17.96875 50.515625 8.265625 
Q 44.046875 -1.421875 31.78125 -1.421875 
Q 19.53125 -1.421875 13.0625 8.265625 
Q 6.59375 17.96875 6.59375 36.375 
Q 6.59375 54.828125 13.0625 64.515625 
Q 19.53125 74.21875 31.78125 74.21875 
z
" id="DejaVuSans-48"/>
       </defs>
       <use xlink:href="#DejaVuSans-48"/>
      </g>
     </g>
    </g>
    <g id="xtick_2">
     <g id="line2d_2">
      <path clip-path="url(#pb99124df7c)" d="M 190.088898 180.218125 
L 190.088898 22.318125 
" style="fill:none;stroke:#ffffff;stroke-linecap:round;"/>
     </g>
     <g id="text_2">
      <!-- 100 -->
      <g style="fill:#262626;" transform="translate(179.590773 198.076406)scale(0.11 -0.11)">
       <defs>
        <path d="M 12.40625 8.296875 
L 28.515625 8.296875 
L 28.515625 63.921875 
L 10.984375 60.40625 
L 10.984375 69.390625 
L 28.421875 72.90625 
L 38.28125 72.90625 
L 38.28125 8.296875 
L 54.390625 8.296875 
L 54.390625 0 
L 12.40625 0 
z
" id="DejaVuSans-49"/>
       </defs>
       <use xlink:href="#DejaVuSans-49"/>
       <use x="63.623047" xlink:href="#DejaVuSans-48"/>
       <use x="127.246094" xlink:href="#DejaVuSans-48"/>
      </g>
     </g>
    </g>
    <g id="xtick_3">
     <g id="line2d_3">
      <path clip-path="url(#pb99124df7c)" d="M 331.986859 180.218125 
L 331.986859 22.318125 
" style="fill:none;stroke:#ffffff;stroke-linecap:round;"/>
     </g>
     <g id="text_3">
      <!-- 200 -->
      <g style="fill:#262626;" transform="translate(321.488734 198.076406)scale(0.11 -0.11)">
       <defs>
        <path d="M 19.1875 8.296875 
L 53.609375 8.296875 
L 53.609375 0 
L 7.328125 0 
L 7.328125 8.296875 
Q 12.9375 14.109375 22.625 23.890625 
Q 32.328125 33.6875 34.8125 36.53125 
Q 39.546875 41.84375 41.421875 45.53125 
Q 43.3125 49.21875 43.3125 52.78125 
Q 43.3125 58.59375 39.234375 62.25 
Q 35.15625 65.921875 28.609375 65.921875 
Q 23.96875 65.921875 18.8125 64.3125 
Q 13.671875 62.703125 7.8125 59.421875 
L 7.8125 69.390625 
Q 13.765625 71.78125 18.9375 73 
Q 24.125 74.21875 28.421875 74.21875 
Q 39.75 74.21875 46.484375 68.546875 
Q 53.21875 62.890625 53.21875 53.421875 
Q 53.21875 48.921875 51.53125 44.890625 
Q 49.859375 40.875 45.40625 35.40625 
Q 44.1875 33.984375 37.640625 27.21875 
Q 31.109375 20.453125 19.1875 8.296875 
z
" id="DejaVuSans-50"/>
       </defs>
       <use xlink:href="#DejaVuSans-50"/>
       <use x="63.623047" xlink:href="#DejaVuSans-48"/>
       <use x="127.246094" xlink:href="#DejaVuSans-48"/>
      </g>
     </g>
    </g>
    <g id="xtick_4">
     <g id="line2d_4">
      <path clip-path="url(#pb99124df7c)" d="M 473.884819 180.218125 
L 473.884819 22.318125 
" style="fill:none;stroke:#ffffff;stroke-linecap:round;"/>
     </g>
     <g id="text_4">
      <!-- 300 -->
      <g style="fill:#262626;" transform="translate(463.386694 198.076406)scale(0.11 -0.11)">
       <defs>
        <path d="M 40.578125 39.3125 
Q 47.65625 37.796875 51.625 33 
Q 55.609375 28.21875 55.609375 21.1875 
Q 55.609375 10.40625 48.1875 4.484375 
Q 40.765625 -1.421875 27.09375 -1.421875 
Q 22.515625 -1.421875 17.65625 -0.515625 
Q 12.796875 0.390625 7.625 2.203125 
L 7.625 11.71875 
Q 11.71875 9.328125 16.59375 8.109375 
Q 21.484375 6.890625 26.8125 6.890625 
Q 36.078125 6.890625 40.9375 10.546875 
Q 45.796875 14.203125 45.796875 21.1875 
Q 45.796875 27.640625 41.28125 31.265625 
Q 36.765625 34.90625 28.71875 34.90625 
L 20.21875 34.90625 
L 20.21875 43.015625 
L 29.109375 43.015625 
Q 36.375 43.015625 40.234375 45.921875 
Q 44.09375 48.828125 44.09375 54.296875 
Q 44.09375 59.90625 40.109375 62.90625 
Q 36.140625 65.921875 28.71875 65.921875 
Q 24.65625 65.921875 20.015625 65.03125 
Q 15.375 64.15625 9.8125 62.3125 
L 9.8125 71.09375 
Q 15.4375 72.65625 20.34375 73.4375 
Q 25.25 74.21875 29.59375 74.21875 
Q 40.828125 74.21875 47.359375 69.109375 
Q 53.90625 64.015625 53.90625 55.328125 
Q 53.90625 49.265625 50.4375 45.09375 
Q 46.96875 40.921875 40.578125 39.3125 
z
" id="DejaVuSans-51"/>
       </defs>
       <use xlink:href="#DejaVuSans-51"/>
       <use x="63.623047" xlink:href="#DejaVuSans-48"/>
       <use x="127.246094" xlink:href="#DejaVuSans-48"/>
      </g>
     </g>
    </g>
    <g id="xtick_5">
     <g id="line2d_5">
      <path clip-path="url(#pb99124df7c)" d="M 615.78278 180.218125 
L 615.78278 22.318125 
" style="fill:none;stroke:#ffffff;stroke-linecap:round;"/>
     </g>
     <g id="text_5">
      <!-- 400 -->
      <g style="fill:#262626;" transform="translate(605.284655 198.076406)scale(0.11 -0.11)">
       <defs>
        <path d="M 37.796875 64.3125 
L 12.890625 25.390625 
L 37.796875 25.390625 
z
M 35.203125 72.90625 
L 47.609375 72.90625 
L 47.609375 25.390625 
L 58.015625 25.390625 
L 58.015625 17.1875 
L 47.609375 17.1875 
L 47.609375 0 
L 37.796875 0 
L 37.796875 17.1875 
L 4.890625 17.1875 
L 4.890625 26.703125 
z
" id="DejaVuSans-52"/>
       </defs>
       <use xlink:href="#DejaVuSans-52"/>
       <use x="63.623047" xlink:href="#DejaVuSans-48"/>
       <use x="127.246094" xlink:href="#DejaVuSans-48"/>
      </g>
     </g>
    </g>
    <g id="xtick_6">
     <g id="line2d_6">
      <path clip-path="url(#pb99124df7c)" d="M 757.680741 180.218125 
L 757.680741 22.318125 
" style="fill:none;stroke:#ffffff;stroke-linecap:round;"/>
     </g>
     <g id="text_6">
      <!-- 500 -->
      <g style="fill:#262626;" transform="translate(747.182616 198.076406)scale(0.11 -0.11)">
       <defs>
        <path d="M 10.796875 72.90625 
L 49.515625 72.90625 
L 49.515625 64.59375 
L 19.828125 64.59375 
L 19.828125 46.734375 
Q 21.96875 47.46875 24.109375 47.828125 
Q 26.265625 48.1875 28.421875 48.1875 
Q 40.625 48.1875 47.75 41.5 
Q 54.890625 34.8125 54.890625 23.390625 
Q 54.890625 11.625 47.5625 5.09375 
Q 40.234375 -1.421875 26.90625 -1.421875 
Q 22.3125 -1.421875 17.546875 -0.640625 
Q 12.796875 0.140625 7.71875 1.703125 
L 7.71875 11.625 
Q 12.109375 9.234375 16.796875 8.0625 
Q 21.484375 6.890625 26.703125 6.890625 
Q 35.15625 6.890625 40.078125 11.328125 
Q 45.015625 15.765625 45.015625 23.390625 
Q 45.015625 31 40.078125 35.4375 
Q 35.15625 39.890625 26.703125 39.890625 
Q 22.75 39.890625 18.8125 39.015625 
Q 14.890625 38.140625 10.796875 36.28125 
z
" id="DejaVuSans-53"/>
       </defs>
       <use xlink:href="#DejaVuSans-53"/>
       <use x="63.623047" xlink:href="#DejaVuSans-48"/>
       <use x="127.246094" xlink:href="#DejaVuSans-48"/>
      </g>
     </g>
    </g>
    <g id="text_7">
     <!-- chol -->
     <g style="fill:#262626;" transform="translate(435.903499 213.482187)scale(0.12 -0.12)">
      <defs>
       <path d="M 48.78125 52.59375 
L 48.78125 44.1875 
Q 44.96875 46.296875 41.140625 47.34375 
Q 37.3125 48.390625 33.40625 48.390625 
Q 24.65625 48.390625 19.8125 42.84375 
Q 14.984375 37.3125 14.984375 27.296875 
Q 14.984375 17.28125 19.8125 11.734375 
Q 24.65625 6.203125 33.40625 6.203125 
Q 37.3125 6.203125 41.140625 7.25 
Q 44.96875 8.296875 48.78125 10.40625 
L 48.78125 2.09375 
Q 45.015625 0.34375 40.984375 -0.53125 
Q 36.96875 -1.421875 32.421875 -1.421875 
Q 20.0625 -1.421875 12.78125 6.34375 
Q 5.515625 14.109375 5.515625 27.296875 
Q 5.515625 40.671875 12.859375 48.328125 
Q 20.21875 56 33.015625 56 
Q 37.15625 56 41.109375 55.140625 
Q 45.0625 54.296875 48.78125 52.59375 
z
" id="DejaVuSans-99"/>
       <path d="M 54.890625 33.015625 
L 54.890625 0 
L 45.90625 0 
L 45.90625 32.71875 
Q 45.90625 40.484375 42.875 44.328125 
Q 39.84375 48.1875 33.796875 48.1875 
Q 26.515625 48.1875 22.3125 43.546875 
Q 18.109375 38.921875 18.109375 30.90625 
L 18.109375 0 
L 9.078125 0 
L 9.078125 75.984375 
L 18.109375 75.984375 
L 18.109375 46.1875 
Q 21.34375 51.125 25.703125 53.5625 
Q 30.078125 56 35.796875 56 
Q 45.21875 56 50.046875 50.171875 
Q 54.890625 44.34375 54.890625 33.015625 
z
" id="DejaVuSans-104"/>
       <path d="M 30.609375 48.390625 
Q 23.390625 48.390625 19.1875 42.75 
Q 14.984375 37.109375 14.984375 27.296875 
Q 14.984375 17.484375 19.15625 11.84375 
Q 23.34375 6.203125 30.609375 6.203125 
Q 37.796875 6.203125 41.984375 11.859375 
Q 46.1875 17.53125 46.1875 27.296875 
Q 46.1875 37.015625 41.984375 42.703125 
Q 37.796875 48.390625 30.609375 48.390625 
z
M 30.609375 56 
Q 42.328125 56 49.015625 48.375 
Q 55.71875 40.765625 55.71875 27.296875 
Q 55.71875 13.875 49.015625 6.21875 
Q 42.328125 -1.421875 30.609375 -1.421875 
Q 18.84375 -1.421875 12.171875 6.21875 
Q 5.515625 13.875 5.515625 27.296875 
Q 5.515625 40.765625 12.171875 48.375 
Q 18.84375 56 30.609375 56 
z
" id="DejaVuSans-111"/>
       <path d="M 9.421875 75.984375 
L 18.40625 75.984375 
L 18.40625 0 
L 9.421875 0 
z
" id="DejaVuSans-108"/>
      </defs>
      <use xlink:href="#DejaVuSans-99"/>
      <use x="54.980469" xlink:href="#DejaVuSans-104"/>
      <use x="118.359375" xlink:href="#DejaVuSans-111"/>
      <use x="179.541016" xlink:href="#DejaVuSans-108"/>
     </g>
    </g>
   </g>
   <g id="matplotlib.axis_2">
    <g id="ytick_1">
     <g id="line2d_7">
      <path clip-path="url(#pb99124df7c)" d="M 48.190938 180.218125 
L 848.495435 180.218125 
" style="fill:none;stroke:#ffffff;stroke-linecap:round;"/>
     </g>
     <g id="text_8">
      <!-- 0.000 -->
      <g style="fill:#262626;" transform="translate(7.2 184.397266)scale(0.11 -0.11)">
       <defs>
        <path d="M 10.6875 12.40625 
L 21 12.40625 
L 21 0 
L 10.6875 0 
z
" id="DejaVuSans-46"/>
       </defs>
       <use xlink:href="#DejaVuSans-48"/>
       <use x="63.623047" xlink:href="#DejaVuSans-46"/>
       <use x="95.410156" xlink:href="#DejaVuSans-48"/>
       <use x="159.033203" xlink:href="#DejaVuSans-48"/>
       <use x="222.65625" xlink:href="#DejaVuSans-48"/>
      </g>
     </g>
    </g>
    <g id="ytick_2">
     <g id="line2d_8">
      <path clip-path="url(#pb99124df7c)" d="M 48.190938 145.412473 
L 848.495435 145.412473 
" style="fill:none;stroke:#ffffff;stroke-linecap:round;"/>
     </g>
     <g id="text_9">
      <!-- 0.002 -->
      <g style="fill:#262626;" transform="translate(7.2 149.591614)scale(0.11 -0.11)">
       <use xlink:href="#DejaVuSans-48"/>
       <use x="63.623047" xlink:href="#DejaVuSans-46"/>
       <use x="95.410156" xlink:href="#DejaVuSans-48"/>
       <use x="159.033203" xlink:href="#DejaVuSans-48"/>
       <use x="222.65625" xlink:href="#DejaVuSans-50"/>
      </g>
     </g>
    </g>
    <g id="ytick_3">
     <g id="line2d_9">
      <path clip-path="url(#pb99124df7c)" d="M 48.190938 110.606821 
L 848.495435 110.606821 
" style="fill:none;stroke:#ffffff;stroke-linecap:round;"/>
     </g>
     <g id="text_10">
      <!-- 0.004 -->
      <g style="fill:#262626;" transform="translate(7.2 114.785961)scale(0.11 -0.11)">
       <use xlink:href="#DejaVuSans-48"/>
       <use x="63.623047" xlink:href="#DejaVuSans-46"/>
       <use x="95.410156" xlink:href="#DejaVuSans-48"/>
       <use x="159.033203" xlink:href="#DejaVuSans-48"/>
       <use x="222.65625" xlink:href="#DejaVuSans-52"/>
      </g>
     </g>
    </g>
    <g id="ytick_4">
     <g id="line2d_10">
      <path clip-path="url(#pb99124df7c)" d="M 48.190938 75.801169 
L 848.495435 75.801169 
" style="fill:none;stroke:#ffffff;stroke-linecap:round;"/>
     </g>
     <g id="text_11">
      <!-- 0.006 -->
      <g style="fill:#262626;" transform="translate(7.2 79.980309)scale(0.11 -0.11)">
       <defs>
        <path d="M 33.015625 40.375 
Q 26.375 40.375 22.484375 35.828125 
Q 18.609375 31.296875 18.609375 23.390625 
Q 18.609375 15.53125 22.484375 10.953125 
Q 26.375 6.390625 33.015625 6.390625 
Q 39.65625 6.390625 43.53125 10.953125 
Q 47.40625 15.53125 47.40625 23.390625 
Q 47.40625 31.296875 43.53125 35.828125 
Q 39.65625 40.375 33.015625 40.375 
z
M 52.59375 71.296875 
L 52.59375 62.3125 
Q 48.875 64.0625 45.09375 64.984375 
Q 41.3125 65.921875 37.59375 65.921875 
Q 27.828125 65.921875 22.671875 59.328125 
Q 17.53125 52.734375 16.796875 39.40625 
Q 19.671875 43.65625 24.015625 45.921875 
Q 28.375 48.1875 33.59375 48.1875 
Q 44.578125 48.1875 50.953125 41.515625 
Q 57.328125 34.859375 57.328125 23.390625 
Q 57.328125 12.15625 50.6875 5.359375 
Q 44.046875 -1.421875 33.015625 -1.421875 
Q 20.359375 -1.421875 13.671875 8.265625 
Q 6.984375 17.96875 6.984375 36.375 
Q 6.984375 53.65625 15.1875 63.9375 
Q 23.390625 74.21875 37.203125 74.21875 
Q 40.921875 74.21875 44.703125 73.484375 
Q 48.484375 72.75 52.59375 71.296875 
z
" id="DejaVuSans-54"/>
       </defs>
       <use xlink:href="#DejaVuSans-48"/>
       <use x="63.623047" xlink:href="#DejaVuSans-46"/>
       <use x="95.410156" xlink:href="#DejaVuSans-48"/>
       <use x="159.033203" xlink:href="#DejaVuSans-48"/>
       <use x="222.65625" xlink:href="#DejaVuSans-54"/>
      </g>
     </g>
    </g>
    <g id="ytick_5">
     <g id="line2d_11">
      <path clip-path="url(#pb99124df7c)" d="M 48.190938 40.995517 
L 848.495435 40.995517 
" style="fill:none;stroke:#ffffff;stroke-linecap:round;"/>
     </g>
     <g id="text_12">
      <!-- 0.008 -->
      <g style="fill:#262626;" transform="translate(7.2 45.174657)scale(0.11 -0.11)">
       <defs>
        <path d="M 31.78125 34.625 
Q 24.75 34.625 20.71875 30.859375 
Q 16.703125 27.09375 16.703125 20.515625 
Q 16.703125 13.921875 20.71875 10.15625 
Q 24.75 6.390625 31.78125 6.390625 
Q 38.8125 6.390625 42.859375 10.171875 
Q 46.921875 13.96875 46.921875 20.515625 
Q 46.921875 27.09375 42.890625 30.859375 
Q 38.875 34.625 31.78125 34.625 
z
M 21.921875 38.8125 
Q 15.578125 40.375 12.03125 44.71875 
Q 8.5 49.078125 8.5 55.328125 
Q 8.5 64.0625 14.71875 69.140625 
Q 20.953125 74.21875 31.78125 74.21875 
Q 42.671875 74.21875 48.875 69.140625 
Q 55.078125 64.0625 55.078125 55.328125 
Q 55.078125 49.078125 51.53125 44.71875 
Q 48 40.375 41.703125 38.8125 
Q 48.828125 37.15625 52.796875 32.3125 
Q 56.78125 27.484375 56.78125 20.515625 
Q 56.78125 9.90625 50.3125 4.234375 
Q 43.84375 -1.421875 31.78125 -1.421875 
Q 19.734375 -1.421875 13.25 4.234375 
Q 6.78125 9.90625 6.78125 20.515625 
Q 6.78125 27.484375 10.78125 32.3125 
Q 14.796875 37.15625 21.921875 38.8125 
z
M 18.3125 54.390625 
Q 18.3125 48.734375 21.84375 45.5625 
Q 25.390625 42.390625 31.78125 42.390625 
Q 38.140625 42.390625 41.71875 45.5625 
Q 45.3125 48.734375 45.3125 54.390625 
Q 45.3125 60.0625 41.71875 63.234375 
Q 38.140625 66.40625 31.78125 66.40625 
Q 25.390625 66.40625 21.84375 63.234375 
Q 18.3125 60.0625 18.3125 54.390625 
z
" id="DejaVuSans-56"/>
       </defs>
       <use xlink:href="#DejaVuSans-48"/>
       <use x="63.623047" xlink:href="#DejaVuSans-46"/>
       <use x="95.410156" xlink:href="#DejaVuSans-48"/>
       <use x="159.033203" xlink:href="#DejaVuSans-48"/>
       <use x="222.65625" xlink:href="#DejaVuSans-56"/>
      </g>
     </g>
    </g>
   </g>
   <g id="PolyCollection_1">
    <defs>
     <path d="M 155.494302 -42.991047 
L 155.494302 -42.959688 
L 158.266374 -42.959688 
L 161.038445 -42.959688 
L 163.810517 -42.959688 
L 166.582589 -42.959688 
L 169.35466 -42.959688 
L 172.126732 -42.959688 
L 174.898804 -42.959688 
L 177.670875 -42.959688 
L 180.442947 -42.959688 
L 183.215019 -42.959688 
L 185.98709 -42.959688 
L 188.759162 -42.959688 
L 191.531234 -42.959688 
L 194.303305 -42.959688 
L 197.075377 -42.959688 
L 199.847449 -42.959688 
L 202.61952 -42.959688 
L 205.391592 -42.959688 
L 208.163663 -42.959688 
L 210.935735 -42.959688 
L 213.707807 -42.959688 
L 216.479878 -42.959688 
L 219.25195 -42.959688 
L 222.024022 -42.959688 
L 224.796093 -42.959688 
L 227.568165 -42.959688 
L 230.340237 -42.959688 
L 233.112308 -42.959688 
L 235.88438 -42.959688 
L 238.656452 -42.959688 
L 241.428523 -42.959688 
L 244.200595 -42.959688 
L 246.972667 -42.959688 
L 249.744738 -42.959688 
L 252.51681 -42.959688 
L 255.288881 -42.959688 
L 258.060953 -42.959688 
L 260.833025 -42.959688 
L 263.605096 -42.959688 
L 266.377168 -42.959688 
L 269.14924 -42.959688 
L 271.921311 -42.959688 
L 274.693383 -42.959688 
L 277.465455 -42.959688 
L 280.237526 -42.959688 
L 283.009598 -42.959688 
L 285.78167 -42.959688 
L 288.553741 -42.959688 
L 291.325813 -42.959688 
L 294.097885 -42.959688 
L 296.869956 -42.959688 
L 299.642028 -42.959688 
L 302.4141 -42.959688 
L 305.186171 -42.959688 
L 307.958243 -42.959688 
L 310.730314 -42.959688 
L 313.502386 -42.959688 
L 316.274458 -42.959688 
L 319.046529 -42.959688 
L 321.818601 -42.959688 
L 324.590673 -42.959688 
L 327.362744 -42.959688 
L 330.134816 -42.959688 
L 332.906888 -42.959688 
L 335.678959 -42.959688 
L 338.451031 -42.959688 
L 341.223103 -42.959688 
L 343.995174 -42.959688 
L 346.767246 -42.959688 
L 349.539318 -42.959688 
L 352.311389 -42.959688 
L 355.083461 -42.959688 
L 357.855532 -42.959688 
L 360.627604 -42.959688 
L 363.399676 -42.959688 
L 366.171747 -42.959688 
L 368.943819 -42.959688 
L 371.715891 -42.959688 
L 374.487962 -42.959688 
L 377.260034 -42.959688 
L 380.032106 -42.959688 
L 382.804177 -42.959688 
L 385.576249 -42.959688 
L 388.348321 -42.959688 
L 391.120392 -42.959688 
L 393.892464 -42.959688 
L 396.664536 -42.959688 
L 399.436607 -42.959688 
L 402.208679 -42.959688 
L 404.98075 -42.959688 
L 407.752822 -42.959688 
L 410.524894 -42.959688 
L 413.296965 -42.959688 
L 416.069037 -42.959688 
L 418.841109 -42.959688 
L 421.61318 -42.959688 
L 424.385252 -42.959688 
L 427.157324 -42.959688 
L 429.929395 -42.959688 
L 432.701467 -42.959688 
L 435.473539 -42.959688 
L 438.24561 -42.959688 
L 441.017682 -42.959688 
L 443.789754 -42.959688 
L 446.561825 -42.959688 
L 449.333897 -42.959688 
L 452.105969 -42.959688 
L 454.87804 -42.959688 
L 457.650112 -42.959688 
L 460.422183 -42.959688 
L 463.194255 -42.959688 
L 465.966327 -42.959688 
L 468.738398 -42.959688 
L 471.51047 -42.959688 
L 474.282542 -42.959688 
L 477.054613 -42.959688 
L 479.826685 -42.959688 
L 482.598757 -42.959688 
L 485.370828 -42.959688 
L 488.1429 -42.959688 
L 490.914972 -42.959688 
L 493.687043 -42.959688 
L 496.459115 -42.959688 
L 499.231187 -42.959688 
L 502.003258 -42.959688 
L 504.77533 -42.959688 
L 507.547401 -42.959688 
L 510.319473 -42.959688 
L 513.091545 -42.959688 
L 515.863616 -42.959688 
L 518.635688 -42.959688 
L 521.40776 -42.959688 
L 524.179831 -42.959688 
L 526.951903 -42.959688 
L 529.723975 -42.959688 
L 532.496046 -42.959688 
L 535.268118 -42.959688 
L 538.04019 -42.959688 
L 540.812261 -42.959688 
L 543.584333 -42.959688 
L 546.356405 -42.959688 
L 549.128476 -42.959688 
L 551.900548 -42.959688 
L 554.672619 -42.959688 
L 557.444691 -42.959688 
L 560.216763 -42.959688 
L 562.988834 -42.959688 
L 565.760906 -42.959688 
L 568.532978 -42.959688 
L 571.305049 -42.959688 
L 574.077121 -42.959688 
L 576.849193 -42.959688 
L 579.621264 -42.959688 
L 582.393336 -42.959688 
L 585.165408 -42.959688 
L 587.937479 -42.959688 
L 590.709551 -42.959688 
L 593.481623 -42.959688 
L 596.253694 -42.959688 
L 599.025766 -42.959688 
L 601.797838 -42.959688 
L 604.569909 -42.959688 
L 607.341981 -42.959688 
L 610.114052 -42.959688 
L 612.886124 -42.959688 
L 615.658196 -42.959688 
L 618.430267 -42.959688 
L 621.202339 -42.959688 
L 623.974411 -42.959688 
L 626.746482 -42.959688 
L 629.518554 -42.959688 
L 632.290626 -42.959688 
L 635.062697 -42.959688 
L 637.834769 -42.959688 
L 640.606841 -42.959688 
L 643.378912 -42.959688 
L 646.150984 -42.959688 
L 648.923056 -42.959688 
L 651.695127 -42.959688 
L 654.467199 -42.959688 
L 657.23927 -42.959688 
L 660.011342 -42.959688 
L 662.783414 -42.959688 
L 665.555485 -42.959688 
L 668.327557 -42.959688 
L 671.099629 -42.959688 
L 673.8717 -42.959688 
L 676.643772 -42.959688 
L 679.415844 -42.959688 
L 682.187915 -42.959688 
L 684.959987 -42.959688 
L 687.732059 -42.959688 
L 690.50413 -42.959688 
L 693.276202 -42.959688 
L 696.048274 -42.959688 
L 698.820345 -42.959688 
L 701.592417 -42.959688 
L 704.364488 -42.959688 
L 707.13656 -42.959688 
L 707.13656 -43.01171 
L 707.13656 -43.01171 
L 704.364488 -43.031092 
L 701.592417 -43.056607 
L 698.820345 -43.089779 
L 696.048274 -43.132366 
L 693.276202 -43.186348 
L 690.50413 -43.253902 
L 687.732059 -43.337349 
L 684.959987 -43.439081 
L 682.187915 -43.561459 
L 679.415844 -43.70669 
L 676.643772 -43.876676 
L 673.8717 -44.072845 
L 671.099629 -44.295978 
L 668.327557 -44.546032 
L 665.555485 -44.821977 
L 662.783414 -45.121663 
L 660.011342 -45.441732 
L 657.23927 -45.777588 
L 654.467199 -46.123435 
L 651.695127 -46.472391 
L 648.923056 -46.81669 
L 646.150984 -47.147953 
L 643.378912 -47.45753 
L 640.606841 -47.736894 
L 637.834769 -47.978059 
L 635.062697 -48.174006 
L 632.290626 -48.319087 
L 629.518554 -48.409374 
L 626.746482 -48.442937 
L 623.974411 -48.420027 
L 621.202339 -48.343156 
L 618.430267 -48.217072 
L 615.658196 -48.048621 
L 612.886124 -47.846526 
L 610.114052 -47.621094 
L 607.341981 -47.38386 
L 604.569909 -47.147226 
L 601.797838 -46.924082 
L 599.025766 -46.727461 
L 596.253694 -46.570232 
L 593.481623 -46.464838 
L 590.709551 -46.423111 
L 587.937479 -46.45612 
L 585.165408 -46.574095 
L 582.393336 -46.786377 
L 579.621264 -47.1014 
L 576.849193 -47.526687 
L 574.077121 -48.068844 
L 571.305049 -48.733535 
L 568.532978 -49.525444 
L 565.760906 -50.448201 
L 562.988834 -51.504293 
L 560.216763 -52.69494 
L 557.444691 -54.019985 
L 554.672619 -55.477774 
L 551.900548 -57.065068 
L 549.128476 -58.777001 
L 546.356405 -60.607099 
L 543.584333 -62.547374 
L 540.812261 -64.588508 
L 538.04019 -66.720121 
L 535.268118 -68.931128 
L 532.496046 -71.210171 
L 529.723975 -73.54609 
L 526.951903 -75.928426 
L 524.179831 -78.347908 
L 521.40776 -80.796891 
L 518.635688 -83.269714 
L 515.863616 -85.762937 
L 513.091545 -88.275434 
L 510.319473 -90.808333 
L 507.547401 -93.36478 
L 504.77533 -95.949549 
L 502.003258 -98.568506 
L 499.231187 -101.22796 
L 496.459115 -103.933944 
L 493.687043 -106.691471 
L 490.914972 -109.503813 
L 488.1429 -112.371865 
L 485.370828 -115.293635 
L 482.598757 -118.263906 
L 479.826685 -121.2741 
L 477.054613 -124.312367 
L 474.282542 -127.363894 
L 471.51047 -130.411417 
L 468.738398 -133.435923 
L 465.966327 -136.417468 
L 463.194255 -139.336077 
L 460.422183 -142.172649 
L 457.650112 -144.909801 
L 454.87804 -147.53259 
L 452.105969 -150.029064 
L 449.333897 -152.390592 
L 446.561825 -154.611962 
L 443.789754 -156.691242 
L 441.017682 -158.62942 
L 438.24561 -160.429867 
L 435.473539 -162.097668 
L 432.701467 -163.638877 
L 429.929395 -165.059759 
L 427.157324 -166.366087 
L 424.385252 -167.562524 
L 421.61318 -168.652144 
L 418.841109 -169.636105 
L 416.069037 -170.513496 
L 413.296965 -171.281329 
L 410.524894 -171.934696 
L 407.752822 -172.46703 
L 404.98075 -172.870471 
L 402.208679 -173.1363 
L 399.436607 -173.255407 
L 396.664536 -173.218772 
L 393.892464 -173.017947 
L 391.120392 -172.645492 
L 388.348321 -172.095382 
L 385.576249 -171.363342 
L 382.804177 -170.447108 
L 380.032106 -169.346604 
L 377.260034 -168.064021 
L 374.487962 -166.6038 
L 371.715891 -164.972521 
L 368.943819 -163.178704 
L 366.171747 -161.232536 
L 363.399676 -159.14555 
L 360.627604 -156.930273 
L 357.855532 -154.599872 
L 355.083461 -152.16782 
L 352.311389 -149.647594 
L 349.539318 -147.052425 
L 346.767246 -144.395094 
L 343.995174 -141.687779 
L 341.223103 -138.941931 
L 338.451031 -136.16817 
L 335.678959 -133.376192 
L 332.906888 -130.574662 
L 330.134816 -127.771105 
L 327.362744 -124.971785 
L 324.590673 -122.181587 
L 321.818601 -119.403932 
L 319.046529 -116.640728 
L 316.274458 -113.892405 
L 313.502386 -111.158031 
L 310.730314 -108.43555 
L 307.958243 -105.722112 
L 305.186171 -103.014516 
L 302.4141 -100.309715 
L 299.642028 -97.605367 
L 296.869956 -94.900371 
L 294.097885 -92.195354 
L 291.325813 -89.493049 
L 288.553741 -86.798538 
L 285.78167 -84.119311 
L 283.009598 -81.465152 
L 280.237526 -78.84783 
L 277.465455 -76.280633 
L 274.693383 -73.777772 
L 271.921311 -71.353693 
L 269.14924 -69.022373 
L 266.377168 -66.796619 
L 263.605096 -64.68746 
L 260.833025 -62.703645 
L 258.060953 -60.851292 
L 255.288881 -59.133708 
L 252.51681 -57.55138 
L 249.744738 -56.10212 
L 246.972667 -54.781362 
L 244.200595 -53.582558 
L 241.428523 -52.497646 
L 238.656452 -51.517555 
L 235.88438 -50.632706 
L 233.112308 -49.833468 
L 230.340237 -49.11056 
L 227.568165 -48.455361 
L 224.796093 -47.860133 
L 222.024022 -47.318151 
L 219.25195 -46.823743 
L 216.479878 -46.372249 
L 213.707807 -45.959932 
L 210.935735 -45.583834 
L 208.163663 -45.241619 
L 205.391592 -44.931401 
L 202.61952 -44.651587 
L 199.847449 -44.400734 
L 197.075377 -44.177439 
L 194.303305 -43.980254 
L 191.531234 -43.807639 
L 188.759162 -43.657936 
L 185.98709 -43.529377 
L 183.215019 -43.420103 
L 180.442947 -43.3282 
L 177.670875 -43.251743 
L 174.898804 -43.188838 
L 172.126732 -43.13766 
L 169.35466 -43.096496 
L 166.582589 -43.063764 
L 163.810517 -43.038036 
L 161.038445 -43.018047 
L 158.266374 -43.002698 
L 155.494302 -42.991047 
z
" id="m2e72e5dd9f" style="stroke:#4c72b0;"/>
    </defs>
    <g clip-path="url(#pb99124df7c)">
     <use style="fill:#4c72b0;fill-opacity:0.25;stroke:#4c72b0;" x="0" xlink:href="#m2e72e5dd9f" y="223.177812"/>
    </g>
   </g>
   <g id="PolyCollection_2">
    <defs>
     <path d="M 144.874763 -42.986077 
L 144.874763 -42.959688 
L 148.823146 -42.959688 
L 152.77153 -42.959688 
L 156.719913 -42.959688 
L 160.668296 -42.959688 
L 164.61668 -42.959688 
L 168.565063 -42.959688 
L 172.513446 -42.959688 
L 176.46183 -42.959688 
L 180.410213 -42.959688 
L 184.358596 -42.959688 
L 188.306979 -42.959688 
L 192.255363 -42.959688 
L 196.203746 -42.959688 
L 200.152129 -42.959688 
L 204.100513 -42.959688 
L 208.048896 -42.959688 
L 211.997279 -42.959688 
L 215.945663 -42.959688 
L 219.894046 -42.959688 
L 223.842429 -42.959688 
L 227.790813 -42.959688 
L 231.739196 -42.959688 
L 235.687579 -42.959688 
L 239.635962 -42.959688 
L 243.584346 -42.959688 
L 247.532729 -42.959688 
L 251.481112 -42.959688 
L 255.429496 -42.959688 
L 259.377879 -42.959688 
L 263.326262 -42.959688 
L 267.274646 -42.959688 
L 271.223029 -42.959688 
L 275.171412 -42.959688 
L 279.119795 -42.959688 
L 283.068179 -42.959688 
L 287.016562 -42.959688 
L 290.964945 -42.959688 
L 294.913329 -42.959688 
L 298.861712 -42.959688 
L 302.810095 -42.959688 
L 306.758479 -42.959688 
L 310.706862 -42.959688 
L 314.655245 -42.959688 
L 318.603628 -42.959688 
L 322.552012 -42.959688 
L 326.500395 -42.959688 
L 330.448778 -42.959688 
L 334.397162 -42.959688 
L 338.345545 -42.959688 
L 342.293928 -42.959688 
L 346.242312 -42.959688 
L 350.190695 -42.959688 
L 354.139078 -42.959688 
L 358.087461 -42.959688 
L 362.035845 -42.959688 
L 365.984228 -42.959688 
L 369.932611 -42.959688 
L 373.880995 -42.959688 
L 377.829378 -42.959688 
L 381.777761 -42.959688 
L 385.726145 -42.959688 
L 389.674528 -42.959688 
L 393.622911 -42.959688 
L 397.571294 -42.959688 
L 401.519678 -42.959688 
L 405.468061 -42.959688 
L 409.416444 -42.959688 
L 413.364828 -42.959688 
L 417.313211 -42.959688 
L 421.261594 -42.959688 
L 425.209978 -42.959688 
L 429.158361 -42.959688 
L 433.106744 -42.959688 
L 437.055127 -42.959688 
L 441.003511 -42.959688 
L 444.951894 -42.959688 
L 448.900277 -42.959688 
L 452.848661 -42.959688 
L 456.797044 -42.959688 
L 460.745427 -42.959688 
L 464.693811 -42.959688 
L 468.642194 -42.959688 
L 472.590577 -42.959688 
L 476.53896 -42.959688 
L 480.487344 -42.959688 
L 484.435727 -42.959688 
L 488.38411 -42.959688 
L 492.332494 -42.959688 
L 496.280877 -42.959688 
L 500.22926 -42.959688 
L 504.177644 -42.959688 
L 508.126027 -42.959688 
L 512.07441 -42.959688 
L 516.022793 -42.959688 
L 519.971177 -42.959688 
L 523.91956 -42.959688 
L 527.867943 -42.959688 
L 531.816327 -42.959688 
L 535.76471 -42.959688 
L 539.713093 -42.959688 
L 543.661477 -42.959688 
L 547.60986 -42.959688 
L 551.558243 -42.959688 
L 555.506626 -42.959688 
L 559.45501 -42.959688 
L 563.403393 -42.959688 
L 567.351776 -42.959688 
L 571.30016 -42.959688 
L 575.248543 -42.959688 
L 579.196926 -42.959688 
L 583.14531 -42.959688 
L 587.093693 -42.959688 
L 591.042076 -42.959688 
L 594.990459 -42.959688 
L 598.938843 -42.959688 
L 602.887226 -42.959688 
L 606.835609 -42.959688 
L 610.783993 -42.959688 
L 614.732376 -42.959688 
L 618.680759 -42.959688 
L 622.629143 -42.959688 
L 626.577526 -42.959688 
L 630.525909 -42.959688 
L 634.474292 -42.959688 
L 638.422676 -42.959688 
L 642.371059 -42.959688 
L 646.319442 -42.959688 
L 650.267826 -42.959688 
L 654.216209 -42.959688 
L 658.164592 -42.959688 
L 662.112976 -42.959688 
L 666.061359 -42.959688 
L 670.009742 -42.959688 
L 673.958125 -42.959688 
L 677.906509 -42.959688 
L 681.854892 -42.959688 
L 685.803275 -42.959688 
L 689.751659 -42.959688 
L 693.700042 -42.959688 
L 697.648425 -42.959688 
L 701.596809 -42.959688 
L 705.545192 -42.959688 
L 709.493575 -42.959688 
L 713.441958 -42.959688 
L 717.390342 -42.959688 
L 721.338725 -42.959688 
L 725.287108 -42.959688 
L 729.235492 -42.959688 
L 733.183875 -42.959688 
L 737.132258 -42.959688 
L 741.080642 -42.959688 
L 745.029025 -42.959688 
L 748.977408 -42.959688 
L 752.925791 -42.959688 
L 756.874175 -42.959688 
L 760.822558 -42.959688 
L 764.770941 -42.959688 
L 768.719325 -42.959688 
L 772.667708 -42.959688 
L 776.616091 -42.959688 
L 780.564475 -42.959688 
L 784.512858 -42.959688 
L 788.461241 -42.959688 
L 792.409624 -42.959688 
L 796.358008 -42.959688 
L 800.306391 -42.959688 
L 804.254774 -42.959688 
L 808.203158 -42.959688 
L 812.151541 -42.959688 
L 816.099924 -42.959688 
L 820.048308 -42.959688 
L 823.996691 -42.959688 
L 827.945074 -42.959688 
L 831.893457 -42.959688 
L 835.841841 -42.959688 
L 839.790224 -42.959688 
L 843.738607 -42.959688 
L 847.686991 -42.959688 
L 851.635374 -42.959688 
L 855.583757 -42.959688 
L 859.532141 -42.959688 
L 863.480524 -42.959688 
L 867.428907 -42.959688 
L 871.37729 -42.959688 
L 875.325674 -42.959688 
L 879.274057 -42.959688 
L 883.22244 -42.959688 
L 887.170824 -42.959688 
L 891.119207 -42.959688 
L 895.06759 -42.959688 
L 899.015974 -42.959688 
L 902.964357 -42.959688 
L 906.91274 -42.959688 
L 910.861124 -42.959688 
L 914.809507 -42.959688 
L 918.75789 -42.959688 
L 922.706273 -42.959688 
L 926.654657 -42.959688 
L 930.60304 -42.959688 
L 930.60304 -42.983922 
L 930.60304 -42.983922 
L 926.654657 -42.99666 
L 922.706273 -43.01493 
L 918.75789 -43.04053 
L 914.809507 -43.075555 
L 910.861124 -43.122335 
L 906.91274 -43.183299 
L 902.964357 -43.260782 
L 899.015974 -43.356762 
L 895.06759 -43.472553 
L 891.119207 -43.608465 
L 887.170824 -43.763491 
L 883.22244 -43.935048 
L 879.274057 -44.118845 
L 875.325674 -44.308901 
L 871.37729 -44.497774 
L 867.428907 -44.676971 
L 863.480524 -44.837554 
L 859.532141 -44.970859 
L 855.583757 -45.069261 
L 851.635374 -45.126902 
L 847.686991 -45.14026 
L 843.738607 -45.10851 
L 839.790224 -45.033608 
L 835.841841 -44.920089 
L 831.893457 -44.774615 
L 827.945074 -44.605329 
L 823.996691 -44.421099 
L 820.048308 -44.230763 
L 816.099924 -44.042446 
L 812.151541 -43.863032 
L 808.203158 -43.697823 
L 804.254774 -43.550406 
L 800.306391 -43.422694 
L 796.358008 -43.315118 
L 792.409624 -43.226917 
L 788.461241 -43.156465 
L 784.512858 -43.101603 
L 780.564475 -43.059931 
L 776.616091 -43.029041 
L 772.667708 -43.006688 
L 768.719325 -42.990899 
L 764.770941 -42.980017 
L 760.822558 -42.972712 
L 756.874175 -42.967965 
L 752.925791 -42.965031 
L 748.977408 -42.963403 
L 745.029025 -42.962779 
L 741.080642 -42.963039 
L 737.132258 -42.964237 
L 733.183875 -42.966601 
L 729.235492 -42.970563 
L 725.287108 -42.97678 
L 721.338725 -42.986187 
L 717.390342 -43.000031 
L 713.441958 -43.019918 
L 709.493575 -43.047827 
L 705.545192 -43.086108 
L 701.596809 -43.137426 
L 697.648425 -43.204659 
L 693.700042 -43.290732 
L 689.751659 -43.398397 
L 685.803275 -43.529957 
L 681.854892 -43.686975 
L 677.906509 -43.869976 
L 673.958125 -44.078201 
L 670.009742 -44.309438 
L 666.061359 -44.559972 
L 662.112976 -44.824674 
L 658.164592 -45.09723 
L 654.216209 -45.370505 
L 650.267826 -45.637009 
L 646.319442 -45.889425 
L 642.371059 -46.121138 
L 638.422676 -46.326748 
L 634.474292 -46.502512 
L 630.525909 -46.646692 
L 626.577526 -46.759819 
L 622.629143 -46.84484 
L 618.680759 -46.907163 
L 614.732376 -46.954584 
L 610.783993 -46.997075 
L 606.835609 -47.046436 
L 602.887226 -47.115773 
L 598.938843 -47.218851 
L 594.990459 -47.369321 
L 591.042076 -47.579918 
L 587.093693 -47.861713 
L 583.14531 -48.223549 
L 579.196926 -48.67175 
L 575.248543 -49.210205 
L 571.30016 -49.840866 
L 567.351776 -50.564606 
L 563.403393 -51.382368 
L 559.45501 -52.296405 
L 555.506626 -53.311426 
L 551.558243 -54.435399 
L 547.60986 -55.679807 
L 543.661477 -57.059199 
L 539.713093 -58.589969 
L 535.76471 -60.288403 
L 531.816327 -62.168166 
L 527.867943 -64.237506 
L 523.91956 -66.496558 
L 519.971177 -68.935178 
L 516.022793 -71.531736 
L 512.07441 -74.253238 
L 508.126027 -77.057007 
L 504.177644 -79.893962 
L 500.22926 -82.713305 
L 496.280877 -85.468184 
L 492.332494 -88.121669 
L 488.38411 -90.652278 
L 484.435727 -93.058193 
L 480.487344 -95.359465 
L 476.53896 -97.597689 
L 472.590577 -99.832975 
L 468.642194 -102.138445 
L 464.693811 -104.592872 
L 460.745427 -107.272368 
L 456.797044 -110.242218 
L 452.848661 -113.549941 
L 448.900277 -117.22047 
L 444.951894 -121.253976 
L 441.003511 -125.626473 
L 437.055127 -130.292876 
L 433.106744 -135.191842 
L 429.158361 -140.251527 
L 425.209978 -145.395348 
L 421.261594 -150.546985 
L 417.313211 -155.634115 
L 413.364828 -160.590671 
L 409.416444 -165.357729 
L 405.468061 -169.883316 
L 401.519678 -174.121538 
L 397.571294 -178.031409 
L 393.622911 -181.575646 
L 389.674528 -184.71958 
L 385.726145 -187.43019 
L 381.777761 -189.675229 
L 377.829378 -191.42241 
L 373.880995 -192.6387 
L 369.932611 -193.289887 
L 365.984228 -193.34064 
L 362.035845 -192.755345 
L 358.087461 -191.499906 
L 354.139078 -189.544573 
L 350.190695 -186.867639 
L 346.242312 -183.459624 
L 342.293928 -179.327396 
L 338.345545 -174.497564 
L 334.397162 -169.018534 
L 330.448778 -162.960762 
L 326.500395 -156.414975 
L 322.552012 -149.488485 
L 318.603628 -142.299934 
L 314.655245 -134.973106 
L 310.706862 -127.63049 
L 306.758479 -120.38731 
L 302.810095 -113.346576 
L 298.861712 -106.595531 
L 294.913329 -100.20362 
L 290.964945 -94.221913 
L 287.016562 -88.683725 
L 283.068179 -83.606133 
L 279.119795 -78.992025 
L 275.171412 -74.832417 
L 271.223029 -71.108795 
L 267.274646 -67.795362 
L 263.326262 -64.861115 
L 259.377879 -62.271729 
L 255.429496 -59.991247 
L 251.481112 -57.983578 
L 247.532729 -56.213787 
L 243.584346 -54.649181 
L 239.635962 -53.260143 
L 235.687579 -52.020722 
L 231.739196 -50.908952 
L 227.790813 -49.906916 
L 223.842429 -49.000565 
L 219.894046 -48.179333 
L 215.945663 -47.4356 
L 211.997279 -46.764043 
L 208.048896 -46.160957 
L 204.100513 -45.62359 
L 200.152129 -45.149556 
L 196.203746 -44.736358 
L 192.255363 -44.381062 
L 188.306979 -44.080113 
L 184.358596 -43.829299 
L 180.410213 -43.623833 
L 176.46183 -43.458519 
L 172.513446 -43.327972 
L 168.565063 -43.226841 
L 164.61668 -43.150023 
L 160.668296 -43.092828 
L 156.719913 -43.0511 
L 152.77153 -43.021274 
L 148.823146 -43.000394 
L 144.874763 -42.986077 
z
" id="m5f4dffb83e" style="stroke:#dd8452;"/>
    </defs>
    <g clip-path="url(#pb99124df7c)">
     <use style="fill:#dd8452;fill-opacity:0.25;stroke:#dd8452;" x="0" xlink:href="#m5f4dffb83e" y="223.177812"/>
    </g>
   </g>
   <g id="patch_3">
    <path d="M 48.190938 180.218125 
L 48.190938 22.318125 
" style="fill:none;stroke:#ffffff;stroke-linecap:square;stroke-linejoin:miter;stroke-width:1.25;"/>
   </g>
   <g id="patch_4">
    <path d="M 48.190938 180.218125 
L 848.495435 180.218125 
" style="fill:none;stroke:#ffffff;stroke-linecap:square;stroke-linejoin:miter;stroke-width:1.25;"/>
   </g>
   <g id="text_13">
    <!-- Output: chol -->
    <g style="fill:#262626;" transform="translate(411.133811 16.318125)scale(0.12 -0.12)">
     <defs>
      <path d="M 39.40625 66.21875 
Q 28.65625 66.21875 22.328125 58.203125 
Q 16.015625 50.203125 16.015625 36.375 
Q 16.015625 22.609375 22.328125 14.59375 
Q 28.65625 6.59375 39.40625 6.59375 
Q 50.140625 6.59375 56.421875 14.59375 
Q 62.703125 22.609375 62.703125 36.375 
Q 62.703125 50.203125 56.421875 58.203125 
Q 50.140625 66.21875 39.40625 66.21875 
z
M 39.40625 74.21875 
Q 54.734375 74.21875 63.90625 63.9375 
Q 73.09375 53.65625 73.09375 36.375 
Q 73.09375 19.140625 63.90625 8.859375 
Q 54.734375 -1.421875 39.40625 -1.421875 
Q 24.03125 -1.421875 14.8125 8.828125 
Q 5.609375 19.09375 5.609375 36.375 
Q 5.609375 53.65625 14.8125 63.9375 
Q 24.03125 74.21875 39.40625 74.21875 
z
" id="DejaVuSans-79"/>
      <path d="M 8.5 21.578125 
L 8.5 54.6875 
L 17.484375 54.6875 
L 17.484375 21.921875 
Q 17.484375 14.15625 20.5 10.265625 
Q 23.53125 6.390625 29.59375 6.390625 
Q 36.859375 6.390625 41.078125 11.03125 
Q 45.3125 15.671875 45.3125 23.6875 
L 45.3125 54.6875 
L 54.296875 54.6875 
L 54.296875 0 
L 45.3125 0 
L 45.3125 8.40625 
Q 42.046875 3.421875 37.71875 1 
Q 33.40625 -1.421875 27.6875 -1.421875 
Q 18.265625 -1.421875 13.375 4.4375 
Q 8.5 10.296875 8.5 21.578125 
z
M 31.109375 56 
z
" id="DejaVuSans-117"/>
      <path d="M 18.3125 70.21875 
L 18.3125 54.6875 
L 36.8125 54.6875 
L 36.8125 47.703125 
L 18.3125 47.703125 
L 18.3125 18.015625 
Q 18.3125 11.328125 20.140625 9.421875 
Q 21.96875 7.515625 27.59375 7.515625 
L 36.8125 7.515625 
L 36.8125 0 
L 27.59375 0 
Q 17.1875 0 13.234375 3.875 
Q 9.28125 7.765625 9.28125 18.015625 
L 9.28125 47.703125 
L 2.6875 47.703125 
L 2.6875 54.6875 
L 9.28125 54.6875 
L 9.28125 70.21875 
z
" id="DejaVuSans-116"/>
      <path d="M 18.109375 8.203125 
L 18.109375 -20.796875 
L 9.078125 -20.796875 
L 9.078125 54.6875 
L 18.109375 54.6875 
L 18.109375 46.390625 
Q 20.953125 51.265625 25.265625 53.625 
Q 29.59375 56 35.59375 56 
Q 45.5625 56 51.78125 48.09375 
Q 58.015625 40.1875 58.015625 27.296875 
Q 58.015625 14.40625 51.78125 6.484375 
Q 45.5625 -1.421875 35.59375 -1.421875 
Q 29.59375 -1.421875 25.265625 0.953125 
Q 20.953125 3.328125 18.109375 8.203125 
z
M 48.6875 27.296875 
Q 48.6875 37.203125 44.609375 42.84375 
Q 40.53125 48.484375 33.40625 48.484375 
Q 26.265625 48.484375 22.1875 42.84375 
Q 18.109375 37.203125 18.109375 27.296875 
Q 18.109375 17.390625 22.1875 11.75 
Q 26.265625 6.109375 33.40625 6.109375 
Q 40.53125 6.109375 44.609375 11.75 
Q 48.6875 17.390625 48.6875 27.296875 
z
" id="DejaVuSans-112"/>
      <path d="M 11.71875 12.40625 
L 22.015625 12.40625 
L 22.015625 0 
L 11.71875 0 
z
M 11.71875 51.703125 
L 22.015625 51.703125 
L 22.015625 39.3125 
L 11.71875 39.3125 
z
" id="DejaVuSans-58"/>
      <path id="DejaVuSans-32"/>
     </defs>
     <use xlink:href="#DejaVuSans-79"/>
     <use x="78.710938" xlink:href="#DejaVuSans-117"/>
     <use x="142.089844" xlink:href="#DejaVuSans-116"/>
     <use x="181.298828" xlink:href="#DejaVuSans-112"/>
     <use x="244.775391" xlink:href="#DejaVuSans-117"/>
     <use x="308.154297" xlink:href="#DejaVuSans-116"/>
     <use x="347.363281" xlink:href="#DejaVuSans-58"/>
     <use x="381.054688" xlink:href="#DejaVuSans-32"/>
     <use x="412.841797" xlink:href="#DejaVuSans-99"/>
     <use x="467.822266" xlink:href="#DejaVuSans-104"/>
     <use x="531.201172" xlink:href="#DejaVuSans-111"/>
     <use x="592.382812" xlink:href="#DejaVuSans-108"/>
    </g>
   </g>
  </g>
  <g id="legend_1">
   <g id="text_14">
    <!-- output -->
    <g style="fill:#262626;" transform="translate(858.26531 98.754219)scale(0.12 -0.12)">
     <use xlink:href="#DejaVuSans-111"/>
     <use x="61.181641" xlink:href="#DejaVuSans-117"/>
     <use x="124.560547" xlink:href="#DejaVuSans-116"/>
     <use x="163.769531" xlink:href="#DejaVuSans-112"/>
     <use x="227.246094" xlink:href="#DejaVuSans-117"/>
     <use x="290.625" xlink:href="#DejaVuSans-116"/>
    </g>
   </g>
   <g id="patch_5">
    <path d="M 859.155623 115.108125 
L 881.155623 115.108125 
L 881.155623 107.408125 
L 859.155623 107.408125 
z
" style="fill:#4c72b0;fill-opacity:0.25;stroke:#4c72b0;stroke-linejoin:miter;"/>
   </g>
   <g id="text_15">
    <!-- 0 -->
    <g style="fill:#262626;" transform="translate(889.955623 115.108125)scale(0.11 -0.11)">
     <use xlink:href="#DejaVuSans-48"/>
    </g>
   </g>
   <g id="patch_6">
    <path d="M 859.155623 131.254063 
L 881.155623 131.254063 
L 881.155623 123.554063 
L 859.155623 123.554063 
z
" style="fill:#dd8452;fill-opacity:0.25;stroke:#dd8452;stroke-linejoin:miter;"/>
   </g>
   <g id="text_16">
    <!-- 1 -->
    <g style="fill:#262626;" transform="translate(889.955623 131.254063)scale(0.11 -0.11)">
     <use xlink:href="#DejaVuSans-49"/>
    </g>
   </g>
  </g>
 </g>
 <defs>
  <clipPath id="pb99124df7c">
   <rect height="157.9" width="800.304498" x="48.190938" y="22.318125"/>
  </clipPath>
 </defs>
</svg>
