<?xml version="1.0" encoding="utf-8" standalone="no"?>
<!DOCTYPE svg PUBLIC "-//W3C//DTD SVG 1.1//EN"
  "http://www.w3.org/Graphics/SVG/1.1/DTD/svg11.dtd">
<!-- Created with matplotlib (https://matplotlib.org/) -->
<svg height="223.177812pt" version="1.1" viewBox="0 0 908.53185 223.177812" width="908.53185pt" xmlns="http://www.w3.org/2000/svg" xmlns:xlink="http://www.w3.org/1999/xlink">
 <metadata>
  <rdf:RDF xmlns:cc="http://creativecommons.org/ns#" xmlns:dc="http://purl.org/dc/elements/1.1/" xmlns:rdf="http://www.w3.org/1999/02/22-rdf-syntax-ns#">
   <cc:Work>
    <dc:type rdf:resource="http://purl.org/dc/dcmitype/StillImage"/>
    <dc:date>2021-07-04T23:48:56.751528</dc:date>
    <dc:format>image/svg+xml</dc:format>
    <dc:creator>
     <cc:Agent>
      <dc:title>Matplotlib v3.3.4, https://matplotlib.org/</dc:title>
     </cc:Agent>
    </dc:creator>
   </cc:Work>
  </rdf:RDF>
 </metadata>
 <defs>
  <style type="text/css">*{stroke-linecap:butt;stroke-linejoin:round;}</style>
 </defs>
 <g id="figure_1">
  <g id="patch_1">
   <path d="M 0 223.177812 
L 908.53185 223.177812 
L 908.53185 0 
L 0 0 
z
" style="fill:none;"/>
  </g>
  <g id="axes_1">
   <g id="patch_2">
    <path d="M 34.193438 180.218125 
L 849.2826 180.218125 
L 849.2826 22.318125 
L 34.193438 22.318125 
z
" style="fill:#eaeaf2;"/>
   </g>
   <g id="matplotlib.axis_1">
    <g id="xtick_1">
     <g id="line2d_1">
      <path clip-path="url(#pbfef6f0fd7)" d="M 34.193438 180.218125 
L 34.193438 22.318125 
" style="fill:none;stroke:#ffffff;stroke-linecap:round;"/>
     </g>
     <g id="text_1">
      <!-- 0.0 -->
      <g style="fill:#262626;" transform="translate(25.446719 198.076406)scale(0.11 -0.11)">
       <defs>
        <path d="M 31.78125 66.40625 
Q 24.171875 66.40625 20.328125 58.90625 
Q 16.5 51.421875 16.5 36.375 
Q 16.5 21.390625 20.328125 13.890625 
Q 24.171875 6.390625 31.78125 6.390625 
Q 39.453125 6.390625 43.28125 13.890625 
Q 47.125 21.390625 47.125 36.375 
Q 47.125 51.421875 43.28125 58.90625 
Q 39.453125 66.40625 31.78125 66.40625 
z
M 31.78125 74.21875 
Q 44.046875 74.21875 50.515625 64.515625 
Q 56.984375 54.828125 56.984375 36.375 
Q 56.984375 17.96875 50.515625 8.265625 
Q 44.046875 -1.421875 31.78125 -1.421875 
Q 19.53125 -1.421875 13.0625 8.265625 
Q 6.59375 17.96875 6.59375 36.375 
Q 6.59375 54.828125 13.0625 64.515625 
Q 19.53125 74.21875 31.78125 74.21875 
z
" id="DejaVuSans-48"/>
        <path d="M 10.6875 12.40625 
L 21 12.40625 
L 21 0 
L 10.6875 0 
z
" id="DejaVuSans-46"/>
       </defs>
       <use xlink:href="#DejaVuSans-48"/>
       <use x="63.623047" xlink:href="#DejaVuSans-46"/>
       <use x="95.410156" xlink:href="#DejaVuSans-48"/>
      </g>
     </g>
    </g>
    <g id="xtick_2">
     <g id="line2d_2">
      <path clip-path="url(#pbfef6f0fd7)" d="M 197.21127 180.218125 
L 197.21127 22.318125 
" style="fill:none;stroke:#ffffff;stroke-linecap:round;"/>
     </g>
     <g id="text_2">
      <!-- 0.2 -->
      <g style="fill:#262626;" transform="translate(188.464551 198.076406)scale(0.11 -0.11)">
       <defs>
        <path d="M 19.1875 8.296875 
L 53.609375 8.296875 
L 53.609375 0 
L 7.328125 0 
L 7.328125 8.296875 
Q 12.9375 14.109375 22.625 23.890625 
Q 32.328125 33.6875 34.8125 36.53125 
Q 39.546875 41.84375 41.421875 45.53125 
Q 43.3125 49.21875 43.3125 52.78125 
Q 43.3125 58.59375 39.234375 62.25 
Q 35.15625 65.921875 28.609375 65.921875 
Q 23.96875 65.921875 18.8125 64.3125 
Q 13.671875 62.703125 7.8125 59.421875 
L 7.8125 69.390625 
Q 13.765625 71.78125 18.9375 73 
Q 24.125 74.21875 28.421875 74.21875 
Q 39.75 74.21875 46.484375 68.546875 
Q 53.21875 62.890625 53.21875 53.421875 
Q 53.21875 48.921875 51.53125 44.890625 
Q 49.859375 40.875 45.40625 35.40625 
Q 44.1875 33.984375 37.640625 27.21875 
Q 31.109375 20.453125 19.1875 8.296875 
z
" id="DejaVuSans-50"/>
       </defs>
       <use xlink:href="#DejaVuSans-48"/>
       <use x="63.623047" xlink:href="#DejaVuSans-46"/>
       <use x="95.410156" xlink:href="#DejaVuSans-50"/>
      </g>
     </g>
    </g>
    <g id="xtick_3">
     <g id="line2d_3">
      <path clip-path="url(#pbfef6f0fd7)" d="M 360.229102 180.218125 
L 360.229102 22.318125 
" style="fill:none;stroke:#ffffff;stroke-linecap:round;"/>
     </g>
     <g id="text_3">
      <!-- 0.4 -->
      <g style="fill:#262626;" transform="translate(351.482384 198.076406)scale(0.11 -0.11)">
       <defs>
        <path d="M 37.796875 64.3125 
L 12.890625 25.390625 
L 37.796875 25.390625 
z
M 35.203125 72.90625 
L 47.609375 72.90625 
L 47.609375 25.390625 
L 58.015625 25.390625 
L 58.015625 17.1875 
L 47.609375 17.1875 
L 47.609375 0 
L 37.796875 0 
L 37.796875 17.1875 
L 4.890625 17.1875 
L 4.890625 26.703125 
z
" id="DejaVuSans-52"/>
       </defs>
       <use xlink:href="#DejaVuSans-48"/>
       <use x="63.623047" xlink:href="#DejaVuSans-46"/>
       <use x="95.410156" xlink:href="#DejaVuSans-52"/>
      </g>
     </g>
    </g>
    <g id="xtick_4">
     <g id="line2d_4">
      <path clip-path="url(#pbfef6f0fd7)" d="M 523.246935 180.218125 
L 523.246935 22.318125 
" style="fill:none;stroke:#ffffff;stroke-linecap:round;"/>
     </g>
     <g id="text_4">
      <!-- 0.6 -->
      <g style="fill:#262626;" transform="translate(514.500216 198.076406)scale(0.11 -0.11)">
       <defs>
        <path d="M 33.015625 40.375 
Q 26.375 40.375 22.484375 35.828125 
Q 18.609375 31.296875 18.609375 23.390625 
Q 18.609375 15.53125 22.484375 10.953125 
Q 26.375 6.390625 33.015625 6.390625 
Q 39.65625 6.390625 43.53125 10.953125 
Q 47.40625 15.53125 47.40625 23.390625 
Q 47.40625 31.296875 43.53125 35.828125 
Q 39.65625 40.375 33.015625 40.375 
z
M 52.59375 71.296875 
L 52.59375 62.3125 
Q 48.875 64.0625 45.09375 64.984375 
Q 41.3125 65.921875 37.59375 65.921875 
Q 27.828125 65.921875 22.671875 59.328125 
Q 17.53125 52.734375 16.796875 39.40625 
Q 19.671875 43.65625 24.015625 45.921875 
Q 28.375 48.1875 33.59375 48.1875 
Q 44.578125 48.1875 50.953125 41.515625 
Q 57.328125 34.859375 57.328125 23.390625 
Q 57.328125 12.15625 50.6875 5.359375 
Q 44.046875 -1.421875 33.015625 -1.421875 
Q 20.359375 -1.421875 13.671875 8.265625 
Q 6.984375 17.96875 6.984375 36.375 
Q 6.984375 53.65625 15.1875 63.9375 
Q 23.390625 74.21875 37.203125 74.21875 
Q 40.921875 74.21875 44.703125 73.484375 
Q 48.484375 72.75 52.59375 71.296875 
z
" id="DejaVuSans-54"/>
       </defs>
       <use xlink:href="#DejaVuSans-48"/>
       <use x="63.623047" xlink:href="#DejaVuSans-46"/>
       <use x="95.410156" xlink:href="#DejaVuSans-54"/>
      </g>
     </g>
    </g>
    <g id="xtick_5">
     <g id="line2d_5">
      <path clip-path="url(#pbfef6f0fd7)" d="M 686.264767 180.218125 
L 686.264767 22.318125 
" style="fill:none;stroke:#ffffff;stroke-linecap:round;"/>
     </g>
     <g id="text_5">
      <!-- 0.8 -->
      <g style="fill:#262626;" transform="translate(677.518048 198.076406)scale(0.11 -0.11)">
       <defs>
        <path d="M 31.78125 34.625 
Q 24.75 34.625 20.71875 30.859375 
Q 16.703125 27.09375 16.703125 20.515625 
Q 16.703125 13.921875 20.71875 10.15625 
Q 24.75 6.390625 31.78125 6.390625 
Q 38.8125 6.390625 42.859375 10.171875 
Q 46.921875 13.96875 46.921875 20.515625 
Q 46.921875 27.09375 42.890625 30.859375 
Q 38.875 34.625 31.78125 34.625 
z
M 21.921875 38.8125 
Q 15.578125 40.375 12.03125 44.71875 
Q 8.5 49.078125 8.5 55.328125 
Q 8.5 64.0625 14.71875 69.140625 
Q 20.953125 74.21875 31.78125 74.21875 
Q 42.671875 74.21875 48.875 69.140625 
Q 55.078125 64.0625 55.078125 55.328125 
Q 55.078125 49.078125 51.53125 44.71875 
Q 48 40.375 41.703125 38.8125 
Q 48.828125 37.15625 52.796875 32.3125 
Q 56.78125 27.484375 56.78125 20.515625 
Q 56.78125 9.90625 50.3125 4.234375 
Q 43.84375 -1.421875 31.78125 -1.421875 
Q 19.734375 -1.421875 13.25 4.234375 
Q 6.78125 9.90625 6.78125 20.515625 
Q 6.78125 27.484375 10.78125 32.3125 
Q 14.796875 37.15625 21.921875 38.8125 
z
M 18.3125 54.390625 
Q 18.3125 48.734375 21.84375 45.5625 
Q 25.390625 42.390625 31.78125 42.390625 
Q 38.140625 42.390625 41.71875 45.5625 
Q 45.3125 48.734375 45.3125 54.390625 
Q 45.3125 60.0625 41.71875 63.234375 
Q 38.140625 66.40625 31.78125 66.40625 
Q 25.390625 66.40625 21.84375 63.234375 
Q 18.3125 60.0625 18.3125 54.390625 
z
" id="DejaVuSans-56"/>
       </defs>
       <use xlink:href="#DejaVuSans-48"/>
       <use x="63.623047" xlink:href="#DejaVuSans-46"/>
       <use x="95.410156" xlink:href="#DejaVuSans-56"/>
      </g>
     </g>
    </g>
    <g id="xtick_6">
     <g id="line2d_6">
      <path clip-path="url(#pbfef6f0fd7)" d="M 849.2826 180.218125 
L 849.2826 22.318125 
" style="fill:none;stroke:#ffffff;stroke-linecap:round;"/>
     </g>
     <g id="text_6">
      <!-- 1.0 -->
      <g style="fill:#262626;" transform="translate(840.535881 198.076406)scale(0.11 -0.11)">
       <defs>
        <path d="M 12.40625 8.296875 
L 28.515625 8.296875 
L 28.515625 63.921875 
L 10.984375 60.40625 
L 10.984375 69.390625 
L 28.421875 72.90625 
L 38.28125 72.90625 
L 38.28125 8.296875 
L 54.390625 8.296875 
L 54.390625 0 
L 12.40625 0 
z
" id="DejaVuSans-49"/>
       </defs>
       <use xlink:href="#DejaVuSans-49"/>
       <use x="63.623047" xlink:href="#DejaVuSans-46"/>
       <use x="95.410156" xlink:href="#DejaVuSans-48"/>
      </g>
     </g>
    </g>
    <g id="text_7">
     <!-- exng -->
     <g style="fill:#262626;" transform="translate(426.988331 213.482187)scale(0.12 -0.12)">
      <defs>
       <path d="M 56.203125 29.59375 
L 56.203125 25.203125 
L 14.890625 25.203125 
Q 15.484375 15.921875 20.484375 11.0625 
Q 25.484375 6.203125 34.421875 6.203125 
Q 39.59375 6.203125 44.453125 7.46875 
Q 49.3125 8.734375 54.109375 11.28125 
L 54.109375 2.78125 
Q 49.265625 0.734375 44.1875 -0.34375 
Q 39.109375 -1.421875 33.890625 -1.421875 
Q 20.796875 -1.421875 13.15625 6.1875 
Q 5.515625 13.8125 5.515625 26.8125 
Q 5.515625 40.234375 12.765625 48.109375 
Q 20.015625 56 32.328125 56 
Q 43.359375 56 49.78125 48.890625 
Q 56.203125 41.796875 56.203125 29.59375 
z
M 47.21875 32.234375 
Q 47.125 39.59375 43.09375 43.984375 
Q 39.0625 48.390625 32.421875 48.390625 
Q 24.90625 48.390625 20.390625 44.140625 
Q 15.875 39.890625 15.1875 32.171875 
z
" id="DejaVuSans-101"/>
       <path d="M 54.890625 54.6875 
L 35.109375 28.078125 
L 55.90625 0 
L 45.3125 0 
L 29.390625 21.484375 
L 13.484375 0 
L 2.875 0 
L 24.125 28.609375 
L 4.6875 54.6875 
L 15.28125 54.6875 
L 29.78125 35.203125 
L 44.28125 54.6875 
z
" id="DejaVuSans-120"/>
       <path d="M 54.890625 33.015625 
L 54.890625 0 
L 45.90625 0 
L 45.90625 32.71875 
Q 45.90625 40.484375 42.875 44.328125 
Q 39.84375 48.1875 33.796875 48.1875 
Q 26.515625 48.1875 22.3125 43.546875 
Q 18.109375 38.921875 18.109375 30.90625 
L 18.109375 0 
L 9.078125 0 
L 9.078125 54.6875 
L 18.109375 54.6875 
L 18.109375 46.1875 
Q 21.34375 51.125 25.703125 53.5625 
Q 30.078125 56 35.796875 56 
Q 45.21875 56 50.046875 50.171875 
Q 54.890625 44.34375 54.890625 33.015625 
z
" id="DejaVuSans-110"/>
       <path d="M 45.40625 27.984375 
Q 45.40625 37.75 41.375 43.109375 
Q 37.359375 48.484375 30.078125 48.484375 
Q 22.859375 48.484375 18.828125 43.109375 
Q 14.796875 37.75 14.796875 27.984375 
Q 14.796875 18.265625 18.828125 12.890625 
Q 22.859375 7.515625 30.078125 7.515625 
Q 37.359375 7.515625 41.375 12.890625 
Q 45.40625 18.265625 45.40625 27.984375 
z
M 54.390625 6.78125 
Q 54.390625 -7.171875 48.1875 -13.984375 
Q 42 -20.796875 29.203125 -20.796875 
Q 24.46875 -20.796875 20.265625 -20.09375 
Q 16.0625 -19.390625 12.109375 -17.921875 
L 12.109375 -9.1875 
Q 16.0625 -11.328125 19.921875 -12.34375 
Q 23.78125 -13.375 27.78125 -13.375 
Q 36.625 -13.375 41.015625 -8.765625 
Q 45.40625 -4.15625 45.40625 5.171875 
L 45.40625 9.625 
Q 42.625 4.78125 38.28125 2.390625 
Q 33.9375 0 27.875 0 
Q 17.828125 0 11.671875 7.65625 
Q 5.515625 15.328125 5.515625 27.984375 
Q 5.515625 40.671875 11.671875 48.328125 
Q 17.828125 56 27.875 56 
Q 33.9375 56 38.28125 53.609375 
Q 42.625 51.21875 45.40625 46.390625 
L 45.40625 54.6875 
L 54.390625 54.6875 
z
" id="DejaVuSans-103"/>
      </defs>
      <use xlink:href="#DejaVuSans-101"/>
      <use x="59.773438" xlink:href="#DejaVuSans-120"/>
      <use x="118.953125" xlink:href="#DejaVuSans-110"/>
      <use x="182.332031" xlink:href="#DejaVuSans-103"/>
     </g>
    </g>
   </g>
   <g id="matplotlib.axis_2">
    <g id="ytick_1">
     <g id="line2d_7">
      <path clip-path="url(#pbfef6f0fd7)" d="M 34.193438 180.218125 
L 849.2826 180.218125 
" style="fill:none;stroke:#ffffff;stroke-linecap:round;"/>
     </g>
     <g id="text_8">
      <!-- 0.0 -->
      <g style="fill:#262626;" transform="translate(7.2 184.397266)scale(0.11 -0.11)">
       <use xlink:href="#DejaVuSans-48"/>
       <use x="63.623047" xlink:href="#DejaVuSans-46"/>
       <use x="95.410156" xlink:href="#DejaVuSans-48"/>
      </g>
     </g>
    </g>
    <g id="ytick_2">
     <g id="line2d_8">
      <path clip-path="url(#pbfef6f0fd7)" d="M 34.193438 152.807778 
L 849.2826 152.807778 
" style="fill:none;stroke:#ffffff;stroke-linecap:round;"/>
     </g>
     <g id="text_9">
      <!-- 0.5 -->
      <g style="fill:#262626;" transform="translate(7.2 156.986919)scale(0.11 -0.11)">
       <defs>
        <path d="M 10.796875 72.90625 
L 49.515625 72.90625 
L 49.515625 64.59375 
L 19.828125 64.59375 
L 19.828125 46.734375 
Q 21.96875 47.46875 24.109375 47.828125 
Q 26.265625 48.1875 28.421875 48.1875 
Q 40.625 48.1875 47.75 41.5 
Q 54.890625 34.8125 54.890625 23.390625 
Q 54.890625 11.625 47.5625 5.09375 
Q 40.234375 -1.421875 26.90625 -1.421875 
Q 22.3125 -1.421875 17.546875 -0.640625 
Q 12.796875 0.140625 7.71875 1.703125 
L 7.71875 11.625 
Q 12.109375 9.234375 16.796875 8.0625 
Q 21.484375 6.890625 26.703125 6.890625 
Q 35.15625 6.890625 40.078125 11.328125 
Q 45.015625 15.765625 45.015625 23.390625 
Q 45.015625 31 40.078125 35.4375 
Q 35.15625 39.890625 26.703125 39.890625 
Q 22.75 39.890625 18.8125 39.015625 
Q 14.890625 38.140625 10.796875 36.28125 
z
" id="DejaVuSans-53"/>
       </defs>
       <use xlink:href="#DejaVuSans-48"/>
       <use x="63.623047" xlink:href="#DejaVuSans-46"/>
       <use x="95.410156" xlink:href="#DejaVuSans-53"/>
      </g>
     </g>
    </g>
    <g id="ytick_3">
     <g id="line2d_9">
      <path clip-path="url(#pbfef6f0fd7)" d="M 34.193438 125.397432 
L 849.2826 125.397432 
" style="fill:none;stroke:#ffffff;stroke-linecap:round;"/>
     </g>
     <g id="text_10">
      <!-- 1.0 -->
      <g style="fill:#262626;" transform="translate(7.2 129.576572)scale(0.11 -0.11)">
       <use xlink:href="#DejaVuSans-49"/>
       <use x="63.623047" xlink:href="#DejaVuSans-46"/>
       <use x="95.410156" xlink:href="#DejaVuSans-48"/>
      </g>
     </g>
    </g>
    <g id="ytick_4">
     <g id="line2d_10">
      <path clip-path="url(#pbfef6f0fd7)" d="M 34.193438 97.987085 
L 849.2826 97.987085 
" style="fill:none;stroke:#ffffff;stroke-linecap:round;"/>
     </g>
     <g id="text_11">
      <!-- 1.5 -->
      <g style="fill:#262626;" transform="translate(7.2 102.166226)scale(0.11 -0.11)">
       <use xlink:href="#DejaVuSans-49"/>
       <use x="63.623047" xlink:href="#DejaVuSans-46"/>
       <use x="95.410156" xlink:href="#DejaVuSans-53"/>
      </g>
     </g>
    </g>
    <g id="ytick_5">
     <g id="line2d_11">
      <path clip-path="url(#pbfef6f0fd7)" d="M 34.193438 70.576738 
L 849.2826 70.576738 
" style="fill:none;stroke:#ffffff;stroke-linecap:round;"/>
     </g>
     <g id="text_12">
      <!-- 2.0 -->
      <g style="fill:#262626;" transform="translate(7.2 74.755879)scale(0.11 -0.11)">
       <use xlink:href="#DejaVuSans-50"/>
       <use x="63.623047" xlink:href="#DejaVuSans-46"/>
       <use x="95.410156" xlink:href="#DejaVuSans-48"/>
      </g>
     </g>
    </g>
    <g id="ytick_6">
     <g id="line2d_12">
      <path clip-path="url(#pbfef6f0fd7)" d="M 34.193438 43.166392 
L 849.2826 43.166392 
" style="fill:none;stroke:#ffffff;stroke-linecap:round;"/>
     </g>
     <g id="text_13">
      <!-- 2.5 -->
      <g style="fill:#262626;" transform="translate(7.2 47.345532)scale(0.11 -0.11)">
       <use xlink:href="#DejaVuSans-50"/>
       <use x="63.623047" xlink:href="#DejaVuSans-46"/>
       <use x="95.410156" xlink:href="#DejaVuSans-53"/>
      </g>
     </g>
    </g>
   </g>
   <g id="PolyCollection_1">
    <path clip-path="url(#pbfef6f0fd7)" d="M -421.47964 179.632371 
L -421.47964 180.218125 
L -412.804086 180.218125 
L -404.128531 180.218125 
L -395.452977 180.218125 
L -386.777423 180.218125 
L -378.101868 180.218125 
L -369.426314 180.218125 
L -360.75076 180.218125 
L -352.075205 180.218125 
L -343.399651 180.218125 
L -334.724097 180.218125 
L -326.048542 180.218125 
L -317.372988 180.218125 
L -308.697434 180.218125 
L -300.021879 180.218125 
L -291.346325 180.218125 
L -282.67077 180.218125 
L -273.995216 180.218125 
L -265.319662 180.218125 
L -256.644107 180.218125 
L -247.968553 180.218125 
L -239.292999 180.218125 
L -230.617444 180.218125 
L -221.94189 180.218125 
L -213.266336 180.218125 
L -204.590781 180.218125 
L -195.915227 180.218125 
L -187.239672 180.218125 
L -178.564118 180.218125 
L -169.888564 180.218125 
L -161.213009 180.218125 
L -152.537455 180.218125 
L -143.861901 180.218125 
L -135.186346 180.218125 
L -126.510792 180.218125 
L -117.835238 180.218125 
L -109.159683 180.218125 
L -100.484129 180.218125 
L -91.808575 180.218125 
L -83.13302 180.218125 
L -74.457466 180.218125 
L -65.781911 180.218125 
L -57.106357 180.218125 
L -48.430803 180.218125 
L -39.755248 180.218125 
L -31.079694 180.218125 
L -22.40414 180.218125 
L -13.728585 180.218125 
L -5.053031 180.218125 
L 3.622523 180.218125 
L 12.298078 180.218125 
L 20.973632 180.218125 
L 29.649187 180.218125 
L 38.324741 180.218125 
L 47.000295 180.218125 
L 55.67585 180.218125 
L 64.351404 180.218125 
L 73.026958 180.218125 
L 81.702513 180.218125 
L 90.378067 180.218125 
L 99.053621 180.218125 
L 107.729176 180.218125 
L 116.40473 180.218125 
L 125.080284 180.218125 
L 133.755839 180.218125 
L 142.431393 180.218125 
L 151.106948 180.218125 
L 159.782502 180.218125 
L 168.458056 180.218125 
L 177.133611 180.218125 
L 185.809165 180.218125 
L 194.484719 180.218125 
L 203.160274 180.218125 
L 211.835828 180.218125 
L 220.511382 180.218125 
L 229.186937 180.218125 
L 237.862491 180.218125 
L 246.538045 180.218125 
L 255.2136 180.218125 
L 263.889154 180.218125 
L 272.564709 180.218125 
L 281.240263 180.218125 
L 289.915817 180.218125 
L 298.591372 180.218125 
L 307.266926 180.218125 
L 315.94248 180.218125 
L 324.618035 180.218125 
L 333.293589 180.218125 
L 341.969143 180.218125 
L 350.644698 180.218125 
L 359.320252 180.218125 
L 367.995807 180.218125 
L 376.671361 180.218125 
L 385.346915 180.218125 
L 394.02247 180.218125 
L 402.698024 180.218125 
L 411.373578 180.218125 
L 420.049133 180.218125 
L 428.724687 180.218125 
L 437.400241 180.218125 
L 446.075796 180.218125 
L 454.75135 180.218125 
L 463.426904 180.218125 
L 472.102459 180.218125 
L 480.778013 180.218125 
L 489.453568 180.218125 
L 498.129122 180.218125 
L 506.804676 180.218125 
L 515.480231 180.218125 
L 524.155785 180.218125 
L 532.831339 180.218125 
L 541.506894 180.218125 
L 550.182448 180.218125 
L 558.858002 180.218125 
L 567.533557 180.218125 
L 576.209111 180.218125 
L 584.884666 180.218125 
L 593.56022 180.218125 
L 602.235774 180.218125 
L 610.911329 180.218125 
L 619.586883 180.218125 
L 628.262437 180.218125 
L 636.937992 180.218125 
L 645.613546 180.218125 
L 654.2891 180.218125 
L 662.964655 180.218125 
L 671.640209 180.218125 
L 680.315763 180.218125 
L 688.991318 180.218125 
L 697.666872 180.218125 
L 706.342427 180.218125 
L 715.017981 180.218125 
L 723.693535 180.218125 
L 732.36909 180.218125 
L 741.044644 180.218125 
L 749.720198 180.218125 
L 758.395753 180.218125 
L 767.071307 180.218125 
L 775.746861 180.218125 
L 784.422416 180.218125 
L 793.09797 180.218125 
L 801.773525 180.218125 
L 810.449079 180.218125 
L 819.124633 180.218125 
L 827.800188 180.218125 
L 836.475742 180.218125 
L 845.151296 180.218125 
L 853.826851 180.218125 
L 862.502405 180.218125 
L 871.177959 180.218125 
L 879.853514 180.218125 
L 888.529068 180.218125 
L 897.204622 180.218125 
L 905.880177 180.218125 
L 914.555731 180.218125 
L 923.231286 180.218125 
L 931.90684 180.218125 
L 940.582394 180.218125 
L 949.257949 180.218125 
L 957.933503 180.218125 
L 966.609057 180.218125 
L 975.284612 180.218125 
L 983.960166 180.218125 
L 992.63572 180.218125 
L 1001.311275 180.218125 
L 1009.986829 180.218125 
L 1018.662384 180.218125 
L 1027.337938 180.218125 
L 1036.013492 180.218125 
L 1044.689047 180.218125 
L 1053.364601 180.218125 
L 1062.040155 180.218125 
L 1070.71571 180.218125 
L 1079.391264 180.218125 
L 1088.066818 180.218125 
L 1096.742373 180.218125 
L 1105.417927 180.218125 
L 1114.093481 180.218125 
L 1122.769036 180.218125 
L 1131.44459 180.218125 
L 1140.120145 180.218125 
L 1148.795699 180.218125 
L 1157.471253 180.218125 
L 1166.146808 180.218125 
L 1174.822362 180.218125 
L 1183.497916 180.218125 
L 1192.173471 180.218125 
L 1200.849025 180.218125 
L 1209.524579 180.218125 
L 1218.200134 180.218125 
L 1226.875688 180.218125 
L 1235.551243 180.218125 
L 1244.226797 180.218125 
L 1252.902351 180.218125 
L 1261.577906 180.218125 
L 1270.25346 180.218125 
L 1278.929014 180.218125 
L 1287.604569 180.218125 
L 1296.280123 180.218125 
L 1304.955677 180.218125 
L 1304.955677 179.500104 
L 1304.955677 179.500104 
L 1296.280123 179.36729 
L 1287.604569 179.213193 
L 1278.929014 179.035052 
L 1270.25346 178.82987 
L 1261.577906 178.594408 
L 1252.902351 178.325195 
L 1244.226797 178.018533 
L 1235.551243 177.670517 
L 1226.875688 177.277048 
L 1218.200134 176.833867 
L 1209.524579 176.336589 
L 1200.849025 175.780742 
L 1192.173471 175.161818 
L 1183.497916 174.475333 
L 1174.822362 173.716889 
L 1166.146808 172.882249 
L 1157.471253 171.967417 
L 1148.795699 170.968724 
L 1140.120145 169.882917 
L 1131.44459 168.70726 
L 1122.769036 167.439624 
L 1114.093481 166.078593 
L 1105.417927 164.623557 
L 1096.742373 163.074809 
L 1088.066818 161.433631 
L 1079.391264 159.702377 
L 1070.71571 157.884543 
L 1062.040155 155.984823 
L 1053.364601 154.009153 
L 1044.689047 151.964736 
L 1036.013492 149.860045 
L 1027.337938 147.704811 
L 1018.662384 145.509985 
L 1009.986829 143.287672 
L 1001.311275 141.051053 
L 992.63572 138.814272 
L 983.960166 136.592306 
L 975.284612 134.400813 
L 966.609057 132.255957 
L 957.933503 130.174222 
L 949.257949 128.1722 
L 940.582394 126.266383 
L 931.90684 124.472936 
L 923.231286 122.807472 
L 914.555731 121.284824 
L 905.880177 119.91883 
L 897.204622 118.722123 
L 888.529068 117.705935 
L 879.853514 116.879924 
L 871.177959 116.252017 
L 862.502405 115.828289 
L 853.826851 115.612861 
L 845.151296 115.607836 
L 836.475742 115.813261 
L 827.800188 116.227131 
L 819.124633 116.845416 
L 810.449079 117.662133 
L 801.773525 118.669434 
L 793.09797 119.85774 
L 784.422416 121.215885 
L 775.746861 122.731295 
L 767.071307 124.390178 
L 758.395753 126.177734 
L 749.720198 128.078375 
L 741.044644 130.075944 
L 732.36909 132.153946 
L 723.693535 134.295766 
L 715.017981 136.484889 
L 706.342427 138.705102 
L 697.666872 140.940681 
L 688.991318 143.176569 
L 680.315763 145.398523 
L 671.640209 147.593248 
L 662.964655 149.748501 
L 654.2891 151.853176 
L 645.613546 153.897362 
L 636.937992 155.872381 
L 628.262437 157.770795 
L 619.586883 159.586402 
L 610.911329 161.314203 
L 602.235774 162.950355 
L 593.56022 164.492108 
L 584.884666 165.937728 
L 576.209111 167.286408 
L 567.533557 168.538172 
L 558.858002 169.693768 
L 550.182448 170.754564 
L 541.506894 171.72244 
L 532.831339 172.599673 
L 524.155785 173.388837 
L 515.480231 174.092695 
L 506.804676 174.714105 
L 498.129122 175.255929 
L 489.453568 175.720946 
L 480.778013 176.111783 
L 472.102459 176.430846 
L 463.426904 176.680266 
L 454.75135 176.861851 
L 446.075796 176.977059 
L 437.400241 177.026963 
L 428.724687 177.012248 
L 420.049133 176.9332 
L 411.373578 176.789719 
L 402.698024 176.581336 
L 394.02247 176.307239 
L 385.346915 175.966314 
L 376.671361 175.557189 
L 367.995807 175.078294 
L 359.320252 174.527924 
L 350.644698 173.904308 
L 341.969143 173.20569 
L 333.293589 172.430415 
L 324.618035 171.577012 
L 315.94248 170.644292 
L 307.266926 169.631437 
L 298.591372 168.538093 
L 289.915817 167.364467 
L 281.240263 166.111408 
L 272.564709 164.780497 
L 263.889154 163.374117 
L 255.2136 161.895523 
L 246.538045 160.348893 
L 237.862491 158.739374 
L 229.186937 157.073102 
L 220.511382 155.357218 
L 211.835828 153.599856 
L 203.160274 151.810117 
L 194.484719 149.998022 
L 185.809165 148.174445 
L 177.133611 146.351028 
L 168.458056 144.540074 
L 159.782502 142.754423 
L 151.106948 141.007315 
L 142.431393 139.312233 
L 133.755839 137.682738 
L 125.080284 136.132293 
L 116.40473 134.674083 
L 107.729176 133.32083 
L 99.053621 132.08461 
L 90.378067 130.976676 
L 81.702513 130.007289 
L 73.026958 129.185559 
L 64.351404 128.519302 
L 55.67585 128.01492 
L 47.000295 127.677296 
L 38.324741 127.509717 
L 29.649187 127.513821 
L 20.973632 127.689567 
L 12.298078 128.035242 
L 3.622523 128.547483 
L -5.053031 129.221336 
L -13.728585 130.050332 
L -22.40414 131.026593 
L -31.079694 132.140957 
L -39.755248 133.383118 
L -48.430803 134.741786 
L -57.106357 136.204862 
L -65.781911 137.759607 
L -74.457466 139.392835 
L -83.13302 141.091093 
L -91.808575 142.840844 
L -100.484129 144.628641 
L -109.159683 146.441297 
L -117.835238 148.26604 
L -126.510792 150.09065 
L -135.186346 151.90359 
L -143.861901 153.694106 
L -152.537455 155.452323 
L -161.213009 157.169308 
L -169.888564 158.837122 
L -178.564118 160.448852 
L -187.239672 161.998624 
L -195.915227 163.481594 
L -204.590781 164.893932 
L -213.266336 166.232788 
L -221.94189 167.496241 
L -230.617444 168.683243 
L -239.292999 169.793558 
L -247.968553 170.827682 
L -256.644107 171.786771 
L -265.319662 172.672561 
L -273.995216 173.487284 
L -282.67077 174.233594 
L -291.346325 174.914485 
L -300.021879 175.533216 
L -308.697434 176.093243 
L -317.372988 176.598155 
L -326.048542 177.051609 
L -334.724097 177.457283 
L -343.399651 177.818825 
L -352.075205 178.139813 
L -360.75076 178.423721 
L -369.426314 178.673892 
L -378.101868 178.893513 
L -386.777423 179.085601 
L -395.452977 179.252987 
L -404.128531 179.398312 
L -412.804086 179.524023 
L -421.47964 179.632371 
z
" style="fill:#4c72b0;fill-opacity:0.25;stroke:#4c72b0;"/>
   </g>
   <g id="PolyCollection_2">
    <path clip-path="url(#pbfef6f0fd7)" d="M -271.772992 178.547087 
L -271.772992 180.218125 
L -264.602027 180.218125 
L -257.431062 180.218125 
L -250.260097 180.218125 
L -243.089132 180.218125 
L -235.918167 180.218125 
L -228.747202 180.218125 
L -221.576238 180.218125 
L -214.405273 180.218125 
L -207.234308 180.218125 
L -200.063343 180.218125 
L -192.892378 180.218125 
L -185.721413 180.218125 
L -178.550448 180.218125 
L -171.379483 180.218125 
L -164.208518 180.218125 
L -157.037553 180.218125 
L -149.866588 180.218125 
L -142.695623 180.218125 
L -135.524658 180.218125 
L -128.353693 180.218125 
L -121.182728 180.218125 
L -114.011764 180.218125 
L -106.840799 180.218125 
L -99.669834 180.218125 
L -92.498869 180.218125 
L -85.327904 180.218125 
L -78.156939 180.218125 
L -70.985974 180.218125 
L -63.815009 180.218125 
L -56.644044 180.218125 
L -49.473079 180.218125 
L -42.302114 180.218125 
L -35.131149 180.218125 
L -27.960184 180.218125 
L -20.789219 180.218125 
L -13.618255 180.218125 
L -6.44729 180.218125 
L 0.723675 180.218125 
L 7.89464 180.218125 
L 15.065605 180.218125 
L 22.23657 180.218125 
L 29.407535 180.218125 
L 36.5785 180.218125 
L 43.749465 180.218125 
L 50.92043 180.218125 
L 58.091395 180.218125 
L 65.26236 180.218125 
L 72.433325 180.218125 
L 79.60429 180.218125 
L 86.775255 180.218125 
L 93.946219 180.218125 
L 101.117184 180.218125 
L 108.288149 180.218125 
L 115.459114 180.218125 
L 122.630079 180.218125 
L 129.801044 180.218125 
L 136.972009 180.218125 
L 144.142974 180.218125 
L 151.313939 180.218125 
L 158.484904 180.218125 
L 165.655869 180.218125 
L 172.826834 180.218125 
L 179.997799 180.218125 
L 187.168764 180.218125 
L 194.339728 180.218125 
L 201.510693 180.218125 
L 208.681658 180.218125 
L 215.852623 180.218125 
L 223.023588 180.218125 
L 230.194553 180.218125 
L 237.365518 180.218125 
L 244.536483 180.218125 
L 251.707448 180.218125 
L 258.878413 180.218125 
L 266.049378 180.218125 
L 273.220343 180.218125 
L 280.391308 180.218125 
L 287.562273 180.218125 
L 294.733238 180.218125 
L 301.904202 180.218125 
L 309.075167 180.218125 
L 316.246132 180.218125 
L 323.417097 180.218125 
L 330.588062 180.218125 
L 337.759027 180.218125 
L 344.929992 180.218125 
L 352.100957 180.218125 
L 359.271922 180.218125 
L 366.442887 180.218125 
L 373.613852 180.218125 
L 380.784817 180.218125 
L 387.955782 180.218125 
L 395.126747 180.218125 
L 402.297711 180.218125 
L 409.468676 180.218125 
L 416.639641 180.218125 
L 423.810606 180.218125 
L 430.981571 180.218125 
L 438.152536 180.218125 
L 445.323501 180.218125 
L 452.494466 180.218125 
L 459.665431 180.218125 
L 466.836396 180.218125 
L 474.007361 180.218125 
L 481.178326 180.218125 
L 488.349291 180.218125 
L 495.520256 180.218125 
L 502.691221 180.218125 
L 509.862185 180.218125 
L 517.03315 180.218125 
L 524.204115 180.218125 
L 531.37508 180.218125 
L 538.546045 180.218125 
L 545.71701 180.218125 
L 552.887975 180.218125 
L 560.05894 180.218125 
L 567.229905 180.218125 
L 574.40087 180.218125 
L 581.571835 180.218125 
L 588.7428 180.218125 
L 595.913765 180.218125 
L 603.08473 180.218125 
L 610.255694 180.218125 
L 617.426659 180.218125 
L 624.597624 180.218125 
L 631.768589 180.218125 
L 638.939554 180.218125 
L 646.110519 180.218125 
L 653.281484 180.218125 
L 660.452449 180.218125 
L 667.623414 180.218125 
L 674.794379 180.218125 
L 681.965344 180.218125 
L 689.136309 180.218125 
L 696.307274 180.218125 
L 703.478239 180.218125 
L 710.649203 180.218125 
L 717.820168 180.218125 
L 724.991133 180.218125 
L 732.162098 180.218125 
L 739.333063 180.218125 
L 746.504028 180.218125 
L 753.674993 180.218125 
L 760.845958 180.218125 
L 768.016923 180.218125 
L 775.187888 180.218125 
L 782.358853 180.218125 
L 789.529818 180.218125 
L 796.700783 180.218125 
L 803.871748 180.218125 
L 811.042713 180.218125 
L 818.213677 180.218125 
L 825.384642 180.218125 
L 832.555607 180.218125 
L 839.726572 180.218125 
L 846.897537 180.218125 
L 854.068502 180.218125 
L 861.239467 180.218125 
L 868.410432 180.218125 
L 875.581397 180.218125 
L 882.752362 180.218125 
L 889.923327 180.218125 
L 897.094292 180.218125 
L 904.265257 180.218125 
L 911.436222 180.218125 
L 918.607186 180.218125 
L 925.778151 180.218125 
L 932.949116 180.218125 
L 940.120081 180.218125 
L 947.291046 180.218125 
L 954.462011 180.218125 
L 961.632976 180.218125 
L 968.803941 180.218125 
L 975.974906 180.218125 
L 983.145871 180.218125 
L 990.316836 180.218125 
L 997.487801 180.218125 
L 1004.658766 180.218125 
L 1011.829731 180.218125 
L 1019.000696 180.218125 
L 1026.17166 180.218125 
L 1033.342625 180.218125 
L 1040.51359 180.218125 
L 1047.684555 180.218125 
L 1054.85552 180.218125 
L 1062.026485 180.218125 
L 1069.19745 180.218125 
L 1076.368415 180.218125 
L 1083.53938 180.218125 
L 1090.710345 180.218125 
L 1097.88131 180.218125 
L 1105.052275 180.218125 
L 1112.22324 180.218125 
L 1119.394205 180.218125 
L 1126.565169 180.218125 
L 1133.736134 180.218125 
L 1140.907099 180.218125 
L 1148.078064 180.218125 
L 1155.249029 180.218125 
L 1155.249029 179.947464 
L 1155.249029 179.947464 
L 1148.078064 179.884729 
L 1140.907099 179.80948 
L 1133.736134 179.719715 
L 1126.565169 179.613231 
L 1119.394205 179.487616 
L 1112.22324 179.340267 
L 1105.052275 179.168399 
L 1097.88131 178.969072 
L 1090.710345 178.739225 
L 1083.53938 178.475718 
L 1076.368415 178.175384 
L 1069.19745 177.835092 
L 1062.026485 177.451821 
L 1054.85552 177.022744 
L 1047.684555 176.545316 
L 1040.51359 176.017373 
L 1033.342625 175.437235 
L 1026.17166 174.80381 
L 1019.000696 174.116701 
L 1011.829731 173.376301 
L 1004.658766 172.58389 
L 997.487801 171.74171 
L 990.316836 170.853037 
L 983.145871 169.922221 
L 975.974906 168.954709 
L 968.803941 167.957045 
L 961.632976 166.936833 
L 954.462011 165.902678 
L 947.291046 164.864091 
L 940.120081 163.831366 
L 932.949116 162.815426 
L 925.778151 161.827641 
L 918.607186 160.879629 
L 911.436222 159.983032 
L 904.265257 159.149281 
L 897.094292 158.389358 
L 889.923327 157.713557 
L 882.752362 157.13125 
L 875.581397 156.650674 
L 868.410432 156.278736 
L 861.239467 156.020848 
L 854.068502 155.880796 
L 846.897537 155.860647 
L 839.726572 155.960699 
L 832.555607 156.179473 
L 825.384642 156.513752 
L 818.213677 156.958653 
L 811.042713 157.507756 
L 803.871748 158.153247 
L 796.700783 158.886111 
L 789.529818 159.696338 
L 782.358853 160.57315 
L 775.187888 161.505239 
L 768.016923 162.481007 
L 760.845958 163.488804 
L 753.674993 164.517152 
L 746.504028 165.554957 
L 739.333063 166.591697 
L 732.162098 167.617582 
L 724.991133 168.623693 
L 717.820168 169.602082 
L 710.649203 170.545845 
L 703.478239 171.449166 
L 696.307274 172.307329 
L 689.136309 173.116703 
L 681.965344 173.874705 
L 674.794379 174.579742 
L 667.623414 175.231132 
L 660.452449 175.829021 
L 653.281484 176.374278 
L 646.110519 176.868399 
L 638.939554 177.313397 
L 631.768589 177.711698 
L 624.597624 178.066048 
L 617.426659 178.379412 
L 610.255694 178.654891 
L 603.08473 178.895646 
L 595.913765 179.104832 
L 588.7428 179.285541 
L 581.571835 179.440755 
L 574.40087 179.573309 
L 567.229905 179.685865 
L 560.05894 179.780894 
L 552.887975 179.86066 
L 545.71701 179.92722 
L 538.546045 179.982418 
L 531.37508 180.027892 
L 524.204115 180.065081 
L 517.03315 180.095232 
L 509.862185 180.119409 
L 502.691221 180.138505 
L 495.520256 180.15325 
L 488.349291 180.164218 
L 481.178326 180.171834 
L 474.007361 180.176376 
L 466.836396 180.177973 
L 459.665431 180.176602 
L 452.494466 180.172078 
L 445.323501 180.164041 
L 438.152536 180.151934 
L 430.981571 180.134981 
L 423.810606 180.112147 
L 416.639641 180.082106 
L 409.468676 180.043191 
L 402.297711 179.993338 
L 395.126747 179.930025 
L 387.955782 179.850206 
L 380.784817 179.750227 
L 373.613852 179.625754 
L 366.442887 179.471679 
L 359.271922 179.282033 
L 352.100957 179.049897 
L 344.929992 178.767317 
L 337.759027 178.425223 
L 330.588062 178.013357 
L 323.417097 177.520224 
L 316.246132 176.933058 
L 309.075167 176.237817 
L 301.904202 175.419213 
L 294.733238 174.460779 
L 287.562273 173.344987 
L 280.391308 172.053413 
L 273.220343 170.566959 
L 266.049378 168.866142 
L 258.878413 166.931439 
L 251.707448 164.743697 
L 244.536483 162.284605 
L 237.365518 159.537223 
L 230.194553 156.48656 
L 223.023588 153.120184 
L 215.852623 149.428869 
L 208.681658 145.407238 
L 201.510693 141.054403 
L 194.339728 136.374563 
L 187.168764 131.37756 
L 179.997799 126.079338 
L 172.826834 120.502312 
L 165.655869 114.6756 
L 158.484904 108.635112 
L 151.313939 102.423469 
L 144.142974 96.089741 
L 136.972009 89.689001 
L 129.801044 83.281683 
L 122.630079 76.932753 
L 115.459114 70.710704 
L 108.288149 64.686396 
L 101.117184 58.931759 
L 93.946219 53.518398 
L 86.775255 48.516126 
L 79.60429 43.991487 
L 72.433325 40.006281 
L 65.26236 36.61617 
L 58.091395 33.869385 
L 50.92043 31.805579 
L 43.749465 30.454884 
L 36.5785 29.837173 
L 29.407535 29.961572 
L 22.23657 30.826243 
L 15.065605 32.418421 
L 7.89464 34.714732 
L 0.723675 37.681766 
L -6.44729 41.276878 
L -13.618255 45.449217 
L -20.789219 50.140914 
L -27.960184 55.288421 
L -35.131149 60.823935 
L -42.302114 66.676877 
L -49.473079 72.775373 
L -56.644044 79.047701 
L -63.815009 85.423655 
L -70.985974 91.835799 
L -78.156939 98.220582 
L -85.327904 104.519283 
L -92.498869 110.678775 
L -99.669834 116.652108 
L -106.840799 122.398887 
L -114.011764 127.885477 
L -121.182728 133.08502 
L -128.353693 137.977301 
L -135.524658 142.548465 
L -142.695623 146.790617 
L -149.866588 150.701324 
L -157.037553 154.283046 
L -164.208518 157.542522 
L -171.379483 160.490123 
L -178.550448 163.139208 
L -185.721413 165.505486 
L -192.892378 167.60642 
L -200.063343 169.460659 
L -207.234308 171.087528 
L -214.405273 172.50658 
L -221.576238 173.737207 
L -228.747202 174.798307 
L -235.918167 175.708028 
L -243.089132 176.48356 
L -250.260097 177.140986 
L -257.431062 177.695183 
L -264.602027 178.15977 
L -271.772992 178.547087 
z
" style="fill:#dd8452;fill-opacity:0.25;stroke:#dd8452;"/>
   </g>
   <g id="patch_3">
    <path d="M 34.193438 180.218125 
L 34.193438 22.318125 
" style="fill:none;stroke:#ffffff;stroke-linecap:square;stroke-linejoin:miter;stroke-width:1.25;"/>
   </g>
   <g id="patch_4">
    <path d="M 34.193438 180.218125 
L 849.2826 180.218125 
" style="fill:none;stroke:#ffffff;stroke-linecap:square;stroke-linejoin:miter;stroke-width:1.25;"/>
   </g>
   <g id="text_14">
    <!-- Output: exng -->
    <g style="fill:#262626;" transform="translate(402.218644 16.318125)scale(0.12 -0.12)">
     <defs>
      <path d="M 39.40625 66.21875 
Q 28.65625 66.21875 22.328125 58.203125 
Q 16.015625 50.203125 16.015625 36.375 
Q 16.015625 22.609375 22.328125 14.59375 
Q 28.65625 6.59375 39.40625 6.59375 
Q 50.140625 6.59375 56.421875 14.59375 
Q 62.703125 22.609375 62.703125 36.375 
Q 62.703125 50.203125 56.421875 58.203125 
Q 50.140625 66.21875 39.40625 66.21875 
z
M 39.40625 74.21875 
Q 54.734375 74.21875 63.90625 63.9375 
Q 73.09375 53.65625 73.09375 36.375 
Q 73.09375 19.140625 63.90625 8.859375 
Q 54.734375 -1.421875 39.40625 -1.421875 
Q 24.03125 -1.421875 14.8125 8.828125 
Q 5.609375 19.09375 5.609375 36.375 
Q 5.609375 53.65625 14.8125 63.9375 
Q 24.03125 74.21875 39.40625 74.21875 
z
" id="DejaVuSans-79"/>
      <path d="M 8.5 21.578125 
L 8.5 54.6875 
L 17.484375 54.6875 
L 17.484375 21.921875 
Q 17.484375 14.15625 20.5 10.265625 
Q 23.53125 6.390625 29.59375 6.390625 
Q 36.859375 6.390625 41.078125 11.03125 
Q 45.3125 15.671875 45.3125 23.6875 
L 45.3125 54.6875 
L 54.296875 54.6875 
L 54.296875 0 
L 45.3125 0 
L 45.3125 8.40625 
Q 42.046875 3.421875 37.71875 1 
Q 33.40625 -1.421875 27.6875 -1.421875 
Q 18.265625 -1.421875 13.375 4.4375 
Q 8.5 10.296875 8.5 21.578125 
z
M 31.109375 56 
z
" id="DejaVuSans-117"/>
      <path d="M 18.3125 70.21875 
L 18.3125 54.6875 
L 36.8125 54.6875 
L 36.8125 47.703125 
L 18.3125 47.703125 
L 18.3125 18.015625 
Q 18.3125 11.328125 20.140625 9.421875 
Q 21.96875 7.515625 27.59375 7.515625 
L 36.8125 7.515625 
L 36.8125 0 
L 27.59375 0 
Q 17.1875 0 13.234375 3.875 
Q 9.28125 7.765625 9.28125 18.015625 
L 9.28125 47.703125 
L 2.6875 47.703125 
L 2.6875 54.6875 
L 9.28125 54.6875 
L 9.28125 70.21875 
z
" id="DejaVuSans-116"/>
      <path d="M 18.109375 8.203125 
L 18.109375 -20.796875 
L 9.078125 -20.796875 
L 9.078125 54.6875 
L 18.109375 54.6875 
L 18.109375 46.390625 
Q 20.953125 51.265625 25.265625 53.625 
Q 29.59375 56 35.59375 56 
Q 45.5625 56 51.78125 48.09375 
Q 58.015625 40.1875 58.015625 27.296875 
Q 58.015625 14.40625 51.78125 6.484375 
Q 45.5625 -1.421875 35.59375 -1.421875 
Q 29.59375 -1.421875 25.265625 0.953125 
Q 20.953125 3.328125 18.109375 8.203125 
z
M 48.6875 27.296875 
Q 48.6875 37.203125 44.609375 42.84375 
Q 40.53125 48.484375 33.40625 48.484375 
Q 26.265625 48.484375 22.1875 42.84375 
Q 18.109375 37.203125 18.109375 27.296875 
Q 18.109375 17.390625 22.1875 11.75 
Q 26.265625 6.109375 33.40625 6.109375 
Q 40.53125 6.109375 44.609375 11.75 
Q 48.6875 17.390625 48.6875 27.296875 
z
" id="DejaVuSans-112"/>
      <path d="M 11.71875 12.40625 
L 22.015625 12.40625 
L 22.015625 0 
L 11.71875 0 
z
M 11.71875 51.703125 
L 22.015625 51.703125 
L 22.015625 39.3125 
L 11.71875 39.3125 
z
" id="DejaVuSans-58"/>
      <path id="DejaVuSans-32"/>
     </defs>
     <use xlink:href="#DejaVuSans-79"/>
     <use x="78.710938" xlink:href="#DejaVuSans-117"/>
     <use x="142.089844" xlink:href="#DejaVuSans-116"/>
     <use x="181.298828" xlink:href="#DejaVuSans-112"/>
     <use x="244.775391" xlink:href="#DejaVuSans-117"/>
     <use x="308.154297" xlink:href="#DejaVuSans-116"/>
     <use x="347.363281" xlink:href="#DejaVuSans-58"/>
     <use x="381.054688" xlink:href="#DejaVuSans-32"/>
     <use x="412.841797" xlink:href="#DejaVuSans-101"/>
     <use x="472.615234" xlink:href="#DejaVuSans-120"/>
     <use x="531.794922" xlink:href="#DejaVuSans-110"/>
     <use x="595.173828" xlink:href="#DejaVuSans-103"/>
    </g>
   </g>
  </g>
  <g id="legend_1">
   <g id="text_15">
    <!-- output -->
    <g style="fill:#262626;" transform="translate(859.052475 98.754219)scale(0.12 -0.12)">
     <defs>
      <path d="M 30.609375 48.390625 
Q 23.390625 48.390625 19.1875 42.75 
Q 14.984375 37.109375 14.984375 27.296875 
Q 14.984375 17.484375 19.15625 11.84375 
Q 23.34375 6.203125 30.609375 6.203125 
Q 37.796875 6.203125 41.984375 11.859375 
Q 46.1875 17.53125 46.1875 27.296875 
Q 46.1875 37.015625 41.984375 42.703125 
Q 37.796875 48.390625 30.609375 48.390625 
z
M 30.609375 56 
Q 42.328125 56 49.015625 48.375 
Q 55.71875 40.765625 55.71875 27.296875 
Q 55.71875 13.875 49.015625 6.21875 
Q 42.328125 -1.421875 30.609375 -1.421875 
Q 18.84375 -1.421875 12.171875 6.21875 
Q 5.515625 13.875 5.515625 27.296875 
Q 5.515625 40.765625 12.171875 48.375 
Q 18.84375 56 30.609375 56 
z
" id="DejaVuSans-111"/>
     </defs>
     <use xlink:href="#DejaVuSans-111"/>
     <use x="61.181641" xlink:href="#DejaVuSans-117"/>
     <use x="124.560547" xlink:href="#DejaVuSans-116"/>
     <use x="163.769531" xlink:href="#DejaVuSans-112"/>
     <use x="227.246094" xlink:href="#DejaVuSans-117"/>
     <use x="290.625" xlink:href="#DejaVuSans-116"/>
    </g>
   </g>
   <g id="patch_5">
    <path d="M 859.942787 115.108125 
L 881.942787 115.108125 
L 881.942787 107.408125 
L 859.942787 107.408125 
z
" style="fill:#4c72b0;fill-opacity:0.25;stroke:#4c72b0;stroke-linejoin:miter;"/>
   </g>
   <g id="text_16">
    <!-- 0 -->
    <g style="fill:#262626;" transform="translate(890.742787 115.108125)scale(0.11 -0.11)">
     <use xlink:href="#DejaVuSans-48"/>
    </g>
   </g>
   <g id="patch_6">
    <path d="M 859.942787 131.254063 
L 881.942787 131.254063 
L 881.942787 123.554063 
L 859.942787 123.554063 
z
" style="fill:#dd8452;fill-opacity:0.25;stroke:#dd8452;stroke-linejoin:miter;"/>
   </g>
   <g id="text_17">
    <!-- 1 -->
    <g style="fill:#262626;" transform="translate(890.742787 131.254063)scale(0.11 -0.11)">
     <use xlink:href="#DejaVuSans-49"/>
    </g>
   </g>
  </g>
 </g>
 <defs>
  <clipPath id="pbfef6f0fd7">
   <rect height="157.9" width="815.089162" x="34.193438" y="22.318125"/>
  </clipPath>
 </defs>
</svg>
