<?xml version="1.0" encoding="utf-8" standalone="no"?>
<!DOCTYPE svg PUBLIC "-//W3C//DTD SVG 1.1//EN"
  "http://www.w3.org/Graphics/SVG/1.1/DTD/svg11.dtd">
<!-- Created with matplotlib (https://matplotlib.org/) -->
<svg height="282.717813pt" version="1.1" viewBox="0 0 391.807187 282.717813" width="391.807187pt" xmlns="http://www.w3.org/2000/svg" xmlns:xlink="http://www.w3.org/1999/xlink">
 <metadata>
  <rdf:RDF xmlns:cc="http://creativecommons.org/ns#" xmlns:dc="http://purl.org/dc/elements/1.1/" xmlns:rdf="http://www.w3.org/1999/02/22-rdf-syntax-ns#">
   <cc:Work>
    <dc:type rdf:resource="http://purl.org/dc/dcmitype/StillImage"/>
    <dc:date>2021-07-04T23:49:00.683952</dc:date>
    <dc:format>image/svg+xml</dc:format>
    <dc:creator>
     <cc:Agent>
      <dc:title>Matplotlib v3.3.4, https://matplotlib.org/</dc:title>
     </cc:Agent>
    </dc:creator>
   </cc:Work>
  </rdf:RDF>
 </metadata>
 <defs>
  <style type="text/css">*{stroke-linecap:butt;stroke-linejoin:round;}</style>
 </defs>
 <g id="figure_1">
  <g id="patch_1">
   <path d="M 0 282.717813 
L 391.807187 282.717813 
L 391.807187 0 
L 0 0 
z
" style="fill:none;"/>
  </g>
  <g id="axes_1">
   <g id="patch_2">
    <path d="M 49.807188 239.758125 
L 384.607188 239.758125 
L 384.607188 22.318125 
L 49.807188 22.318125 
z
" style="fill:#eaeaf2;"/>
   </g>
   <g id="matplotlib.axis_1">
    <g id="xtick_1">
     <g id="line2d_1">
      <path clip-path="url(#p961aa2cc6b)" d="M 56.218046 239.758125 
L 56.218046 22.318125 
" style="fill:none;stroke:#ffffff;stroke-linecap:round;"/>
     </g>
     <g id="text_1">
      <!-- −3 -->
      <g style="fill:#262626;" transform="translate(48.109843 257.616406)scale(0.11 -0.11)">
       <defs>
        <path d="M 10.59375 35.5 
L 73.1875 35.5 
L 73.1875 27.203125 
L 10.59375 27.203125 
z
" id="DejaVuSans-8722"/>
        <path d="M 40.578125 39.3125 
Q 47.65625 37.796875 51.625 33 
Q 55.609375 28.21875 55.609375 21.1875 
Q 55.609375 10.40625 48.1875 4.484375 
Q 40.765625 -1.421875 27.09375 -1.421875 
Q 22.515625 -1.421875 17.65625 -0.515625 
Q 12.796875 0.390625 7.625 2.203125 
L 7.625 11.71875 
Q 11.71875 9.328125 16.59375 8.109375 
Q 21.484375 6.890625 26.8125 6.890625 
Q 36.078125 6.890625 40.9375 10.546875 
Q 45.796875 14.203125 45.796875 21.1875 
Q 45.796875 27.640625 41.28125 31.265625 
Q 36.765625 34.90625 28.71875 34.90625 
L 20.21875 34.90625 
L 20.21875 43.015625 
L 29.109375 43.015625 
Q 36.375 43.015625 40.234375 45.921875 
Q 44.09375 48.828125 44.09375 54.296875 
Q 44.09375 59.90625 40.109375 62.90625 
Q 36.140625 65.921875 28.71875 65.921875 
Q 24.65625 65.921875 20.015625 65.03125 
Q 15.375 64.15625 9.8125 62.3125 
L 9.8125 71.09375 
Q 15.4375 72.65625 20.34375 73.4375 
Q 25.25 74.21875 29.59375 74.21875 
Q 40.828125 74.21875 47.359375 69.109375 
Q 53.90625 64.015625 53.90625 55.328125 
Q 53.90625 49.265625 50.4375 45.09375 
Q 46.96875 40.921875 40.578125 39.3125 
z
" id="DejaVuSans-51"/>
       </defs>
       <use xlink:href="#DejaVuSans-8722"/>
       <use x="83.789062" xlink:href="#DejaVuSans-51"/>
      </g>
     </g>
    </g>
    <g id="xtick_2">
     <g id="line2d_2">
      <path clip-path="url(#p961aa2cc6b)" d="M 109.881093 239.758125 
L 109.881093 22.318125 
" style="fill:none;stroke:#ffffff;stroke-linecap:round;"/>
     </g>
     <g id="text_2">
      <!-- −2 -->
      <g style="fill:#262626;" transform="translate(101.77289 257.616406)scale(0.11 -0.11)">
       <defs>
        <path d="M 19.1875 8.296875 
L 53.609375 8.296875 
L 53.609375 0 
L 7.328125 0 
L 7.328125 8.296875 
Q 12.9375 14.109375 22.625 23.890625 
Q 32.328125 33.6875 34.8125 36.53125 
Q 39.546875 41.84375 41.421875 45.53125 
Q 43.3125 49.21875 43.3125 52.78125 
Q 43.3125 58.59375 39.234375 62.25 
Q 35.15625 65.921875 28.609375 65.921875 
Q 23.96875 65.921875 18.8125 64.3125 
Q 13.671875 62.703125 7.8125 59.421875 
L 7.8125 69.390625 
Q 13.765625 71.78125 18.9375 73 
Q 24.125 74.21875 28.421875 74.21875 
Q 39.75 74.21875 46.484375 68.546875 
Q 53.21875 62.890625 53.21875 53.421875 
Q 53.21875 48.921875 51.53125 44.890625 
Q 49.859375 40.875 45.40625 35.40625 
Q 44.1875 33.984375 37.640625 27.21875 
Q 31.109375 20.453125 19.1875 8.296875 
z
" id="DejaVuSans-50"/>
       </defs>
       <use xlink:href="#DejaVuSans-8722"/>
       <use x="83.789062" xlink:href="#DejaVuSans-50"/>
      </g>
     </g>
    </g>
    <g id="xtick_3">
     <g id="line2d_3">
      <path clip-path="url(#p961aa2cc6b)" d="M 163.54414 239.758125 
L 163.54414 22.318125 
" style="fill:none;stroke:#ffffff;stroke-linecap:round;"/>
     </g>
     <g id="text_3">
      <!-- −1 -->
      <g style="fill:#262626;" transform="translate(155.435937 257.616406)scale(0.11 -0.11)">
       <defs>
        <path d="M 12.40625 8.296875 
L 28.515625 8.296875 
L 28.515625 63.921875 
L 10.984375 60.40625 
L 10.984375 69.390625 
L 28.421875 72.90625 
L 38.28125 72.90625 
L 38.28125 8.296875 
L 54.390625 8.296875 
L 54.390625 0 
L 12.40625 0 
z
" id="DejaVuSans-49"/>
       </defs>
       <use xlink:href="#DejaVuSans-8722"/>
       <use x="83.789062" xlink:href="#DejaVuSans-49"/>
      </g>
     </g>
    </g>
    <g id="xtick_4">
     <g id="line2d_4">
      <path clip-path="url(#p961aa2cc6b)" d="M 217.207188 239.758125 
L 217.207188 22.318125 
" style="fill:none;stroke:#ffffff;stroke-linecap:round;"/>
     </g>
     <g id="text_4">
      <!-- 0 -->
      <g style="fill:#262626;" transform="translate(213.707813 257.616406)scale(0.11 -0.11)">
       <defs>
        <path d="M 31.78125 66.40625 
Q 24.171875 66.40625 20.328125 58.90625 
Q 16.5 51.421875 16.5 36.375 
Q 16.5 21.390625 20.328125 13.890625 
Q 24.171875 6.390625 31.78125 6.390625 
Q 39.453125 6.390625 43.28125 13.890625 
Q 47.125 21.390625 47.125 36.375 
Q 47.125 51.421875 43.28125 58.90625 
Q 39.453125 66.40625 31.78125 66.40625 
z
M 31.78125 74.21875 
Q 44.046875 74.21875 50.515625 64.515625 
Q 56.984375 54.828125 56.984375 36.375 
Q 56.984375 17.96875 50.515625 8.265625 
Q 44.046875 -1.421875 31.78125 -1.421875 
Q 19.53125 -1.421875 13.0625 8.265625 
Q 6.59375 17.96875 6.59375 36.375 
Q 6.59375 54.828125 13.0625 64.515625 
Q 19.53125 74.21875 31.78125 74.21875 
z
" id="DejaVuSans-48"/>
       </defs>
       <use xlink:href="#DejaVuSans-48"/>
      </g>
     </g>
    </g>
    <g id="xtick_5">
     <g id="line2d_5">
      <path clip-path="url(#p961aa2cc6b)" d="M 270.870235 239.758125 
L 270.870235 22.318125 
" style="fill:none;stroke:#ffffff;stroke-linecap:round;"/>
     </g>
     <g id="text_5">
      <!-- 1 -->
      <g style="fill:#262626;" transform="translate(267.37086 257.616406)scale(0.11 -0.11)">
       <use xlink:href="#DejaVuSans-49"/>
      </g>
     </g>
    </g>
    <g id="xtick_6">
     <g id="line2d_6">
      <path clip-path="url(#p961aa2cc6b)" d="M 324.533282 239.758125 
L 324.533282 22.318125 
" style="fill:none;stroke:#ffffff;stroke-linecap:round;"/>
     </g>
     <g id="text_6">
      <!-- 2 -->
      <g style="fill:#262626;" transform="translate(321.033907 257.616406)scale(0.11 -0.11)">
       <use xlink:href="#DejaVuSans-50"/>
      </g>
     </g>
    </g>
    <g id="xtick_7">
     <g id="line2d_7">
      <path clip-path="url(#p961aa2cc6b)" d="M 378.196329 239.758125 
L 378.196329 22.318125 
" style="fill:none;stroke:#ffffff;stroke-linecap:round;"/>
     </g>
     <g id="text_7">
      <!-- 3 -->
      <g style="fill:#262626;" transform="translate(374.696954 257.616406)scale(0.11 -0.11)">
       <use xlink:href="#DejaVuSans-51"/>
      </g>
     </g>
    </g>
    <g id="text_8">
     <!-- Theoretical quantiles -->
     <g style="fill:#262626;" transform="translate(154.190313 273.022188)scale(0.12 -0.12)">
      <defs>
       <path d="M -0.296875 72.90625 
L 61.375 72.90625 
L 61.375 64.59375 
L 35.5 64.59375 
L 35.5 0 
L 25.59375 0 
L 25.59375 64.59375 
L -0.296875 64.59375 
z
" id="DejaVuSans-84"/>
       <path d="M 54.890625 33.015625 
L 54.890625 0 
L 45.90625 0 
L 45.90625 32.71875 
Q 45.90625 40.484375 42.875 44.328125 
Q 39.84375 48.1875 33.796875 48.1875 
Q 26.515625 48.1875 22.3125 43.546875 
Q 18.109375 38.921875 18.109375 30.90625 
L 18.109375 0 
L 9.078125 0 
L 9.078125 75.984375 
L 18.109375 75.984375 
L 18.109375 46.1875 
Q 21.34375 51.125 25.703125 53.5625 
Q 30.078125 56 35.796875 56 
Q 45.21875 56 50.046875 50.171875 
Q 54.890625 44.34375 54.890625 33.015625 
z
" id="DejaVuSans-104"/>
       <path d="M 56.203125 29.59375 
L 56.203125 25.203125 
L 14.890625 25.203125 
Q 15.484375 15.921875 20.484375 11.0625 
Q 25.484375 6.203125 34.421875 6.203125 
Q 39.59375 6.203125 44.453125 7.46875 
Q 49.3125 8.734375 54.109375 11.28125 
L 54.109375 2.78125 
Q 49.265625 0.734375 44.1875 -0.34375 
Q 39.109375 -1.421875 33.890625 -1.421875 
Q 20.796875 -1.421875 13.15625 6.1875 
Q 5.515625 13.8125 5.515625 26.8125 
Q 5.515625 40.234375 12.765625 48.109375 
Q 20.015625 56 32.328125 56 
Q 43.359375 56 49.78125 48.890625 
Q 56.203125 41.796875 56.203125 29.59375 
z
M 47.21875 32.234375 
Q 47.125 39.59375 43.09375 43.984375 
Q 39.0625 48.390625 32.421875 48.390625 
Q 24.90625 48.390625 20.390625 44.140625 
Q 15.875 39.890625 15.1875 32.171875 
z
" id="DejaVuSans-101"/>
       <path d="M 30.609375 48.390625 
Q 23.390625 48.390625 19.1875 42.75 
Q 14.984375 37.109375 14.984375 27.296875 
Q 14.984375 17.484375 19.15625 11.84375 
Q 23.34375 6.203125 30.609375 6.203125 
Q 37.796875 6.203125 41.984375 11.859375 
Q 46.1875 17.53125 46.1875 27.296875 
Q 46.1875 37.015625 41.984375 42.703125 
Q 37.796875 48.390625 30.609375 48.390625 
z
M 30.609375 56 
Q 42.328125 56 49.015625 48.375 
Q 55.71875 40.765625 55.71875 27.296875 
Q 55.71875 13.875 49.015625 6.21875 
Q 42.328125 -1.421875 30.609375 -1.421875 
Q 18.84375 -1.421875 12.171875 6.21875 
Q 5.515625 13.875 5.515625 27.296875 
Q 5.515625 40.765625 12.171875 48.375 
Q 18.84375 56 30.609375 56 
z
" id="DejaVuSans-111"/>
       <path d="M 41.109375 46.296875 
Q 39.59375 47.171875 37.8125 47.578125 
Q 36.03125 48 33.890625 48 
Q 26.265625 48 22.1875 43.046875 
Q 18.109375 38.09375 18.109375 28.8125 
L 18.109375 0 
L 9.078125 0 
L 9.078125 54.6875 
L 18.109375 54.6875 
L 18.109375 46.1875 
Q 20.953125 51.171875 25.484375 53.578125 
Q 30.03125 56 36.53125 56 
Q 37.453125 56 38.578125 55.875 
Q 39.703125 55.765625 41.0625 55.515625 
z
" id="DejaVuSans-114"/>
       <path d="M 18.3125 70.21875 
L 18.3125 54.6875 
L 36.8125 54.6875 
L 36.8125 47.703125 
L 18.3125 47.703125 
L 18.3125 18.015625 
Q 18.3125 11.328125 20.140625 9.421875 
Q 21.96875 7.515625 27.59375 7.515625 
L 36.8125 7.515625 
L 36.8125 0 
L 27.59375 0 
Q 17.1875 0 13.234375 3.875 
Q 9.28125 7.765625 9.28125 18.015625 
L 9.28125 47.703125 
L 2.6875 47.703125 
L 2.6875 54.6875 
L 9.28125 54.6875 
L 9.28125 70.21875 
z
" id="DejaVuSans-116"/>
       <path d="M 9.421875 54.6875 
L 18.40625 54.6875 
L 18.40625 0 
L 9.421875 0 
z
M 9.421875 75.984375 
L 18.40625 75.984375 
L 18.40625 64.59375 
L 9.421875 64.59375 
z
" id="DejaVuSans-105"/>
       <path d="M 48.78125 52.59375 
L 48.78125 44.1875 
Q 44.96875 46.296875 41.140625 47.34375 
Q 37.3125 48.390625 33.40625 48.390625 
Q 24.65625 48.390625 19.8125 42.84375 
Q 14.984375 37.3125 14.984375 27.296875 
Q 14.984375 17.28125 19.8125 11.734375 
Q 24.65625 6.203125 33.40625 6.203125 
Q 37.3125 6.203125 41.140625 7.25 
Q 44.96875 8.296875 48.78125 10.40625 
L 48.78125 2.09375 
Q 45.015625 0.34375 40.984375 -0.53125 
Q 36.96875 -1.421875 32.421875 -1.421875 
Q 20.0625 -1.421875 12.78125 6.34375 
Q 5.515625 14.109375 5.515625 27.296875 
Q 5.515625 40.671875 12.859375 48.328125 
Q 20.21875 56 33.015625 56 
Q 37.15625 56 41.109375 55.140625 
Q 45.0625 54.296875 48.78125 52.59375 
z
" id="DejaVuSans-99"/>
       <path d="M 34.28125 27.484375 
Q 23.390625 27.484375 19.1875 25 
Q 14.984375 22.515625 14.984375 16.5 
Q 14.984375 11.71875 18.140625 8.90625 
Q 21.296875 6.109375 26.703125 6.109375 
Q 34.1875 6.109375 38.703125 11.40625 
Q 43.21875 16.703125 43.21875 25.484375 
L 43.21875 27.484375 
z
M 52.203125 31.203125 
L 52.203125 0 
L 43.21875 0 
L 43.21875 8.296875 
Q 40.140625 3.328125 35.546875 0.953125 
Q 30.953125 -1.421875 24.3125 -1.421875 
Q 15.921875 -1.421875 10.953125 3.296875 
Q 6 8.015625 6 15.921875 
Q 6 25.140625 12.171875 29.828125 
Q 18.359375 34.515625 30.609375 34.515625 
L 43.21875 34.515625 
L 43.21875 35.40625 
Q 43.21875 41.609375 39.140625 45 
Q 35.0625 48.390625 27.6875 48.390625 
Q 23 48.390625 18.546875 47.265625 
Q 14.109375 46.140625 10.015625 43.890625 
L 10.015625 52.203125 
Q 14.9375 54.109375 19.578125 55.046875 
Q 24.21875 56 28.609375 56 
Q 40.484375 56 46.34375 49.84375 
Q 52.203125 43.703125 52.203125 31.203125 
z
" id="DejaVuSans-97"/>
       <path d="M 9.421875 75.984375 
L 18.40625 75.984375 
L 18.40625 0 
L 9.421875 0 
z
" id="DejaVuSans-108"/>
       <path id="DejaVuSans-32"/>
       <path d="M 14.796875 27.296875 
Q 14.796875 17.390625 18.875 11.75 
Q 22.953125 6.109375 30.078125 6.109375 
Q 37.203125 6.109375 41.296875 11.75 
Q 45.40625 17.390625 45.40625 27.296875 
Q 45.40625 37.203125 41.296875 42.84375 
Q 37.203125 48.484375 30.078125 48.484375 
Q 22.953125 48.484375 18.875 42.84375 
Q 14.796875 37.203125 14.796875 27.296875 
z
M 45.40625 8.203125 
Q 42.578125 3.328125 38.25 0.953125 
Q 33.9375 -1.421875 27.875 -1.421875 
Q 17.96875 -1.421875 11.734375 6.484375 
Q 5.515625 14.40625 5.515625 27.296875 
Q 5.515625 40.1875 11.734375 48.09375 
Q 17.96875 56 27.875 56 
Q 33.9375 56 38.25 53.625 
Q 42.578125 51.265625 45.40625 46.390625 
L 45.40625 54.6875 
L 54.390625 54.6875 
L 54.390625 -20.796875 
L 45.40625 -20.796875 
z
" id="DejaVuSans-113"/>
       <path d="M 8.5 21.578125 
L 8.5 54.6875 
L 17.484375 54.6875 
L 17.484375 21.921875 
Q 17.484375 14.15625 20.5 10.265625 
Q 23.53125 6.390625 29.59375 6.390625 
Q 36.859375 6.390625 41.078125 11.03125 
Q 45.3125 15.671875 45.3125 23.6875 
L 45.3125 54.6875 
L 54.296875 54.6875 
L 54.296875 0 
L 45.3125 0 
L 45.3125 8.40625 
Q 42.046875 3.421875 37.71875 1 
Q 33.40625 -1.421875 27.6875 -1.421875 
Q 18.265625 -1.421875 13.375 4.4375 
Q 8.5 10.296875 8.5 21.578125 
z
M 31.109375 56 
z
" id="DejaVuSans-117"/>
       <path d="M 54.890625 33.015625 
L 54.890625 0 
L 45.90625 0 
L 45.90625 32.71875 
Q 45.90625 40.484375 42.875 44.328125 
Q 39.84375 48.1875 33.796875 48.1875 
Q 26.515625 48.1875 22.3125 43.546875 
Q 18.109375 38.921875 18.109375 30.90625 
L 18.109375 0 
L 9.078125 0 
L 9.078125 54.6875 
L 18.109375 54.6875 
L 18.109375 46.1875 
Q 21.34375 51.125 25.703125 53.5625 
Q 30.078125 56 35.796875 56 
Q 45.21875 56 50.046875 50.171875 
Q 54.890625 44.34375 54.890625 33.015625 
z
" id="DejaVuSans-110"/>
       <path d="M 44.28125 53.078125 
L 44.28125 44.578125 
Q 40.484375 46.53125 36.375 47.5 
Q 32.28125 48.484375 27.875 48.484375 
Q 21.1875 48.484375 17.84375 46.4375 
Q 14.5 44.390625 14.5 40.28125 
Q 14.5 37.15625 16.890625 35.375 
Q 19.28125 33.59375 26.515625 31.984375 
L 29.59375 31.296875 
Q 39.15625 29.25 43.1875 25.515625 
Q 47.21875 21.78125 47.21875 15.09375 
Q 47.21875 7.46875 41.1875 3.015625 
Q 35.15625 -1.421875 24.609375 -1.421875 
Q 20.21875 -1.421875 15.453125 -0.5625 
Q 10.6875 0.296875 5.421875 2 
L 5.421875 11.28125 
Q 10.40625 8.6875 15.234375 7.390625 
Q 20.0625 6.109375 24.8125 6.109375 
Q 31.15625 6.109375 34.5625 8.28125 
Q 37.984375 10.453125 37.984375 14.40625 
Q 37.984375 18.0625 35.515625 20.015625 
Q 33.0625 21.96875 24.703125 23.78125 
L 21.578125 24.515625 
Q 13.234375 26.265625 9.515625 29.90625 
Q 5.8125 33.546875 5.8125 39.890625 
Q 5.8125 47.609375 11.28125 51.796875 
Q 16.75 56 26.8125 56 
Q 31.78125 56 36.171875 55.265625 
Q 40.578125 54.546875 44.28125 53.078125 
z
" id="DejaVuSans-115"/>
      </defs>
      <use xlink:href="#DejaVuSans-84"/>
      <use x="61.083984" xlink:href="#DejaVuSans-104"/>
      <use x="124.462891" xlink:href="#DejaVuSans-101"/>
      <use x="185.986328" xlink:href="#DejaVuSans-111"/>
      <use x="247.167969" xlink:href="#DejaVuSans-114"/>
      <use x="286.03125" xlink:href="#DejaVuSans-101"/>
      <use x="347.554688" xlink:href="#DejaVuSans-116"/>
      <use x="386.763672" xlink:href="#DejaVuSans-105"/>
      <use x="414.546875" xlink:href="#DejaVuSans-99"/>
      <use x="469.527344" xlink:href="#DejaVuSans-97"/>
      <use x="530.806641" xlink:href="#DejaVuSans-108"/>
      <use x="558.589844" xlink:href="#DejaVuSans-32"/>
      <use x="590.376953" xlink:href="#DejaVuSans-113"/>
      <use x="653.853516" xlink:href="#DejaVuSans-117"/>
      <use x="717.232422" xlink:href="#DejaVuSans-97"/>
      <use x="778.511719" xlink:href="#DejaVuSans-110"/>
      <use x="841.890625" xlink:href="#DejaVuSans-116"/>
      <use x="881.099609" xlink:href="#DejaVuSans-105"/>
      <use x="908.882812" xlink:href="#DejaVuSans-108"/>
      <use x="936.666016" xlink:href="#DejaVuSans-101"/>
      <use x="998.189453" xlink:href="#DejaVuSans-115"/>
     </g>
    </g>
   </g>
   <g id="matplotlib.axis_2">
    <g id="ytick_1">
     <g id="line2d_8">
      <path clip-path="url(#p961aa2cc6b)" d="M 49.807188 235.726261 
L 384.607188 235.726261 
" style="fill:none;stroke:#ffffff;stroke-linecap:round;"/>
     </g>
     <g id="text_9">
      <!-- 4.8 -->
      <g style="fill:#262626;" transform="translate(22.81375 239.905402)scale(0.11 -0.11)">
       <defs>
        <path d="M 37.796875 64.3125 
L 12.890625 25.390625 
L 37.796875 25.390625 
z
M 35.203125 72.90625 
L 47.609375 72.90625 
L 47.609375 25.390625 
L 58.015625 25.390625 
L 58.015625 17.1875 
L 47.609375 17.1875 
L 47.609375 0 
L 37.796875 0 
L 37.796875 17.1875 
L 4.890625 17.1875 
L 4.890625 26.703125 
z
" id="DejaVuSans-52"/>
        <path d="M 10.6875 12.40625 
L 21 12.40625 
L 21 0 
L 10.6875 0 
z
" id="DejaVuSans-46"/>
        <path d="M 31.78125 34.625 
Q 24.75 34.625 20.71875 30.859375 
Q 16.703125 27.09375 16.703125 20.515625 
Q 16.703125 13.921875 20.71875 10.15625 
Q 24.75 6.390625 31.78125 6.390625 
Q 38.8125 6.390625 42.859375 10.171875 
Q 46.921875 13.96875 46.921875 20.515625 
Q 46.921875 27.09375 42.890625 30.859375 
Q 38.875 34.625 31.78125 34.625 
z
M 21.921875 38.8125 
Q 15.578125 40.375 12.03125 44.71875 
Q 8.5 49.078125 8.5 55.328125 
Q 8.5 64.0625 14.71875 69.140625 
Q 20.953125 74.21875 31.78125 74.21875 
Q 42.671875 74.21875 48.875 69.140625 
Q 55.078125 64.0625 55.078125 55.328125 
Q 55.078125 49.078125 51.53125 44.71875 
Q 48 40.375 41.703125 38.8125 
Q 48.828125 37.15625 52.796875 32.3125 
Q 56.78125 27.484375 56.78125 20.515625 
Q 56.78125 9.90625 50.3125 4.234375 
Q 43.84375 -1.421875 31.78125 -1.421875 
Q 19.734375 -1.421875 13.25 4.234375 
Q 6.78125 9.90625 6.78125 20.515625 
Q 6.78125 27.484375 10.78125 32.3125 
Q 14.796875 37.15625 21.921875 38.8125 
z
M 18.3125 54.390625 
Q 18.3125 48.734375 21.84375 45.5625 
Q 25.390625 42.390625 31.78125 42.390625 
Q 38.140625 42.390625 41.71875 45.5625 
Q 45.3125 48.734375 45.3125 54.390625 
Q 45.3125 60.0625 41.71875 63.234375 
Q 38.140625 66.40625 31.78125 66.40625 
Q 25.390625 66.40625 21.84375 63.234375 
Q 18.3125 60.0625 18.3125 54.390625 
z
" id="DejaVuSans-56"/>
       </defs>
       <use xlink:href="#DejaVuSans-52"/>
       <use x="63.623047" xlink:href="#DejaVuSans-46"/>
       <use x="95.410156" xlink:href="#DejaVuSans-56"/>
      </g>
     </g>
    </g>
    <g id="ytick_2">
     <g id="line2d_9">
      <path clip-path="url(#p961aa2cc6b)" d="M 49.807188 209.239914 
L 384.607188 209.239914 
" style="fill:none;stroke:#ffffff;stroke-linecap:round;"/>
     </g>
     <g id="text_10">
      <!-- 5.0 -->
      <g style="fill:#262626;" transform="translate(22.81375 213.419055)scale(0.11 -0.11)">
       <defs>
        <path d="M 10.796875 72.90625 
L 49.515625 72.90625 
L 49.515625 64.59375 
L 19.828125 64.59375 
L 19.828125 46.734375 
Q 21.96875 47.46875 24.109375 47.828125 
Q 26.265625 48.1875 28.421875 48.1875 
Q 40.625 48.1875 47.75 41.5 
Q 54.890625 34.8125 54.890625 23.390625 
Q 54.890625 11.625 47.5625 5.09375 
Q 40.234375 -1.421875 26.90625 -1.421875 
Q 22.3125 -1.421875 17.546875 -0.640625 
Q 12.796875 0.140625 7.71875 1.703125 
L 7.71875 11.625 
Q 12.109375 9.234375 16.796875 8.0625 
Q 21.484375 6.890625 26.703125 6.890625 
Q 35.15625 6.890625 40.078125 11.328125 
Q 45.015625 15.765625 45.015625 23.390625 
Q 45.015625 31 40.078125 35.4375 
Q 35.15625 39.890625 26.703125 39.890625 
Q 22.75 39.890625 18.8125 39.015625 
Q 14.890625 38.140625 10.796875 36.28125 
z
" id="DejaVuSans-53"/>
       </defs>
       <use xlink:href="#DejaVuSans-53"/>
       <use x="63.623047" xlink:href="#DejaVuSans-46"/>
       <use x="95.410156" xlink:href="#DejaVuSans-48"/>
      </g>
     </g>
    </g>
    <g id="ytick_3">
     <g id="line2d_10">
      <path clip-path="url(#p961aa2cc6b)" d="M 49.807188 182.753567 
L 384.607188 182.753567 
" style="fill:none;stroke:#ffffff;stroke-linecap:round;"/>
     </g>
     <g id="text_11">
      <!-- 5.2 -->
      <g style="fill:#262626;" transform="translate(22.81375 186.932707)scale(0.11 -0.11)">
       <use xlink:href="#DejaVuSans-53"/>
       <use x="63.623047" xlink:href="#DejaVuSans-46"/>
       <use x="95.410156" xlink:href="#DejaVuSans-50"/>
      </g>
     </g>
    </g>
    <g id="ytick_4">
     <g id="line2d_11">
      <path clip-path="url(#p961aa2cc6b)" d="M 49.807188 156.267219 
L 384.607188 156.267219 
" style="fill:none;stroke:#ffffff;stroke-linecap:round;"/>
     </g>
     <g id="text_12">
      <!-- 5.4 -->
      <g style="fill:#262626;" transform="translate(22.81375 160.44636)scale(0.11 -0.11)">
       <use xlink:href="#DejaVuSans-53"/>
       <use x="63.623047" xlink:href="#DejaVuSans-46"/>
       <use x="95.410156" xlink:href="#DejaVuSans-52"/>
      </g>
     </g>
    </g>
    <g id="ytick_5">
     <g id="line2d_12">
      <path clip-path="url(#p961aa2cc6b)" d="M 49.807188 129.780872 
L 384.607188 129.780872 
" style="fill:none;stroke:#ffffff;stroke-linecap:round;"/>
     </g>
     <g id="text_13">
      <!-- 5.6 -->
      <g style="fill:#262626;" transform="translate(22.81375 133.960013)scale(0.11 -0.11)">
       <defs>
        <path d="M 33.015625 40.375 
Q 26.375 40.375 22.484375 35.828125 
Q 18.609375 31.296875 18.609375 23.390625 
Q 18.609375 15.53125 22.484375 10.953125 
Q 26.375 6.390625 33.015625 6.390625 
Q 39.65625 6.390625 43.53125 10.953125 
Q 47.40625 15.53125 47.40625 23.390625 
Q 47.40625 31.296875 43.53125 35.828125 
Q 39.65625 40.375 33.015625 40.375 
z
M 52.59375 71.296875 
L 52.59375 62.3125 
Q 48.875 64.0625 45.09375 64.984375 
Q 41.3125 65.921875 37.59375 65.921875 
Q 27.828125 65.921875 22.671875 59.328125 
Q 17.53125 52.734375 16.796875 39.40625 
Q 19.671875 43.65625 24.015625 45.921875 
Q 28.375 48.1875 33.59375 48.1875 
Q 44.578125 48.1875 50.953125 41.515625 
Q 57.328125 34.859375 57.328125 23.390625 
Q 57.328125 12.15625 50.6875 5.359375 
Q 44.046875 -1.421875 33.015625 -1.421875 
Q 20.359375 -1.421875 13.671875 8.265625 
Q 6.984375 17.96875 6.984375 36.375 
Q 6.984375 53.65625 15.1875 63.9375 
Q 23.390625 74.21875 37.203125 74.21875 
Q 40.921875 74.21875 44.703125 73.484375 
Q 48.484375 72.75 52.59375 71.296875 
z
" id="DejaVuSans-54"/>
       </defs>
       <use xlink:href="#DejaVuSans-53"/>
       <use x="63.623047" xlink:href="#DejaVuSans-46"/>
       <use x="95.410156" xlink:href="#DejaVuSans-54"/>
      </g>
     </g>
    </g>
    <g id="ytick_6">
     <g id="line2d_13">
      <path clip-path="url(#p961aa2cc6b)" d="M 49.807188 103.294525 
L 384.607188 103.294525 
" style="fill:none;stroke:#ffffff;stroke-linecap:round;"/>
     </g>
     <g id="text_14">
      <!-- 5.8 -->
      <g style="fill:#262626;" transform="translate(22.81375 107.473666)scale(0.11 -0.11)">
       <use xlink:href="#DejaVuSans-53"/>
       <use x="63.623047" xlink:href="#DejaVuSans-46"/>
       <use x="95.410156" xlink:href="#DejaVuSans-56"/>
      </g>
     </g>
    </g>
    <g id="ytick_7">
     <g id="line2d_14">
      <path clip-path="url(#p961aa2cc6b)" d="M 49.807188 76.808178 
L 384.607188 76.808178 
" style="fill:none;stroke:#ffffff;stroke-linecap:round;"/>
     </g>
     <g id="text_15">
      <!-- 6.0 -->
      <g style="fill:#262626;" transform="translate(22.81375 80.987318)scale(0.11 -0.11)">
       <use xlink:href="#DejaVuSans-54"/>
       <use x="63.623047" xlink:href="#DejaVuSans-46"/>
       <use x="95.410156" xlink:href="#DejaVuSans-48"/>
      </g>
     </g>
    </g>
    <g id="ytick_8">
     <g id="line2d_15">
      <path clip-path="url(#p961aa2cc6b)" d="M 49.807188 50.32183 
L 384.607188 50.32183 
" style="fill:none;stroke:#ffffff;stroke-linecap:round;"/>
     </g>
     <g id="text_16">
      <!-- 6.2 -->
      <g style="fill:#262626;" transform="translate(22.81375 54.500971)scale(0.11 -0.11)">
       <use xlink:href="#DejaVuSans-54"/>
       <use x="63.623047" xlink:href="#DejaVuSans-46"/>
       <use x="95.410156" xlink:href="#DejaVuSans-50"/>
      </g>
     </g>
    </g>
    <g id="ytick_9">
     <g id="line2d_16">
      <path clip-path="url(#p961aa2cc6b)" d="M 49.807188 23.835483 
L 384.607188 23.835483 
" style="fill:none;stroke:#ffffff;stroke-linecap:round;"/>
     </g>
     <g id="text_17">
      <!-- 6.4 -->
      <g style="fill:#262626;" transform="translate(22.81375 28.014624)scale(0.11 -0.11)">
       <use xlink:href="#DejaVuSans-54"/>
       <use x="63.623047" xlink:href="#DejaVuSans-46"/>
       <use x="95.410156" xlink:href="#DejaVuSans-52"/>
      </g>
     </g>
    </g>
    <g id="text_18">
     <!-- Ordered Values -->
     <g style="fill:#262626;" transform="translate(16.318125 176.96625)rotate(-90)scale(0.12 -0.12)">
      <defs>
       <path d="M 39.40625 66.21875 
Q 28.65625 66.21875 22.328125 58.203125 
Q 16.015625 50.203125 16.015625 36.375 
Q 16.015625 22.609375 22.328125 14.59375 
Q 28.65625 6.59375 39.40625 6.59375 
Q 50.140625 6.59375 56.421875 14.59375 
Q 62.703125 22.609375 62.703125 36.375 
Q 62.703125 50.203125 56.421875 58.203125 
Q 50.140625 66.21875 39.40625 66.21875 
z
M 39.40625 74.21875 
Q 54.734375 74.21875 63.90625 63.9375 
Q 73.09375 53.65625 73.09375 36.375 
Q 73.09375 19.140625 63.90625 8.859375 
Q 54.734375 -1.421875 39.40625 -1.421875 
Q 24.03125 -1.421875 14.8125 8.828125 
Q 5.609375 19.09375 5.609375 36.375 
Q 5.609375 53.65625 14.8125 63.9375 
Q 24.03125 74.21875 39.40625 74.21875 
z
" id="DejaVuSans-79"/>
       <path d="M 45.40625 46.390625 
L 45.40625 75.984375 
L 54.390625 75.984375 
L 54.390625 0 
L 45.40625 0 
L 45.40625 8.203125 
Q 42.578125 3.328125 38.25 0.953125 
Q 33.9375 -1.421875 27.875 -1.421875 
Q 17.96875 -1.421875 11.734375 6.484375 
Q 5.515625 14.40625 5.515625 27.296875 
Q 5.515625 40.1875 11.734375 48.09375 
Q 17.96875 56 27.875 56 
Q 33.9375 56 38.25 53.625 
Q 42.578125 51.265625 45.40625 46.390625 
z
M 14.796875 27.296875 
Q 14.796875 17.390625 18.875 11.75 
Q 22.953125 6.109375 30.078125 6.109375 
Q 37.203125 6.109375 41.296875 11.75 
Q 45.40625 17.390625 45.40625 27.296875 
Q 45.40625 37.203125 41.296875 42.84375 
Q 37.203125 48.484375 30.078125 48.484375 
Q 22.953125 48.484375 18.875 42.84375 
Q 14.796875 37.203125 14.796875 27.296875 
z
" id="DejaVuSans-100"/>
       <path d="M 28.609375 0 
L 0.78125 72.90625 
L 11.078125 72.90625 
L 34.1875 11.53125 
L 57.328125 72.90625 
L 67.578125 72.90625 
L 39.796875 0 
z
" id="DejaVuSans-86"/>
      </defs>
      <use xlink:href="#DejaVuSans-79"/>
      <use x="78.710938" xlink:href="#DejaVuSans-114"/>
      <use x="118.074219" xlink:href="#DejaVuSans-100"/>
      <use x="181.550781" xlink:href="#DejaVuSans-101"/>
      <use x="243.074219" xlink:href="#DejaVuSans-114"/>
      <use x="281.9375" xlink:href="#DejaVuSans-101"/>
      <use x="343.460938" xlink:href="#DejaVuSans-100"/>
      <use x="406.9375" xlink:href="#DejaVuSans-32"/>
      <use x="438.724609" xlink:href="#DejaVuSans-86"/>
      <use x="499.382812" xlink:href="#DejaVuSans-97"/>
      <use x="560.662109" xlink:href="#DejaVuSans-108"/>
      <use x="588.445312" xlink:href="#DejaVuSans-117"/>
      <use x="651.824219" xlink:href="#DejaVuSans-101"/>
      <use x="713.347656" xlink:href="#DejaVuSans-115"/>
     </g>
    </g>
   </g>
   <g id="line2d_17">
    <defs>
     <path d="M 0 3 
C 0.795609 3 1.55874 2.683901 2.12132 2.12132 
C 2.683901 1.55874 3 0.795609 3 0 
C 3 -0.795609 2.683901 -1.55874 2.12132 -2.12132 
C 1.55874 -2.683901 0.795609 -3 0 -3 
C -0.795609 -3 -1.55874 -2.683901 -2.12132 -2.12132 
C -2.683901 -1.55874 -3 -0.795609 -3 0 
C -3 0.795609 -2.683901 1.55874 -2.12132 2.12132 
C -1.55874 2.683901 -0.795609 3 0 3 
z
" id="m68dd364e43" style="stroke:#4c72b0;"/>
    </defs>
    <g clip-path="url(#p961aa2cc6b)">
     <use style="fill:#4c72b0;stroke:#4c72b0;" x="65.025369" xlink:href="#m68dd364e43" y="229.874489"/>
     <use style="fill:#4c72b0;stroke:#4c72b0;" x="80.914899" xlink:href="#m68dd364e43" y="224.760659"/>
     <use style="fill:#4c72b0;stroke:#4c72b0;" x="89.910455" xlink:href="#m68dd364e43" y="215.089813"/>
     <use style="fill:#4c72b0;stroke:#4c72b0;" x="96.320113" xlink:href="#m68dd364e43" y="207.831464"/>
     <use style="fill:#4c72b0;stroke:#4c72b0;" x="101.362663" xlink:href="#m68dd364e43" y="207.831464"/>
     <use style="fill:#4c72b0;stroke:#4c72b0;" x="105.551509" xlink:href="#m68dd364e43" y="200.950345"/>
     <use style="fill:#4c72b0;stroke:#4c72b0;" x="109.153469" xlink:href="#m68dd364e43" y="198.459393"/>
     <use style="fill:#4c72b0;stroke:#4c72b0;" x="112.325688" xlink:href="#m68dd364e43" y="195.209371"/>
     <use style="fill:#4c72b0;stroke:#4c72b0;" x="115.168841" xlink:href="#m68dd364e43" y="193.613789"/>
     <use style="fill:#4c72b0;stroke:#4c72b0;" x="117.751448" xlink:href="#m68dd364e43" y="192.823149"/>
     <use style="fill:#4c72b0;stroke:#4c72b0;" x="120.122344" xlink:href="#m68dd364e43" y="192.037202"/>
     <use style="fill:#4c72b0;stroke:#4c72b0;" x="122.317605" xlink:href="#m68dd364e43" y="191.255891"/>
     <use style="fill:#4c72b0;stroke:#4c72b0;" x="124.364672" xlink:href="#m68dd364e43" y="188.939242"/>
     <use style="fill:#4c72b0;stroke:#4c72b0;" x="126.28492" xlink:href="#m68dd364e43" y="187.417021"/>
     <use style="fill:#4c72b0;stroke:#4c72b0;" x="128.09534" xlink:href="#m68dd364e43" y="186.662423"/>
     <use style="fill:#4c72b0;stroke:#4c72b0;" x="129.809669" xlink:href="#m68dd364e43" y="186.662423"/>
     <use style="fill:#4c72b0;stroke:#4c72b0;" x="131.439179" xlink:href="#m68dd364e43" y="186.662423"/>
     <use style="fill:#4c72b0;stroke:#4c72b0;" x="132.993235" xlink:href="#m68dd364e43" y="185.912099"/>
     <use style="fill:#4c72b0;stroke:#4c72b0;" x="134.479712" xlink:href="#m68dd364e43" y="185.166003"/>
     <use style="fill:#4c72b0;stroke:#4c72b0;" x="135.905292" xlink:href="#m68dd364e43" y="185.166003"/>
     <use style="fill:#4c72b0;stroke:#4c72b0;" x="137.2757" xlink:href="#m68dd364e43" y="185.166003"/>
     <use style="fill:#4c72b0;stroke:#4c72b0;" x="138.595878" xlink:href="#m68dd364e43" y="185.166003"/>
     <use style="fill:#4c72b0;stroke:#4c72b0;" x="139.870122" xlink:href="#m68dd364e43" y="184.424086"/>
     <use style="fill:#4c72b0;stroke:#4c72b0;" x="141.102193" xlink:href="#m68dd364e43" y="182.952607"/>
     <use style="fill:#4c72b0;stroke:#4c72b0;" x="142.295405" xlink:href="#m68dd364e43" y="181.497299"/>
     <use style="fill:#4c72b0;stroke:#4c72b0;" x="143.452687" xlink:href="#m68dd364e43" y="180.775598"/>
     <use style="fill:#4c72b0;stroke:#4c72b0;" x="144.57665" xlink:href="#m68dd364e43" y="180.057809"/>
     <use style="fill:#4c72b0;stroke:#4c72b0;" x="145.669623" xlink:href="#m68dd364e43" y="179.34389"/>
     <use style="fill:#4c72b0;stroke:#4c72b0;" x="146.733701" xlink:href="#m68dd364e43" y="178.633799"/>
     <use style="fill:#4c72b0;stroke:#4c72b0;" x="147.770768" xlink:href="#m68dd364e43" y="177.927494"/>
     <use style="fill:#4c72b0;stroke:#4c72b0;" x="148.782533" xlink:href="#m68dd364e43" y="177.224937"/>
     <use style="fill:#4c72b0;stroke:#4c72b0;" x="149.770541" xlink:href="#m68dd364e43" y="177.224937"/>
     <use style="fill:#4c72b0;stroke:#4c72b0;" x="150.736205" xlink:href="#m68dd364e43" y="174.451396"/>
     <use style="fill:#4c72b0;stroke:#4c72b0;" x="151.680811" xlink:href="#m68dd364e43" y="174.451396"/>
     <use style="fill:#4c72b0;stroke:#4c72b0;" x="152.605538" xlink:href="#m68dd364e43" y="173.766993"/>
     <use style="fill:#4c72b0;stroke:#4c72b0;" x="153.51147" xlink:href="#m68dd364e43" y="173.766993"/>
     <use style="fill:#4c72b0;stroke:#4c72b0;" x="154.399604" xlink:href="#m68dd364e43" y="172.408707"/>
     <use style="fill:#4c72b0;stroke:#4c72b0;" x="155.27086" xlink:href="#m68dd364e43" y="171.734752"/>
     <use style="fill:#4c72b0;stroke:#4c72b0;" x="156.126088" xlink:href="#m68dd364e43" y="171.734752"/>
     <use style="fill:#4c72b0;stroke:#4c72b0;" x="156.966078" xlink:href="#m68dd364e43" y="171.064211"/>
     <use style="fill:#4c72b0;stroke:#4c72b0;" x="157.791561" xlink:href="#m68dd364e43" y="171.064211"/>
     <use style="fill:#4c72b0;stroke:#4c72b0;" x="158.603219" xlink:href="#m68dd364e43" y="171.064211"/>
     <use style="fill:#4c72b0;stroke:#4c72b0;" x="159.401687" xlink:href="#m68dd364e43" y="171.064211"/>
     <use style="fill:#4c72b0;stroke:#4c72b0;" x="160.187558" xlink:href="#m68dd364e43" y="171.064211"/>
     <use style="fill:#4c72b0;stroke:#4c72b0;" x="160.961387" xlink:href="#m68dd364e43" y="171.064211"/>
     <use style="fill:#4c72b0;stroke:#4c72b0;" x="161.723694" xlink:href="#m68dd364e43" y="170.397047"/>
     <use style="fill:#4c72b0;stroke:#4c72b0;" x="162.474965" xlink:href="#m68dd364e43" y="170.397047"/>
     <use style="fill:#4c72b0;stroke:#4c72b0;" x="163.21566" xlink:href="#m68dd364e43" y="169.733227"/>
     <use style="fill:#4c72b0;stroke:#4c72b0;" x="163.946209" xlink:href="#m68dd364e43" y="169.733227"/>
     <use style="fill:#4c72b0;stroke:#4c72b0;" x="164.667019" xlink:href="#m68dd364e43" y="169.733227"/>
     <use style="fill:#4c72b0;stroke:#4c72b0;" x="165.378471" xlink:href="#m68dd364e43" y="169.072718"/>
     <use style="fill:#4c72b0;stroke:#4c72b0;" x="166.080928" xlink:href="#m68dd364e43" y="168.415488"/>
     <use style="fill:#4c72b0;stroke:#4c72b0;" x="166.774732" xlink:href="#m68dd364e43" y="168.415488"/>
     <use style="fill:#4c72b0;stroke:#4c72b0;" x="167.460206" xlink:href="#m68dd364e43" y="168.415488"/>
     <use style="fill:#4c72b0;stroke:#4c72b0;" x="168.137658" xlink:href="#m68dd364e43" y="167.110731"/>
     <use style="fill:#4c72b0;stroke:#4c72b0;" x="168.807379" xlink:href="#m68dd364e43" y="167.110731"/>
     <use style="fill:#4c72b0;stroke:#4c72b0;" x="169.469645" xlink:href="#m68dd364e43" y="167.110731"/>
     <use style="fill:#4c72b0;stroke:#4c72b0;" x="170.124719" xlink:href="#m68dd364e43" y="166.463142"/>
     <use style="fill:#4c72b0;stroke:#4c72b0;" x="170.77285" xlink:href="#m68dd364e43" y="166.463142"/>
     <use style="fill:#4c72b0;stroke:#4c72b0;" x="171.414278" xlink:href="#m68dd364e43" y="166.463142"/>
     <use style="fill:#4c72b0;stroke:#4c72b0;" x="172.04923" xlink:href="#m68dd364e43" y="166.463142"/>
     <use style="fill:#4c72b0;stroke:#4c72b0;" x="172.677921" xlink:href="#m68dd364e43" y="166.463142"/>
     <use style="fill:#4c72b0;stroke:#4c72b0;" x="173.300559" xlink:href="#m68dd364e43" y="166.463142"/>
     <use style="fill:#4c72b0;stroke:#4c72b0;" x="173.917342" xlink:href="#m68dd364e43" y="165.818704"/>
     <use style="fill:#4c72b0;stroke:#4c72b0;" x="174.528458" xlink:href="#m68dd364e43" y="165.818704"/>
     <use style="fill:#4c72b0;stroke:#4c72b0;" x="175.134088" xlink:href="#m68dd364e43" y="165.177387"/>
     <use style="fill:#4c72b0;stroke:#4c72b0;" x="175.734407" xlink:href="#m68dd364e43" y="165.177387"/>
     <use style="fill:#4c72b0;stroke:#4c72b0;" x="176.32958" xlink:href="#m68dd364e43" y="164.53916"/>
     <use style="fill:#4c72b0;stroke:#4c72b0;" x="176.919766" xlink:href="#m68dd364e43" y="164.53916"/>
     <use style="fill:#4c72b0;stroke:#4c72b0;" x="177.50512" xlink:href="#m68dd364e43" y="163.903995"/>
     <use style="fill:#4c72b0;stroke:#4c72b0;" x="178.085787" xlink:href="#m68dd364e43" y="163.903995"/>
     <use style="fill:#4c72b0;stroke:#4c72b0;" x="178.661909" xlink:href="#m68dd364e43" y="163.271861"/>
     <use style="fill:#4c72b0;stroke:#4c72b0;" x="179.233622" xlink:href="#m68dd364e43" y="163.271861"/>
     <use style="fill:#4c72b0;stroke:#4c72b0;" x="179.801057" xlink:href="#m68dd364e43" y="162.64273"/>
     <use style="fill:#4c72b0;stroke:#4c72b0;" x="180.364341" xlink:href="#m68dd364e43" y="162.016575"/>
     <use style="fill:#4c72b0;stroke:#4c72b0;" x="180.923594" xlink:href="#m68dd364e43" y="162.016575"/>
     <use style="fill:#4c72b0;stroke:#4c72b0;" x="181.478933" xlink:href="#m68dd364e43" y="162.016575"/>
     <use style="fill:#4c72b0;stroke:#4c72b0;" x="182.030473" xlink:href="#m68dd364e43" y="162.016575"/>
     <use style="fill:#4c72b0;stroke:#4c72b0;" x="182.578321" xlink:href="#m68dd364e43" y="161.393365"/>
     <use style="fill:#4c72b0;stroke:#4c72b0;" x="183.122584" xlink:href="#m68dd364e43" y="161.393365"/>
     <use style="fill:#4c72b0;stroke:#4c72b0;" x="183.663363" xlink:href="#m68dd364e43" y="161.393365"/>
     <use style="fill:#4c72b0;stroke:#4c72b0;" x="184.200756" xlink:href="#m68dd364e43" y="161.393365"/>
     <use style="fill:#4c72b0;stroke:#4c72b0;" x="184.73486" xlink:href="#m68dd364e43" y="161.393365"/>
     <use style="fill:#4c72b0;stroke:#4c72b0;" x="185.265767" xlink:href="#m68dd364e43" y="160.773075"/>
     <use style="fill:#4c72b0;stroke:#4c72b0;" x="185.793565" xlink:href="#m68dd364e43" y="160.773075"/>
     <use style="fill:#4c72b0;stroke:#4c72b0;" x="186.318341" xlink:href="#m68dd364e43" y="160.155676"/>
     <use style="fill:#4c72b0;stroke:#4c72b0;" x="186.840181" xlink:href="#m68dd364e43" y="160.155676"/>
     <use style="fill:#4c72b0;stroke:#4c72b0;" x="187.359164" xlink:href="#m68dd364e43" y="159.541143"/>
     <use style="fill:#4c72b0;stroke:#4c72b0;" x="187.87537" xlink:href="#m68dd364e43" y="158.929448"/>
     <use style="fill:#4c72b0;stroke:#4c72b0;" x="188.388876" xlink:href="#m68dd364e43" y="158.929448"/>
     <use style="fill:#4c72b0;stroke:#4c72b0;" x="188.899757" xlink:href="#m68dd364e43" y="158.320565"/>
     <use style="fill:#4c72b0;stroke:#4c72b0;" x="189.408085" xlink:href="#m68dd364e43" y="157.714469"/>
     <use style="fill:#4c72b0;stroke:#4c72b0;" x="189.913931" xlink:href="#m68dd364e43" y="157.714469"/>
     <use style="fill:#4c72b0;stroke:#4c72b0;" x="190.417363" xlink:href="#m68dd364e43" y="157.111135"/>
     <use style="fill:#4c72b0;stroke:#4c72b0;" x="190.918449" xlink:href="#m68dd364e43" y="157.111135"/>
     <use style="fill:#4c72b0;stroke:#4c72b0;" x="191.417252" xlink:href="#m68dd364e43" y="157.111135"/>
     <use style="fill:#4c72b0;stroke:#4c72b0;" x="191.913837" xlink:href="#m68dd364e43" y="156.510536"/>
     <use style="fill:#4c72b0;stroke:#4c72b0;" x="192.408266" xlink:href="#m68dd364e43" y="156.510536"/>
     <use style="fill:#4c72b0;stroke:#4c72b0;" x="192.900598" xlink:href="#m68dd364e43" y="156.510536"/>
     <use style="fill:#4c72b0;stroke:#4c72b0;" x="193.390893" xlink:href="#m68dd364e43" y="155.912649"/>
     <use style="fill:#4c72b0;stroke:#4c72b0;" x="193.879208" xlink:href="#m68dd364e43" y="155.912649"/>
     <use style="fill:#4c72b0;stroke:#4c72b0;" x="194.365599" xlink:href="#m68dd364e43" y="155.317449"/>
     <use style="fill:#4c72b0;stroke:#4c72b0;" x="194.85012" xlink:href="#m68dd364e43" y="155.317449"/>
     <use style="fill:#4c72b0;stroke:#4c72b0;" x="195.332825" xlink:href="#m68dd364e43" y="154.724913"/>
     <use style="fill:#4c72b0;stroke:#4c72b0;" x="195.813767" xlink:href="#m68dd364e43" y="154.724913"/>
     <use style="fill:#4c72b0;stroke:#4c72b0;" x="196.292997" xlink:href="#m68dd364e43" y="154.724913"/>
     <use style="fill:#4c72b0;stroke:#4c72b0;" x="196.770565" xlink:href="#m68dd364e43" y="154.135015"/>
     <use style="fill:#4c72b0;stroke:#4c72b0;" x="197.246519" xlink:href="#m68dd364e43" y="153.547734"/>
     <use style="fill:#4c72b0;stroke:#4c72b0;" x="197.720909" xlink:href="#m68dd364e43" y="153.547734"/>
     <use style="fill:#4c72b0;stroke:#4c72b0;" x="198.19378" xlink:href="#m68dd364e43" y="152.963045"/>
     <use style="fill:#4c72b0;stroke:#4c72b0;" x="198.66518" xlink:href="#m68dd364e43" y="152.963045"/>
     <use style="fill:#4c72b0;stroke:#4c72b0;" x="199.135153" xlink:href="#m68dd364e43" y="152.963045"/>
     <use style="fill:#4c72b0;stroke:#4c72b0;" x="199.603744" xlink:href="#m68dd364e43" y="152.963045"/>
     <use style="fill:#4c72b0;stroke:#4c72b0;" x="200.070996" xlink:href="#m68dd364e43" y="152.380927"/>
     <use style="fill:#4c72b0;stroke:#4c72b0;" x="200.536953" xlink:href="#m68dd364e43" y="152.380927"/>
     <use style="fill:#4c72b0;stroke:#4c72b0;" x="201.001657" xlink:href="#m68dd364e43" y="151.801356"/>
     <use style="fill:#4c72b0;stroke:#4c72b0;" x="201.465148" xlink:href="#m68dd364e43" y="151.801356"/>
     <use style="fill:#4c72b0;stroke:#4c72b0;" x="201.927468" xlink:href="#m68dd364e43" y="151.22431"/>
     <use style="fill:#4c72b0;stroke:#4c72b0;" x="202.388657" xlink:href="#m68dd364e43" y="151.22431"/>
     <use style="fill:#4c72b0;stroke:#4c72b0;" x="202.848753" xlink:href="#m68dd364e43" y="151.22431"/>
     <use style="fill:#4c72b0;stroke:#4c72b0;" x="203.307797" xlink:href="#m68dd364e43" y="150.649768"/>
     <use style="fill:#4c72b0;stroke:#4c72b0;" x="203.765826" xlink:href="#m68dd364e43" y="150.649768"/>
     <use style="fill:#4c72b0;stroke:#4c72b0;" x="204.222877" xlink:href="#m68dd364e43" y="150.649768"/>
     <use style="fill:#4c72b0;stroke:#4c72b0;" x="204.678989" xlink:href="#m68dd364e43" y="150.077708"/>
     <use style="fill:#4c72b0;stroke:#4c72b0;" x="205.134197" xlink:href="#m68dd364e43" y="150.077708"/>
     <use style="fill:#4c72b0;stroke:#4c72b0;" x="205.588539" xlink:href="#m68dd364e43" y="150.077708"/>
     <use style="fill:#4c72b0;stroke:#4c72b0;" x="206.042049" xlink:href="#m68dd364e43" y="149.508108"/>
     <use style="fill:#4c72b0;stroke:#4c72b0;" x="206.494762" xlink:href="#m68dd364e43" y="149.508108"/>
     <use style="fill:#4c72b0;stroke:#4c72b0;" x="206.946715" xlink:href="#m68dd364e43" y="148.940948"/>
     <use style="fill:#4c72b0;stroke:#4c72b0;" x="207.397941" xlink:href="#m68dd364e43" y="148.940948"/>
     <use style="fill:#4c72b0;stroke:#4c72b0;" x="207.848475" xlink:href="#m68dd364e43" y="148.940948"/>
     <use style="fill:#4c72b0;stroke:#4c72b0;" x="208.29835" xlink:href="#m68dd364e43" y="148.940948"/>
     <use style="fill:#4c72b0;stroke:#4c72b0;" x="208.7476" xlink:href="#m68dd364e43" y="148.376206"/>
     <use style="fill:#4c72b0;stroke:#4c72b0;" x="209.196257" xlink:href="#m68dd364e43" y="148.376206"/>
     <use style="fill:#4c72b0;stroke:#4c72b0;" x="209.644356" xlink:href="#m68dd364e43" y="148.376206"/>
     <use style="fill:#4c72b0;stroke:#4c72b0;" x="210.091927" xlink:href="#m68dd364e43" y="148.376206"/>
     <use style="fill:#4c72b0;stroke:#4c72b0;" x="210.539004" xlink:href="#m68dd364e43" y="148.376206"/>
     <use style="fill:#4c72b0;stroke:#4c72b0;" x="210.985619" xlink:href="#m68dd364e43" y="148.376206"/>
     <use style="fill:#4c72b0;stroke:#4c72b0;" x="211.431803" xlink:href="#m68dd364e43" y="147.813863"/>
     <use style="fill:#4c72b0;stroke:#4c72b0;" x="211.877589" xlink:href="#m68dd364e43" y="147.813863"/>
     <use style="fill:#4c72b0;stroke:#4c72b0;" x="212.323006" xlink:href="#m68dd364e43" y="147.253897"/>
     <use style="fill:#4c72b0;stroke:#4c72b0;" x="212.768088" xlink:href="#m68dd364e43" y="147.253897"/>
     <use style="fill:#4c72b0;stroke:#4c72b0;" x="213.212865" xlink:href="#m68dd364e43" y="147.253897"/>
     <use style="fill:#4c72b0;stroke:#4c72b0;" x="213.657367" xlink:href="#m68dd364e43" y="146.696289"/>
     <use style="fill:#4c72b0;stroke:#4c72b0;" x="214.101626" xlink:href="#m68dd364e43" y="145.588067"/>
     <use style="fill:#4c72b0;stroke:#4c72b0;" x="214.545672" xlink:href="#m68dd364e43" y="145.588067"/>
     <use style="fill:#4c72b0;stroke:#4c72b0;" x="214.989536" xlink:href="#m68dd364e43" y="145.588067"/>
     <use style="fill:#4c72b0;stroke:#4c72b0;" x="215.433248" xlink:href="#m68dd364e43" y="145.588067"/>
     <use style="fill:#4c72b0;stroke:#4c72b0;" x="215.876839" xlink:href="#m68dd364e43" y="145.037414"/>
     <use style="fill:#4c72b0;stroke:#4c72b0;" x="216.320339" xlink:href="#m68dd364e43" y="145.037414"/>
     <use style="fill:#4c72b0;stroke:#4c72b0;" x="216.763778" xlink:href="#m68dd364e43" y="145.037414"/>
     <use style="fill:#4c72b0;stroke:#4c72b0;" x="217.207188" xlink:href="#m68dd364e43" y="145.037414"/>
     <use style="fill:#4c72b0;stroke:#4c72b0;" x="217.650597" xlink:href="#m68dd364e43" y="144.489042"/>
     <use style="fill:#4c72b0;stroke:#4c72b0;" x="218.094036" xlink:href="#m68dd364e43" y="143.942931"/>
     <use style="fill:#4c72b0;stroke:#4c72b0;" x="218.537536" xlink:href="#m68dd364e43" y="143.399063"/>
     <use style="fill:#4c72b0;stroke:#4c72b0;" x="218.981127" xlink:href="#m68dd364e43" y="143.399063"/>
     <use style="fill:#4c72b0;stroke:#4c72b0;" x="219.424839" xlink:href="#m68dd364e43" y="143.399063"/>
     <use style="fill:#4c72b0;stroke:#4c72b0;" x="219.868703" xlink:href="#m68dd364e43" y="143.399063"/>
     <use style="fill:#4c72b0;stroke:#4c72b0;" x="220.312749" xlink:href="#m68dd364e43" y="142.857419"/>
     <use style="fill:#4c72b0;stroke:#4c72b0;" x="220.757008" xlink:href="#m68dd364e43" y="142.857419"/>
     <use style="fill:#4c72b0;stroke:#4c72b0;" x="221.20151" xlink:href="#m68dd364e43" y="142.857419"/>
     <use style="fill:#4c72b0;stroke:#4c72b0;" x="221.646287" xlink:href="#m68dd364e43" y="142.317981"/>
     <use style="fill:#4c72b0;stroke:#4c72b0;" x="222.091369" xlink:href="#m68dd364e43" y="142.317981"/>
     <use style="fill:#4c72b0;stroke:#4c72b0;" x="222.536786" xlink:href="#m68dd364e43" y="142.317981"/>
     <use style="fill:#4c72b0;stroke:#4c72b0;" x="222.982572" xlink:href="#m68dd364e43" y="141.780732"/>
     <use style="fill:#4c72b0;stroke:#4c72b0;" x="223.428756" xlink:href="#m68dd364e43" y="141.780732"/>
     <use style="fill:#4c72b0;stroke:#4c72b0;" x="223.875371" xlink:href="#m68dd364e43" y="141.780732"/>
     <use style="fill:#4c72b0;stroke:#4c72b0;" x="224.322448" xlink:href="#m68dd364e43" y="141.245654"/>
     <use style="fill:#4c72b0;stroke:#4c72b0;" x="224.770019" xlink:href="#m68dd364e43" y="141.245654"/>
     <use style="fill:#4c72b0;stroke:#4c72b0;" x="225.218118" xlink:href="#m68dd364e43" y="140.712728"/>
     <use style="fill:#4c72b0;stroke:#4c72b0;" x="225.666775" xlink:href="#m68dd364e43" y="140.712728"/>
     <use style="fill:#4c72b0;stroke:#4c72b0;" x="226.116025" xlink:href="#m68dd364e43" y="140.181939"/>
     <use style="fill:#4c72b0;stroke:#4c72b0;" x="226.5659" xlink:href="#m68dd364e43" y="140.181939"/>
     <use style="fill:#4c72b0;stroke:#4c72b0;" x="227.016434" xlink:href="#m68dd364e43" y="140.181939"/>
     <use style="fill:#4c72b0;stroke:#4c72b0;" x="227.46766" xlink:href="#m68dd364e43" y="139.653269"/>
     <use style="fill:#4c72b0;stroke:#4c72b0;" x="227.919613" xlink:href="#m68dd364e43" y="139.653269"/>
     <use style="fill:#4c72b0;stroke:#4c72b0;" x="228.372326" xlink:href="#m68dd364e43" y="139.653269"/>
     <use style="fill:#4c72b0;stroke:#4c72b0;" x="228.825836" xlink:href="#m68dd364e43" y="138.602218"/>
     <use style="fill:#4c72b0;stroke:#4c72b0;" x="229.280178" xlink:href="#m68dd364e43" y="138.079804"/>
     <use style="fill:#4c72b0;stroke:#4c72b0;" x="229.735386" xlink:href="#m68dd364e43" y="138.079804"/>
     <use style="fill:#4c72b0;stroke:#4c72b0;" x="230.191498" xlink:href="#m68dd364e43" y="137.559443"/>
     <use style="fill:#4c72b0;stroke:#4c72b0;" x="230.648549" xlink:href="#m68dd364e43" y="137.559443"/>
     <use style="fill:#4c72b0;stroke:#4c72b0;" x="231.106578" xlink:href="#m68dd364e43" y="137.559443"/>
     <use style="fill:#4c72b0;stroke:#4c72b0;" x="231.565622" xlink:href="#m68dd364e43" y="137.559443"/>
     <use style="fill:#4c72b0;stroke:#4c72b0;" x="232.025718" xlink:href="#m68dd364e43" y="137.559443"/>
     <use style="fill:#4c72b0;stroke:#4c72b0;" x="232.486907" xlink:href="#m68dd364e43" y="137.041118"/>
     <use style="fill:#4c72b0;stroke:#4c72b0;" x="232.949227" xlink:href="#m68dd364e43" y="137.041118"/>
     <use style="fill:#4c72b0;stroke:#4c72b0;" x="233.412718" xlink:href="#m68dd364e43" y="136.524815"/>
     <use style="fill:#4c72b0;stroke:#4c72b0;" x="233.877422" xlink:href="#m68dd364e43" y="136.524815"/>
     <use style="fill:#4c72b0;stroke:#4c72b0;" x="234.343379" xlink:href="#m68dd364e43" y="136.524815"/>
     <use style="fill:#4c72b0;stroke:#4c72b0;" x="234.810631" xlink:href="#m68dd364e43" y="136.010516"/>
     <use style="fill:#4c72b0;stroke:#4c72b0;" x="235.279222" xlink:href="#m68dd364e43" y="135.498207"/>
     <use style="fill:#4c72b0;stroke:#4c72b0;" x="235.749195" xlink:href="#m68dd364e43" y="135.498207"/>
     <use style="fill:#4c72b0;stroke:#4c72b0;" x="236.220595" xlink:href="#m68dd364e43" y="135.498207"/>
     <use style="fill:#4c72b0;stroke:#4c72b0;" x="236.693466" xlink:href="#m68dd364e43" y="134.987872"/>
     <use style="fill:#4c72b0;stroke:#4c72b0;" x="237.167856" xlink:href="#m68dd364e43" y="134.479496"/>
     <use style="fill:#4c72b0;stroke:#4c72b0;" x="237.64381" xlink:href="#m68dd364e43" y="134.479496"/>
     <use style="fill:#4c72b0;stroke:#4c72b0;" x="238.121378" xlink:href="#m68dd364e43" y="133.973065"/>
     <use style="fill:#4c72b0;stroke:#4c72b0;" x="238.600608" xlink:href="#m68dd364e43" y="133.973065"/>
     <use style="fill:#4c72b0;stroke:#4c72b0;" x="239.08155" xlink:href="#m68dd364e43" y="133.468562"/>
     <use style="fill:#4c72b0;stroke:#4c72b0;" x="239.564255" xlink:href="#m68dd364e43" y="132.965974"/>
     <use style="fill:#4c72b0;stroke:#4c72b0;" x="240.048776" xlink:href="#m68dd364e43" y="132.965974"/>
     <use style="fill:#4c72b0;stroke:#4c72b0;" x="240.535167" xlink:href="#m68dd364e43" y="132.965974"/>
     <use style="fill:#4c72b0;stroke:#4c72b0;" x="241.023482" xlink:href="#m68dd364e43" y="132.465287"/>
     <use style="fill:#4c72b0;stroke:#4c72b0;" x="241.513777" xlink:href="#m68dd364e43" y="132.465287"/>
     <use style="fill:#4c72b0;stroke:#4c72b0;" x="242.006109" xlink:href="#m68dd364e43" y="131.966485"/>
     <use style="fill:#4c72b0;stroke:#4c72b0;" x="242.500538" xlink:href="#m68dd364e43" y="131.966485"/>
     <use style="fill:#4c72b0;stroke:#4c72b0;" x="242.997123" xlink:href="#m68dd364e43" y="131.469555"/>
     <use style="fill:#4c72b0;stroke:#4c72b0;" x="243.495926" xlink:href="#m68dd364e43" y="131.469555"/>
     <use style="fill:#4c72b0;stroke:#4c72b0;" x="243.997012" xlink:href="#m68dd364e43" y="130.974482"/>
     <use style="fill:#4c72b0;stroke:#4c72b0;" x="244.500444" xlink:href="#m68dd364e43" y="130.974482"/>
     <use style="fill:#4c72b0;stroke:#4c72b0;" x="245.00629" xlink:href="#m68dd364e43" y="130.481253"/>
     <use style="fill:#4c72b0;stroke:#4c72b0;" x="245.514618" xlink:href="#m68dd364e43" y="130.481253"/>
     <use style="fill:#4c72b0;stroke:#4c72b0;" x="246.025499" xlink:href="#m68dd364e43" y="129.989855"/>
     <use style="fill:#4c72b0;stroke:#4c72b0;" x="246.539005" xlink:href="#m68dd364e43" y="129.989855"/>
     <use style="fill:#4c72b0;stroke:#4c72b0;" x="247.055211" xlink:href="#m68dd364e43" y="129.989855"/>
     <use style="fill:#4c72b0;stroke:#4c72b0;" x="247.574194" xlink:href="#m68dd364e43" y="129.989855"/>
     <use style="fill:#4c72b0;stroke:#4c72b0;" x="248.096034" xlink:href="#m68dd364e43" y="129.989855"/>
     <use style="fill:#4c72b0;stroke:#4c72b0;" x="248.62081" xlink:href="#m68dd364e43" y="129.500273"/>
     <use style="fill:#4c72b0;stroke:#4c72b0;" x="249.148608" xlink:href="#m68dd364e43" y="129.500273"/>
     <use style="fill:#4c72b0;stroke:#4c72b0;" x="249.679515" xlink:href="#m68dd364e43" y="129.012495"/>
     <use style="fill:#4c72b0;stroke:#4c72b0;" x="250.213619" xlink:href="#m68dd364e43" y="129.012495"/>
     <use style="fill:#4c72b0;stroke:#4c72b0;" x="250.751012" xlink:href="#m68dd364e43" y="128.042294"/>
     <use style="fill:#4c72b0;stroke:#4c72b0;" x="251.291791" xlink:href="#m68dd364e43" y="128.042294"/>
     <use style="fill:#4c72b0;stroke:#4c72b0;" x="251.836054" xlink:href="#m68dd364e43" y="127.559847"/>
     <use style="fill:#4c72b0;stroke:#4c72b0;" x="252.383902" xlink:href="#m68dd364e43" y="127.559847"/>
     <use style="fill:#4c72b0;stroke:#4c72b0;" x="252.935442" xlink:href="#m68dd364e43" y="127.559847"/>
     <use style="fill:#4c72b0;stroke:#4c72b0;" x="253.490781" xlink:href="#m68dd364e43" y="127.07915"/>
     <use style="fill:#4c72b0;stroke:#4c72b0;" x="254.050034" xlink:href="#m68dd364e43" y="127.07915"/>
     <use style="fill:#4c72b0;stroke:#4c72b0;" x="254.613318" xlink:href="#m68dd364e43" y="126.600192"/>
     <use style="fill:#4c72b0;stroke:#4c72b0;" x="255.180753" xlink:href="#m68dd364e43" y="126.12296"/>
     <use style="fill:#4c72b0;stroke:#4c72b0;" x="255.752466" xlink:href="#m68dd364e43" y="126.12296"/>
     <use style="fill:#4c72b0;stroke:#4c72b0;" x="256.328588" xlink:href="#m68dd364e43" y="125.647442"/>
     <use style="fill:#4c72b0;stroke:#4c72b0;" x="256.909255" xlink:href="#m68dd364e43" y="124.231046"/>
     <use style="fill:#4c72b0;stroke:#4c72b0;" x="257.494609" xlink:href="#m68dd364e43" y="123.762261"/>
     <use style="fill:#4c72b0;stroke:#4c72b0;" x="258.084795" xlink:href="#m68dd364e43" y="123.762261"/>
     <use style="fill:#4c72b0;stroke:#4c72b0;" x="258.679968" xlink:href="#m68dd364e43" y="123.762261"/>
     <use style="fill:#4c72b0;stroke:#4c72b0;" x="259.280287" xlink:href="#m68dd364e43" y="123.762261"/>
     <use style="fill:#4c72b0;stroke:#4c72b0;" x="259.885917" xlink:href="#m68dd364e43" y="123.295129"/>
     <use style="fill:#4c72b0;stroke:#4c72b0;" x="260.497033" xlink:href="#m68dd364e43" y="123.295129"/>
     <use style="fill:#4c72b0;stroke:#4c72b0;" x="261.113816" xlink:href="#m68dd364e43" y="123.295129"/>
     <use style="fill:#4c72b0;stroke:#4c72b0;" x="261.736454" xlink:href="#m68dd364e43" y="122.829639"/>
     <use style="fill:#4c72b0;stroke:#4c72b0;" x="262.365145" xlink:href="#m68dd364e43" y="121.903539"/>
     <use style="fill:#4c72b0;stroke:#4c72b0;" x="263.000097" xlink:href="#m68dd364e43" y="121.903539"/>
     <use style="fill:#4c72b0;stroke:#4c72b0;" x="263.641525" xlink:href="#m68dd364e43" y="120.983871"/>
     <use style="fill:#4c72b0;stroke:#4c72b0;" x="264.289656" xlink:href="#m68dd364e43" y="120.983871"/>
     <use style="fill:#4c72b0;stroke:#4c72b0;" x="264.94473" xlink:href="#m68dd364e43" y="120.983871"/>
     <use style="fill:#4c72b0;stroke:#4c72b0;" x="265.606996" xlink:href="#m68dd364e43" y="120.52642"/>
     <use style="fill:#4c72b0;stroke:#4c72b0;" x="266.276717" xlink:href="#m68dd364e43" y="120.52642"/>
     <use style="fill:#4c72b0;stroke:#4c72b0;" x="266.954169" xlink:href="#m68dd364e43" y="120.070545"/>
     <use style="fill:#4c72b0;stroke:#4c72b0;" x="267.639643" xlink:href="#m68dd364e43" y="118.712259"/>
     <use style="fill:#4c72b0;stroke:#4c72b0;" x="268.333447" xlink:href="#m68dd364e43" y="118.262575"/>
     <use style="fill:#4c72b0;stroke:#4c72b0;" x="269.035904" xlink:href="#m68dd364e43" y="118.262575"/>
     <use style="fill:#4c72b0;stroke:#4c72b0;" x="269.747356" xlink:href="#m68dd364e43" y="117.814413"/>
     <use style="fill:#4c72b0;stroke:#4c72b0;" x="270.468166" xlink:href="#m68dd364e43" y="117.814413"/>
     <use style="fill:#4c72b0;stroke:#4c72b0;" x="271.198715" xlink:href="#m68dd364e43" y="116.478955"/>
     <use style="fill:#4c72b0;stroke:#4c72b0;" x="271.93941" xlink:href="#m68dd364e43" y="116.478955"/>
     <use style="fill:#4c72b0;stroke:#4c72b0;" x="272.690681" xlink:href="#m68dd364e43" y="116.036779"/>
     <use style="fill:#4c72b0;stroke:#4c72b0;" x="273.452988" xlink:href="#m68dd364e43" y="116.036779"/>
     <use style="fill:#4c72b0;stroke:#4c72b0;" x="274.226817" xlink:href="#m68dd364e43" y="115.596074"/>
     <use style="fill:#4c72b0;stroke:#4c72b0;" x="275.012688" xlink:href="#m68dd364e43" y="114.719039"/>
     <use style="fill:#4c72b0;stroke:#4c72b0;" x="275.811156" xlink:href="#m68dd364e43" y="114.719039"/>
     <use style="fill:#4c72b0;stroke:#4c72b0;" x="276.622814" xlink:href="#m68dd364e43" y="114.282691"/>
     <use style="fill:#4c72b0;stroke:#4c72b0;" x="277.448297" xlink:href="#m68dd364e43" y="114.282691"/>
     <use style="fill:#4c72b0;stroke:#4c72b0;" x="278.288287" xlink:href="#m68dd364e43" y="114.282691"/>
     <use style="fill:#4c72b0;stroke:#4c72b0;" x="279.143515" xlink:href="#m68dd364e43" y="113.847775"/>
     <use style="fill:#4c72b0;stroke:#4c72b0;" x="280.014771" xlink:href="#m68dd364e43" y="113.847775"/>
     <use style="fill:#4c72b0;stroke:#4c72b0;" x="280.902905" xlink:href="#m68dd364e43" y="113.414283"/>
     <use style="fill:#4c72b0;stroke:#4c72b0;" x="281.808837" xlink:href="#m68dd364e43" y="112.982205"/>
     <use style="fill:#4c72b0;stroke:#4c72b0;" x="282.733564" xlink:href="#m68dd364e43" y="112.551532"/>
     <use style="fill:#4c72b0;stroke:#4c72b0;" x="283.67817" xlink:href="#m68dd364e43" y="112.122255"/>
     <use style="fill:#4c72b0;stroke:#4c72b0;" x="284.643834" xlink:href="#m68dd364e43" y="112.122255"/>
     <use style="fill:#4c72b0;stroke:#4c72b0;" x="285.631842" xlink:href="#m68dd364e43" y="111.694366"/>
     <use style="fill:#4c72b0;stroke:#4c72b0;" x="286.643607" xlink:href="#m68dd364e43" y="111.694366"/>
     <use style="fill:#4c72b0;stroke:#4c72b0;" x="287.680674" xlink:href="#m68dd364e43" y="111.694366"/>
     <use style="fill:#4c72b0;stroke:#4c72b0;" x="288.744752" xlink:href="#m68dd364e43" y="110.842712"/>
     <use style="fill:#4c72b0;stroke:#4c72b0;" x="289.837725" xlink:href="#m68dd364e43" y="109.9965"/>
     <use style="fill:#4c72b0;stroke:#4c72b0;" x="290.961688" xlink:href="#m68dd364e43" y="109.15566"/>
     <use style="fill:#4c72b0;stroke:#4c72b0;" x="292.11897" xlink:href="#m68dd364e43" y="109.15566"/>
     <use style="fill:#4c72b0;stroke:#4c72b0;" x="293.312182" xlink:href="#m68dd364e43" y="107.904328"/>
     <use style="fill:#4c72b0;stroke:#4c72b0;" x="294.544253" xlink:href="#m68dd364e43" y="107.904328"/>
     <use style="fill:#4c72b0;stroke:#4c72b0;" x="295.818497" xlink:href="#m68dd364e43" y="107.489831"/>
     <use style="fill:#4c72b0;stroke:#4c72b0;" x="297.138675" xlink:href="#m68dd364e43" y="106.664708"/>
     <use style="fill:#4c72b0;stroke:#4c72b0;" x="298.509083" xlink:href="#m68dd364e43" y="106.254067"/>
     <use style="fill:#4c72b0;stroke:#4c72b0;" x="299.934663" xlink:href="#m68dd364e43" y="105.029728"/>
     <use style="fill:#4c72b0;stroke:#4c72b0;" x="301.42114" xlink:href="#m68dd364e43" y="105.029728"/>
     <use style="fill:#4c72b0;stroke:#4c72b0;" x="302.975196" xlink:href="#m68dd364e43" y="104.624117"/>
     <use style="fill:#4c72b0;stroke:#4c72b0;" x="304.604706" xlink:href="#m68dd364e43" y="104.219745"/>
     <use style="fill:#4c72b0;stroke:#4c72b0;" x="306.319035" xlink:href="#m68dd364e43" y="103.013985"/>
     <use style="fill:#4c72b0;stroke:#4c72b0;" x="308.129455" xlink:href="#m68dd364e43" y="103.013985"/>
     <use style="fill:#4c72b0;stroke:#4c72b0;" x="310.049703" xlink:href="#m68dd364e43" y="101.028464"/>
     <use style="fill:#4c72b0;stroke:#4c72b0;" x="312.09677" xlink:href="#m68dd364e43" y="101.028464"/>
     <use style="fill:#4c72b0;stroke:#4c72b0;" x="314.292031" xlink:href="#m68dd364e43" y="99.072273"/>
     <use style="fill:#4c72b0;stroke:#4c72b0;" x="316.662927" xlink:href="#m68dd364e43" y="98.684479"/>
     <use style="fill:#4c72b0;stroke:#4c72b0;" x="319.245534" xlink:href="#m68dd364e43" y="98.297816"/>
     <use style="fill:#4c72b0;stroke:#4c72b0;" x="322.088687" xlink:href="#m68dd364e43" y="94.117414"/>
     <use style="fill:#4c72b0;stroke:#4c72b0;" x="325.260906" xlink:href="#m68dd364e43" y="93.743841"/>
     <use style="fill:#4c72b0;stroke:#4c72b0;" x="328.862866" xlink:href="#m68dd364e43" y="91.524263"/>
     <use style="fill:#4c72b0;stroke:#4c72b0;" x="333.051712" xlink:href="#m68dd364e43" y="79.604373"/>
     <use style="fill:#4c72b0;stroke:#4c72b0;" x="338.094262" xlink:href="#m68dd364e43" y="75.316046"/>
     <use style="fill:#4c72b0;stroke:#4c72b0;" x="344.50392" xlink:href="#m68dd364e43" y="74.668457"/>
     <use style="fill:#4c72b0;stroke:#4c72b0;" x="353.499476" xlink:href="#m68dd364e43" y="72.10931"/>
     <use style="fill:#4c72b0;stroke:#4c72b0;" x="369.389006" xlink:href="#m68dd364e43" y="32.201761"/>
    </g>
   </g>
   <g id="line2d_18">
    <path clip-path="url(#p961aa2cc6b)" d="M 65.025369 220.68304 
L 369.389006 68.083327 
L 369.389006 68.083327 
" style="fill:none;stroke:#c44e52;stroke-linecap:round;stroke-width:1.5;"/>
   </g>
   <g id="patch_3">
    <path d="M 49.807188 239.758125 
L 49.807188 22.318125 
" style="fill:none;stroke:#ffffff;stroke-linecap:square;stroke-linejoin:miter;stroke-width:1.25;"/>
   </g>
   <g id="patch_4">
    <path d="M 384.607188 239.758125 
L 384.607188 22.318125 
" style="fill:none;stroke:#ffffff;stroke-linecap:square;stroke-linejoin:miter;stroke-width:1.25;"/>
   </g>
   <g id="patch_5">
    <path d="M 49.807187 239.758125 
L 384.607188 239.758125 
" style="fill:none;stroke:#ffffff;stroke-linecap:square;stroke-linejoin:miter;stroke-width:1.25;"/>
   </g>
   <g id="patch_6">
    <path d="M 49.807187 22.318125 
L 384.607188 22.318125 
" style="fill:none;stroke:#ffffff;stroke-linecap:square;stroke-linejoin:miter;stroke-width:1.25;"/>
   </g>
   <g id="text_19">
    <!-- Probability Plot -->
    <g style="fill:#262626;" transform="translate(172.2775 16.318125)scale(0.12 -0.12)">
     <defs>
      <path d="M 19.671875 64.796875 
L 19.671875 37.40625 
L 32.078125 37.40625 
Q 38.96875 37.40625 42.71875 40.96875 
Q 46.484375 44.53125 46.484375 51.125 
Q 46.484375 57.671875 42.71875 61.234375 
Q 38.96875 64.796875 32.078125 64.796875 
z
M 9.8125 72.90625 
L 32.078125 72.90625 
Q 44.34375 72.90625 50.609375 67.359375 
Q 56.890625 61.8125 56.890625 51.125 
Q 56.890625 40.328125 50.609375 34.8125 
Q 44.34375 29.296875 32.078125 29.296875 
L 19.671875 29.296875 
L 19.671875 0 
L 9.8125 0 
z
" id="DejaVuSans-80"/>
      <path d="M 48.6875 27.296875 
Q 48.6875 37.203125 44.609375 42.84375 
Q 40.53125 48.484375 33.40625 48.484375 
Q 26.265625 48.484375 22.1875 42.84375 
Q 18.109375 37.203125 18.109375 27.296875 
Q 18.109375 17.390625 22.1875 11.75 
Q 26.265625 6.109375 33.40625 6.109375 
Q 40.53125 6.109375 44.609375 11.75 
Q 48.6875 17.390625 48.6875 27.296875 
z
M 18.109375 46.390625 
Q 20.953125 51.265625 25.265625 53.625 
Q 29.59375 56 35.59375 56 
Q 45.5625 56 51.78125 48.09375 
Q 58.015625 40.1875 58.015625 27.296875 
Q 58.015625 14.40625 51.78125 6.484375 
Q 45.5625 -1.421875 35.59375 -1.421875 
Q 29.59375 -1.421875 25.265625 0.953125 
Q 20.953125 3.328125 18.109375 8.203125 
L 18.109375 0 
L 9.078125 0 
L 9.078125 75.984375 
L 18.109375 75.984375 
z
" id="DejaVuSans-98"/>
      <path d="M 32.171875 -5.078125 
Q 28.375 -14.84375 24.75 -17.8125 
Q 21.140625 -20.796875 15.09375 -20.796875 
L 7.90625 -20.796875 
L 7.90625 -13.28125 
L 13.1875 -13.28125 
Q 16.890625 -13.28125 18.9375 -11.515625 
Q 21 -9.765625 23.484375 -3.21875 
L 25.09375 0.875 
L 2.984375 54.6875 
L 12.5 54.6875 
L 29.59375 11.921875 
L 46.6875 54.6875 
L 56.203125 54.6875 
z
" id="DejaVuSans-121"/>
     </defs>
     <use xlink:href="#DejaVuSans-80"/>
     <use x="58.552734" xlink:href="#DejaVuSans-114"/>
     <use x="97.416016" xlink:href="#DejaVuSans-111"/>
     <use x="158.597656" xlink:href="#DejaVuSans-98"/>
     <use x="222.074219" xlink:href="#DejaVuSans-97"/>
     <use x="283.353516" xlink:href="#DejaVuSans-98"/>
     <use x="346.830078" xlink:href="#DejaVuSans-105"/>
     <use x="374.613281" xlink:href="#DejaVuSans-108"/>
     <use x="402.396484" xlink:href="#DejaVuSans-105"/>
     <use x="430.179688" xlink:href="#DejaVuSans-116"/>
     <use x="469.388672" xlink:href="#DejaVuSans-121"/>
     <use x="528.568359" xlink:href="#DejaVuSans-32"/>
     <use x="560.355469" xlink:href="#DejaVuSans-80"/>
     <use x="620.658203" xlink:href="#DejaVuSans-108"/>
     <use x="648.441406" xlink:href="#DejaVuSans-111"/>
     <use x="709.623047" xlink:href="#DejaVuSans-116"/>
    </g>
   </g>
  </g>
 </g>
 <defs>
  <clipPath id="p961aa2cc6b">
   <rect height="217.44" width="334.8" x="49.807188" y="22.318125"/>
  </clipPath>
 </defs>
</svg>
