<?xml version="1.0" encoding="utf-8" standalone="no"?>
<!DOCTYPE svg PUBLIC "-//W3C//DTD SVG 1.1//EN"
  "http://www.w3.org/Graphics/SVG/1.1/DTD/svg11.dtd">
<!-- Created with matplotlib (https://matplotlib.org/) -->
<svg height="223.177812pt" version="1.1" viewBox="0 0 908.138268 223.177812" width="908.138268pt" xmlns="http://www.w3.org/2000/svg" xmlns:xlink="http://www.w3.org/1999/xlink">
 <metadata>
  <rdf:RDF xmlns:cc="http://creativecommons.org/ns#" xmlns:dc="http://purl.org/dc/elements/1.1/" xmlns:rdf="http://www.w3.org/1999/02/22-rdf-syntax-ns#">
   <cc:Work>
    <dc:type rdf:resource="http://purl.org/dc/dcmitype/StillImage"/>
    <dc:date>2021-07-04T23:48:54.329212</dc:date>
    <dc:format>image/svg+xml</dc:format>
    <dc:creator>
     <cc:Agent>
      <dc:title>Matplotlib v3.3.4, https://matplotlib.org/</dc:title>
     </cc:Agent>
    </dc:creator>
   </cc:Work>
  </rdf:RDF>
 </metadata>
 <defs>
  <style type="text/css">*{stroke-linecap:butt;stroke-linejoin:round;}</style>
 </defs>
 <g id="figure_1">
  <g id="patch_1">
   <path d="M 0 223.177812 
L 908.138268 223.177812 
L 908.138268 0 
L 0 0 
z
" style="fill:none;"/>
  </g>
  <g id="axes_1">
   <g id="patch_2">
    <path d="M 41.192188 180.218125 
L 848.889018 180.218125 
L 848.889018 22.318125 
L 41.192188 22.318125 
z
" style="fill:#eaeaf2;"/>
   </g>
   <g id="matplotlib.axis_1">
    <g id="xtick_1">
     <g id="line2d_1">
      <path clip-path="url(#ped4c849e1e)" d="M 41.192188 180.218125 
L 41.192188 22.318125 
" style="fill:none;stroke:#ffffff;stroke-linecap:round;"/>
     </g>
     <g id="text_1">
      <!-- 0 -->
      <g style="fill:#262626;" transform="translate(37.692813 198.076406)scale(0.11 -0.11)">
       <defs>
        <path d="M 31.78125 66.40625 
Q 24.171875 66.40625 20.328125 58.90625 
Q 16.5 51.421875 16.5 36.375 
Q 16.5 21.390625 20.328125 13.890625 
Q 24.171875 6.390625 31.78125 6.390625 
Q 39.453125 6.390625 43.28125 13.890625 
Q 47.125 21.390625 47.125 36.375 
Q 47.125 51.421875 43.28125 58.90625 
Q 39.453125 66.40625 31.78125 66.40625 
z
M 31.78125 74.21875 
Q 44.046875 74.21875 50.515625 64.515625 
Q 56.984375 54.828125 56.984375 36.375 
Q 56.984375 17.96875 50.515625 8.265625 
Q 44.046875 -1.421875 31.78125 -1.421875 
Q 19.53125 -1.421875 13.0625 8.265625 
Q 6.59375 17.96875 6.59375 36.375 
Q 6.59375 54.828125 13.0625 64.515625 
Q 19.53125 74.21875 31.78125 74.21875 
z
" id="DejaVuSans-48"/>
       </defs>
       <use xlink:href="#DejaVuSans-48"/>
      </g>
     </g>
    </g>
    <g id="xtick_2">
     <g id="line2d_2">
      <path clip-path="url(#ped4c849e1e)" d="M 146.08788 180.218125 
L 146.08788 22.318125 
" style="fill:none;stroke:#ffffff;stroke-linecap:round;"/>
     </g>
     <g id="text_2">
      <!-- 10 -->
      <g style="fill:#262626;" transform="translate(139.08913 198.076406)scale(0.11 -0.11)">
       <defs>
        <path d="M 12.40625 8.296875 
L 28.515625 8.296875 
L 28.515625 63.921875 
L 10.984375 60.40625 
L 10.984375 69.390625 
L 28.421875 72.90625 
L 38.28125 72.90625 
L 38.28125 8.296875 
L 54.390625 8.296875 
L 54.390625 0 
L 12.40625 0 
z
" id="DejaVuSans-49"/>
       </defs>
       <use xlink:href="#DejaVuSans-49"/>
       <use x="63.623047" xlink:href="#DejaVuSans-48"/>
      </g>
     </g>
    </g>
    <g id="xtick_3">
     <g id="line2d_3">
      <path clip-path="url(#ped4c849e1e)" d="M 250.983572 180.218125 
L 250.983572 22.318125 
" style="fill:none;stroke:#ffffff;stroke-linecap:round;"/>
     </g>
     <g id="text_3">
      <!-- 20 -->
      <g style="fill:#262626;" transform="translate(243.984822 198.076406)scale(0.11 -0.11)">
       <defs>
        <path d="M 19.1875 8.296875 
L 53.609375 8.296875 
L 53.609375 0 
L 7.328125 0 
L 7.328125 8.296875 
Q 12.9375 14.109375 22.625 23.890625 
Q 32.328125 33.6875 34.8125 36.53125 
Q 39.546875 41.84375 41.421875 45.53125 
Q 43.3125 49.21875 43.3125 52.78125 
Q 43.3125 58.59375 39.234375 62.25 
Q 35.15625 65.921875 28.609375 65.921875 
Q 23.96875 65.921875 18.8125 64.3125 
Q 13.671875 62.703125 7.8125 59.421875 
L 7.8125 69.390625 
Q 13.765625 71.78125 18.9375 73 
Q 24.125 74.21875 28.421875 74.21875 
Q 39.75 74.21875 46.484375 68.546875 
Q 53.21875 62.890625 53.21875 53.421875 
Q 53.21875 48.921875 51.53125 44.890625 
Q 49.859375 40.875 45.40625 35.40625 
Q 44.1875 33.984375 37.640625 27.21875 
Q 31.109375 20.453125 19.1875 8.296875 
z
" id="DejaVuSans-50"/>
       </defs>
       <use xlink:href="#DejaVuSans-50"/>
       <use x="63.623047" xlink:href="#DejaVuSans-48"/>
      </g>
     </g>
    </g>
    <g id="xtick_4">
     <g id="line2d_4">
      <path clip-path="url(#ped4c849e1e)" d="M 355.879264 180.218125 
L 355.879264 22.318125 
" style="fill:none;stroke:#ffffff;stroke-linecap:round;"/>
     </g>
     <g id="text_4">
      <!-- 30 -->
      <g style="fill:#262626;" transform="translate(348.880514 198.076406)scale(0.11 -0.11)">
       <defs>
        <path d="M 40.578125 39.3125 
Q 47.65625 37.796875 51.625 33 
Q 55.609375 28.21875 55.609375 21.1875 
Q 55.609375 10.40625 48.1875 4.484375 
Q 40.765625 -1.421875 27.09375 -1.421875 
Q 22.515625 -1.421875 17.65625 -0.515625 
Q 12.796875 0.390625 7.625 2.203125 
L 7.625 11.71875 
Q 11.71875 9.328125 16.59375 8.109375 
Q 21.484375 6.890625 26.8125 6.890625 
Q 36.078125 6.890625 40.9375 10.546875 
Q 45.796875 14.203125 45.796875 21.1875 
Q 45.796875 27.640625 41.28125 31.265625 
Q 36.765625 34.90625 28.71875 34.90625 
L 20.21875 34.90625 
L 20.21875 43.015625 
L 29.109375 43.015625 
Q 36.375 43.015625 40.234375 45.921875 
Q 44.09375 48.828125 44.09375 54.296875 
Q 44.09375 59.90625 40.109375 62.90625 
Q 36.140625 65.921875 28.71875 65.921875 
Q 24.65625 65.921875 20.015625 65.03125 
Q 15.375 64.15625 9.8125 62.3125 
L 9.8125 71.09375 
Q 15.4375 72.65625 20.34375 73.4375 
Q 25.25 74.21875 29.59375 74.21875 
Q 40.828125 74.21875 47.359375 69.109375 
Q 53.90625 64.015625 53.90625 55.328125 
Q 53.90625 49.265625 50.4375 45.09375 
Q 46.96875 40.921875 40.578125 39.3125 
z
" id="DejaVuSans-51"/>
       </defs>
       <use xlink:href="#DejaVuSans-51"/>
       <use x="63.623047" xlink:href="#DejaVuSans-48"/>
      </g>
     </g>
    </g>
    <g id="xtick_5">
     <g id="line2d_5">
      <path clip-path="url(#ped4c849e1e)" d="M 460.774956 180.218125 
L 460.774956 22.318125 
" style="fill:none;stroke:#ffffff;stroke-linecap:round;"/>
     </g>
     <g id="text_5">
      <!-- 40 -->
      <g style="fill:#262626;" transform="translate(453.776206 198.076406)scale(0.11 -0.11)">
       <defs>
        <path d="M 37.796875 64.3125 
L 12.890625 25.390625 
L 37.796875 25.390625 
z
M 35.203125 72.90625 
L 47.609375 72.90625 
L 47.609375 25.390625 
L 58.015625 25.390625 
L 58.015625 17.1875 
L 47.609375 17.1875 
L 47.609375 0 
L 37.796875 0 
L 37.796875 17.1875 
L 4.890625 17.1875 
L 4.890625 26.703125 
z
" id="DejaVuSans-52"/>
       </defs>
       <use xlink:href="#DejaVuSans-52"/>
       <use x="63.623047" xlink:href="#DejaVuSans-48"/>
      </g>
     </g>
    </g>
    <g id="xtick_6">
     <g id="line2d_6">
      <path clip-path="url(#ped4c849e1e)" d="M 565.670649 180.218125 
L 565.670649 22.318125 
" style="fill:none;stroke:#ffffff;stroke-linecap:round;"/>
     </g>
     <g id="text_6">
      <!-- 50 -->
      <g style="fill:#262626;" transform="translate(558.671899 198.076406)scale(0.11 -0.11)">
       <defs>
        <path d="M 10.796875 72.90625 
L 49.515625 72.90625 
L 49.515625 64.59375 
L 19.828125 64.59375 
L 19.828125 46.734375 
Q 21.96875 47.46875 24.109375 47.828125 
Q 26.265625 48.1875 28.421875 48.1875 
Q 40.625 48.1875 47.75 41.5 
Q 54.890625 34.8125 54.890625 23.390625 
Q 54.890625 11.625 47.5625 5.09375 
Q 40.234375 -1.421875 26.90625 -1.421875 
Q 22.3125 -1.421875 17.546875 -0.640625 
Q 12.796875 0.140625 7.71875 1.703125 
L 7.71875 11.625 
Q 12.109375 9.234375 16.796875 8.0625 
Q 21.484375 6.890625 26.703125 6.890625 
Q 35.15625 6.890625 40.078125 11.328125 
Q 45.015625 15.765625 45.015625 23.390625 
Q 45.015625 31 40.078125 35.4375 
Q 35.15625 39.890625 26.703125 39.890625 
Q 22.75 39.890625 18.8125 39.015625 
Q 14.890625 38.140625 10.796875 36.28125 
z
" id="DejaVuSans-53"/>
       </defs>
       <use xlink:href="#DejaVuSans-53"/>
       <use x="63.623047" xlink:href="#DejaVuSans-48"/>
      </g>
     </g>
    </g>
    <g id="xtick_7">
     <g id="line2d_7">
      <path clip-path="url(#ped4c849e1e)" d="M 670.566341 180.218125 
L 670.566341 22.318125 
" style="fill:none;stroke:#ffffff;stroke-linecap:round;"/>
     </g>
     <g id="text_7">
      <!-- 60 -->
      <g style="fill:#262626;" transform="translate(663.567591 198.076406)scale(0.11 -0.11)">
       <defs>
        <path d="M 33.015625 40.375 
Q 26.375 40.375 22.484375 35.828125 
Q 18.609375 31.296875 18.609375 23.390625 
Q 18.609375 15.53125 22.484375 10.953125 
Q 26.375 6.390625 33.015625 6.390625 
Q 39.65625 6.390625 43.53125 10.953125 
Q 47.40625 15.53125 47.40625 23.390625 
Q 47.40625 31.296875 43.53125 35.828125 
Q 39.65625 40.375 33.015625 40.375 
z
M 52.59375 71.296875 
L 52.59375 62.3125 
Q 48.875 64.0625 45.09375 64.984375 
Q 41.3125 65.921875 37.59375 65.921875 
Q 27.828125 65.921875 22.671875 59.328125 
Q 17.53125 52.734375 16.796875 39.40625 
Q 19.671875 43.65625 24.015625 45.921875 
Q 28.375 48.1875 33.59375 48.1875 
Q 44.578125 48.1875 50.953125 41.515625 
Q 57.328125 34.859375 57.328125 23.390625 
Q 57.328125 12.15625 50.6875 5.359375 
Q 44.046875 -1.421875 33.015625 -1.421875 
Q 20.359375 -1.421875 13.671875 8.265625 
Q 6.984375 17.96875 6.984375 36.375 
Q 6.984375 53.65625 15.1875 63.9375 
Q 23.390625 74.21875 37.203125 74.21875 
Q 40.921875 74.21875 44.703125 73.484375 
Q 48.484375 72.75 52.59375 71.296875 
z
" id="DejaVuSans-54"/>
       </defs>
       <use xlink:href="#DejaVuSans-54"/>
       <use x="63.623047" xlink:href="#DejaVuSans-48"/>
      </g>
     </g>
    </g>
    <g id="xtick_8">
     <g id="line2d_8">
      <path clip-path="url(#ped4c849e1e)" d="M 775.462033 180.218125 
L 775.462033 22.318125 
" style="fill:none;stroke:#ffffff;stroke-linecap:round;"/>
     </g>
     <g id="text_8">
      <!-- 70 -->
      <g style="fill:#262626;" transform="translate(768.463283 198.076406)scale(0.11 -0.11)">
       <defs>
        <path d="M 8.203125 72.90625 
L 55.078125 72.90625 
L 55.078125 68.703125 
L 28.609375 0 
L 18.3125 0 
L 43.21875 64.59375 
L 8.203125 64.59375 
z
" id="DejaVuSans-55"/>
       </defs>
       <use xlink:href="#DejaVuSans-55"/>
       <use x="63.623047" xlink:href="#DejaVuSans-48"/>
      </g>
     </g>
    </g>
    <g id="text_9">
     <!-- age -->
     <g style="fill:#262626;" transform="translate(433.86279 213.482187)scale(0.12 -0.12)">
      <defs>
       <path d="M 34.28125 27.484375 
Q 23.390625 27.484375 19.1875 25 
Q 14.984375 22.515625 14.984375 16.5 
Q 14.984375 11.71875 18.140625 8.90625 
Q 21.296875 6.109375 26.703125 6.109375 
Q 34.1875 6.109375 38.703125 11.40625 
Q 43.21875 16.703125 43.21875 25.484375 
L 43.21875 27.484375 
z
M 52.203125 31.203125 
L 52.203125 0 
L 43.21875 0 
L 43.21875 8.296875 
Q 40.140625 3.328125 35.546875 0.953125 
Q 30.953125 -1.421875 24.3125 -1.421875 
Q 15.921875 -1.421875 10.953125 3.296875 
Q 6 8.015625 6 15.921875 
Q 6 25.140625 12.171875 29.828125 
Q 18.359375 34.515625 30.609375 34.515625 
L 43.21875 34.515625 
L 43.21875 35.40625 
Q 43.21875 41.609375 39.140625 45 
Q 35.0625 48.390625 27.6875 48.390625 
Q 23 48.390625 18.546875 47.265625 
Q 14.109375 46.140625 10.015625 43.890625 
L 10.015625 52.203125 
Q 14.9375 54.109375 19.578125 55.046875 
Q 24.21875 56 28.609375 56 
Q 40.484375 56 46.34375 49.84375 
Q 52.203125 43.703125 52.203125 31.203125 
z
" id="DejaVuSans-97"/>
       <path d="M 45.40625 27.984375 
Q 45.40625 37.75 41.375 43.109375 
Q 37.359375 48.484375 30.078125 48.484375 
Q 22.859375 48.484375 18.828125 43.109375 
Q 14.796875 37.75 14.796875 27.984375 
Q 14.796875 18.265625 18.828125 12.890625 
Q 22.859375 7.515625 30.078125 7.515625 
Q 37.359375 7.515625 41.375 12.890625 
Q 45.40625 18.265625 45.40625 27.984375 
z
M 54.390625 6.78125 
Q 54.390625 -7.171875 48.1875 -13.984375 
Q 42 -20.796875 29.203125 -20.796875 
Q 24.46875 -20.796875 20.265625 -20.09375 
Q 16.0625 -19.390625 12.109375 -17.921875 
L 12.109375 -9.1875 
Q 16.0625 -11.328125 19.921875 -12.34375 
Q 23.78125 -13.375 27.78125 -13.375 
Q 36.625 -13.375 41.015625 -8.765625 
Q 45.40625 -4.15625 45.40625 5.171875 
L 45.40625 9.625 
Q 42.625 4.78125 38.28125 2.390625 
Q 33.9375 0 27.875 0 
Q 17.828125 0 11.671875 7.65625 
Q 5.515625 15.328125 5.515625 27.984375 
Q 5.515625 40.671875 11.671875 48.328125 
Q 17.828125 56 27.875 56 
Q 33.9375 56 38.28125 53.609375 
Q 42.625 51.21875 45.40625 46.390625 
L 45.40625 54.6875 
L 54.390625 54.6875 
z
" id="DejaVuSans-103"/>
       <path d="M 56.203125 29.59375 
L 56.203125 25.203125 
L 14.890625 25.203125 
Q 15.484375 15.921875 20.484375 11.0625 
Q 25.484375 6.203125 34.421875 6.203125 
Q 39.59375 6.203125 44.453125 7.46875 
Q 49.3125 8.734375 54.109375 11.28125 
L 54.109375 2.78125 
Q 49.265625 0.734375 44.1875 -0.34375 
Q 39.109375 -1.421875 33.890625 -1.421875 
Q 20.796875 -1.421875 13.15625 6.1875 
Q 5.515625 13.8125 5.515625 26.8125 
Q 5.515625 40.234375 12.765625 48.109375 
Q 20.015625 56 32.328125 56 
Q 43.359375 56 49.78125 48.890625 
Q 56.203125 41.796875 56.203125 29.59375 
z
M 47.21875 32.234375 
Q 47.125 39.59375 43.09375 43.984375 
Q 39.0625 48.390625 32.421875 48.390625 
Q 24.90625 48.390625 20.390625 44.140625 
Q 15.875 39.890625 15.1875 32.171875 
z
" id="DejaVuSans-101"/>
      </defs>
      <use xlink:href="#DejaVuSans-97"/>
      <use x="61.279297" xlink:href="#DejaVuSans-103"/>
      <use x="124.755859" xlink:href="#DejaVuSans-101"/>
     </g>
    </g>
   </g>
   <g id="matplotlib.axis_2">
    <g id="ytick_1">
     <g id="line2d_9">
      <path clip-path="url(#ped4c849e1e)" d="M 41.192188 180.218125 
L 848.889018 180.218125 
" style="fill:none;stroke:#ffffff;stroke-linecap:round;"/>
     </g>
     <g id="text_10">
      <!-- 0.00 -->
      <g style="fill:#262626;" transform="translate(7.2 184.397266)scale(0.11 -0.11)">
       <defs>
        <path d="M 10.6875 12.40625 
L 21 12.40625 
L 21 0 
L 10.6875 0 
z
" id="DejaVuSans-46"/>
       </defs>
       <use xlink:href="#DejaVuSans-48"/>
       <use x="63.623047" xlink:href="#DejaVuSans-46"/>
       <use x="95.410156" xlink:href="#DejaVuSans-48"/>
       <use x="159.033203" xlink:href="#DejaVuSans-48"/>
      </g>
     </g>
    </g>
    <g id="ytick_2">
     <g id="line2d_10">
      <path clip-path="url(#ped4c849e1e)" d="M 41.192188 153.451218 
L 848.889018 153.451218 
" style="fill:none;stroke:#ffffff;stroke-linecap:round;"/>
     </g>
     <g id="text_11">
      <!-- 0.01 -->
      <g style="fill:#262626;" transform="translate(7.2 157.630359)scale(0.11 -0.11)">
       <use xlink:href="#DejaVuSans-48"/>
       <use x="63.623047" xlink:href="#DejaVuSans-46"/>
       <use x="95.410156" xlink:href="#DejaVuSans-48"/>
       <use x="159.033203" xlink:href="#DejaVuSans-49"/>
      </g>
     </g>
    </g>
    <g id="ytick_3">
     <g id="line2d_11">
      <path clip-path="url(#ped4c849e1e)" d="M 41.192188 126.684312 
L 848.889018 126.684312 
" style="fill:none;stroke:#ffffff;stroke-linecap:round;"/>
     </g>
     <g id="text_12">
      <!-- 0.02 -->
      <g style="fill:#262626;" transform="translate(7.2 130.863452)scale(0.11 -0.11)">
       <use xlink:href="#DejaVuSans-48"/>
       <use x="63.623047" xlink:href="#DejaVuSans-46"/>
       <use x="95.410156" xlink:href="#DejaVuSans-48"/>
       <use x="159.033203" xlink:href="#DejaVuSans-50"/>
      </g>
     </g>
    </g>
    <g id="ytick_4">
     <g id="line2d_12">
      <path clip-path="url(#ped4c849e1e)" d="M 41.192188 99.917405 
L 848.889018 99.917405 
" style="fill:none;stroke:#ffffff;stroke-linecap:round;"/>
     </g>
     <g id="text_13">
      <!-- 0.03 -->
      <g style="fill:#262626;" transform="translate(7.2 104.096546)scale(0.11 -0.11)">
       <use xlink:href="#DejaVuSans-48"/>
       <use x="63.623047" xlink:href="#DejaVuSans-46"/>
       <use x="95.410156" xlink:href="#DejaVuSans-48"/>
       <use x="159.033203" xlink:href="#DejaVuSans-51"/>
      </g>
     </g>
    </g>
    <g id="ytick_5">
     <g id="line2d_13">
      <path clip-path="url(#ped4c849e1e)" d="M 41.192188 73.150498 
L 848.889018 73.150498 
" style="fill:none;stroke:#ffffff;stroke-linecap:round;"/>
     </g>
     <g id="text_14">
      <!-- 0.04 -->
      <g style="fill:#262626;" transform="translate(7.2 77.329639)scale(0.11 -0.11)">
       <use xlink:href="#DejaVuSans-48"/>
       <use x="63.623047" xlink:href="#DejaVuSans-46"/>
       <use x="95.410156" xlink:href="#DejaVuSans-48"/>
       <use x="159.033203" xlink:href="#DejaVuSans-52"/>
      </g>
     </g>
    </g>
    <g id="ytick_6">
     <g id="line2d_14">
      <path clip-path="url(#ped4c849e1e)" d="M 41.192188 46.383591 
L 848.889018 46.383591 
" style="fill:none;stroke:#ffffff;stroke-linecap:round;"/>
     </g>
     <g id="text_15">
      <!-- 0.05 -->
      <g style="fill:#262626;" transform="translate(7.2 50.562732)scale(0.11 -0.11)">
       <use xlink:href="#DejaVuSans-48"/>
       <use x="63.623047" xlink:href="#DejaVuSans-46"/>
       <use x="95.410156" xlink:href="#DejaVuSans-48"/>
       <use x="159.033203" xlink:href="#DejaVuSans-53"/>
      </g>
     </g>
    </g>
   </g>
   <g id="PolyCollection_1">
    <defs>
     <path d="M 314.801681 -43.018684 
L 314.801681 -42.959688 
L 317.955514 -42.959688 
L 321.109347 -42.959688 
L 324.26318 -42.959688 
L 327.417013 -42.959688 
L 330.570846 -42.959688 
L 333.724679 -42.959688 
L 336.878512 -42.959688 
L 340.032345 -42.959688 
L 343.186178 -42.959688 
L 346.340011 -42.959688 
L 349.493844 -42.959688 
L 352.647677 -42.959688 
L 355.80151 -42.959688 
L 358.955343 -42.959688 
L 362.109176 -42.959688 
L 365.263009 -42.959688 
L 368.416842 -42.959688 
L 371.570675 -42.959688 
L 374.724508 -42.959688 
L 377.878341 -42.959688 
L 381.032174 -42.959688 
L 384.186007 -42.959688 
L 387.33984 -42.959688 
L 390.493673 -42.959688 
L 393.647506 -42.959688 
L 396.801339 -42.959688 
L 399.955172 -42.959688 
L 403.109005 -42.959688 
L 406.262838 -42.959688 
L 409.416671 -42.959688 
L 412.570504 -42.959688 
L 415.724337 -42.959688 
L 418.87817 -42.959688 
L 422.032003 -42.959688 
L 425.185836 -42.959688 
L 428.339669 -42.959688 
L 431.493502 -42.959688 
L 434.647335 -42.959688 
L 437.801168 -42.959688 
L 440.955001 -42.959688 
L 444.108834 -42.959688 
L 447.262667 -42.959688 
L 450.4165 -42.959688 
L 453.570333 -42.959688 
L 456.724166 -42.959688 
L 459.877999 -42.959688 
L 463.031832 -42.959688 
L 466.185665 -42.959688 
L 469.339498 -42.959688 
L 472.493331 -42.959688 
L 475.647164 -42.959688 
L 478.800997 -42.959688 
L 481.95483 -42.959688 
L 485.108663 -42.959688 
L 488.262496 -42.959688 
L 491.416329 -42.959688 
L 494.570162 -42.959688 
L 497.723995 -42.959688 
L 500.877828 -42.959688 
L 504.031661 -42.959688 
L 507.185493 -42.959688 
L 510.339326 -42.959688 
L 513.493159 -42.959688 
L 516.646992 -42.959688 
L 519.800825 -42.959688 
L 522.954658 -42.959688 
L 526.108491 -42.959688 
L 529.262324 -42.959688 
L 532.416157 -42.959688 
L 535.56999 -42.959688 
L 538.723823 -42.959688 
L 541.877656 -42.959688 
L 545.031489 -42.959688 
L 548.185322 -42.959688 
L 551.339155 -42.959688 
L 554.492988 -42.959688 
L 557.646821 -42.959688 
L 560.800654 -42.959688 
L 563.954487 -42.959688 
L 567.10832 -42.959688 
L 570.262153 -42.959688 
L 573.415986 -42.959688 
L 576.569819 -42.959688 
L 579.723652 -42.959688 
L 582.877485 -42.959688 
L 586.031318 -42.959688 
L 589.185151 -42.959688 
L 592.338984 -42.959688 
L 595.492817 -42.959688 
L 598.64665 -42.959688 
L 601.800483 -42.959688 
L 604.954316 -42.959688 
L 608.108149 -42.959688 
L 611.261982 -42.959688 
L 614.415815 -42.959688 
L 617.569648 -42.959688 
L 620.723481 -42.959688 
L 623.877314 -42.959688 
L 627.031147 -42.959688 
L 630.18498 -42.959688 
L 633.338813 -42.959688 
L 636.492646 -42.959688 
L 639.646479 -42.959688 
L 642.800312 -42.959688 
L 645.954145 -42.959688 
L 649.107978 -42.959688 
L 652.261811 -42.959688 
L 655.415644 -42.959688 
L 658.569477 -42.959688 
L 661.72331 -42.959688 
L 664.877143 -42.959688 
L 668.030976 -42.959688 
L 671.184809 -42.959688 
L 674.338642 -42.959688 
L 677.492475 -42.959688 
L 680.646308 -42.959688 
L 683.800141 -42.959688 
L 686.953974 -42.959688 
L 690.107807 -42.959688 
L 693.26164 -42.959688 
L 696.415473 -42.959688 
L 699.569306 -42.959688 
L 702.723139 -42.959688 
L 705.876972 -42.959688 
L 709.030805 -42.959688 
L 712.184638 -42.959688 
L 715.338471 -42.959688 
L 718.492304 -42.959688 
L 721.646137 -42.959688 
L 724.79997 -42.959688 
L 727.953803 -42.959688 
L 731.107636 -42.959688 
L 734.261469 -42.959688 
L 737.415302 -42.959688 
L 740.569135 -42.959688 
L 743.722968 -42.959688 
L 746.876801 -42.959688 
L 750.030634 -42.959688 
L 753.184467 -42.959688 
L 756.3383 -42.959688 
L 759.492133 -42.959688 
L 762.645966 -42.959688 
L 765.799799 -42.959688 
L 768.953632 -42.959688 
L 772.107465 -42.959688 
L 775.261298 -42.959688 
L 778.415131 -42.959688 
L 781.568964 -42.959688 
L 784.722797 -42.959688 
L 787.87663 -42.959688 
L 791.030463 -42.959688 
L 794.184296 -42.959688 
L 797.338129 -42.959688 
L 800.491962 -42.959688 
L 803.645795 -42.959688 
L 806.799628 -42.959688 
L 809.953461 -42.959688 
L 813.107294 -42.959688 
L 816.261127 -42.959688 
L 819.41496 -42.959688 
L 822.568793 -42.959688 
L 825.722626 -42.959688 
L 828.876459 -42.959688 
L 832.030292 -42.959688 
L 835.184125 -42.959688 
L 838.337958 -42.959688 
L 841.491791 -42.959688 
L 844.645624 -42.959688 
L 847.799457 -42.959688 
L 850.95329 -42.959688 
L 854.107123 -42.959688 
L 857.260956 -42.959688 
L 860.414789 -42.959688 
L 863.568622 -42.959688 
L 866.722455 -42.959688 
L 869.876288 -42.959688 
L 873.030121 -42.959688 
L 876.183954 -42.959688 
L 879.337787 -42.959688 
L 882.49162 -42.959688 
L 885.645453 -42.959688 
L 888.799286 -42.959688 
L 891.953119 -42.959688 
L 895.106952 -42.959688 
L 898.260785 -42.959688 
L 901.414618 -42.959688 
L 904.568451 -42.959688 
L 907.722284 -42.959688 
L 910.876117 -42.959688 
L 914.02995 -42.959688 
L 917.183783 -42.959688 
L 920.337616 -42.959688 
L 923.491449 -42.959688 
L 926.645282 -42.959688 
L 929.799115 -42.959688 
L 932.952948 -42.959688 
L 936.106781 -42.959688 
L 939.260614 -42.959688 
L 942.414447 -42.959688 
L 942.414447 -42.988616 
L 942.414447 -42.988616 
L 939.260614 -42.998676 
L 936.106781 -43.011699 
L 932.952948 -43.028367 
L 929.799115 -43.049454 
L 926.645282 -43.075826 
L 923.491449 -43.108419 
L 920.337616 -43.148229 
L 917.183783 -43.196273 
L 914.02995 -43.253558 
L 910.876117 -43.32103 
L 907.722284 -43.39952 
L 904.568451 -43.489687 
L 901.414618 -43.591956 
L 898.260785 -43.706459 
L 895.106952 -43.83299 
L 891.953119 -43.970962 
L 888.799286 -44.119399 
L 885.645453 -44.27694 
L 882.49162 -44.441881 
L 879.337787 -44.612254 
L 876.183954 -44.785932 
L 873.030121 -44.960779 
L 869.876288 -45.134832 
L 866.722455 -45.306503 
L 863.568622 -45.474804 
L 860.414789 -45.639581 
L 857.260956 -45.801736 
L 854.107123 -45.963433 
L 850.95329 -46.128274 
L 847.799457 -46.30142 
L 844.645624 -46.489662 
L 841.491791 -46.701422 
L 838.337958 -46.946675 
L 835.184125 -47.23681 
L 832.030292 -47.584406 
L 828.876459 -48.002943 
L 825.722626 -48.506466 
L 822.568793 -49.10919 
L 819.41496 -49.825091 
L 816.261127 -50.667471 
L 813.107294 -51.648542 
L 809.953461 -52.779025 
L 806.799628 -54.067791 
L 803.645795 -55.52156 
L 800.491962 -57.144666 
L 797.338129 -58.9389 
L 794.184296 -60.903444 
L 791.030463 -63.034883 
L 787.87663 -65.327323 
L 784.722797 -67.772587 
L 781.568964 -70.360502 
L 778.415131 -73.079251 
L 775.261298 -75.915803 
L 772.107465 -78.856375 
L 768.953632 -81.886943 
L 765.799799 -84.993749 
L 762.645966 -88.163807 
L 759.492133 -91.385375 
L 756.3383 -94.648362 
L 753.184467 -97.944667 
L 750.030634 -101.268405 
L 746.876801 -104.616025 
L 743.722968 -107.986292 
L 740.569135 -111.380142 
L 737.415302 -114.800391 
L 734.261469 -118.251326 
L 731.107636 -121.738185 
L 727.953803 -125.266538 
L 724.79997 -128.841611 
L 721.646137 -132.467574 
L 718.492304 -136.146813 
L 715.338471 -139.879243 
L 712.184638 -143.66166 
L 709.030805 -147.487186 
L 705.876972 -151.344807 
L 702.723139 -155.219043 
L 699.569306 -159.089756 
L 696.415473 -162.932111 
L 693.26164 -166.716704 
L 690.107807 -170.40986 
L 686.953974 -173.974116 
L 683.800141 -177.368869 
L 680.646308 -180.551209 
L 677.492475 -183.476908 
L 674.338642 -186.101551 
L 671.184809 -188.381783 
L 668.030976 -190.276632 
L 664.877143 -191.74886 
L 661.72331 -192.766287 
L 658.569477 -193.30304 
L 655.415644 -193.34064 
L 652.261811 -192.868894 
L 649.107978 -191.886525 
L 645.954145 -190.401497 
L 642.800312 -188.43102 
L 639.646479 -186.001203 
L 636.492646 -183.146393 
L 633.338813 -179.9082 
L 630.18498 -176.334275 
L 627.031147 -172.476886 
L 623.877314 -168.391371 
L 620.723481 -164.134535 
L 617.569648 -159.763081 
L 614.415815 -155.332118 
L 611.261982 -150.893844 
L 608.108149 -146.496417 
L 604.954316 -142.183069 
L 601.800483 -137.991479 
L 598.64665 -133.953398 
L 595.492817 -130.094515 
L 592.338984 -126.434556 
L 589.185151 -122.987554 
L 586.031318 -119.762281 
L 582.877485 -116.762774 
L 579.723652 -113.988932 
L 576.569819 -111.437128 
L 573.415986 -109.10082 
L 570.262153 -106.971117 
L 567.10832 -105.037287 
L 563.954487 -103.287196 
L 560.800654 -101.707669 
L 557.646821 -100.284775 
L 554.492988 -99.004051 
L 551.339155 -97.850658 
L 548.185322 -96.809509 
L 545.031489 -95.865365 
L 541.877656 -95.002919 
L 538.723823 -94.20689 
L 535.56999 -93.462132 
L 532.416157 -92.753759 
L 529.262324 -92.067311 
L 526.108491 -91.38893 
L 522.954658 -90.705573 
L 519.800825 -90.005226 
L 516.646992 -89.277127 
L 513.493159 -88.511972 
L 510.339326 -87.702099 
L 507.185493 -86.841629 
L 504.031661 -85.926558 
L 500.877828 -84.954796 
L 497.723995 -83.926132 
L 494.570162 -82.842149 
L 491.416329 -81.706072 
L 488.262496 -80.522575 
L 485.108663 -79.297538 
L 481.95483 -78.037794 
L 478.800997 -76.750852 
L 475.647164 -75.444631 
L 472.493331 -74.127204 
L 469.339498 -72.806562 
L 466.185665 -71.490417 
L 463.031832 -70.186023 
L 459.877999 -68.900037 
L 456.724166 -67.638407 
L 453.570333 -66.406285 
L 450.4165 -65.207967 
L 447.262667 -64.046851 
L 444.108834 -62.925414 
L 440.955001 -61.845214 
L 437.801168 -60.806909 
L 434.647335 -59.810305 
L 431.493502 -58.854429 
L 428.339669 -57.937627 
L 425.185836 -57.057699 
L 422.032003 -56.212047 
L 418.87817 -55.397854 
L 415.724337 -54.612267 
L 412.570504 -53.852583 
L 409.416671 -53.116421 
L 406.262838 -52.401874 
L 403.109005 -51.707622 
L 399.955172 -51.033007 
L 396.801339 -50.378055 
L 393.647506 -49.743448 
L 390.493673 -49.13045 
L 387.33984 -48.540795 
L 384.186007 -47.976536 
L 381.032174 -47.439886 
L 377.878341 -46.933041 
L 374.724508 -46.45802 
L 371.570675 -46.01652 
L 368.416842 -45.609795 
L 365.263009 -45.238578 
L 362.109176 -44.903029 
L 358.955343 -44.602729 
L 355.80151 -44.336706 
L 352.647677 -44.103486 
L 349.493844 -43.901172 
L 346.340011 -43.72753 
L 343.186178 -43.580093 
L 340.032345 -43.456255 
L 336.878512 -43.353364 
L 333.724679 -43.268806 
L 330.570846 -43.20007 
L 327.417013 -43.144805 
L 324.26318 -43.100854 
L 321.109347 -43.066282 
L 317.955514 -43.039384 
L 314.801681 -43.018684 
z
" id="m1f87b23e56" style="stroke:#4c72b0;"/>
    </defs>
    <g clip-path="url(#ped4c849e1e)">
     <use style="fill:#4c72b0;fill-opacity:0.25;stroke:#4c72b0;" x="0" xlink:href="#m1f87b23e56" y="223.177812"/>
    </g>
   </g>
   <g id="PolyCollection_2">
    <defs>
     <path d="M 237.142891 -42.980826 
L 237.142891 -42.959688 
L 240.708234 -42.959688 
L 244.273578 -42.959688 
L 247.838921 -42.959688 
L 251.404265 -42.959688 
L 254.969608 -42.959688 
L 258.534952 -42.959688 
L 262.100295 -42.959688 
L 265.665639 -42.959688 
L 269.230982 -42.959688 
L 272.796326 -42.959688 
L 276.36167 -42.959688 
L 279.927013 -42.959688 
L 283.492357 -42.959688 
L 287.0577 -42.959688 
L 290.623044 -42.959688 
L 294.188387 -42.959688 
L 297.753731 -42.959688 
L 301.319074 -42.959688 
L 304.884418 -42.959688 
L 308.449761 -42.959688 
L 312.015105 -42.959688 
L 315.580448 -42.959688 
L 319.145792 -42.959688 
L 322.711135 -42.959688 
L 326.276479 -42.959688 
L 329.841822 -42.959688 
L 333.407166 -42.959688 
L 336.972509 -42.959688 
L 340.537853 -42.959688 
L 344.103197 -42.959688 
L 347.66854 -42.959688 
L 351.233884 -42.959688 
L 354.799227 -42.959688 
L 358.364571 -42.959688 
L 361.929914 -42.959688 
L 365.495258 -42.959688 
L 369.060601 -42.959688 
L 372.625945 -42.959688 
L 376.191288 -42.959688 
L 379.756632 -42.959688 
L 383.321975 -42.959688 
L 386.887319 -42.959688 
L 390.452662 -42.959688 
L 394.018006 -42.959688 
L 397.583349 -42.959688 
L 401.148693 -42.959688 
L 404.714036 -42.959688 
L 408.27938 -42.959688 
L 411.844724 -42.959688 
L 415.410067 -42.959688 
L 418.975411 -42.959688 
L 422.540754 -42.959688 
L 426.106098 -42.959688 
L 429.671441 -42.959688 
L 433.236785 -42.959688 
L 436.802128 -42.959688 
L 440.367472 -42.959688 
L 443.932815 -42.959688 
L 447.498159 -42.959688 
L 451.063502 -42.959688 
L 454.628846 -42.959688 
L 458.194189 -42.959688 
L 461.759533 -42.959688 
L 465.324876 -42.959688 
L 468.89022 -42.959688 
L 472.455563 -42.959688 
L 476.020907 -42.959688 
L 479.586251 -42.959688 
L 483.151594 -42.959688 
L 486.716938 -42.959688 
L 490.282281 -42.959688 
L 493.847625 -42.959688 
L 497.412968 -42.959688 
L 500.978312 -42.959688 
L 504.543655 -42.959688 
L 508.108999 -42.959688 
L 511.674342 -42.959688 
L 515.239686 -42.959688 
L 518.805029 -42.959688 
L 522.370373 -42.959688 
L 525.935716 -42.959688 
L 529.50106 -42.959688 
L 533.066403 -42.959688 
L 536.631747 -42.959688 
L 540.19709 -42.959688 
L 543.762434 -42.959688 
L 547.327778 -42.959688 
L 550.893121 -42.959688 
L 554.458465 -42.959688 
L 558.023808 -42.959688 
L 561.589152 -42.959688 
L 565.154495 -42.959688 
L 568.719839 -42.959688 
L 572.285182 -42.959688 
L 575.850526 -42.959688 
L 579.415869 -42.959688 
L 582.981213 -42.959688 
L 586.546556 -42.959688 
L 590.1119 -42.959688 
L 593.677243 -42.959688 
L 597.242587 -42.959688 
L 600.80793 -42.959688 
L 604.373274 -42.959688 
L 607.938617 -42.959688 
L 611.503961 -42.959688 
L 615.069305 -42.959688 
L 618.634648 -42.959688 
L 622.199992 -42.959688 
L 625.765335 -42.959688 
L 629.330679 -42.959688 
L 632.896022 -42.959688 
L 636.461366 -42.959688 
L 640.026709 -42.959688 
L 643.592053 -42.959688 
L 647.157396 -42.959688 
L 650.72274 -42.959688 
L 654.288083 -42.959688 
L 657.853427 -42.959688 
L 661.41877 -42.959688 
L 664.984114 -42.959688 
L 668.549457 -42.959688 
L 672.114801 -42.959688 
L 675.680144 -42.959688 
L 679.245488 -42.959688 
L 682.810832 -42.959688 
L 686.376175 -42.959688 
L 689.941519 -42.959688 
L 693.506862 -42.959688 
L 697.072206 -42.959688 
L 700.637549 -42.959688 
L 704.202893 -42.959688 
L 707.768236 -42.959688 
L 711.33358 -42.959688 
L 714.898923 -42.959688 
L 718.464267 -42.959688 
L 722.02961 -42.959688 
L 725.594954 -42.959688 
L 729.160297 -42.959688 
L 732.725641 -42.959688 
L 736.290984 -42.959688 
L 739.856328 -42.959688 
L 743.421671 -42.959688 
L 746.987015 -42.959688 
L 750.552358 -42.959688 
L 754.117702 -42.959688 
L 757.683046 -42.959688 
L 761.248389 -42.959688 
L 764.813733 -42.959688 
L 768.379076 -42.959688 
L 771.94442 -42.959688 
L 775.509763 -42.959688 
L 779.075107 -42.959688 
L 782.64045 -42.959688 
L 786.205794 -42.959688 
L 789.771137 -42.959688 
L 793.336481 -42.959688 
L 796.901824 -42.959688 
L 800.467168 -42.959688 
L 804.032511 -42.959688 
L 807.597855 -42.959688 
L 811.163198 -42.959688 
L 814.728542 -42.959688 
L 818.293885 -42.959688 
L 821.859229 -42.959688 
L 825.424573 -42.959688 
L 828.989916 -42.959688 
L 832.55526 -42.959688 
L 836.120603 -42.959688 
L 839.685947 -42.959688 
L 843.25129 -42.959688 
L 846.816634 -42.959688 
L 850.381977 -42.959688 
L 853.947321 -42.959688 
L 857.512664 -42.959688 
L 861.078008 -42.959688 
L 864.643351 -42.959688 
L 868.208695 -42.959688 
L 871.774038 -42.959688 
L 875.339382 -42.959688 
L 878.904725 -42.959688 
L 882.470069 -42.959688 
L 886.035412 -42.959688 
L 889.600756 -42.959688 
L 893.1661 -42.959688 
L 896.731443 -42.959688 
L 900.296787 -42.959688 
L 903.86213 -42.959688 
L 907.427474 -42.959688 
L 910.992817 -42.959688 
L 914.558161 -42.959688 
L 918.123504 -42.959688 
L 921.688848 -42.959688 
L 925.254191 -42.959688 
L 928.819535 -42.959688 
L 932.384878 -42.959688 
L 935.950222 -42.959688 
L 939.515565 -42.959688 
L 943.080909 -42.959688 
L 946.646252 -42.959688 
L 946.646252 -42.983991 
L 946.646252 -42.983991 
L 943.080909 -42.992531 
L 939.515565 -43.00367 
L 935.950222 -43.018058 
L 932.384878 -43.036461 
L 928.819535 -43.059774 
L 925.254191 -43.089022 
L 921.688848 -43.125368 
L 918.123504 -43.170107 
L 914.558161 -43.224663 
L 910.992817 -43.290579 
L 907.427474 -43.369497 
L 903.86213 -43.463141 
L 900.296787 -43.573293 
L 896.731443 -43.701765 
L 893.1661 -43.850375 
L 889.600756 -44.02092 
L 886.035412 -44.215157 
L 882.470069 -44.43479 
L 878.904725 -44.681462 
L 875.339382 -44.956763 
L 871.774038 -45.262246 
L 868.208695 -45.599447 
L 864.643351 -45.969931 
L 861.078008 -46.375325 
L 857.512664 -46.817372 
L 853.947321 -47.297975 
L 850.381977 -47.819236 
L 846.816634 -48.383489 
L 843.25129 -48.993318 
L 839.685947 -49.651552 
L 836.120603 -50.361248 
L 832.55526 -51.125641 
L 828.989916 -51.948083 
L 825.424573 -52.831951 
L 821.859229 -53.780551 
L 818.293885 -54.796992 
L 814.728542 -55.884067 
L 811.163198 -57.04412 
L 807.597855 -58.278912 
L 804.032511 -59.589499 
L 800.467168 -60.976103 
L 796.901824 -62.438004 
L 793.336481 -63.973432 
L 789.771137 -65.579477 
L 786.205794 -67.252015 
L 782.64045 -68.985642 
L 779.075107 -70.773644 
L 775.509763 -72.607987 
L 771.94442 -74.479347 
L 768.379076 -76.377189 
L 764.813733 -78.289897 
L 761.248389 -80.204967 
L 757.683046 -82.109269 
L 754.117702 -83.989382 
L 750.552358 -85.83199 
L 746.987015 -87.624343 
L 743.421671 -89.354752 
L 739.856328 -91.013111 
L 736.290984 -92.591408 
L 732.725641 -94.0842 
L 729.160297 -95.489017 
L 725.594954 -96.806651 
L 722.02961 -98.041322 
L 718.464267 -99.200682 
L 714.898923 -100.295642 
L 711.33358 -101.340032 
L 707.768236 -102.350084 
L 704.202893 -103.343778 
L 700.637549 -104.340069 
L 697.072206 -105.358045 
L 693.506862 -106.416057 
L 689.941519 -107.530878 
L 686.376175 -108.716936 
L 682.810832 -109.985663 
L 679.245488 -111.345 
L 675.680144 -112.799069 
L 672.114801 -114.348037 
L 668.549457 -115.988146 
L 664.984114 -117.711913 
L 661.41877 -119.508451 
L 657.853427 -121.363891 
L 654.288083 -123.261852 
L 650.72274 -125.183943 
L 647.157396 -127.110237 
L 643.592053 -129.019719 
L 640.026709 -130.890682 
L 636.461366 -132.701073 
L 632.896022 -134.428802 
L 629.330679 -136.052031 
L 625.765335 -137.549461 
L 622.199992 -138.900655 
L 618.634648 -140.086406 
L 615.069305 -141.089174 
L 611.503961 -141.893592 
L 607.938617 -142.487033 
L 604.373274 -142.860218 
L 600.80793 -143.007829 
L 597.242587 -142.929082 
L 593.677243 -142.628212 
L 590.1119 -142.114817 
L 586.546556 -141.404003 
L 582.981213 -140.516306 
L 579.415869 -139.47735 
L 575.850526 -138.317226 
L 572.285182 -137.069614 
L 568.719839 -135.770664 
L 565.154495 -134.457676 
L 561.589152 -133.16765 
L 558.023808 -131.935763 
L 554.458465 -130.793868 
L 550.893121 -129.769076 
L 547.327778 -128.882515 
L 543.762434 -128.148321 
L 540.19709 -127.572923 
L 536.631747 -127.154663 
L 533.066403 -126.883769 
L 529.50106 -126.742687 
L 525.935716 -126.706749 
L 522.370373 -126.745162 
L 518.805029 -126.822246 
L 515.239686 -126.898885 
L 511.674342 -126.934102 
L 508.108999 -126.886702 
L 504.543655 -126.716902 
L 500.978312 -126.387867 
L 497.412968 -125.867105 
L 493.847625 -125.127652 
L 490.282281 -124.148999 
L 486.716938 -122.917738 
L 483.151594 -121.427895 
L 479.586251 -119.680965 
L 476.020907 -117.685631 
L 472.455563 -115.457224 
L 468.89022 -113.016928 
L 465.324876 -110.390808 
L 461.759533 -107.608681 
L 458.194189 -104.702919 
L 454.628846 -101.707225 
L 451.063502 -98.655445 
L 447.498159 -95.580469 
L 443.932815 -92.513266 
L 440.367472 -89.482091 
L 436.802128 -86.511883 
L 433.236785 -83.623861 
L 429.671441 -80.835337 
L 426.106098 -78.159707 
L 422.540754 -75.606617 
L 418.975411 -73.182267 
L 415.410067 -70.889819 
L 411.844724 -68.729867 
L 408.27938 -66.700941 
L 404.714036 -64.8 
L 401.148693 -63.022896 
L 397.583349 -61.364776 
L 394.018006 -59.820409 
L 390.452662 -58.384438 
L 386.887319 -57.05155 
L 383.321975 -55.816569 
L 379.756632 -54.674498 
L 376.191288 -53.620501 
L 372.625945 -52.649865 
L 369.060601 -51.75795 
L 365.495258 -50.940132 
L 361.929914 -50.191765 
L 358.364571 -49.508166 
L 354.799227 -48.884618 
L 351.233884 -48.316402 
L 347.66854 -47.79885 
L 344.103197 -47.327408 
L 340.537853 -46.897711 
L 336.972509 -46.505656 
L 333.407166 -46.147462 
L 329.841822 -45.819725 
L 326.276479 -45.519443 
L 322.711135 -45.244027 
L 319.145792 -44.99129 
L 315.580448 -44.759415 
L 312.015105 -44.546912 
L 308.449761 -44.352561 
L 304.884418 -44.175349 
L 301.319074 -44.014412 
L 297.753731 -43.868978 
L 294.188387 -43.738316 
L 290.623044 -43.621695 
L 287.0577 -43.518362 
L 283.492357 -43.427519 
L 279.927013 -43.348323 
L 276.36167 -43.279884 
L 272.796326 -43.221279 
L 269.230982 -43.171565 
L 265.665639 -43.1298 
L 262.100295 -43.095055 
L 258.534952 -43.066439 
L 254.969608 -43.043107 
L 251.404265 -43.024276 
L 247.838921 -43.009233 
L 244.273578 -42.99734 
L 240.708234 -42.988033 
L 237.142891 -42.980826 
z
" id="mcef4489a15" style="stroke:#dd8452;"/>
    </defs>
    <g clip-path="url(#ped4c849e1e)">
     <use style="fill:#dd8452;fill-opacity:0.25;stroke:#dd8452;" x="0" xlink:href="#mcef4489a15" y="223.177812"/>
    </g>
   </g>
   <g id="patch_3">
    <path d="M 41.192188 180.218125 
L 41.192188 22.318125 
" style="fill:none;stroke:#ffffff;stroke-linecap:square;stroke-linejoin:miter;stroke-width:1.25;"/>
   </g>
   <g id="patch_4">
    <path d="M 41.192188 180.218125 
L 848.889018 180.218125 
" style="fill:none;stroke:#ffffff;stroke-linecap:square;stroke-linejoin:miter;stroke-width:1.25;"/>
   </g>
   <g id="text_16">
    <!-- Output: age -->
    <g style="fill:#262626;" transform="translate(409.093103 16.318125)scale(0.12 -0.12)">
     <defs>
      <path d="M 39.40625 66.21875 
Q 28.65625 66.21875 22.328125 58.203125 
Q 16.015625 50.203125 16.015625 36.375 
Q 16.015625 22.609375 22.328125 14.59375 
Q 28.65625 6.59375 39.40625 6.59375 
Q 50.140625 6.59375 56.421875 14.59375 
Q 62.703125 22.609375 62.703125 36.375 
Q 62.703125 50.203125 56.421875 58.203125 
Q 50.140625 66.21875 39.40625 66.21875 
z
M 39.40625 74.21875 
Q 54.734375 74.21875 63.90625 63.9375 
Q 73.09375 53.65625 73.09375 36.375 
Q 73.09375 19.140625 63.90625 8.859375 
Q 54.734375 -1.421875 39.40625 -1.421875 
Q 24.03125 -1.421875 14.8125 8.828125 
Q 5.609375 19.09375 5.609375 36.375 
Q 5.609375 53.65625 14.8125 63.9375 
Q 24.03125 74.21875 39.40625 74.21875 
z
" id="DejaVuSans-79"/>
      <path d="M 8.5 21.578125 
L 8.5 54.6875 
L 17.484375 54.6875 
L 17.484375 21.921875 
Q 17.484375 14.15625 20.5 10.265625 
Q 23.53125 6.390625 29.59375 6.390625 
Q 36.859375 6.390625 41.078125 11.03125 
Q 45.3125 15.671875 45.3125 23.6875 
L 45.3125 54.6875 
L 54.296875 54.6875 
L 54.296875 0 
L 45.3125 0 
L 45.3125 8.40625 
Q 42.046875 3.421875 37.71875 1 
Q 33.40625 -1.421875 27.6875 -1.421875 
Q 18.265625 -1.421875 13.375 4.4375 
Q 8.5 10.296875 8.5 21.578125 
z
M 31.109375 56 
z
" id="DejaVuSans-117"/>
      <path d="M 18.3125 70.21875 
L 18.3125 54.6875 
L 36.8125 54.6875 
L 36.8125 47.703125 
L 18.3125 47.703125 
L 18.3125 18.015625 
Q 18.3125 11.328125 20.140625 9.421875 
Q 21.96875 7.515625 27.59375 7.515625 
L 36.8125 7.515625 
L 36.8125 0 
L 27.59375 0 
Q 17.1875 0 13.234375 3.875 
Q 9.28125 7.765625 9.28125 18.015625 
L 9.28125 47.703125 
L 2.6875 47.703125 
L 2.6875 54.6875 
L 9.28125 54.6875 
L 9.28125 70.21875 
z
" id="DejaVuSans-116"/>
      <path d="M 18.109375 8.203125 
L 18.109375 -20.796875 
L 9.078125 -20.796875 
L 9.078125 54.6875 
L 18.109375 54.6875 
L 18.109375 46.390625 
Q 20.953125 51.265625 25.265625 53.625 
Q 29.59375 56 35.59375 56 
Q 45.5625 56 51.78125 48.09375 
Q 58.015625 40.1875 58.015625 27.296875 
Q 58.015625 14.40625 51.78125 6.484375 
Q 45.5625 -1.421875 35.59375 -1.421875 
Q 29.59375 -1.421875 25.265625 0.953125 
Q 20.953125 3.328125 18.109375 8.203125 
z
M 48.6875 27.296875 
Q 48.6875 37.203125 44.609375 42.84375 
Q 40.53125 48.484375 33.40625 48.484375 
Q 26.265625 48.484375 22.1875 42.84375 
Q 18.109375 37.203125 18.109375 27.296875 
Q 18.109375 17.390625 22.1875 11.75 
Q 26.265625 6.109375 33.40625 6.109375 
Q 40.53125 6.109375 44.609375 11.75 
Q 48.6875 17.390625 48.6875 27.296875 
z
" id="DejaVuSans-112"/>
      <path d="M 11.71875 12.40625 
L 22.015625 12.40625 
L 22.015625 0 
L 11.71875 0 
z
M 11.71875 51.703125 
L 22.015625 51.703125 
L 22.015625 39.3125 
L 11.71875 39.3125 
z
" id="DejaVuSans-58"/>
      <path id="DejaVuSans-32"/>
     </defs>
     <use xlink:href="#DejaVuSans-79"/>
     <use x="78.710938" xlink:href="#DejaVuSans-117"/>
     <use x="142.089844" xlink:href="#DejaVuSans-116"/>
     <use x="181.298828" xlink:href="#DejaVuSans-112"/>
     <use x="244.775391" xlink:href="#DejaVuSans-117"/>
     <use x="308.154297" xlink:href="#DejaVuSans-116"/>
     <use x="347.363281" xlink:href="#DejaVuSans-58"/>
     <use x="381.054688" xlink:href="#DejaVuSans-32"/>
     <use x="412.841797" xlink:href="#DejaVuSans-97"/>
     <use x="474.121094" xlink:href="#DejaVuSans-103"/>
     <use x="537.597656" xlink:href="#DejaVuSans-101"/>
    </g>
   </g>
  </g>
  <g id="legend_1">
   <g id="text_17">
    <!-- output -->
    <g style="fill:#262626;" transform="translate(858.658893 98.754219)scale(0.12 -0.12)">
     <defs>
      <path d="M 30.609375 48.390625 
Q 23.390625 48.390625 19.1875 42.75 
Q 14.984375 37.109375 14.984375 27.296875 
Q 14.984375 17.484375 19.15625 11.84375 
Q 23.34375 6.203125 30.609375 6.203125 
Q 37.796875 6.203125 41.984375 11.859375 
Q 46.1875 17.53125 46.1875 27.296875 
Q 46.1875 37.015625 41.984375 42.703125 
Q 37.796875 48.390625 30.609375 48.390625 
z
M 30.609375 56 
Q 42.328125 56 49.015625 48.375 
Q 55.71875 40.765625 55.71875 27.296875 
Q 55.71875 13.875 49.015625 6.21875 
Q 42.328125 -1.421875 30.609375 -1.421875 
Q 18.84375 -1.421875 12.171875 6.21875 
Q 5.515625 13.875 5.515625 27.296875 
Q 5.515625 40.765625 12.171875 48.375 
Q 18.84375 56 30.609375 56 
z
" id="DejaVuSans-111"/>
     </defs>
     <use xlink:href="#DejaVuSans-111"/>
     <use x="61.181641" xlink:href="#DejaVuSans-117"/>
     <use x="124.560547" xlink:href="#DejaVuSans-116"/>
     <use x="163.769531" xlink:href="#DejaVuSans-112"/>
     <use x="227.246094" xlink:href="#DejaVuSans-117"/>
     <use x="290.625" xlink:href="#DejaVuSans-116"/>
    </g>
   </g>
   <g id="patch_5">
    <path d="M 859.549205 115.108125 
L 881.549205 115.108125 
L 881.549205 107.408125 
L 859.549205 107.408125 
z
" style="fill:#4c72b0;fill-opacity:0.25;stroke:#4c72b0;stroke-linejoin:miter;"/>
   </g>
   <g id="text_18">
    <!-- 0 -->
    <g style="fill:#262626;" transform="translate(890.349205 115.108125)scale(0.11 -0.11)">
     <use xlink:href="#DejaVuSans-48"/>
    </g>
   </g>
   <g id="patch_6">
    <path d="M 859.549205 131.254063 
L 881.549205 131.254063 
L 881.549205 123.554063 
L 859.549205 123.554063 
z
" style="fill:#dd8452;fill-opacity:0.25;stroke:#dd8452;stroke-linejoin:miter;"/>
   </g>
   <g id="text_19">
    <!-- 1 -->
    <g style="fill:#262626;" transform="translate(890.349205 131.254063)scale(0.11 -0.11)">
     <use xlink:href="#DejaVuSans-49"/>
    </g>
   </g>
  </g>
 </g>
 <defs>
  <clipPath id="ped4c849e1e">
   <rect height="157.9" width="807.69683" x="41.192188" y="22.318125"/>
  </clipPath>
 </defs>
</svg>
