<?xml version="1.0" encoding="utf-8" standalone="no"?>
<!DOCTYPE svg PUBLIC "-//W3C//DTD SVG 1.1//EN"
  "http://www.w3.org/Graphics/SVG/1.1/DTD/svg11.dtd">
<!-- Created with matplotlib (https://matplotlib.org/) -->
<svg height="223.177812pt" version="1.1" viewBox="0 0 908.53185 223.177812" width="908.53185pt" xmlns="http://www.w3.org/2000/svg" xmlns:xlink="http://www.w3.org/1999/xlink">
 <metadata>
  <rdf:RDF xmlns:cc="http://creativecommons.org/ns#" xmlns:dc="http://purl.org/dc/elements/1.1/" xmlns:rdf="http://www.w3.org/1999/02/22-rdf-syntax-ns#">
   <cc:Work>
    <dc:type rdf:resource="http://purl.org/dc/dcmitype/StillImage"/>
    <dc:date>2021-07-04T23:48:54.896953</dc:date>
    <dc:format>image/svg+xml</dc:format>
    <dc:creator>
     <cc:Agent>
      <dc:title>Matplotlib v3.3.4, https://matplotlib.org/</dc:title>
     </cc:Agent>
    </dc:creator>
   </cc:Work>
  </rdf:RDF>
 </metadata>
 <defs>
  <style type="text/css">*{stroke-linecap:butt;stroke-linejoin:round;}</style>
 </defs>
 <g id="figure_1">
  <g id="patch_1">
   <path d="M 0 223.177812 
L 908.53185 223.177812 
L 908.53185 0 
L 0 0 
z
" style="fill:none;"/>
  </g>
  <g id="axes_1">
   <g id="patch_2">
    <path d="M 34.193438 180.218125 
L 849.2826 180.218125 
L 849.2826 22.318125 
L 34.193438 22.318125 
z
" style="fill:#eaeaf2;"/>
   </g>
   <g id="matplotlib.axis_1">
    <g id="xtick_1">
     <g id="line2d_1">
      <path clip-path="url(#pabe1225f2c)" d="M 34.193438 180.218125 
L 34.193438 22.318125 
" style="fill:none;stroke:#ffffff;stroke-linecap:round;"/>
     </g>
     <g id="text_1">
      <!-- 0.0 -->
      <g style="fill:#262626;" transform="translate(25.446719 198.076406)scale(0.11 -0.11)">
       <defs>
        <path d="M 31.78125 66.40625 
Q 24.171875 66.40625 20.328125 58.90625 
Q 16.5 51.421875 16.5 36.375 
Q 16.5 21.390625 20.328125 13.890625 
Q 24.171875 6.390625 31.78125 6.390625 
Q 39.453125 6.390625 43.28125 13.890625 
Q 47.125 21.390625 47.125 36.375 
Q 47.125 51.421875 43.28125 58.90625 
Q 39.453125 66.40625 31.78125 66.40625 
z
M 31.78125 74.21875 
Q 44.046875 74.21875 50.515625 64.515625 
Q 56.984375 54.828125 56.984375 36.375 
Q 56.984375 17.96875 50.515625 8.265625 
Q 44.046875 -1.421875 31.78125 -1.421875 
Q 19.53125 -1.421875 13.0625 8.265625 
Q 6.59375 17.96875 6.59375 36.375 
Q 6.59375 54.828125 13.0625 64.515625 
Q 19.53125 74.21875 31.78125 74.21875 
z
" id="DejaVuSans-48"/>
        <path d="M 10.6875 12.40625 
L 21 12.40625 
L 21 0 
L 10.6875 0 
z
" id="DejaVuSans-46"/>
       </defs>
       <use xlink:href="#DejaVuSans-48"/>
       <use x="63.623047" xlink:href="#DejaVuSans-46"/>
       <use x="95.410156" xlink:href="#DejaVuSans-48"/>
      </g>
     </g>
    </g>
    <g id="xtick_2">
     <g id="line2d_2">
      <path clip-path="url(#pabe1225f2c)" d="M 170.041631 180.218125 
L 170.041631 22.318125 
" style="fill:none;stroke:#ffffff;stroke-linecap:round;"/>
     </g>
     <g id="text_2">
      <!-- 0.5 -->
      <g style="fill:#262626;" transform="translate(161.294912 198.076406)scale(0.11 -0.11)">
       <defs>
        <path d="M 10.796875 72.90625 
L 49.515625 72.90625 
L 49.515625 64.59375 
L 19.828125 64.59375 
L 19.828125 46.734375 
Q 21.96875 47.46875 24.109375 47.828125 
Q 26.265625 48.1875 28.421875 48.1875 
Q 40.625 48.1875 47.75 41.5 
Q 54.890625 34.8125 54.890625 23.390625 
Q 54.890625 11.625 47.5625 5.09375 
Q 40.234375 -1.421875 26.90625 -1.421875 
Q 22.3125 -1.421875 17.546875 -0.640625 
Q 12.796875 0.140625 7.71875 1.703125 
L 7.71875 11.625 
Q 12.109375 9.234375 16.796875 8.0625 
Q 21.484375 6.890625 26.703125 6.890625 
Q 35.15625 6.890625 40.078125 11.328125 
Q 45.015625 15.765625 45.015625 23.390625 
Q 45.015625 31 40.078125 35.4375 
Q 35.15625 39.890625 26.703125 39.890625 
Q 22.75 39.890625 18.8125 39.015625 
Q 14.890625 38.140625 10.796875 36.28125 
z
" id="DejaVuSans-53"/>
       </defs>
       <use xlink:href="#DejaVuSans-48"/>
       <use x="63.623047" xlink:href="#DejaVuSans-46"/>
       <use x="95.410156" xlink:href="#DejaVuSans-53"/>
      </g>
     </g>
    </g>
    <g id="xtick_3">
     <g id="line2d_3">
      <path clip-path="url(#pabe1225f2c)" d="M 305.889825 180.218125 
L 305.889825 22.318125 
" style="fill:none;stroke:#ffffff;stroke-linecap:round;"/>
     </g>
     <g id="text_3">
      <!-- 1.0 -->
      <g style="fill:#262626;" transform="translate(297.143106 198.076406)scale(0.11 -0.11)">
       <defs>
        <path d="M 12.40625 8.296875 
L 28.515625 8.296875 
L 28.515625 63.921875 
L 10.984375 60.40625 
L 10.984375 69.390625 
L 28.421875 72.90625 
L 38.28125 72.90625 
L 38.28125 8.296875 
L 54.390625 8.296875 
L 54.390625 0 
L 12.40625 0 
z
" id="DejaVuSans-49"/>
       </defs>
       <use xlink:href="#DejaVuSans-49"/>
       <use x="63.623047" xlink:href="#DejaVuSans-46"/>
       <use x="95.410156" xlink:href="#DejaVuSans-48"/>
      </g>
     </g>
    </g>
    <g id="xtick_4">
     <g id="line2d_4">
      <path clip-path="url(#pabe1225f2c)" d="M 441.738019 180.218125 
L 441.738019 22.318125 
" style="fill:none;stroke:#ffffff;stroke-linecap:round;"/>
     </g>
     <g id="text_4">
      <!-- 1.5 -->
      <g style="fill:#262626;" transform="translate(432.9913 198.076406)scale(0.11 -0.11)">
       <use xlink:href="#DejaVuSans-49"/>
       <use x="63.623047" xlink:href="#DejaVuSans-46"/>
       <use x="95.410156" xlink:href="#DejaVuSans-53"/>
      </g>
     </g>
    </g>
    <g id="xtick_5">
     <g id="line2d_5">
      <path clip-path="url(#pabe1225f2c)" d="M 577.586212 180.218125 
L 577.586212 22.318125 
" style="fill:none;stroke:#ffffff;stroke-linecap:round;"/>
     </g>
     <g id="text_5">
      <!-- 2.0 -->
      <g style="fill:#262626;" transform="translate(568.839494 198.076406)scale(0.11 -0.11)">
       <defs>
        <path d="M 19.1875 8.296875 
L 53.609375 8.296875 
L 53.609375 0 
L 7.328125 0 
L 7.328125 8.296875 
Q 12.9375 14.109375 22.625 23.890625 
Q 32.328125 33.6875 34.8125 36.53125 
Q 39.546875 41.84375 41.421875 45.53125 
Q 43.3125 49.21875 43.3125 52.78125 
Q 43.3125 58.59375 39.234375 62.25 
Q 35.15625 65.921875 28.609375 65.921875 
Q 23.96875 65.921875 18.8125 64.3125 
Q 13.671875 62.703125 7.8125 59.421875 
L 7.8125 69.390625 
Q 13.765625 71.78125 18.9375 73 
Q 24.125 74.21875 28.421875 74.21875 
Q 39.75 74.21875 46.484375 68.546875 
Q 53.21875 62.890625 53.21875 53.421875 
Q 53.21875 48.921875 51.53125 44.890625 
Q 49.859375 40.875 45.40625 35.40625 
Q 44.1875 33.984375 37.640625 27.21875 
Q 31.109375 20.453125 19.1875 8.296875 
z
" id="DejaVuSans-50"/>
       </defs>
       <use xlink:href="#DejaVuSans-50"/>
       <use x="63.623047" xlink:href="#DejaVuSans-46"/>
       <use x="95.410156" xlink:href="#DejaVuSans-48"/>
      </g>
     </g>
    </g>
    <g id="xtick_6">
     <g id="line2d_6">
      <path clip-path="url(#pabe1225f2c)" d="M 713.434406 180.218125 
L 713.434406 22.318125 
" style="fill:none;stroke:#ffffff;stroke-linecap:round;"/>
     </g>
     <g id="text_6">
      <!-- 2.5 -->
      <g style="fill:#262626;" transform="translate(704.687687 198.076406)scale(0.11 -0.11)">
       <use xlink:href="#DejaVuSans-50"/>
       <use x="63.623047" xlink:href="#DejaVuSans-46"/>
       <use x="95.410156" xlink:href="#DejaVuSans-53"/>
      </g>
     </g>
    </g>
    <g id="xtick_7">
     <g id="line2d_7">
      <path clip-path="url(#pabe1225f2c)" d="M 849.2826 180.218125 
L 849.2826 22.318125 
" style="fill:none;stroke:#ffffff;stroke-linecap:round;"/>
     </g>
     <g id="text_7">
      <!-- 3.0 -->
      <g style="fill:#262626;" transform="translate(840.535881 198.076406)scale(0.11 -0.11)">
       <defs>
        <path d="M 40.578125 39.3125 
Q 47.65625 37.796875 51.625 33 
Q 55.609375 28.21875 55.609375 21.1875 
Q 55.609375 10.40625 48.1875 4.484375 
Q 40.765625 -1.421875 27.09375 -1.421875 
Q 22.515625 -1.421875 17.65625 -0.515625 
Q 12.796875 0.390625 7.625 2.203125 
L 7.625 11.71875 
Q 11.71875 9.328125 16.59375 8.109375 
Q 21.484375 6.890625 26.8125 6.890625 
Q 36.078125 6.890625 40.9375 10.546875 
Q 45.796875 14.203125 45.796875 21.1875 
Q 45.796875 27.640625 41.28125 31.265625 
Q 36.765625 34.90625 28.71875 34.90625 
L 20.21875 34.90625 
L 20.21875 43.015625 
L 29.109375 43.015625 
Q 36.375 43.015625 40.234375 45.921875 
Q 44.09375 48.828125 44.09375 54.296875 
Q 44.09375 59.90625 40.109375 62.90625 
Q 36.140625 65.921875 28.71875 65.921875 
Q 24.65625 65.921875 20.015625 65.03125 
Q 15.375 64.15625 9.8125 62.3125 
L 9.8125 71.09375 
Q 15.4375 72.65625 20.34375 73.4375 
Q 25.25 74.21875 29.59375 74.21875 
Q 40.828125 74.21875 47.359375 69.109375 
Q 53.90625 64.015625 53.90625 55.328125 
Q 53.90625 49.265625 50.4375 45.09375 
Q 46.96875 40.921875 40.578125 39.3125 
z
" id="DejaVuSans-51"/>
       </defs>
       <use xlink:href="#DejaVuSans-51"/>
       <use x="63.623047" xlink:href="#DejaVuSans-46"/>
       <use x="95.410156" xlink:href="#DejaVuSans-48"/>
      </g>
     </g>
    </g>
    <g id="text_8">
     <!-- cp -->
     <g style="fill:#262626;" transform="translate(434.629894 213.482187)scale(0.12 -0.12)">
      <defs>
       <path d="M 48.78125 52.59375 
L 48.78125 44.1875 
Q 44.96875 46.296875 41.140625 47.34375 
Q 37.3125 48.390625 33.40625 48.390625 
Q 24.65625 48.390625 19.8125 42.84375 
Q 14.984375 37.3125 14.984375 27.296875 
Q 14.984375 17.28125 19.8125 11.734375 
Q 24.65625 6.203125 33.40625 6.203125 
Q 37.3125 6.203125 41.140625 7.25 
Q 44.96875 8.296875 48.78125 10.40625 
L 48.78125 2.09375 
Q 45.015625 0.34375 40.984375 -0.53125 
Q 36.96875 -1.421875 32.421875 -1.421875 
Q 20.0625 -1.421875 12.78125 6.34375 
Q 5.515625 14.109375 5.515625 27.296875 
Q 5.515625 40.671875 12.859375 48.328125 
Q 20.21875 56 33.015625 56 
Q 37.15625 56 41.109375 55.140625 
Q 45.0625 54.296875 48.78125 52.59375 
z
" id="DejaVuSans-99"/>
       <path d="M 18.109375 8.203125 
L 18.109375 -20.796875 
L 9.078125 -20.796875 
L 9.078125 54.6875 
L 18.109375 54.6875 
L 18.109375 46.390625 
Q 20.953125 51.265625 25.265625 53.625 
Q 29.59375 56 35.59375 56 
Q 45.5625 56 51.78125 48.09375 
Q 58.015625 40.1875 58.015625 27.296875 
Q 58.015625 14.40625 51.78125 6.484375 
Q 45.5625 -1.421875 35.59375 -1.421875 
Q 29.59375 -1.421875 25.265625 0.953125 
Q 20.953125 3.328125 18.109375 8.203125 
z
M 48.6875 27.296875 
Q 48.6875 37.203125 44.609375 42.84375 
Q 40.53125 48.484375 33.40625 48.484375 
Q 26.265625 48.484375 22.1875 42.84375 
Q 18.109375 37.203125 18.109375 27.296875 
Q 18.109375 17.390625 22.1875 11.75 
Q 26.265625 6.109375 33.40625 6.109375 
Q 40.53125 6.109375 44.609375 11.75 
Q 48.6875 17.390625 48.6875 27.296875 
z
" id="DejaVuSans-112"/>
      </defs>
      <use xlink:href="#DejaVuSans-99"/>
      <use x="54.980469" xlink:href="#DejaVuSans-112"/>
     </g>
    </g>
   </g>
   <g id="matplotlib.axis_2">
    <g id="ytick_1">
     <g id="line2d_8">
      <path clip-path="url(#pabe1225f2c)" d="M 34.193438 180.218125 
L 849.2826 180.218125 
" style="fill:none;stroke:#ffffff;stroke-linecap:round;"/>
     </g>
     <g id="text_9">
      <!-- 0.0 -->
      <g style="fill:#262626;" transform="translate(7.2 184.397266)scale(0.11 -0.11)">
       <use xlink:href="#DejaVuSans-48"/>
       <use x="63.623047" xlink:href="#DejaVuSans-46"/>
       <use x="95.410156" xlink:href="#DejaVuSans-48"/>
      </g>
     </g>
    </g>
    <g id="ytick_2">
     <g id="line2d_9">
      <path clip-path="url(#pabe1225f2c)" d="M 34.193438 146.424213 
L 849.2826 146.424213 
" style="fill:none;stroke:#ffffff;stroke-linecap:round;"/>
     </g>
     <g id="text_10">
      <!-- 0.2 -->
      <g style="fill:#262626;" transform="translate(7.2 150.603354)scale(0.11 -0.11)">
       <use xlink:href="#DejaVuSans-48"/>
       <use x="63.623047" xlink:href="#DejaVuSans-46"/>
       <use x="95.410156" xlink:href="#DejaVuSans-50"/>
      </g>
     </g>
    </g>
    <g id="ytick_3">
     <g id="line2d_10">
      <path clip-path="url(#pabe1225f2c)" d="M 34.193438 112.630301 
L 849.2826 112.630301 
" style="fill:none;stroke:#ffffff;stroke-linecap:round;"/>
     </g>
     <g id="text_11">
      <!-- 0.4 -->
      <g style="fill:#262626;" transform="translate(7.2 116.809442)scale(0.11 -0.11)">
       <defs>
        <path d="M 37.796875 64.3125 
L 12.890625 25.390625 
L 37.796875 25.390625 
z
M 35.203125 72.90625 
L 47.609375 72.90625 
L 47.609375 25.390625 
L 58.015625 25.390625 
L 58.015625 17.1875 
L 47.609375 17.1875 
L 47.609375 0 
L 37.796875 0 
L 37.796875 17.1875 
L 4.890625 17.1875 
L 4.890625 26.703125 
z
" id="DejaVuSans-52"/>
       </defs>
       <use xlink:href="#DejaVuSans-48"/>
       <use x="63.623047" xlink:href="#DejaVuSans-46"/>
       <use x="95.410156" xlink:href="#DejaVuSans-52"/>
      </g>
     </g>
    </g>
    <g id="ytick_4">
     <g id="line2d_11">
      <path clip-path="url(#pabe1225f2c)" d="M 34.193438 78.836389 
L 849.2826 78.836389 
" style="fill:none;stroke:#ffffff;stroke-linecap:round;"/>
     </g>
     <g id="text_12">
      <!-- 0.6 -->
      <g style="fill:#262626;" transform="translate(7.2 83.01553)scale(0.11 -0.11)">
       <defs>
        <path d="M 33.015625 40.375 
Q 26.375 40.375 22.484375 35.828125 
Q 18.609375 31.296875 18.609375 23.390625 
Q 18.609375 15.53125 22.484375 10.953125 
Q 26.375 6.390625 33.015625 6.390625 
Q 39.65625 6.390625 43.53125 10.953125 
Q 47.40625 15.53125 47.40625 23.390625 
Q 47.40625 31.296875 43.53125 35.828125 
Q 39.65625 40.375 33.015625 40.375 
z
M 52.59375 71.296875 
L 52.59375 62.3125 
Q 48.875 64.0625 45.09375 64.984375 
Q 41.3125 65.921875 37.59375 65.921875 
Q 27.828125 65.921875 22.671875 59.328125 
Q 17.53125 52.734375 16.796875 39.40625 
Q 19.671875 43.65625 24.015625 45.921875 
Q 28.375 48.1875 33.59375 48.1875 
Q 44.578125 48.1875 50.953125 41.515625 
Q 57.328125 34.859375 57.328125 23.390625 
Q 57.328125 12.15625 50.6875 5.359375 
Q 44.046875 -1.421875 33.015625 -1.421875 
Q 20.359375 -1.421875 13.671875 8.265625 
Q 6.984375 17.96875 6.984375 36.375 
Q 6.984375 53.65625 15.1875 63.9375 
Q 23.390625 74.21875 37.203125 74.21875 
Q 40.921875 74.21875 44.703125 73.484375 
Q 48.484375 72.75 52.59375 71.296875 
z
" id="DejaVuSans-54"/>
       </defs>
       <use xlink:href="#DejaVuSans-48"/>
       <use x="63.623047" xlink:href="#DejaVuSans-46"/>
       <use x="95.410156" xlink:href="#DejaVuSans-54"/>
      </g>
     </g>
    </g>
    <g id="ytick_5">
     <g id="line2d_12">
      <path clip-path="url(#pabe1225f2c)" d="M 34.193438 45.042477 
L 849.2826 45.042477 
" style="fill:none;stroke:#ffffff;stroke-linecap:round;"/>
     </g>
     <g id="text_13">
      <!-- 0.8 -->
      <g style="fill:#262626;" transform="translate(7.2 49.221618)scale(0.11 -0.11)">
       <defs>
        <path d="M 31.78125 34.625 
Q 24.75 34.625 20.71875 30.859375 
Q 16.703125 27.09375 16.703125 20.515625 
Q 16.703125 13.921875 20.71875 10.15625 
Q 24.75 6.390625 31.78125 6.390625 
Q 38.8125 6.390625 42.859375 10.171875 
Q 46.921875 13.96875 46.921875 20.515625 
Q 46.921875 27.09375 42.890625 30.859375 
Q 38.875 34.625 31.78125 34.625 
z
M 21.921875 38.8125 
Q 15.578125 40.375 12.03125 44.71875 
Q 8.5 49.078125 8.5 55.328125 
Q 8.5 64.0625 14.71875 69.140625 
Q 20.953125 74.21875 31.78125 74.21875 
Q 42.671875 74.21875 48.875 69.140625 
Q 55.078125 64.0625 55.078125 55.328125 
Q 55.078125 49.078125 51.53125 44.71875 
Q 48 40.375 41.703125 38.8125 
Q 48.828125 37.15625 52.796875 32.3125 
Q 56.78125 27.484375 56.78125 20.515625 
Q 56.78125 9.90625 50.3125 4.234375 
Q 43.84375 -1.421875 31.78125 -1.421875 
Q 19.734375 -1.421875 13.25 4.234375 
Q 6.78125 9.90625 6.78125 20.515625 
Q 6.78125 27.484375 10.78125 32.3125 
Q 14.796875 37.15625 21.921875 38.8125 
z
M 18.3125 54.390625 
Q 18.3125 48.734375 21.84375 45.5625 
Q 25.390625 42.390625 31.78125 42.390625 
Q 38.140625 42.390625 41.71875 45.5625 
Q 45.3125 48.734375 45.3125 54.390625 
Q 45.3125 60.0625 41.71875 63.234375 
Q 38.140625 66.40625 31.78125 66.40625 
Q 25.390625 66.40625 21.84375 63.234375 
Q 18.3125 60.0625 18.3125 54.390625 
z
" id="DejaVuSans-56"/>
       </defs>
       <use xlink:href="#DejaVuSans-48"/>
       <use x="63.623047" xlink:href="#DejaVuSans-46"/>
       <use x="95.410156" xlink:href="#DejaVuSans-56"/>
      </g>
     </g>
    </g>
   </g>
   <g id="PolyCollection_1">
    <path clip-path="url(#pabe1225f2c)" d="M -241.432041 178.549213 
L -241.432041 180.218125 
L -234.56601 180.218125 
L -227.699979 180.218125 
L -220.833948 180.218125 
L -213.967918 180.218125 
L -207.101887 180.218125 
L -200.235856 180.218125 
L -193.369825 180.218125 
L -186.503795 180.218125 
L -179.637764 180.218125 
L -172.771733 180.218125 
L -165.905702 180.218125 
L -159.039672 180.218125 
L -152.173641 180.218125 
L -145.30761 180.218125 
L -138.441579 180.218125 
L -131.575549 180.218125 
L -124.709518 180.218125 
L -117.843487 180.218125 
L -110.977456 180.218125 
L -104.111426 180.218125 
L -97.245395 180.218125 
L -90.379364 180.218125 
L -83.513333 180.218125 
L -76.647303 180.218125 
L -69.781272 180.218125 
L -62.915241 180.218125 
L -56.04921 180.218125 
L -49.18318 180.218125 
L -42.317149 180.218125 
L -35.451118 180.218125 
L -28.585087 180.218125 
L -21.719057 180.218125 
L -14.853026 180.218125 
L -7.986995 180.218125 
L -1.120964 180.218125 
L 5.745066 180.218125 
L 12.611097 180.218125 
L 19.477128 180.218125 
L 26.343159 180.218125 
L 33.209189 180.218125 
L 40.07522 180.218125 
L 46.941251 180.218125 
L 53.807282 180.218125 
L 60.673312 180.218125 
L 67.539343 180.218125 
L 74.405374 180.218125 
L 81.271404 180.218125 
L 88.137435 180.218125 
L 95.003466 180.218125 
L 101.869497 180.218125 
L 108.735527 180.218125 
L 115.601558 180.218125 
L 122.467589 180.218125 
L 129.33362 180.218125 
L 136.19965 180.218125 
L 143.065681 180.218125 
L 149.931712 180.218125 
L 156.797743 180.218125 
L 163.663773 180.218125 
L 170.529804 180.218125 
L 177.395835 180.218125 
L 184.261866 180.218125 
L 191.127896 180.218125 
L 197.993927 180.218125 
L 204.859958 180.218125 
L 211.725989 180.218125 
L 218.592019 180.218125 
L 225.45805 180.218125 
L 232.324081 180.218125 
L 239.190112 180.218125 
L 246.056142 180.218125 
L 252.922173 180.218125 
L 259.788204 180.218125 
L 266.654235 180.218125 
L 273.520265 180.218125 
L 280.386296 180.218125 
L 287.252327 180.218125 
L 294.118358 180.218125 
L 300.984388 180.218125 
L 307.850419 180.218125 
L 314.71645 180.218125 
L 321.582481 180.218125 
L 328.448511 180.218125 
L 335.314542 180.218125 
L 342.180573 180.218125 
L 349.046604 180.218125 
L 355.912634 180.218125 
L 362.778665 180.218125 
L 369.644696 180.218125 
L 376.510727 180.218125 
L 383.376757 180.218125 
L 390.242788 180.218125 
L 397.108819 180.218125 
L 403.974849 180.218125 
L 410.84088 180.218125 
L 417.706911 180.218125 
L 424.572942 180.218125 
L 431.438972 180.218125 
L 438.305003 180.218125 
L 445.171034 180.218125 
L 452.037065 180.218125 
L 458.903095 180.218125 
L 465.769126 180.218125 
L 472.635157 180.218125 
L 479.501188 180.218125 
L 486.367218 180.218125 
L 493.233249 180.218125 
L 500.09928 180.218125 
L 506.965311 180.218125 
L 513.831341 180.218125 
L 520.697372 180.218125 
L 527.563403 180.218125 
L 534.429434 180.218125 
L 541.295464 180.218125 
L 548.161495 180.218125 
L 555.027526 180.218125 
L 561.893557 180.218125 
L 568.759587 180.218125 
L 575.625618 180.218125 
L 582.491649 180.218125 
L 589.35768 180.218125 
L 596.22371 180.218125 
L 603.089741 180.218125 
L 609.955772 180.218125 
L 616.821803 180.218125 
L 623.687833 180.218125 
L 630.553864 180.218125 
L 637.419895 180.218125 
L 644.285926 180.218125 
L 651.151956 180.218125 
L 658.017987 180.218125 
L 664.884018 180.218125 
L 671.750049 180.218125 
L 678.616079 180.218125 
L 685.48211 180.218125 
L 692.348141 180.218125 
L 699.214172 180.218125 
L 706.080202 180.218125 
L 712.946233 180.218125 
L 719.812264 180.218125 
L 726.678294 180.218125 
L 733.544325 180.218125 
L 740.410356 180.218125 
L 747.276387 180.218125 
L 754.142417 180.218125 
L 761.008448 180.218125 
L 767.874479 180.218125 
L 774.74051 180.218125 
L 781.60654 180.218125 
L 788.472571 180.218125 
L 795.338602 180.218125 
L 802.204633 180.218125 
L 809.070663 180.218125 
L 815.936694 180.218125 
L 822.802725 180.218125 
L 829.668756 180.218125 
L 836.534786 180.218125 
L 843.400817 180.218125 
L 850.266848 180.218125 
L 857.132879 180.218125 
L 863.998909 180.218125 
L 870.86494 180.218125 
L 877.730971 180.218125 
L 884.597002 180.218125 
L 891.463032 180.218125 
L 898.329063 180.218125 
L 905.195094 180.218125 
L 912.061125 180.218125 
L 918.927155 180.218125 
L 925.793186 180.218125 
L 932.659217 180.218125 
L 939.525248 180.218125 
L 946.391278 180.218125 
L 953.257309 180.218125 
L 960.12334 180.218125 
L 966.989371 180.218125 
L 973.855401 180.218125 
L 980.721432 180.218125 
L 987.587463 180.218125 
L 994.453494 180.218125 
L 1001.319524 180.218125 
L 1008.185555 180.218125 
L 1015.051586 180.218125 
L 1021.917617 180.218125 
L 1028.783647 180.218125 
L 1035.649678 180.218125 
L 1042.515709 180.218125 
L 1049.381739 180.218125 
L 1056.24777 180.218125 
L 1063.113801 180.218125 
L 1069.979832 180.218125 
L 1076.845862 180.218125 
L 1083.711893 180.218125 
L 1090.577924 180.218125 
L 1097.443955 180.218125 
L 1104.309985 180.218125 
L 1111.176016 180.218125 
L 1118.042047 180.218125 
L 1124.908078 180.218125 
L 1124.908078 180.105794 
L 1124.908078 180.105794 
L 1118.042047 180.077955 
L 1111.176016 180.044191 
L 1104.309985 180.003496 
L 1097.443955 179.954754 
L 1090.577924 179.896743 
L 1083.711893 179.828138 
L 1076.845862 179.747523 
L 1069.979832 179.653406 
L 1063.113801 179.54424 
L 1056.24777 179.418448 
L 1049.381739 179.274458 
L 1042.515709 179.11074 
L 1035.649678 178.925852 
L 1028.783647 178.718488 
L 1021.917617 178.487534 
L 1015.051586 178.23212 
L 1008.185555 177.951688 
L 1001.319524 177.646036 
L 994.453494 177.315388 
L 987.587463 176.960429 
L 980.721432 176.582359 
L 973.855401 176.182917 
L 966.989371 175.764406 
L 960.12334 175.329689 
L 953.257309 174.882185 
L 946.391278 174.425828 
L 939.525248 173.965025 
L 932.659217 173.504575 
L 925.793186 173.049588 
L 918.927155 172.605369 
L 912.061125 172.177298 
L 905.195094 171.77069 
L 898.329063 171.390649 
L 891.463032 171.041914 
L 884.597002 170.728708 
L 877.730971 170.454585 
L 870.86494 170.22229 
L 863.998909 170.033635 
L 857.132879 169.889386 
L 850.266848 169.789185 
L 843.400817 169.731484 
L 836.534786 169.71352 
L 829.668756 169.731317 
L 822.802725 169.779724 
L 815.936694 169.852478 
L 809.070663 169.942311 
L 802.204633 170.041079 
L 795.338602 170.139926 
L 788.472571 170.229468 
L 781.60654 170.300005 
L 774.74051 170.341744 
L 767.874479 170.345042 
L 761.008448 170.300649 
L 754.142417 170.19996 
L 747.276387 170.035257 
L 740.410356 169.799948 
L 733.544325 169.488784 
L 726.678294 169.098056 
L 719.812264 168.62577 
L 712.946233 168.07178 
L 706.080202 167.437887 
L 699.214172 166.727897 
L 692.348141 165.94763 
L 685.48211 165.104875 
L 678.616079 164.209301 
L 671.750049 163.272309 
L 664.884018 162.306836 
L 658.017987 161.32711 
L 651.151956 160.348359 
L 644.285926 159.386483 
L 637.419895 158.457696 
L 630.553864 157.578141 
L 623.687833 156.763506 
L 616.821803 156.028623 
L 609.955772 155.387096 
L 603.089741 154.850938 
L 596.22371 154.430257 
L 589.35768 154.132975 
L 582.491649 153.964612 
L 575.625618 153.928129 
L 568.759587 154.023841 
L 561.893557 154.249395 
L 555.027526 154.599833 
L 548.161495 155.067715 
L 541.295464 155.64331 
L 534.429434 156.314851 
L 527.563403 157.068836 
L 520.697372 157.890377 
L 513.831341 158.763573 
L 506.965311 159.671906 
L 500.09928 160.598641 
L 493.233249 161.527224 
L 486.367218 162.44166 
L 479.501188 163.326872 
L 472.635157 164.169013 
L 465.769126 164.95575 
L 458.903095 165.676489 
L 452.037065 166.322554 
L 445.171034 166.887306 
L 438.305003 167.366209 
L 431.438972 167.756837 
L 424.572942 168.058832 
L 417.706911 168.273796 
L 410.84088 168.405152 
L 403.974849 168.457939 
L 397.108819 168.438579 
L 390.242788 168.354606 
L 383.376757 168.214352 
L 376.510727 168.026625 
L 369.644696 167.800351 
L 362.778665 167.544211 
L 355.912634 167.266268 
L 349.046604 166.973598 
L 342.180573 166.671919 
L 335.314542 166.365245 
L 328.448511 166.055555 
L 321.582481 165.742496 
L 314.71645 165.423119 
L 307.850419 165.091673 
L 300.984388 164.739436 
L 294.118358 164.354626 
L 287.252327 163.922372 
L 280.386296 163.424765 
L 273.520265 162.840993 
L 266.654235 162.147571 
L 259.788204 161.318657 
L 252.922173 160.32647 
L 246.056142 159.14181 
L 239.190112 157.734668 
L 232.324081 156.074934 
L 225.45805 154.133188 
L 218.592019 151.881567 
L 211.725989 149.29469 
L 204.859958 146.35063 
L 197.993927 143.031892 
L 191.127896 139.326395 
L 184.261866 135.228411 
L 177.395835 130.739425 
L 170.529804 125.868903 
L 163.663773 120.634904 
L 156.797743 115.064528 
L 149.931712 109.194142 
L 143.065681 103.069387 
L 136.19965 96.744908 
L 129.33362 90.283822 
L 122.467589 83.756906 
L 115.601558 77.241505 
L 108.735527 70.820181 
L 101.869497 64.579131 
L 95.003466 58.606407 
L 88.137435 52.989983 
L 81.271404 47.815729 
L 74.405374 43.165361 
L 67.539343 39.114412 
L 60.673312 35.730323 
L 53.807282 33.070689 
L 46.941251 31.181755 
L 40.07522 30.097184 
L 33.209189 29.837173 
L 26.343159 30.407927 
L 19.477128 31.80153 
L 12.611097 33.996191 
L 5.745066 36.95689 
L -1.120964 40.636366 
L -7.986995 44.976428 
L -14.853026 49.909536 
L -21.719057 55.360584 
L -28.585087 61.248835 
L -35.451118 67.489931 
L -42.317149 73.997901 
L -49.18318 80.687126 
L -56.04921 87.47417 
L -62.915241 94.279451 
L -69.781272 101.028696 
L -76.647303 107.654144 
L -83.513333 114.095489 
L -90.379364 120.300547 
L -97.245395 126.225645 
L -104.111426 131.835754 
L -110.977456 137.104375 
L -117.843487 142.013215 
L -124.709518 146.551681 
L -131.575549 150.716227 
L -138.441579 154.509593 
L -145.30761 157.93997 
L -152.173641 161.020136 
L -159.039672 163.766575 
L -165.905702 166.198627 
L -172.771733 168.337682 
L -179.637764 170.206436 
L -186.503795 171.828228 
L -193.369825 173.226463 
L -200.235856 174.424122 
L -207.101887 175.443365 
L -213.967918 176.305224 
L -220.833948 177.029373 
L -227.699979 177.633978 
L -234.56601 178.13561 
L -241.432041 178.549213 
z
" style="fill:#4c72b0;fill-opacity:0.25;stroke:#4c72b0;"/>
   </g>
   <g id="PolyCollection_2">
    <path clip-path="url(#pabe1225f2c)" d="M -245.348078 179.702025 
L -245.348078 180.218125 
L -238.44269 180.218125 
L -231.537302 180.218125 
L -224.631914 180.218125 
L -217.726526 180.218125 
L -210.821138 180.218125 
L -203.91575 180.218125 
L -197.010363 180.218125 
L -190.104975 180.218125 
L -183.199587 180.218125 
L -176.294199 180.218125 
L -169.388811 180.218125 
L -162.483423 180.218125 
L -155.578035 180.218125 
L -148.672647 180.218125 
L -141.767259 180.218125 
L -134.861871 180.218125 
L -127.956483 180.218125 
L -121.051096 180.218125 
L -114.145708 180.218125 
L -107.24032 180.218125 
L -100.334932 180.218125 
L -93.429544 180.218125 
L -86.524156 180.218125 
L -79.618768 180.218125 
L -72.71338 180.218125 
L -65.807992 180.218125 
L -58.902604 180.218125 
L -51.997217 180.218125 
L -45.091829 180.218125 
L -38.186441 180.218125 
L -31.281053 180.218125 
L -24.375665 180.218125 
L -17.470277 180.218125 
L -10.564889 180.218125 
L -3.659501 180.218125 
L 3.245887 180.218125 
L 10.151275 180.218125 
L 17.056662 180.218125 
L 23.96205 180.218125 
L 30.867438 180.218125 
L 37.772826 180.218125 
L 44.678214 180.218125 
L 51.583602 180.218125 
L 58.48899 180.218125 
L 65.394378 180.218125 
L 72.299766 180.218125 
L 79.205154 180.218125 
L 86.110542 180.218125 
L 93.015929 180.218125 
L 99.921317 180.218125 
L 106.826705 180.218125 
L 113.732093 180.218125 
L 120.637481 180.218125 
L 127.542869 180.218125 
L 134.448257 180.218125 
L 141.353645 180.218125 
L 148.259033 180.218125 
L 155.164421 180.218125 
L 162.069808 180.218125 
L 168.975196 180.218125 
L 175.880584 180.218125 
L 182.785972 180.218125 
L 189.69136 180.218125 
L 196.596748 180.218125 
L 203.502136 180.218125 
L 210.407524 180.218125 
L 217.312912 180.218125 
L 224.2183 180.218125 
L 231.123688 180.218125 
L 238.029075 180.218125 
L 244.934463 180.218125 
L 251.839851 180.218125 
L 258.745239 180.218125 
L 265.650627 180.218125 
L 272.556015 180.218125 
L 279.461403 180.218125 
L 286.366791 180.218125 
L 293.272179 180.218125 
L 300.177567 180.218125 
L 307.082954 180.218125 
L 313.988342 180.218125 
L 320.89373 180.218125 
L 327.799118 180.218125 
L 334.704506 180.218125 
L 341.609894 180.218125 
L 348.515282 180.218125 
L 355.42067 180.218125 
L 362.326058 180.218125 
L 369.231446 180.218125 
L 376.136834 180.218125 
L 383.042221 180.218125 
L 389.947609 180.218125 
L 396.852997 180.218125 
L 403.758385 180.218125 
L 410.663773 180.218125 
L 417.569161 180.218125 
L 424.474549 180.218125 
L 431.379937 180.218125 
L 438.285325 180.218125 
L 445.190713 180.218125 
L 452.0961 180.218125 
L 459.001488 180.218125 
L 465.906876 180.218125 
L 472.812264 180.218125 
L 479.717652 180.218125 
L 486.62304 180.218125 
L 493.528428 180.218125 
L 500.433816 180.218125 
L 507.339204 180.218125 
L 514.244592 180.218125 
L 521.149979 180.218125 
L 528.055367 180.218125 
L 534.960755 180.218125 
L 541.866143 180.218125 
L 548.771531 180.218125 
L 555.676919 180.218125 
L 562.582307 180.218125 
L 569.487695 180.218125 
L 576.393083 180.218125 
L 583.298471 180.218125 
L 590.203859 180.218125 
L 597.109246 180.218125 
L 604.014634 180.218125 
L 610.920022 180.218125 
L 617.82541 180.218125 
L 624.730798 180.218125 
L 631.636186 180.218125 
L 638.541574 180.218125 
L 645.446962 180.218125 
L 652.35235 180.218125 
L 659.257738 180.218125 
L 666.163125 180.218125 
L 673.068513 180.218125 
L 679.973901 180.218125 
L 686.879289 180.218125 
L 693.784677 180.218125 
L 700.690065 180.218125 
L 707.595453 180.218125 
L 714.500841 180.218125 
L 721.406229 180.218125 
L 728.311617 180.218125 
L 735.217005 180.218125 
L 742.122392 180.218125 
L 749.02778 180.218125 
L 755.933168 180.218125 
L 762.838556 180.218125 
L 769.743944 180.218125 
L 776.649332 180.218125 
L 783.55472 180.218125 
L 790.460108 180.218125 
L 797.365496 180.218125 
L 804.270884 180.218125 
L 811.176271 180.218125 
L 818.081659 180.218125 
L 824.987047 180.218125 
L 831.892435 180.218125 
L 838.797823 180.218125 
L 845.703211 180.218125 
L 852.608599 180.218125 
L 859.513987 180.218125 
L 866.419375 180.218125 
L 873.324763 180.218125 
L 880.23015 180.218125 
L 887.135538 180.218125 
L 894.040926 180.218125 
L 900.946314 180.218125 
L 907.851702 180.218125 
L 914.75709 180.218125 
L 921.662478 180.218125 
L 928.567866 180.218125 
L 935.473254 180.218125 
L 942.378642 180.218125 
L 949.28403 180.218125 
L 956.189417 180.218125 
L 963.094805 180.218125 
L 970.000193 180.218125 
L 976.905581 180.218125 
L 983.810969 180.218125 
L 990.716357 180.218125 
L 997.621745 180.218125 
L 1004.527133 180.218125 
L 1011.432521 180.218125 
L 1018.337909 180.218125 
L 1025.243296 180.218125 
L 1032.148684 180.218125 
L 1039.054072 180.218125 
L 1045.95946 180.218125 
L 1052.864848 180.218125 
L 1059.770236 180.218125 
L 1066.675624 180.218125 
L 1073.581012 180.218125 
L 1080.4864 180.218125 
L 1087.391788 180.218125 
L 1094.297176 180.218125 
L 1101.202563 180.218125 
L 1108.107951 180.218125 
L 1115.013339 180.218125 
L 1121.918727 180.218125 
L 1128.824115 180.218125 
L 1128.824115 180.00639 
L 1128.824115 180.00639 
L 1121.918727 179.954398 
L 1115.013339 179.891438 
L 1108.107951 179.815664 
L 1101.202563 179.725029 
L 1094.297176 179.617291 
L 1087.391788 179.490021 
L 1080.4864 179.340624 
L 1073.581012 179.166364 
L 1066.675624 178.964398 
L 1059.770236 178.731829 
L 1052.864848 178.465762 
L 1045.95946 178.163372 
L 1039.054072 177.82198 
L 1032.148684 177.439151 
L 1025.243296 177.012779 
L 1018.337909 176.541195 
L 1011.432521 176.023271 
L 1004.527133 175.458517 
L 997.621745 174.847188 
L 990.716357 174.190367 
L 983.810969 173.49004 
L 976.905581 172.749159 
L 970.000193 171.971668 
L 963.094805 171.162514 
L 956.189417 170.327621 
L 949.28403 169.473833 
L 942.378642 168.608811 
L 935.473254 167.74091 
L 928.567866 166.879003 
L 921.662478 166.032277 
L 914.75709 165.209998 
L 907.851702 164.421248 
L 900.946314 163.674637 
L 894.040926 162.978008 
L 887.135538 162.338134 
L 880.23015 161.760415 
L 873.324763 161.248596 
L 866.419375 160.804498 
L 859.513987 160.427794 
L 852.608599 160.115819 
L 845.703211 159.863431 
L 838.797823 159.662932 
L 831.892435 159.504054 
L 824.987047 159.374014 
L 818.081659 159.257638 
L 811.176271 159.13756 
L 804.270884 158.9945 
L 797.365496 158.807605 
L 790.460108 158.55486 
L 783.55472 158.213566 
L 776.649332 157.760864 
L 769.743944 157.174308 
L 762.838556 156.432468 
L 755.933168 155.515562 
L 749.02778 154.406082 
L 742.122392 153.089418 
L 735.217005 151.554458 
L 728.311617 149.794136 
L 721.406229 147.805923 
L 714.500841 145.59224 
L 707.595453 143.160766 
L 700.690065 140.524635 
L 693.784677 137.702508 
L 686.879289 134.718498 
L 679.973901 131.601949 
L 673.068513 128.38706 
L 666.163125 125.112358 
L 659.257738 121.82002 
L 652.35235 118.555057 
L 645.446962 115.364387 
L 638.541574 112.295789 
L 631.636186 109.396808 
L 624.730798 106.713595 
L 617.82541 104.289757 
L 610.920022 102.165218 
L 604.014634 100.375152 
L 597.109246 98.949013 
L 590.203859 97.909692 
L 583.298471 97.272839 
L 576.393083 97.046366 
L 569.487695 97.230157 
L 562.582307 97.815986 
L 555.676919 98.787665 
L 548.771531 100.121397 
L 541.866143 101.786338 
L 534.960755 103.745346 
L 528.055367 105.955897 
L 521.149979 108.371131 
L 514.244592 110.941006 
L 507.339204 113.613514 
L 500.433816 116.33594 
L 493.528428 119.056106 
L 486.62304 121.723582 
L 479.717652 124.290834 
L 472.812264 126.71426 
L 465.906876 128.955119 
L 459.001488 130.980304 
L 452.0961 132.762968 
L 445.190713 134.282979 
L 438.285325 135.527193 
L 431.379937 136.489569 
L 424.474549 137.171092 
L 417.569161 137.579545 
L 410.663773 137.729121 
L 403.758385 137.639887 
L 396.852997 137.337127 
L 389.947609 136.850571 
L 383.042221 136.213538 
L 376.136834 135.462009 
L 369.231446 134.633647 
L 362.326058 133.766809 
L 355.42067 132.899541 
L 348.515282 132.068613 
L 341.609894 131.30859 
L 334.704506 130.650986 
L 327.799118 130.12349 
L 320.89373 129.749323 
L 313.988342 129.546702 
L 307.082954 129.528451 
L 300.177567 129.701752 
L 293.272179 130.068054 
L 286.366791 130.623127 
L 279.461403 131.357267 
L 272.556015 132.255641 
L 265.650627 133.298763 
L 258.745239 134.463083 
L 251.839851 135.72167 
L 244.934463 137.044982 
L 238.029075 138.401681 
L 231.123688 139.759489 
L 224.2183 141.086049 
L 217.312912 142.349784 
L 210.407524 143.520713 
L 203.502136 144.571226 
L 196.596748 145.476783 
L 189.69136 146.216531 
L 182.785972 146.773822 
L 175.880584 147.136626 
L 168.975196 147.297821 
L 162.069808 147.255374 
L 155.164421 147.012381 
L 148.259033 146.577 
L 141.353645 145.962249 
L 134.448257 145.185698 
L 127.542869 144.269042 
L 120.637481 143.237585 
L 113.732093 142.11963 
L 106.826705 140.9458 
L 99.921317 139.748307 
L 93.015929 138.560172 
L 86.110542 137.414445 
L 79.205154 136.343409 
L 72.299766 135.377824 
L 65.394378 134.546202 
L 58.48899 133.874157 
L 51.583602 133.383825 
L 44.678214 133.093396 
L 37.772826 133.016742 
L 30.867438 133.163175 
L 23.96205 133.537328 
L 17.056662 134.139159 
L 10.151275 134.964087 
L 3.245887 136.003237 
L -3.659501 137.2438 
L -10.564889 138.669475 
L -17.470277 140.260997 
L -24.375665 141.996718 
L -31.281053 143.853215 
L -38.186441 145.805929 
L -45.091829 147.829783 
L -51.997217 149.899788 
L -58.902604 151.9916 
L -65.807992 154.082019 
L -72.71338 156.14943 
L -79.618768 158.174154 
L -86.524156 160.138729 
L -93.429544 162.028099 
L -100.334932 163.829728 
L -107.24032 165.533629 
L -114.145708 167.132329 
L -121.051096 168.620767 
L -127.956483 169.99614 
L -134.861871 171.257708 
L -141.767259 172.406569 
L -148.672647 173.445406 
L -155.578035 174.378238 
L -162.483423 175.210158 
L -169.388811 175.947081 
L -176.294199 176.595511 
L -183.199587 177.162322 
L -190.104975 177.654563 
L -197.010363 178.079289 
L -203.91575 178.44342 
L -210.821138 178.753623 
L -217.726526 179.016224 
L -224.631914 179.237139 
L -231.537302 179.421835 
L -238.44269 179.575296 
L -245.348078 179.702025 
z
" style="fill:#dd8452;fill-opacity:0.25;stroke:#dd8452;"/>
   </g>
   <g id="patch_3">
    <path d="M 34.193438 180.218125 
L 34.193438 22.318125 
" style="fill:none;stroke:#ffffff;stroke-linecap:square;stroke-linejoin:miter;stroke-width:1.25;"/>
   </g>
   <g id="patch_4">
    <path d="M 34.193438 180.218125 
L 849.2826 180.218125 
" style="fill:none;stroke:#ffffff;stroke-linecap:square;stroke-linejoin:miter;stroke-width:1.25;"/>
   </g>
   <g id="text_14">
    <!-- Output: cp -->
    <g style="fill:#262626;" transform="translate(409.860206 16.318125)scale(0.12 -0.12)">
     <defs>
      <path d="M 39.40625 66.21875 
Q 28.65625 66.21875 22.328125 58.203125 
Q 16.015625 50.203125 16.015625 36.375 
Q 16.015625 22.609375 22.328125 14.59375 
Q 28.65625 6.59375 39.40625 6.59375 
Q 50.140625 6.59375 56.421875 14.59375 
Q 62.703125 22.609375 62.703125 36.375 
Q 62.703125 50.203125 56.421875 58.203125 
Q 50.140625 66.21875 39.40625 66.21875 
z
M 39.40625 74.21875 
Q 54.734375 74.21875 63.90625 63.9375 
Q 73.09375 53.65625 73.09375 36.375 
Q 73.09375 19.140625 63.90625 8.859375 
Q 54.734375 -1.421875 39.40625 -1.421875 
Q 24.03125 -1.421875 14.8125 8.828125 
Q 5.609375 19.09375 5.609375 36.375 
Q 5.609375 53.65625 14.8125 63.9375 
Q 24.03125 74.21875 39.40625 74.21875 
z
" id="DejaVuSans-79"/>
      <path d="M 8.5 21.578125 
L 8.5 54.6875 
L 17.484375 54.6875 
L 17.484375 21.921875 
Q 17.484375 14.15625 20.5 10.265625 
Q 23.53125 6.390625 29.59375 6.390625 
Q 36.859375 6.390625 41.078125 11.03125 
Q 45.3125 15.671875 45.3125 23.6875 
L 45.3125 54.6875 
L 54.296875 54.6875 
L 54.296875 0 
L 45.3125 0 
L 45.3125 8.40625 
Q 42.046875 3.421875 37.71875 1 
Q 33.40625 -1.421875 27.6875 -1.421875 
Q 18.265625 -1.421875 13.375 4.4375 
Q 8.5 10.296875 8.5 21.578125 
z
M 31.109375 56 
z
" id="DejaVuSans-117"/>
      <path d="M 18.3125 70.21875 
L 18.3125 54.6875 
L 36.8125 54.6875 
L 36.8125 47.703125 
L 18.3125 47.703125 
L 18.3125 18.015625 
Q 18.3125 11.328125 20.140625 9.421875 
Q 21.96875 7.515625 27.59375 7.515625 
L 36.8125 7.515625 
L 36.8125 0 
L 27.59375 0 
Q 17.1875 0 13.234375 3.875 
Q 9.28125 7.765625 9.28125 18.015625 
L 9.28125 47.703125 
L 2.6875 47.703125 
L 2.6875 54.6875 
L 9.28125 54.6875 
L 9.28125 70.21875 
z
" id="DejaVuSans-116"/>
      <path d="M 11.71875 12.40625 
L 22.015625 12.40625 
L 22.015625 0 
L 11.71875 0 
z
M 11.71875 51.703125 
L 22.015625 51.703125 
L 22.015625 39.3125 
L 11.71875 39.3125 
z
" id="DejaVuSans-58"/>
      <path id="DejaVuSans-32"/>
     </defs>
     <use xlink:href="#DejaVuSans-79"/>
     <use x="78.710938" xlink:href="#DejaVuSans-117"/>
     <use x="142.089844" xlink:href="#DejaVuSans-116"/>
     <use x="181.298828" xlink:href="#DejaVuSans-112"/>
     <use x="244.775391" xlink:href="#DejaVuSans-117"/>
     <use x="308.154297" xlink:href="#DejaVuSans-116"/>
     <use x="347.363281" xlink:href="#DejaVuSans-58"/>
     <use x="381.054688" xlink:href="#DejaVuSans-32"/>
     <use x="412.841797" xlink:href="#DejaVuSans-99"/>
     <use x="467.822266" xlink:href="#DejaVuSans-112"/>
    </g>
   </g>
  </g>
  <g id="legend_1">
   <g id="text_15">
    <!-- output -->
    <g style="fill:#262626;" transform="translate(859.052475 98.754219)scale(0.12 -0.12)">
     <defs>
      <path d="M 30.609375 48.390625 
Q 23.390625 48.390625 19.1875 42.75 
Q 14.984375 37.109375 14.984375 27.296875 
Q 14.984375 17.484375 19.15625 11.84375 
Q 23.34375 6.203125 30.609375 6.203125 
Q 37.796875 6.203125 41.984375 11.859375 
Q 46.1875 17.53125 46.1875 27.296875 
Q 46.1875 37.015625 41.984375 42.703125 
Q 37.796875 48.390625 30.609375 48.390625 
z
M 30.609375 56 
Q 42.328125 56 49.015625 48.375 
Q 55.71875 40.765625 55.71875 27.296875 
Q 55.71875 13.875 49.015625 6.21875 
Q 42.328125 -1.421875 30.609375 -1.421875 
Q 18.84375 -1.421875 12.171875 6.21875 
Q 5.515625 13.875 5.515625 27.296875 
Q 5.515625 40.765625 12.171875 48.375 
Q 18.84375 56 30.609375 56 
z
" id="DejaVuSans-111"/>
     </defs>
     <use xlink:href="#DejaVuSans-111"/>
     <use x="61.181641" xlink:href="#DejaVuSans-117"/>
     <use x="124.560547" xlink:href="#DejaVuSans-116"/>
     <use x="163.769531" xlink:href="#DejaVuSans-112"/>
     <use x="227.246094" xlink:href="#DejaVuSans-117"/>
     <use x="290.625" xlink:href="#DejaVuSans-116"/>
    </g>
   </g>
   <g id="patch_5">
    <path d="M 859.942787 115.108125 
L 881.942787 115.108125 
L 881.942787 107.408125 
L 859.942787 107.408125 
z
" style="fill:#4c72b0;fill-opacity:0.25;stroke:#4c72b0;stroke-linejoin:miter;"/>
   </g>
   <g id="text_16">
    <!-- 0 -->
    <g style="fill:#262626;" transform="translate(890.742787 115.108125)scale(0.11 -0.11)">
     <use xlink:href="#DejaVuSans-48"/>
    </g>
   </g>
   <g id="patch_6">
    <path d="M 859.942787 131.254063 
L 881.942787 131.254063 
L 881.942787 123.554063 
L 859.942787 123.554063 
z
" style="fill:#dd8452;fill-opacity:0.25;stroke:#dd8452;stroke-linejoin:miter;"/>
   </g>
   <g id="text_17">
    <!-- 1 -->
    <g style="fill:#262626;" transform="translate(890.742787 131.254063)scale(0.11 -0.11)">
     <use xlink:href="#DejaVuSans-49"/>
    </g>
   </g>
  </g>
 </g>
 <defs>
  <clipPath id="pabe1225f2c">
   <rect height="157.9" width="815.089162" x="34.193438" y="22.318125"/>
  </clipPath>
 </defs>
</svg>
