<?xml version="1.0" encoding="utf-8" standalone="no"?>
<!DOCTYPE svg PUBLIC "-//W3C//DTD SVG 1.1//EN"
  "http://www.w3.org/Graphics/SVG/1.1/DTD/svg11.dtd">
<!-- Created with matplotlib (https://matplotlib.org/) -->
<svg height="208.059687pt" version="1.1" viewBox="0 0 920.584611 208.059687" width="920.584611pt" xmlns="http://www.w3.org/2000/svg" xmlns:xlink="http://www.w3.org/1999/xlink">
 <metadata>
  <rdf:RDF xmlns:cc="http://creativecommons.org/ns#" xmlns:dc="http://purl.org/dc/elements/1.1/" xmlns:rdf="http://www.w3.org/1999/02/22-rdf-syntax-ns#">
   <cc:Work>
    <dc:type rdf:resource="http://purl.org/dc/dcmitype/StillImage"/>
    <dc:date>2021-06-21T14:05:08.029712</dc:date>
    <dc:format>image/svg+xml</dc:format>
    <dc:creator>
     <cc:Agent>
      <dc:title>Matplotlib v3.3.4, https://matplotlib.org/</dc:title>
     </cc:Agent>
    </dc:creator>
   </cc:Work>
  </rdf:RDF>
 </metadata>
 <defs>
  <style type="text/css">*{stroke-linecap:butt;stroke-linejoin:round;}</style>
 </defs>
 <g id="figure_1">
  <g id="patch_1">
   <path d="M 0 208.059687 
L 920.584611 208.059687 
L 920.584611 0 
L 0 0 
z
" style="fill:none;"/>
  </g>
  <g id="axes_1">
   <g id="patch_2">
    <path d="M 41.192188 165.1 
L 848.079111 165.1 
L 848.079111 7.2 
L 41.192188 7.2 
z
" style="fill:#eaeaf2;"/>
   </g>
   <g id="matplotlib.axis_1">
    <g id="xtick_1">
     <g id="line2d_1">
      <path clip-path="url(#p2b6eaf8c48)" d="M 41.192188 165.1 
L 41.192188 7.2 
" style="fill:none;stroke:#ffffff;stroke-linecap:round;"/>
     </g>
     <g id="text_1">
      <!-- 0.0 -->
      <g style="fill:#262626;" transform="translate(32.445469 182.958281)scale(0.11 -0.11)">
       <defs>
        <path d="M 31.78125 66.40625 
Q 24.171875 66.40625 20.328125 58.90625 
Q 16.5 51.421875 16.5 36.375 
Q 16.5 21.390625 20.328125 13.890625 
Q 24.171875 6.390625 31.78125 6.390625 
Q 39.453125 6.390625 43.28125 13.890625 
Q 47.125 21.390625 47.125 36.375 
Q 47.125 51.421875 43.28125 58.90625 
Q 39.453125 66.40625 31.78125 66.40625 
z
M 31.78125 74.21875 
Q 44.046875 74.21875 50.515625 64.515625 
Q 56.984375 54.828125 56.984375 36.375 
Q 56.984375 17.96875 50.515625 8.265625 
Q 44.046875 -1.421875 31.78125 -1.421875 
Q 19.53125 -1.421875 13.0625 8.265625 
Q 6.59375 17.96875 6.59375 36.375 
Q 6.59375 54.828125 13.0625 64.515625 
Q 19.53125 74.21875 31.78125 74.21875 
z
" id="DejaVuSans-48"/>
        <path d="M 10.6875 12.40625 
L 21 12.40625 
L 21 0 
L 10.6875 0 
z
" id="DejaVuSans-46"/>
       </defs>
       <use xlink:href="#DejaVuSans-48"/>
       <use x="63.623047" xlink:href="#DejaVuSans-46"/>
       <use x="95.410156" xlink:href="#DejaVuSans-48"/>
      </g>
     </g>
    </g>
    <g id="xtick_2">
     <g id="line2d_2">
      <path clip-path="url(#p2b6eaf8c48)" d="M 142.053053 165.1 
L 142.053053 7.2 
" style="fill:none;stroke:#ffffff;stroke-linecap:round;"/>
     </g>
     <g id="text_2">
      <!-- 2.5 -->
      <g style="fill:#262626;" transform="translate(133.306334 182.958281)scale(0.11 -0.11)">
       <defs>
        <path d="M 19.1875 8.296875 
L 53.609375 8.296875 
L 53.609375 0 
L 7.328125 0 
L 7.328125 8.296875 
Q 12.9375 14.109375 22.625 23.890625 
Q 32.328125 33.6875 34.8125 36.53125 
Q 39.546875 41.84375 41.421875 45.53125 
Q 43.3125 49.21875 43.3125 52.78125 
Q 43.3125 58.59375 39.234375 62.25 
Q 35.15625 65.921875 28.609375 65.921875 
Q 23.96875 65.921875 18.8125 64.3125 
Q 13.671875 62.703125 7.8125 59.421875 
L 7.8125 69.390625 
Q 13.765625 71.78125 18.9375 73 
Q 24.125 74.21875 28.421875 74.21875 
Q 39.75 74.21875 46.484375 68.546875 
Q 53.21875 62.890625 53.21875 53.421875 
Q 53.21875 48.921875 51.53125 44.890625 
Q 49.859375 40.875 45.40625 35.40625 
Q 44.1875 33.984375 37.640625 27.21875 
Q 31.109375 20.453125 19.1875 8.296875 
z
" id="DejaVuSans-50"/>
        <path d="M 10.796875 72.90625 
L 49.515625 72.90625 
L 49.515625 64.59375 
L 19.828125 64.59375 
L 19.828125 46.734375 
Q 21.96875 47.46875 24.109375 47.828125 
Q 26.265625 48.1875 28.421875 48.1875 
Q 40.625 48.1875 47.75 41.5 
Q 54.890625 34.8125 54.890625 23.390625 
Q 54.890625 11.625 47.5625 5.09375 
Q 40.234375 -1.421875 26.90625 -1.421875 
Q 22.3125 -1.421875 17.546875 -0.640625 
Q 12.796875 0.140625 7.71875 1.703125 
L 7.71875 11.625 
Q 12.109375 9.234375 16.796875 8.0625 
Q 21.484375 6.890625 26.703125 6.890625 
Q 35.15625 6.890625 40.078125 11.328125 
Q 45.015625 15.765625 45.015625 23.390625 
Q 45.015625 31 40.078125 35.4375 
Q 35.15625 39.890625 26.703125 39.890625 
Q 22.75 39.890625 18.8125 39.015625 
Q 14.890625 38.140625 10.796875 36.28125 
z
" id="DejaVuSans-53"/>
       </defs>
       <use xlink:href="#DejaVuSans-50"/>
       <use x="63.623047" xlink:href="#DejaVuSans-46"/>
       <use x="95.410156" xlink:href="#DejaVuSans-53"/>
      </g>
     </g>
    </g>
    <g id="xtick_3">
     <g id="line2d_3">
      <path clip-path="url(#p2b6eaf8c48)" d="M 242.913918 165.1 
L 242.913918 7.2 
" style="fill:none;stroke:#ffffff;stroke-linecap:round;"/>
     </g>
     <g id="text_3">
      <!-- 5.0 -->
      <g style="fill:#262626;" transform="translate(234.1672 182.958281)scale(0.11 -0.11)">
       <use xlink:href="#DejaVuSans-53"/>
       <use x="63.623047" xlink:href="#DejaVuSans-46"/>
       <use x="95.410156" xlink:href="#DejaVuSans-48"/>
      </g>
     </g>
    </g>
    <g id="xtick_4">
     <g id="line2d_4">
      <path clip-path="url(#p2b6eaf8c48)" d="M 343.774784 165.1 
L 343.774784 7.2 
" style="fill:none;stroke:#ffffff;stroke-linecap:round;"/>
     </g>
     <g id="text_4">
      <!-- 7.5 -->
      <g style="fill:#262626;" transform="translate(335.028065 182.958281)scale(0.11 -0.11)">
       <defs>
        <path d="M 8.203125 72.90625 
L 55.078125 72.90625 
L 55.078125 68.703125 
L 28.609375 0 
L 18.3125 0 
L 43.21875 64.59375 
L 8.203125 64.59375 
z
" id="DejaVuSans-55"/>
       </defs>
       <use xlink:href="#DejaVuSans-55"/>
       <use x="63.623047" xlink:href="#DejaVuSans-46"/>
       <use x="95.410156" xlink:href="#DejaVuSans-53"/>
      </g>
     </g>
    </g>
    <g id="xtick_5">
     <g id="line2d_5">
      <path clip-path="url(#p2b6eaf8c48)" d="M 444.635649 165.1 
L 444.635649 7.2 
" style="fill:none;stroke:#ffffff;stroke-linecap:round;"/>
     </g>
     <g id="text_5">
      <!-- 10.0 -->
      <g style="fill:#262626;" transform="translate(432.389555 182.958281)scale(0.11 -0.11)">
       <defs>
        <path d="M 12.40625 8.296875 
L 28.515625 8.296875 
L 28.515625 63.921875 
L 10.984375 60.40625 
L 10.984375 69.390625 
L 28.421875 72.90625 
L 38.28125 72.90625 
L 38.28125 8.296875 
L 54.390625 8.296875 
L 54.390625 0 
L 12.40625 0 
z
" id="DejaVuSans-49"/>
       </defs>
       <use xlink:href="#DejaVuSans-49"/>
       <use x="63.623047" xlink:href="#DejaVuSans-48"/>
       <use x="127.246094" xlink:href="#DejaVuSans-46"/>
       <use x="159.033203" xlink:href="#DejaVuSans-48"/>
      </g>
     </g>
    </g>
    <g id="xtick_6">
     <g id="line2d_6">
      <path clip-path="url(#p2b6eaf8c48)" d="M 545.496515 165.1 
L 545.496515 7.2 
" style="fill:none;stroke:#ffffff;stroke-linecap:round;"/>
     </g>
     <g id="text_6">
      <!-- 12.5 -->
      <g style="fill:#262626;" transform="translate(533.250421 182.958281)scale(0.11 -0.11)">
       <use xlink:href="#DejaVuSans-49"/>
       <use x="63.623047" xlink:href="#DejaVuSans-50"/>
       <use x="127.246094" xlink:href="#DejaVuSans-46"/>
       <use x="159.033203" xlink:href="#DejaVuSans-53"/>
      </g>
     </g>
    </g>
    <g id="xtick_7">
     <g id="line2d_7">
      <path clip-path="url(#p2b6eaf8c48)" d="M 646.35738 165.1 
L 646.35738 7.2 
" style="fill:none;stroke:#ffffff;stroke-linecap:round;"/>
     </g>
     <g id="text_7">
      <!-- 15.0 -->
      <g style="fill:#262626;" transform="translate(634.111286 182.958281)scale(0.11 -0.11)">
       <use xlink:href="#DejaVuSans-49"/>
       <use x="63.623047" xlink:href="#DejaVuSans-53"/>
       <use x="127.246094" xlink:href="#DejaVuSans-46"/>
       <use x="159.033203" xlink:href="#DejaVuSans-48"/>
      </g>
     </g>
    </g>
    <g id="xtick_8">
     <g id="line2d_8">
      <path clip-path="url(#p2b6eaf8c48)" d="M 747.218245 165.1 
L 747.218245 7.2 
" style="fill:none;stroke:#ffffff;stroke-linecap:round;"/>
     </g>
     <g id="text_8">
      <!-- 17.5 -->
      <g style="fill:#262626;" transform="translate(734.972152 182.958281)scale(0.11 -0.11)">
       <use xlink:href="#DejaVuSans-49"/>
       <use x="63.623047" xlink:href="#DejaVuSans-55"/>
       <use x="127.246094" xlink:href="#DejaVuSans-46"/>
       <use x="159.033203" xlink:href="#DejaVuSans-53"/>
      </g>
     </g>
    </g>
    <g id="xtick_9">
     <g id="line2d_9">
      <path clip-path="url(#p2b6eaf8c48)" d="M 848.079111 165.1 
L 848.079111 7.2 
" style="fill:none;stroke:#ffffff;stroke-linecap:round;"/>
     </g>
     <g id="text_9">
      <!-- 20.0 -->
      <g style="fill:#262626;" transform="translate(835.833017 182.958281)scale(0.11 -0.11)">
       <use xlink:href="#DejaVuSans-50"/>
       <use x="63.623047" xlink:href="#DejaVuSans-48"/>
       <use x="127.246094" xlink:href="#DejaVuSans-46"/>
       <use x="159.033203" xlink:href="#DejaVuSans-48"/>
      </g>
     </g>
    </g>
    <g id="text_10">
     <!-- Age -->
     <g style="fill:#262626;" transform="translate(433.030337 198.364062)scale(0.12 -0.12)">
      <defs>
       <path d="M 34.1875 63.1875 
L 20.796875 26.90625 
L 47.609375 26.90625 
z
M 28.609375 72.90625 
L 39.796875 72.90625 
L 67.578125 0 
L 57.328125 0 
L 50.6875 18.703125 
L 17.828125 18.703125 
L 11.1875 0 
L 0.78125 0 
z
" id="DejaVuSans-65"/>
       <path d="M 45.40625 27.984375 
Q 45.40625 37.75 41.375 43.109375 
Q 37.359375 48.484375 30.078125 48.484375 
Q 22.859375 48.484375 18.828125 43.109375 
Q 14.796875 37.75 14.796875 27.984375 
Q 14.796875 18.265625 18.828125 12.890625 
Q 22.859375 7.515625 30.078125 7.515625 
Q 37.359375 7.515625 41.375 12.890625 
Q 45.40625 18.265625 45.40625 27.984375 
z
M 54.390625 6.78125 
Q 54.390625 -7.171875 48.1875 -13.984375 
Q 42 -20.796875 29.203125 -20.796875 
Q 24.46875 -20.796875 20.265625 -20.09375 
Q 16.0625 -19.390625 12.109375 -17.921875 
L 12.109375 -9.1875 
Q 16.0625 -11.328125 19.921875 -12.34375 
Q 23.78125 -13.375 27.78125 -13.375 
Q 36.625 -13.375 41.015625 -8.765625 
Q 45.40625 -4.15625 45.40625 5.171875 
L 45.40625 9.625 
Q 42.625 4.78125 38.28125 2.390625 
Q 33.9375 0 27.875 0 
Q 17.828125 0 11.671875 7.65625 
Q 5.515625 15.328125 5.515625 27.984375 
Q 5.515625 40.671875 11.671875 48.328125 
Q 17.828125 56 27.875 56 
Q 33.9375 56 38.28125 53.609375 
Q 42.625 51.21875 45.40625 46.390625 
L 45.40625 54.6875 
L 54.390625 54.6875 
z
" id="DejaVuSans-103"/>
       <path d="M 56.203125 29.59375 
L 56.203125 25.203125 
L 14.890625 25.203125 
Q 15.484375 15.921875 20.484375 11.0625 
Q 25.484375 6.203125 34.421875 6.203125 
Q 39.59375 6.203125 44.453125 7.46875 
Q 49.3125 8.734375 54.109375 11.28125 
L 54.109375 2.78125 
Q 49.265625 0.734375 44.1875 -0.34375 
Q 39.109375 -1.421875 33.890625 -1.421875 
Q 20.796875 -1.421875 13.15625 6.1875 
Q 5.515625 13.8125 5.515625 26.8125 
Q 5.515625 40.234375 12.765625 48.109375 
Q 20.015625 56 32.328125 56 
Q 43.359375 56 49.78125 48.890625 
Q 56.203125 41.796875 56.203125 29.59375 
z
M 47.21875 32.234375 
Q 47.125 39.59375 43.09375 43.984375 
Q 39.0625 48.390625 32.421875 48.390625 
Q 24.90625 48.390625 20.390625 44.140625 
Q 15.875 39.890625 15.1875 32.171875 
z
" id="DejaVuSans-101"/>
      </defs>
      <use xlink:href="#DejaVuSans-65"/>
      <use x="68.408203" xlink:href="#DejaVuSans-103"/>
      <use x="131.884766" xlink:href="#DejaVuSans-101"/>
     </g>
    </g>
   </g>
   <g id="matplotlib.axis_2">
    <g id="ytick_1">
     <g id="line2d_10">
      <path clip-path="url(#p2b6eaf8c48)" d="M 41.192188 165.1 
L 848.079111 165.1 
" style="fill:none;stroke:#ffffff;stroke-linecap:round;"/>
     </g>
     <g id="text_11">
      <!-- 0.00 -->
      <g style="fill:#262626;" transform="translate(7.2 169.279141)scale(0.11 -0.11)">
       <use xlink:href="#DejaVuSans-48"/>
       <use x="63.623047" xlink:href="#DejaVuSans-46"/>
       <use x="95.410156" xlink:href="#DejaVuSans-48"/>
       <use x="159.033203" xlink:href="#DejaVuSans-48"/>
      </g>
     </g>
    </g>
    <g id="ytick_2">
     <g id="line2d_11">
      <path clip-path="url(#p2b6eaf8c48)" d="M 41.192188 130.779038 
L 848.079111 130.779038 
" style="fill:none;stroke:#ffffff;stroke-linecap:round;"/>
     </g>
     <g id="text_12">
      <!-- 0.01 -->
      <g style="fill:#262626;" transform="translate(7.2 134.958179)scale(0.11 -0.11)">
       <use xlink:href="#DejaVuSans-48"/>
       <use x="63.623047" xlink:href="#DejaVuSans-46"/>
       <use x="95.410156" xlink:href="#DejaVuSans-48"/>
       <use x="159.033203" xlink:href="#DejaVuSans-49"/>
      </g>
     </g>
    </g>
    <g id="ytick_3">
     <g id="line2d_12">
      <path clip-path="url(#p2b6eaf8c48)" d="M 41.192188 96.458076 
L 848.079111 96.458076 
" style="fill:none;stroke:#ffffff;stroke-linecap:round;"/>
     </g>
     <g id="text_13">
      <!-- 0.02 -->
      <g style="fill:#262626;" transform="translate(7.2 100.637217)scale(0.11 -0.11)">
       <use xlink:href="#DejaVuSans-48"/>
       <use x="63.623047" xlink:href="#DejaVuSans-46"/>
       <use x="95.410156" xlink:href="#DejaVuSans-48"/>
       <use x="159.033203" xlink:href="#DejaVuSans-50"/>
      </g>
     </g>
    </g>
    <g id="ytick_4">
     <g id="line2d_13">
      <path clip-path="url(#p2b6eaf8c48)" d="M 41.192188 62.137114 
L 848.079111 62.137114 
" style="fill:none;stroke:#ffffff;stroke-linecap:round;"/>
     </g>
     <g id="text_14">
      <!-- 0.03 -->
      <g style="fill:#262626;" transform="translate(7.2 66.316255)scale(0.11 -0.11)">
       <defs>
        <path d="M 40.578125 39.3125 
Q 47.65625 37.796875 51.625 33 
Q 55.609375 28.21875 55.609375 21.1875 
Q 55.609375 10.40625 48.1875 4.484375 
Q 40.765625 -1.421875 27.09375 -1.421875 
Q 22.515625 -1.421875 17.65625 -0.515625 
Q 12.796875 0.390625 7.625 2.203125 
L 7.625 11.71875 
Q 11.71875 9.328125 16.59375 8.109375 
Q 21.484375 6.890625 26.8125 6.890625 
Q 36.078125 6.890625 40.9375 10.546875 
Q 45.796875 14.203125 45.796875 21.1875 
Q 45.796875 27.640625 41.28125 31.265625 
Q 36.765625 34.90625 28.71875 34.90625 
L 20.21875 34.90625 
L 20.21875 43.015625 
L 29.109375 43.015625 
Q 36.375 43.015625 40.234375 45.921875 
Q 44.09375 48.828125 44.09375 54.296875 
Q 44.09375 59.90625 40.109375 62.90625 
Q 36.140625 65.921875 28.71875 65.921875 
Q 24.65625 65.921875 20.015625 65.03125 
Q 15.375 64.15625 9.8125 62.3125 
L 9.8125 71.09375 
Q 15.4375 72.65625 20.34375 73.4375 
Q 25.25 74.21875 29.59375 74.21875 
Q 40.828125 74.21875 47.359375 69.109375 
Q 53.90625 64.015625 53.90625 55.328125 
Q 53.90625 49.265625 50.4375 45.09375 
Q 46.96875 40.921875 40.578125 39.3125 
z
" id="DejaVuSans-51"/>
       </defs>
       <use xlink:href="#DejaVuSans-48"/>
       <use x="63.623047" xlink:href="#DejaVuSans-46"/>
       <use x="95.410156" xlink:href="#DejaVuSans-48"/>
       <use x="159.033203" xlink:href="#DejaVuSans-51"/>
      </g>
     </g>
    </g>
    <g id="ytick_5">
     <g id="line2d_14">
      <path clip-path="url(#p2b6eaf8c48)" d="M 41.192188 27.816153 
L 848.079111 27.816153 
" style="fill:none;stroke:#ffffff;stroke-linecap:round;"/>
     </g>
     <g id="text_15">
      <!-- 0.04 -->
      <g style="fill:#262626;" transform="translate(7.2 31.995293)scale(0.11 -0.11)">
       <defs>
        <path d="M 37.796875 64.3125 
L 12.890625 25.390625 
L 37.796875 25.390625 
z
M 35.203125 72.90625 
L 47.609375 72.90625 
L 47.609375 25.390625 
L 58.015625 25.390625 
L 58.015625 17.1875 
L 47.609375 17.1875 
L 47.609375 0 
L 37.796875 0 
L 37.796875 17.1875 
L 4.890625 17.1875 
L 4.890625 26.703125 
z
" id="DejaVuSans-52"/>
       </defs>
       <use xlink:href="#DejaVuSans-48"/>
       <use x="63.623047" xlink:href="#DejaVuSans-46"/>
       <use x="95.410156" xlink:href="#DejaVuSans-48"/>
       <use x="159.033203" xlink:href="#DejaVuSans-52"/>
      </g>
     </g>
    </g>
   </g>
   <g id="PolyCollection_1">
    <path clip-path="url(#p2b6eaf8c48)" d="M -351.929756 165.059344 
L -351.929756 165.1 
L -332.773626 165.1 
L -313.617496 165.1 
L -294.461366 165.1 
L -275.305236 165.1 
L -256.149106 165.1 
L -236.992976 165.1 
L -217.836846 165.1 
L -198.680716 165.1 
L -179.524587 165.1 
L -160.368457 165.1 
L -141.212327 165.1 
L -122.056197 165.1 
L -102.900067 165.1 
L -83.743937 165.1 
L -64.587807 165.1 
L -45.431677 165.1 
L -26.275547 165.1 
L -7.119418 165.1 
L 12.036712 165.1 
L 31.192842 165.1 
L 50.348972 165.1 
L 69.505102 165.1 
L 88.661232 165.1 
L 107.817362 165.1 
L 126.973492 165.1 
L 146.129622 165.1 
L 165.285752 165.1 
L 184.441881 165.1 
L 203.598011 165.1 
L 222.754141 165.1 
L 241.910271 165.1 
L 261.066401 165.1 
L 280.222531 165.1 
L 299.378661 165.1 
L 318.534791 165.1 
L 337.690921 165.1 
L 356.84705 165.1 
L 376.00318 165.1 
L 395.15931 165.1 
L 414.31544 165.1 
L 433.47157 165.1 
L 452.6277 165.1 
L 471.78383 165.1 
L 490.93996 165.1 
L 510.09609 165.1 
L 529.252219 165.1 
L 548.408349 165.1 
L 567.564479 165.1 
L 586.720609 165.1 
L 605.876739 165.1 
L 625.032869 165.1 
L 644.188999 165.1 
L 663.345129 165.1 
L 682.501259 165.1 
L 701.657389 165.1 
L 720.813518 165.1 
L 739.969648 165.1 
L 759.125778 165.1 
L 778.281908 165.1 
L 797.438038 165.1 
L 816.594168 165.1 
L 835.750298 165.1 
L 854.906428 165.1 
L 874.062558 165.1 
L 893.218687 165.1 
L 912.374817 165.1 
L 931.530947 165.1 
L 950.687077 165.1 
L 969.843207 165.1 
L 988.999337 165.1 
L 1008.155467 165.1 
L 1027.311597 165.1 
L 1046.467727 165.1 
L 1065.623856 165.1 
L 1084.779986 165.1 
L 1103.936116 165.1 
L 1123.092246 165.1 
L 1142.248376 165.1 
L 1161.404506 165.1 
L 1180.560636 165.1 
L 1199.716766 165.1 
L 1218.872896 165.1 
L 1238.029026 165.1 
L 1257.185155 165.1 
L 1276.341285 165.1 
L 1295.497415 165.1 
L 1314.653545 165.1 
L 1333.809675 165.1 
L 1352.965805 165.1 
L 1372.121935 165.1 
L 1391.278065 165.1 
L 1410.434195 165.1 
L 1429.590324 165.1 
L 1448.746454 165.1 
L 1467.902584 165.1 
L 1487.058714 165.1 
L 1506.214844 165.1 
L 1525.370974 165.1 
L 1544.527104 165.1 
L 1563.683234 165.1 
L 1582.839364 165.1 
L 1601.995493 165.1 
L 1621.151623 165.1 
L 1640.307753 165.1 
L 1659.463883 165.1 
L 1678.620013 165.1 
L 1697.776143 165.1 
L 1716.932273 165.1 
L 1736.088403 165.1 
L 1755.244533 165.1 
L 1774.400662 165.1 
L 1793.556792 165.1 
L 1812.712922 165.1 
L 1831.869052 165.1 
L 1851.025182 165.1 
L 1870.181312 165.1 
L 1889.337442 165.1 
L 1908.493572 165.1 
L 1927.649702 165.1 
L 1946.805832 165.1 
L 1965.961961 165.1 
L 1985.118091 165.1 
L 2004.274221 165.1 
L 2023.430351 165.1 
L 2042.586481 165.1 
L 2061.742611 165.1 
L 2080.898741 165.1 
L 2100.054871 165.1 
L 2119.211001 165.1 
L 2138.36713 165.1 
L 2157.52326 165.1 
L 2176.67939 165.1 
L 2195.83552 165.1 
L 2214.99165 165.1 
L 2234.14778 165.1 
L 2253.30391 165.1 
L 2272.46004 165.1 
L 2291.61617 165.1 
L 2310.772299 165.1 
L 2329.928429 165.1 
L 2349.084559 165.1 
L 2368.240689 165.1 
L 2387.396819 165.1 
L 2406.552949 165.1 
L 2425.709079 165.1 
L 2444.865209 165.1 
L 2464.021339 165.1 
L 2483.177469 165.1 
L 2502.333598 165.1 
L 2521.489728 165.1 
L 2540.645858 165.1 
L 2559.801988 165.1 
L 2578.958118 165.1 
L 2598.114248 165.1 
L 2617.270378 165.1 
L 2636.426508 165.1 
L 2655.582638 165.1 
L 2674.738767 165.1 
L 2693.894897 165.1 
L 2713.051027 165.1 
L 2732.207157 165.1 
L 2751.363287 165.1 
L 2770.519417 165.1 
L 2789.675547 165.1 
L 2808.831677 165.1 
L 2827.987807 165.1 
L 2847.143936 165.1 
L 2866.300066 165.1 
L 2885.456196 165.1 
L 2904.612326 165.1 
L 2923.768456 165.1 
L 2942.924586 165.1 
L 2962.080716 165.1 
L 2981.236846 165.1 
L 3000.392976 165.1 
L 3019.549105 165.1 
L 3038.705235 165.1 
L 3057.861365 165.1 
L 3077.017495 165.1 
L 3096.173625 165.1 
L 3115.329755 165.1 
L 3134.485885 165.1 
L 3153.642015 165.1 
L 3172.798145 165.1 
L 3191.954275 165.1 
L 3211.110404 165.1 
L 3230.266534 165.1 
L 3249.422664 165.1 
L 3268.578794 165.1 
L 3287.734924 165.1 
L 3306.891054 165.1 
L 3326.047184 165.1 
L 3345.203314 165.1 
L 3364.359444 165.1 
L 3383.515573 165.1 
L 3402.671703 165.1 
L 3421.827833 165.1 
L 3440.983963 165.1 
L 3460.140093 165.1 
L 3460.140093 165.090833 
L 3460.140093 165.090833 
L 3440.983963 165.086201 
L 3421.827833 165.079545 
L 3402.671703 165.070135 
L 3383.515573 165.057046 
L 3364.359444 165.039128 
L 3345.203314 165.014985 
L 3326.047184 164.982964 
L 3306.891054 164.941152 
L 3287.734924 164.887398 
L 3268.578794 164.819357 
L 3249.422664 164.734556 
L 3230.266534 164.630496 
L 3211.110404 164.504783 
L 3191.954275 164.355284 
L 3172.798145 164.180311 
L 3153.642015 163.978805 
L 3134.485885 163.750529 
L 3115.329755 163.496219 
L 3096.173625 163.217703 
L 3077.017495 162.917936 
L 3057.861365 162.600947 
L 3038.705235 162.27168 
L 3019.549105 161.935721 
L 3000.392976 161.598928 
L 2981.236846 161.266979 
L 2962.080716 160.944895 
L 2942.924586 160.636568 
L 2923.768456 160.344371 
L 2904.612326 160.068891 
L 2885.456196 159.808834 
L 2866.300066 159.561124 
L 2847.143936 159.321195 
L 2827.987807 159.083447 
L 2808.831677 158.841822 
L 2789.675547 158.590421 
L 2770.519417 158.324098 
L 2751.363287 158.038957 
L 2732.207157 157.7327 
L 2713.051027 157.404787 
L 2693.894897 157.056417 
L 2674.738767 156.690322 
L 2655.582638 156.310441 
L 2636.426508 155.9215 
L 2617.270378 155.528561 
L 2598.114248 155.136583 
L 2578.958118 154.750032 
L 2559.801988 154.372565 
L 2540.645858 154.006805 
L 2521.489728 153.65419 
L 2502.333598 153.314911 
L 2483.177469 152.987921 
L 2464.021339 152.670995 
L 2444.865209 152.360847 
L 2425.709079 152.053281 
L 2406.552949 151.74337 
L 2387.396819 151.425666 
L 2368.240689 151.094408 
L 2349.084559 150.743743 
L 2329.928429 150.367935 
L 2310.772299 149.961563 
L 2291.61617 149.519685 
L 2272.46004 149.037989 
L 2253.30391 148.512899 
L 2234.14778 147.941651 
L 2214.99165 147.322351 
L 2195.83552 146.653998 
L 2176.67939 145.936493 
L 2157.52326 145.170655 
L 2138.36713 144.358217 
L 2119.211001 143.501846 
L 2100.054871 142.605153 
L 2080.898741 141.672699 
L 2061.742611 140.709983 
L 2042.586481 139.723379 
L 2023.430351 138.720004 
L 2004.274221 137.707505 
L 1985.118091 136.693736 
L 1965.961961 135.686347 
L 1946.805832 134.692294 
L 1927.649702 133.717314 
L 1908.493572 132.765405 
L 1889.337442 131.838371 
L 1870.181312 130.935474 
L 1851.025182 130.053217 
L 1831.869052 129.185265 
L 1812.712922 128.322479 
L 1793.556792 127.453004 
L 1774.400662 126.562348 
L 1755.244533 125.633356 
L 1736.088403 124.646034 
L 1716.932273 123.577152 
L 1697.776143 122.399646 
L 1678.620013 121.081861 
L 1659.463883 119.586772 
L 1640.307753 117.871342 
L 1621.151623 115.886288 
L 1601.995493 113.576507 
L 1582.839364 110.882462 
L 1563.683234 107.742763 
L 1544.527104 104.098105 
L 1525.370974 99.896568 
L 1506.214844 95.100099 
L 1487.058714 89.691755 
L 1467.902584 83.68306 
L 1448.746454 77.120606 
L 1429.590324 70.090921 
L 1410.434195 62.722607 
L 1391.278065 55.184887 
L 1372.121935 47.682024 
L 1352.965805 40.443517 
L 1333.809675 33.710499 
L 1314.653545 27.719357 
L 1295.497415 22.684066 
L 1276.341285 18.779053 
L 1257.185155 16.124507 
L 1238.029026 14.775902 
L 1218.872896 14.719048 
L 1199.716766 15.871363 
L 1180.560636 18.089337 
L 1161.404506 21.181372 
L 1142.248376 24.924622 
L 1123.092246 29.083935 
L 1103.936116 33.430936 
L 1084.779986 37.761278 
L 1065.623856 41.90852 
L 1046.467727 45.753506 
L 1027.311597 49.228771 
L 1008.155467 52.318019 
L 988.999337 55.051268 
L 969.843207 57.496572 
L 950.687077 59.749488 
L 931.530947 61.921469 
L 912.374817 64.128319 
L 893.218687 66.479641 
L 874.062558 69.069997 
L 854.906428 71.972232 
L 835.750298 75.233157 
L 816.594168 78.871597 
L 797.438038 82.878604 
L 778.281908 87.21954 
L 759.125778 91.837656 
L 739.969648 96.658749 
L 720.813518 101.596492 
L 701.657389 106.558057 
L 682.501259 111.44968 
L 663.345129 116.181878 
L 644.188999 120.674056 
L 625.032869 124.858292 
L 605.876739 128.682169 
L 586.720609 132.110504 
L 567.564479 135.125958 
L 548.408349 137.728511 
L 529.252219 139.933896 
L 510.09609 141.771128 
L 490.93996 143.279362 
L 471.78383 144.504339 
L 452.6277 145.494735 
L 433.47157 146.29873 
L 414.31544 146.961086 
L 395.15931 147.520951 
L 376.00318 148.010549 
L 356.84705 148.454783 
L 337.690921 148.871677 
L 318.534791 149.273498 
L 299.378661 149.668319 
L 280.222531 150.061728 
L 261.066401 150.45843 
L 241.910271 150.863494 
L 222.754141 151.283092 
L 203.598011 151.724651 
L 184.441881 152.196459 
L 165.285752 152.706838 
L 146.129622 153.263047 
L 126.973492 153.870144 
L 107.817362 154.529999 
L 88.661232 155.240619 
L 69.505102 155.99592 
L 50.348972 156.785956 
L 31.192842 157.597581 
L 12.036712 158.415459 
L -7.119418 159.223266 
L -26.275547 160.004951 
L -45.431677 160.74589 
L -64.587807 161.433834 
L -83.743937 162.059551 
L -102.900067 162.617145 
L -122.056197 163.104057 
L -141.212327 163.520789 
L -160.368457 163.870428 
L -179.524587 164.158052 
L -198.680716 164.390083 
L -217.836846 164.573679 
L -236.992976 164.716188 
L -256.149106 164.824717 
L -275.305236 164.90582 
L -294.461366 164.965299 
L -313.617496 165.008112 
L -332.773626 165.038362 
L -351.929756 165.059344 
z
" style="fill:#4c72b0;fill-opacity:0.25;stroke:#4c72b0;"/>
   </g>
   <g id="PolyCollection_2">
    <path clip-path="url(#p2b6eaf8c48)" d="M -470.698147 164.986147 
L -470.698147 165.1 
L -449.249539 165.1 
L -427.800931 165.1 
L -406.352323 165.1 
L -384.903715 165.1 
L -363.455107 165.1 
L -342.006499 165.1 
L -320.557891 165.1 
L -299.109283 165.1 
L -277.660675 165.1 
L -256.212067 165.1 
L -234.763459 165.1 
L -213.314851 165.1 
L -191.866243 165.1 
L -170.417635 165.1 
L -148.969027 165.1 
L -127.520419 165.1 
L -106.071811 165.1 
L -84.623203 165.1 
L -63.174595 165.1 
L -41.725988 165.1 
L -20.27738 165.1 
L 1.171228 165.1 
L 22.619836 165.1 
L 44.068444 165.1 
L 65.517052 165.1 
L 86.96566 165.1 
L 108.414268 165.1 
L 129.862876 165.1 
L 151.311484 165.1 
L 172.760092 165.1 
L 194.2087 165.1 
L 215.657308 165.1 
L 237.105916 165.1 
L 258.554524 165.1 
L 280.003132 165.1 
L 301.45174 165.1 
L 322.900348 165.1 
L 344.348956 165.1 
L 365.797564 165.1 
L 387.246172 165.1 
L 408.69478 165.1 
L 430.143388 165.1 
L 451.591996 165.1 
L 473.040604 165.1 
L 494.489212 165.1 
L 515.93782 165.1 
L 537.386428 165.1 
L 558.835036 165.1 
L 580.283644 165.1 
L 601.732252 165.1 
L 623.18086 165.1 
L 644.629468 165.1 
L 666.078076 165.1 
L 687.526684 165.1 
L 708.975292 165.1 
L 730.4239 165.1 
L 751.872508 165.1 
L 773.321116 165.1 
L 794.769724 165.1 
L 816.218332 165.1 
L 837.66694 165.1 
L 859.115548 165.1 
L 880.564156 165.1 
L 902.012764 165.1 
L 923.461372 165.1 
L 944.90998 165.1 
L 966.358588 165.1 
L 987.807195 165.1 
L 1009.255803 165.1 
L 1030.704411 165.1 
L 1052.153019 165.1 
L 1073.601627 165.1 
L 1095.050235 165.1 
L 1116.498843 165.1 
L 1137.947451 165.1 
L 1159.396059 165.1 
L 1180.844667 165.1 
L 1202.293275 165.1 
L 1223.741883 165.1 
L 1245.190491 165.1 
L 1266.639099 165.1 
L 1288.087707 165.1 
L 1309.536315 165.1 
L 1330.984923 165.1 
L 1352.433531 165.1 
L 1373.882139 165.1 
L 1395.330747 165.1 
L 1416.779355 165.1 
L 1438.227963 165.1 
L 1459.676571 165.1 
L 1481.125179 165.1 
L 1502.573787 165.1 
L 1524.022395 165.1 
L 1545.471003 165.1 
L 1566.919611 165.1 
L 1588.368219 165.1 
L 1609.816827 165.1 
L 1631.265435 165.1 
L 1652.714043 165.1 
L 1674.162651 165.1 
L 1695.611259 165.1 
L 1717.059867 165.1 
L 1738.508475 165.1 
L 1759.957083 165.1 
L 1781.405691 165.1 
L 1802.854299 165.1 
L 1824.302907 165.1 
L 1845.751515 165.1 
L 1867.200123 165.1 
L 1888.648731 165.1 
L 1910.097339 165.1 
L 1931.545947 165.1 
L 1952.994555 165.1 
L 1974.443163 165.1 
L 1995.891771 165.1 
L 2017.340378 165.1 
L 2038.788986 165.1 
L 2060.237594 165.1 
L 2081.686202 165.1 
L 2103.13481 165.1 
L 2124.583418 165.1 
L 2146.032026 165.1 
L 2167.480634 165.1 
L 2188.929242 165.1 
L 2210.37785 165.1 
L 2231.826458 165.1 
L 2253.275066 165.1 
L 2274.723674 165.1 
L 2296.172282 165.1 
L 2317.62089 165.1 
L 2339.069498 165.1 
L 2360.518106 165.1 
L 2381.966714 165.1 
L 2403.415322 165.1 
L 2424.86393 165.1 
L 2446.312538 165.1 
L 2467.761146 165.1 
L 2489.209754 165.1 
L 2510.658362 165.1 
L 2532.10697 165.1 
L 2553.555578 165.1 
L 2575.004186 165.1 
L 2596.452794 165.1 
L 2617.901402 165.1 
L 2639.35001 165.1 
L 2660.798618 165.1 
L 2682.247226 165.1 
L 2703.695834 165.1 
L 2725.144442 165.1 
L 2746.59305 165.1 
L 2768.041658 165.1 
L 2789.490266 165.1 
L 2810.938874 165.1 
L 2832.387482 165.1 
L 2853.83609 165.1 
L 2875.284698 165.1 
L 2896.733306 165.1 
L 2918.181914 165.1 
L 2939.630522 165.1 
L 2961.07913 165.1 
L 2982.527738 165.1 
L 3003.976346 165.1 
L 3025.424954 165.1 
L 3046.873562 165.1 
L 3068.322169 165.1 
L 3089.770777 165.1 
L 3111.219385 165.1 
L 3132.667993 165.1 
L 3154.116601 165.1 
L 3175.565209 165.1 
L 3197.013817 165.1 
L 3218.462425 165.1 
L 3239.911033 165.1 
L 3261.359641 165.1 
L 3282.808249 165.1 
L 3304.256857 165.1 
L 3325.705465 165.1 
L 3347.154073 165.1 
L 3368.602681 165.1 
L 3390.051289 165.1 
L 3411.499897 165.1 
L 3432.948505 165.1 
L 3454.397113 165.1 
L 3475.845721 165.1 
L 3497.294329 165.1 
L 3518.742937 165.1 
L 3540.191545 165.1 
L 3561.640153 165.1 
L 3583.088761 165.1 
L 3604.537369 165.1 
L 3625.985977 165.1 
L 3647.434585 165.1 
L 3668.883193 165.1 
L 3690.331801 165.1 
L 3711.780409 165.1 
L 3733.229017 165.1 
L 3754.677625 165.1 
L 3776.126233 165.1 
L 3797.574841 165.1 
L 3797.574841 165.089821 
L 3797.574841 165.089821 
L 3776.126233 165.085445 
L 3754.677625 165.079493 
L 3733.229017 165.071532 
L 3711.780409 165.061062 
L 3690.331801 165.047523 
L 3668.883193 165.030315 
L 3647.434585 165.008826 
L 3625.985977 164.982462 
L 3604.537369 164.950702 
L 3583.088761 164.913146 
L 3561.640153 164.869581 
L 3540.191545 164.820033 
L 3518.742937 164.76483 
L 3497.294329 164.704638 
L 3475.845721 164.640489 
L 3454.397113 164.573779 
L 3432.948505 164.506236 
L 3411.499897 164.439863 
L 3390.051289 164.376847 
L 3368.602681 164.319438 
L 3347.154073 164.269823 
L 3325.705465 164.229975 
L 3304.256857 164.201525 
L 3282.808249 164.185631 
L 3261.359641 164.182889 
L 3239.911033 164.193269 
L 3218.462425 164.216091 
L 3197.013817 164.250041 
L 3175.565209 164.293222 
L 3154.116601 164.343227 
L 3132.667993 164.39723 
L 3111.219385 164.452081 
L 3089.770777 164.504393 
L 3068.322169 164.550614 
L 3046.873562 164.587076 
L 3025.424954 164.610032 
L 3003.976346 164.615663 
L 2982.527738 164.600088 
L 2961.07913 164.559371 
L 2939.630522 164.489543 
L 2918.181914 164.386649 
L 2896.733306 164.246828 
L 2875.284698 164.066435 
L 2853.83609 163.842195 
L 2832.387482 163.571386 
L 2810.938874 163.252033 
L 2789.490266 162.883105 
L 2768.041658 162.464668 
L 2746.59305 161.997999 
L 2725.144442 161.485615 
L 2703.695834 160.931225 
L 2682.247226 160.339571 
L 2660.798618 159.716185 
L 2639.35001 159.067055 
L 2617.901402 158.398238 
L 2596.452794 157.715437 
L 2575.004186 157.023583 
L 2553.555578 156.326466 
L 2532.10697 155.626439 
L 2510.658362 154.924235 
L 2489.209754 154.218912 
L 2467.761146 153.507943 
L 2446.312538 152.78745 
L 2424.86393 152.052564 
L 2403.415322 151.297896 
L 2381.966714 150.518091 
L 2360.518106 149.70841 
L 2339.069498 148.865311 
L 2317.62089 147.98698 
L 2296.172282 147.073755 
L 2274.723674 146.128408 
L 2253.275066 145.156253 
L 2231.826458 144.165035 
L 2210.37785 143.164602 
L 2188.929242 142.16636 
L 2167.480634 141.182524 
L 2146.032026 140.225217 
L 2124.583418 139.305459 
L 2103.13481 138.432137 
L 2081.686202 137.611017 
L 2060.237594 136.843887 
L 2038.788986 136.127901 
L 2017.340378 135.455183 
L 1995.891771 134.812723 
L 1974.443163 134.182581 
L 1952.994555 133.542378 
L 1931.545947 132.866052 
L 1910.097339 132.124816 
L 1888.648731 131.288257 
L 1867.200123 130.325534 
L 1845.751515 129.206595 
L 1824.302907 127.903391 
L 1802.854299 126.39105 
L 1781.405691 124.648976 
L 1759.957083 122.661876 
L 1738.508475 120.420682 
L 1717.059867 117.923344 
L 1695.611259 115.175462 
L 1674.162651 112.190707 
L 1652.714043 108.99097 
L 1631.265435 105.606203 
L 1609.816827 102.073886 
L 1588.368219 98.438116 
L 1566.919611 94.748314 
L 1545.471003 91.057585 
L 1524.022395 87.420822 
L 1502.573787 83.892633 
L 1481.125179 80.525226 
L 1459.676571 77.366359 
L 1438.227963 74.457498 
L 1416.779355 71.832247 
L 1395.330747 69.515161 
L 1373.882139 67.520964 
L 1352.433531 65.854215 
L 1330.984923 64.509425 
L 1309.536315 63.471631 
L 1288.087707 62.717404 
L 1266.639099 62.216282 
L 1245.190491 61.932608 
L 1223.741883 61.827697 
L 1202.293275 61.862294 
L 1180.844667 61.999182 
L 1159.396059 62.205818 
L 1137.947451 62.456802 
L 1116.498843 62.736001 
L 1095.050235 63.038106 
L 1073.601627 63.369468 
L 1052.153019 63.748063 
L 1030.704411 64.202542 
L 1009.255803 64.770373 
L 987.807195 65.495199 
L 966.358588 66.423586 
L 944.90998 67.601433 
L 923.461372 69.070323 
L 902.012764 70.864122 
L 880.564156 73.006084 
L 859.115548 75.506694 
L 837.66694 78.362383 
L 816.218332 81.555171 
L 794.769724 85.053225 
L 773.321116 88.812213 
L 751.872508 92.777315 
L 730.4239 96.885689 
L 708.975292 101.069201 
L 687.526684 105.25722 
L 666.078076 109.379323 
L 644.629468 113.367769 
L 623.18086 117.159675 
L 601.732252 120.698822 
L 580.283644 123.937105 
L 558.835036 126.835609 
L 537.386428 129.365369 
L 515.93782 131.507826 
L 494.489212 133.255034 
L 473.040604 134.609635 
L 451.591996 135.584629 
L 430.143388 136.202945 
L 408.69478 136.496815 
L 387.246172 136.506936 
L 365.797564 136.281404 
L 344.348956 135.874407 
L 322.900348 135.344664 
L 301.45174 134.753622 
L 280.003132 134.163439 
L 258.554524 133.634794 
L 237.105916 133.224619 
L 215.657308 132.983853 
L 194.2087 132.955345 
L 172.760092 133.172032 
L 151.311484 133.655552 
L 129.862876 134.415379 
L 108.414268 135.448584 
L 86.96566 136.74026 
L 65.517052 138.264599 
L 44.068444 139.986561 
L 22.619836 141.864017 
L 1.171228 143.85022 
L -20.27738 145.896421 
L -41.725988 147.954438 
L -63.174595 149.979015 
L -84.623203 151.929799 
L -106.071811 153.772849 
L -127.520419 155.481603 
L -148.969027 157.037283 
L -170.417635 158.428797 
L -191.866243 159.652187 
L -213.314851 160.709739 
L -234.763459 161.608866 
L -256.212067 162.360878 
L -277.660675 162.979743 
L -299.109283 163.480937 
L -320.557891 163.880436 
L -342.006499 164.193888 
L -363.455107 164.436002 
L -384.903715 164.620119 
L -406.352323 164.757976 
L -427.800931 164.859611 
L -449.249539 164.933397 
L -470.698147 164.986147 
z
" style="fill:#dd8452;fill-opacity:0.25;stroke:#dd8452;"/>
   </g>
   <g id="patch_3">
    <path d="M 41.192188 165.1 
L 41.192188 7.2 
" style="fill:none;stroke:#ffffff;stroke-linecap:square;stroke-linejoin:miter;stroke-width:1.25;"/>
   </g>
   <g id="patch_4">
    <path d="M 41.192188 165.1 
L 848.079111 165.1 
" style="fill:none;stroke:#ffffff;stroke-linecap:square;stroke-linejoin:miter;stroke-width:1.25;"/>
   </g>
  </g>
  <g id="legend_1">
   <g id="text_16">
    <!-- Survived -->
    <g style="fill:#262626;" transform="translate(857.987736 91.195156)scale(0.12 -0.12)">
     <defs>
      <path d="M 53.515625 70.515625 
L 53.515625 60.890625 
Q 47.90625 63.578125 42.921875 64.890625 
Q 37.9375 66.21875 33.296875 66.21875 
Q 25.25 66.21875 20.875 63.09375 
Q 16.5 59.96875 16.5 54.203125 
Q 16.5 49.359375 19.40625 46.890625 
Q 22.3125 44.4375 30.421875 42.921875 
L 36.375 41.703125 
Q 47.40625 39.59375 52.65625 34.296875 
Q 57.90625 29 57.90625 20.125 
Q 57.90625 9.515625 50.796875 4.046875 
Q 43.703125 -1.421875 29.984375 -1.421875 
Q 24.8125 -1.421875 18.96875 -0.25 
Q 13.140625 0.921875 6.890625 3.21875 
L 6.890625 13.375 
Q 12.890625 10.015625 18.65625 8.296875 
Q 24.421875 6.59375 29.984375 6.59375 
Q 38.421875 6.59375 43.015625 9.90625 
Q 47.609375 13.234375 47.609375 19.390625 
Q 47.609375 24.75 44.3125 27.78125 
Q 41.015625 30.8125 33.5 32.328125 
L 27.484375 33.5 
Q 16.453125 35.6875 11.515625 40.375 
Q 6.59375 45.0625 6.59375 53.421875 
Q 6.59375 63.09375 13.40625 68.65625 
Q 20.21875 74.21875 32.171875 74.21875 
Q 37.3125 74.21875 42.625 73.28125 
Q 47.953125 72.359375 53.515625 70.515625 
z
" id="DejaVuSans-83"/>
      <path d="M 8.5 21.578125 
L 8.5 54.6875 
L 17.484375 54.6875 
L 17.484375 21.921875 
Q 17.484375 14.15625 20.5 10.265625 
Q 23.53125 6.390625 29.59375 6.390625 
Q 36.859375 6.390625 41.078125 11.03125 
Q 45.3125 15.671875 45.3125 23.6875 
L 45.3125 54.6875 
L 54.296875 54.6875 
L 54.296875 0 
L 45.3125 0 
L 45.3125 8.40625 
Q 42.046875 3.421875 37.71875 1 
Q 33.40625 -1.421875 27.6875 -1.421875 
Q 18.265625 -1.421875 13.375 4.4375 
Q 8.5 10.296875 8.5 21.578125 
z
M 31.109375 56 
z
" id="DejaVuSans-117"/>
      <path d="M 41.109375 46.296875 
Q 39.59375 47.171875 37.8125 47.578125 
Q 36.03125 48 33.890625 48 
Q 26.265625 48 22.1875 43.046875 
Q 18.109375 38.09375 18.109375 28.8125 
L 18.109375 0 
L 9.078125 0 
L 9.078125 54.6875 
L 18.109375 54.6875 
L 18.109375 46.1875 
Q 20.953125 51.171875 25.484375 53.578125 
Q 30.03125 56 36.53125 56 
Q 37.453125 56 38.578125 55.875 
Q 39.703125 55.765625 41.0625 55.515625 
z
" id="DejaVuSans-114"/>
      <path d="M 2.984375 54.6875 
L 12.5 54.6875 
L 29.59375 8.796875 
L 46.6875 54.6875 
L 56.203125 54.6875 
L 35.6875 0 
L 23.484375 0 
z
" id="DejaVuSans-118"/>
      <path d="M 9.421875 54.6875 
L 18.40625 54.6875 
L 18.40625 0 
L 9.421875 0 
z
M 9.421875 75.984375 
L 18.40625 75.984375 
L 18.40625 64.59375 
L 9.421875 64.59375 
z
" id="DejaVuSans-105"/>
      <path d="M 45.40625 46.390625 
L 45.40625 75.984375 
L 54.390625 75.984375 
L 54.390625 0 
L 45.40625 0 
L 45.40625 8.203125 
Q 42.578125 3.328125 38.25 0.953125 
Q 33.9375 -1.421875 27.875 -1.421875 
Q 17.96875 -1.421875 11.734375 6.484375 
Q 5.515625 14.40625 5.515625 27.296875 
Q 5.515625 40.1875 11.734375 48.09375 
Q 17.96875 56 27.875 56 
Q 33.9375 56 38.25 53.625 
Q 42.578125 51.265625 45.40625 46.390625 
z
M 14.796875 27.296875 
Q 14.796875 17.390625 18.875 11.75 
Q 22.953125 6.109375 30.078125 6.109375 
Q 37.203125 6.109375 41.296875 11.75 
Q 45.40625 17.390625 45.40625 27.296875 
Q 45.40625 37.203125 41.296875 42.84375 
Q 37.203125 48.484375 30.078125 48.484375 
Q 22.953125 48.484375 18.875 42.84375 
Q 14.796875 37.203125 14.796875 27.296875 
z
" id="DejaVuSans-100"/>
     </defs>
     <use xlink:href="#DejaVuSans-83"/>
     <use x="63.476562" xlink:href="#DejaVuSans-117"/>
     <use x="126.855469" xlink:href="#DejaVuSans-114"/>
     <use x="167.96875" xlink:href="#DejaVuSans-118"/>
     <use x="227.148438" xlink:href="#DejaVuSans-105"/>
     <use x="254.931641" xlink:href="#DejaVuSans-118"/>
     <use x="314.111328" xlink:href="#DejaVuSans-101"/>
     <use x="375.634766" xlink:href="#DejaVuSans-100"/>
    </g>
   </g>
   <g id="patch_5">
    <path d="M 865.436798 107.549062 
L 887.436798 107.549062 
L 887.436798 99.849062 
L 865.436798 99.849062 
z
" style="fill:#4c72b0;fill-opacity:0.25;stroke:#4c72b0;stroke-linejoin:miter;"/>
   </g>
   <g id="text_17">
    <!-- 0 -->
    <g style="fill:#262626;" transform="translate(896.236798 107.549062)scale(0.11 -0.11)">
     <use xlink:href="#DejaVuSans-48"/>
    </g>
   </g>
   <g id="patch_6">
    <path d="M 865.436798 123.695 
L 887.436798 123.695 
L 887.436798 115.995 
L 865.436798 115.995 
z
" style="fill:#dd8452;fill-opacity:0.25;stroke:#dd8452;stroke-linejoin:miter;"/>
   </g>
   <g id="text_18">
    <!-- 1 -->
    <g style="fill:#262626;" transform="translate(896.236798 123.695)scale(0.11 -0.11)">
     <use xlink:href="#DejaVuSans-49"/>
    </g>
   </g>
  </g>
 </g>
 <defs>
  <clipPath id="p2b6eaf8c48">
   <rect height="157.9" width="806.886923" x="41.192188" y="7.2"/>
  </clipPath>
 </defs>
</svg>
