<?xml version="1.0" encoding="utf-8" standalone="no"?>
<!DOCTYPE svg PUBLIC "-//W3C//DTD SVG 1.1//EN"
  "http://www.w3.org/Graphics/SVG/1.1/DTD/svg11.dtd">
<!-- Created with matplotlib (https://matplotlib.org/) -->
<svg height="208.059687pt" version="1.1" viewBox="0 0 921.08453 208.059687" width="921.08453pt" xmlns="http://www.w3.org/2000/svg" xmlns:xlink="http://www.w3.org/1999/xlink">
 <metadata>
  <rdf:RDF xmlns:cc="http://creativecommons.org/ns#" xmlns:dc="http://purl.org/dc/elements/1.1/" xmlns:rdf="http://www.w3.org/1999/02/22-rdf-syntax-ns#">
   <cc:Work>
    <dc:type rdf:resource="http://purl.org/dc/dcmitype/StillImage"/>
    <dc:date>2021-06-21T14:05:12.518317</dc:date>
    <dc:format>image/svg+xml</dc:format>
    <dc:creator>
     <cc:Agent>
      <dc:title>Matplotlib v3.3.4, https://matplotlib.org/</dc:title>
     </cc:Agent>
    </dc:creator>
   </cc:Work>
  </rdf:RDF>
 </metadata>
 <defs>
  <style type="text/css">*{stroke-linecap:butt;stroke-linejoin:round;}</style>
 </defs>
 <g id="figure_1">
  <g id="patch_1">
   <path d="M 0 208.059687 
L 921.08453 208.059687 
L 921.08453 0 
L 0 0 
z
" style="fill:none;"/>
  </g>
  <g id="axes_1">
   <g id="patch_2">
    <path d="M 34.193438 165.1 
L 848.57903 165.1 
L 848.57903 7.2 
L 34.193438 7.2 
z
" style="fill:#eaeaf2;"/>
   </g>
   <g id="matplotlib.axis_1">
    <g id="xtick_1">
     <g id="line2d_1">
      <path clip-path="url(#p53d8ac574f)" d="M 34.193438 165.1 
L 34.193438 7.2 
" style="fill:none;stroke:#ffffff;stroke-linecap:round;"/>
     </g>
     <g id="text_1">
      <!-- 0 -->
      <g style="fill:#262626;" transform="translate(30.694063 182.958281)scale(0.11 -0.11)">
       <defs>
        <path d="M 31.78125 66.40625 
Q 24.171875 66.40625 20.328125 58.90625 
Q 16.5 51.421875 16.5 36.375 
Q 16.5 21.390625 20.328125 13.890625 
Q 24.171875 6.390625 31.78125 6.390625 
Q 39.453125 6.390625 43.28125 13.890625 
Q 47.125 21.390625 47.125 36.375 
Q 47.125 51.421875 43.28125 58.90625 
Q 39.453125 66.40625 31.78125 66.40625 
z
M 31.78125 74.21875 
Q 44.046875 74.21875 50.515625 64.515625 
Q 56.984375 54.828125 56.984375 36.375 
Q 56.984375 17.96875 50.515625 8.265625 
Q 44.046875 -1.421875 31.78125 -1.421875 
Q 19.53125 -1.421875 13.0625 8.265625 
Q 6.59375 17.96875 6.59375 36.375 
Q 6.59375 54.828125 13.0625 64.515625 
Q 19.53125 74.21875 31.78125 74.21875 
z
" id="DejaVuSans-48"/>
       </defs>
       <use xlink:href="#DejaVuSans-48"/>
      </g>
     </g>
    </g>
    <g id="xtick_2">
     <g id="line2d_2">
      <path clip-path="url(#p53d8ac574f)" d="M 182.263545 165.1 
L 182.263545 7.2 
" style="fill:none;stroke:#ffffff;stroke-linecap:round;"/>
     </g>
     <g id="text_2">
      <!-- 2 -->
      <g style="fill:#262626;" transform="translate(178.76417 182.958281)scale(0.11 -0.11)">
       <defs>
        <path d="M 19.1875 8.296875 
L 53.609375 8.296875 
L 53.609375 0 
L 7.328125 0 
L 7.328125 8.296875 
Q 12.9375 14.109375 22.625 23.890625 
Q 32.328125 33.6875 34.8125 36.53125 
Q 39.546875 41.84375 41.421875 45.53125 
Q 43.3125 49.21875 43.3125 52.78125 
Q 43.3125 58.59375 39.234375 62.25 
Q 35.15625 65.921875 28.609375 65.921875 
Q 23.96875 65.921875 18.8125 64.3125 
Q 13.671875 62.703125 7.8125 59.421875 
L 7.8125 69.390625 
Q 13.765625 71.78125 18.9375 73 
Q 24.125 74.21875 28.421875 74.21875 
Q 39.75 74.21875 46.484375 68.546875 
Q 53.21875 62.890625 53.21875 53.421875 
Q 53.21875 48.921875 51.53125 44.890625 
Q 49.859375 40.875 45.40625 35.40625 
Q 44.1875 33.984375 37.640625 27.21875 
Q 31.109375 20.453125 19.1875 8.296875 
z
" id="DejaVuSans-50"/>
       </defs>
       <use xlink:href="#DejaVuSans-50"/>
      </g>
     </g>
    </g>
    <g id="xtick_3">
     <g id="line2d_3">
      <path clip-path="url(#p53d8ac574f)" d="M 330.333653 165.1 
L 330.333653 7.2 
" style="fill:none;stroke:#ffffff;stroke-linecap:round;"/>
     </g>
     <g id="text_3">
      <!-- 4 -->
      <g style="fill:#262626;" transform="translate(326.834278 182.958281)scale(0.11 -0.11)">
       <defs>
        <path d="M 37.796875 64.3125 
L 12.890625 25.390625 
L 37.796875 25.390625 
z
M 35.203125 72.90625 
L 47.609375 72.90625 
L 47.609375 25.390625 
L 58.015625 25.390625 
L 58.015625 17.1875 
L 47.609375 17.1875 
L 47.609375 0 
L 37.796875 0 
L 37.796875 17.1875 
L 4.890625 17.1875 
L 4.890625 26.703125 
z
" id="DejaVuSans-52"/>
       </defs>
       <use xlink:href="#DejaVuSans-52"/>
      </g>
     </g>
    </g>
    <g id="xtick_4">
     <g id="line2d_4">
      <path clip-path="url(#p53d8ac574f)" d="M 478.403761 165.1 
L 478.403761 7.2 
" style="fill:none;stroke:#ffffff;stroke-linecap:round;"/>
     </g>
     <g id="text_4">
      <!-- 6 -->
      <g style="fill:#262626;" transform="translate(474.904386 182.958281)scale(0.11 -0.11)">
       <defs>
        <path d="M 33.015625 40.375 
Q 26.375 40.375 22.484375 35.828125 
Q 18.609375 31.296875 18.609375 23.390625 
Q 18.609375 15.53125 22.484375 10.953125 
Q 26.375 6.390625 33.015625 6.390625 
Q 39.65625 6.390625 43.53125 10.953125 
Q 47.40625 15.53125 47.40625 23.390625 
Q 47.40625 31.296875 43.53125 35.828125 
Q 39.65625 40.375 33.015625 40.375 
z
M 52.59375 71.296875 
L 52.59375 62.3125 
Q 48.875 64.0625 45.09375 64.984375 
Q 41.3125 65.921875 37.59375 65.921875 
Q 27.828125 65.921875 22.671875 59.328125 
Q 17.53125 52.734375 16.796875 39.40625 
Q 19.671875 43.65625 24.015625 45.921875 
Q 28.375 48.1875 33.59375 48.1875 
Q 44.578125 48.1875 50.953125 41.515625 
Q 57.328125 34.859375 57.328125 23.390625 
Q 57.328125 12.15625 50.6875 5.359375 
Q 44.046875 -1.421875 33.015625 -1.421875 
Q 20.359375 -1.421875 13.671875 8.265625 
Q 6.984375 17.96875 6.984375 36.375 
Q 6.984375 53.65625 15.1875 63.9375 
Q 23.390625 74.21875 37.203125 74.21875 
Q 40.921875 74.21875 44.703125 73.484375 
Q 48.484375 72.75 52.59375 71.296875 
z
" id="DejaVuSans-54"/>
       </defs>
       <use xlink:href="#DejaVuSans-54"/>
      </g>
     </g>
    </g>
    <g id="xtick_5">
     <g id="line2d_5">
      <path clip-path="url(#p53d8ac574f)" d="M 626.473868 165.1 
L 626.473868 7.2 
" style="fill:none;stroke:#ffffff;stroke-linecap:round;"/>
     </g>
     <g id="text_5">
      <!-- 8 -->
      <g style="fill:#262626;" transform="translate(622.974493 182.958281)scale(0.11 -0.11)">
       <defs>
        <path d="M 31.78125 34.625 
Q 24.75 34.625 20.71875 30.859375 
Q 16.703125 27.09375 16.703125 20.515625 
Q 16.703125 13.921875 20.71875 10.15625 
Q 24.75 6.390625 31.78125 6.390625 
Q 38.8125 6.390625 42.859375 10.171875 
Q 46.921875 13.96875 46.921875 20.515625 
Q 46.921875 27.09375 42.890625 30.859375 
Q 38.875 34.625 31.78125 34.625 
z
M 21.921875 38.8125 
Q 15.578125 40.375 12.03125 44.71875 
Q 8.5 49.078125 8.5 55.328125 
Q 8.5 64.0625 14.71875 69.140625 
Q 20.953125 74.21875 31.78125 74.21875 
Q 42.671875 74.21875 48.875 69.140625 
Q 55.078125 64.0625 55.078125 55.328125 
Q 55.078125 49.078125 51.53125 44.71875 
Q 48 40.375 41.703125 38.8125 
Q 48.828125 37.15625 52.796875 32.3125 
Q 56.78125 27.484375 56.78125 20.515625 
Q 56.78125 9.90625 50.3125 4.234375 
Q 43.84375 -1.421875 31.78125 -1.421875 
Q 19.734375 -1.421875 13.25 4.234375 
Q 6.78125 9.90625 6.78125 20.515625 
Q 6.78125 27.484375 10.78125 32.3125 
Q 14.796875 37.15625 21.921875 38.8125 
z
M 18.3125 54.390625 
Q 18.3125 48.734375 21.84375 45.5625 
Q 25.390625 42.390625 31.78125 42.390625 
Q 38.140625 42.390625 41.71875 45.5625 
Q 45.3125 48.734375 45.3125 54.390625 
Q 45.3125 60.0625 41.71875 63.234375 
Q 38.140625 66.40625 31.78125 66.40625 
Q 25.390625 66.40625 21.84375 63.234375 
Q 18.3125 60.0625 18.3125 54.390625 
z
" id="DejaVuSans-56"/>
       </defs>
       <use xlink:href="#DejaVuSans-56"/>
      </g>
     </g>
    </g>
    <g id="xtick_6">
     <g id="line2d_6">
      <path clip-path="url(#p53d8ac574f)" d="M 774.543976 165.1 
L 774.543976 7.2 
" style="fill:none;stroke:#ffffff;stroke-linecap:round;"/>
     </g>
     <g id="text_6">
      <!-- 10 -->
      <g style="fill:#262626;" transform="translate(767.545226 182.958281)scale(0.11 -0.11)">
       <defs>
        <path d="M 12.40625 8.296875 
L 28.515625 8.296875 
L 28.515625 63.921875 
L 10.984375 60.40625 
L 10.984375 69.390625 
L 28.421875 72.90625 
L 38.28125 72.90625 
L 38.28125 8.296875 
L 54.390625 8.296875 
L 54.390625 0 
L 12.40625 0 
z
" id="DejaVuSans-49"/>
       </defs>
       <use xlink:href="#DejaVuSans-49"/>
       <use x="63.623047" xlink:href="#DejaVuSans-48"/>
      </g>
     </g>
    </g>
    <g id="text_7">
     <!-- FamilySize -->
     <g style="fill:#262626;" transform="translate(409.759671 198.364062)scale(0.12 -0.12)">
      <defs>
       <path d="M 9.8125 72.90625 
L 51.703125 72.90625 
L 51.703125 64.59375 
L 19.671875 64.59375 
L 19.671875 43.109375 
L 48.578125 43.109375 
L 48.578125 34.8125 
L 19.671875 34.8125 
L 19.671875 0 
L 9.8125 0 
z
" id="DejaVuSans-70"/>
       <path d="M 34.28125 27.484375 
Q 23.390625 27.484375 19.1875 25 
Q 14.984375 22.515625 14.984375 16.5 
Q 14.984375 11.71875 18.140625 8.90625 
Q 21.296875 6.109375 26.703125 6.109375 
Q 34.1875 6.109375 38.703125 11.40625 
Q 43.21875 16.703125 43.21875 25.484375 
L 43.21875 27.484375 
z
M 52.203125 31.203125 
L 52.203125 0 
L 43.21875 0 
L 43.21875 8.296875 
Q 40.140625 3.328125 35.546875 0.953125 
Q 30.953125 -1.421875 24.3125 -1.421875 
Q 15.921875 -1.421875 10.953125 3.296875 
Q 6 8.015625 6 15.921875 
Q 6 25.140625 12.171875 29.828125 
Q 18.359375 34.515625 30.609375 34.515625 
L 43.21875 34.515625 
L 43.21875 35.40625 
Q 43.21875 41.609375 39.140625 45 
Q 35.0625 48.390625 27.6875 48.390625 
Q 23 48.390625 18.546875 47.265625 
Q 14.109375 46.140625 10.015625 43.890625 
L 10.015625 52.203125 
Q 14.9375 54.109375 19.578125 55.046875 
Q 24.21875 56 28.609375 56 
Q 40.484375 56 46.34375 49.84375 
Q 52.203125 43.703125 52.203125 31.203125 
z
" id="DejaVuSans-97"/>
       <path d="M 52 44.1875 
Q 55.375 50.25 60.0625 53.125 
Q 64.75 56 71.09375 56 
Q 79.640625 56 84.28125 50.015625 
Q 88.921875 44.046875 88.921875 33.015625 
L 88.921875 0 
L 79.890625 0 
L 79.890625 32.71875 
Q 79.890625 40.578125 77.09375 44.375 
Q 74.3125 48.1875 68.609375 48.1875 
Q 61.625 48.1875 57.5625 43.546875 
Q 53.515625 38.921875 53.515625 30.90625 
L 53.515625 0 
L 44.484375 0 
L 44.484375 32.71875 
Q 44.484375 40.625 41.703125 44.40625 
Q 38.921875 48.1875 33.109375 48.1875 
Q 26.21875 48.1875 22.15625 43.53125 
Q 18.109375 38.875 18.109375 30.90625 
L 18.109375 0 
L 9.078125 0 
L 9.078125 54.6875 
L 18.109375 54.6875 
L 18.109375 46.1875 
Q 21.1875 51.21875 25.484375 53.609375 
Q 29.78125 56 35.6875 56 
Q 41.65625 56 45.828125 52.96875 
Q 50 49.953125 52 44.1875 
z
" id="DejaVuSans-109"/>
       <path d="M 9.421875 54.6875 
L 18.40625 54.6875 
L 18.40625 0 
L 9.421875 0 
z
M 9.421875 75.984375 
L 18.40625 75.984375 
L 18.40625 64.59375 
L 9.421875 64.59375 
z
" id="DejaVuSans-105"/>
       <path d="M 9.421875 75.984375 
L 18.40625 75.984375 
L 18.40625 0 
L 9.421875 0 
z
" id="DejaVuSans-108"/>
       <path d="M 32.171875 -5.078125 
Q 28.375 -14.84375 24.75 -17.8125 
Q 21.140625 -20.796875 15.09375 -20.796875 
L 7.90625 -20.796875 
L 7.90625 -13.28125 
L 13.1875 -13.28125 
Q 16.890625 -13.28125 18.9375 -11.515625 
Q 21 -9.765625 23.484375 -3.21875 
L 25.09375 0.875 
L 2.984375 54.6875 
L 12.5 54.6875 
L 29.59375 11.921875 
L 46.6875 54.6875 
L 56.203125 54.6875 
z
" id="DejaVuSans-121"/>
       <path d="M 53.515625 70.515625 
L 53.515625 60.890625 
Q 47.90625 63.578125 42.921875 64.890625 
Q 37.9375 66.21875 33.296875 66.21875 
Q 25.25 66.21875 20.875 63.09375 
Q 16.5 59.96875 16.5 54.203125 
Q 16.5 49.359375 19.40625 46.890625 
Q 22.3125 44.4375 30.421875 42.921875 
L 36.375 41.703125 
Q 47.40625 39.59375 52.65625 34.296875 
Q 57.90625 29 57.90625 20.125 
Q 57.90625 9.515625 50.796875 4.046875 
Q 43.703125 -1.421875 29.984375 -1.421875 
Q 24.8125 -1.421875 18.96875 -0.25 
Q 13.140625 0.921875 6.890625 3.21875 
L 6.890625 13.375 
Q 12.890625 10.015625 18.65625 8.296875 
Q 24.421875 6.59375 29.984375 6.59375 
Q 38.421875 6.59375 43.015625 9.90625 
Q 47.609375 13.234375 47.609375 19.390625 
Q 47.609375 24.75 44.3125 27.78125 
Q 41.015625 30.8125 33.5 32.328125 
L 27.484375 33.5 
Q 16.453125 35.6875 11.515625 40.375 
Q 6.59375 45.0625 6.59375 53.421875 
Q 6.59375 63.09375 13.40625 68.65625 
Q 20.21875 74.21875 32.171875 74.21875 
Q 37.3125 74.21875 42.625 73.28125 
Q 47.953125 72.359375 53.515625 70.515625 
z
" id="DejaVuSans-83"/>
       <path d="M 5.515625 54.6875 
L 48.1875 54.6875 
L 48.1875 46.484375 
L 14.40625 7.171875 
L 48.1875 7.171875 
L 48.1875 0 
L 4.296875 0 
L 4.296875 8.203125 
L 38.09375 47.515625 
L 5.515625 47.515625 
z
" id="DejaVuSans-122"/>
       <path d="M 56.203125 29.59375 
L 56.203125 25.203125 
L 14.890625 25.203125 
Q 15.484375 15.921875 20.484375 11.0625 
Q 25.484375 6.203125 34.421875 6.203125 
Q 39.59375 6.203125 44.453125 7.46875 
Q 49.3125 8.734375 54.109375 11.28125 
L 54.109375 2.78125 
Q 49.265625 0.734375 44.1875 -0.34375 
Q 39.109375 -1.421875 33.890625 -1.421875 
Q 20.796875 -1.421875 13.15625 6.1875 
Q 5.515625 13.8125 5.515625 26.8125 
Q 5.515625 40.234375 12.765625 48.109375 
Q 20.015625 56 32.328125 56 
Q 43.359375 56 49.78125 48.890625 
Q 56.203125 41.796875 56.203125 29.59375 
z
M 47.21875 32.234375 
Q 47.125 39.59375 43.09375 43.984375 
Q 39.0625 48.390625 32.421875 48.390625 
Q 24.90625 48.390625 20.390625 44.140625 
Q 15.875 39.890625 15.1875 32.171875 
z
" id="DejaVuSans-101"/>
      </defs>
      <use xlink:href="#DejaVuSans-70"/>
      <use x="48.394531" xlink:href="#DejaVuSans-97"/>
      <use x="109.673828" xlink:href="#DejaVuSans-109"/>
      <use x="207.085938" xlink:href="#DejaVuSans-105"/>
      <use x="234.869141" xlink:href="#DejaVuSans-108"/>
      <use x="262.652344" xlink:href="#DejaVuSans-121"/>
      <use x="321.832031" xlink:href="#DejaVuSans-83"/>
      <use x="385.308594" xlink:href="#DejaVuSans-105"/>
      <use x="413.091797" xlink:href="#DejaVuSans-122"/>
      <use x="465.582031" xlink:href="#DejaVuSans-101"/>
     </g>
    </g>
   </g>
   <g id="matplotlib.axis_2">
    <g id="ytick_1">
     <g id="line2d_7">
      <path clip-path="url(#p53d8ac574f)" d="M 34.193438 165.1 
L 848.57903 165.1 
" style="fill:none;stroke:#ffffff;stroke-linecap:round;"/>
     </g>
     <g id="text_8">
      <!-- 0.0 -->
      <g style="fill:#262626;" transform="translate(7.2 169.279141)scale(0.11 -0.11)">
       <defs>
        <path d="M 10.6875 12.40625 
L 21 12.40625 
L 21 0 
L 10.6875 0 
z
" id="DejaVuSans-46"/>
       </defs>
       <use xlink:href="#DejaVuSans-48"/>
       <use x="63.623047" xlink:href="#DejaVuSans-46"/>
       <use x="95.410156" xlink:href="#DejaVuSans-48"/>
      </g>
     </g>
    </g>
    <g id="ytick_2">
     <g id="line2d_8">
      <path clip-path="url(#p53d8ac574f)" d="M 34.193438 137.297103 
L 848.57903 137.297103 
" style="fill:none;stroke:#ffffff;stroke-linecap:round;"/>
     </g>
     <g id="text_9">
      <!-- 0.1 -->
      <g style="fill:#262626;" transform="translate(7.2 141.476244)scale(0.11 -0.11)">
       <use xlink:href="#DejaVuSans-48"/>
       <use x="63.623047" xlink:href="#DejaVuSans-46"/>
       <use x="95.410156" xlink:href="#DejaVuSans-49"/>
      </g>
     </g>
    </g>
    <g id="ytick_3">
     <g id="line2d_9">
      <path clip-path="url(#p53d8ac574f)" d="M 34.193438 109.494206 
L 848.57903 109.494206 
" style="fill:none;stroke:#ffffff;stroke-linecap:round;"/>
     </g>
     <g id="text_10">
      <!-- 0.2 -->
      <g style="fill:#262626;" transform="translate(7.2 113.673347)scale(0.11 -0.11)">
       <use xlink:href="#DejaVuSans-48"/>
       <use x="63.623047" xlink:href="#DejaVuSans-46"/>
       <use x="95.410156" xlink:href="#DejaVuSans-50"/>
      </g>
     </g>
    </g>
    <g id="ytick_4">
     <g id="line2d_10">
      <path clip-path="url(#p53d8ac574f)" d="M 34.193438 81.691309 
L 848.57903 81.691309 
" style="fill:none;stroke:#ffffff;stroke-linecap:round;"/>
     </g>
     <g id="text_11">
      <!-- 0.3 -->
      <g style="fill:#262626;" transform="translate(7.2 85.87045)scale(0.11 -0.11)">
       <defs>
        <path d="M 40.578125 39.3125 
Q 47.65625 37.796875 51.625 33 
Q 55.609375 28.21875 55.609375 21.1875 
Q 55.609375 10.40625 48.1875 4.484375 
Q 40.765625 -1.421875 27.09375 -1.421875 
Q 22.515625 -1.421875 17.65625 -0.515625 
Q 12.796875 0.390625 7.625 2.203125 
L 7.625 11.71875 
Q 11.71875 9.328125 16.59375 8.109375 
Q 21.484375 6.890625 26.8125 6.890625 
Q 36.078125 6.890625 40.9375 10.546875 
Q 45.796875 14.203125 45.796875 21.1875 
Q 45.796875 27.640625 41.28125 31.265625 
Q 36.765625 34.90625 28.71875 34.90625 
L 20.21875 34.90625 
L 20.21875 43.015625 
L 29.109375 43.015625 
Q 36.375 43.015625 40.234375 45.921875 
Q 44.09375 48.828125 44.09375 54.296875 
Q 44.09375 59.90625 40.109375 62.90625 
Q 36.140625 65.921875 28.71875 65.921875 
Q 24.65625 65.921875 20.015625 65.03125 
Q 15.375 64.15625 9.8125 62.3125 
L 9.8125 71.09375 
Q 15.4375 72.65625 20.34375 73.4375 
Q 25.25 74.21875 29.59375 74.21875 
Q 40.828125 74.21875 47.359375 69.109375 
Q 53.90625 64.015625 53.90625 55.328125 
Q 53.90625 49.265625 50.4375 45.09375 
Q 46.96875 40.921875 40.578125 39.3125 
z
" id="DejaVuSans-51"/>
       </defs>
       <use xlink:href="#DejaVuSans-48"/>
       <use x="63.623047" xlink:href="#DejaVuSans-46"/>
       <use x="95.410156" xlink:href="#DejaVuSans-51"/>
      </g>
     </g>
    </g>
    <g id="ytick_5">
     <g id="line2d_11">
      <path clip-path="url(#p53d8ac574f)" d="M 34.193438 53.888412 
L 848.57903 53.888412 
" style="fill:none;stroke:#ffffff;stroke-linecap:round;"/>
     </g>
     <g id="text_12">
      <!-- 0.4 -->
      <g style="fill:#262626;" transform="translate(7.2 58.067553)scale(0.11 -0.11)">
       <use xlink:href="#DejaVuSans-48"/>
       <use x="63.623047" xlink:href="#DejaVuSans-46"/>
       <use x="95.410156" xlink:href="#DejaVuSans-52"/>
      </g>
     </g>
    </g>
    <g id="ytick_6">
     <g id="line2d_12">
      <path clip-path="url(#p53d8ac574f)" d="M 34.193438 26.085515 
L 848.57903 26.085515 
" style="fill:none;stroke:#ffffff;stroke-linecap:round;"/>
     </g>
     <g id="text_13">
      <!-- 0.5 -->
      <g style="fill:#262626;" transform="translate(7.2 30.264656)scale(0.11 -0.11)">
       <defs>
        <path d="M 10.796875 72.90625 
L 49.515625 72.90625 
L 49.515625 64.59375 
L 19.828125 64.59375 
L 19.828125 46.734375 
Q 21.96875 47.46875 24.109375 47.828125 
Q 26.265625 48.1875 28.421875 48.1875 
Q 40.625 48.1875 47.75 41.5 
Q 54.890625 34.8125 54.890625 23.390625 
Q 54.890625 11.625 47.5625 5.09375 
Q 40.234375 -1.421875 26.90625 -1.421875 
Q 22.3125 -1.421875 17.546875 -0.640625 
Q 12.796875 0.140625 7.71875 1.703125 
L 7.71875 11.625 
Q 12.109375 9.234375 16.796875 8.0625 
Q 21.484375 6.890625 26.703125 6.890625 
Q 35.15625 6.890625 40.078125 11.328125 
Q 45.015625 15.765625 45.015625 23.390625 
Q 45.015625 31 40.078125 35.4375 
Q 35.15625 39.890625 26.703125 39.890625 
Q 22.75 39.890625 18.8125 39.015625 
Q 14.890625 38.140625 10.796875 36.28125 
z
" id="DejaVuSans-53"/>
       </defs>
       <use xlink:href="#DejaVuSans-48"/>
       <use x="63.623047" xlink:href="#DejaVuSans-46"/>
       <use x="95.410156" xlink:href="#DejaVuSans-53"/>
      </g>
     </g>
    </g>
   </g>
   <g id="PolyCollection_1">
    <path clip-path="url(#p53d8ac574f)" d="M -6.918873 163.480732 
L -6.918873 165.1 
L -2.041258 165.1 
L 2.836356 165.1 
L 7.713971 165.1 
L 12.591585 165.1 
L 17.469199 165.1 
L 22.346814 165.1 
L 27.224428 165.1 
L 32.102043 165.1 
L 36.979657 165.1 
L 41.857271 165.1 
L 46.734886 165.1 
L 51.6125 165.1 
L 56.490115 165.1 
L 61.367729 165.1 
L 66.245343 165.1 
L 71.122958 165.1 
L 76.000572 165.1 
L 80.878187 165.1 
L 85.755801 165.1 
L 90.633416 165.1 
L 95.51103 165.1 
L 100.388644 165.1 
L 105.266259 165.1 
L 110.143873 165.1 
L 115.021488 165.1 
L 119.899102 165.1 
L 124.776716 165.1 
L 129.654331 165.1 
L 134.531945 165.1 
L 139.40956 165.1 
L 144.287174 165.1 
L 149.164788 165.1 
L 154.042403 165.1 
L 158.920017 165.1 
L 163.797632 165.1 
L 168.675246 165.1 
L 173.55286 165.1 
L 178.430475 165.1 
L 183.308089 165.1 
L 188.185704 165.1 
L 193.063318 165.1 
L 197.940932 165.1 
L 202.818547 165.1 
L 207.696161 165.1 
L 212.573776 165.1 
L 217.45139 165.1 
L 222.329004 165.1 
L 227.206619 165.1 
L 232.084233 165.1 
L 236.961848 165.1 
L 241.839462 165.1 
L 246.717076 165.1 
L 251.594691 165.1 
L 256.472305 165.1 
L 261.34992 165.1 
L 266.227534 165.1 
L 271.105148 165.1 
L 275.982763 165.1 
L 280.860377 165.1 
L 285.737992 165.1 
L 290.615606 165.1 
L 295.49322 165.1 
L 300.370835 165.1 
L 305.248449 165.1 
L 310.126064 165.1 
L 315.003678 165.1 
L 319.881292 165.1 
L 324.758907 165.1 
L 329.636521 165.1 
L 334.514136 165.1 
L 339.39175 165.1 
L 344.269364 165.1 
L 349.146979 165.1 
L 354.024593 165.1 
L 358.902208 165.1 
L 363.779822 165.1 
L 368.657437 165.1 
L 373.535051 165.1 
L 378.412665 165.1 
L 383.29028 165.1 
L 388.167894 165.1 
L 393.045509 165.1 
L 397.923123 165.1 
L 402.800737 165.1 
L 407.678352 165.1 
L 412.555966 165.1 
L 417.433581 165.1 
L 422.311195 165.1 
L 427.188809 165.1 
L 432.066424 165.1 
L 436.944038 165.1 
L 441.821653 165.1 
L 446.699267 165.1 
L 451.576881 165.1 
L 456.454496 165.1 
L 461.33211 165.1 
L 466.209725 165.1 
L 471.087339 165.1 
L 475.964953 165.1 
L 480.842568 165.1 
L 485.720182 165.1 
L 490.597797 165.1 
L 495.475411 165.1 
L 500.353025 165.1 
L 505.23064 165.1 
L 510.108254 165.1 
L 514.985869 165.1 
L 519.863483 165.1 
L 524.741097 165.1 
L 529.618712 165.1 
L 534.496326 165.1 
L 539.373941 165.1 
L 544.251555 165.1 
L 549.129169 165.1 
L 554.006784 165.1 
L 558.884398 165.1 
L 563.762013 165.1 
L 568.639627 165.1 
L 573.517241 165.1 
L 578.394856 165.1 
L 583.27247 165.1 
L 588.150085 165.1 
L 593.027699 165.1 
L 597.905313 165.1 
L 602.782928 165.1 
L 607.660542 165.1 
L 612.538157 165.1 
L 617.415771 165.1 
L 622.293385 165.1 
L 627.171 165.1 
L 632.048614 165.1 
L 636.926229 165.1 
L 641.803843 165.1 
L 646.681457 165.1 
L 651.559072 165.1 
L 656.436686 165.1 
L 661.314301 165.1 
L 666.191915 165.1 
L 671.06953 165.1 
L 675.947144 165.1 
L 680.824758 165.1 
L 685.702373 165.1 
L 690.579987 165.1 
L 695.457602 165.1 
L 700.335216 165.1 
L 705.21283 165.1 
L 710.090445 165.1 
L 714.968059 165.1 
L 719.845674 165.1 
L 724.723288 165.1 
L 729.600902 165.1 
L 734.478517 165.1 
L 739.356131 165.1 
L 744.233746 165.1 
L 749.11136 165.1 
L 753.988974 165.1 
L 758.866589 165.1 
L 763.744203 165.1 
L 768.621818 165.1 
L 773.499432 165.1 
L 778.377046 165.1 
L 783.254661 165.1 
L 788.132275 165.1 
L 793.00989 165.1 
L 797.887504 165.1 
L 802.765118 165.1 
L 807.642733 165.1 
L 812.520347 165.1 
L 817.397962 165.1 
L 822.275576 165.1 
L 827.15319 165.1 
L 832.030805 165.1 
L 836.908419 165.1 
L 841.786034 165.1 
L 846.663648 165.1 
L 851.541262 165.1 
L 856.418877 165.1 
L 861.296491 165.1 
L 866.174106 165.1 
L 871.05172 165.1 
L 875.929334 165.1 
L 880.806949 165.1 
L 885.684563 165.1 
L 890.562178 165.1 
L 895.439792 165.1 
L 900.317406 165.1 
L 905.195021 165.1 
L 910.072635 165.1 
L 914.95025 165.1 
L 919.827864 165.1 
L 924.705478 165.1 
L 929.583093 165.1 
L 934.460707 165.1 
L 939.338322 165.1 
L 944.215936 165.1 
L 949.09355 165.1 
L 953.971165 165.1 
L 958.848779 165.1 
L 963.726394 165.1 
L 963.726394 165.069696 
L 963.726394 165.069696 
L 958.848779 165.055988 
L 953.971165 165.037105 
L 949.09355 165.011559 
L 944.215936 164.97763 
L 939.338322 164.933396 
L 934.460707 164.876808 
L 929.583093 164.805787 
L 924.705478 164.718381 
L 919.827864 164.612938 
L 914.95025 164.488318 
L 910.072635 164.344118 
L 905.195021 164.180888 
L 900.317406 164.000313 
L 895.439792 163.805337 
L 890.562178 163.600209 
L 885.684563 163.390413 
L 880.806949 163.182488 
L 875.929334 162.983727 
L 871.05172 162.801779 
L 866.174106 162.64417 
L 861.296491 162.517791 
L 856.418877 162.428403 
L 851.541262 162.380199 
L 846.663648 162.375482 
L 841.786034 162.414477 
L 836.908419 162.495318 
L 832.030805 162.614196 
L 827.15319 162.76565 
L 822.275576 162.942992 
L 817.397962 163.138788 
L 812.520347 163.345372 
L 807.642733 163.555333 
L 802.765118 163.761937 
L 797.887504 163.959446 
L 793.00989 164.143323 
L 788.132275 164.310321 
L 783.254661 164.458459 
L 778.377046 164.586905 
L 773.499432 164.695796 
L 768.621818 164.786013 
L 763.744203 164.858947 
L 758.866589 164.916262 
L 753.988974 164.95969 
L 749.11136 164.990848 
L 744.233746 165.011098 
L 739.356131 165.021444 
L 734.478517 165.022467 
L 729.600902 165.014291 
L 724.723288 164.996594 
L 719.845674 164.968634 
L 714.968059 164.929324 
L 710.090445 164.877327 
L 705.21283 164.811187 
L 700.335216 164.729487 
L 695.457602 164.631027 
L 690.579987 164.515012 
L 685.702373 164.381235 
L 680.824758 164.230238 
L 675.947144 164.063423 
L 671.06953 163.883102 
L 666.191915 163.692456 
L 661.314301 163.495408 
L 656.436686 163.296395 
L 651.559072 163.100061 
L 646.681457 162.910892 
L 641.803843 162.732837 
L 636.926229 162.568944 
L 632.048614 162.421073 
L 627.171 162.289717 
L 622.293385 162.173965 
L 617.415771 162.071609 
L 612.538157 161.979404 
L 607.660542 161.893429 
L 602.782928 161.809511 
L 597.905313 161.723653 
L 593.027699 161.632393 
L 588.150085 161.533055 
L 583.27247 161.42383 
L 578.394856 161.303705 
L 573.517241 161.172235 
L 568.639627 161.029215 
L 563.762013 160.874313 
L 558.884398 160.706755 
L 554.006784 160.525125 
L 549.129169 160.327358 
L 544.251555 160.11094 
L 539.373941 159.87333 
L 534.496326 159.612546 
L 529.618712 159.327841 
L 524.741097 159.020353 
L 519.863483 158.693626 
L 514.985869 158.35388 
L 510.108254 158.009957 
L 505.23064 157.672905 
L 500.353025 157.355219 
L 495.475411 157.069804 
L 490.597797 156.828786 
L 485.720182 156.642318 
L 480.842568 156.517536 
L 475.964953 156.457815 
L 471.087339 156.462437 
L 466.209725 156.526707 
L 461.33211 156.642527 
L 456.454496 156.799332 
L 451.576881 156.985285 
L 446.699267 157.188537 
L 441.821653 157.39842 
L 436.944038 157.60638 
L 432.066424 157.806574 
L 427.188809 157.996043 
L 422.311195 158.17447 
L 417.433581 158.343606 
L 412.555966 158.506436 
L 407.678352 158.666253 
L 402.800737 158.825766 
L 397.923123 158.986365 
L 393.045509 159.147629 
L 388.167894 159.307124 
L 383.29028 159.460468 
L 378.412665 159.601615 
L 373.535051 159.723275 
L 368.657437 159.817369 
L 363.779822 159.875425 
L 358.902208 159.888863 
L 354.024593 159.849146 
L 349.146979 159.747796 
L 344.269364 159.576366 
L 339.39175 159.326421 
L 334.514136 158.989645 
L 329.636521 158.558147 
L 324.758907 158.025007 
L 319.881292 157.385051 
L 315.003678 156.635797 
L 310.126064 155.778435 
L 305.248449 154.818671 
L 300.370835 153.767244 
L 295.49322 152.639946 
L 290.615606 151.457014 
L 285.737992 150.241839 
L 280.860377 149.01907 
L 275.982763 147.81224 
L 271.105148 146.641207 
L 266.227534 145.51969 
L 261.34992 144.453256 
L 256.472305 143.438039 
L 251.594691 142.460377 
L 246.717076 141.49743 
L 241.839462 140.518665 
L 236.961848 139.487937 
L 232.084233 138.365779 
L 227.206619 137.111454 
L 222.329004 135.684338 
L 217.45139 134.044337 
L 212.573776 132.151234 
L 207.696161 129.963098 
L 202.818547 127.434199 
L 197.940932 124.513064 
L 193.063318 121.141489 
L 188.185704 117.255326 
L 183.308089 112.787727 
L 178.430475 107.675235 
L 173.55286 101.866655 
L 168.675246 95.334163 
L 163.797632 88.085527 
L 158.920017 80.175948 
L 154.042403 71.717711 
L 149.164788 62.885838 
L 144.287174 53.918198 
L 139.40956 45.109044 
L 134.531945 36.795722 
L 129.654331 29.339158 
L 124.776716 23.099615 
L 119.899102 18.409972 
L 115.021488 15.54922 
L 110.143873 14.719048 
L 105.266259 16.026119 
L 100.388644 19.472047 
L 95.51103 24.952178 
L 90.633416 32.263298 
L 85.755801 41.119309 
L 80.878187 51.173087 
L 76.000572 62.042093 
L 71.122958 73.335056 
L 66.245343 84.677129 
L 61.367729 95.731302 
L 56.490115 106.214518 
L 51.6125 115.90765 
L 46.734886 124.659274 
L 41.857271 132.383826 
L 36.979657 139.055232 
L 32.102043 144.697336 
L 27.224428 149.372602 
L 22.346814 153.170375 
L 17.469199 156.195825 
L 12.591585 158.560338 
L 7.713971 160.373824 
L 2.836356 161.739097 
L -2.041258 162.748242 
L -6.918873 163.480732 
z
" style="fill:#4c72b0;fill-opacity:0.25;stroke:#4c72b0;"/>
   </g>
   <g id="PolyCollection_2">
    <defs>
     <path d="M 26.21867 -44.550178 
L 26.21867 -42.959688 
L 29.275102 -42.959688 
L 32.331534 -42.959688 
L 35.387966 -42.959688 
L 38.444398 -42.959688 
L 41.50083 -42.959688 
L 44.557262 -42.959688 
L 47.613694 -42.959688 
L 50.670126 -42.959688 
L 53.726558 -42.959688 
L 56.78299 -42.959688 
L 59.839422 -42.959688 
L 62.895854 -42.959688 
L 65.952286 -42.959688 
L 69.008718 -42.959688 
L 72.06515 -42.959688 
L 75.121582 -42.959688 
L 78.178014 -42.959688 
L 81.234446 -42.959688 
L 84.290878 -42.959688 
L 87.34731 -42.959688 
L 90.403742 -42.959688 
L 93.460174 -42.959688 
L 96.516606 -42.959688 
L 99.573038 -42.959688 
L 102.62947 -42.959688 
L 105.685902 -42.959688 
L 108.742334 -42.959688 
L 111.798766 -42.959688 
L 114.855198 -42.959688 
L 117.91163 -42.959688 
L 120.968062 -42.959688 
L 124.024494 -42.959688 
L 127.080926 -42.959688 
L 130.137358 -42.959688 
L 133.19379 -42.959688 
L 136.250222 -42.959688 
L 139.306654 -42.959688 
L 142.363086 -42.959688 
L 145.419518 -42.959688 
L 148.47595 -42.959688 
L 151.532382 -42.959688 
L 154.588814 -42.959688 
L 157.645246 -42.959688 
L 160.701678 -42.959688 
L 163.75811 -42.959688 
L 166.814542 -42.959688 
L 169.870974 -42.959688 
L 172.927406 -42.959688 
L 175.983838 -42.959688 
L 179.04027 -42.959688 
L 182.096702 -42.959688 
L 185.153134 -42.959688 
L 188.209565 -42.959688 
L 191.265997 -42.959688 
L 194.322429 -42.959688 
L 197.378861 -42.959688 
L 200.435293 -42.959688 
L 203.491725 -42.959688 
L 206.548157 -42.959688 
L 209.604589 -42.959688 
L 212.661021 -42.959688 
L 215.717453 -42.959688 
L 218.773885 -42.959688 
L 221.830317 -42.959688 
L 224.886749 -42.959688 
L 227.943181 -42.959688 
L 230.999613 -42.959688 
L 234.056045 -42.959688 
L 237.112477 -42.959688 
L 240.168909 -42.959688 
L 243.225341 -42.959688 
L 246.281773 -42.959688 
L 249.338205 -42.959688 
L 252.394637 -42.959688 
L 255.451069 -42.959688 
L 258.507501 -42.959688 
L 261.563933 -42.959688 
L 264.620365 -42.959688 
L 267.676797 -42.959688 
L 270.733229 -42.959688 
L 273.789661 -42.959688 
L 276.846093 -42.959688 
L 279.902525 -42.959688 
L 282.958957 -42.959688 
L 286.015389 -42.959688 
L 289.071821 -42.959688 
L 292.128253 -42.959688 
L 295.184685 -42.959688 
L 298.241117 -42.959688 
L 301.297549 -42.959688 
L 304.353981 -42.959688 
L 307.410413 -42.959688 
L 310.466845 -42.959688 
L 313.523277 -42.959688 
L 316.579709 -42.959688 
L 319.636141 -42.959688 
L 322.692573 -42.959688 
L 325.749005 -42.959688 
L 328.805437 -42.959688 
L 331.861869 -42.959688 
L 334.918301 -42.959688 
L 337.974733 -42.959688 
L 341.031165 -42.959688 
L 344.087597 -42.959688 
L 347.144029 -42.959688 
L 350.200461 -42.959688 
L 353.256893 -42.959688 
L 356.313325 -42.959688 
L 359.369757 -42.959688 
L 362.426189 -42.959688 
L 365.482621 -42.959688 
L 368.539053 -42.959688 
L 371.595485 -42.959688 
L 374.651917 -42.959688 
L 377.708349 -42.959688 
L 380.764781 -42.959688 
L 383.821213 -42.959688 
L 386.877645 -42.959688 
L 389.934077 -42.959688 
L 392.990509 -42.959688 
L 396.046941 -42.959688 
L 399.103373 -42.959688 
L 402.159805 -42.959688 
L 405.216237 -42.959688 
L 408.272669 -42.959688 
L 411.329101 -42.959688 
L 414.385533 -42.959688 
L 417.441965 -42.959688 
L 420.498396 -42.959688 
L 423.554828 -42.959688 
L 426.61126 -42.959688 
L 429.667692 -42.959688 
L 432.724124 -42.959688 
L 435.780556 -42.959688 
L 438.836988 -42.959688 
L 441.89342 -42.959688 
L 444.949852 -42.959688 
L 448.006284 -42.959688 
L 451.062716 -42.959688 
L 454.119148 -42.959688 
L 457.17558 -42.959688 
L 460.232012 -42.959688 
L 463.288444 -42.959688 
L 466.344876 -42.959688 
L 469.401308 -42.959688 
L 472.45774 -42.959688 
L 475.514172 -42.959688 
L 478.570604 -42.959688 
L 481.627036 -42.959688 
L 484.683468 -42.959688 
L 487.7399 -42.959688 
L 490.796332 -42.959688 
L 493.852764 -42.959688 
L 496.909196 -42.959688 
L 499.965628 -42.959688 
L 503.02206 -42.959688 
L 506.078492 -42.959688 
L 509.134924 -42.959688 
L 512.191356 -42.959688 
L 515.247788 -42.959688 
L 518.30422 -42.959688 
L 521.360652 -42.959688 
L 524.417084 -42.959688 
L 527.473516 -42.959688 
L 530.529948 -42.959688 
L 533.58638 -42.959688 
L 536.642812 -42.959688 
L 539.699244 -42.959688 
L 542.755676 -42.959688 
L 545.812108 -42.959688 
L 548.86854 -42.959688 
L 551.924972 -42.959688 
L 554.981404 -42.959688 
L 558.037836 -42.959688 
L 561.094268 -42.959688 
L 564.1507 -42.959688 
L 567.207132 -42.959688 
L 570.263564 -42.959688 
L 573.319996 -42.959688 
L 576.376428 -42.959688 
L 579.43286 -42.959688 
L 582.489292 -42.959688 
L 585.545724 -42.959688 
L 588.602156 -42.959688 
L 591.658588 -42.959688 
L 594.71502 -42.959688 
L 597.771452 -42.959688 
L 600.827884 -42.959688 
L 603.884316 -42.959688 
L 606.940748 -42.959688 
L 609.99718 -42.959688 
L 613.053612 -42.959688 
L 616.110044 -42.959688 
L 619.166476 -42.959688 
L 622.222908 -42.959688 
L 625.27934 -42.959688 
L 628.335772 -42.959688 
L 631.392204 -42.959688 
L 634.448636 -42.959688 
L 634.448636 -42.998718 
L 634.448636 -42.998718 
L 631.392204 -43.013933 
L 628.335772 -43.034142 
L 625.27934 -43.060611 
L 622.222908 -43.09479 
L 619.166476 -43.138299 
L 616.110044 -43.192886 
L 613.053612 -43.260374 
L 609.99718 -43.342578 
L 606.940748 -43.441202 
L 603.884316 -43.557711 
L 600.827884 -43.693192 
L 597.771452 -43.848203 
L 594.71502 -44.022622 
L 591.658588 -44.215517 
L 588.602156 -44.425039 
L 585.545724 -44.648358 
L 582.489292 -44.881664 
L 579.43286 -45.120221 
L 576.376428 -45.358509 
L 573.319996 -45.590423 
L 570.263564 -45.809551 
L 567.207132 -46.009495 
L 564.1507 -46.18423 
L 561.094268 -46.328468 
L 558.037836 -46.438004 
L 554.981404 -46.510012 
L 551.924972 -46.543272 
L 548.86854 -46.538301 
L 545.812108 -46.497374 
L 542.755676 -46.424432 
L 539.699244 -46.324883 
L 536.642812 -46.205301 
L 533.58638 -46.073048 
L 530.529948 -45.935843 
L 527.473516 -45.801312 
L 524.417084 -45.676538 
L 521.360652 -45.567659 
L 518.30422 -45.479522 
L 515.247788 -45.415431 
L 512.191356 -45.376987 
L 509.134924 -45.36405 
L 506.078492 -45.374801 
L 503.02206 -45.405917 
L 499.965628 -45.452835 
L 496.909196 -45.510091 
L 493.852764 -45.571713 
L 490.796332 -45.631637 
L 487.7399 -45.684122 
L 484.683468 -45.724139 
L 481.627036 -45.747703 
L 478.570604 -45.752132 
L 475.514172 -45.736212 
L 472.45774 -45.70026 
L 469.401308 -45.646084 
L 466.344876 -45.576841 
L 463.288444 -45.496806 
L 460.232012 -45.411063 
L 457.17558 -45.325157 
L 454.119148 -45.244708 
L 451.062716 -45.175035 
L 448.006284 -45.120801 
L 444.949852 -45.085717 
L 441.89342 -45.072308 
L 438.836988 -45.081785 
L 435.780556 -45.113999 
L 432.724124 -45.167517 
L 429.667692 -45.239793 
L 426.61126 -45.32745 
L 423.554828 -45.426627 
L 420.498396 -45.533418 
L 417.441965 -45.644327 
L 414.385533 -45.75675 
L 411.329101 -45.869435 
L 408.272669 -45.982882 
L 405.216237 -46.099657 
L 402.159805 -46.224585 
L 399.103373 -46.364794 
L 396.046941 -46.529585 
L 392.990509 -46.730117 
L 389.934077 -46.978904 
L 386.877645 -47.289133 
L 383.821213 -47.67382 
L 380.764781 -48.144857 
L 377.708349 -48.711984 
L 374.651917 -49.381765 
L 371.595485 -50.156642 
L 368.539053 -51.03415 
L 365.482621 -52.006371 
L 362.426189 -53.059722 
L 359.369757 -54.175122 
L 356.313325 -55.328594 
L 353.256893 -56.492315 
L 350.200461 -57.636083 
L 347.144029 -58.729149 
L 344.087597 -59.742326 
L 341.031165 -60.650221 
L 337.974733 -61.433459 
L 334.918301 -62.080716 
L 331.861869 -62.590383 
L 328.805437 -62.97171 
L 325.749005 -63.245286 
L 322.692573 -63.442757 
L 319.636141 -63.605743 
L 316.579709 -63.783939 
L 313.523277 -64.032487 
L 310.466845 -64.408718 
L 307.410413 -64.96845 
L 304.353981 -65.762055 
L 301.297549 -66.830544 
L 298.241117 -68.201942 
L 295.184685 -69.888231 
L 292.128253 -71.883124 
L 289.071821 -74.160884 
L 286.015389 -76.676386 
L 282.958957 -79.366495 
L 279.902525 -82.152807 
L 276.846093 -84.945642 
L 273.789661 -87.649125 
L 270.733229 -90.167052 
L 267.676797 -92.409197 
L 264.620365 -94.29761 
L 261.563933 -95.772463 
L 258.507501 -96.796984 
L 255.451069 -97.361078 
L 252.394637 -97.483289 
L 249.338205 -97.210897 
L 246.281773 -96.618054 
L 243.225341 -95.802005 
L 240.168909 -94.877589 
L 237.112477 -93.970338 
L 234.056045 -93.208598 
L 230.999613 -92.715182 
L 227.943181 -92.599092 
L 224.886749 -92.947885 
L 221.830317 -93.821205 
L 218.773885 -95.245959 
L 215.717453 -97.213522 
L 212.661021 -99.679243 
L 209.604589 -102.56437 
L 206.548157 -105.760384 
L 203.491725 -109.135545 
L 200.435293 -112.543319 
L 197.378861 -115.832176 
L 194.322429 -118.856168 
L 191.265997 -121.485567 
L 188.209565 -123.616842 
L 185.153134 -125.181219 
L 182.096702 -126.15119 
L 179.04027 -126.544392 
L 175.983838 -126.4245 
L 172.927406 -125.898921 
L 169.870974 -125.113336 
L 166.814542 -124.24333 
L 163.75811 -123.483555 
L 160.701678 -123.035087 
L 157.645246 -123.091716 
L 154.588814 -123.826066 
L 151.532382 -125.376446 
L 148.47595 -127.835321 
L 145.419518 -131.24024 
L 142.363086 -135.567899 
L 139.306654 -140.731893 
L 136.250222 -146.584429 
L 133.19379 -152.922064 
L 130.137358 -159.49524 
L 127.080926 -166.021112 
L 124.024494 -172.198899 
L 120.968062 -177.726793 
L 117.91163 -182.319273 
L 114.855198 -185.723646 
L 111.798766 -187.734626 
L 108.742334 -188.20592 
L 105.685902 -187.058004 
L 102.62947 -184.281574 
L 99.573038 -179.936501 
L 96.516606 -174.146506 
L 93.460174 -167.090075 
L 90.403742 -158.988453 
L 87.34731 -150.09174 
L 84.290878 -140.66419 
L 81.234446 -130.969838 
L 78.178014 -121.259443 
L 75.121582 -111.759531 
L 72.06515 -102.664106 
L 69.008718 -94.129283 
L 65.952286 -86.270858 
L 62.895854 -79.164582 
L 59.839422 -72.848721 
L 56.78299 -67.328368 
L 53.726558 -62.580931 
L 50.670126 -58.562199 
L 47.613694 -55.212486 
L 44.557262 -52.462418 
L 41.50083 -50.238047 
L 38.444398 -48.465105 
L 35.387966 -47.072307 
L 32.331534 -45.993705 
L 29.275102 -45.17018 
L 26.21867 -44.550178 
z
" id="mfbea75dbaf" style="stroke:#dd8452;"/>
    </defs>
    <g clip-path="url(#p53d8ac574f)">
     <use style="fill:#dd8452;fill-opacity:0.25;stroke:#dd8452;" x="0" xlink:href="#mfbea75dbaf" y="208.059687"/>
    </g>
   </g>
   <g id="patch_3">
    <path d="M 34.193438 165.1 
L 34.193438 7.2 
" style="fill:none;stroke:#ffffff;stroke-linecap:square;stroke-linejoin:miter;stroke-width:1.25;"/>
   </g>
   <g id="patch_4">
    <path d="M 34.193438 165.1 
L 848.57903 165.1 
" style="fill:none;stroke:#ffffff;stroke-linecap:square;stroke-linejoin:miter;stroke-width:1.25;"/>
   </g>
  </g>
  <g id="legend_1">
   <g id="text_14">
    <!-- Survived -->
    <g style="fill:#262626;" transform="translate(858.487655 91.195156)scale(0.12 -0.12)">
     <defs>
      <path d="M 8.5 21.578125 
L 8.5 54.6875 
L 17.484375 54.6875 
L 17.484375 21.921875 
Q 17.484375 14.15625 20.5 10.265625 
Q 23.53125 6.390625 29.59375 6.390625 
Q 36.859375 6.390625 41.078125 11.03125 
Q 45.3125 15.671875 45.3125 23.6875 
L 45.3125 54.6875 
L 54.296875 54.6875 
L 54.296875 0 
L 45.3125 0 
L 45.3125 8.40625 
Q 42.046875 3.421875 37.71875 1 
Q 33.40625 -1.421875 27.6875 -1.421875 
Q 18.265625 -1.421875 13.375 4.4375 
Q 8.5 10.296875 8.5 21.578125 
z
M 31.109375 56 
z
" id="DejaVuSans-117"/>
      <path d="M 41.109375 46.296875 
Q 39.59375 47.171875 37.8125 47.578125 
Q 36.03125 48 33.890625 48 
Q 26.265625 48 22.1875 43.046875 
Q 18.109375 38.09375 18.109375 28.8125 
L 18.109375 0 
L 9.078125 0 
L 9.078125 54.6875 
L 18.109375 54.6875 
L 18.109375 46.1875 
Q 20.953125 51.171875 25.484375 53.578125 
Q 30.03125 56 36.53125 56 
Q 37.453125 56 38.578125 55.875 
Q 39.703125 55.765625 41.0625 55.515625 
z
" id="DejaVuSans-114"/>
      <path d="M 2.984375 54.6875 
L 12.5 54.6875 
L 29.59375 8.796875 
L 46.6875 54.6875 
L 56.203125 54.6875 
L 35.6875 0 
L 23.484375 0 
z
" id="DejaVuSans-118"/>
      <path d="M 45.40625 46.390625 
L 45.40625 75.984375 
L 54.390625 75.984375 
L 54.390625 0 
L 45.40625 0 
L 45.40625 8.203125 
Q 42.578125 3.328125 38.25 0.953125 
Q 33.9375 -1.421875 27.875 -1.421875 
Q 17.96875 -1.421875 11.734375 6.484375 
Q 5.515625 14.40625 5.515625 27.296875 
Q 5.515625 40.1875 11.734375 48.09375 
Q 17.96875 56 27.875 56 
Q 33.9375 56 38.25 53.625 
Q 42.578125 51.265625 45.40625 46.390625 
z
M 14.796875 27.296875 
Q 14.796875 17.390625 18.875 11.75 
Q 22.953125 6.109375 30.078125 6.109375 
Q 37.203125 6.109375 41.296875 11.75 
Q 45.40625 17.390625 45.40625 27.296875 
Q 45.40625 37.203125 41.296875 42.84375 
Q 37.203125 48.484375 30.078125 48.484375 
Q 22.953125 48.484375 18.875 42.84375 
Q 14.796875 37.203125 14.796875 27.296875 
z
" id="DejaVuSans-100"/>
     </defs>
     <use xlink:href="#DejaVuSans-83"/>
     <use x="63.476562" xlink:href="#DejaVuSans-117"/>
     <use x="126.855469" xlink:href="#DejaVuSans-114"/>
     <use x="167.96875" xlink:href="#DejaVuSans-118"/>
     <use x="227.148438" xlink:href="#DejaVuSans-105"/>
     <use x="254.931641" xlink:href="#DejaVuSans-118"/>
     <use x="314.111328" xlink:href="#DejaVuSans-101"/>
     <use x="375.634766" xlink:href="#DejaVuSans-100"/>
    </g>
   </g>
   <g id="patch_5">
    <path d="M 865.936717 107.549062 
L 887.936717 107.549062 
L 887.936717 99.849062 
L 865.936717 99.849062 
z
" style="fill:#4c72b0;fill-opacity:0.25;stroke:#4c72b0;stroke-linejoin:miter;"/>
   </g>
   <g id="text_15">
    <!-- 0 -->
    <g style="fill:#262626;" transform="translate(896.736717 107.549062)scale(0.11 -0.11)">
     <use xlink:href="#DejaVuSans-48"/>
    </g>
   </g>
   <g id="patch_6">
    <path d="M 865.936717 123.695 
L 887.936717 123.695 
L 887.936717 115.995 
L 865.936717 115.995 
z
" style="fill:#dd8452;fill-opacity:0.25;stroke:#dd8452;stroke-linejoin:miter;"/>
   </g>
   <g id="text_16">
    <!-- 1 -->
    <g style="fill:#262626;" transform="translate(896.736717 123.695)scale(0.11 -0.11)">
     <use xlink:href="#DejaVuSans-49"/>
    </g>
   </g>
  </g>
 </g>
 <defs>
  <clipPath id="p53d8ac574f">
   <rect height="157.9" width="814.385592" x="34.193438" y="7.2"/>
  </clipPath>
 </defs>
</svg>
