<?xml version="1.0" encoding="utf-8" standalone="no"?>
<!DOCTYPE svg PUBLIC "-//W3C//DTD SVG 1.1//EN"
  "http://www.w3.org/Graphics/SVG/1.1/DTD/svg11.dtd">
<!-- Created with matplotlib (https://matplotlib.org/) -->
<svg height="208.059687pt" version="1.1" viewBox="0 0 920.584611 208.059687" width="920.584611pt" xmlns="http://www.w3.org/2000/svg" xmlns:xlink="http://www.w3.org/1999/xlink">
 <metadata>
  <rdf:RDF xmlns:cc="http://creativecommons.org/ns#" xmlns:dc="http://purl.org/dc/elements/1.1/" xmlns:rdf="http://www.w3.org/1999/02/22-rdf-syntax-ns#">
   <cc:Work>
    <dc:type rdf:resource="http://purl.org/dc/dcmitype/StillImage"/>
    <dc:date>2021-06-21T14:05:07.495625</dc:date>
    <dc:format>image/svg+xml</dc:format>
    <dc:creator>
     <cc:Agent>
      <dc:title>Matplotlib v3.3.4, https://matplotlib.org/</dc:title>
     </cc:Agent>
    </dc:creator>
   </cc:Work>
  </rdf:RDF>
 </metadata>
 <defs>
  <style type="text/css">*{stroke-linecap:butt;stroke-linejoin:round;}</style>
 </defs>
 <g id="figure_1">
  <g id="patch_1">
   <path d="M 0 208.059687 
L 920.584611 208.059687 
L 920.584611 0 
L 0 0 
z
" style="fill:none;"/>
  </g>
  <g id="axes_1">
   <g id="patch_2">
    <path d="M 41.192188 165.1 
L 848.079111 165.1 
L 848.079111 7.2 
L 41.192188 7.2 
z
" style="fill:#eaeaf2;"/>
   </g>
   <g id="matplotlib.axis_1">
    <g id="xtick_1">
     <g id="line2d_1">
      <path clip-path="url(#p61ef212a68)" d="M 41.192188 165.1 
L 41.192188 7.2 
" style="fill:none;stroke:#ffffff;stroke-linecap:round;"/>
     </g>
     <g id="text_1">
      <!-- 0 -->
      <g style="fill:#262626;" transform="translate(37.692813 182.958281)scale(0.11 -0.11)">
       <defs>
        <path d="M 31.78125 66.40625 
Q 24.171875 66.40625 20.328125 58.90625 
Q 16.5 51.421875 16.5 36.375 
Q 16.5 21.390625 20.328125 13.890625 
Q 24.171875 6.390625 31.78125 6.390625 
Q 39.453125 6.390625 43.28125 13.890625 
Q 47.125 21.390625 47.125 36.375 
Q 47.125 51.421875 43.28125 58.90625 
Q 39.453125 66.40625 31.78125 66.40625 
z
M 31.78125 74.21875 
Q 44.046875 74.21875 50.515625 64.515625 
Q 56.984375 54.828125 56.984375 36.375 
Q 56.984375 17.96875 50.515625 8.265625 
Q 44.046875 -1.421875 31.78125 -1.421875 
Q 19.53125 -1.421875 13.0625 8.265625 
Q 6.59375 17.96875 6.59375 36.375 
Q 6.59375 54.828125 13.0625 64.515625 
Q 19.53125 74.21875 31.78125 74.21875 
z
" id="DejaVuSans-48"/>
       </defs>
       <use xlink:href="#DejaVuSans-48"/>
      </g>
     </g>
    </g>
    <g id="xtick_2">
     <g id="line2d_2">
      <path clip-path="url(#p61ef212a68)" d="M 142.053053 165.1 
L 142.053053 7.2 
" style="fill:none;stroke:#ffffff;stroke-linecap:round;"/>
     </g>
     <g id="text_2">
      <!-- 10 -->
      <g style="fill:#262626;" transform="translate(135.054303 182.958281)scale(0.11 -0.11)">
       <defs>
        <path d="M 12.40625 8.296875 
L 28.515625 8.296875 
L 28.515625 63.921875 
L 10.984375 60.40625 
L 10.984375 69.390625 
L 28.421875 72.90625 
L 38.28125 72.90625 
L 38.28125 8.296875 
L 54.390625 8.296875 
L 54.390625 0 
L 12.40625 0 
z
" id="DejaVuSans-49"/>
       </defs>
       <use xlink:href="#DejaVuSans-49"/>
       <use x="63.623047" xlink:href="#DejaVuSans-48"/>
      </g>
     </g>
    </g>
    <g id="xtick_3">
     <g id="line2d_3">
      <path clip-path="url(#p61ef212a68)" d="M 242.913918 165.1 
L 242.913918 7.2 
" style="fill:none;stroke:#ffffff;stroke-linecap:round;"/>
     </g>
     <g id="text_3">
      <!-- 20 -->
      <g style="fill:#262626;" transform="translate(235.915168 182.958281)scale(0.11 -0.11)">
       <defs>
        <path d="M 19.1875 8.296875 
L 53.609375 8.296875 
L 53.609375 0 
L 7.328125 0 
L 7.328125 8.296875 
Q 12.9375 14.109375 22.625 23.890625 
Q 32.328125 33.6875 34.8125 36.53125 
Q 39.546875 41.84375 41.421875 45.53125 
Q 43.3125 49.21875 43.3125 52.78125 
Q 43.3125 58.59375 39.234375 62.25 
Q 35.15625 65.921875 28.609375 65.921875 
Q 23.96875 65.921875 18.8125 64.3125 
Q 13.671875 62.703125 7.8125 59.421875 
L 7.8125 69.390625 
Q 13.765625 71.78125 18.9375 73 
Q 24.125 74.21875 28.421875 74.21875 
Q 39.75 74.21875 46.484375 68.546875 
Q 53.21875 62.890625 53.21875 53.421875 
Q 53.21875 48.921875 51.53125 44.890625 
Q 49.859375 40.875 45.40625 35.40625 
Q 44.1875 33.984375 37.640625 27.21875 
Q 31.109375 20.453125 19.1875 8.296875 
z
" id="DejaVuSans-50"/>
       </defs>
       <use xlink:href="#DejaVuSans-50"/>
       <use x="63.623047" xlink:href="#DejaVuSans-48"/>
      </g>
     </g>
    </g>
    <g id="xtick_4">
     <g id="line2d_4">
      <path clip-path="url(#p61ef212a68)" d="M 343.774784 165.1 
L 343.774784 7.2 
" style="fill:none;stroke:#ffffff;stroke-linecap:round;"/>
     </g>
     <g id="text_4">
      <!-- 30 -->
      <g style="fill:#262626;" transform="translate(336.776034 182.958281)scale(0.11 -0.11)">
       <defs>
        <path d="M 40.578125 39.3125 
Q 47.65625 37.796875 51.625 33 
Q 55.609375 28.21875 55.609375 21.1875 
Q 55.609375 10.40625 48.1875 4.484375 
Q 40.765625 -1.421875 27.09375 -1.421875 
Q 22.515625 -1.421875 17.65625 -0.515625 
Q 12.796875 0.390625 7.625 2.203125 
L 7.625 11.71875 
Q 11.71875 9.328125 16.59375 8.109375 
Q 21.484375 6.890625 26.8125 6.890625 
Q 36.078125 6.890625 40.9375 10.546875 
Q 45.796875 14.203125 45.796875 21.1875 
Q 45.796875 27.640625 41.28125 31.265625 
Q 36.765625 34.90625 28.71875 34.90625 
L 20.21875 34.90625 
L 20.21875 43.015625 
L 29.109375 43.015625 
Q 36.375 43.015625 40.234375 45.921875 
Q 44.09375 48.828125 44.09375 54.296875 
Q 44.09375 59.90625 40.109375 62.90625 
Q 36.140625 65.921875 28.71875 65.921875 
Q 24.65625 65.921875 20.015625 65.03125 
Q 15.375 64.15625 9.8125 62.3125 
L 9.8125 71.09375 
Q 15.4375 72.65625 20.34375 73.4375 
Q 25.25 74.21875 29.59375 74.21875 
Q 40.828125 74.21875 47.359375 69.109375 
Q 53.90625 64.015625 53.90625 55.328125 
Q 53.90625 49.265625 50.4375 45.09375 
Q 46.96875 40.921875 40.578125 39.3125 
z
" id="DejaVuSans-51"/>
       </defs>
       <use xlink:href="#DejaVuSans-51"/>
       <use x="63.623047" xlink:href="#DejaVuSans-48"/>
      </g>
     </g>
    </g>
    <g id="xtick_5">
     <g id="line2d_5">
      <path clip-path="url(#p61ef212a68)" d="M 444.635649 165.1 
L 444.635649 7.2 
" style="fill:none;stroke:#ffffff;stroke-linecap:round;"/>
     </g>
     <g id="text_5">
      <!-- 40 -->
      <g style="fill:#262626;" transform="translate(437.636899 182.958281)scale(0.11 -0.11)">
       <defs>
        <path d="M 37.796875 64.3125 
L 12.890625 25.390625 
L 37.796875 25.390625 
z
M 35.203125 72.90625 
L 47.609375 72.90625 
L 47.609375 25.390625 
L 58.015625 25.390625 
L 58.015625 17.1875 
L 47.609375 17.1875 
L 47.609375 0 
L 37.796875 0 
L 37.796875 17.1875 
L 4.890625 17.1875 
L 4.890625 26.703125 
z
" id="DejaVuSans-52"/>
       </defs>
       <use xlink:href="#DejaVuSans-52"/>
       <use x="63.623047" xlink:href="#DejaVuSans-48"/>
      </g>
     </g>
    </g>
    <g id="xtick_6">
     <g id="line2d_6">
      <path clip-path="url(#p61ef212a68)" d="M 545.496515 165.1 
L 545.496515 7.2 
" style="fill:none;stroke:#ffffff;stroke-linecap:round;"/>
     </g>
     <g id="text_6">
      <!-- 50 -->
      <g style="fill:#262626;" transform="translate(538.497765 182.958281)scale(0.11 -0.11)">
       <defs>
        <path d="M 10.796875 72.90625 
L 49.515625 72.90625 
L 49.515625 64.59375 
L 19.828125 64.59375 
L 19.828125 46.734375 
Q 21.96875 47.46875 24.109375 47.828125 
Q 26.265625 48.1875 28.421875 48.1875 
Q 40.625 48.1875 47.75 41.5 
Q 54.890625 34.8125 54.890625 23.390625 
Q 54.890625 11.625 47.5625 5.09375 
Q 40.234375 -1.421875 26.90625 -1.421875 
Q 22.3125 -1.421875 17.546875 -0.640625 
Q 12.796875 0.140625 7.71875 1.703125 
L 7.71875 11.625 
Q 12.109375 9.234375 16.796875 8.0625 
Q 21.484375 6.890625 26.703125 6.890625 
Q 35.15625 6.890625 40.078125 11.328125 
Q 45.015625 15.765625 45.015625 23.390625 
Q 45.015625 31 40.078125 35.4375 
Q 35.15625 39.890625 26.703125 39.890625 
Q 22.75 39.890625 18.8125 39.015625 
Q 14.890625 38.140625 10.796875 36.28125 
z
" id="DejaVuSans-53"/>
       </defs>
       <use xlink:href="#DejaVuSans-53"/>
       <use x="63.623047" xlink:href="#DejaVuSans-48"/>
      </g>
     </g>
    </g>
    <g id="xtick_7">
     <g id="line2d_7">
      <path clip-path="url(#p61ef212a68)" d="M 646.35738 165.1 
L 646.35738 7.2 
" style="fill:none;stroke:#ffffff;stroke-linecap:round;"/>
     </g>
     <g id="text_7">
      <!-- 60 -->
      <g style="fill:#262626;" transform="translate(639.35863 182.958281)scale(0.11 -0.11)">
       <defs>
        <path d="M 33.015625 40.375 
Q 26.375 40.375 22.484375 35.828125 
Q 18.609375 31.296875 18.609375 23.390625 
Q 18.609375 15.53125 22.484375 10.953125 
Q 26.375 6.390625 33.015625 6.390625 
Q 39.65625 6.390625 43.53125 10.953125 
Q 47.40625 15.53125 47.40625 23.390625 
Q 47.40625 31.296875 43.53125 35.828125 
Q 39.65625 40.375 33.015625 40.375 
z
M 52.59375 71.296875 
L 52.59375 62.3125 
Q 48.875 64.0625 45.09375 64.984375 
Q 41.3125 65.921875 37.59375 65.921875 
Q 27.828125 65.921875 22.671875 59.328125 
Q 17.53125 52.734375 16.796875 39.40625 
Q 19.671875 43.65625 24.015625 45.921875 
Q 28.375 48.1875 33.59375 48.1875 
Q 44.578125 48.1875 50.953125 41.515625 
Q 57.328125 34.859375 57.328125 23.390625 
Q 57.328125 12.15625 50.6875 5.359375 
Q 44.046875 -1.421875 33.015625 -1.421875 
Q 20.359375 -1.421875 13.671875 8.265625 
Q 6.984375 17.96875 6.984375 36.375 
Q 6.984375 53.65625 15.1875 63.9375 
Q 23.390625 74.21875 37.203125 74.21875 
Q 40.921875 74.21875 44.703125 73.484375 
Q 48.484375 72.75 52.59375 71.296875 
z
" id="DejaVuSans-54"/>
       </defs>
       <use xlink:href="#DejaVuSans-54"/>
       <use x="63.623047" xlink:href="#DejaVuSans-48"/>
      </g>
     </g>
    </g>
    <g id="xtick_8">
     <g id="line2d_8">
      <path clip-path="url(#p61ef212a68)" d="M 747.218245 165.1 
L 747.218245 7.2 
" style="fill:none;stroke:#ffffff;stroke-linecap:round;"/>
     </g>
     <g id="text_8">
      <!-- 70 -->
      <g style="fill:#262626;" transform="translate(740.219495 182.958281)scale(0.11 -0.11)">
       <defs>
        <path d="M 8.203125 72.90625 
L 55.078125 72.90625 
L 55.078125 68.703125 
L 28.609375 0 
L 18.3125 0 
L 43.21875 64.59375 
L 8.203125 64.59375 
z
" id="DejaVuSans-55"/>
       </defs>
       <use xlink:href="#DejaVuSans-55"/>
       <use x="63.623047" xlink:href="#DejaVuSans-48"/>
      </g>
     </g>
    </g>
    <g id="xtick_9">
     <g id="line2d_9">
      <path clip-path="url(#p61ef212a68)" d="M 848.079111 165.1 
L 848.079111 7.2 
" style="fill:none;stroke:#ffffff;stroke-linecap:round;"/>
     </g>
     <g id="text_9">
      <!-- 80 -->
      <g style="fill:#262626;" transform="translate(841.080361 182.958281)scale(0.11 -0.11)">
       <defs>
        <path d="M 31.78125 34.625 
Q 24.75 34.625 20.71875 30.859375 
Q 16.703125 27.09375 16.703125 20.515625 
Q 16.703125 13.921875 20.71875 10.15625 
Q 24.75 6.390625 31.78125 6.390625 
Q 38.8125 6.390625 42.859375 10.171875 
Q 46.921875 13.96875 46.921875 20.515625 
Q 46.921875 27.09375 42.890625 30.859375 
Q 38.875 34.625 31.78125 34.625 
z
M 21.921875 38.8125 
Q 15.578125 40.375 12.03125 44.71875 
Q 8.5 49.078125 8.5 55.328125 
Q 8.5 64.0625 14.71875 69.140625 
Q 20.953125 74.21875 31.78125 74.21875 
Q 42.671875 74.21875 48.875 69.140625 
Q 55.078125 64.0625 55.078125 55.328125 
Q 55.078125 49.078125 51.53125 44.71875 
Q 48 40.375 41.703125 38.8125 
Q 48.828125 37.15625 52.796875 32.3125 
Q 56.78125 27.484375 56.78125 20.515625 
Q 56.78125 9.90625 50.3125 4.234375 
Q 43.84375 -1.421875 31.78125 -1.421875 
Q 19.734375 -1.421875 13.25 4.234375 
Q 6.78125 9.90625 6.78125 20.515625 
Q 6.78125 27.484375 10.78125 32.3125 
Q 14.796875 37.15625 21.921875 38.8125 
z
M 18.3125 54.390625 
Q 18.3125 48.734375 21.84375 45.5625 
Q 25.390625 42.390625 31.78125 42.390625 
Q 38.140625 42.390625 41.71875 45.5625 
Q 45.3125 48.734375 45.3125 54.390625 
Q 45.3125 60.0625 41.71875 63.234375 
Q 38.140625 66.40625 31.78125 66.40625 
Q 25.390625 66.40625 21.84375 63.234375 
Q 18.3125 60.0625 18.3125 54.390625 
z
" id="DejaVuSans-56"/>
       </defs>
       <use xlink:href="#DejaVuSans-56"/>
       <use x="63.623047" xlink:href="#DejaVuSans-48"/>
      </g>
     </g>
    </g>
    <g id="text_10">
     <!-- Age -->
     <g style="fill:#262626;" transform="translate(433.030337 198.364062)scale(0.12 -0.12)">
      <defs>
       <path d="M 34.1875 63.1875 
L 20.796875 26.90625 
L 47.609375 26.90625 
z
M 28.609375 72.90625 
L 39.796875 72.90625 
L 67.578125 0 
L 57.328125 0 
L 50.6875 18.703125 
L 17.828125 18.703125 
L 11.1875 0 
L 0.78125 0 
z
" id="DejaVuSans-65"/>
       <path d="M 45.40625 27.984375 
Q 45.40625 37.75 41.375 43.109375 
Q 37.359375 48.484375 30.078125 48.484375 
Q 22.859375 48.484375 18.828125 43.109375 
Q 14.796875 37.75 14.796875 27.984375 
Q 14.796875 18.265625 18.828125 12.890625 
Q 22.859375 7.515625 30.078125 7.515625 
Q 37.359375 7.515625 41.375 12.890625 
Q 45.40625 18.265625 45.40625 27.984375 
z
M 54.390625 6.78125 
Q 54.390625 -7.171875 48.1875 -13.984375 
Q 42 -20.796875 29.203125 -20.796875 
Q 24.46875 -20.796875 20.265625 -20.09375 
Q 16.0625 -19.390625 12.109375 -17.921875 
L 12.109375 -9.1875 
Q 16.0625 -11.328125 19.921875 -12.34375 
Q 23.78125 -13.375 27.78125 -13.375 
Q 36.625 -13.375 41.015625 -8.765625 
Q 45.40625 -4.15625 45.40625 5.171875 
L 45.40625 9.625 
Q 42.625 4.78125 38.28125 2.390625 
Q 33.9375 0 27.875 0 
Q 17.828125 0 11.671875 7.65625 
Q 5.515625 15.328125 5.515625 27.984375 
Q 5.515625 40.671875 11.671875 48.328125 
Q 17.828125 56 27.875 56 
Q 33.9375 56 38.28125 53.609375 
Q 42.625 51.21875 45.40625 46.390625 
L 45.40625 54.6875 
L 54.390625 54.6875 
z
" id="DejaVuSans-103"/>
       <path d="M 56.203125 29.59375 
L 56.203125 25.203125 
L 14.890625 25.203125 
Q 15.484375 15.921875 20.484375 11.0625 
Q 25.484375 6.203125 34.421875 6.203125 
Q 39.59375 6.203125 44.453125 7.46875 
Q 49.3125 8.734375 54.109375 11.28125 
L 54.109375 2.78125 
Q 49.265625 0.734375 44.1875 -0.34375 
Q 39.109375 -1.421875 33.890625 -1.421875 
Q 20.796875 -1.421875 13.15625 6.1875 
Q 5.515625 13.8125 5.515625 26.8125 
Q 5.515625 40.234375 12.765625 48.109375 
Q 20.015625 56 32.328125 56 
Q 43.359375 56 49.78125 48.890625 
Q 56.203125 41.796875 56.203125 29.59375 
z
M 47.21875 32.234375 
Q 47.125 39.59375 43.09375 43.984375 
Q 39.0625 48.390625 32.421875 48.390625 
Q 24.90625 48.390625 20.390625 44.140625 
Q 15.875 39.890625 15.1875 32.171875 
z
" id="DejaVuSans-101"/>
      </defs>
      <use xlink:href="#DejaVuSans-65"/>
      <use x="68.408203" xlink:href="#DejaVuSans-103"/>
      <use x="131.884766" xlink:href="#DejaVuSans-101"/>
     </g>
    </g>
   </g>
   <g id="matplotlib.axis_2">
    <g id="ytick_1">
     <g id="line2d_10">
      <path clip-path="url(#p61ef212a68)" d="M 41.192188 165.1 
L 848.079111 165.1 
" style="fill:none;stroke:#ffffff;stroke-linecap:round;"/>
     </g>
     <g id="text_11">
      <!-- 0.00 -->
      <g style="fill:#262626;" transform="translate(7.2 169.279141)scale(0.11 -0.11)">
       <defs>
        <path d="M 10.6875 12.40625 
L 21 12.40625 
L 21 0 
L 10.6875 0 
z
" id="DejaVuSans-46"/>
       </defs>
       <use xlink:href="#DejaVuSans-48"/>
       <use x="63.623047" xlink:href="#DejaVuSans-46"/>
       <use x="95.410156" xlink:href="#DejaVuSans-48"/>
       <use x="159.033203" xlink:href="#DejaVuSans-48"/>
      </g>
     </g>
    </g>
    <g id="ytick_2">
     <g id="line2d_11">
      <path clip-path="url(#p61ef212a68)" d="M 41.192188 130.779038 
L 848.079111 130.779038 
" style="fill:none;stroke:#ffffff;stroke-linecap:round;"/>
     </g>
     <g id="text_12">
      <!-- 0.01 -->
      <g style="fill:#262626;" transform="translate(7.2 134.958179)scale(0.11 -0.11)">
       <use xlink:href="#DejaVuSans-48"/>
       <use x="63.623047" xlink:href="#DejaVuSans-46"/>
       <use x="95.410156" xlink:href="#DejaVuSans-48"/>
       <use x="159.033203" xlink:href="#DejaVuSans-49"/>
      </g>
     </g>
    </g>
    <g id="ytick_3">
     <g id="line2d_12">
      <path clip-path="url(#p61ef212a68)" d="M 41.192188 96.458076 
L 848.079111 96.458076 
" style="fill:none;stroke:#ffffff;stroke-linecap:round;"/>
     </g>
     <g id="text_13">
      <!-- 0.02 -->
      <g style="fill:#262626;" transform="translate(7.2 100.637217)scale(0.11 -0.11)">
       <use xlink:href="#DejaVuSans-48"/>
       <use x="63.623047" xlink:href="#DejaVuSans-46"/>
       <use x="95.410156" xlink:href="#DejaVuSans-48"/>
       <use x="159.033203" xlink:href="#DejaVuSans-50"/>
      </g>
     </g>
    </g>
    <g id="ytick_4">
     <g id="line2d_13">
      <path clip-path="url(#p61ef212a68)" d="M 41.192188 62.137114 
L 848.079111 62.137114 
" style="fill:none;stroke:#ffffff;stroke-linecap:round;"/>
     </g>
     <g id="text_14">
      <!-- 0.03 -->
      <g style="fill:#262626;" transform="translate(7.2 66.316255)scale(0.11 -0.11)">
       <use xlink:href="#DejaVuSans-48"/>
       <use x="63.623047" xlink:href="#DejaVuSans-46"/>
       <use x="95.410156" xlink:href="#DejaVuSans-48"/>
       <use x="159.033203" xlink:href="#DejaVuSans-51"/>
      </g>
     </g>
    </g>
    <g id="ytick_5">
     <g id="line2d_14">
      <path clip-path="url(#p61ef212a68)" d="M 41.192188 27.816153 
L 848.079111 27.816153 
" style="fill:none;stroke:#ffffff;stroke-linecap:round;"/>
     </g>
     <g id="text_15">
      <!-- 0.04 -->
      <g style="fill:#262626;" transform="translate(7.2 31.995293)scale(0.11 -0.11)">
       <use xlink:href="#DejaVuSans-48"/>
       <use x="63.623047" xlink:href="#DejaVuSans-46"/>
       <use x="95.410156" xlink:href="#DejaVuSans-48"/>
       <use x="159.033203" xlink:href="#DejaVuSans-52"/>
      </g>
     </g>
    </g>
   </g>
   <g id="PolyCollection_1">
    <path clip-path="url(#p61ef212a68)" d="M -57.088298 165.059344 
L -57.088298 165.1 
L -52.299266 165.1 
L -47.510233 165.1 
L -42.721201 165.1 
L -37.932168 165.1 
L -33.143136 165.1 
L -28.354103 165.1 
L -23.565071 165.1 
L -18.776038 165.1 
L -13.987006 165.1 
L -9.197974 165.1 
L -4.408941 165.1 
L 0.380091 165.1 
L 5.169124 165.1 
L 9.958156 165.1 
L 14.747189 165.1 
L 19.536221 165.1 
L 24.325254 165.1 
L 29.114286 165.1 
L 33.903319 165.1 
L 38.692351 165.1 
L 43.481384 165.1 
L 48.270416 165.1 
L 53.059449 165.1 
L 57.848481 165.1 
L 62.637514 165.1 
L 67.426546 165.1 
L 72.215579 165.1 
L 77.004611 165.1 
L 81.793643 165.1 
L 86.582676 165.1 
L 91.371708 165.1 
L 96.160741 165.1 
L 100.949773 165.1 
L 105.738806 165.1 
L 110.527838 165.1 
L 115.316871 165.1 
L 120.105903 165.1 
L 124.894936 165.1 
L 129.683968 165.1 
L 134.473001 165.1 
L 139.262033 165.1 
L 144.051066 165.1 
L 148.840098 165.1 
L 153.629131 165.1 
L 158.418163 165.1 
L 163.207195 165.1 
L 167.996228 165.1 
L 172.78526 165.1 
L 177.574293 165.1 
L 182.363325 165.1 
L 187.152358 165.1 
L 191.94139 165.1 
L 196.730423 165.1 
L 201.519455 165.1 
L 206.308488 165.1 
L 211.09752 165.1 
L 215.886553 165.1 
L 220.675585 165.1 
L 225.464618 165.1 
L 230.25365 165.1 
L 235.042683 165.1 
L 239.831715 165.1 
L 244.620748 165.1 
L 249.40978 165.1 
L 254.198812 165.1 
L 258.987845 165.1 
L 263.776877 165.1 
L 268.56591 165.1 
L 273.354942 165.1 
L 278.143975 165.1 
L 282.933007 165.1 
L 287.72204 165.1 
L 292.511072 165.1 
L 297.300105 165.1 
L 302.089137 165.1 
L 306.87817 165.1 
L 311.667202 165.1 
L 316.456235 165.1 
L 321.245267 165.1 
L 326.0343 165.1 
L 330.823332 165.1 
L 335.612365 165.1 
L 340.401397 165.1 
L 345.190429 165.1 
L 349.979462 165.1 
L 354.768494 165.1 
L 359.557527 165.1 
L 364.346559 165.1 
L 369.135592 165.1 
L 373.924624 165.1 
L 378.713657 165.1 
L 383.502689 165.1 
L 388.291722 165.1 
L 393.080754 165.1 
L 397.869787 165.1 
L 402.658819 165.1 
L 407.447852 165.1 
L 412.236884 165.1 
L 417.025917 165.1 
L 421.814949 165.1 
L 426.603982 165.1 
L 431.393014 165.1 
L 436.182046 165.1 
L 440.971079 165.1 
L 445.760111 165.1 
L 450.549144 165.1 
L 455.338176 165.1 
L 460.127209 165.1 
L 464.916241 165.1 
L 469.705274 165.1 
L 474.494306 165.1 
L 479.283339 165.1 
L 484.072371 165.1 
L 488.861404 165.1 
L 493.650436 165.1 
L 498.439469 165.1 
L 503.228501 165.1 
L 508.017534 165.1 
L 512.806566 165.1 
L 517.595599 165.1 
L 522.384631 165.1 
L 527.173663 165.1 
L 531.962696 165.1 
L 536.751728 165.1 
L 541.540761 165.1 
L 546.329793 165.1 
L 551.118826 165.1 
L 555.907858 165.1 
L 560.696891 165.1 
L 565.485923 165.1 
L 570.274956 165.1 
L 575.063988 165.1 
L 579.853021 165.1 
L 584.642053 165.1 
L 589.431086 165.1 
L 594.220118 165.1 
L 599.009151 165.1 
L 603.798183 165.1 
L 608.587215 165.1 
L 613.376248 165.1 
L 618.16528 165.1 
L 622.954313 165.1 
L 627.743345 165.1 
L 632.532378 165.1 
L 637.32141 165.1 
L 642.110443 165.1 
L 646.899475 165.1 
L 651.688508 165.1 
L 656.47754 165.1 
L 661.266573 165.1 
L 666.055605 165.1 
L 670.844638 165.1 
L 675.63367 165.1 
L 680.422703 165.1 
L 685.211735 165.1 
L 690.000768 165.1 
L 694.7898 165.1 
L 699.578832 165.1 
L 704.367865 165.1 
L 709.156897 165.1 
L 713.94593 165.1 
L 718.734962 165.1 
L 723.523995 165.1 
L 728.313027 165.1 
L 733.10206 165.1 
L 737.891092 165.1 
L 742.680125 165.1 
L 747.469157 165.1 
L 752.25819 165.1 
L 757.047222 165.1 
L 761.836255 165.1 
L 766.625287 165.1 
L 771.41432 165.1 
L 776.203352 165.1 
L 780.992385 165.1 
L 785.781417 165.1 
L 790.570449 165.1 
L 795.359482 165.1 
L 800.148514 165.1 
L 804.937547 165.1 
L 809.726579 165.1 
L 814.515612 165.1 
L 819.304644 165.1 
L 824.093677 165.1 
L 828.882709 165.1 
L 833.671742 165.1 
L 838.460774 165.1 
L 843.249807 165.1 
L 848.038839 165.1 
L 852.827872 165.1 
L 857.616904 165.1 
L 862.405937 165.1 
L 867.194969 165.1 
L 871.984002 165.1 
L 876.773034 165.1 
L 881.562066 165.1 
L 886.351099 165.1 
L 891.140131 165.1 
L 895.929164 165.1 
L 895.929164 165.090833 
L 895.929164 165.090833 
L 891.140131 165.086201 
L 886.351099 165.079545 
L 881.562066 165.070135 
L 876.773034 165.057046 
L 871.984002 165.039128 
L 867.194969 165.014985 
L 862.405937 164.982964 
L 857.616904 164.941152 
L 852.827872 164.887398 
L 848.038839 164.819357 
L 843.249807 164.734556 
L 838.460774 164.630496 
L 833.671742 164.504783 
L 828.882709 164.355284 
L 824.093677 164.180311 
L 819.304644 163.978805 
L 814.515612 163.750529 
L 809.726579 163.496219 
L 804.937547 163.217703 
L 800.148514 162.917936 
L 795.359482 162.600947 
L 790.570449 162.27168 
L 785.781417 161.935721 
L 780.992385 161.598928 
L 776.203352 161.266979 
L 771.41432 160.944895 
L 766.625287 160.636568 
L 761.836255 160.344371 
L 757.047222 160.068891 
L 752.25819 159.808834 
L 747.469157 159.561124 
L 742.680125 159.321195 
L 737.891092 159.083447 
L 733.10206 158.841822 
L 728.313027 158.590421 
L 723.523995 158.324098 
L 718.734962 158.038957 
L 713.94593 157.7327 
L 709.156897 157.404787 
L 704.367865 157.056417 
L 699.578832 156.690322 
L 694.7898 156.310441 
L 690.000768 155.9215 
L 685.211735 155.528561 
L 680.422703 155.136583 
L 675.63367 154.750032 
L 670.844638 154.372565 
L 666.055605 154.006805 
L 661.266573 153.65419 
L 656.47754 153.314911 
L 651.688508 152.987921 
L 646.899475 152.670995 
L 642.110443 152.360847 
L 637.32141 152.053281 
L 632.532378 151.74337 
L 627.743345 151.425666 
L 622.954313 151.094408 
L 618.16528 150.743743 
L 613.376248 150.367935 
L 608.587215 149.961563 
L 603.798183 149.519685 
L 599.009151 149.037989 
L 594.220118 148.512899 
L 589.431086 147.941651 
L 584.642053 147.322351 
L 579.853021 146.653998 
L 575.063988 145.936493 
L 570.274956 145.170655 
L 565.485923 144.358217 
L 560.696891 143.501846 
L 555.907858 142.605153 
L 551.118826 141.672699 
L 546.329793 140.709983 
L 541.540761 139.723379 
L 536.751728 138.720004 
L 531.962696 137.707505 
L 527.173663 136.693736 
L 522.384631 135.686347 
L 517.595599 134.692294 
L 512.806566 133.717314 
L 508.017534 132.765405 
L 503.228501 131.838371 
L 498.439469 130.935474 
L 493.650436 130.053217 
L 488.861404 129.185265 
L 484.072371 128.322479 
L 479.283339 127.453004 
L 474.494306 126.562348 
L 469.705274 125.633356 
L 464.916241 124.646034 
L 460.127209 123.577152 
L 455.338176 122.399646 
L 450.549144 121.081861 
L 445.760111 119.586772 
L 440.971079 117.871342 
L 436.182046 115.886288 
L 431.393014 113.576507 
L 426.603982 110.882462 
L 421.814949 107.742763 
L 417.025917 104.098105 
L 412.236884 99.896568 
L 407.447852 95.100099 
L 402.658819 89.691755 
L 397.869787 83.68306 
L 393.080754 77.120606 
L 388.291722 70.090921 
L 383.502689 62.722607 
L 378.713657 55.184887 
L 373.924624 47.682024 
L 369.135592 40.443517 
L 364.346559 33.710499 
L 359.557527 27.719357 
L 354.768494 22.684066 
L 349.979462 18.779053 
L 345.190429 16.124507 
L 340.401397 14.775902 
L 335.612365 14.719048 
L 330.823332 15.871363 
L 326.0343 18.089337 
L 321.245267 21.181372 
L 316.456235 24.924622 
L 311.667202 29.083935 
L 306.87817 33.430936 
L 302.089137 37.761278 
L 297.300105 41.90852 
L 292.511072 45.753506 
L 287.72204 49.228771 
L 282.933007 52.318019 
L 278.143975 55.051268 
L 273.354942 57.496572 
L 268.56591 59.749488 
L 263.776877 61.921469 
L 258.987845 64.128319 
L 254.198812 66.479641 
L 249.40978 69.069997 
L 244.620748 71.972232 
L 239.831715 75.233157 
L 235.042683 78.871597 
L 230.25365 82.878604 
L 225.464618 87.21954 
L 220.675585 91.837656 
L 215.886553 96.658749 
L 211.09752 101.596492 
L 206.308488 106.558057 
L 201.519455 111.44968 
L 196.730423 116.181878 
L 191.94139 120.674056 
L 187.152358 124.858292 
L 182.363325 128.682169 
L 177.574293 132.110504 
L 172.78526 135.125958 
L 167.996228 137.728511 
L 163.207195 139.933896 
L 158.418163 141.771128 
L 153.629131 143.279362 
L 148.840098 144.504339 
L 144.051066 145.494735 
L 139.262033 146.29873 
L 134.473001 146.961086 
L 129.683968 147.520951 
L 124.894936 148.010549 
L 120.105903 148.454783 
L 115.316871 148.871677 
L 110.527838 149.273498 
L 105.738806 149.668319 
L 100.949773 150.061728 
L 96.160741 150.45843 
L 91.371708 150.863494 
L 86.582676 151.283092 
L 81.793643 151.724651 
L 77.004611 152.196459 
L 72.215579 152.706838 
L 67.426546 153.263047 
L 62.637514 153.870144 
L 57.848481 154.529999 
L 53.059449 155.240619 
L 48.270416 155.99592 
L 43.481384 156.785956 
L 38.692351 157.597581 
L 33.903319 158.415459 
L 29.114286 159.223266 
L 24.325254 160.004951 
L 19.536221 160.74589 
L 14.747189 161.433834 
L 9.958156 162.059551 
L 5.169124 162.617145 
L 0.380091 163.104057 
L -4.408941 163.520789 
L -9.197974 163.870428 
L -13.987006 164.158052 
L -18.776038 164.390083 
L -23.565071 164.573679 
L -28.354103 164.716188 
L -33.143136 164.824717 
L -37.932168 164.90582 
L -42.721201 164.965299 
L -47.510233 165.008112 
L -52.299266 165.038362 
L -57.088298 165.059344 
z
" style="fill:#4c72b0;fill-opacity:0.25;stroke:#4c72b0;"/>
   </g>
   <g id="PolyCollection_2">
    <path clip-path="url(#p61ef212a68)" d="M -86.780396 164.986147 
L -86.780396 165.1 
L -81.418244 165.1 
L -76.056092 165.1 
L -70.69394 165.1 
L -65.331788 165.1 
L -59.969636 165.1 
L -54.607484 165.1 
L -49.245332 165.1 
L -43.88318 165.1 
L -38.521028 165.1 
L -33.158876 165.1 
L -27.796724 165.1 
L -22.434572 165.1 
L -17.07242 165.1 
L -11.710268 165.1 
L -6.348116 165.1 
L -0.985964 165.1 
L 4.376188 165.1 
L 9.73834 165.1 
L 15.100492 165.1 
L 20.462644 165.1 
L 25.824796 165.1 
L 31.186948 165.1 
L 36.5491 165.1 
L 41.911252 165.1 
L 47.273404 165.1 
L 52.635556 165.1 
L 57.997708 165.1 
L 63.35986 165.1 
L 68.722012 165.1 
L 74.084164 165.1 
L 79.446316 165.1 
L 84.808468 165.1 
L 90.17062 165.1 
L 95.532772 165.1 
L 100.894924 165.1 
L 106.257076 165.1 
L 111.619228 165.1 
L 116.98138 165.1 
L 122.343532 165.1 
L 127.705684 165.1 
L 133.067836 165.1 
L 138.429988 165.1 
L 143.79214 165.1 
L 149.154292 165.1 
L 154.516444 165.1 
L 159.878596 165.1 
L 165.240748 165.1 
L 170.6029 165.1 
L 175.965052 165.1 
L 181.327204 165.1 
L 186.689356 165.1 
L 192.051508 165.1 
L 197.41366 165.1 
L 202.775812 165.1 
L 208.137964 165.1 
L 213.500116 165.1 
L 218.862268 165.1 
L 224.22442 165.1 
L 229.586572 165.1 
L 234.948724 165.1 
L 240.310876 165.1 
L 245.673028 165.1 
L 251.03518 165.1 
L 256.397332 165.1 
L 261.759484 165.1 
L 267.121636 165.1 
L 272.483788 165.1 
L 277.845939 165.1 
L 283.208091 165.1 
L 288.570243 165.1 
L 293.932395 165.1 
L 299.294547 165.1 
L 304.656699 165.1 
L 310.018851 165.1 
L 315.381003 165.1 
L 320.743155 165.1 
L 326.105307 165.1 
L 331.467459 165.1 
L 336.829611 165.1 
L 342.191763 165.1 
L 347.553915 165.1 
L 352.916067 165.1 
L 358.278219 165.1 
L 363.640371 165.1 
L 369.002523 165.1 
L 374.364675 165.1 
L 379.726827 165.1 
L 385.088979 165.1 
L 390.451131 165.1 
L 395.813283 165.1 
L 401.175435 165.1 
L 406.537587 165.1 
L 411.899739 165.1 
L 417.261891 165.1 
L 422.624043 165.1 
L 427.986195 165.1 
L 433.348347 165.1 
L 438.710499 165.1 
L 444.072651 165.1 
L 449.434803 165.1 
L 454.796955 165.1 
L 460.159107 165.1 
L 465.521259 165.1 
L 470.883411 165.1 
L 476.245563 165.1 
L 481.607715 165.1 
L 486.969867 165.1 
L 492.332019 165.1 
L 497.694171 165.1 
L 503.056323 165.1 
L 508.418475 165.1 
L 513.780627 165.1 
L 519.142779 165.1 
L 524.504931 165.1 
L 529.867083 165.1 
L 535.229235 165.1 
L 540.591387 165.1 
L 545.953539 165.1 
L 551.315691 165.1 
L 556.677843 165.1 
L 562.039995 165.1 
L 567.402147 165.1 
L 572.764299 165.1 
L 578.126451 165.1 
L 583.488603 165.1 
L 588.850755 165.1 
L 594.212907 165.1 
L 599.575059 165.1 
L 604.937211 165.1 
L 610.299363 165.1 
L 615.661515 165.1 
L 621.023667 165.1 
L 626.385819 165.1 
L 631.747971 165.1 
L 637.110123 165.1 
L 642.472275 165.1 
L 647.834427 165.1 
L 653.196579 165.1 
L 658.558731 165.1 
L 663.920883 165.1 
L 669.283035 165.1 
L 674.645187 165.1 
L 680.007339 165.1 
L 685.369491 165.1 
L 690.731643 165.1 
L 696.093795 165.1 
L 701.455947 165.1 
L 706.818099 165.1 
L 712.180251 165.1 
L 717.542403 165.1 
L 722.904555 165.1 
L 728.266707 165.1 
L 733.628859 165.1 
L 738.991011 165.1 
L 744.353163 165.1 
L 749.715315 165.1 
L 755.077467 165.1 
L 760.439619 165.1 
L 765.801771 165.1 
L 771.163923 165.1 
L 776.526075 165.1 
L 781.888227 165.1 
L 787.250379 165.1 
L 792.612531 165.1 
L 797.974683 165.1 
L 803.336835 165.1 
L 808.698987 165.1 
L 814.061139 165.1 
L 819.423291 165.1 
L 824.785443 165.1 
L 830.147595 165.1 
L 835.509747 165.1 
L 840.871899 165.1 
L 846.234051 165.1 
L 851.596203 165.1 
L 856.958355 165.1 
L 862.320507 165.1 
L 867.682659 165.1 
L 873.044811 165.1 
L 878.406963 165.1 
L 883.769115 165.1 
L 889.131267 165.1 
L 894.493419 165.1 
L 899.855571 165.1 
L 905.217723 165.1 
L 910.579875 165.1 
L 915.942027 165.1 
L 921.304179 165.1 
L 926.666331 165.1 
L 932.028483 165.1 
L 937.390635 165.1 
L 942.752787 165.1 
L 948.114939 165.1 
L 953.477091 165.1 
L 958.839243 165.1 
L 964.201395 165.1 
L 969.563547 165.1 
L 974.925699 165.1 
L 980.287851 165.1 
L 980.287851 165.089821 
L 980.287851 165.089821 
L 974.925699 165.085445 
L 969.563547 165.079493 
L 964.201395 165.071532 
L 958.839243 165.061062 
L 953.477091 165.047523 
L 948.114939 165.030315 
L 942.752787 165.008826 
L 937.390635 164.982462 
L 932.028483 164.950702 
L 926.666331 164.913146 
L 921.304179 164.869581 
L 915.942027 164.820033 
L 910.579875 164.76483 
L 905.217723 164.704638 
L 899.855571 164.640489 
L 894.493419 164.573779 
L 889.131267 164.506236 
L 883.769115 164.439863 
L 878.406963 164.376847 
L 873.044811 164.319438 
L 867.682659 164.269823 
L 862.320507 164.229975 
L 856.958355 164.201525 
L 851.596203 164.185631 
L 846.234051 164.182889 
L 840.871899 164.193269 
L 835.509747 164.216091 
L 830.147595 164.250041 
L 824.785443 164.293222 
L 819.423291 164.343227 
L 814.061139 164.39723 
L 808.698987 164.452081 
L 803.336835 164.504393 
L 797.974683 164.550614 
L 792.612531 164.587076 
L 787.250379 164.610032 
L 781.888227 164.615663 
L 776.526075 164.600088 
L 771.163923 164.559371 
L 765.801771 164.489543 
L 760.439619 164.386649 
L 755.077467 164.246828 
L 749.715315 164.066435 
L 744.353163 163.842195 
L 738.991011 163.571386 
L 733.628859 163.252033 
L 728.266707 162.883105 
L 722.904555 162.464668 
L 717.542403 161.997999 
L 712.180251 161.485615 
L 706.818099 160.931225 
L 701.455947 160.339571 
L 696.093795 159.716185 
L 690.731643 159.067055 
L 685.369491 158.398238 
L 680.007339 157.715437 
L 674.645187 157.023583 
L 669.283035 156.326466 
L 663.920883 155.626439 
L 658.558731 154.924235 
L 653.196579 154.218912 
L 647.834427 153.507943 
L 642.472275 152.78745 
L 637.110123 152.052564 
L 631.747971 151.297896 
L 626.385819 150.518091 
L 621.023667 149.70841 
L 615.661515 148.865311 
L 610.299363 147.98698 
L 604.937211 147.073755 
L 599.575059 146.128408 
L 594.212907 145.156253 
L 588.850755 144.165035 
L 583.488603 143.164602 
L 578.126451 142.16636 
L 572.764299 141.182524 
L 567.402147 140.225217 
L 562.039995 139.305459 
L 556.677843 138.432137 
L 551.315691 137.611017 
L 545.953539 136.843887 
L 540.591387 136.127901 
L 535.229235 135.455183 
L 529.867083 134.812723 
L 524.504931 134.182581 
L 519.142779 133.542378 
L 513.780627 132.866052 
L 508.418475 132.124816 
L 503.056323 131.288257 
L 497.694171 130.325534 
L 492.332019 129.206595 
L 486.969867 127.903391 
L 481.607715 126.39105 
L 476.245563 124.648976 
L 470.883411 122.661876 
L 465.521259 120.420682 
L 460.159107 117.923344 
L 454.796955 115.175462 
L 449.434803 112.190707 
L 444.072651 108.99097 
L 438.710499 105.606203 
L 433.348347 102.073886 
L 427.986195 98.438116 
L 422.624043 94.748314 
L 417.261891 91.057585 
L 411.899739 87.420822 
L 406.537587 83.892633 
L 401.175435 80.525226 
L 395.813283 77.366359 
L 390.451131 74.457498 
L 385.088979 71.832247 
L 379.726827 69.515161 
L 374.364675 67.520964 
L 369.002523 65.854215 
L 363.640371 64.509425 
L 358.278219 63.471631 
L 352.916067 62.717404 
L 347.553915 62.216282 
L 342.191763 61.932608 
L 336.829611 61.827697 
L 331.467459 61.862294 
L 326.105307 61.999182 
L 320.743155 62.205818 
L 315.381003 62.456802 
L 310.018851 62.736001 
L 304.656699 63.038106 
L 299.294547 63.369468 
L 293.932395 63.748063 
L 288.570243 64.202542 
L 283.208091 64.770373 
L 277.845939 65.495199 
L 272.483788 66.423586 
L 267.121636 67.601433 
L 261.759484 69.070323 
L 256.397332 70.864122 
L 251.03518 73.006084 
L 245.673028 75.506694 
L 240.310876 78.362383 
L 234.948724 81.555171 
L 229.586572 85.053225 
L 224.22442 88.812213 
L 218.862268 92.777315 
L 213.500116 96.885689 
L 208.137964 101.069201 
L 202.775812 105.25722 
L 197.41366 109.379323 
L 192.051508 113.367769 
L 186.689356 117.159675 
L 181.327204 120.698822 
L 175.965052 123.937105 
L 170.6029 126.835609 
L 165.240748 129.365369 
L 159.878596 131.507826 
L 154.516444 133.255034 
L 149.154292 134.609635 
L 143.79214 135.584629 
L 138.429988 136.202945 
L 133.067836 136.496815 
L 127.705684 136.506936 
L 122.343532 136.281404 
L 116.98138 135.874407 
L 111.619228 135.344664 
L 106.257076 134.753622 
L 100.894924 134.163439 
L 95.532772 133.634794 
L 90.17062 133.224619 
L 84.808468 132.983853 
L 79.446316 132.955345 
L 74.084164 133.172032 
L 68.722012 133.655552 
L 63.35986 134.415379 
L 57.997708 135.448584 
L 52.635556 136.74026 
L 47.273404 138.264599 
L 41.911252 139.986561 
L 36.5491 141.864017 
L 31.186948 143.85022 
L 25.824796 145.896421 
L 20.462644 147.954438 
L 15.100492 149.979015 
L 9.73834 151.929799 
L 4.376188 153.772849 
L -0.985964 155.481603 
L -6.348116 157.037283 
L -11.710268 158.428797 
L -17.07242 159.652187 
L -22.434572 160.709739 
L -27.796724 161.608866 
L -33.158876 162.360878 
L -38.521028 162.979743 
L -43.88318 163.480937 
L -49.245332 163.880436 
L -54.607484 164.193888 
L -59.969636 164.436002 
L -65.331788 164.620119 
L -70.69394 164.757976 
L -76.056092 164.859611 
L -81.418244 164.933397 
L -86.780396 164.986147 
z
" style="fill:#dd8452;fill-opacity:0.25;stroke:#dd8452;"/>
   </g>
   <g id="patch_3">
    <path d="M 41.192188 165.1 
L 41.192188 7.2 
" style="fill:none;stroke:#ffffff;stroke-linecap:square;stroke-linejoin:miter;stroke-width:1.25;"/>
   </g>
   <g id="patch_4">
    <path d="M 41.192188 165.1 
L 848.079111 165.1 
" style="fill:none;stroke:#ffffff;stroke-linecap:square;stroke-linejoin:miter;stroke-width:1.25;"/>
   </g>
  </g>
  <g id="legend_1">
   <g id="text_16">
    <!-- Survived -->
    <g style="fill:#262626;" transform="translate(857.987736 91.195156)scale(0.12 -0.12)">
     <defs>
      <path d="M 53.515625 70.515625 
L 53.515625 60.890625 
Q 47.90625 63.578125 42.921875 64.890625 
Q 37.9375 66.21875 33.296875 66.21875 
Q 25.25 66.21875 20.875 63.09375 
Q 16.5 59.96875 16.5 54.203125 
Q 16.5 49.359375 19.40625 46.890625 
Q 22.3125 44.4375 30.421875 42.921875 
L 36.375 41.703125 
Q 47.40625 39.59375 52.65625 34.296875 
Q 57.90625 29 57.90625 20.125 
Q 57.90625 9.515625 50.796875 4.046875 
Q 43.703125 -1.421875 29.984375 -1.421875 
Q 24.8125 -1.421875 18.96875 -0.25 
Q 13.140625 0.921875 6.890625 3.21875 
L 6.890625 13.375 
Q 12.890625 10.015625 18.65625 8.296875 
Q 24.421875 6.59375 29.984375 6.59375 
Q 38.421875 6.59375 43.015625 9.90625 
Q 47.609375 13.234375 47.609375 19.390625 
Q 47.609375 24.75 44.3125 27.78125 
Q 41.015625 30.8125 33.5 32.328125 
L 27.484375 33.5 
Q 16.453125 35.6875 11.515625 40.375 
Q 6.59375 45.0625 6.59375 53.421875 
Q 6.59375 63.09375 13.40625 68.65625 
Q 20.21875 74.21875 32.171875 74.21875 
Q 37.3125 74.21875 42.625 73.28125 
Q 47.953125 72.359375 53.515625 70.515625 
z
" id="DejaVuSans-83"/>
      <path d="M 8.5 21.578125 
L 8.5 54.6875 
L 17.484375 54.6875 
L 17.484375 21.921875 
Q 17.484375 14.15625 20.5 10.265625 
Q 23.53125 6.390625 29.59375 6.390625 
Q 36.859375 6.390625 41.078125 11.03125 
Q 45.3125 15.671875 45.3125 23.6875 
L 45.3125 54.6875 
L 54.296875 54.6875 
L 54.296875 0 
L 45.3125 0 
L 45.3125 8.40625 
Q 42.046875 3.421875 37.71875 1 
Q 33.40625 -1.421875 27.6875 -1.421875 
Q 18.265625 -1.421875 13.375 4.4375 
Q 8.5 10.296875 8.5 21.578125 
z
M 31.109375 56 
z
" id="DejaVuSans-117"/>
      <path d="M 41.109375 46.296875 
Q 39.59375 47.171875 37.8125 47.578125 
Q 36.03125 48 33.890625 48 
Q 26.265625 48 22.1875 43.046875 
Q 18.109375 38.09375 18.109375 28.8125 
L 18.109375 0 
L 9.078125 0 
L 9.078125 54.6875 
L 18.109375 54.6875 
L 18.109375 46.1875 
Q 20.953125 51.171875 25.484375 53.578125 
Q 30.03125 56 36.53125 56 
Q 37.453125 56 38.578125 55.875 
Q 39.703125 55.765625 41.0625 55.515625 
z
" id="DejaVuSans-114"/>
      <path d="M 2.984375 54.6875 
L 12.5 54.6875 
L 29.59375 8.796875 
L 46.6875 54.6875 
L 56.203125 54.6875 
L 35.6875 0 
L 23.484375 0 
z
" id="DejaVuSans-118"/>
      <path d="M 9.421875 54.6875 
L 18.40625 54.6875 
L 18.40625 0 
L 9.421875 0 
z
M 9.421875 75.984375 
L 18.40625 75.984375 
L 18.40625 64.59375 
L 9.421875 64.59375 
z
" id="DejaVuSans-105"/>
      <path d="M 45.40625 46.390625 
L 45.40625 75.984375 
L 54.390625 75.984375 
L 54.390625 0 
L 45.40625 0 
L 45.40625 8.203125 
Q 42.578125 3.328125 38.25 0.953125 
Q 33.9375 -1.421875 27.875 -1.421875 
Q 17.96875 -1.421875 11.734375 6.484375 
Q 5.515625 14.40625 5.515625 27.296875 
Q 5.515625 40.1875 11.734375 48.09375 
Q 17.96875 56 27.875 56 
Q 33.9375 56 38.25 53.625 
Q 42.578125 51.265625 45.40625 46.390625 
z
M 14.796875 27.296875 
Q 14.796875 17.390625 18.875 11.75 
Q 22.953125 6.109375 30.078125 6.109375 
Q 37.203125 6.109375 41.296875 11.75 
Q 45.40625 17.390625 45.40625 27.296875 
Q 45.40625 37.203125 41.296875 42.84375 
Q 37.203125 48.484375 30.078125 48.484375 
Q 22.953125 48.484375 18.875 42.84375 
Q 14.796875 37.203125 14.796875 27.296875 
z
" id="DejaVuSans-100"/>
     </defs>
     <use xlink:href="#DejaVuSans-83"/>
     <use x="63.476562" xlink:href="#DejaVuSans-117"/>
     <use x="126.855469" xlink:href="#DejaVuSans-114"/>
     <use x="167.96875" xlink:href="#DejaVuSans-118"/>
     <use x="227.148438" xlink:href="#DejaVuSans-105"/>
     <use x="254.931641" xlink:href="#DejaVuSans-118"/>
     <use x="314.111328" xlink:href="#DejaVuSans-101"/>
     <use x="375.634766" xlink:href="#DejaVuSans-100"/>
    </g>
   </g>
   <g id="patch_5">
    <path d="M 865.436798 107.549062 
L 887.436798 107.549062 
L 887.436798 99.849062 
L 865.436798 99.849062 
z
" style="fill:#4c72b0;fill-opacity:0.25;stroke:#4c72b0;stroke-linejoin:miter;"/>
   </g>
   <g id="text_17">
    <!-- 0 -->
    <g style="fill:#262626;" transform="translate(896.236798 107.549062)scale(0.11 -0.11)">
     <use xlink:href="#DejaVuSans-48"/>
    </g>
   </g>
   <g id="patch_6">
    <path d="M 865.436798 123.695 
L 887.436798 123.695 
L 887.436798 115.995 
L 865.436798 115.995 
z
" style="fill:#dd8452;fill-opacity:0.25;stroke:#dd8452;stroke-linejoin:miter;"/>
   </g>
   <g id="text_18">
    <!-- 1 -->
    <g style="fill:#262626;" transform="translate(896.236798 123.695)scale(0.11 -0.11)">
     <use xlink:href="#DejaVuSans-49"/>
    </g>
   </g>
  </g>
 </g>
 <defs>
  <clipPath id="p61ef212a68">
   <rect height="157.9" width="806.886923" x="41.192188" y="7.2"/>
  </clipPath>
 </defs>
</svg>
