<?xml version="1.0" encoding="utf-8" standalone="no"?>
<!DOCTYPE svg PUBLIC "-//W3C//DTD SVG 1.1//EN"
  "http://www.w3.org/Graphics/SVG/1.1/DTD/svg11.dtd">
<!-- Created with matplotlib (https://matplotlib.org/) -->
<svg height="208.059687pt" version="1.1" viewBox="0 0 920.084692 208.059687" width="920.084692pt" xmlns="http://www.w3.org/2000/svg" xmlns:xlink="http://www.w3.org/1999/xlink">
 <metadata>
  <rdf:RDF xmlns:cc="http://creativecommons.org/ns#" xmlns:dc="http://purl.org/dc/elements/1.1/" xmlns:rdf="http://www.w3.org/1999/02/22-rdf-syntax-ns#">
   <cc:Work>
    <dc:type rdf:resource="http://purl.org/dc/dcmitype/StillImage"/>
    <dc:date>2021-06-21T14:05:10.454723</dc:date>
    <dc:format>image/svg+xml</dc:format>
    <dc:creator>
     <cc:Agent>
      <dc:title>Matplotlib v3.3.4, https://matplotlib.org/</dc:title>
     </cc:Agent>
    </dc:creator>
   </cc:Work>
  </rdf:RDF>
 </metadata>
 <defs>
  <style type="text/css">*{stroke-linecap:butt;stroke-linejoin:round;}</style>
 </defs>
 <g id="figure_1">
  <g id="patch_1">
   <path d="M 0 208.059687 
L 920.084692 208.059687 
L 920.084692 0 
L 0 0 
z
" style="fill:none;"/>
  </g>
  <g id="axes_1">
   <g id="patch_2">
    <path d="M 48.190938 165.1 
L 847.579192 165.1 
L 847.579192 7.2 
L 48.190938 7.2 
z
" style="fill:#eaeaf2;"/>
   </g>
   <g id="matplotlib.axis_1">
    <g id="xtick_1">
     <g id="line2d_1">
      <path clip-path="url(#p3778d3233d)" d="M 48.190938 165.1 
L 48.190938 7.2 
" style="fill:none;stroke:#ffffff;stroke-linecap:round;"/>
     </g>
     <g id="text_1">
      <!-- 0 -->
      <g style="fill:#262626;" transform="translate(44.691563 182.958281)scale(0.11 -0.11)">
       <defs>
        <path d="M 31.78125 66.40625 
Q 24.171875 66.40625 20.328125 58.90625 
Q 16.5 51.421875 16.5 36.375 
Q 16.5 21.390625 20.328125 13.890625 
Q 24.171875 6.390625 31.78125 6.390625 
Q 39.453125 6.390625 43.28125 13.890625 
Q 47.125 21.390625 47.125 36.375 
Q 47.125 51.421875 43.28125 58.90625 
Q 39.453125 66.40625 31.78125 66.40625 
z
M 31.78125 74.21875 
Q 44.046875 74.21875 50.515625 64.515625 
Q 56.984375 54.828125 56.984375 36.375 
Q 56.984375 17.96875 50.515625 8.265625 
Q 44.046875 -1.421875 31.78125 -1.421875 
Q 19.53125 -1.421875 13.0625 8.265625 
Q 6.59375 17.96875 6.59375 36.375 
Q 6.59375 54.828125 13.0625 64.515625 
Q 19.53125 74.21875 31.78125 74.21875 
z
" id="DejaVuSans-48"/>
       </defs>
       <use xlink:href="#DejaVuSans-48"/>
      </g>
     </g>
    </g>
    <g id="xtick_2">
     <g id="line2d_2">
      <path clip-path="url(#p3778d3233d)" d="M 181.422313 165.1 
L 181.422313 7.2 
" style="fill:none;stroke:#ffffff;stroke-linecap:round;"/>
     </g>
     <g id="text_2">
      <!-- 5 -->
      <g style="fill:#262626;" transform="translate(177.922938 182.958281)scale(0.11 -0.11)">
       <defs>
        <path d="M 10.796875 72.90625 
L 49.515625 72.90625 
L 49.515625 64.59375 
L 19.828125 64.59375 
L 19.828125 46.734375 
Q 21.96875 47.46875 24.109375 47.828125 
Q 26.265625 48.1875 28.421875 48.1875 
Q 40.625 48.1875 47.75 41.5 
Q 54.890625 34.8125 54.890625 23.390625 
Q 54.890625 11.625 47.5625 5.09375 
Q 40.234375 -1.421875 26.90625 -1.421875 
Q 22.3125 -1.421875 17.546875 -0.640625 
Q 12.796875 0.140625 7.71875 1.703125 
L 7.71875 11.625 
Q 12.109375 9.234375 16.796875 8.0625 
Q 21.484375 6.890625 26.703125 6.890625 
Q 35.15625 6.890625 40.078125 11.328125 
Q 45.015625 15.765625 45.015625 23.390625 
Q 45.015625 31 40.078125 35.4375 
Q 35.15625 39.890625 26.703125 39.890625 
Q 22.75 39.890625 18.8125 39.015625 
Q 14.890625 38.140625 10.796875 36.28125 
z
" id="DejaVuSans-53"/>
       </defs>
       <use xlink:href="#DejaVuSans-53"/>
      </g>
     </g>
    </g>
    <g id="xtick_3">
     <g id="line2d_3">
      <path clip-path="url(#p3778d3233d)" d="M 314.653689 165.1 
L 314.653689 7.2 
" style="fill:none;stroke:#ffffff;stroke-linecap:round;"/>
     </g>
     <g id="text_3">
      <!-- 10 -->
      <g style="fill:#262626;" transform="translate(307.654939 182.958281)scale(0.11 -0.11)">
       <defs>
        <path d="M 12.40625 8.296875 
L 28.515625 8.296875 
L 28.515625 63.921875 
L 10.984375 60.40625 
L 10.984375 69.390625 
L 28.421875 72.90625 
L 38.28125 72.90625 
L 38.28125 8.296875 
L 54.390625 8.296875 
L 54.390625 0 
L 12.40625 0 
z
" id="DejaVuSans-49"/>
       </defs>
       <use xlink:href="#DejaVuSans-49"/>
       <use x="63.623047" xlink:href="#DejaVuSans-48"/>
      </g>
     </g>
    </g>
    <g id="xtick_4">
     <g id="line2d_4">
      <path clip-path="url(#p3778d3233d)" d="M 447.885065 165.1 
L 447.885065 7.2 
" style="fill:none;stroke:#ffffff;stroke-linecap:round;"/>
     </g>
     <g id="text_4">
      <!-- 15 -->
      <g style="fill:#262626;" transform="translate(440.886315 182.958281)scale(0.11 -0.11)">
       <use xlink:href="#DejaVuSans-49"/>
       <use x="63.623047" xlink:href="#DejaVuSans-53"/>
      </g>
     </g>
    </g>
    <g id="xtick_5">
     <g id="line2d_5">
      <path clip-path="url(#p3778d3233d)" d="M 581.11644 165.1 
L 581.11644 7.2 
" style="fill:none;stroke:#ffffff;stroke-linecap:round;"/>
     </g>
     <g id="text_5">
      <!-- 20 -->
      <g style="fill:#262626;" transform="translate(574.11769 182.958281)scale(0.11 -0.11)">
       <defs>
        <path d="M 19.1875 8.296875 
L 53.609375 8.296875 
L 53.609375 0 
L 7.328125 0 
L 7.328125 8.296875 
Q 12.9375 14.109375 22.625 23.890625 
Q 32.328125 33.6875 34.8125 36.53125 
Q 39.546875 41.84375 41.421875 45.53125 
Q 43.3125 49.21875 43.3125 52.78125 
Q 43.3125 58.59375 39.234375 62.25 
Q 35.15625 65.921875 28.609375 65.921875 
Q 23.96875 65.921875 18.8125 64.3125 
Q 13.671875 62.703125 7.8125 59.421875 
L 7.8125 69.390625 
Q 13.765625 71.78125 18.9375 73 
Q 24.125 74.21875 28.421875 74.21875 
Q 39.75 74.21875 46.484375 68.546875 
Q 53.21875 62.890625 53.21875 53.421875 
Q 53.21875 48.921875 51.53125 44.890625 
Q 49.859375 40.875 45.40625 35.40625 
Q 44.1875 33.984375 37.640625 27.21875 
Q 31.109375 20.453125 19.1875 8.296875 
z
" id="DejaVuSans-50"/>
       </defs>
       <use xlink:href="#DejaVuSans-50"/>
       <use x="63.623047" xlink:href="#DejaVuSans-48"/>
      </g>
     </g>
    </g>
    <g id="xtick_6">
     <g id="line2d_6">
      <path clip-path="url(#p3778d3233d)" d="M 714.347816 165.1 
L 714.347816 7.2 
" style="fill:none;stroke:#ffffff;stroke-linecap:round;"/>
     </g>
     <g id="text_6">
      <!-- 25 -->
      <g style="fill:#262626;" transform="translate(707.349066 182.958281)scale(0.11 -0.11)">
       <use xlink:href="#DejaVuSans-50"/>
       <use x="63.623047" xlink:href="#DejaVuSans-53"/>
      </g>
     </g>
    </g>
    <g id="xtick_7">
     <g id="line2d_7">
      <path clip-path="url(#p3778d3233d)" d="M 847.579192 165.1 
L 847.579192 7.2 
" style="fill:none;stroke:#ffffff;stroke-linecap:round;"/>
     </g>
     <g id="text_7">
      <!-- 30 -->
      <g style="fill:#262626;" transform="translate(840.580442 182.958281)scale(0.11 -0.11)">
       <defs>
        <path d="M 40.578125 39.3125 
Q 47.65625 37.796875 51.625 33 
Q 55.609375 28.21875 55.609375 21.1875 
Q 55.609375 10.40625 48.1875 4.484375 
Q 40.765625 -1.421875 27.09375 -1.421875 
Q 22.515625 -1.421875 17.65625 -0.515625 
Q 12.796875 0.390625 7.625 2.203125 
L 7.625 11.71875 
Q 11.71875 9.328125 16.59375 8.109375 
Q 21.484375 6.890625 26.8125 6.890625 
Q 36.078125 6.890625 40.9375 10.546875 
Q 45.796875 14.203125 45.796875 21.1875 
Q 45.796875 27.640625 41.28125 31.265625 
Q 36.765625 34.90625 28.71875 34.90625 
L 20.21875 34.90625 
L 20.21875 43.015625 
L 29.109375 43.015625 
Q 36.375 43.015625 40.234375 45.921875 
Q 44.09375 48.828125 44.09375 54.296875 
Q 44.09375 59.90625 40.109375 62.90625 
Q 36.140625 65.921875 28.71875 65.921875 
Q 24.65625 65.921875 20.015625 65.03125 
Q 15.375 64.15625 9.8125 62.3125 
L 9.8125 71.09375 
Q 15.4375 72.65625 20.34375 73.4375 
Q 25.25 74.21875 29.59375 74.21875 
Q 40.828125 74.21875 47.359375 69.109375 
Q 53.90625 64.015625 53.90625 55.328125 
Q 53.90625 49.265625 50.4375 45.09375 
Q 46.96875 40.921875 40.578125 39.3125 
z
" id="DejaVuSans-51"/>
       </defs>
       <use xlink:href="#DejaVuSans-51"/>
       <use x="63.623047" xlink:href="#DejaVuSans-48"/>
      </g>
     </g>
    </g>
    <g id="text_8">
     <!-- Fare -->
     <g style="fill:#262626;" transform="translate(435.281315 198.364062)scale(0.12 -0.12)">
      <defs>
       <path d="M 9.8125 72.90625 
L 51.703125 72.90625 
L 51.703125 64.59375 
L 19.671875 64.59375 
L 19.671875 43.109375 
L 48.578125 43.109375 
L 48.578125 34.8125 
L 19.671875 34.8125 
L 19.671875 0 
L 9.8125 0 
z
" id="DejaVuSans-70"/>
       <path d="M 34.28125 27.484375 
Q 23.390625 27.484375 19.1875 25 
Q 14.984375 22.515625 14.984375 16.5 
Q 14.984375 11.71875 18.140625 8.90625 
Q 21.296875 6.109375 26.703125 6.109375 
Q 34.1875 6.109375 38.703125 11.40625 
Q 43.21875 16.703125 43.21875 25.484375 
L 43.21875 27.484375 
z
M 52.203125 31.203125 
L 52.203125 0 
L 43.21875 0 
L 43.21875 8.296875 
Q 40.140625 3.328125 35.546875 0.953125 
Q 30.953125 -1.421875 24.3125 -1.421875 
Q 15.921875 -1.421875 10.953125 3.296875 
Q 6 8.015625 6 15.921875 
Q 6 25.140625 12.171875 29.828125 
Q 18.359375 34.515625 30.609375 34.515625 
L 43.21875 34.515625 
L 43.21875 35.40625 
Q 43.21875 41.609375 39.140625 45 
Q 35.0625 48.390625 27.6875 48.390625 
Q 23 48.390625 18.546875 47.265625 
Q 14.109375 46.140625 10.015625 43.890625 
L 10.015625 52.203125 
Q 14.9375 54.109375 19.578125 55.046875 
Q 24.21875 56 28.609375 56 
Q 40.484375 56 46.34375 49.84375 
Q 52.203125 43.703125 52.203125 31.203125 
z
" id="DejaVuSans-97"/>
       <path d="M 41.109375 46.296875 
Q 39.59375 47.171875 37.8125 47.578125 
Q 36.03125 48 33.890625 48 
Q 26.265625 48 22.1875 43.046875 
Q 18.109375 38.09375 18.109375 28.8125 
L 18.109375 0 
L 9.078125 0 
L 9.078125 54.6875 
L 18.109375 54.6875 
L 18.109375 46.1875 
Q 20.953125 51.171875 25.484375 53.578125 
Q 30.03125 56 36.53125 56 
Q 37.453125 56 38.578125 55.875 
Q 39.703125 55.765625 41.0625 55.515625 
z
" id="DejaVuSans-114"/>
       <path d="M 56.203125 29.59375 
L 56.203125 25.203125 
L 14.890625 25.203125 
Q 15.484375 15.921875 20.484375 11.0625 
Q 25.484375 6.203125 34.421875 6.203125 
Q 39.59375 6.203125 44.453125 7.46875 
Q 49.3125 8.734375 54.109375 11.28125 
L 54.109375 2.78125 
Q 49.265625 0.734375 44.1875 -0.34375 
Q 39.109375 -1.421875 33.890625 -1.421875 
Q 20.796875 -1.421875 13.15625 6.1875 
Q 5.515625 13.8125 5.515625 26.8125 
Q 5.515625 40.234375 12.765625 48.109375 
Q 20.015625 56 32.328125 56 
Q 43.359375 56 49.78125 48.890625 
Q 56.203125 41.796875 56.203125 29.59375 
z
M 47.21875 32.234375 
Q 47.125 39.59375 43.09375 43.984375 
Q 39.0625 48.390625 32.421875 48.390625 
Q 24.90625 48.390625 20.390625 44.140625 
Q 15.875 39.890625 15.1875 32.171875 
z
" id="DejaVuSans-101"/>
      </defs>
      <use xlink:href="#DejaVuSans-70"/>
      <use x="48.394531" xlink:href="#DejaVuSans-97"/>
      <use x="109.673828" xlink:href="#DejaVuSans-114"/>
      <use x="148.537109" xlink:href="#DejaVuSans-101"/>
     </g>
    </g>
   </g>
   <g id="matplotlib.axis_2">
    <g id="ytick_1">
     <g id="line2d_8">
      <path clip-path="url(#p3778d3233d)" d="M 48.190938 165.1 
L 847.579192 165.1 
" style="fill:none;stroke:#ffffff;stroke-linecap:round;"/>
     </g>
     <g id="text_9">
      <!-- 0.000 -->
      <g style="fill:#262626;" transform="translate(7.2 169.279141)scale(0.11 -0.11)">
       <defs>
        <path d="M 10.6875 12.40625 
L 21 12.40625 
L 21 0 
L 10.6875 0 
z
" id="DejaVuSans-46"/>
       </defs>
       <use xlink:href="#DejaVuSans-48"/>
       <use x="63.623047" xlink:href="#DejaVuSans-46"/>
       <use x="95.410156" xlink:href="#DejaVuSans-48"/>
       <use x="159.033203" xlink:href="#DejaVuSans-48"/>
       <use x="222.65625" xlink:href="#DejaVuSans-48"/>
      </g>
     </g>
    </g>
    <g id="ytick_2">
     <g id="line2d_9">
      <path clip-path="url(#p3778d3233d)" d="M 48.190938 140.002853 
L 847.579192 140.002853 
" style="fill:none;stroke:#ffffff;stroke-linecap:round;"/>
     </g>
     <g id="text_10">
      <!-- 0.005 -->
      <g style="fill:#262626;" transform="translate(7.2 144.181994)scale(0.11 -0.11)">
       <use xlink:href="#DejaVuSans-48"/>
       <use x="63.623047" xlink:href="#DejaVuSans-46"/>
       <use x="95.410156" xlink:href="#DejaVuSans-48"/>
       <use x="159.033203" xlink:href="#DejaVuSans-48"/>
       <use x="222.65625" xlink:href="#DejaVuSans-53"/>
      </g>
     </g>
    </g>
    <g id="ytick_3">
     <g id="line2d_10">
      <path clip-path="url(#p3778d3233d)" d="M 48.190938 114.905706 
L 847.579192 114.905706 
" style="fill:none;stroke:#ffffff;stroke-linecap:round;"/>
     </g>
     <g id="text_11">
      <!-- 0.010 -->
      <g style="fill:#262626;" transform="translate(7.2 119.084847)scale(0.11 -0.11)">
       <use xlink:href="#DejaVuSans-48"/>
       <use x="63.623047" xlink:href="#DejaVuSans-46"/>
       <use x="95.410156" xlink:href="#DejaVuSans-48"/>
       <use x="159.033203" xlink:href="#DejaVuSans-49"/>
       <use x="222.65625" xlink:href="#DejaVuSans-48"/>
      </g>
     </g>
    </g>
    <g id="ytick_4">
     <g id="line2d_11">
      <path clip-path="url(#p3778d3233d)" d="M 48.190938 89.808559 
L 847.579192 89.808559 
" style="fill:none;stroke:#ffffff;stroke-linecap:round;"/>
     </g>
     <g id="text_12">
      <!-- 0.015 -->
      <g style="fill:#262626;" transform="translate(7.2 93.9877)scale(0.11 -0.11)">
       <use xlink:href="#DejaVuSans-48"/>
       <use x="63.623047" xlink:href="#DejaVuSans-46"/>
       <use x="95.410156" xlink:href="#DejaVuSans-48"/>
       <use x="159.033203" xlink:href="#DejaVuSans-49"/>
       <use x="222.65625" xlink:href="#DejaVuSans-53"/>
      </g>
     </g>
    </g>
    <g id="ytick_5">
     <g id="line2d_12">
      <path clip-path="url(#p3778d3233d)" d="M 48.190938 64.711412 
L 847.579192 64.711412 
" style="fill:none;stroke:#ffffff;stroke-linecap:round;"/>
     </g>
     <g id="text_13">
      <!-- 0.020 -->
      <g style="fill:#262626;" transform="translate(7.2 68.890553)scale(0.11 -0.11)">
       <use xlink:href="#DejaVuSans-48"/>
       <use x="63.623047" xlink:href="#DejaVuSans-46"/>
       <use x="95.410156" xlink:href="#DejaVuSans-48"/>
       <use x="159.033203" xlink:href="#DejaVuSans-50"/>
       <use x="222.65625" xlink:href="#DejaVuSans-48"/>
      </g>
     </g>
    </g>
    <g id="ytick_6">
     <g id="line2d_13">
      <path clip-path="url(#p3778d3233d)" d="M 48.190938 39.614265 
L 847.579192 39.614265 
" style="fill:none;stroke:#ffffff;stroke-linecap:round;"/>
     </g>
     <g id="text_14">
      <!-- 0.025 -->
      <g style="fill:#262626;" transform="translate(7.2 43.793406)scale(0.11 -0.11)">
       <use xlink:href="#DejaVuSans-48"/>
       <use x="63.623047" xlink:href="#DejaVuSans-46"/>
       <use x="95.410156" xlink:href="#DejaVuSans-48"/>
       <use x="159.033203" xlink:href="#DejaVuSans-50"/>
       <use x="222.65625" xlink:href="#DejaVuSans-53"/>
      </g>
     </g>
    </g>
    <g id="ytick_7">
     <g id="line2d_14">
      <path clip-path="url(#p3778d3233d)" d="M 48.190938 14.517118 
L 847.579192 14.517118 
" style="fill:none;stroke:#ffffff;stroke-linecap:round;"/>
     </g>
     <g id="text_15">
      <!-- 0.030 -->
      <g style="fill:#262626;" transform="translate(7.2 18.696259)scale(0.11 -0.11)">
       <use xlink:href="#DejaVuSans-48"/>
       <use x="63.623047" xlink:href="#DejaVuSans-46"/>
       <use x="95.410156" xlink:href="#DejaVuSans-48"/>
       <use x="159.033203" xlink:href="#DejaVuSans-51"/>
       <use x="222.65625" xlink:href="#DejaVuSans-48"/>
      </g>
     </g>
    </g>
   </g>
   <g id="PolyCollection_1">
    <path clip-path="url(#p3778d3233d)" d="M -662.383853 164.975698 
L -662.383853 165.1 
L -620.026466 165.1 
L -577.669079 165.1 
L -535.311693 165.1 
L -492.954306 165.1 
L -450.596919 165.1 
L -408.239533 165.1 
L -365.882146 165.1 
L -323.524759 165.1 
L -281.167373 165.1 
L -238.809986 165.1 
L -196.452599 165.1 
L -154.095213 165.1 
L -111.737826 165.1 
L -69.380439 165.1 
L -27.023053 165.1 
L 15.334334 165.1 
L 57.69172 165.1 
L 100.049107 165.1 
L 142.406494 165.1 
L 184.76388 165.1 
L 227.121267 165.1 
L 269.478654 165.1 
L 311.83604 165.1 
L 354.193427 165.1 
L 396.550814 165.1 
L 438.9082 165.1 
L 481.265587 165.1 
L 523.622974 165.1 
L 565.98036 165.1 
L 608.337747 165.1 
L 650.695134 165.1 
L 693.05252 165.1 
L 735.409907 165.1 
L 777.767294 165.1 
L 820.12468 165.1 
L 862.482067 165.1 
L 904.839453 165.1 
L 947.19684 165.1 
L 989.554227 165.1 
L 1031.911613 165.1 
L 1074.269 165.1 
L 1116.626387 165.1 
L 1158.983773 165.1 
L 1201.34116 165.1 
L 1243.698547 165.1 
L 1286.055933 165.1 
L 1328.41332 165.1 
L 1370.770707 165.1 
L 1413.128093 165.1 
L 1455.48548 165.1 
L 1497.842867 165.1 
L 1540.200253 165.1 
L 1582.55764 165.1 
L 1624.915027 165.1 
L 1667.272413 165.1 
L 1709.6298 165.1 
L 1751.987186 165.1 
L 1794.344573 165.1 
L 1836.70196 165.1 
L 1879.059346 165.1 
L 1921.416733 165.1 
L 1963.77412 165.1 
L 2006.131506 165.1 
L 2048.488893 165.1 
L 2090.84628 165.1 
L 2133.203666 165.1 
L 2175.561053 165.1 
L 2217.91844 165.1 
L 2260.275826 165.1 
L 2302.633213 165.1 
L 2344.9906 165.1 
L 2387.347986 165.1 
L 2429.705373 165.1 
L 2472.062759 165.1 
L 2514.420146 165.1 
L 2556.777533 165.1 
L 2599.134919 165.1 
L 2641.492306 165.1 
L 2683.849693 165.1 
L 2726.207079 165.1 
L 2768.564466 165.1 
L 2810.921853 165.1 
L 2853.279239 165.1 
L 2895.636626 165.1 
L 2937.994013 165.1 
L 2980.351399 165.1 
L 3022.708786 165.1 
L 3065.066173 165.1 
L 3107.423559 165.1 
L 3149.780946 165.1 
L 3192.138333 165.1 
L 3234.495719 165.1 
L 3276.853106 165.1 
L 3319.210492 165.1 
L 3361.567879 165.1 
L 3403.925266 165.1 
L 3446.282652 165.1 
L 3488.640039 165.1 
L 3530.997426 165.1 
L 3573.354812 165.1 
L 3615.712199 165.1 
L 3658.069586 165.1 
L 3700.426972 165.1 
L 3742.784359 165.1 
L 3785.141746 165.1 
L 3827.499132 165.1 
L 3869.856519 165.1 
L 3912.213906 165.1 
L 3954.571292 165.1 
L 3996.928679 165.1 
L 4039.286065 165.1 
L 4081.643452 165.1 
L 4124.000839 165.1 
L 4166.358225 165.1 
L 4208.715612 165.1 
L 4251.072999 165.1 
L 4293.430385 165.1 
L 4335.787772 165.1 
L 4378.145159 165.1 
L 4420.502545 165.1 
L 4462.859932 165.1 
L 4505.217319 165.1 
L 4547.574705 165.1 
L 4589.932092 165.1 
L 4632.289479 165.1 
L 4674.646865 165.1 
L 4717.004252 165.1 
L 4759.361639 165.1 
L 4801.719025 165.1 
L 4844.076412 165.1 
L 4886.433798 165.1 
L 4928.791185 165.1 
L 4971.148572 165.1 
L 5013.505958 165.1 
L 5055.863345 165.1 
L 5098.220732 165.1 
L 5140.578118 165.1 
L 5182.935505 165.1 
L 5225.292892 165.1 
L 5267.650278 165.1 
L 5310.007665 165.1 
L 5352.365052 165.1 
L 5394.722438 165.1 
L 5437.079825 165.1 
L 5479.437212 165.1 
L 5521.794598 165.1 
L 5564.151985 165.1 
L 5606.509371 165.1 
L 5648.866758 165.1 
L 5691.224145 165.1 
L 5733.581531 165.1 
L 5775.938918 165.1 
L 5818.296305 165.1 
L 5860.653691 165.1 
L 5903.011078 165.1 
L 5945.368465 165.1 
L 5987.725851 165.1 
L 6030.083238 165.1 
L 6072.440625 165.1 
L 6114.798011 165.1 
L 6157.155398 165.1 
L 6199.512785 165.1 
L 6241.870171 165.1 
L 6284.227558 165.1 
L 6326.584945 165.1 
L 6368.942331 165.1 
L 6411.299718 165.1 
L 6453.657104 165.1 
L 6496.014491 165.1 
L 6538.371878 165.1 
L 6580.729264 165.1 
L 6623.086651 165.1 
L 6665.444038 165.1 
L 6707.801424 165.1 
L 6750.158811 165.1 
L 6792.516198 165.1 
L 6834.873584 165.1 
L 6877.230971 165.1 
L 6919.588358 165.1 
L 6961.945744 165.1 
L 7004.303131 165.1 
L 7046.660518 165.1 
L 7089.017904 165.1 
L 7131.375291 165.1 
L 7173.732677 165.1 
L 7216.090064 165.1 
L 7258.447451 165.1 
L 7300.804837 165.1 
L 7343.162224 165.1 
L 7385.519611 165.1 
L 7427.876997 165.1 
L 7470.234384 165.1 
L 7512.591771 165.1 
L 7554.949157 165.1 
L 7597.306544 165.1 
L 7639.663931 165.1 
L 7682.021317 165.1 
L 7724.378704 165.1 
L 7766.736091 165.1 
L 7766.736091 165.090878 
L 7766.736091 165.090878 
L 7724.378704 165.084645 
L 7682.021317 165.074966 
L 7639.663931 165.060465 
L 7597.306544 165.039521 
L 7554.949157 165.010376 
L 7512.591771 164.971331 
L 7470.234384 164.921023 
L 7427.876997 164.85876 
L 7385.519611 164.784853 
L 7343.162224 164.700889 
L 7300.804837 164.609843 
L 7258.447451 164.515975 
L 7216.090064 164.424473 
L 7173.732677 164.340878 
L 7131.375291 164.270366 
L 7089.017904 164.217024 
L 7046.660518 164.183284 
L 7004.303131 164.169632 
L 6961.945744 164.174666 
L 6919.588358 164.195477 
L 6877.230971 164.228267 
L 6834.873584 164.269025 
L 6792.516198 164.314101 
L 6750.158811 164.360563 
L 6707.801424 164.406252 
L 6665.444038 164.449595 
L 6623.086651 164.489265 
L 6580.729264 164.523843 
L 6538.371878 164.551596 
L 6496.014491 164.570479 
L 6453.657104 164.578355 
L 6411.299718 164.573396 
L 6368.942331 164.554545 
L 6326.584945 164.52192 
L 6284.227558 164.477046 
L 6241.870171 164.422846 
L 6199.512785 164.36338 
L 6157.155398 164.303382 
L 6114.798011 164.247692 
L 6072.440625 164.200685 
L 6030.083238 164.165818 
L 5987.725851 164.145367 
L 5945.368465 164.140365 
L 5903.011078 164.150742 
L 5860.653691 164.175579 
L 5818.296305 164.213403 
L 5775.938918 164.262442 
L 5733.581531 164.320793 
L 5691.224145 164.386498 
L 5648.866758 164.457539 
L 5606.509371 164.531815 
L 5564.151985 164.607138 
L 5521.794598 164.681291 
L 5479.437212 164.752133 
L 5437.079825 164.817761 
L 5394.722438 164.876662 
L 5352.365052 164.927833 
L 5310.007665 164.970834 
L 5267.650278 165.005767 
L 5225.292892 165.033192 
L 5182.935505 165.053983 
L 5140.578118 165.069191 
L 5098.220732 165.079891 
L 5055.863345 165.087071 
L 5013.505958 165.091544 
L 4971.148572 165.093887 
L 4928.791185 165.0944 
L 4886.433798 165.093067 
L 4844.076412 165.089514 
L 4801.719025 165.082973 
L 4759.361639 165.072229 
L 4717.004252 165.055608 
L 4674.646865 165.031 
L 4632.289479 164.995968 
L 4589.932092 164.947965 
L 4547.574705 164.884675 
L 4505.217319 164.804462 
L 4462.859932 164.706879 
L 4420.502545 164.593154 
L 4378.145159 164.466529 
L 4335.787772 164.332337 
L 4293.430385 164.197739 
L 4251.072999 164.071072 
L 4208.715612 163.960887 
L 4166.358225 163.874817 
L 4124.000839 163.818486 
L 4081.643452 163.794695 
L 4039.286065 163.803055 
L 3996.928679 163.840164 
L 3954.571292 163.900294 
L 3912.213906 163.976406 
L 3869.856519 164.061283 
L 3827.499132 164.148506 
L 3785.141746 164.233079 
L 3742.784359 164.311607 
L 3700.426972 164.382034 
L 3658.069586 164.44309 
L 3615.712199 164.493621 
L 3573.354812 164.532015 
L 3530.997426 164.555891 
L 3488.640039 164.56214 
L 3446.282652 164.547324 
L 3403.925266 164.508356 
L 3361.567879 164.443334 
L 3319.210492 164.352348 
L 3276.853106 164.238085 
L 3234.495719 164.106092 
L 3192.138333 163.964576 
L 3149.780946 163.823724 
L 3107.423559 163.694581 
L 3065.066173 163.587638 
L 3022.708786 163.511319 
L 2980.351399 163.470616 
L 2937.994013 163.466095 
L 2895.636626 163.49343 
L 2853.279239 163.543549 
L 2810.921853 163.60334 
L 2768.564466 163.656787 
L 2726.207079 163.68635 
L 2683.849693 163.67439 
L 2641.492306 163.604478 
L 2599.134919 163.462516 
L 2556.777533 163.237639 
L 2514.420146 162.922959 
L 2472.062759 162.516182 
L 2429.705373 162.020147 
L 2387.347986 161.44324 
L 2344.9906 160.7996 
L 2302.633213 160.108956 
L 2260.275826 159.395947 
L 2217.91844 158.688799 
L 2175.561053 158.017313 
L 2133.203666 157.41025 
L 2090.84628 156.892338 
L 2048.488893 156.481266 
L 2006.131506 156.185104 
L 1963.77412 156.000624 
L 1921.416733 155.912927 
L 1879.059346 155.896573 
L 1836.70196 155.918204 
L 1794.344573 155.940311 
L 1751.987186 155.925548 
L 1709.6298 155.840829 
L 1667.272413 155.660401 
L 1624.915027 155.367255 
L 1582.55764 154.95252 
L 1540.200253 154.412912 
L 1497.842867 153.746723 
L 1455.48548 152.949165 
L 1413.128093 152.008116 
L 1370.770707 150.901266 
L 1328.41332 149.595467 
L 1286.055933 148.048677 
L 1243.698547 146.21435 
L 1201.34116 144.047554 
L 1158.983773 141.511544 
L 1116.626387 138.583153 
L 1074.269 135.255244 
L 1031.911613 131.534799 
L 989.554227 127.435936 
L 947.19684 122.968456 
L 904.839453 118.123993 
L 862.482067 112.863424 
L 820.12468 107.110234 
L 777.767294 100.754569 
L 735.409907 93.67146 
L 693.05252 85.753852 
L 650.695134 76.957253 
L 608.337747 67.34855 
L 565.98036 57.14824 
L 523.622974 46.753999 
L 481.265587 36.735194 
L 438.9082 27.792721 
L 396.550814 20.68577 
L 354.193427 16.135093 
L 311.83604 14.719048 
L 269.478654 16.782073 
L 227.121267 22.374071 
L 184.76388 31.233411 
L 142.406494 42.817308 
L 100.049107 56.373429 
L 57.69172 71.038334 
L 15.334334 85.943879 
L -27.023053 100.312797 
L -69.380439 113.528961 
L -111.737826 125.174743 
L -154.095213 135.035311 
L -196.452599 143.075877 
L -238.809986 149.401492 
L -281.167373 154.209807 
L -323.524759 157.745728 
L -365.882146 160.264018 
L -408.239533 162.002694 
L -450.596919 163.167388 
L -492.954306 163.924936 
L -535.311693 164.403675 
L -577.669079 164.697792 
L -620.026466 164.873533 
L -662.383853 164.975698 
z
" style="fill:#4c72b0;fill-opacity:0.25;stroke:#4c72b0;"/>
   </g>
   <g id="PolyCollection_2">
    <path clip-path="url(#p3778d3233d)" d="M -1609.132206 165.005809 
L -1609.132206 165.1 
L -1523.874362 165.1 
L -1438.616517 165.1 
L -1353.358672 165.1 
L -1268.100827 165.1 
L -1182.842982 165.1 
L -1097.585138 165.1 
L -1012.327293 165.1 
L -927.069448 165.1 
L -841.811603 165.1 
L -756.553758 165.1 
L -671.295914 165.1 
L -586.038069 165.1 
L -500.780224 165.1 
L -415.522379 165.1 
L -330.264534 165.1 
L -245.00669 165.1 
L -159.748845 165.1 
L -74.491 165.1 
L 10.766845 165.1 
L 96.02469 165.1 
L 181.282534 165.1 
L 266.540379 165.1 
L 351.798224 165.1 
L 437.056069 165.1 
L 522.313914 165.1 
L 607.571758 165.1 
L 692.829603 165.1 
L 778.087448 165.1 
L 863.345293 165.1 
L 948.603138 165.1 
L 1033.860982 165.1 
L 1119.118827 165.1 
L 1204.376672 165.1 
L 1289.634517 165.1 
L 1374.892362 165.1 
L 1460.150206 165.1 
L 1545.408051 165.1 
L 1630.665896 165.1 
L 1715.923741 165.1 
L 1801.181586 165.1 
L 1886.43943 165.1 
L 1971.697275 165.1 
L 2056.95512 165.1 
L 2142.212965 165.1 
L 2227.47081 165.1 
L 2312.728654 165.1 
L 2397.986499 165.1 
L 2483.244344 165.1 
L 2568.502189 165.1 
L 2653.760034 165.1 
L 2739.017878 165.1 
L 2824.275723 165.1 
L 2909.533568 165.1 
L 2994.791413 165.1 
L 3080.049258 165.1 
L 3165.307102 165.1 
L 3250.564947 165.1 
L 3335.822792 165.1 
L 3421.080637 165.1 
L 3506.338482 165.1 
L 3591.596327 165.1 
L 3676.854171 165.1 
L 3762.112016 165.1 
L 3847.369861 165.1 
L 3932.627706 165.1 
L 4017.885551 165.1 
L 4103.143395 165.1 
L 4188.40124 165.1 
L 4273.659085 165.1 
L 4358.91693 165.1 
L 4444.174775 165.1 
L 4529.432619 165.1 
L 4614.690464 165.1 
L 4699.948309 165.1 
L 4785.206154 165.1 
L 4870.463999 165.1 
L 4955.721843 165.1 
L 5040.979688 165.1 
L 5126.237533 165.1 
L 5211.495378 165.1 
L 5296.753223 165.1 
L 5382.011067 165.1 
L 5467.268912 165.1 
L 5552.526757 165.1 
L 5637.784602 165.1 
L 5723.042447 165.1 
L 5808.300291 165.1 
L 5893.558136 165.1 
L 5978.815981 165.1 
L 6064.073826 165.1 
L 6149.331671 165.1 
L 6234.589515 165.1 
L 6319.84736 165.1 
L 6405.105205 165.1 
L 6490.36305 165.1 
L 6575.620895 165.1 
L 6660.878739 165.1 
L 6746.136584 165.1 
L 6831.394429 165.1 
L 6916.652274 165.1 
L 7001.910119 165.1 
L 7087.167963 165.1 
L 7172.425808 165.1 
L 7257.683653 165.1 
L 7342.941498 165.1 
L 7428.199343 165.1 
L 7513.457187 165.1 
L 7598.715032 165.1 
L 7683.972877 165.1 
L 7769.230722 165.1 
L 7854.488567 165.1 
L 7939.746411 165.1 
L 8025.004256 165.1 
L 8110.262101 165.1 
L 8195.519946 165.1 
L 8280.777791 165.1 
L 8366.035635 165.1 
L 8451.29348 165.1 
L 8536.551325 165.1 
L 8621.80917 165.1 
L 8707.067015 165.1 
L 8792.324859 165.1 
L 8877.582704 165.1 
L 8962.840549 165.1 
L 9048.098394 165.1 
L 9133.356239 165.1 
L 9218.614084 165.1 
L 9303.871928 165.1 
L 9389.129773 165.1 
L 9474.387618 165.1 
L 9559.645463 165.1 
L 9644.903308 165.1 
L 9730.161152 165.1 
L 9815.418997 165.1 
L 9900.676842 165.1 
L 9985.934687 165.1 
L 10071.192532 165.1 
L 10156.450376 165.1 
L 10241.708221 165.1 
L 10326.966066 165.1 
L 10412.223911 165.1 
L 10497.481756 165.1 
L 10582.7396 165.1 
L 10667.997445 165.1 
L 10753.25529 165.1 
L 10838.513135 165.1 
L 10923.77098 165.1 
L 11009.028824 165.1 
L 11094.286669 165.1 
L 11179.544514 165.1 
L 11264.802359 165.1 
L 11350.060204 165.1 
L 11435.318048 165.1 
L 11520.575893 165.1 
L 11605.833738 165.1 
L 11691.091583 165.1 
L 11776.349428 165.1 
L 11861.607272 165.1 
L 11946.865117 165.1 
L 12032.122962 165.1 
L 12117.380807 165.1 
L 12202.638652 165.1 
L 12287.896496 165.1 
L 12373.154341 165.1 
L 12458.412186 165.1 
L 12543.670031 165.1 
L 12628.927876 165.1 
L 12714.18572 165.1 
L 12799.443565 165.1 
L 12884.70141 165.1 
L 12969.959255 165.1 
L 13055.2171 165.1 
L 13140.474944 165.1 
L 13225.732789 165.1 
L 13310.990634 165.1 
L 13396.248479 165.1 
L 13481.506324 165.1 
L 13566.764168 165.1 
L 13652.022013 165.1 
L 13737.279858 165.1 
L 13822.537703 165.1 
L 13907.795548 165.1 
L 13993.053392 165.1 
L 14078.311237 165.1 
L 14163.569082 165.1 
L 14248.826927 165.1 
L 14334.084772 165.1 
L 14419.342616 165.1 
L 14504.600461 165.1 
L 14589.858306 165.1 
L 14675.116151 165.1 
L 14760.373996 165.1 
L 14845.631841 165.1 
L 14930.889685 165.1 
L 15016.14753 165.1 
L 15101.405375 165.1 
L 15186.66322 165.1 
L 15271.921065 165.1 
L 15357.178909 165.1 
L 15357.178909 165.090588 
L 15357.178909 165.090588 
L 15271.921065 165.085223 
L 15186.66322 165.077346 
L 15101.405375 165.066088 
L 15016.14753 165.050429 
L 14930.889685 165.029246 
L 14845.631841 165.001387 
L 14760.373996 164.965794 
L 14675.116151 164.921652 
L 14589.858306 164.868571 
L 14504.600461 164.806759 
L 14419.342616 164.737183 
L 14334.084772 164.661664 
L 14248.826927 164.582891 
L 14163.569082 164.504319 
L 14078.311237 164.429959 
L 13993.053392 164.364055 
L 13907.795548 164.310695 
L 13822.537703 164.273389 
L 13737.279858 164.254695 
L 13652.022013 164.255923 
L 13566.764168 164.276987 
L 13481.506324 164.316412 
L 13396.248479 164.371508 
L 13310.990634 164.43867 
L 13225.732789 164.513771 
L 13140.474944 164.592574 
L 13055.2171 164.671121 
L 12969.959255 164.746041 
L 12884.70141 164.814749 
L 12799.443565 164.875531 
L 12714.18572 164.927518 
L 12628.927876 164.970585 
L 12543.670031 165.005183 
L 12458.412186 165.032167 
L 12373.154341 165.052614 
L 12287.896496 165.067676 
L 12202.638652 165.07847 
L 12117.380807 165.085997 
L 12032.122962 165.091107 
L 11946.865117 165.094485 
L 11861.607272 165.09666 
L 11776.349428 165.098025 
L 11691.091583 165.09886 
L 11605.833738 165.099357 
L 11520.575893 165.099646 
L 11435.318048 165.09981 
L 11350.060204 165.0999 
L 11264.802359 165.099949 
L 11179.544514 165.099974 
L 11094.286669 165.099987 
L 11009.028824 165.099994 
L 10923.77098 165.099997 
L 10838.513135 165.099999 
L 10753.25529 165.099999 
L 10667.997445 165.1 
L 10582.7396 165.1 
L 10497.481756 165.1 
L 10412.223911 165.1 
L 10326.966066 165.1 
L 10241.708221 165.1 
L 10156.450376 165.1 
L 10071.192532 165.1 
L 9985.934687 165.099999 
L 9900.676842 165.099998 
L 9815.418997 165.099996 
L 9730.161152 165.099991 
L 9644.903308 165.099982 
L 9559.645463 165.099963 
L 9474.387618 165.099926 
L 9389.129773 165.099856 
L 9303.871928 165.099727 
L 9218.614084 165.099492 
L 9133.356239 165.099079 
L 9048.098394 165.098368 
L 8962.840549 165.097176 
L 8877.582704 165.095226 
L 8792.324859 165.092119 
L 8707.067015 165.087291 
L 8621.80917 165.079982 
L 8536.551325 165.0692 
L 8451.29348 165.053704 
L 8366.035635 165.032014 
L 8280.777791 165.002452 
L 8195.519946 164.963231 
L 8110.262101 164.912594 
L 8025.004256 164.848999 
L 7939.746411 164.771338 
L 7854.488567 164.679169 
L 7769.230722 164.572916 
L 7683.972877 164.454013 
L 7598.715032 164.32494 
L 7513.457187 164.18913 
L 7428.199343 164.05074 
L 7342.941498 163.914289 
L 7257.683653 163.784224 
L 7172.425808 163.664455 
L 7087.167963 163.557949 
L 7001.910119 163.46645 
L 6916.652274 163.390377 
L 6831.394429 163.328934 
L 6746.136584 163.280402 
L 6660.878739 163.24258 
L 6575.620895 163.213291 
L 6490.36305 163.190853 
L 6405.105205 163.17444 
L 6319.84736 163.164256 
L 6234.589515 163.161494 
L 6149.331671 163.168074 
L 6064.073826 163.18622 
L 5978.815981 163.217925 
L 5893.558136 163.264398 
L 5808.300291 163.32558 
L 5723.042447 163.399795 
L 5637.784602 163.483597 
L 5552.526757 163.571827 
L 5467.268912 163.657868 
L 5382.011067 163.734095 
L 5296.753223 163.792429 
L 5211.495378 163.824973 
L 5126.237533 163.824634 
L 5040.979688 163.785696 
L 4955.721843 163.704268 
L 4870.463999 163.57859 
L 4785.206154 163.409159 
L 4699.948309 163.198672 
L 4614.690464 162.951797 
L 4529.432619 162.674784 
L 4444.174775 162.37496 
L 4358.91693 162.060138 
L 4273.659085 161.738001 
L 4188.40124 161.415486 
L 4103.143395 161.098237 
L 4017.885551 160.790132 
L 3932.627706 160.492933 
L 3847.369861 160.206044 
L 3762.112016 159.926408 
L 3676.854171 159.648523 
L 3591.596327 159.364601 
L 3506.338482 159.064866 
L 3421.080637 158.738028 
L 3335.822792 158.371935 
L 3250.564947 157.954415 
L 3165.307102 157.474294 
L 3080.049258 156.922502 
L 2994.791413 156.293167 
L 2909.533568 155.584529 
L 2824.275723 154.79948 
L 2739.017878 153.945566 
L 2653.760034 153.034301 
L 2568.502189 152.079752 
L 2483.244344 151.096463 
L 2397.986499 150.096876 
L 2312.728654 149.088539 
L 2227.47081 148.071439 
L 2142.212965 147.035808 
L 2056.95512 145.960772 
L 1971.697275 144.814106 
L 1886.43943 143.553337 
L 1801.181586 142.128309 
L 1715.923741 140.485233 
L 1630.665896 138.572145 
L 1545.408051 136.345504 
L 1460.150206 133.777519 
L 1374.892362 130.863567 
L 1289.634517 127.628881 
L 1204.376672 124.13355 
L 1119.118827 120.474833 
L 1033.860982 116.785912 
L 948.603138 113.230532 
L 863.345293 109.993403 
L 778.087448 107.266886 
L 692.829603 105.235056 
L 607.571758 104.056804 
L 522.313914 103.849967 
L 437.056069 104.678544 
L 351.798224 106.544776 
L 266.540379 109.387288 
L 181.282534 113.085703 
L 96.02469 117.471198 
L 10.766845 122.341688 
L -74.491 127.479664 
L -159.748845 132.670429 
L -245.00669 137.718565 
L -330.264534 142.460839 
L -415.522379 146.774454 
L -500.780224 150.580263 
L -586.038069 153.841342 
L -671.295914 156.557819 
L -756.553758 158.759262 
L -841.811603 160.495945 
L -927.069448 161.830234 
L -1012.327293 162.828989 
L -1097.585138 163.557577 
L -1182.842982 164.075695 
L -1268.100827 164.434942 
L -1353.358672 164.677855 
L -1438.616517 164.838058 
L -1523.874362 164.941123 
L -1609.132206 165.005809 
z
" style="fill:#dd8452;fill-opacity:0.25;stroke:#dd8452;"/>
   </g>
   <g id="patch_3">
    <path d="M 48.190938 165.1 
L 48.190938 7.2 
" style="fill:none;stroke:#ffffff;stroke-linecap:square;stroke-linejoin:miter;stroke-width:1.25;"/>
   </g>
   <g id="patch_4">
    <path d="M 48.190938 165.1 
L 847.579192 165.1 
" style="fill:none;stroke:#ffffff;stroke-linecap:square;stroke-linejoin:miter;stroke-width:1.25;"/>
   </g>
  </g>
  <g id="legend_1">
   <g id="text_16">
    <!-- Survived -->
    <g style="fill:#262626;" transform="translate(857.487817 91.195156)scale(0.12 -0.12)">
     <defs>
      <path d="M 53.515625 70.515625 
L 53.515625 60.890625 
Q 47.90625 63.578125 42.921875 64.890625 
Q 37.9375 66.21875 33.296875 66.21875 
Q 25.25 66.21875 20.875 63.09375 
Q 16.5 59.96875 16.5 54.203125 
Q 16.5 49.359375 19.40625 46.890625 
Q 22.3125 44.4375 30.421875 42.921875 
L 36.375 41.703125 
Q 47.40625 39.59375 52.65625 34.296875 
Q 57.90625 29 57.90625 20.125 
Q 57.90625 9.515625 50.796875 4.046875 
Q 43.703125 -1.421875 29.984375 -1.421875 
Q 24.8125 -1.421875 18.96875 -0.25 
Q 13.140625 0.921875 6.890625 3.21875 
L 6.890625 13.375 
Q 12.890625 10.015625 18.65625 8.296875 
Q 24.421875 6.59375 29.984375 6.59375 
Q 38.421875 6.59375 43.015625 9.90625 
Q 47.609375 13.234375 47.609375 19.390625 
Q 47.609375 24.75 44.3125 27.78125 
Q 41.015625 30.8125 33.5 32.328125 
L 27.484375 33.5 
Q 16.453125 35.6875 11.515625 40.375 
Q 6.59375 45.0625 6.59375 53.421875 
Q 6.59375 63.09375 13.40625 68.65625 
Q 20.21875 74.21875 32.171875 74.21875 
Q 37.3125 74.21875 42.625 73.28125 
Q 47.953125 72.359375 53.515625 70.515625 
z
" id="DejaVuSans-83"/>
      <path d="M 8.5 21.578125 
L 8.5 54.6875 
L 17.484375 54.6875 
L 17.484375 21.921875 
Q 17.484375 14.15625 20.5 10.265625 
Q 23.53125 6.390625 29.59375 6.390625 
Q 36.859375 6.390625 41.078125 11.03125 
Q 45.3125 15.671875 45.3125 23.6875 
L 45.3125 54.6875 
L 54.296875 54.6875 
L 54.296875 0 
L 45.3125 0 
L 45.3125 8.40625 
Q 42.046875 3.421875 37.71875 1 
Q 33.40625 -1.421875 27.6875 -1.421875 
Q 18.265625 -1.421875 13.375 4.4375 
Q 8.5 10.296875 8.5 21.578125 
z
M 31.109375 56 
z
" id="DejaVuSans-117"/>
      <path d="M 2.984375 54.6875 
L 12.5 54.6875 
L 29.59375 8.796875 
L 46.6875 54.6875 
L 56.203125 54.6875 
L 35.6875 0 
L 23.484375 0 
z
" id="DejaVuSans-118"/>
      <path d="M 9.421875 54.6875 
L 18.40625 54.6875 
L 18.40625 0 
L 9.421875 0 
z
M 9.421875 75.984375 
L 18.40625 75.984375 
L 18.40625 64.59375 
L 9.421875 64.59375 
z
" id="DejaVuSans-105"/>
      <path d="M 45.40625 46.390625 
L 45.40625 75.984375 
L 54.390625 75.984375 
L 54.390625 0 
L 45.40625 0 
L 45.40625 8.203125 
Q 42.578125 3.328125 38.25 0.953125 
Q 33.9375 -1.421875 27.875 -1.421875 
Q 17.96875 -1.421875 11.734375 6.484375 
Q 5.515625 14.40625 5.515625 27.296875 
Q 5.515625 40.1875 11.734375 48.09375 
Q 17.96875 56 27.875 56 
Q 33.9375 56 38.25 53.625 
Q 42.578125 51.265625 45.40625 46.390625 
z
M 14.796875 27.296875 
Q 14.796875 17.390625 18.875 11.75 
Q 22.953125 6.109375 30.078125 6.109375 
Q 37.203125 6.109375 41.296875 11.75 
Q 45.40625 17.390625 45.40625 27.296875 
Q 45.40625 37.203125 41.296875 42.84375 
Q 37.203125 48.484375 30.078125 48.484375 
Q 22.953125 48.484375 18.875 42.84375 
Q 14.796875 37.203125 14.796875 27.296875 
z
" id="DejaVuSans-100"/>
     </defs>
     <use xlink:href="#DejaVuSans-83"/>
     <use x="63.476562" xlink:href="#DejaVuSans-117"/>
     <use x="126.855469" xlink:href="#DejaVuSans-114"/>
     <use x="167.96875" xlink:href="#DejaVuSans-118"/>
     <use x="227.148438" xlink:href="#DejaVuSans-105"/>
     <use x="254.931641" xlink:href="#DejaVuSans-118"/>
     <use x="314.111328" xlink:href="#DejaVuSans-101"/>
     <use x="375.634766" xlink:href="#DejaVuSans-100"/>
    </g>
   </g>
   <g id="patch_5">
    <path d="M 864.936879 107.549062 
L 886.936879 107.549062 
L 886.936879 99.849062 
L 864.936879 99.849062 
z
" style="fill:#4c72b0;fill-opacity:0.25;stroke:#4c72b0;stroke-linejoin:miter;"/>
   </g>
   <g id="text_17">
    <!-- 0 -->
    <g style="fill:#262626;" transform="translate(895.736879 107.549062)scale(0.11 -0.11)">
     <use xlink:href="#DejaVuSans-48"/>
    </g>
   </g>
   <g id="patch_6">
    <path d="M 864.936879 123.695 
L 886.936879 123.695 
L 886.936879 115.995 
L 864.936879 115.995 
z
" style="fill:#dd8452;fill-opacity:0.25;stroke:#dd8452;stroke-linejoin:miter;"/>
   </g>
   <g id="text_18">
    <!-- 1 -->
    <g style="fill:#262626;" transform="translate(895.736879 123.695)scale(0.11 -0.11)">
     <use xlink:href="#DejaVuSans-49"/>
    </g>
   </g>
  </g>
 </g>
 <defs>
  <clipPath id="p3778d3233d">
   <rect height="157.9" width="799.388254" x="48.190938" y="7.2"/>
  </clipPath>
 </defs>
</svg>
