<?xml version="1.0" encoding="utf-8" standalone="no"?>
<!DOCTYPE svg PUBLIC "-//W3C//DTD SVG 1.1//EN"
  "http://www.w3.org/Graphics/SVG/1.1/DTD/svg11.dtd">
<!-- Created with matplotlib (https://matplotlib.org/) -->
<svg height="208.059687pt" version="1.1" viewBox="0 0 920.584611 208.059687" width="920.584611pt" xmlns="http://www.w3.org/2000/svg" xmlns:xlink="http://www.w3.org/1999/xlink">
 <metadata>
  <rdf:RDF xmlns:cc="http://creativecommons.org/ns#" xmlns:dc="http://purl.org/dc/elements/1.1/" xmlns:rdf="http://www.w3.org/1999/02/22-rdf-syntax-ns#">
   <cc:Work>
    <dc:type rdf:resource="http://purl.org/dc/dcmitype/StillImage"/>
    <dc:date>2021-06-21T14:05:09.195449</dc:date>
    <dc:format>image/svg+xml</dc:format>
    <dc:creator>
     <cc:Agent>
      <dc:title>Matplotlib v3.3.4, https://matplotlib.org/</dc:title>
     </cc:Agent>
    </dc:creator>
   </cc:Work>
  </rdf:RDF>
 </metadata>
 <defs>
  <style type="text/css">*{stroke-linecap:butt;stroke-linejoin:round;}</style>
 </defs>
 <g id="figure_1">
  <g id="patch_1">
   <path d="M 0 208.059687 
L 920.584611 208.059687 
L 920.584611 0 
L 0 0 
z
" style="fill:none;"/>
  </g>
  <g id="axes_1">
   <g id="patch_2">
    <path d="M 41.192188 165.1 
L 848.079111 165.1 
L 848.079111 7.2 
L 41.192188 7.2 
z
" style="fill:#eaeaf2;"/>
   </g>
   <g id="matplotlib.axis_1">
    <g id="xtick_1">
     <g id="line2d_1">
      <path clip-path="url(#pec4aa4caf3)" d="M 41.192188 165.1 
L 41.192188 7.2 
" style="fill:none;stroke:#ffffff;stroke-linecap:round;"/>
     </g>
     <g id="text_1">
      <!-- 35 -->
      <g style="fill:#262626;" transform="translate(34.193438 182.958281)scale(0.11 -0.11)">
       <defs>
        <path d="M 40.578125 39.3125 
Q 47.65625 37.796875 51.625 33 
Q 55.609375 28.21875 55.609375 21.1875 
Q 55.609375 10.40625 48.1875 4.484375 
Q 40.765625 -1.421875 27.09375 -1.421875 
Q 22.515625 -1.421875 17.65625 -0.515625 
Q 12.796875 0.390625 7.625 2.203125 
L 7.625 11.71875 
Q 11.71875 9.328125 16.59375 8.109375 
Q 21.484375 6.890625 26.8125 6.890625 
Q 36.078125 6.890625 40.9375 10.546875 
Q 45.796875 14.203125 45.796875 21.1875 
Q 45.796875 27.640625 41.28125 31.265625 
Q 36.765625 34.90625 28.71875 34.90625 
L 20.21875 34.90625 
L 20.21875 43.015625 
L 29.109375 43.015625 
Q 36.375 43.015625 40.234375 45.921875 
Q 44.09375 48.828125 44.09375 54.296875 
Q 44.09375 59.90625 40.109375 62.90625 
Q 36.140625 65.921875 28.71875 65.921875 
Q 24.65625 65.921875 20.015625 65.03125 
Q 15.375 64.15625 9.8125 62.3125 
L 9.8125 71.09375 
Q 15.4375 72.65625 20.34375 73.4375 
Q 25.25 74.21875 29.59375 74.21875 
Q 40.828125 74.21875 47.359375 69.109375 
Q 53.90625 64.015625 53.90625 55.328125 
Q 53.90625 49.265625 50.4375 45.09375 
Q 46.96875 40.921875 40.578125 39.3125 
z
" id="DejaVuSans-51"/>
        <path d="M 10.796875 72.90625 
L 49.515625 72.90625 
L 49.515625 64.59375 
L 19.828125 64.59375 
L 19.828125 46.734375 
Q 21.96875 47.46875 24.109375 47.828125 
Q 26.265625 48.1875 28.421875 48.1875 
Q 40.625 48.1875 47.75 41.5 
Q 54.890625 34.8125 54.890625 23.390625 
Q 54.890625 11.625 47.5625 5.09375 
Q 40.234375 -1.421875 26.90625 -1.421875 
Q 22.3125 -1.421875 17.546875 -0.640625 
Q 12.796875 0.140625 7.71875 1.703125 
L 7.71875 11.625 
Q 12.109375 9.234375 16.796875 8.0625 
Q 21.484375 6.890625 26.703125 6.890625 
Q 35.15625 6.890625 40.078125 11.328125 
Q 45.015625 15.765625 45.015625 23.390625 
Q 45.015625 31 40.078125 35.4375 
Q 35.15625 39.890625 26.703125 39.890625 
Q 22.75 39.890625 18.8125 39.015625 
Q 14.890625 38.140625 10.796875 36.28125 
z
" id="DejaVuSans-53"/>
       </defs>
       <use xlink:href="#DejaVuSans-51"/>
       <use x="63.623047" xlink:href="#DejaVuSans-53"/>
      </g>
     </g>
    </g>
    <g id="xtick_2">
     <g id="line2d_2">
      <path clip-path="url(#pec4aa4caf3)" d="M 130.84629 165.1 
L 130.84629 7.2 
" style="fill:none;stroke:#ffffff;stroke-linecap:round;"/>
     </g>
     <g id="text_2">
      <!-- 40 -->
      <g style="fill:#262626;" transform="translate(123.84754 182.958281)scale(0.11 -0.11)">
       <defs>
        <path d="M 37.796875 64.3125 
L 12.890625 25.390625 
L 37.796875 25.390625 
z
M 35.203125 72.90625 
L 47.609375 72.90625 
L 47.609375 25.390625 
L 58.015625 25.390625 
L 58.015625 17.1875 
L 47.609375 17.1875 
L 47.609375 0 
L 37.796875 0 
L 37.796875 17.1875 
L 4.890625 17.1875 
L 4.890625 26.703125 
z
" id="DejaVuSans-52"/>
        <path d="M 31.78125 66.40625 
Q 24.171875 66.40625 20.328125 58.90625 
Q 16.5 51.421875 16.5 36.375 
Q 16.5 21.390625 20.328125 13.890625 
Q 24.171875 6.390625 31.78125 6.390625 
Q 39.453125 6.390625 43.28125 13.890625 
Q 47.125 21.390625 47.125 36.375 
Q 47.125 51.421875 43.28125 58.90625 
Q 39.453125 66.40625 31.78125 66.40625 
z
M 31.78125 74.21875 
Q 44.046875 74.21875 50.515625 64.515625 
Q 56.984375 54.828125 56.984375 36.375 
Q 56.984375 17.96875 50.515625 8.265625 
Q 44.046875 -1.421875 31.78125 -1.421875 
Q 19.53125 -1.421875 13.0625 8.265625 
Q 6.59375 17.96875 6.59375 36.375 
Q 6.59375 54.828125 13.0625 64.515625 
Q 19.53125 74.21875 31.78125 74.21875 
z
" id="DejaVuSans-48"/>
       </defs>
       <use xlink:href="#DejaVuSans-52"/>
       <use x="63.623047" xlink:href="#DejaVuSans-48"/>
      </g>
     </g>
    </g>
    <g id="xtick_3">
     <g id="line2d_3">
      <path clip-path="url(#pec4aa4caf3)" d="M 220.500393 165.1 
L 220.500393 7.2 
" style="fill:none;stroke:#ffffff;stroke-linecap:round;"/>
     </g>
     <g id="text_3">
      <!-- 45 -->
      <g style="fill:#262626;" transform="translate(213.501643 182.958281)scale(0.11 -0.11)">
       <use xlink:href="#DejaVuSans-52"/>
       <use x="63.623047" xlink:href="#DejaVuSans-53"/>
      </g>
     </g>
    </g>
    <g id="xtick_4">
     <g id="line2d_4">
      <path clip-path="url(#pec4aa4caf3)" d="M 310.154495 165.1 
L 310.154495 7.2 
" style="fill:none;stroke:#ffffff;stroke-linecap:round;"/>
     </g>
     <g id="text_4">
      <!-- 50 -->
      <g style="fill:#262626;" transform="translate(303.155745 182.958281)scale(0.11 -0.11)">
       <use xlink:href="#DejaVuSans-53"/>
       <use x="63.623047" xlink:href="#DejaVuSans-48"/>
      </g>
     </g>
    </g>
    <g id="xtick_5">
     <g id="line2d_5">
      <path clip-path="url(#pec4aa4caf3)" d="M 399.808598 165.1 
L 399.808598 7.2 
" style="fill:none;stroke:#ffffff;stroke-linecap:round;"/>
     </g>
     <g id="text_5">
      <!-- 55 -->
      <g style="fill:#262626;" transform="translate(392.809848 182.958281)scale(0.11 -0.11)">
       <use xlink:href="#DejaVuSans-53"/>
       <use x="63.623047" xlink:href="#DejaVuSans-53"/>
      </g>
     </g>
    </g>
    <g id="xtick_6">
     <g id="line2d_6">
      <path clip-path="url(#pec4aa4caf3)" d="M 489.4627 165.1 
L 489.4627 7.2 
" style="fill:none;stroke:#ffffff;stroke-linecap:round;"/>
     </g>
     <g id="text_6">
      <!-- 60 -->
      <g style="fill:#262626;" transform="translate(482.46395 182.958281)scale(0.11 -0.11)">
       <defs>
        <path d="M 33.015625 40.375 
Q 26.375 40.375 22.484375 35.828125 
Q 18.609375 31.296875 18.609375 23.390625 
Q 18.609375 15.53125 22.484375 10.953125 
Q 26.375 6.390625 33.015625 6.390625 
Q 39.65625 6.390625 43.53125 10.953125 
Q 47.40625 15.53125 47.40625 23.390625 
Q 47.40625 31.296875 43.53125 35.828125 
Q 39.65625 40.375 33.015625 40.375 
z
M 52.59375 71.296875 
L 52.59375 62.3125 
Q 48.875 64.0625 45.09375 64.984375 
Q 41.3125 65.921875 37.59375 65.921875 
Q 27.828125 65.921875 22.671875 59.328125 
Q 17.53125 52.734375 16.796875 39.40625 
Q 19.671875 43.65625 24.015625 45.921875 
Q 28.375 48.1875 33.59375 48.1875 
Q 44.578125 48.1875 50.953125 41.515625 
Q 57.328125 34.859375 57.328125 23.390625 
Q 57.328125 12.15625 50.6875 5.359375 
Q 44.046875 -1.421875 33.015625 -1.421875 
Q 20.359375 -1.421875 13.671875 8.265625 
Q 6.984375 17.96875 6.984375 36.375 
Q 6.984375 53.65625 15.1875 63.9375 
Q 23.390625 74.21875 37.203125 74.21875 
Q 40.921875 74.21875 44.703125 73.484375 
Q 48.484375 72.75 52.59375 71.296875 
z
" id="DejaVuSans-54"/>
       </defs>
       <use xlink:href="#DejaVuSans-54"/>
       <use x="63.623047" xlink:href="#DejaVuSans-48"/>
      </g>
     </g>
    </g>
    <g id="xtick_7">
     <g id="line2d_7">
      <path clip-path="url(#pec4aa4caf3)" d="M 579.116803 165.1 
L 579.116803 7.2 
" style="fill:none;stroke:#ffffff;stroke-linecap:round;"/>
     </g>
     <g id="text_7">
      <!-- 65 -->
      <g style="fill:#262626;" transform="translate(572.118053 182.958281)scale(0.11 -0.11)">
       <use xlink:href="#DejaVuSans-54"/>
       <use x="63.623047" xlink:href="#DejaVuSans-53"/>
      </g>
     </g>
    </g>
    <g id="xtick_8">
     <g id="line2d_8">
      <path clip-path="url(#pec4aa4caf3)" d="M 668.770906 165.1 
L 668.770906 7.2 
" style="fill:none;stroke:#ffffff;stroke-linecap:round;"/>
     </g>
     <g id="text_8">
      <!-- 70 -->
      <g style="fill:#262626;" transform="translate(661.772156 182.958281)scale(0.11 -0.11)">
       <defs>
        <path d="M 8.203125 72.90625 
L 55.078125 72.90625 
L 55.078125 68.703125 
L 28.609375 0 
L 18.3125 0 
L 43.21875 64.59375 
L 8.203125 64.59375 
z
" id="DejaVuSans-55"/>
       </defs>
       <use xlink:href="#DejaVuSans-55"/>
       <use x="63.623047" xlink:href="#DejaVuSans-48"/>
      </g>
     </g>
    </g>
    <g id="xtick_9">
     <g id="line2d_9">
      <path clip-path="url(#pec4aa4caf3)" d="M 758.425008 165.1 
L 758.425008 7.2 
" style="fill:none;stroke:#ffffff;stroke-linecap:round;"/>
     </g>
     <g id="text_9">
      <!-- 75 -->
      <g style="fill:#262626;" transform="translate(751.426258 182.958281)scale(0.11 -0.11)">
       <use xlink:href="#DejaVuSans-55"/>
       <use x="63.623047" xlink:href="#DejaVuSans-53"/>
      </g>
     </g>
    </g>
    <g id="xtick_10">
     <g id="line2d_10">
      <path clip-path="url(#pec4aa4caf3)" d="M 848.079111 165.1 
L 848.079111 7.2 
" style="fill:none;stroke:#ffffff;stroke-linecap:round;"/>
     </g>
     <g id="text_10">
      <!-- 80 -->
      <g style="fill:#262626;" transform="translate(841.080361 182.958281)scale(0.11 -0.11)">
       <defs>
        <path d="M 31.78125 34.625 
Q 24.75 34.625 20.71875 30.859375 
Q 16.703125 27.09375 16.703125 20.515625 
Q 16.703125 13.921875 20.71875 10.15625 
Q 24.75 6.390625 31.78125 6.390625 
Q 38.8125 6.390625 42.859375 10.171875 
Q 46.921875 13.96875 46.921875 20.515625 
Q 46.921875 27.09375 42.890625 30.859375 
Q 38.875 34.625 31.78125 34.625 
z
M 21.921875 38.8125 
Q 15.578125 40.375 12.03125 44.71875 
Q 8.5 49.078125 8.5 55.328125 
Q 8.5 64.0625 14.71875 69.140625 
Q 20.953125 74.21875 31.78125 74.21875 
Q 42.671875 74.21875 48.875 69.140625 
Q 55.078125 64.0625 55.078125 55.328125 
Q 55.078125 49.078125 51.53125 44.71875 
Q 48 40.375 41.703125 38.8125 
Q 48.828125 37.15625 52.796875 32.3125 
Q 56.78125 27.484375 56.78125 20.515625 
Q 56.78125 9.90625 50.3125 4.234375 
Q 43.84375 -1.421875 31.78125 -1.421875 
Q 19.734375 -1.421875 13.25 4.234375 
Q 6.78125 9.90625 6.78125 20.515625 
Q 6.78125 27.484375 10.78125 32.3125 
Q 14.796875 37.15625 21.921875 38.8125 
z
M 18.3125 54.390625 
Q 18.3125 48.734375 21.84375 45.5625 
Q 25.390625 42.390625 31.78125 42.390625 
Q 38.140625 42.390625 41.71875 45.5625 
Q 45.3125 48.734375 45.3125 54.390625 
Q 45.3125 60.0625 41.71875 63.234375 
Q 38.140625 66.40625 31.78125 66.40625 
Q 25.390625 66.40625 21.84375 63.234375 
Q 18.3125 60.0625 18.3125 54.390625 
z
" id="DejaVuSans-56"/>
       </defs>
       <use xlink:href="#DejaVuSans-56"/>
       <use x="63.623047" xlink:href="#DejaVuSans-48"/>
      </g>
     </g>
    </g>
    <g id="text_11">
     <!-- Age -->
     <g style="fill:#262626;" transform="translate(433.030337 198.364062)scale(0.12 -0.12)">
      <defs>
       <path d="M 34.1875 63.1875 
L 20.796875 26.90625 
L 47.609375 26.90625 
z
M 28.609375 72.90625 
L 39.796875 72.90625 
L 67.578125 0 
L 57.328125 0 
L 50.6875 18.703125 
L 17.828125 18.703125 
L 11.1875 0 
L 0.78125 0 
z
" id="DejaVuSans-65"/>
       <path d="M 45.40625 27.984375 
Q 45.40625 37.75 41.375 43.109375 
Q 37.359375 48.484375 30.078125 48.484375 
Q 22.859375 48.484375 18.828125 43.109375 
Q 14.796875 37.75 14.796875 27.984375 
Q 14.796875 18.265625 18.828125 12.890625 
Q 22.859375 7.515625 30.078125 7.515625 
Q 37.359375 7.515625 41.375 12.890625 
Q 45.40625 18.265625 45.40625 27.984375 
z
M 54.390625 6.78125 
Q 54.390625 -7.171875 48.1875 -13.984375 
Q 42 -20.796875 29.203125 -20.796875 
Q 24.46875 -20.796875 20.265625 -20.09375 
Q 16.0625 -19.390625 12.109375 -17.921875 
L 12.109375 -9.1875 
Q 16.0625 -11.328125 19.921875 -12.34375 
Q 23.78125 -13.375 27.78125 -13.375 
Q 36.625 -13.375 41.015625 -8.765625 
Q 45.40625 -4.15625 45.40625 5.171875 
L 45.40625 9.625 
Q 42.625 4.78125 38.28125 2.390625 
Q 33.9375 0 27.875 0 
Q 17.828125 0 11.671875 7.65625 
Q 5.515625 15.328125 5.515625 27.984375 
Q 5.515625 40.671875 11.671875 48.328125 
Q 17.828125 56 27.875 56 
Q 33.9375 56 38.28125 53.609375 
Q 42.625 51.21875 45.40625 46.390625 
L 45.40625 54.6875 
L 54.390625 54.6875 
z
" id="DejaVuSans-103"/>
       <path d="M 56.203125 29.59375 
L 56.203125 25.203125 
L 14.890625 25.203125 
Q 15.484375 15.921875 20.484375 11.0625 
Q 25.484375 6.203125 34.421875 6.203125 
Q 39.59375 6.203125 44.453125 7.46875 
Q 49.3125 8.734375 54.109375 11.28125 
L 54.109375 2.78125 
Q 49.265625 0.734375 44.1875 -0.34375 
Q 39.109375 -1.421875 33.890625 -1.421875 
Q 20.796875 -1.421875 13.15625 6.1875 
Q 5.515625 13.8125 5.515625 26.8125 
Q 5.515625 40.234375 12.765625 48.109375 
Q 20.015625 56 32.328125 56 
Q 43.359375 56 49.78125 48.890625 
Q 56.203125 41.796875 56.203125 29.59375 
z
M 47.21875 32.234375 
Q 47.125 39.59375 43.09375 43.984375 
Q 39.0625 48.390625 32.421875 48.390625 
Q 24.90625 48.390625 20.390625 44.140625 
Q 15.875 39.890625 15.1875 32.171875 
z
" id="DejaVuSans-101"/>
      </defs>
      <use xlink:href="#DejaVuSans-65"/>
      <use x="68.408203" xlink:href="#DejaVuSans-103"/>
      <use x="131.884766" xlink:href="#DejaVuSans-101"/>
     </g>
    </g>
   </g>
   <g id="matplotlib.axis_2">
    <g id="ytick_1">
     <g id="line2d_11">
      <path clip-path="url(#pec4aa4caf3)" d="M 41.192188 165.1 
L 848.079111 165.1 
" style="fill:none;stroke:#ffffff;stroke-linecap:round;"/>
     </g>
     <g id="text_12">
      <!-- 0.00 -->
      <g style="fill:#262626;" transform="translate(7.2 169.279141)scale(0.11 -0.11)">
       <defs>
        <path d="M 10.6875 12.40625 
L 21 12.40625 
L 21 0 
L 10.6875 0 
z
" id="DejaVuSans-46"/>
       </defs>
       <use xlink:href="#DejaVuSans-48"/>
       <use x="63.623047" xlink:href="#DejaVuSans-46"/>
       <use x="95.410156" xlink:href="#DejaVuSans-48"/>
       <use x="159.033203" xlink:href="#DejaVuSans-48"/>
      </g>
     </g>
    </g>
    <g id="ytick_2">
     <g id="line2d_12">
      <path clip-path="url(#pec4aa4caf3)" d="M 41.192188 130.779038 
L 848.079111 130.779038 
" style="fill:none;stroke:#ffffff;stroke-linecap:round;"/>
     </g>
     <g id="text_13">
      <!-- 0.01 -->
      <g style="fill:#262626;" transform="translate(7.2 134.958179)scale(0.11 -0.11)">
       <defs>
        <path d="M 12.40625 8.296875 
L 28.515625 8.296875 
L 28.515625 63.921875 
L 10.984375 60.40625 
L 10.984375 69.390625 
L 28.421875 72.90625 
L 38.28125 72.90625 
L 38.28125 8.296875 
L 54.390625 8.296875 
L 54.390625 0 
L 12.40625 0 
z
" id="DejaVuSans-49"/>
       </defs>
       <use xlink:href="#DejaVuSans-48"/>
       <use x="63.623047" xlink:href="#DejaVuSans-46"/>
       <use x="95.410156" xlink:href="#DejaVuSans-48"/>
       <use x="159.033203" xlink:href="#DejaVuSans-49"/>
      </g>
     </g>
    </g>
    <g id="ytick_3">
     <g id="line2d_13">
      <path clip-path="url(#pec4aa4caf3)" d="M 41.192188 96.458076 
L 848.079111 96.458076 
" style="fill:none;stroke:#ffffff;stroke-linecap:round;"/>
     </g>
     <g id="text_14">
      <!-- 0.02 -->
      <g style="fill:#262626;" transform="translate(7.2 100.637217)scale(0.11 -0.11)">
       <defs>
        <path d="M 19.1875 8.296875 
L 53.609375 8.296875 
L 53.609375 0 
L 7.328125 0 
L 7.328125 8.296875 
Q 12.9375 14.109375 22.625 23.890625 
Q 32.328125 33.6875 34.8125 36.53125 
Q 39.546875 41.84375 41.421875 45.53125 
Q 43.3125 49.21875 43.3125 52.78125 
Q 43.3125 58.59375 39.234375 62.25 
Q 35.15625 65.921875 28.609375 65.921875 
Q 23.96875 65.921875 18.8125 64.3125 
Q 13.671875 62.703125 7.8125 59.421875 
L 7.8125 69.390625 
Q 13.765625 71.78125 18.9375 73 
Q 24.125 74.21875 28.421875 74.21875 
Q 39.75 74.21875 46.484375 68.546875 
Q 53.21875 62.890625 53.21875 53.421875 
Q 53.21875 48.921875 51.53125 44.890625 
Q 49.859375 40.875 45.40625 35.40625 
Q 44.1875 33.984375 37.640625 27.21875 
Q 31.109375 20.453125 19.1875 8.296875 
z
" id="DejaVuSans-50"/>
       </defs>
       <use xlink:href="#DejaVuSans-48"/>
       <use x="63.623047" xlink:href="#DejaVuSans-46"/>
       <use x="95.410156" xlink:href="#DejaVuSans-48"/>
       <use x="159.033203" xlink:href="#DejaVuSans-50"/>
      </g>
     </g>
    </g>
    <g id="ytick_4">
     <g id="line2d_14">
      <path clip-path="url(#pec4aa4caf3)" d="M 41.192188 62.137114 
L 848.079111 62.137114 
" style="fill:none;stroke:#ffffff;stroke-linecap:round;"/>
     </g>
     <g id="text_15">
      <!-- 0.03 -->
      <g style="fill:#262626;" transform="translate(7.2 66.316255)scale(0.11 -0.11)">
       <use xlink:href="#DejaVuSans-48"/>
       <use x="63.623047" xlink:href="#DejaVuSans-46"/>
       <use x="95.410156" xlink:href="#DejaVuSans-48"/>
       <use x="159.033203" xlink:href="#DejaVuSans-51"/>
      </g>
     </g>
    </g>
    <g id="ytick_5">
     <g id="line2d_15">
      <path clip-path="url(#pec4aa4caf3)" d="M 41.192188 27.816153 
L 848.079111 27.816153 
" style="fill:none;stroke:#ffffff;stroke-linecap:round;"/>
     </g>
     <g id="text_16">
      <!-- 0.04 -->
      <g style="fill:#262626;" transform="translate(7.2 31.995293)scale(0.11 -0.11)">
       <use xlink:href="#DejaVuSans-48"/>
       <use x="63.623047" xlink:href="#DejaVuSans-46"/>
       <use x="95.410156" xlink:href="#DejaVuSans-48"/>
       <use x="159.033203" xlink:href="#DejaVuSans-52"/>
      </g>
     </g>
    </g>
   </g>
   <g id="PolyCollection_1">
    <path clip-path="url(#pec4aa4caf3)" d="M -761.107394 165.059344 
L -761.107394 165.1 
L -752.593559 165.1 
L -744.079723 165.1 
L -735.565888 165.1 
L -727.052052 165.1 
L -718.538217 165.1 
L -710.024381 165.1 
L -701.510546 165.1 
L -692.99671 165.1 
L -684.482875 165.1 
L -675.969039 165.1 
L -667.455204 165.1 
L -658.941368 165.1 
L -650.427533 165.1 
L -641.913697 165.1 
L -633.399862 165.1 
L -624.886026 165.1 
L -616.372191 165.1 
L -607.858355 165.1 
L -599.34452 165.1 
L -590.830684 165.1 
L -582.316849 165.1 
L -573.803013 165.1 
L -565.289178 165.1 
L -556.775342 165.1 
L -548.261507 165.1 
L -539.747671 165.1 
L -531.233836 165.1 
L -522.72 165.1 
L -514.206165 165.1 
L -505.692329 165.1 
L -497.178493 165.1 
L -488.664658 165.1 
L -480.150822 165.1 
L -471.636987 165.1 
L -463.123151 165.1 
L -454.609316 165.1 
L -446.09548 165.1 
L -437.581645 165.1 
L -429.067809 165.1 
L -420.553974 165.1 
L -412.040138 165.1 
L -403.526303 165.1 
L -395.012467 165.1 
L -386.498632 165.1 
L -377.984796 165.1 
L -369.470961 165.1 
L -360.957125 165.1 
L -352.44329 165.1 
L -343.929454 165.1 
L -335.415619 165.1 
L -326.901783 165.1 
L -318.387948 165.1 
L -309.874112 165.1 
L -301.360277 165.1 
L -292.846441 165.1 
L -284.332606 165.1 
L -275.81877 165.1 
L -267.304935 165.1 
L -258.791099 165.1 
L -250.277264 165.1 
L -241.763428 165.1 
L -233.249593 165.1 
L -224.735757 165.1 
L -216.221922 165.1 
L -207.708086 165.1 
L -199.194251 165.1 
L -190.680415 165.1 
L -182.16658 165.1 
L -173.652744 165.1 
L -165.138909 165.1 
L -156.625073 165.1 
L -148.111238 165.1 
L -139.597402 165.1 
L -131.083567 165.1 
L -122.569731 165.1 
L -114.055896 165.1 
L -105.54206 165.1 
L -97.028225 165.1 
L -88.514389 165.1 
L -80.000554 165.1 
L -71.486718 165.1 
L -62.972883 165.1 
L -54.459047 165.1 
L -45.945212 165.1 
L -37.431376 165.1 
L -28.917541 165.1 
L -20.403705 165.1 
L -11.88987 165.1 
L -3.376034 165.1 
L 5.137801 165.1 
L 13.651637 165.1 
L 22.165472 165.1 
L 30.679308 165.1 
L 39.193144 165.1 
L 47.706979 165.1 
L 56.220815 165.1 
L 64.73465 165.1 
L 73.248486 165.1 
L 81.762321 165.1 
L 90.276157 165.1 
L 98.789992 165.1 
L 107.303828 165.1 
L 115.817663 165.1 
L 124.331499 165.1 
L 132.845334 165.1 
L 141.35917 165.1 
L 149.873005 165.1 
L 158.386841 165.1 
L 166.900676 165.1 
L 175.414512 165.1 
L 183.928347 165.1 
L 192.442183 165.1 
L 200.956018 165.1 
L 209.469854 165.1 
L 217.983689 165.1 
L 226.497525 165.1 
L 235.01136 165.1 
L 243.525196 165.1 
L 252.039031 165.1 
L 260.552867 165.1 
L 269.066702 165.1 
L 277.580538 165.1 
L 286.094373 165.1 
L 294.608209 165.1 
L 303.122044 165.1 
L 311.63588 165.1 
L 320.149715 165.1 
L 328.663551 165.1 
L 337.177386 165.1 
L 345.691222 165.1 
L 354.205057 165.1 
L 362.718893 165.1 
L 371.232728 165.1 
L 379.746564 165.1 
L 388.260399 165.1 
L 396.774235 165.1 
L 405.28807 165.1 
L 413.801906 165.1 
L 422.315741 165.1 
L 430.829577 165.1 
L 439.343412 165.1 
L 447.857248 165.1 
L 456.371083 165.1 
L 464.884919 165.1 
L 473.398754 165.1 
L 481.91259 165.1 
L 490.426425 165.1 
L 498.940261 165.1 
L 507.454096 165.1 
L 515.967932 165.1 
L 524.481767 165.1 
L 532.995603 165.1 
L 541.509438 165.1 
L 550.023274 165.1 
L 558.537109 165.1 
L 567.050945 165.1 
L 575.56478 165.1 
L 584.078616 165.1 
L 592.592452 165.1 
L 601.106287 165.1 
L 609.620123 165.1 
L 618.133958 165.1 
L 626.647794 165.1 
L 635.161629 165.1 
L 643.675465 165.1 
L 652.1893 165.1 
L 660.703136 165.1 
L 669.216971 165.1 
L 677.730807 165.1 
L 686.244642 165.1 
L 694.758478 165.1 
L 703.272313 165.1 
L 711.786149 165.1 
L 720.299984 165.1 
L 728.81382 165.1 
L 737.327655 165.1 
L 745.841491 165.1 
L 754.355326 165.1 
L 762.869162 165.1 
L 771.382997 165.1 
L 779.896833 165.1 
L 788.410668 165.1 
L 796.924504 165.1 
L 805.438339 165.1 
L 813.952175 165.1 
L 822.46601 165.1 
L 830.979846 165.1 
L 839.493681 165.1 
L 848.007517 165.1 
L 856.521352 165.1 
L 865.035188 165.1 
L 873.549023 165.1 
L 882.062859 165.1 
L 890.576694 165.1 
L 899.09053 165.1 
L 907.604365 165.1 
L 916.118201 165.1 
L 924.632036 165.1 
L 933.145872 165.1 
L 933.145872 165.090833 
L 933.145872 165.090833 
L 924.632036 165.086201 
L 916.118201 165.079545 
L 907.604365 165.070135 
L 899.09053 165.057046 
L 890.576694 165.039128 
L 882.062859 165.014985 
L 873.549023 164.982964 
L 865.035188 164.941152 
L 856.521352 164.887398 
L 848.007517 164.819357 
L 839.493681 164.734556 
L 830.979846 164.630496 
L 822.46601 164.504783 
L 813.952175 164.355284 
L 805.438339 164.180311 
L 796.924504 163.978805 
L 788.410668 163.750529 
L 779.896833 163.496219 
L 771.382997 163.217703 
L 762.869162 162.917936 
L 754.355326 162.600947 
L 745.841491 162.27168 
L 737.327655 161.935721 
L 728.81382 161.598928 
L 720.299984 161.266979 
L 711.786149 160.944895 
L 703.272313 160.636568 
L 694.758478 160.344371 
L 686.244642 160.068891 
L 677.730807 159.808834 
L 669.216971 159.561124 
L 660.703136 159.321195 
L 652.1893 159.083447 
L 643.675465 158.841822 
L 635.161629 158.590421 
L 626.647794 158.324098 
L 618.133958 158.038957 
L 609.620123 157.7327 
L 601.106287 157.404787 
L 592.592452 157.056417 
L 584.078616 156.690322 
L 575.56478 156.310441 
L 567.050945 155.9215 
L 558.537109 155.528561 
L 550.023274 155.136583 
L 541.509438 154.750032 
L 532.995603 154.372565 
L 524.481767 154.006805 
L 515.967932 153.65419 
L 507.454096 153.314911 
L 498.940261 152.987921 
L 490.426425 152.670995 
L 481.91259 152.360847 
L 473.398754 152.053281 
L 464.884919 151.74337 
L 456.371083 151.425666 
L 447.857248 151.094408 
L 439.343412 150.743743 
L 430.829577 150.367935 
L 422.315741 149.961563 
L 413.801906 149.519685 
L 405.28807 149.037989 
L 396.774235 148.512899 
L 388.260399 147.941651 
L 379.746564 147.322351 
L 371.232728 146.653998 
L 362.718893 145.936493 
L 354.205057 145.170655 
L 345.691222 144.358217 
L 337.177386 143.501846 
L 328.663551 142.605153 
L 320.149715 141.672699 
L 311.63588 140.709983 
L 303.122044 139.723379 
L 294.608209 138.720004 
L 286.094373 137.707505 
L 277.580538 136.693736 
L 269.066702 135.686347 
L 260.552867 134.692294 
L 252.039031 133.717314 
L 243.525196 132.765405 
L 235.01136 131.838371 
L 226.497525 130.935474 
L 217.983689 130.053217 
L 209.469854 129.185265 
L 200.956018 128.322479 
L 192.442183 127.453004 
L 183.928347 126.562348 
L 175.414512 125.633356 
L 166.900676 124.646034 
L 158.386841 123.577152 
L 149.873005 122.399646 
L 141.35917 121.081861 
L 132.845334 119.586772 
L 124.331499 117.871342 
L 115.817663 115.886288 
L 107.303828 113.576507 
L 98.789992 110.882462 
L 90.276157 107.742763 
L 81.762321 104.098105 
L 73.248486 99.896568 
L 64.73465 95.100099 
L 56.220815 89.691755 
L 47.706979 83.68306 
L 39.193144 77.120606 
L 30.679308 70.090921 
L 22.165472 62.722607 
L 13.651637 55.184887 
L 5.137801 47.682024 
L -3.376034 40.443517 
L -11.88987 33.710499 
L -20.403705 27.719357 
L -28.917541 22.684066 
L -37.431376 18.779053 
L -45.945212 16.124507 
L -54.459047 14.775902 
L -62.972883 14.719048 
L -71.486718 15.871363 
L -80.000554 18.089337 
L -88.514389 21.181372 
L -97.028225 24.924622 
L -105.54206 29.083935 
L -114.055896 33.430936 
L -122.569731 37.761278 
L -131.083567 41.90852 
L -139.597402 45.753506 
L -148.111238 49.228771 
L -156.625073 52.318019 
L -165.138909 55.051268 
L -173.652744 57.496572 
L -182.16658 59.749488 
L -190.680415 61.921469 
L -199.194251 64.128319 
L -207.708086 66.479641 
L -216.221922 69.069997 
L -224.735757 71.972232 
L -233.249593 75.233157 
L -241.763428 78.871597 
L -250.277264 82.878604 
L -258.791099 87.21954 
L -267.304935 91.837656 
L -275.81877 96.658749 
L -284.332606 101.596492 
L -292.846441 106.558057 
L -301.360277 111.44968 
L -309.874112 116.181878 
L -318.387948 120.674056 
L -326.901783 124.858292 
L -335.415619 128.682169 
L -343.929454 132.110504 
L -352.44329 135.125958 
L -360.957125 137.728511 
L -369.470961 139.933896 
L -377.984796 141.771128 
L -386.498632 143.279362 
L -395.012467 144.504339 
L -403.526303 145.494735 
L -412.040138 146.29873 
L -420.553974 146.961086 
L -429.067809 147.520951 
L -437.581645 148.010549 
L -446.09548 148.454783 
L -454.609316 148.871677 
L -463.123151 149.273498 
L -471.636987 149.668319 
L -480.150822 150.061728 
L -488.664658 150.45843 
L -497.178493 150.863494 
L -505.692329 151.283092 
L -514.206165 151.724651 
L -522.72 152.196459 
L -531.233836 152.706838 
L -539.747671 153.263047 
L -548.261507 153.870144 
L -556.775342 154.529999 
L -565.289178 155.240619 
L -573.803013 155.99592 
L -582.316849 156.785956 
L -590.830684 157.597581 
L -599.34452 158.415459 
L -607.858355 159.223266 
L -616.372191 160.004951 
L -624.886026 160.74589 
L -633.399862 161.433834 
L -641.913697 162.059551 
L -650.427533 162.617145 
L -658.941368 163.104057 
L -667.455204 163.520789 
L -675.969039 163.870428 
L -684.482875 164.158052 
L -692.99671 164.390083 
L -701.510546 164.573679 
L -710.024381 164.716188 
L -718.538217 164.824717 
L -727.052052 164.90582 
L -735.565888 164.965299 
L -744.079723 165.008112 
L -752.593559 165.038362 
L -761.107394 165.059344 
z
" style="fill:#4c72b0;fill-opacity:0.25;stroke:#4c72b0;"/>
   </g>
   <g id="PolyCollection_2">
    <path clip-path="url(#pec4aa4caf3)" d="M -813.893346 164.986147 
L -813.893346 165.1 
L -804.360631 165.1 
L -794.827917 165.1 
L -785.295202 165.1 
L -775.762487 165.1 
L -766.229773 165.1 
L -756.697058 165.1 
L -747.164343 165.1 
L -737.631629 165.1 
L -728.098914 165.1 
L -718.566199 165.1 
L -709.033485 165.1 
L -699.50077 165.1 
L -689.968055 165.1 
L -680.435341 165.1 
L -670.902626 165.1 
L -661.369911 165.1 
L -651.837197 165.1 
L -642.304482 165.1 
L -632.771768 165.1 
L -623.239053 165.1 
L -613.706338 165.1 
L -604.173624 165.1 
L -594.640909 165.1 
L -585.108194 165.1 
L -575.57548 165.1 
L -566.042765 165.1 
L -556.51005 165.1 
L -546.977336 165.1 
L -537.444621 165.1 
L -527.911906 165.1 
L -518.379192 165.1 
L -508.846477 165.1 
L -499.313762 165.1 
L -489.781048 165.1 
L -480.248333 165.1 
L -470.715618 165.1 
L -461.182904 165.1 
L -451.650189 165.1 
L -442.117474 165.1 
L -432.58476 165.1 
L -423.052045 165.1 
L -413.51933 165.1 
L -403.986616 165.1 
L -394.453901 165.1 
L -384.921186 165.1 
L -375.388472 165.1 
L -365.855757 165.1 
L -356.323042 165.1 
L -346.790328 165.1 
L -337.257613 165.1 
L -327.724898 165.1 
L -318.192184 165.1 
L -308.659469 165.1 
L -299.126755 165.1 
L -289.59404 165.1 
L -280.061325 165.1 
L -270.528611 165.1 
L -260.995896 165.1 
L -251.463181 165.1 
L -241.930467 165.1 
L -232.397752 165.1 
L -222.865037 165.1 
L -213.332323 165.1 
L -203.799608 165.1 
L -194.266893 165.1 
L -184.734179 165.1 
L -175.201464 165.1 
L -165.668749 165.1 
L -156.136035 165.1 
L -146.60332 165.1 
L -137.070605 165.1 
L -127.537891 165.1 
L -118.005176 165.1 
L -108.472461 165.1 
L -98.939747 165.1 
L -89.407032 165.1 
L -79.874317 165.1 
L -70.341603 165.1 
L -60.808888 165.1 
L -51.276173 165.1 
L -41.743459 165.1 
L -32.210744 165.1 
L -22.678029 165.1 
L -13.145315 165.1 
L -3.6126 165.1 
L 5.920115 165.1 
L 15.452829 165.1 
L 24.985544 165.1 
L 34.518258 165.1 
L 44.050973 165.1 
L 53.583688 165.1 
L 63.116402 165.1 
L 72.649117 165.1 
L 82.181832 165.1 
L 91.714546 165.1 
L 101.247261 165.1 
L 110.779976 165.1 
L 120.31269 165.1 
L 129.845405 165.1 
L 139.37812 165.1 
L 148.910834 165.1 
L 158.443549 165.1 
L 167.976264 165.1 
L 177.508978 165.1 
L 187.041693 165.1 
L 196.574408 165.1 
L 206.107122 165.1 
L 215.639837 165.1 
L 225.172552 165.1 
L 234.705266 165.1 
L 244.237981 165.1 
L 253.770696 165.1 
L 263.30341 165.1 
L 272.836125 165.1 
L 282.36884 165.1 
L 291.901554 165.1 
L 301.434269 165.1 
L 310.966984 165.1 
L 320.499698 165.1 
L 330.032413 165.1 
L 339.565128 165.1 
L 349.097842 165.1 
L 358.630557 165.1 
L 368.163272 165.1 
L 377.695986 165.1 
L 387.228701 165.1 
L 396.761415 165.1 
L 406.29413 165.1 
L 415.826845 165.1 
L 425.359559 165.1 
L 434.892274 165.1 
L 444.424989 165.1 
L 453.957703 165.1 
L 463.490418 165.1 
L 473.023133 165.1 
L 482.555847 165.1 
L 492.088562 165.1 
L 501.621277 165.1 
L 511.153991 165.1 
L 520.686706 165.1 
L 530.219421 165.1 
L 539.752135 165.1 
L 549.28485 165.1 
L 558.817565 165.1 
L 568.350279 165.1 
L 577.882994 165.1 
L 587.415709 165.1 
L 596.948423 165.1 
L 606.481138 165.1 
L 616.013853 165.1 
L 625.546567 165.1 
L 635.079282 165.1 
L 644.611997 165.1 
L 654.144711 165.1 
L 663.677426 165.1 
L 673.210141 165.1 
L 682.742855 165.1 
L 692.27557 165.1 
L 701.808285 165.1 
L 711.340999 165.1 
L 720.873714 165.1 
L 730.406428 165.1 
L 739.939143 165.1 
L 749.471858 165.1 
L 759.004572 165.1 
L 768.537287 165.1 
L 778.070002 165.1 
L 787.602716 165.1 
L 797.135431 165.1 
L 806.668146 165.1 
L 816.20086 165.1 
L 825.733575 165.1 
L 835.26629 165.1 
L 844.799004 165.1 
L 854.331719 165.1 
L 863.864434 165.1 
L 873.397148 165.1 
L 882.929863 165.1 
L 892.462578 165.1 
L 901.995292 165.1 
L 911.528007 165.1 
L 921.060722 165.1 
L 930.593436 165.1 
L 940.126151 165.1 
L 949.658866 165.1 
L 959.19158 165.1 
L 968.724295 165.1 
L 978.25701 165.1 
L 987.789724 165.1 
L 997.322439 165.1 
L 1006.855154 165.1 
L 1016.387868 165.1 
L 1025.920583 165.1 
L 1035.453298 165.1 
L 1044.986012 165.1 
L 1054.518727 165.1 
L 1064.051442 165.1 
L 1073.584156 165.1 
L 1083.116871 165.1 
L 1083.116871 165.089821 
L 1083.116871 165.089821 
L 1073.584156 165.085445 
L 1064.051442 165.079493 
L 1054.518727 165.071532 
L 1044.986012 165.061062 
L 1035.453298 165.047523 
L 1025.920583 165.030315 
L 1016.387868 165.008826 
L 1006.855154 164.982462 
L 997.322439 164.950702 
L 987.789724 164.913146 
L 978.25701 164.869581 
L 968.724295 164.820033 
L 959.19158 164.76483 
L 949.658866 164.704638 
L 940.126151 164.640489 
L 930.593436 164.573779 
L 921.060722 164.506236 
L 911.528007 164.439863 
L 901.995292 164.376847 
L 892.462578 164.319438 
L 882.929863 164.269823 
L 873.397148 164.229975 
L 863.864434 164.201525 
L 854.331719 164.185631 
L 844.799004 164.182889 
L 835.26629 164.193269 
L 825.733575 164.216091 
L 816.20086 164.250041 
L 806.668146 164.293222 
L 797.135431 164.343227 
L 787.602716 164.39723 
L 778.070002 164.452081 
L 768.537287 164.504393 
L 759.004572 164.550614 
L 749.471858 164.587076 
L 739.939143 164.610032 
L 730.406428 164.615663 
L 720.873714 164.600088 
L 711.340999 164.559371 
L 701.808285 164.489543 
L 692.27557 164.386649 
L 682.742855 164.246828 
L 673.210141 164.066435 
L 663.677426 163.842195 
L 654.144711 163.571386 
L 644.611997 163.252033 
L 635.079282 162.883105 
L 625.546567 162.464668 
L 616.013853 161.997999 
L 606.481138 161.485615 
L 596.948423 160.931225 
L 587.415709 160.339571 
L 577.882994 159.716185 
L 568.350279 159.067055 
L 558.817565 158.398238 
L 549.28485 157.715437 
L 539.752135 157.023583 
L 530.219421 156.326466 
L 520.686706 155.626439 
L 511.153991 154.924235 
L 501.621277 154.218912 
L 492.088562 153.507943 
L 482.555847 152.78745 
L 473.023133 152.052564 
L 463.490418 151.297896 
L 453.957703 150.518091 
L 444.424989 149.70841 
L 434.892274 148.865311 
L 425.359559 147.98698 
L 415.826845 147.073755 
L 406.29413 146.128408 
L 396.761415 145.156253 
L 387.228701 144.165035 
L 377.695986 143.164602 
L 368.163272 142.16636 
L 358.630557 141.182524 
L 349.097842 140.225217 
L 339.565128 139.305459 
L 330.032413 138.432137 
L 320.499698 137.611017 
L 310.966984 136.843887 
L 301.434269 136.127901 
L 291.901554 135.455183 
L 282.36884 134.812723 
L 272.836125 134.182581 
L 263.30341 133.542378 
L 253.770696 132.866052 
L 244.237981 132.124816 
L 234.705266 131.288257 
L 225.172552 130.325534 
L 215.639837 129.206595 
L 206.107122 127.903391 
L 196.574408 126.39105 
L 187.041693 124.648976 
L 177.508978 122.661876 
L 167.976264 120.420682 
L 158.443549 117.923344 
L 148.910834 115.175462 
L 139.37812 112.190707 
L 129.845405 108.99097 
L 120.31269 105.606203 
L 110.779976 102.073886 
L 101.247261 98.438116 
L 91.714546 94.748314 
L 82.181832 91.057585 
L 72.649117 87.420822 
L 63.116402 83.892633 
L 53.583688 80.525226 
L 44.050973 77.366359 
L 34.518258 74.457498 
L 24.985544 71.832247 
L 15.452829 69.515161 
L 5.920115 67.520964 
L -3.6126 65.854215 
L -13.145315 64.509425 
L -22.678029 63.471631 
L -32.210744 62.717404 
L -41.743459 62.216282 
L -51.276173 61.932608 
L -60.808888 61.827697 
L -70.341603 61.862294 
L -79.874317 61.999182 
L -89.407032 62.205818 
L -98.939747 62.456802 
L -108.472461 62.736001 
L -118.005176 63.038106 
L -127.537891 63.369468 
L -137.070605 63.748063 
L -146.60332 64.202542 
L -156.136035 64.770373 
L -165.668749 65.495199 
L -175.201464 66.423586 
L -184.734179 67.601433 
L -194.266893 69.070323 
L -203.799608 70.864122 
L -213.332323 73.006084 
L -222.865037 75.506694 
L -232.397752 78.362383 
L -241.930467 81.555171 
L -251.463181 85.053225 
L -260.995896 88.812213 
L -270.528611 92.777315 
L -280.061325 96.885689 
L -289.59404 101.069201 
L -299.126755 105.25722 
L -308.659469 109.379323 
L -318.192184 113.367769 
L -327.724898 117.159675 
L -337.257613 120.698822 
L -346.790328 123.937105 
L -356.323042 126.835609 
L -365.855757 129.365369 
L -375.388472 131.507826 
L -384.921186 133.255034 
L -394.453901 134.609635 
L -403.986616 135.584629 
L -413.51933 136.202945 
L -423.052045 136.496815 
L -432.58476 136.506936 
L -442.117474 136.281404 
L -451.650189 135.874407 
L -461.182904 135.344664 
L -470.715618 134.753622 
L -480.248333 134.163439 
L -489.781048 133.634794 
L -499.313762 133.224619 
L -508.846477 132.983853 
L -518.379192 132.955345 
L -527.911906 133.172032 
L -537.444621 133.655552 
L -546.977336 134.415379 
L -556.51005 135.448584 
L -566.042765 136.74026 
L -575.57548 138.264599 
L -585.108194 139.986561 
L -594.640909 141.864017 
L -604.173624 143.85022 
L -613.706338 145.896421 
L -623.239053 147.954438 
L -632.771768 149.979015 
L -642.304482 151.929799 
L -651.837197 153.772849 
L -661.369911 155.481603 
L -670.902626 157.037283 
L -680.435341 158.428797 
L -689.968055 159.652187 
L -699.50077 160.709739 
L -709.033485 161.608866 
L -718.566199 162.360878 
L -728.098914 162.979743 
L -737.631629 163.480937 
L -747.164343 163.880436 
L -756.697058 164.193888 
L -766.229773 164.436002 
L -775.762487 164.620119 
L -785.295202 164.757976 
L -794.827917 164.859611 
L -804.360631 164.933397 
L -813.893346 164.986147 
z
" style="fill:#dd8452;fill-opacity:0.25;stroke:#dd8452;"/>
   </g>
   <g id="patch_3">
    <path d="M 41.192188 165.1 
L 41.192188 7.2 
" style="fill:none;stroke:#ffffff;stroke-linecap:square;stroke-linejoin:miter;stroke-width:1.25;"/>
   </g>
   <g id="patch_4">
    <path d="M 41.192188 165.1 
L 848.079111 165.1 
" style="fill:none;stroke:#ffffff;stroke-linecap:square;stroke-linejoin:miter;stroke-width:1.25;"/>
   </g>
  </g>
  <g id="legend_1">
   <g id="text_17">
    <!-- Survived -->
    <g style="fill:#262626;" transform="translate(857.987736 91.195156)scale(0.12 -0.12)">
     <defs>
      <path d="M 53.515625 70.515625 
L 53.515625 60.890625 
Q 47.90625 63.578125 42.921875 64.890625 
Q 37.9375 66.21875 33.296875 66.21875 
Q 25.25 66.21875 20.875 63.09375 
Q 16.5 59.96875 16.5 54.203125 
Q 16.5 49.359375 19.40625 46.890625 
Q 22.3125 44.4375 30.421875 42.921875 
L 36.375 41.703125 
Q 47.40625 39.59375 52.65625 34.296875 
Q 57.90625 29 57.90625 20.125 
Q 57.90625 9.515625 50.796875 4.046875 
Q 43.703125 -1.421875 29.984375 -1.421875 
Q 24.8125 -1.421875 18.96875 -0.25 
Q 13.140625 0.921875 6.890625 3.21875 
L 6.890625 13.375 
Q 12.890625 10.015625 18.65625 8.296875 
Q 24.421875 6.59375 29.984375 6.59375 
Q 38.421875 6.59375 43.015625 9.90625 
Q 47.609375 13.234375 47.609375 19.390625 
Q 47.609375 24.75 44.3125 27.78125 
Q 41.015625 30.8125 33.5 32.328125 
L 27.484375 33.5 
Q 16.453125 35.6875 11.515625 40.375 
Q 6.59375 45.0625 6.59375 53.421875 
Q 6.59375 63.09375 13.40625 68.65625 
Q 20.21875 74.21875 32.171875 74.21875 
Q 37.3125 74.21875 42.625 73.28125 
Q 47.953125 72.359375 53.515625 70.515625 
z
" id="DejaVuSans-83"/>
      <path d="M 8.5 21.578125 
L 8.5 54.6875 
L 17.484375 54.6875 
L 17.484375 21.921875 
Q 17.484375 14.15625 20.5 10.265625 
Q 23.53125 6.390625 29.59375 6.390625 
Q 36.859375 6.390625 41.078125 11.03125 
Q 45.3125 15.671875 45.3125 23.6875 
L 45.3125 54.6875 
L 54.296875 54.6875 
L 54.296875 0 
L 45.3125 0 
L 45.3125 8.40625 
Q 42.046875 3.421875 37.71875 1 
Q 33.40625 -1.421875 27.6875 -1.421875 
Q 18.265625 -1.421875 13.375 4.4375 
Q 8.5 10.296875 8.5 21.578125 
z
M 31.109375 56 
z
" id="DejaVuSans-117"/>
      <path d="M 41.109375 46.296875 
Q 39.59375 47.171875 37.8125 47.578125 
Q 36.03125 48 33.890625 48 
Q 26.265625 48 22.1875 43.046875 
Q 18.109375 38.09375 18.109375 28.8125 
L 18.109375 0 
L 9.078125 0 
L 9.078125 54.6875 
L 18.109375 54.6875 
L 18.109375 46.1875 
Q 20.953125 51.171875 25.484375 53.578125 
Q 30.03125 56 36.53125 56 
Q 37.453125 56 38.578125 55.875 
Q 39.703125 55.765625 41.0625 55.515625 
z
" id="DejaVuSans-114"/>
      <path d="M 2.984375 54.6875 
L 12.5 54.6875 
L 29.59375 8.796875 
L 46.6875 54.6875 
L 56.203125 54.6875 
L 35.6875 0 
L 23.484375 0 
z
" id="DejaVuSans-118"/>
      <path d="M 9.421875 54.6875 
L 18.40625 54.6875 
L 18.40625 0 
L 9.421875 0 
z
M 9.421875 75.984375 
L 18.40625 75.984375 
L 18.40625 64.59375 
L 9.421875 64.59375 
z
" id="DejaVuSans-105"/>
      <path d="M 45.40625 46.390625 
L 45.40625 75.984375 
L 54.390625 75.984375 
L 54.390625 0 
L 45.40625 0 
L 45.40625 8.203125 
Q 42.578125 3.328125 38.25 0.953125 
Q 33.9375 -1.421875 27.875 -1.421875 
Q 17.96875 -1.421875 11.734375 6.484375 
Q 5.515625 14.40625 5.515625 27.296875 
Q 5.515625 40.1875 11.734375 48.09375 
Q 17.96875 56 27.875 56 
Q 33.9375 56 38.25 53.625 
Q 42.578125 51.265625 45.40625 46.390625 
z
M 14.796875 27.296875 
Q 14.796875 17.390625 18.875 11.75 
Q 22.953125 6.109375 30.078125 6.109375 
Q 37.203125 6.109375 41.296875 11.75 
Q 45.40625 17.390625 45.40625 27.296875 
Q 45.40625 37.203125 41.296875 42.84375 
Q 37.203125 48.484375 30.078125 48.484375 
Q 22.953125 48.484375 18.875 42.84375 
Q 14.796875 37.203125 14.796875 27.296875 
z
" id="DejaVuSans-100"/>
     </defs>
     <use xlink:href="#DejaVuSans-83"/>
     <use x="63.476562" xlink:href="#DejaVuSans-117"/>
     <use x="126.855469" xlink:href="#DejaVuSans-114"/>
     <use x="167.96875" xlink:href="#DejaVuSans-118"/>
     <use x="227.148438" xlink:href="#DejaVuSans-105"/>
     <use x="254.931641" xlink:href="#DejaVuSans-118"/>
     <use x="314.111328" xlink:href="#DejaVuSans-101"/>
     <use x="375.634766" xlink:href="#DejaVuSans-100"/>
    </g>
   </g>
   <g id="patch_5">
    <path d="M 865.436798 107.549062 
L 887.436798 107.549062 
L 887.436798 99.849062 
L 865.436798 99.849062 
z
" style="fill:#4c72b0;fill-opacity:0.25;stroke:#4c72b0;stroke-linejoin:miter;"/>
   </g>
   <g id="text_18">
    <!-- 0 -->
    <g style="fill:#262626;" transform="translate(896.236798 107.549062)scale(0.11 -0.11)">
     <use xlink:href="#DejaVuSans-48"/>
    </g>
   </g>
   <g id="patch_6">
    <path d="M 865.436798 123.695 
L 887.436798 123.695 
L 887.436798 115.995 
L 865.436798 115.995 
z
" style="fill:#dd8452;fill-opacity:0.25;stroke:#dd8452;stroke-linejoin:miter;"/>
   </g>
   <g id="text_19">
    <!-- 1 -->
    <g style="fill:#262626;" transform="translate(896.236798 123.695)scale(0.11 -0.11)">
     <use xlink:href="#DejaVuSans-49"/>
    </g>
   </g>
  </g>
 </g>
 <defs>
  <clipPath id="pec4aa4caf3">
   <rect height="157.9" width="806.886923" x="41.192188" y="7.2"/>
  </clipPath>
 </defs>
</svg>
