<?xml version="1.0" encoding="utf-8" standalone="no"?>
<!DOCTYPE svg PUBLIC "-//W3C//DTD SVG 1.1//EN"
  "http://www.w3.org/Graphics/SVG/1.1/DTD/svg11.dtd">
<!-- Created with matplotlib (https://matplotlib.org/) -->
<svg height="208.059687pt" version="1.1" viewBox="0 0 920.584611 208.059687" width="920.584611pt" xmlns="http://www.w3.org/2000/svg" xmlns:xlink="http://www.w3.org/1999/xlink">
 <metadata>
  <rdf:RDF xmlns:cc="http://creativecommons.org/ns#" xmlns:dc="http://purl.org/dc/elements/1.1/" xmlns:rdf="http://www.w3.org/1999/02/22-rdf-syntax-ns#">
   <cc:Work>
    <dc:type rdf:resource="http://purl.org/dc/dcmitype/StillImage"/>
    <dc:date>2021-06-21T14:05:08.571427</dc:date>
    <dc:format>image/svg+xml</dc:format>
    <dc:creator>
     <cc:Agent>
      <dc:title>Matplotlib v3.3.4, https://matplotlib.org/</dc:title>
     </cc:Agent>
    </dc:creator>
   </cc:Work>
  </rdf:RDF>
 </metadata>
 <defs>
  <style type="text/css">*{stroke-linecap:butt;stroke-linejoin:round;}</style>
 </defs>
 <g id="figure_1">
  <g id="patch_1">
   <path d="M 0 208.059687 
L 920.584611 208.059687 
L 920.584611 0 
L 0 0 
z
" style="fill:none;"/>
  </g>
  <g id="axes_1">
   <g id="patch_2">
    <path d="M 41.192188 165.1 
L 848.079111 165.1 
L 848.079111 7.2 
L 41.192188 7.2 
z
" style="fill:#eaeaf2;"/>
   </g>
   <g id="matplotlib.axis_1">
    <g id="xtick_1">
     <g id="line2d_1">
      <path clip-path="url(#pc9cb75a7cb)" d="M 41.192188 165.1 
L 41.192188 7.2 
" style="fill:none;stroke:#ffffff;stroke-linecap:round;"/>
     </g>
     <g id="text_1">
      <!-- 20 -->
      <g style="fill:#262626;" transform="translate(34.193438 182.958281)scale(0.11 -0.11)">
       <defs>
        <path d="M 19.1875 8.296875 
L 53.609375 8.296875 
L 53.609375 0 
L 7.328125 0 
L 7.328125 8.296875 
Q 12.9375 14.109375 22.625 23.890625 
Q 32.328125 33.6875 34.8125 36.53125 
Q 39.546875 41.84375 41.421875 45.53125 
Q 43.3125 49.21875 43.3125 52.78125 
Q 43.3125 58.59375 39.234375 62.25 
Q 35.15625 65.921875 28.609375 65.921875 
Q 23.96875 65.921875 18.8125 64.3125 
Q 13.671875 62.703125 7.8125 59.421875 
L 7.8125 69.390625 
Q 13.765625 71.78125 18.9375 73 
Q 24.125 74.21875 28.421875 74.21875 
Q 39.75 74.21875 46.484375 68.546875 
Q 53.21875 62.890625 53.21875 53.421875 
Q 53.21875 48.921875 51.53125 44.890625 
Q 49.859375 40.875 45.40625 35.40625 
Q 44.1875 33.984375 37.640625 27.21875 
Q 31.109375 20.453125 19.1875 8.296875 
z
" id="DejaVuSans-50"/>
        <path d="M 31.78125 66.40625 
Q 24.171875 66.40625 20.328125 58.90625 
Q 16.5 51.421875 16.5 36.375 
Q 16.5 21.390625 20.328125 13.890625 
Q 24.171875 6.390625 31.78125 6.390625 
Q 39.453125 6.390625 43.28125 13.890625 
Q 47.125 21.390625 47.125 36.375 
Q 47.125 51.421875 43.28125 58.90625 
Q 39.453125 66.40625 31.78125 66.40625 
z
M 31.78125 74.21875 
Q 44.046875 74.21875 50.515625 64.515625 
Q 56.984375 54.828125 56.984375 36.375 
Q 56.984375 17.96875 50.515625 8.265625 
Q 44.046875 -1.421875 31.78125 -1.421875 
Q 19.53125 -1.421875 13.0625 8.265625 
Q 6.59375 17.96875 6.59375 36.375 
Q 6.59375 54.828125 13.0625 64.515625 
Q 19.53125 74.21875 31.78125 74.21875 
z
" id="DejaVuSans-48"/>
       </defs>
       <use xlink:href="#DejaVuSans-50"/>
       <use x="63.623047" xlink:href="#DejaVuSans-48"/>
      </g>
     </g>
    </g>
    <g id="xtick_2">
     <g id="line2d_2">
      <path clip-path="url(#pc9cb75a7cb)" d="M 148.777111 165.1 
L 148.777111 7.2 
" style="fill:none;stroke:#ffffff;stroke-linecap:round;"/>
     </g>
     <g id="text_2">
      <!-- 22 -->
      <g style="fill:#262626;" transform="translate(141.778361 182.958281)scale(0.11 -0.11)">
       <use xlink:href="#DejaVuSans-50"/>
       <use x="63.623047" xlink:href="#DejaVuSans-50"/>
      </g>
     </g>
    </g>
    <g id="xtick_3">
     <g id="line2d_3">
      <path clip-path="url(#pc9cb75a7cb)" d="M 256.362034 165.1 
L 256.362034 7.2 
" style="fill:none;stroke:#ffffff;stroke-linecap:round;"/>
     </g>
     <g id="text_3">
      <!-- 24 -->
      <g style="fill:#262626;" transform="translate(249.363284 182.958281)scale(0.11 -0.11)">
       <defs>
        <path d="M 37.796875 64.3125 
L 12.890625 25.390625 
L 37.796875 25.390625 
z
M 35.203125 72.90625 
L 47.609375 72.90625 
L 47.609375 25.390625 
L 58.015625 25.390625 
L 58.015625 17.1875 
L 47.609375 17.1875 
L 47.609375 0 
L 37.796875 0 
L 37.796875 17.1875 
L 4.890625 17.1875 
L 4.890625 26.703125 
z
" id="DejaVuSans-52"/>
       </defs>
       <use xlink:href="#DejaVuSans-50"/>
       <use x="63.623047" xlink:href="#DejaVuSans-52"/>
      </g>
     </g>
    </g>
    <g id="xtick_4">
     <g id="line2d_4">
      <path clip-path="url(#pc9cb75a7cb)" d="M 363.946957 165.1 
L 363.946957 7.2 
" style="fill:none;stroke:#ffffff;stroke-linecap:round;"/>
     </g>
     <g id="text_4">
      <!-- 26 -->
      <g style="fill:#262626;" transform="translate(356.948207 182.958281)scale(0.11 -0.11)">
       <defs>
        <path d="M 33.015625 40.375 
Q 26.375 40.375 22.484375 35.828125 
Q 18.609375 31.296875 18.609375 23.390625 
Q 18.609375 15.53125 22.484375 10.953125 
Q 26.375 6.390625 33.015625 6.390625 
Q 39.65625 6.390625 43.53125 10.953125 
Q 47.40625 15.53125 47.40625 23.390625 
Q 47.40625 31.296875 43.53125 35.828125 
Q 39.65625 40.375 33.015625 40.375 
z
M 52.59375 71.296875 
L 52.59375 62.3125 
Q 48.875 64.0625 45.09375 64.984375 
Q 41.3125 65.921875 37.59375 65.921875 
Q 27.828125 65.921875 22.671875 59.328125 
Q 17.53125 52.734375 16.796875 39.40625 
Q 19.671875 43.65625 24.015625 45.921875 
Q 28.375 48.1875 33.59375 48.1875 
Q 44.578125 48.1875 50.953125 41.515625 
Q 57.328125 34.859375 57.328125 23.390625 
Q 57.328125 12.15625 50.6875 5.359375 
Q 44.046875 -1.421875 33.015625 -1.421875 
Q 20.359375 -1.421875 13.671875 8.265625 
Q 6.984375 17.96875 6.984375 36.375 
Q 6.984375 53.65625 15.1875 63.9375 
Q 23.390625 74.21875 37.203125 74.21875 
Q 40.921875 74.21875 44.703125 73.484375 
Q 48.484375 72.75 52.59375 71.296875 
z
" id="DejaVuSans-54"/>
       </defs>
       <use xlink:href="#DejaVuSans-50"/>
       <use x="63.623047" xlink:href="#DejaVuSans-54"/>
      </g>
     </g>
    </g>
    <g id="xtick_5">
     <g id="line2d_5">
      <path clip-path="url(#pc9cb75a7cb)" d="M 471.53188 165.1 
L 471.53188 7.2 
" style="fill:none;stroke:#ffffff;stroke-linecap:round;"/>
     </g>
     <g id="text_5">
      <!-- 28 -->
      <g style="fill:#262626;" transform="translate(464.53313 182.958281)scale(0.11 -0.11)">
       <defs>
        <path d="M 31.78125 34.625 
Q 24.75 34.625 20.71875 30.859375 
Q 16.703125 27.09375 16.703125 20.515625 
Q 16.703125 13.921875 20.71875 10.15625 
Q 24.75 6.390625 31.78125 6.390625 
Q 38.8125 6.390625 42.859375 10.171875 
Q 46.921875 13.96875 46.921875 20.515625 
Q 46.921875 27.09375 42.890625 30.859375 
Q 38.875 34.625 31.78125 34.625 
z
M 21.921875 38.8125 
Q 15.578125 40.375 12.03125 44.71875 
Q 8.5 49.078125 8.5 55.328125 
Q 8.5 64.0625 14.71875 69.140625 
Q 20.953125 74.21875 31.78125 74.21875 
Q 42.671875 74.21875 48.875 69.140625 
Q 55.078125 64.0625 55.078125 55.328125 
Q 55.078125 49.078125 51.53125 44.71875 
Q 48 40.375 41.703125 38.8125 
Q 48.828125 37.15625 52.796875 32.3125 
Q 56.78125 27.484375 56.78125 20.515625 
Q 56.78125 9.90625 50.3125 4.234375 
Q 43.84375 -1.421875 31.78125 -1.421875 
Q 19.734375 -1.421875 13.25 4.234375 
Q 6.78125 9.90625 6.78125 20.515625 
Q 6.78125 27.484375 10.78125 32.3125 
Q 14.796875 37.15625 21.921875 38.8125 
z
M 18.3125 54.390625 
Q 18.3125 48.734375 21.84375 45.5625 
Q 25.390625 42.390625 31.78125 42.390625 
Q 38.140625 42.390625 41.71875 45.5625 
Q 45.3125 48.734375 45.3125 54.390625 
Q 45.3125 60.0625 41.71875 63.234375 
Q 38.140625 66.40625 31.78125 66.40625 
Q 25.390625 66.40625 21.84375 63.234375 
Q 18.3125 60.0625 18.3125 54.390625 
z
" id="DejaVuSans-56"/>
       </defs>
       <use xlink:href="#DejaVuSans-50"/>
       <use x="63.623047" xlink:href="#DejaVuSans-56"/>
      </g>
     </g>
    </g>
    <g id="xtick_6">
     <g id="line2d_6">
      <path clip-path="url(#pc9cb75a7cb)" d="M 579.116803 165.1 
L 579.116803 7.2 
" style="fill:none;stroke:#ffffff;stroke-linecap:round;"/>
     </g>
     <g id="text_6">
      <!-- 30 -->
      <g style="fill:#262626;" transform="translate(572.118053 182.958281)scale(0.11 -0.11)">
       <defs>
        <path d="M 40.578125 39.3125 
Q 47.65625 37.796875 51.625 33 
Q 55.609375 28.21875 55.609375 21.1875 
Q 55.609375 10.40625 48.1875 4.484375 
Q 40.765625 -1.421875 27.09375 -1.421875 
Q 22.515625 -1.421875 17.65625 -0.515625 
Q 12.796875 0.390625 7.625 2.203125 
L 7.625 11.71875 
Q 11.71875 9.328125 16.59375 8.109375 
Q 21.484375 6.890625 26.8125 6.890625 
Q 36.078125 6.890625 40.9375 10.546875 
Q 45.796875 14.203125 45.796875 21.1875 
Q 45.796875 27.640625 41.28125 31.265625 
Q 36.765625 34.90625 28.71875 34.90625 
L 20.21875 34.90625 
L 20.21875 43.015625 
L 29.109375 43.015625 
Q 36.375 43.015625 40.234375 45.921875 
Q 44.09375 48.828125 44.09375 54.296875 
Q 44.09375 59.90625 40.109375 62.90625 
Q 36.140625 65.921875 28.71875 65.921875 
Q 24.65625 65.921875 20.015625 65.03125 
Q 15.375 64.15625 9.8125 62.3125 
L 9.8125 71.09375 
Q 15.4375 72.65625 20.34375 73.4375 
Q 25.25 74.21875 29.59375 74.21875 
Q 40.828125 74.21875 47.359375 69.109375 
Q 53.90625 64.015625 53.90625 55.328125 
Q 53.90625 49.265625 50.4375 45.09375 
Q 46.96875 40.921875 40.578125 39.3125 
z
" id="DejaVuSans-51"/>
       </defs>
       <use xlink:href="#DejaVuSans-51"/>
       <use x="63.623047" xlink:href="#DejaVuSans-48"/>
      </g>
     </g>
    </g>
    <g id="xtick_7">
     <g id="line2d_7">
      <path clip-path="url(#pc9cb75a7cb)" d="M 686.701726 165.1 
L 686.701726 7.2 
" style="fill:none;stroke:#ffffff;stroke-linecap:round;"/>
     </g>
     <g id="text_7">
      <!-- 32 -->
      <g style="fill:#262626;" transform="translate(679.702976 182.958281)scale(0.11 -0.11)">
       <use xlink:href="#DejaVuSans-51"/>
       <use x="63.623047" xlink:href="#DejaVuSans-50"/>
      </g>
     </g>
    </g>
    <g id="xtick_8">
     <g id="line2d_8">
      <path clip-path="url(#pc9cb75a7cb)" d="M 794.286649 165.1 
L 794.286649 7.2 
" style="fill:none;stroke:#ffffff;stroke-linecap:round;"/>
     </g>
     <g id="text_8">
      <!-- 34 -->
      <g style="fill:#262626;" transform="translate(787.287899 182.958281)scale(0.11 -0.11)">
       <use xlink:href="#DejaVuSans-51"/>
       <use x="63.623047" xlink:href="#DejaVuSans-52"/>
      </g>
     </g>
    </g>
    <g id="text_9">
     <!-- Age -->
     <g style="fill:#262626;" transform="translate(433.030337 198.364062)scale(0.12 -0.12)">
      <defs>
       <path d="M 34.1875 63.1875 
L 20.796875 26.90625 
L 47.609375 26.90625 
z
M 28.609375 72.90625 
L 39.796875 72.90625 
L 67.578125 0 
L 57.328125 0 
L 50.6875 18.703125 
L 17.828125 18.703125 
L 11.1875 0 
L 0.78125 0 
z
" id="DejaVuSans-65"/>
       <path d="M 45.40625 27.984375 
Q 45.40625 37.75 41.375 43.109375 
Q 37.359375 48.484375 30.078125 48.484375 
Q 22.859375 48.484375 18.828125 43.109375 
Q 14.796875 37.75 14.796875 27.984375 
Q 14.796875 18.265625 18.828125 12.890625 
Q 22.859375 7.515625 30.078125 7.515625 
Q 37.359375 7.515625 41.375 12.890625 
Q 45.40625 18.265625 45.40625 27.984375 
z
M 54.390625 6.78125 
Q 54.390625 -7.171875 48.1875 -13.984375 
Q 42 -20.796875 29.203125 -20.796875 
Q 24.46875 -20.796875 20.265625 -20.09375 
Q 16.0625 -19.390625 12.109375 -17.921875 
L 12.109375 -9.1875 
Q 16.0625 -11.328125 19.921875 -12.34375 
Q 23.78125 -13.375 27.78125 -13.375 
Q 36.625 -13.375 41.015625 -8.765625 
Q 45.40625 -4.15625 45.40625 5.171875 
L 45.40625 9.625 
Q 42.625 4.78125 38.28125 2.390625 
Q 33.9375 0 27.875 0 
Q 17.828125 0 11.671875 7.65625 
Q 5.515625 15.328125 5.515625 27.984375 
Q 5.515625 40.671875 11.671875 48.328125 
Q 17.828125 56 27.875 56 
Q 33.9375 56 38.28125 53.609375 
Q 42.625 51.21875 45.40625 46.390625 
L 45.40625 54.6875 
L 54.390625 54.6875 
z
" id="DejaVuSans-103"/>
       <path d="M 56.203125 29.59375 
L 56.203125 25.203125 
L 14.890625 25.203125 
Q 15.484375 15.921875 20.484375 11.0625 
Q 25.484375 6.203125 34.421875 6.203125 
Q 39.59375 6.203125 44.453125 7.46875 
Q 49.3125 8.734375 54.109375 11.28125 
L 54.109375 2.78125 
Q 49.265625 0.734375 44.1875 -0.34375 
Q 39.109375 -1.421875 33.890625 -1.421875 
Q 20.796875 -1.421875 13.15625 6.1875 
Q 5.515625 13.8125 5.515625 26.8125 
Q 5.515625 40.234375 12.765625 48.109375 
Q 20.015625 56 32.328125 56 
Q 43.359375 56 49.78125 48.890625 
Q 56.203125 41.796875 56.203125 29.59375 
z
M 47.21875 32.234375 
Q 47.125 39.59375 43.09375 43.984375 
Q 39.0625 48.390625 32.421875 48.390625 
Q 24.90625 48.390625 20.390625 44.140625 
Q 15.875 39.890625 15.1875 32.171875 
z
" id="DejaVuSans-101"/>
      </defs>
      <use xlink:href="#DejaVuSans-65"/>
      <use x="68.408203" xlink:href="#DejaVuSans-103"/>
      <use x="131.884766" xlink:href="#DejaVuSans-101"/>
     </g>
    </g>
   </g>
   <g id="matplotlib.axis_2">
    <g id="ytick_1">
     <g id="line2d_9">
      <path clip-path="url(#pc9cb75a7cb)" d="M 41.192188 165.1 
L 848.079111 165.1 
" style="fill:none;stroke:#ffffff;stroke-linecap:round;"/>
     </g>
     <g id="text_10">
      <!-- 0.00 -->
      <g style="fill:#262626;" transform="translate(7.2 169.279141)scale(0.11 -0.11)">
       <defs>
        <path d="M 10.6875 12.40625 
L 21 12.40625 
L 21 0 
L 10.6875 0 
z
" id="DejaVuSans-46"/>
       </defs>
       <use xlink:href="#DejaVuSans-48"/>
       <use x="63.623047" xlink:href="#DejaVuSans-46"/>
       <use x="95.410156" xlink:href="#DejaVuSans-48"/>
       <use x="159.033203" xlink:href="#DejaVuSans-48"/>
      </g>
     </g>
    </g>
    <g id="ytick_2">
     <g id="line2d_10">
      <path clip-path="url(#pc9cb75a7cb)" d="M 41.192188 130.779038 
L 848.079111 130.779038 
" style="fill:none;stroke:#ffffff;stroke-linecap:round;"/>
     </g>
     <g id="text_11">
      <!-- 0.01 -->
      <g style="fill:#262626;" transform="translate(7.2 134.958179)scale(0.11 -0.11)">
       <defs>
        <path d="M 12.40625 8.296875 
L 28.515625 8.296875 
L 28.515625 63.921875 
L 10.984375 60.40625 
L 10.984375 69.390625 
L 28.421875 72.90625 
L 38.28125 72.90625 
L 38.28125 8.296875 
L 54.390625 8.296875 
L 54.390625 0 
L 12.40625 0 
z
" id="DejaVuSans-49"/>
       </defs>
       <use xlink:href="#DejaVuSans-48"/>
       <use x="63.623047" xlink:href="#DejaVuSans-46"/>
       <use x="95.410156" xlink:href="#DejaVuSans-48"/>
       <use x="159.033203" xlink:href="#DejaVuSans-49"/>
      </g>
     </g>
    </g>
    <g id="ytick_3">
     <g id="line2d_11">
      <path clip-path="url(#pc9cb75a7cb)" d="M 41.192188 96.458076 
L 848.079111 96.458076 
" style="fill:none;stroke:#ffffff;stroke-linecap:round;"/>
     </g>
     <g id="text_12">
      <!-- 0.02 -->
      <g style="fill:#262626;" transform="translate(7.2 100.637217)scale(0.11 -0.11)">
       <use xlink:href="#DejaVuSans-48"/>
       <use x="63.623047" xlink:href="#DejaVuSans-46"/>
       <use x="95.410156" xlink:href="#DejaVuSans-48"/>
       <use x="159.033203" xlink:href="#DejaVuSans-50"/>
      </g>
     </g>
    </g>
    <g id="ytick_4">
     <g id="line2d_12">
      <path clip-path="url(#pc9cb75a7cb)" d="M 41.192188 62.137114 
L 848.079111 62.137114 
" style="fill:none;stroke:#ffffff;stroke-linecap:round;"/>
     </g>
     <g id="text_13">
      <!-- 0.03 -->
      <g style="fill:#262626;" transform="translate(7.2 66.316255)scale(0.11 -0.11)">
       <use xlink:href="#DejaVuSans-48"/>
       <use x="63.623047" xlink:href="#DejaVuSans-46"/>
       <use x="95.410156" xlink:href="#DejaVuSans-48"/>
       <use x="159.033203" xlink:href="#DejaVuSans-51"/>
      </g>
     </g>
    </g>
    <g id="ytick_5">
     <g id="line2d_13">
      <path clip-path="url(#pc9cb75a7cb)" d="M 41.192188 27.816153 
L 848.079111 27.816153 
" style="fill:none;stroke:#ffffff;stroke-linecap:round;"/>
     </g>
     <g id="text_14">
      <!-- 0.04 -->
      <g style="fill:#262626;" transform="translate(7.2 31.995293)scale(0.11 -0.11)">
       <use xlink:href="#DejaVuSans-48"/>
       <use x="63.623047" xlink:href="#DejaVuSans-46"/>
       <use x="95.410156" xlink:href="#DejaVuSans-48"/>
       <use x="159.033203" xlink:href="#DejaVuSans-52"/>
      </g>
     </g>
    </g>
   </g>
   <g id="PolyCollection_1">
    <path clip-path="url(#pc9cb75a7cb)" d="M -1558.819634 165.059344 
L -1558.819634 165.1 
L -1533.278128 165.1 
L -1507.736621 165.1 
L -1482.195115 165.1 
L -1456.653608 165.1 
L -1431.112102 165.1 
L -1405.570595 165.1 
L -1380.029089 165.1 
L -1354.487582 165.1 
L -1328.946076 165.1 
L -1303.404569 165.1 
L -1277.863063 165.1 
L -1252.321556 165.1 
L -1226.78005 165.1 
L -1201.238543 165.1 
L -1175.697037 165.1 
L -1150.15553 165.1 
L -1124.614023 165.1 
L -1099.072517 165.1 
L -1073.53101 165.1 
L -1047.989504 165.1 
L -1022.447997 165.1 
L -996.906491 165.1 
L -971.364984 165.1 
L -945.823478 165.1 
L -920.281971 165.1 
L -894.740465 165.1 
L -869.198958 165.1 
L -843.657452 165.1 
L -818.115945 165.1 
L -792.574439 165.1 
L -767.032932 165.1 
L -741.491426 165.1 
L -715.949919 165.1 
L -690.408413 165.1 
L -664.866906 165.1 
L -639.3254 165.1 
L -613.783893 165.1 
L -588.242386 165.1 
L -562.70088 165.1 
L -537.159373 165.1 
L -511.617867 165.1 
L -486.07636 165.1 
L -460.534854 165.1 
L -434.993347 165.1 
L -409.451841 165.1 
L -383.910334 165.1 
L -358.368828 165.1 
L -332.827321 165.1 
L -307.285815 165.1 
L -281.744308 165.1 
L -256.202802 165.1 
L -230.661295 165.1 
L -205.119789 165.1 
L -179.578282 165.1 
L -154.036776 165.1 
L -128.495269 165.1 
L -102.953763 165.1 
L -77.412256 165.1 
L -51.870749 165.1 
L -26.329243 165.1 
L -0.787736 165.1 
L 24.75377 165.1 
L 50.295277 165.1 
L 75.836783 165.1 
L 101.37829 165.1 
L 126.919796 165.1 
L 152.461303 165.1 
L 178.002809 165.1 
L 203.544316 165.1 
L 229.085822 165.1 
L 254.627329 165.1 
L 280.168835 165.1 
L 305.710342 165.1 
L 331.251848 165.1 
L 356.793355 165.1 
L 382.334861 165.1 
L 407.876368 165.1 
L 433.417874 165.1 
L 458.959381 165.1 
L 484.500888 165.1 
L 510.042394 165.1 
L 535.583901 165.1 
L 561.125407 165.1 
L 586.666914 165.1 
L 612.20842 165.1 
L 637.749927 165.1 
L 663.291433 165.1 
L 688.83294 165.1 
L 714.374446 165.1 
L 739.915953 165.1 
L 765.457459 165.1 
L 790.998966 165.1 
L 816.540472 165.1 
L 842.081979 165.1 
L 867.623485 165.1 
L 893.164992 165.1 
L 918.706498 165.1 
L 944.248005 165.1 
L 969.789511 165.1 
L 995.331018 165.1 
L 1020.872524 165.1 
L 1046.414031 165.1 
L 1071.955538 165.1 
L 1097.497044 165.1 
L 1123.038551 165.1 
L 1148.580057 165.1 
L 1174.121564 165.1 
L 1199.66307 165.1 
L 1225.204577 165.1 
L 1250.746083 165.1 
L 1276.28759 165.1 
L 1301.829096 165.1 
L 1327.370603 165.1 
L 1352.912109 165.1 
L 1378.453616 165.1 
L 1403.995122 165.1 
L 1429.536629 165.1 
L 1455.078135 165.1 
L 1480.619642 165.1 
L 1506.161148 165.1 
L 1531.702655 165.1 
L 1557.244161 165.1 
L 1582.785668 165.1 
L 1608.327175 165.1 
L 1633.868681 165.1 
L 1659.410188 165.1 
L 1684.951694 165.1 
L 1710.493201 165.1 
L 1736.034707 165.1 
L 1761.576214 165.1 
L 1787.11772 165.1 
L 1812.659227 165.1 
L 1838.200733 165.1 
L 1863.74224 165.1 
L 1889.283746 165.1 
L 1914.825253 165.1 
L 1940.366759 165.1 
L 1965.908266 165.1 
L 1991.449772 165.1 
L 2016.991279 165.1 
L 2042.532785 165.1 
L 2068.074292 165.1 
L 2093.615798 165.1 
L 2119.157305 165.1 
L 2144.698812 165.1 
L 2170.240318 165.1 
L 2195.781825 165.1 
L 2221.323331 165.1 
L 2246.864838 165.1 
L 2272.406344 165.1 
L 2297.947851 165.1 
L 2323.489357 165.1 
L 2349.030864 165.1 
L 2374.57237 165.1 
L 2400.113877 165.1 
L 2425.655383 165.1 
L 2451.19689 165.1 
L 2476.738396 165.1 
L 2502.279903 165.1 
L 2527.821409 165.1 
L 2553.362916 165.1 
L 2578.904422 165.1 
L 2604.445929 165.1 
L 2629.987435 165.1 
L 2655.528942 165.1 
L 2681.070449 165.1 
L 2706.611955 165.1 
L 2732.153462 165.1 
L 2757.694968 165.1 
L 2783.236475 165.1 
L 2808.777981 165.1 
L 2834.319488 165.1 
L 2859.860994 165.1 
L 2885.402501 165.1 
L 2910.944007 165.1 
L 2936.485514 165.1 
L 2962.02702 165.1 
L 2987.568527 165.1 
L 3013.110033 165.1 
L 3038.65154 165.1 
L 3064.193046 165.1 
L 3089.734553 165.1 
L 3115.276059 165.1 
L 3140.817566 165.1 
L 3166.359072 165.1 
L 3191.900579 165.1 
L 3217.442085 165.1 
L 3242.983592 165.1 
L 3268.525099 165.1 
L 3294.066605 165.1 
L 3319.608112 165.1 
L 3345.149618 165.1 
L 3370.691125 165.1 
L 3396.232631 165.1 
L 3421.774138 165.1 
L 3447.315644 165.1 
L 3472.857151 165.1 
L 3498.398657 165.1 
L 3523.940164 165.1 
L 3523.940164 165.090833 
L 3523.940164 165.090833 
L 3498.398657 165.086201 
L 3472.857151 165.079545 
L 3447.315644 165.070135 
L 3421.774138 165.057046 
L 3396.232631 165.039128 
L 3370.691125 165.014985 
L 3345.149618 164.982964 
L 3319.608112 164.941152 
L 3294.066605 164.887398 
L 3268.525099 164.819357 
L 3242.983592 164.734556 
L 3217.442085 164.630496 
L 3191.900579 164.504783 
L 3166.359072 164.355284 
L 3140.817566 164.180311 
L 3115.276059 163.978805 
L 3089.734553 163.750529 
L 3064.193046 163.496219 
L 3038.65154 163.217703 
L 3013.110033 162.917936 
L 2987.568527 162.600947 
L 2962.02702 162.27168 
L 2936.485514 161.935721 
L 2910.944007 161.598928 
L 2885.402501 161.266979 
L 2859.860994 160.944895 
L 2834.319488 160.636568 
L 2808.777981 160.344371 
L 2783.236475 160.068891 
L 2757.694968 159.808834 
L 2732.153462 159.561124 
L 2706.611955 159.321195 
L 2681.070449 159.083447 
L 2655.528942 158.841822 
L 2629.987435 158.590421 
L 2604.445929 158.324098 
L 2578.904422 158.038957 
L 2553.362916 157.7327 
L 2527.821409 157.404787 
L 2502.279903 157.056417 
L 2476.738396 156.690322 
L 2451.19689 156.310441 
L 2425.655383 155.9215 
L 2400.113877 155.528561 
L 2374.57237 155.136583 
L 2349.030864 154.750032 
L 2323.489357 154.372565 
L 2297.947851 154.006805 
L 2272.406344 153.65419 
L 2246.864838 153.314911 
L 2221.323331 152.987921 
L 2195.781825 152.670995 
L 2170.240318 152.360847 
L 2144.698812 152.053281 
L 2119.157305 151.74337 
L 2093.615798 151.425666 
L 2068.074292 151.094408 
L 2042.532785 150.743743 
L 2016.991279 150.367935 
L 1991.449772 149.961563 
L 1965.908266 149.519685 
L 1940.366759 149.037989 
L 1914.825253 148.512899 
L 1889.283746 147.941651 
L 1863.74224 147.322351 
L 1838.200733 146.653998 
L 1812.659227 145.936493 
L 1787.11772 145.170655 
L 1761.576214 144.358217 
L 1736.034707 143.501846 
L 1710.493201 142.605153 
L 1684.951694 141.672699 
L 1659.410188 140.709983 
L 1633.868681 139.723379 
L 1608.327175 138.720004 
L 1582.785668 137.707505 
L 1557.244161 136.693736 
L 1531.702655 135.686347 
L 1506.161148 134.692294 
L 1480.619642 133.717314 
L 1455.078135 132.765405 
L 1429.536629 131.838371 
L 1403.995122 130.935474 
L 1378.453616 130.053217 
L 1352.912109 129.185265 
L 1327.370603 128.322479 
L 1301.829096 127.453004 
L 1276.28759 126.562348 
L 1250.746083 125.633356 
L 1225.204577 124.646034 
L 1199.66307 123.577152 
L 1174.121564 122.399646 
L 1148.580057 121.081861 
L 1123.038551 119.586772 
L 1097.497044 117.871342 
L 1071.955538 115.886288 
L 1046.414031 113.576507 
L 1020.872524 110.882462 
L 995.331018 107.742763 
L 969.789511 104.098105 
L 944.248005 99.896568 
L 918.706498 95.100099 
L 893.164992 89.691755 
L 867.623485 83.68306 
L 842.081979 77.120606 
L 816.540472 70.090921 
L 790.998966 62.722607 
L 765.457459 55.184887 
L 739.915953 47.682024 
L 714.374446 40.443517 
L 688.83294 33.710499 
L 663.291433 27.719357 
L 637.749927 22.684066 
L 612.20842 18.779053 
L 586.666914 16.124507 
L 561.125407 14.775902 
L 535.583901 14.719048 
L 510.042394 15.871363 
L 484.500888 18.089337 
L 458.959381 21.181372 
L 433.417874 24.924622 
L 407.876368 29.083935 
L 382.334861 33.430936 
L 356.793355 37.761278 
L 331.251848 41.90852 
L 305.710342 45.753506 
L 280.168835 49.228771 
L 254.627329 52.318019 
L 229.085822 55.051268 
L 203.544316 57.496572 
L 178.002809 59.749488 
L 152.461303 61.921469 
L 126.919796 64.128319 
L 101.37829 66.479641 
L 75.836783 69.069997 
L 50.295277 71.972232 
L 24.75377 75.233157 
L -0.787736 78.871597 
L -26.329243 82.878604 
L -51.870749 87.21954 
L -77.412256 91.837656 
L -102.953763 96.658749 
L -128.495269 101.596492 
L -154.036776 106.558057 
L -179.578282 111.44968 
L -205.119789 116.181878 
L -230.661295 120.674056 
L -256.202802 124.858292 
L -281.744308 128.682169 
L -307.285815 132.110504 
L -332.827321 135.125958 
L -358.368828 137.728511 
L -383.910334 139.933896 
L -409.451841 141.771128 
L -434.993347 143.279362 
L -460.534854 144.504339 
L -486.07636 145.494735 
L -511.617867 146.29873 
L -537.159373 146.961086 
L -562.70088 147.520951 
L -588.242386 148.010549 
L -613.783893 148.454783 
L -639.3254 148.871677 
L -664.866906 149.273498 
L -690.408413 149.668319 
L -715.949919 150.061728 
L -741.491426 150.45843 
L -767.032932 150.863494 
L -792.574439 151.283092 
L -818.115945 151.724651 
L -843.657452 152.196459 
L -869.198958 152.706838 
L -894.740465 153.263047 
L -920.281971 153.870144 
L -945.823478 154.529999 
L -971.364984 155.240619 
L -996.906491 155.99592 
L -1022.447997 156.785956 
L -1047.989504 157.597581 
L -1073.53101 158.415459 
L -1099.072517 159.223266 
L -1124.614023 160.004951 
L -1150.15553 160.74589 
L -1175.697037 161.433834 
L -1201.238543 162.059551 
L -1226.78005 162.617145 
L -1252.321556 163.104057 
L -1277.863063 163.520789 
L -1303.404569 163.870428 
L -1328.946076 164.158052 
L -1354.487582 164.390083 
L -1380.029089 164.573679 
L -1405.570595 164.716188 
L -1431.112102 164.824717 
L -1456.653608 164.90582 
L -1482.195115 164.965299 
L -1507.736621 165.008112 
L -1533.278128 165.038362 
L -1558.819634 165.059344 
z
" style="fill:#4c72b0;fill-opacity:0.25;stroke:#4c72b0;"/>
   </g>
   <g id="PolyCollection_2">
    <path clip-path="url(#pc9cb75a7cb)" d="M -1717.17749 164.986147 
L -1717.17749 165.1 
L -1688.579346 165.1 
L -1659.981202 165.1 
L -1631.383058 165.1 
L -1602.784914 165.1 
L -1574.18677 165.1 
L -1545.588626 165.1 
L -1516.990482 165.1 
L -1488.392338 165.1 
L -1459.794194 165.1 
L -1431.19605 165.1 
L -1402.597906 165.1 
L -1373.999762 165.1 
L -1345.401618 165.1 
L -1316.803474 165.1 
L -1288.20533 165.1 
L -1259.607186 165.1 
L -1231.009042 165.1 
L -1202.410898 165.1 
L -1173.812754 165.1 
L -1145.21461 165.1 
L -1116.616466 165.1 
L -1088.018322 165.1 
L -1059.420178 165.1 
L -1030.822034 165.1 
L -1002.22389 165.1 
L -973.625746 165.1 
L -945.027602 165.1 
L -916.429459 165.1 
L -887.831315 165.1 
L -859.233171 165.1 
L -830.635027 165.1 
L -802.036883 165.1 
L -773.438739 165.1 
L -744.840595 165.1 
L -716.242451 165.1 
L -687.644307 165.1 
L -659.046163 165.1 
L -630.448019 165.1 
L -601.849875 165.1 
L -573.251731 165.1 
L -544.653587 165.1 
L -516.055443 165.1 
L -487.457299 165.1 
L -458.859155 165.1 
L -430.261011 165.1 
L -401.662867 165.1 
L -373.064723 165.1 
L -344.466579 165.1 
L -315.868435 165.1 
L -287.270291 165.1 
L -258.672147 165.1 
L -230.074003 165.1 
L -201.475859 165.1 
L -172.877715 165.1 
L -144.279571 165.1 
L -115.681427 165.1 
L -87.083283 165.1 
L -58.485139 165.1 
L -29.886995 165.1 
L -1.288851 165.1 
L 27.309293 165.1 
L 55.907437 165.1 
L 84.505581 165.1 
L 113.103725 165.1 
L 141.701868 165.1 
L 170.300012 165.1 
L 198.898156 165.1 
L 227.4963 165.1 
L 256.094444 165.1 
L 284.692588 165.1 
L 313.290732 165.1 
L 341.888876 165.1 
L 370.48702 165.1 
L 399.085164 165.1 
L 427.683308 165.1 
L 456.281452 165.1 
L 484.879596 165.1 
L 513.47774 165.1 
L 542.075884 165.1 
L 570.674028 165.1 
L 599.272172 165.1 
L 627.870316 165.1 
L 656.46846 165.1 
L 685.066604 165.1 
L 713.664748 165.1 
L 742.262892 165.1 
L 770.861036 165.1 
L 799.45918 165.1 
L 828.057324 165.1 
L 856.655468 165.1 
L 885.253612 165.1 
L 913.851756 165.1 
L 942.4499 165.1 
L 971.048044 165.1 
L 999.646188 165.1 
L 1028.244332 165.1 
L 1056.842476 165.1 
L 1085.44062 165.1 
L 1114.038764 165.1 
L 1142.636908 165.1 
L 1171.235051 165.1 
L 1199.833195 165.1 
L 1228.431339 165.1 
L 1257.029483 165.1 
L 1285.627627 165.1 
L 1314.225771 165.1 
L 1342.823915 165.1 
L 1371.422059 165.1 
L 1400.020203 165.1 
L 1428.618347 165.1 
L 1457.216491 165.1 
L 1485.814635 165.1 
L 1514.412779 165.1 
L 1543.010923 165.1 
L 1571.609067 165.1 
L 1600.207211 165.1 
L 1628.805355 165.1 
L 1657.403499 165.1 
L 1686.001643 165.1 
L 1714.599787 165.1 
L 1743.197931 165.1 
L 1771.796075 165.1 
L 1800.394219 165.1 
L 1828.992363 165.1 
L 1857.590507 165.1 
L 1886.188651 165.1 
L 1914.786795 165.1 
L 1943.384939 165.1 
L 1971.983083 165.1 
L 2000.581227 165.1 
L 2029.179371 165.1 
L 2057.777515 165.1 
L 2086.375659 165.1 
L 2114.973803 165.1 
L 2143.571947 165.1 
L 2172.170091 165.1 
L 2200.768234 165.1 
L 2229.366378 165.1 
L 2257.964522 165.1 
L 2286.562666 165.1 
L 2315.16081 165.1 
L 2343.758954 165.1 
L 2372.357098 165.1 
L 2400.955242 165.1 
L 2429.553386 165.1 
L 2458.15153 165.1 
L 2486.749674 165.1 
L 2515.347818 165.1 
L 2543.945962 165.1 
L 2572.544106 165.1 
L 2601.14225 165.1 
L 2629.740394 165.1 
L 2658.338538 165.1 
L 2686.936682 165.1 
L 2715.534826 165.1 
L 2744.13297 165.1 
L 2772.731114 165.1 
L 2801.329258 165.1 
L 2829.927402 165.1 
L 2858.525546 165.1 
L 2887.12369 165.1 
L 2915.721834 165.1 
L 2944.319978 165.1 
L 2972.918122 165.1 
L 3001.516266 165.1 
L 3030.11441 165.1 
L 3058.712554 165.1 
L 3087.310698 165.1 
L 3115.908842 165.1 
L 3144.506986 165.1 
L 3173.10513 165.1 
L 3201.703274 165.1 
L 3230.301417 165.1 
L 3258.899561 165.1 
L 3287.497705 165.1 
L 3316.095849 165.1 
L 3344.693993 165.1 
L 3373.292137 165.1 
L 3401.890281 165.1 
L 3430.488425 165.1 
L 3459.086569 165.1 
L 3487.684713 165.1 
L 3516.282857 165.1 
L 3544.881001 165.1 
L 3573.479145 165.1 
L 3602.077289 165.1 
L 3630.675433 165.1 
L 3659.273577 165.1 
L 3687.871721 165.1 
L 3716.469865 165.1 
L 3745.068009 165.1 
L 3773.666153 165.1 
L 3802.264297 165.1 
L 3830.862441 165.1 
L 3859.460585 165.1 
L 3888.058729 165.1 
L 3916.656873 165.1 
L 3945.255017 165.1 
L 3973.853161 165.1 
L 3973.853161 165.089821 
L 3973.853161 165.089821 
L 3945.255017 165.085445 
L 3916.656873 165.079493 
L 3888.058729 165.071532 
L 3859.460585 165.061062 
L 3830.862441 165.047523 
L 3802.264297 165.030315 
L 3773.666153 165.008826 
L 3745.068009 164.982462 
L 3716.469865 164.950702 
L 3687.871721 164.913146 
L 3659.273577 164.869581 
L 3630.675433 164.820033 
L 3602.077289 164.76483 
L 3573.479145 164.704638 
L 3544.881001 164.640489 
L 3516.282857 164.573779 
L 3487.684713 164.506236 
L 3459.086569 164.439863 
L 3430.488425 164.376847 
L 3401.890281 164.319438 
L 3373.292137 164.269823 
L 3344.693993 164.229975 
L 3316.095849 164.201525 
L 3287.497705 164.185631 
L 3258.899561 164.182889 
L 3230.301417 164.193269 
L 3201.703274 164.216091 
L 3173.10513 164.250041 
L 3144.506986 164.293222 
L 3115.908842 164.343227 
L 3087.310698 164.39723 
L 3058.712554 164.452081 
L 3030.11441 164.504393 
L 3001.516266 164.550614 
L 2972.918122 164.587076 
L 2944.319978 164.610032 
L 2915.721834 164.615663 
L 2887.12369 164.600088 
L 2858.525546 164.559371 
L 2829.927402 164.489543 
L 2801.329258 164.386649 
L 2772.731114 164.246828 
L 2744.13297 164.066435 
L 2715.534826 163.842195 
L 2686.936682 163.571386 
L 2658.338538 163.252033 
L 2629.740394 162.883105 
L 2601.14225 162.464668 
L 2572.544106 161.997999 
L 2543.945962 161.485615 
L 2515.347818 160.931225 
L 2486.749674 160.339571 
L 2458.15153 159.716185 
L 2429.553386 159.067055 
L 2400.955242 158.398238 
L 2372.357098 157.715437 
L 2343.758954 157.023583 
L 2315.16081 156.326466 
L 2286.562666 155.626439 
L 2257.964522 154.924235 
L 2229.366378 154.218912 
L 2200.768234 153.507943 
L 2172.170091 152.78745 
L 2143.571947 152.052564 
L 2114.973803 151.297896 
L 2086.375659 150.518091 
L 2057.777515 149.70841 
L 2029.179371 148.865311 
L 2000.581227 147.98698 
L 1971.983083 147.073755 
L 1943.384939 146.128408 
L 1914.786795 145.156253 
L 1886.188651 144.165035 
L 1857.590507 143.164602 
L 1828.992363 142.16636 
L 1800.394219 141.182524 
L 1771.796075 140.225217 
L 1743.197931 139.305459 
L 1714.599787 138.432137 
L 1686.001643 137.611017 
L 1657.403499 136.843887 
L 1628.805355 136.127901 
L 1600.207211 135.455183 
L 1571.609067 134.812723 
L 1543.010923 134.182581 
L 1514.412779 133.542378 
L 1485.814635 132.866052 
L 1457.216491 132.124816 
L 1428.618347 131.288257 
L 1400.020203 130.325534 
L 1371.422059 129.206595 
L 1342.823915 127.903391 
L 1314.225771 126.39105 
L 1285.627627 124.648976 
L 1257.029483 122.661876 
L 1228.431339 120.420682 
L 1199.833195 117.923344 
L 1171.235051 115.175462 
L 1142.636908 112.190707 
L 1114.038764 108.99097 
L 1085.44062 105.606203 
L 1056.842476 102.073886 
L 1028.244332 98.438116 
L 999.646188 94.748314 
L 971.048044 91.057585 
L 942.4499 87.420822 
L 913.851756 83.892633 
L 885.253612 80.525226 
L 856.655468 77.366359 
L 828.057324 74.457498 
L 799.45918 71.832247 
L 770.861036 69.515161 
L 742.262892 67.520964 
L 713.664748 65.854215 
L 685.066604 64.509425 
L 656.46846 63.471631 
L 627.870316 62.717404 
L 599.272172 62.216282 
L 570.674028 61.932608 
L 542.075884 61.827697 
L 513.47774 61.862294 
L 484.879596 61.999182 
L 456.281452 62.205818 
L 427.683308 62.456802 
L 399.085164 62.736001 
L 370.48702 63.038106 
L 341.888876 63.369468 
L 313.290732 63.748063 
L 284.692588 64.202542 
L 256.094444 64.770373 
L 227.4963 65.495199 
L 198.898156 66.423586 
L 170.300012 67.601433 
L 141.701868 69.070323 
L 113.103725 70.864122 
L 84.505581 73.006084 
L 55.907437 75.506694 
L 27.309293 78.362383 
L -1.288851 81.555171 
L -29.886995 85.053225 
L -58.485139 88.812213 
L -87.083283 92.777315 
L -115.681427 96.885689 
L -144.279571 101.069201 
L -172.877715 105.25722 
L -201.475859 109.379323 
L -230.074003 113.367769 
L -258.672147 117.159675 
L -287.270291 120.698822 
L -315.868435 123.937105 
L -344.466579 126.835609 
L -373.064723 129.365369 
L -401.662867 131.507826 
L -430.261011 133.255034 
L -458.859155 134.609635 
L -487.457299 135.584629 
L -516.055443 136.202945 
L -544.653587 136.496815 
L -573.251731 136.506936 
L -601.849875 136.281404 
L -630.448019 135.874407 
L -659.046163 135.344664 
L -687.644307 134.753622 
L -716.242451 134.163439 
L -744.840595 133.634794 
L -773.438739 133.224619 
L -802.036883 132.983853 
L -830.635027 132.955345 
L -859.233171 133.172032 
L -887.831315 133.655552 
L -916.429459 134.415379 
L -945.027602 135.448584 
L -973.625746 136.74026 
L -1002.22389 138.264599 
L -1030.822034 139.986561 
L -1059.420178 141.864017 
L -1088.018322 143.85022 
L -1116.616466 145.896421 
L -1145.21461 147.954438 
L -1173.812754 149.979015 
L -1202.410898 151.929799 
L -1231.009042 153.772849 
L -1259.607186 155.481603 
L -1288.20533 157.037283 
L -1316.803474 158.428797 
L -1345.401618 159.652187 
L -1373.999762 160.709739 
L -1402.597906 161.608866 
L -1431.19605 162.360878 
L -1459.794194 162.979743 
L -1488.392338 163.480937 
L -1516.990482 163.880436 
L -1545.588626 164.193888 
L -1574.18677 164.436002 
L -1602.784914 164.620119 
L -1631.383058 164.757976 
L -1659.981202 164.859611 
L -1688.579346 164.933397 
L -1717.17749 164.986147 
z
" style="fill:#dd8452;fill-opacity:0.25;stroke:#dd8452;"/>
   </g>
   <g id="patch_3">
    <path d="M 41.192188 165.1 
L 41.192188 7.2 
" style="fill:none;stroke:#ffffff;stroke-linecap:square;stroke-linejoin:miter;stroke-width:1.25;"/>
   </g>
   <g id="patch_4">
    <path d="M 41.192188 165.1 
L 848.079111 165.1 
" style="fill:none;stroke:#ffffff;stroke-linecap:square;stroke-linejoin:miter;stroke-width:1.25;"/>
   </g>
  </g>
  <g id="legend_1">
   <g id="text_15">
    <!-- Survived -->
    <g style="fill:#262626;" transform="translate(857.987736 91.195156)scale(0.12 -0.12)">
     <defs>
      <path d="M 53.515625 70.515625 
L 53.515625 60.890625 
Q 47.90625 63.578125 42.921875 64.890625 
Q 37.9375 66.21875 33.296875 66.21875 
Q 25.25 66.21875 20.875 63.09375 
Q 16.5 59.96875 16.5 54.203125 
Q 16.5 49.359375 19.40625 46.890625 
Q 22.3125 44.4375 30.421875 42.921875 
L 36.375 41.703125 
Q 47.40625 39.59375 52.65625 34.296875 
Q 57.90625 29 57.90625 20.125 
Q 57.90625 9.515625 50.796875 4.046875 
Q 43.703125 -1.421875 29.984375 -1.421875 
Q 24.8125 -1.421875 18.96875 -0.25 
Q 13.140625 0.921875 6.890625 3.21875 
L 6.890625 13.375 
Q 12.890625 10.015625 18.65625 8.296875 
Q 24.421875 6.59375 29.984375 6.59375 
Q 38.421875 6.59375 43.015625 9.90625 
Q 47.609375 13.234375 47.609375 19.390625 
Q 47.609375 24.75 44.3125 27.78125 
Q 41.015625 30.8125 33.5 32.328125 
L 27.484375 33.5 
Q 16.453125 35.6875 11.515625 40.375 
Q 6.59375 45.0625 6.59375 53.421875 
Q 6.59375 63.09375 13.40625 68.65625 
Q 20.21875 74.21875 32.171875 74.21875 
Q 37.3125 74.21875 42.625 73.28125 
Q 47.953125 72.359375 53.515625 70.515625 
z
" id="DejaVuSans-83"/>
      <path d="M 8.5 21.578125 
L 8.5 54.6875 
L 17.484375 54.6875 
L 17.484375 21.921875 
Q 17.484375 14.15625 20.5 10.265625 
Q 23.53125 6.390625 29.59375 6.390625 
Q 36.859375 6.390625 41.078125 11.03125 
Q 45.3125 15.671875 45.3125 23.6875 
L 45.3125 54.6875 
L 54.296875 54.6875 
L 54.296875 0 
L 45.3125 0 
L 45.3125 8.40625 
Q 42.046875 3.421875 37.71875 1 
Q 33.40625 -1.421875 27.6875 -1.421875 
Q 18.265625 -1.421875 13.375 4.4375 
Q 8.5 10.296875 8.5 21.578125 
z
M 31.109375 56 
z
" id="DejaVuSans-117"/>
      <path d="M 41.109375 46.296875 
Q 39.59375 47.171875 37.8125 47.578125 
Q 36.03125 48 33.890625 48 
Q 26.265625 48 22.1875 43.046875 
Q 18.109375 38.09375 18.109375 28.8125 
L 18.109375 0 
L 9.078125 0 
L 9.078125 54.6875 
L 18.109375 54.6875 
L 18.109375 46.1875 
Q 20.953125 51.171875 25.484375 53.578125 
Q 30.03125 56 36.53125 56 
Q 37.453125 56 38.578125 55.875 
Q 39.703125 55.765625 41.0625 55.515625 
z
" id="DejaVuSans-114"/>
      <path d="M 2.984375 54.6875 
L 12.5 54.6875 
L 29.59375 8.796875 
L 46.6875 54.6875 
L 56.203125 54.6875 
L 35.6875 0 
L 23.484375 0 
z
" id="DejaVuSans-118"/>
      <path d="M 9.421875 54.6875 
L 18.40625 54.6875 
L 18.40625 0 
L 9.421875 0 
z
M 9.421875 75.984375 
L 18.40625 75.984375 
L 18.40625 64.59375 
L 9.421875 64.59375 
z
" id="DejaVuSans-105"/>
      <path d="M 45.40625 46.390625 
L 45.40625 75.984375 
L 54.390625 75.984375 
L 54.390625 0 
L 45.40625 0 
L 45.40625 8.203125 
Q 42.578125 3.328125 38.25 0.953125 
Q 33.9375 -1.421875 27.875 -1.421875 
Q 17.96875 -1.421875 11.734375 6.484375 
Q 5.515625 14.40625 5.515625 27.296875 
Q 5.515625 40.1875 11.734375 48.09375 
Q 17.96875 56 27.875 56 
Q 33.9375 56 38.25 53.625 
Q 42.578125 51.265625 45.40625 46.390625 
z
M 14.796875 27.296875 
Q 14.796875 17.390625 18.875 11.75 
Q 22.953125 6.109375 30.078125 6.109375 
Q 37.203125 6.109375 41.296875 11.75 
Q 45.40625 17.390625 45.40625 27.296875 
Q 45.40625 37.203125 41.296875 42.84375 
Q 37.203125 48.484375 30.078125 48.484375 
Q 22.953125 48.484375 18.875 42.84375 
Q 14.796875 37.203125 14.796875 27.296875 
z
" id="DejaVuSans-100"/>
     </defs>
     <use xlink:href="#DejaVuSans-83"/>
     <use x="63.476562" xlink:href="#DejaVuSans-117"/>
     <use x="126.855469" xlink:href="#DejaVuSans-114"/>
     <use x="167.96875" xlink:href="#DejaVuSans-118"/>
     <use x="227.148438" xlink:href="#DejaVuSans-105"/>
     <use x="254.931641" xlink:href="#DejaVuSans-118"/>
     <use x="314.111328" xlink:href="#DejaVuSans-101"/>
     <use x="375.634766" xlink:href="#DejaVuSans-100"/>
    </g>
   </g>
   <g id="patch_5">
    <path d="M 865.436798 107.549062 
L 887.436798 107.549062 
L 887.436798 99.849062 
L 865.436798 99.849062 
z
" style="fill:#4c72b0;fill-opacity:0.25;stroke:#4c72b0;stroke-linejoin:miter;"/>
   </g>
   <g id="text_16">
    <!-- 0 -->
    <g style="fill:#262626;" transform="translate(896.236798 107.549062)scale(0.11 -0.11)">
     <use xlink:href="#DejaVuSans-48"/>
    </g>
   </g>
   <g id="patch_6">
    <path d="M 865.436798 123.695 
L 887.436798 123.695 
L 887.436798 115.995 
L 865.436798 115.995 
z
" style="fill:#dd8452;fill-opacity:0.25;stroke:#dd8452;stroke-linejoin:miter;"/>
   </g>
   <g id="text_17">
    <!-- 1 -->
    <g style="fill:#262626;" transform="translate(896.236798 123.695)scale(0.11 -0.11)">
     <use xlink:href="#DejaVuSans-49"/>
    </g>
   </g>
  </g>
 </g>
 <defs>
  <clipPath id="pc9cb75a7cb">
   <rect height="157.9" width="806.886923" x="41.192188" y="7.2"/>
  </clipPath>
 </defs>
</svg>
