<?xml version="1.0" encoding="utf-8" standalone="no"?>
<!DOCTYPE svg PUBLIC "-//W3C//DTD SVG 1.1//EN"
  "http://www.w3.org/Graphics/SVG/1.1/DTD/svg11.dtd">
<!-- Created with matplotlib (https://matplotlib.org/) -->
<svg height="208.059687pt" version="1.1" viewBox="0 0 921.08453 208.059687" width="921.08453pt" xmlns="http://www.w3.org/2000/svg" xmlns:xlink="http://www.w3.org/1999/xlink">
 <metadata>
  <rdf:RDF xmlns:cc="http://creativecommons.org/ns#" xmlns:dc="http://purl.org/dc/elements/1.1/" xmlns:rdf="http://www.w3.org/1999/02/22-rdf-syntax-ns#">
   <cc:Work>
    <dc:type rdf:resource="http://purl.org/dc/dcmitype/StillImage"/>
    <dc:date>2021-06-21T14:05:11.788358</dc:date>
    <dc:format>image/svg+xml</dc:format>
    <dc:creator>
     <cc:Agent>
      <dc:title>Matplotlib v3.3.4, https://matplotlib.org/</dc:title>
     </cc:Agent>
    </dc:creator>
   </cc:Work>
  </rdf:RDF>
 </metadata>
 <defs>
  <style type="text/css">*{stroke-linecap:butt;stroke-linejoin:round;}</style>
 </defs>
 <g id="figure_1">
  <g id="patch_1">
   <path d="M 0 208.059687 
L 921.08453 208.059687 
L 921.08453 0 
L 0 0 
z
" style="fill:none;"/>
  </g>
  <g id="axes_1">
   <g id="patch_2">
    <path d="M 34.193438 165.1 
L 848.57903 165.1 
L 848.57903 7.2 
L 34.193438 7.2 
z
" style="fill:#eaeaf2;"/>
   </g>
   <g id="matplotlib.axis_1">
    <g id="xtick_1">
     <g id="line2d_1">
      <path clip-path="url(#p8dd6162e2e)" d="M 34.193438 165.1 
L 34.193438 7.2 
" style="fill:none;stroke:#ffffff;stroke-linecap:round;"/>
     </g>
     <g id="text_1">
      <!-- 0.0 -->
      <g style="fill:#262626;" transform="translate(25.446719 182.958281)scale(0.11 -0.11)">
       <defs>
        <path d="M 31.78125 66.40625 
Q 24.171875 66.40625 20.328125 58.90625 
Q 16.5 51.421875 16.5 36.375 
Q 16.5 21.390625 20.328125 13.890625 
Q 24.171875 6.390625 31.78125 6.390625 
Q 39.453125 6.390625 43.28125 13.890625 
Q 47.125 21.390625 47.125 36.375 
Q 47.125 51.421875 43.28125 58.90625 
Q 39.453125 66.40625 31.78125 66.40625 
z
M 31.78125 74.21875 
Q 44.046875 74.21875 50.515625 64.515625 
Q 56.984375 54.828125 56.984375 36.375 
Q 56.984375 17.96875 50.515625 8.265625 
Q 44.046875 -1.421875 31.78125 -1.421875 
Q 19.53125 -1.421875 13.0625 8.265625 
Q 6.59375 17.96875 6.59375 36.375 
Q 6.59375 54.828125 13.0625 64.515625 
Q 19.53125 74.21875 31.78125 74.21875 
z
" id="DejaVuSans-48"/>
        <path d="M 10.6875 12.40625 
L 21 12.40625 
L 21 0 
L 10.6875 0 
z
" id="DejaVuSans-46"/>
       </defs>
       <use xlink:href="#DejaVuSans-48"/>
       <use x="63.623047" xlink:href="#DejaVuSans-46"/>
       <use x="95.410156" xlink:href="#DejaVuSans-48"/>
      </g>
     </g>
    </g>
    <g id="xtick_2">
     <g id="line2d_2">
      <path clip-path="url(#p8dd6162e2e)" d="M 169.92437 165.1 
L 169.92437 7.2 
" style="fill:none;stroke:#ffffff;stroke-linecap:round;"/>
     </g>
     <g id="text_2">
      <!-- 0.5 -->
      <g style="fill:#262626;" transform="translate(161.177651 182.958281)scale(0.11 -0.11)">
       <defs>
        <path d="M 10.796875 72.90625 
L 49.515625 72.90625 
L 49.515625 64.59375 
L 19.828125 64.59375 
L 19.828125 46.734375 
Q 21.96875 47.46875 24.109375 47.828125 
Q 26.265625 48.1875 28.421875 48.1875 
Q 40.625 48.1875 47.75 41.5 
Q 54.890625 34.8125 54.890625 23.390625 
Q 54.890625 11.625 47.5625 5.09375 
Q 40.234375 -1.421875 26.90625 -1.421875 
Q 22.3125 -1.421875 17.546875 -0.640625 
Q 12.796875 0.140625 7.71875 1.703125 
L 7.71875 11.625 
Q 12.109375 9.234375 16.796875 8.0625 
Q 21.484375 6.890625 26.703125 6.890625 
Q 35.15625 6.890625 40.078125 11.328125 
Q 45.015625 15.765625 45.015625 23.390625 
Q 45.015625 31 40.078125 35.4375 
Q 35.15625 39.890625 26.703125 39.890625 
Q 22.75 39.890625 18.8125 39.015625 
Q 14.890625 38.140625 10.796875 36.28125 
z
" id="DejaVuSans-53"/>
       </defs>
       <use xlink:href="#DejaVuSans-48"/>
       <use x="63.623047" xlink:href="#DejaVuSans-46"/>
       <use x="95.410156" xlink:href="#DejaVuSans-53"/>
      </g>
     </g>
    </g>
    <g id="xtick_3">
     <g id="line2d_3">
      <path clip-path="url(#p8dd6162e2e)" d="M 305.655302 165.1 
L 305.655302 7.2 
" style="fill:none;stroke:#ffffff;stroke-linecap:round;"/>
     </g>
     <g id="text_3">
      <!-- 1.0 -->
      <g style="fill:#262626;" transform="translate(296.908583 182.958281)scale(0.11 -0.11)">
       <defs>
        <path d="M 12.40625 8.296875 
L 28.515625 8.296875 
L 28.515625 63.921875 
L 10.984375 60.40625 
L 10.984375 69.390625 
L 28.421875 72.90625 
L 38.28125 72.90625 
L 38.28125 8.296875 
L 54.390625 8.296875 
L 54.390625 0 
L 12.40625 0 
z
" id="DejaVuSans-49"/>
       </defs>
       <use xlink:href="#DejaVuSans-49"/>
       <use x="63.623047" xlink:href="#DejaVuSans-46"/>
       <use x="95.410156" xlink:href="#DejaVuSans-48"/>
      </g>
     </g>
    </g>
    <g id="xtick_4">
     <g id="line2d_4">
      <path clip-path="url(#p8dd6162e2e)" d="M 441.386234 165.1 
L 441.386234 7.2 
" style="fill:none;stroke:#ffffff;stroke-linecap:round;"/>
     </g>
     <g id="text_4">
      <!-- 1.5 -->
      <g style="fill:#262626;" transform="translate(432.639515 182.958281)scale(0.11 -0.11)">
       <use xlink:href="#DejaVuSans-49"/>
       <use x="63.623047" xlink:href="#DejaVuSans-46"/>
       <use x="95.410156" xlink:href="#DejaVuSans-53"/>
      </g>
     </g>
    </g>
    <g id="xtick_5">
     <g id="line2d_5">
      <path clip-path="url(#p8dd6162e2e)" d="M 577.117166 165.1 
L 577.117166 7.2 
" style="fill:none;stroke:#ffffff;stroke-linecap:round;"/>
     </g>
     <g id="text_5">
      <!-- 2.0 -->
      <g style="fill:#262626;" transform="translate(568.370447 182.958281)scale(0.11 -0.11)">
       <defs>
        <path d="M 19.1875 8.296875 
L 53.609375 8.296875 
L 53.609375 0 
L 7.328125 0 
L 7.328125 8.296875 
Q 12.9375 14.109375 22.625 23.890625 
Q 32.328125 33.6875 34.8125 36.53125 
Q 39.546875 41.84375 41.421875 45.53125 
Q 43.3125 49.21875 43.3125 52.78125 
Q 43.3125 58.59375 39.234375 62.25 
Q 35.15625 65.921875 28.609375 65.921875 
Q 23.96875 65.921875 18.8125 64.3125 
Q 13.671875 62.703125 7.8125 59.421875 
L 7.8125 69.390625 
Q 13.765625 71.78125 18.9375 73 
Q 24.125 74.21875 28.421875 74.21875 
Q 39.75 74.21875 46.484375 68.546875 
Q 53.21875 62.890625 53.21875 53.421875 
Q 53.21875 48.921875 51.53125 44.890625 
Q 49.859375 40.875 45.40625 35.40625 
Q 44.1875 33.984375 37.640625 27.21875 
Q 31.109375 20.453125 19.1875 8.296875 
z
" id="DejaVuSans-50"/>
       </defs>
       <use xlink:href="#DejaVuSans-50"/>
       <use x="63.623047" xlink:href="#DejaVuSans-46"/>
       <use x="95.410156" xlink:href="#DejaVuSans-48"/>
      </g>
     </g>
    </g>
    <g id="xtick_6">
     <g id="line2d_6">
      <path clip-path="url(#p8dd6162e2e)" d="M 712.848098 165.1 
L 712.848098 7.2 
" style="fill:none;stroke:#ffffff;stroke-linecap:round;"/>
     </g>
     <g id="text_6">
      <!-- 2.5 -->
      <g style="fill:#262626;" transform="translate(704.101379 182.958281)scale(0.11 -0.11)">
       <use xlink:href="#DejaVuSans-50"/>
       <use x="63.623047" xlink:href="#DejaVuSans-46"/>
       <use x="95.410156" xlink:href="#DejaVuSans-53"/>
      </g>
     </g>
    </g>
    <g id="xtick_7">
     <g id="line2d_7">
      <path clip-path="url(#p8dd6162e2e)" d="M 848.57903 165.1 
L 848.57903 7.2 
" style="fill:none;stroke:#ffffff;stroke-linecap:round;"/>
     </g>
     <g id="text_7">
      <!-- 3.0 -->
      <g style="fill:#262626;" transform="translate(839.832311 182.958281)scale(0.11 -0.11)">
       <defs>
        <path d="M 40.578125 39.3125 
Q 47.65625 37.796875 51.625 33 
Q 55.609375 28.21875 55.609375 21.1875 
Q 55.609375 10.40625 48.1875 4.484375 
Q 40.765625 -1.421875 27.09375 -1.421875 
Q 22.515625 -1.421875 17.65625 -0.515625 
Q 12.796875 0.390625 7.625 2.203125 
L 7.625 11.71875 
Q 11.71875 9.328125 16.59375 8.109375 
Q 21.484375 6.890625 26.8125 6.890625 
Q 36.078125 6.890625 40.9375 10.546875 
Q 45.796875 14.203125 45.796875 21.1875 
Q 45.796875 27.640625 41.28125 31.265625 
Q 36.765625 34.90625 28.71875 34.90625 
L 20.21875 34.90625 
L 20.21875 43.015625 
L 29.109375 43.015625 
Q 36.375 43.015625 40.234375 45.921875 
Q 44.09375 48.828125 44.09375 54.296875 
Q 44.09375 59.90625 40.109375 62.90625 
Q 36.140625 65.921875 28.71875 65.921875 
Q 24.65625 65.921875 20.015625 65.03125 
Q 15.375 64.15625 9.8125 62.3125 
L 9.8125 71.09375 
Q 15.4375 72.65625 20.34375 73.4375 
Q 25.25 74.21875 29.59375 74.21875 
Q 40.828125 74.21875 47.359375 69.109375 
Q 53.90625 64.015625 53.90625 55.328125 
Q 53.90625 49.265625 50.4375 45.09375 
Q 46.96875 40.921875 40.578125 39.3125 
z
" id="DejaVuSans-51"/>
       </defs>
       <use xlink:href="#DejaVuSans-51"/>
       <use x="63.623047" xlink:href="#DejaVuSans-46"/>
       <use x="95.410156" xlink:href="#DejaVuSans-48"/>
      </g>
     </g>
    </g>
    <g id="text_8">
     <!-- Fare -->
     <g style="fill:#262626;" transform="translate(428.782484 198.364062)scale(0.12 -0.12)">
      <defs>
       <path d="M 9.8125 72.90625 
L 51.703125 72.90625 
L 51.703125 64.59375 
L 19.671875 64.59375 
L 19.671875 43.109375 
L 48.578125 43.109375 
L 48.578125 34.8125 
L 19.671875 34.8125 
L 19.671875 0 
L 9.8125 0 
z
" id="DejaVuSans-70"/>
       <path d="M 34.28125 27.484375 
Q 23.390625 27.484375 19.1875 25 
Q 14.984375 22.515625 14.984375 16.5 
Q 14.984375 11.71875 18.140625 8.90625 
Q 21.296875 6.109375 26.703125 6.109375 
Q 34.1875 6.109375 38.703125 11.40625 
Q 43.21875 16.703125 43.21875 25.484375 
L 43.21875 27.484375 
z
M 52.203125 31.203125 
L 52.203125 0 
L 43.21875 0 
L 43.21875 8.296875 
Q 40.140625 3.328125 35.546875 0.953125 
Q 30.953125 -1.421875 24.3125 -1.421875 
Q 15.921875 -1.421875 10.953125 3.296875 
Q 6 8.015625 6 15.921875 
Q 6 25.140625 12.171875 29.828125 
Q 18.359375 34.515625 30.609375 34.515625 
L 43.21875 34.515625 
L 43.21875 35.40625 
Q 43.21875 41.609375 39.140625 45 
Q 35.0625 48.390625 27.6875 48.390625 
Q 23 48.390625 18.546875 47.265625 
Q 14.109375 46.140625 10.015625 43.890625 
L 10.015625 52.203125 
Q 14.9375 54.109375 19.578125 55.046875 
Q 24.21875 56 28.609375 56 
Q 40.484375 56 46.34375 49.84375 
Q 52.203125 43.703125 52.203125 31.203125 
z
" id="DejaVuSans-97"/>
       <path d="M 41.109375 46.296875 
Q 39.59375 47.171875 37.8125 47.578125 
Q 36.03125 48 33.890625 48 
Q 26.265625 48 22.1875 43.046875 
Q 18.109375 38.09375 18.109375 28.8125 
L 18.109375 0 
L 9.078125 0 
L 9.078125 54.6875 
L 18.109375 54.6875 
L 18.109375 46.1875 
Q 20.953125 51.171875 25.484375 53.578125 
Q 30.03125 56 36.53125 56 
Q 37.453125 56 38.578125 55.875 
Q 39.703125 55.765625 41.0625 55.515625 
z
" id="DejaVuSans-114"/>
       <path d="M 56.203125 29.59375 
L 56.203125 25.203125 
L 14.890625 25.203125 
Q 15.484375 15.921875 20.484375 11.0625 
Q 25.484375 6.203125 34.421875 6.203125 
Q 39.59375 6.203125 44.453125 7.46875 
Q 49.3125 8.734375 54.109375 11.28125 
L 54.109375 2.78125 
Q 49.265625 0.734375 44.1875 -0.34375 
Q 39.109375 -1.421875 33.890625 -1.421875 
Q 20.796875 -1.421875 13.15625 6.1875 
Q 5.515625 13.8125 5.515625 26.8125 
Q 5.515625 40.234375 12.765625 48.109375 
Q 20.015625 56 32.328125 56 
Q 43.359375 56 49.78125 48.890625 
Q 56.203125 41.796875 56.203125 29.59375 
z
M 47.21875 32.234375 
Q 47.125 39.59375 43.09375 43.984375 
Q 39.0625 48.390625 32.421875 48.390625 
Q 24.90625 48.390625 20.390625 44.140625 
Q 15.875 39.890625 15.1875 32.171875 
z
" id="DejaVuSans-101"/>
      </defs>
      <use xlink:href="#DejaVuSans-70"/>
      <use x="48.394531" xlink:href="#DejaVuSans-97"/>
      <use x="109.673828" xlink:href="#DejaVuSans-114"/>
      <use x="148.537109" xlink:href="#DejaVuSans-101"/>
     </g>
    </g>
   </g>
   <g id="matplotlib.axis_2">
    <g id="ytick_1">
     <g id="line2d_8">
      <path clip-path="url(#p8dd6162e2e)" d="M 34.193438 165.1 
L 848.57903 165.1 
" style="fill:none;stroke:#ffffff;stroke-linecap:round;"/>
     </g>
     <g id="text_9">
      <!-- 0.0 -->
      <g style="fill:#262626;" transform="translate(7.2 169.279141)scale(0.11 -0.11)">
       <use xlink:href="#DejaVuSans-48"/>
       <use x="63.623047" xlink:href="#DejaVuSans-46"/>
       <use x="95.410156" xlink:href="#DejaVuSans-48"/>
      </g>
     </g>
    </g>
    <g id="ytick_2">
     <g id="line2d_9">
      <path clip-path="url(#p8dd6162e2e)" d="M 34.193438 137.992314 
L 848.57903 137.992314 
" style="fill:none;stroke:#ffffff;stroke-linecap:round;"/>
     </g>
     <g id="text_10">
      <!-- 0.2 -->
      <g style="fill:#262626;" transform="translate(7.2 142.171455)scale(0.11 -0.11)">
       <use xlink:href="#DejaVuSans-48"/>
       <use x="63.623047" xlink:href="#DejaVuSans-46"/>
       <use x="95.410156" xlink:href="#DejaVuSans-50"/>
      </g>
     </g>
    </g>
    <g id="ytick_3">
     <g id="line2d_10">
      <path clip-path="url(#p8dd6162e2e)" d="M 34.193438 110.884629 
L 848.57903 110.884629 
" style="fill:none;stroke:#ffffff;stroke-linecap:round;"/>
     </g>
     <g id="text_11">
      <!-- 0.4 -->
      <g style="fill:#262626;" transform="translate(7.2 115.063769)scale(0.11 -0.11)">
       <defs>
        <path d="M 37.796875 64.3125 
L 12.890625 25.390625 
L 37.796875 25.390625 
z
M 35.203125 72.90625 
L 47.609375 72.90625 
L 47.609375 25.390625 
L 58.015625 25.390625 
L 58.015625 17.1875 
L 47.609375 17.1875 
L 47.609375 0 
L 37.796875 0 
L 37.796875 17.1875 
L 4.890625 17.1875 
L 4.890625 26.703125 
z
" id="DejaVuSans-52"/>
       </defs>
       <use xlink:href="#DejaVuSans-48"/>
       <use x="63.623047" xlink:href="#DejaVuSans-46"/>
       <use x="95.410156" xlink:href="#DejaVuSans-52"/>
      </g>
     </g>
    </g>
    <g id="ytick_4">
     <g id="line2d_11">
      <path clip-path="url(#p8dd6162e2e)" d="M 34.193438 83.776943 
L 848.57903 83.776943 
" style="fill:none;stroke:#ffffff;stroke-linecap:round;"/>
     </g>
     <g id="text_12">
      <!-- 0.6 -->
      <g style="fill:#262626;" transform="translate(7.2 87.956084)scale(0.11 -0.11)">
       <defs>
        <path d="M 33.015625 40.375 
Q 26.375 40.375 22.484375 35.828125 
Q 18.609375 31.296875 18.609375 23.390625 
Q 18.609375 15.53125 22.484375 10.953125 
Q 26.375 6.390625 33.015625 6.390625 
Q 39.65625 6.390625 43.53125 10.953125 
Q 47.40625 15.53125 47.40625 23.390625 
Q 47.40625 31.296875 43.53125 35.828125 
Q 39.65625 40.375 33.015625 40.375 
z
M 52.59375 71.296875 
L 52.59375 62.3125 
Q 48.875 64.0625 45.09375 64.984375 
Q 41.3125 65.921875 37.59375 65.921875 
Q 27.828125 65.921875 22.671875 59.328125 
Q 17.53125 52.734375 16.796875 39.40625 
Q 19.671875 43.65625 24.015625 45.921875 
Q 28.375 48.1875 33.59375 48.1875 
Q 44.578125 48.1875 50.953125 41.515625 
Q 57.328125 34.859375 57.328125 23.390625 
Q 57.328125 12.15625 50.6875 5.359375 
Q 44.046875 -1.421875 33.015625 -1.421875 
Q 20.359375 -1.421875 13.671875 8.265625 
Q 6.984375 17.96875 6.984375 36.375 
Q 6.984375 53.65625 15.1875 63.9375 
Q 23.390625 74.21875 37.203125 74.21875 
Q 40.921875 74.21875 44.703125 73.484375 
Q 48.484375 72.75 52.59375 71.296875 
z
" id="DejaVuSans-54"/>
       </defs>
       <use xlink:href="#DejaVuSans-48"/>
       <use x="63.623047" xlink:href="#DejaVuSans-46"/>
       <use x="95.410156" xlink:href="#DejaVuSans-54"/>
      </g>
     </g>
    </g>
    <g id="ytick_5">
     <g id="line2d_12">
      <path clip-path="url(#p8dd6162e2e)" d="M 34.193438 56.669257 
L 848.57903 56.669257 
" style="fill:none;stroke:#ffffff;stroke-linecap:round;"/>
     </g>
     <g id="text_13">
      <!-- 0.8 -->
      <g style="fill:#262626;" transform="translate(7.2 60.848398)scale(0.11 -0.11)">
       <defs>
        <path d="M 31.78125 34.625 
Q 24.75 34.625 20.71875 30.859375 
Q 16.703125 27.09375 16.703125 20.515625 
Q 16.703125 13.921875 20.71875 10.15625 
Q 24.75 6.390625 31.78125 6.390625 
Q 38.8125 6.390625 42.859375 10.171875 
Q 46.921875 13.96875 46.921875 20.515625 
Q 46.921875 27.09375 42.890625 30.859375 
Q 38.875 34.625 31.78125 34.625 
z
M 21.921875 38.8125 
Q 15.578125 40.375 12.03125 44.71875 
Q 8.5 49.078125 8.5 55.328125 
Q 8.5 64.0625 14.71875 69.140625 
Q 20.953125 74.21875 31.78125 74.21875 
Q 42.671875 74.21875 48.875 69.140625 
Q 55.078125 64.0625 55.078125 55.328125 
Q 55.078125 49.078125 51.53125 44.71875 
Q 48 40.375 41.703125 38.8125 
Q 48.828125 37.15625 52.796875 32.3125 
Q 56.78125 27.484375 56.78125 20.515625 
Q 56.78125 9.90625 50.3125 4.234375 
Q 43.84375 -1.421875 31.78125 -1.421875 
Q 19.734375 -1.421875 13.25 4.234375 
Q 6.78125 9.90625 6.78125 20.515625 
Q 6.78125 27.484375 10.78125 32.3125 
Q 14.796875 37.15625 21.921875 38.8125 
z
M 18.3125 54.390625 
Q 18.3125 48.734375 21.84375 45.5625 
Q 25.390625 42.390625 31.78125 42.390625 
Q 38.140625 42.390625 41.71875 45.5625 
Q 45.3125 48.734375 45.3125 54.390625 
Q 45.3125 60.0625 41.71875 63.234375 
Q 38.140625 66.40625 31.78125 66.40625 
Q 25.390625 66.40625 21.84375 63.234375 
Q 18.3125 60.0625 18.3125 54.390625 
z
" id="DejaVuSans-56"/>
       </defs>
       <use xlink:href="#DejaVuSans-48"/>
       <use x="63.623047" xlink:href="#DejaVuSans-46"/>
       <use x="95.410156" xlink:href="#DejaVuSans-56"/>
      </g>
     </g>
    </g>
    <g id="ytick_6">
     <g id="line2d_13">
      <path clip-path="url(#p8dd6162e2e)" d="M 34.193438 29.561572 
L 848.57903 29.561572 
" style="fill:none;stroke:#ffffff;stroke-linecap:round;"/>
     </g>
     <g id="text_14">
      <!-- 1.0 -->
      <g style="fill:#262626;" transform="translate(7.2 33.740712)scale(0.11 -0.11)">
       <use xlink:href="#DejaVuSans-49"/>
       <use x="63.623047" xlink:href="#DejaVuSans-46"/>
       <use x="95.410156" xlink:href="#DejaVuSans-48"/>
      </g>
     </g>
    </g>
   </g>
   <g id="PolyCollection_1">
    <path clip-path="url(#p8dd6162e2e)" d="M -159.950849 163.429364 
L -159.950849 165.1 
L -153.90726 165.1 
L -147.863671 165.1 
L -141.820082 165.1 
L -135.776494 165.1 
L -129.732905 165.1 
L -123.689316 165.1 
L -117.645727 165.1 
L -111.602138 165.1 
L -105.55855 165.1 
L -99.514961 165.1 
L -93.471372 165.1 
L -87.427783 165.1 
L -81.384195 165.1 
L -75.340606 165.1 
L -69.297017 165.1 
L -63.253428 165.1 
L -57.20984 165.1 
L -51.166251 165.1 
L -45.122662 165.1 
L -39.079073 165.1 
L -33.035485 165.1 
L -26.991896 165.1 
L -20.948307 165.1 
L -14.904718 165.1 
L -8.861129 165.1 
L -2.817541 165.1 
L 3.226048 165.1 
L 9.269637 165.1 
L 15.313226 165.1 
L 21.356814 165.1 
L 27.400403 165.1 
L 33.443992 165.1 
L 39.487581 165.1 
L 45.531169 165.1 
L 51.574758 165.1 
L 57.618347 165.1 
L 63.661936 165.1 
L 69.705525 165.1 
L 75.749113 165.1 
L 81.792702 165.1 
L 87.836291 165.1 
L 93.87988 165.1 
L 99.923468 165.1 
L 105.967057 165.1 
L 112.010646 165.1 
L 118.054235 165.1 
L 124.097823 165.1 
L 130.141412 165.1 
L 136.185001 165.1 
L 142.22859 165.1 
L 148.272178 165.1 
L 154.315767 165.1 
L 160.359356 165.1 
L 166.402945 165.1 
L 172.446534 165.1 
L 178.490122 165.1 
L 184.533711 165.1 
L 190.5773 165.1 
L 196.620889 165.1 
L 202.664477 165.1 
L 208.708066 165.1 
L 214.751655 165.1 
L 220.795244 165.1 
L 226.838832 165.1 
L 232.882421 165.1 
L 238.92601 165.1 
L 244.969599 165.1 
L 251.013188 165.1 
L 257.056776 165.1 
L 263.100365 165.1 
L 269.143954 165.1 
L 275.187543 165.1 
L 281.231131 165.1 
L 287.27472 165.1 
L 293.318309 165.1 
L 299.361898 165.1 
L 305.405486 165.1 
L 311.449075 165.1 
L 317.492664 165.1 
L 323.536253 165.1 
L 329.579841 165.1 
L 335.62343 165.1 
L 341.667019 165.1 
L 347.710608 165.1 
L 353.754197 165.1 
L 359.797785 165.1 
L 365.841374 165.1 
L 371.884963 165.1 
L 377.928552 165.1 
L 383.97214 165.1 
L 390.015729 165.1 
L 396.059318 165.1 
L 402.102907 165.1 
L 408.146495 165.1 
L 414.190084 165.1 
L 420.233673 165.1 
L 426.277262 165.1 
L 432.320851 165.1 
L 438.364439 165.1 
L 444.408028 165.1 
L 450.451617 165.1 
L 456.495206 165.1 
L 462.538794 165.1 
L 468.582383 165.1 
L 474.625972 165.1 
L 480.669561 165.1 
L 486.713149 165.1 
L 492.756738 165.1 
L 498.800327 165.1 
L 504.843916 165.1 
L 510.887504 165.1 
L 516.931093 165.1 
L 522.974682 165.1 
L 529.018271 165.1 
L 535.06186 165.1 
L 541.105448 165.1 
L 547.149037 165.1 
L 553.192626 165.1 
L 559.236215 165.1 
L 565.279803 165.1 
L 571.323392 165.1 
L 577.366981 165.1 
L 583.41057 165.1 
L 589.454158 165.1 
L 595.497747 165.1 
L 601.541336 165.1 
L 607.584925 165.1 
L 613.628513 165.1 
L 619.672102 165.1 
L 625.715691 165.1 
L 631.75928 165.1 
L 637.802869 165.1 
L 643.846457 165.1 
L 649.890046 165.1 
L 655.933635 165.1 
L 661.977224 165.1 
L 668.020812 165.1 
L 674.064401 165.1 
L 680.10799 165.1 
L 686.151579 165.1 
L 692.195167 165.1 
L 698.238756 165.1 
L 704.282345 165.1 
L 710.325934 165.1 
L 716.369523 165.1 
L 722.413111 165.1 
L 728.4567 165.1 
L 734.500289 165.1 
L 740.543878 165.1 
L 746.587466 165.1 
L 752.631055 165.1 
L 758.674644 165.1 
L 764.718233 165.1 
L 770.761821 165.1 
L 776.80541 165.1 
L 782.848999 165.1 
L 788.892588 165.1 
L 794.936176 165.1 
L 800.979765 165.1 
L 807.023354 165.1 
L 813.066943 165.1 
L 819.110532 165.1 
L 825.15412 165.1 
L 831.197709 165.1 
L 837.241298 165.1 
L 843.284887 165.1 
L 849.328475 165.1 
L 855.372064 165.1 
L 861.415653 165.1 
L 867.459242 165.1 
L 873.50283 165.1 
L 879.546419 165.1 
L 885.590008 165.1 
L 891.633597 165.1 
L 897.677186 165.1 
L 903.720774 165.1 
L 909.764363 165.1 
L 915.807952 165.1 
L 921.851541 165.1 
L 927.895129 165.1 
L 933.938718 165.1 
L 939.982307 165.1 
L 946.025896 165.1 
L 952.069484 165.1 
L 958.113073 165.1 
L 964.156662 165.1 
L 970.200251 165.1 
L 976.243839 165.1 
L 982.287428 165.1 
L 988.331017 165.1 
L 994.374606 165.1 
L 1000.418195 165.1 
L 1006.461783 165.1 
L 1012.505372 165.1 
L 1018.548961 165.1 
L 1024.59255 165.1 
L 1030.636138 165.1 
L 1036.679727 165.1 
L 1042.723316 165.1 
L 1042.723316 165.035745 
L 1042.723316 165.035745 
L 1036.679727 165.015338 
L 1030.636138 164.989419 
L 1024.59255 164.956819 
L 1018.548961 164.916218 
L 1012.505372 164.866153 
L 1006.461783 164.805033 
L 1000.418195 164.731168 
L 994.374606 164.642812 
L 988.331017 164.53821 
L 982.287428 164.415671 
L 976.243839 164.273641 
L 970.200251 164.110798 
L 964.156662 163.926147 
L 958.113073 163.719124 
L 952.069484 163.489696 
L 946.025896 163.238454 
L 939.982307 162.9667 
L 933.938718 162.676501 
L 927.895129 162.370732 
L 921.851541 162.053071 
L 915.807952 161.72797 
L 909.764363 161.40058 
L 903.720774 161.076635 
L 897.677186 160.762303 
L 891.633597 160.463994 
L 885.590008 160.188153 
L 879.546419 159.941023 
L 873.50283 159.728408 
L 867.459242 159.555443 
L 861.415653 159.426368 
L 855.372064 159.34435 
L 849.328475 159.311323 
L 843.284887 159.327887 
L 837.241298 159.393253 
L 831.197709 159.505234 
L 825.15412 159.660297 
L 819.110532 159.853644 
L 813.066943 160.079342 
L 807.023354 160.330466 
L 800.979765 160.599266 
L 794.936176 160.877322 
L 788.892588 161.155703 
L 782.848999 161.425095 
L 776.80541 161.675909 
L 770.761821 161.898359 
L 764.718233 162.082514 
L 758.674644 162.21832 
L 752.631055 162.295614 
L 746.587466 162.304137 
L 740.543878 162.233552 
L 734.500289 162.073499 
L 728.4567 161.81369 
L 722.413111 161.444064 
L 716.369523 160.955012 
L 710.325934 160.337681 
L 704.282345 159.584353 
L 698.238756 158.688897 
L 692.195167 157.647281 
L 686.151579 156.458113 
L 680.10799 155.12319 
L 674.064401 153.648022 
L 668.020812 152.042276 
L 661.977224 150.320121 
L 655.933635 148.500406 
L 649.890046 146.606664 
L 643.846457 144.66689 
L 637.802869 142.713091 
L 631.75928 140.780594 
L 625.715691 138.907132 
L 619.672102 137.131733 
L 613.628513 135.493443 
L 607.584925 134.029968 
L 601.541336 132.776261 
L 595.497747 131.763171 
L 589.454158 131.016188 
L 583.41057 130.554385 
L 577.366981 130.389598 
L 571.323392 130.525904 
L 565.279803 130.959416 
L 559.236215 131.678423 
L 553.192626 132.663839 
L 547.149037 133.889953 
L 541.105448 135.32543 
L 535.06186 136.934482 
L 529.018271 138.678166 
L 522.974682 140.515722 
L 516.931093 142.405866 
L 510.887504 144.308003 
L 504.843916 146.183275 
L 498.800327 147.995425 
L 492.756738 149.711438 
L 486.713149 151.301967 
L 480.669561 152.741547 
L 474.625972 154.008617 
L 468.582383 155.085399 
L 462.538794 155.957666 
L 456.495206 156.614457 
L 450.451617 157.047781 
L 444.408028 157.252358 
L 438.364439 157.225431 
L 432.320851 156.966673 
L 426.277262 156.47821 
L 420.233673 155.764747 
L 414.190084 154.833796 
L 408.146495 153.695967 
L 402.102907 152.36529 
L 396.059318 150.859531 
L 390.015729 149.200429 
L 383.97214 147.413837 
L 377.928552 145.529688 
L 371.884963 143.581775 
L 365.841374 141.607307 
L 359.797785 139.64623 
L 353.754197 137.74033 
L 347.710608 135.932126 
L 341.667019 134.263612 
L 335.62343 132.774889 
L 329.579841 131.502762 
L 323.536253 130.479377 
L 317.492664 129.730959 
L 311.449075 129.276745 
L 305.405486 129.12815 
L 299.361898 129.288224 
L 293.318309 129.751428 
L 287.27472 130.503727 
L 281.231131 131.522996 
L 275.187543 132.779699 
L 269.143954 134.237784 
L 263.100365 135.855742 
L 257.056776 137.587739 
L 251.013188 139.384762 
L 244.969599 141.195702 
L 238.92601 142.968317 
L 232.882421 144.650026 
L 226.838832 146.188517 
L 220.795244 147.532164 
L 214.751655 148.630277 
L 208.708066 149.433215 
L 202.664477 149.892437 
L 196.620889 149.960557 
L 190.5773 149.591477 
L 184.533711 148.740696 
L 178.490122 147.36585 
L 172.446534 145.427554 
L 166.402945 142.890577 
L 160.359356 139.725363 
L 154.315767 135.909859 
L 148.272178 131.431611 
L 142.22859 126.29 
L 136.185001 120.49852 
L 130.141412 114.086907 
L 124.097823 107.102973 
L 118.054235 99.613936 
L 112.010646 91.707088 
L 105.967057 83.489634 
L 99.923468 75.087597 
L 93.87988 66.643702 
L 87.836291 58.314252 
L 81.792702 50.265036 
L 75.749113 42.666413 
L 69.705525 35.687755 
L 63.661936 29.491513 
L 57.618347 24.227184 
L 51.574758 20.025524 
L 45.531169 16.993297 
L 39.487581 15.208892 
L 33.443992 14.719048 
L 27.400403 15.536891 
L 21.356814 17.64141 
L 15.313226 20.97839 
L 9.269637 25.462773 
L 3.226048 30.982272 
L -2.817541 37.402071 
L -8.861129 44.570289 
L -14.904718 52.323946 
L -20.948307 60.495071 
L -26.991896 68.916663 
L -33.035485 77.428194 
L -39.079073 85.880433 
L -45.122662 94.139385 
L -51.166251 102.089248 
L -57.20984 109.634321 
L -63.253428 116.699886 
L -69.297017 123.232136 
L -75.340606 129.197259 
L -81.384195 134.579842 
L -87.427783 139.380749 
L -93.471372 143.61466 
L -99.514961 147.307436 
L -105.55855 150.493465 
L -111.602138 153.213111 
L -117.645727 155.510375 
L -123.689316 157.430847 
L -129.732905 159.019972 
L -135.776494 160.321671 
L -141.820082 161.377292 
L -147.863671 162.224892 
L -153.90726 162.898788 
L -159.950849 163.429364 
z
" style="fill:#4c72b0;fill-opacity:0.25;stroke:#4c72b0;"/>
   </g>
   <g id="PolyCollection_2">
    <path clip-path="url(#p8dd6162e2e)" d="M -233.296281 164.39414 
L -233.296281 165.1 
L -226.515552 165.1 
L -219.734823 165.1 
L -212.954094 165.1 
L -206.173365 165.1 
L -199.392637 165.1 
L -192.611908 165.1 
L -185.831179 165.1 
L -179.05045 165.1 
L -172.269722 165.1 
L -165.488993 165.1 
L -158.708264 165.1 
L -151.927535 165.1 
L -145.146806 165.1 
L -138.366078 165.1 
L -131.585349 165.1 
L -124.80462 165.1 
L -118.023891 165.1 
L -111.243162 165.1 
L -104.462434 165.1 
L -97.681705 165.1 
L -90.900976 165.1 
L -84.120247 165.1 
L -77.339519 165.1 
L -70.55879 165.1 
L -63.778061 165.1 
L -56.997332 165.1 
L -50.216603 165.1 
L -43.435875 165.1 
L -36.655146 165.1 
L -29.874417 165.1 
L -23.093688 165.1 
L -16.312959 165.1 
L -9.532231 165.1 
L -2.751502 165.1 
L 4.029227 165.1 
L 10.809956 165.1 
L 17.590684 165.1 
L 24.371413 165.1 
L 31.152142 165.1 
L 37.932871 165.1 
L 44.7136 165.1 
L 51.494328 165.1 
L 58.275057 165.1 
L 65.055786 165.1 
L 71.836515 165.1 
L 78.617244 165.1 
L 85.397972 165.1 
L 92.178701 165.1 
L 98.95943 165.1 
L 105.740159 165.1 
L 112.520888 165.1 
L 119.301616 165.1 
L 126.082345 165.1 
L 132.863074 165.1 
L 139.643803 165.1 
L 146.424531 165.1 
L 153.20526 165.1 
L 159.985989 165.1 
L 166.766718 165.1 
L 173.547447 165.1 
L 180.328175 165.1 
L 187.108904 165.1 
L 193.889633 165.1 
L 200.670362 165.1 
L 207.451091 165.1 
L 214.231819 165.1 
L 221.012548 165.1 
L 227.793277 165.1 
L 234.574006 165.1 
L 241.354734 165.1 
L 248.135463 165.1 
L 254.916192 165.1 
L 261.696921 165.1 
L 268.47765 165.1 
L 275.258378 165.1 
L 282.039107 165.1 
L 288.819836 165.1 
L 295.600565 165.1 
L 302.381294 165.1 
L 309.162022 165.1 
L 315.942751 165.1 
L 322.72348 165.1 
L 329.504209 165.1 
L 336.284937 165.1 
L 343.065666 165.1 
L 349.846395 165.1 
L 356.627124 165.1 
L 363.407853 165.1 
L 370.188581 165.1 
L 376.96931 165.1 
L 383.750039 165.1 
L 390.530768 165.1 
L 397.311497 165.1 
L 404.092225 165.1 
L 410.872954 165.1 
L 417.653683 165.1 
L 424.434412 165.1 
L 431.21514 165.1 
L 437.995869 165.1 
L 444.776598 165.1 
L 451.557327 165.1 
L 458.338056 165.1 
L 465.118784 165.1 
L 471.899513 165.1 
L 478.680242 165.1 
L 485.460971 165.1 
L 492.2417 165.1 
L 499.022428 165.1 
L 505.803157 165.1 
L 512.583886 165.1 
L 519.364615 165.1 
L 526.145343 165.1 
L 532.926072 165.1 
L 539.706801 165.1 
L 546.48753 165.1 
L 553.268259 165.1 
L 560.048987 165.1 
L 566.829716 165.1 
L 573.610445 165.1 
L 580.391174 165.1 
L 587.171903 165.1 
L 593.952631 165.1 
L 600.73336 165.1 
L 607.514089 165.1 
L 614.294818 165.1 
L 621.075546 165.1 
L 627.856275 165.1 
L 634.637004 165.1 
L 641.417733 165.1 
L 648.198462 165.1 
L 654.97919 165.1 
L 661.759919 165.1 
L 668.540648 165.1 
L 675.321377 165.1 
L 682.102106 165.1 
L 688.882834 165.1 
L 695.663563 165.1 
L 702.444292 165.1 
L 709.225021 165.1 
L 716.00575 165.1 
L 722.786478 165.1 
L 729.567207 165.1 
L 736.347936 165.1 
L 743.128665 165.1 
L 749.909393 165.1 
L 756.690122 165.1 
L 763.470851 165.1 
L 770.25158 165.1 
L 777.032309 165.1 
L 783.813037 165.1 
L 790.593766 165.1 
L 797.374495 165.1 
L 804.155224 165.1 
L 810.935953 165.1 
L 817.716681 165.1 
L 824.49741 165.1 
L 831.278139 165.1 
L 838.058868 165.1 
L 844.839596 165.1 
L 851.620325 165.1 
L 858.401054 165.1 
L 865.181783 165.1 
L 871.962512 165.1 
L 878.74324 165.1 
L 885.523969 165.1 
L 892.304698 165.1 
L 899.085427 165.1 
L 905.866156 165.1 
L 912.646884 165.1 
L 919.427613 165.1 
L 926.208342 165.1 
L 932.989071 165.1 
L 939.769799 165.1 
L 946.550528 165.1 
L 953.331257 165.1 
L 960.111986 165.1 
L 966.892715 165.1 
L 973.673443 165.1 
L 980.454172 165.1 
L 987.234901 165.1 
L 994.01563 165.1 
L 1000.796359 165.1 
L 1007.577087 165.1 
L 1014.357816 165.1 
L 1021.138545 165.1 
L 1027.919274 165.1 
L 1034.700002 165.1 
L 1041.480731 165.1 
L 1048.26146 165.1 
L 1055.042189 165.1 
L 1061.822918 165.1 
L 1068.603646 165.1 
L 1075.384375 165.1 
L 1082.165104 165.1 
L 1088.945833 165.1 
L 1095.726562 165.1 
L 1102.50729 165.1 
L 1109.288019 165.1 
L 1116.068748 165.1 
L 1116.068748 164.89145 
L 1116.068748 164.89145 
L 1109.288019 164.838762 
L 1102.50729 164.774649 
L 1095.726562 164.697139 
L 1088.945833 164.604039 
L 1082.165104 164.492945 
L 1075.384375 164.361251 
L 1068.603646 164.206171 
L 1061.822918 164.024772 
L 1055.042189 163.814017 
L 1048.26146 163.570818 
L 1041.480731 163.292112 
L 1034.700002 162.97493 
L 1027.919274 162.616499 
L 1021.138545 162.214342 
L 1014.357816 161.766387 
L 1007.577087 161.271084 
L 1000.796359 160.727525 
L 994.01563 160.13556 
L 987.234901 159.495906 
L 980.454172 158.810243 
L 973.673443 158.081298 
L 966.892715 157.312895 
L 960.111986 156.509994 
L 953.331257 155.678681 
L 946.550528 154.82613 
L 939.769799 153.960529 
L 932.989071 153.090955 
L 926.208342 152.227224 
L 919.427613 151.379688 
L 912.646884 150.559004 
L 905.866156 149.775878 
L 899.085427 149.040771 
L 892.304698 148.363606 
L 885.523969 147.753458 
L 878.74324 147.21825 
L 871.962512 146.764466 
L 865.181783 146.396879 
L 858.401054 146.118323 
L 851.620325 145.9295 
L 844.839596 145.828836 
L 838.058868 145.8124 
L 831.278139 145.873874 
L 824.49741 146.004597 
L 817.716681 146.19366 
L 810.935953 146.428077 
L 804.155224 146.693008 
L 797.374495 146.972042 
L 790.593766 147.247527 
L 783.813037 147.50095 
L 777.032309 147.713343 
L 770.25158 147.865727 
L 763.470851 147.939566 
L 756.690122 147.917236 
L 749.909393 147.782485 
L 743.128665 147.520888 
L 736.347936 147.12028 
L 729.567207 146.571153 
L 722.786478 145.867012 
L 716.00575 145.004681 
L 709.225021 143.984543 
L 702.444292 142.810706 
L 695.663563 141.491094 
L 688.882834 140.037446 
L 682.102106 138.465219 
L 675.321377 136.793398 
L 668.540648 135.044201 
L 661.759919 133.242691 
L 654.97919 131.416294 
L 648.198462 129.594226 
L 641.417733 127.806857 
L 634.637004 126.085005 
L 627.856275 124.459197 
L 621.075546 122.958906 
L 614.294818 121.611789 
L 607.514089 120.442951 
L 600.73336 119.474257 
L 593.952631 118.723718 
L 587.171903 118.204965 
L 580.391174 117.926839 
L 573.610445 117.893103 
L 566.829716 118.102292 
L 560.048987 118.547706 
L 553.268259 119.217544 
L 546.48753 120.095182 
L 539.706801 121.159573 
L 532.926072 122.385775 
L 526.145343 123.745569 
L 519.364615 125.208167 
L 512.583886 126.740971 
L 505.803157 128.310374 
L 499.022428 129.882572 
L 492.2417 131.424366 
L 485.460971 132.903936 
L 478.680242 134.291565 
L 471.899513 135.560298 
L 465.118784 136.686519 
L 458.338056 137.650442 
L 451.557327 138.436497 
L 444.776598 139.033619 
L 437.995869 139.435419 
L 431.21514 139.640258 
L 424.434412 139.651198 
L 417.653683 139.475864 
L 410.872954 139.12619 
L 404.092225 138.61808 
L 397.311497 137.970977 
L 390.530768 137.207351 
L 383.750039 136.352126 
L 376.96931 135.432037 
L 370.188581 134.474956 
L 363.407853 133.509181 
L 356.627124 132.562713 
L 349.846395 131.662535 
L 343.065666 130.83391 
L 336.284937 130.099718 
L 329.504209 129.479847 
L 322.72348 128.990652 
L 315.942751 128.6445 
L 309.162022 128.449416 
L 302.381294 128.40883 
L 295.600565 128.52145 
L 288.819836 128.781247 
L 282.039107 129.177561 
L 275.258378 129.695335 
L 268.47765 130.315454 
L 261.696921 131.015188 
L 254.916192 131.768741 
L 248.135463 132.547864 
L 241.354734 133.322547 
L 234.574006 134.061757 
L 227.793277 134.734206 
L 221.012548 135.309135 
L 214.231819 135.757104 
L 207.451091 136.05075 
L 200.670362 136.165524 
L 193.889633 136.08037 
L 187.108904 135.77834 
L 180.328175 135.24713 
L 173.547447 134.479527 
L 166.766718 133.473746 
L 159.985989 132.233658 
L 153.20526 130.768891 
L 146.424531 129.094801 
L 139.643803 127.232309 
L 132.863074 125.207592 
L 126.082345 123.051649 
L 119.301616 120.799726 
L 112.520888 118.490616 
L 105.740159 116.165856 
L 98.95943 113.868822 
L 92.178701 111.643756 
L 85.397972 109.534738 
L 78.617244 107.584649 
L 71.836515 105.834138 
L 65.055786 104.320626 
L 58.275057 103.077391 
L 51.494328 102.132753 
L 44.7136 101.50939 
L 37.932871 101.223802 
L 31.152142 101.285954 
L 24.371413 101.6991 
L 17.590684 102.459793 
L 10.809956 103.558082 
L 4.029227 104.977895 
L -2.751502 106.69757 
L -9.532231 108.690544 
L -16.312959 110.926144 
L -23.093688 113.370469 
L -29.874417 115.987321 
L -36.655146 118.739162 
L -43.435875 121.588048 
L -50.216603 124.49653 
L -56.997332 127.428478 
L -63.778061 130.349812 
L -70.55879 133.229128 
L -77.339519 136.038193 
L -84.120247 138.752318 
L -90.900976 141.350594 
L -97.681705 143.816003 
L -104.462434 146.135414 
L -111.243162 148.299471 
L -118.023891 150.302384 
L -124.80462 152.141654 
L -131.585349 153.817736 
L -138.366078 155.333663 
L -145.146806 156.69465 
L -151.927535 157.907688 
L -158.708264 158.981151 
L -165.488993 159.924415 
L -172.269722 160.747511 
L -179.05045 161.460814 
L -185.831179 162.074764 
L -192.611908 162.599639 
L -199.392637 163.045366 
L -206.173365 163.421372 
L -212.954094 163.736475 
L -219.734823 163.998816 
L -226.515552 164.215811 
L -233.296281 164.39414 
z
" style="fill:#dd8452;fill-opacity:0.25;stroke:#dd8452;"/>
   </g>
   <g id="patch_3">
    <path d="M 34.193438 165.1 
L 34.193438 7.2 
" style="fill:none;stroke:#ffffff;stroke-linecap:square;stroke-linejoin:miter;stroke-width:1.25;"/>
   </g>
   <g id="patch_4">
    <path d="M 34.193438 165.1 
L 848.57903 165.1 
" style="fill:none;stroke:#ffffff;stroke-linecap:square;stroke-linejoin:miter;stroke-width:1.25;"/>
   </g>
  </g>
  <g id="legend_1">
   <g id="text_15">
    <!-- Survived -->
    <g style="fill:#262626;" transform="translate(858.487655 91.195156)scale(0.12 -0.12)">
     <defs>
      <path d="M 53.515625 70.515625 
L 53.515625 60.890625 
Q 47.90625 63.578125 42.921875 64.890625 
Q 37.9375 66.21875 33.296875 66.21875 
Q 25.25 66.21875 20.875 63.09375 
Q 16.5 59.96875 16.5 54.203125 
Q 16.5 49.359375 19.40625 46.890625 
Q 22.3125 44.4375 30.421875 42.921875 
L 36.375 41.703125 
Q 47.40625 39.59375 52.65625 34.296875 
Q 57.90625 29 57.90625 20.125 
Q 57.90625 9.515625 50.796875 4.046875 
Q 43.703125 -1.421875 29.984375 -1.421875 
Q 24.8125 -1.421875 18.96875 -0.25 
Q 13.140625 0.921875 6.890625 3.21875 
L 6.890625 13.375 
Q 12.890625 10.015625 18.65625 8.296875 
Q 24.421875 6.59375 29.984375 6.59375 
Q 38.421875 6.59375 43.015625 9.90625 
Q 47.609375 13.234375 47.609375 19.390625 
Q 47.609375 24.75 44.3125 27.78125 
Q 41.015625 30.8125 33.5 32.328125 
L 27.484375 33.5 
Q 16.453125 35.6875 11.515625 40.375 
Q 6.59375 45.0625 6.59375 53.421875 
Q 6.59375 63.09375 13.40625 68.65625 
Q 20.21875 74.21875 32.171875 74.21875 
Q 37.3125 74.21875 42.625 73.28125 
Q 47.953125 72.359375 53.515625 70.515625 
z
" id="DejaVuSans-83"/>
      <path d="M 8.5 21.578125 
L 8.5 54.6875 
L 17.484375 54.6875 
L 17.484375 21.921875 
Q 17.484375 14.15625 20.5 10.265625 
Q 23.53125 6.390625 29.59375 6.390625 
Q 36.859375 6.390625 41.078125 11.03125 
Q 45.3125 15.671875 45.3125 23.6875 
L 45.3125 54.6875 
L 54.296875 54.6875 
L 54.296875 0 
L 45.3125 0 
L 45.3125 8.40625 
Q 42.046875 3.421875 37.71875 1 
Q 33.40625 -1.421875 27.6875 -1.421875 
Q 18.265625 -1.421875 13.375 4.4375 
Q 8.5 10.296875 8.5 21.578125 
z
M 31.109375 56 
z
" id="DejaVuSans-117"/>
      <path d="M 2.984375 54.6875 
L 12.5 54.6875 
L 29.59375 8.796875 
L 46.6875 54.6875 
L 56.203125 54.6875 
L 35.6875 0 
L 23.484375 0 
z
" id="DejaVuSans-118"/>
      <path d="M 9.421875 54.6875 
L 18.40625 54.6875 
L 18.40625 0 
L 9.421875 0 
z
M 9.421875 75.984375 
L 18.40625 75.984375 
L 18.40625 64.59375 
L 9.421875 64.59375 
z
" id="DejaVuSans-105"/>
      <path d="M 45.40625 46.390625 
L 45.40625 75.984375 
L 54.390625 75.984375 
L 54.390625 0 
L 45.40625 0 
L 45.40625 8.203125 
Q 42.578125 3.328125 38.25 0.953125 
Q 33.9375 -1.421875 27.875 -1.421875 
Q 17.96875 -1.421875 11.734375 6.484375 
Q 5.515625 14.40625 5.515625 27.296875 
Q 5.515625 40.1875 11.734375 48.09375 
Q 17.96875 56 27.875 56 
Q 33.9375 56 38.25 53.625 
Q 42.578125 51.265625 45.40625 46.390625 
z
M 14.796875 27.296875 
Q 14.796875 17.390625 18.875 11.75 
Q 22.953125 6.109375 30.078125 6.109375 
Q 37.203125 6.109375 41.296875 11.75 
Q 45.40625 17.390625 45.40625 27.296875 
Q 45.40625 37.203125 41.296875 42.84375 
Q 37.203125 48.484375 30.078125 48.484375 
Q 22.953125 48.484375 18.875 42.84375 
Q 14.796875 37.203125 14.796875 27.296875 
z
" id="DejaVuSans-100"/>
     </defs>
     <use xlink:href="#DejaVuSans-83"/>
     <use x="63.476562" xlink:href="#DejaVuSans-117"/>
     <use x="126.855469" xlink:href="#DejaVuSans-114"/>
     <use x="167.96875" xlink:href="#DejaVuSans-118"/>
     <use x="227.148438" xlink:href="#DejaVuSans-105"/>
     <use x="254.931641" xlink:href="#DejaVuSans-118"/>
     <use x="314.111328" xlink:href="#DejaVuSans-101"/>
     <use x="375.634766" xlink:href="#DejaVuSans-100"/>
    </g>
   </g>
   <g id="patch_5">
    <path d="M 865.936717 107.549062 
L 887.936717 107.549062 
L 887.936717 99.849062 
L 865.936717 99.849062 
z
" style="fill:#4c72b0;fill-opacity:0.25;stroke:#4c72b0;stroke-linejoin:miter;"/>
   </g>
   <g id="text_16">
    <!-- 0 -->
    <g style="fill:#262626;" transform="translate(896.736717 107.549062)scale(0.11 -0.11)">
     <use xlink:href="#DejaVuSans-48"/>
    </g>
   </g>
   <g id="patch_6">
    <path d="M 865.936717 123.695 
L 887.936717 123.695 
L 887.936717 115.995 
L 865.936717 115.995 
z
" style="fill:#dd8452;fill-opacity:0.25;stroke:#dd8452;stroke-linejoin:miter;"/>
   </g>
   <g id="text_17">
    <!-- 1 -->
    <g style="fill:#262626;" transform="translate(896.736717 123.695)scale(0.11 -0.11)">
     <use xlink:href="#DejaVuSans-49"/>
    </g>
   </g>
  </g>
 </g>
 <defs>
  <clipPath id="p8dd6162e2e">
   <rect height="157.9" width="814.385592" x="34.193438" y="7.2"/>
  </clipPath>
 </defs>
</svg>
