<?xml version="1.0" encoding="utf-8" standalone="no"?>
<!DOCTYPE svg PUBLIC "-//W3C//DTD SVG 1.1//EN"
  "http://www.w3.org/Graphics/SVG/1.1/DTD/svg11.dtd">
<!-- Created with matplotlib (https://matplotlib.org/) -->
<svg height="208.059687pt" version="1.1" viewBox="0 0 920.084692 208.059687" width="920.084692pt" xmlns="http://www.w3.org/2000/svg" xmlns:xlink="http://www.w3.org/1999/xlink">
 <metadata>
  <rdf:RDF xmlns:cc="http://creativecommons.org/ns#" xmlns:dc="http://purl.org/dc/elements/1.1/" xmlns:rdf="http://www.w3.org/1999/02/22-rdf-syntax-ns#">
   <cc:Work>
    <dc:type rdf:resource="http://purl.org/dc/dcmitype/StillImage"/>
    <dc:date>2021-06-21T14:05:09.882851</dc:date>
    <dc:format>image/svg+xml</dc:format>
    <dc:creator>
     <cc:Agent>
      <dc:title>Matplotlib v3.3.4, https://matplotlib.org/</dc:title>
     </cc:Agent>
    </dc:creator>
   </cc:Work>
  </rdf:RDF>
 </metadata>
 <defs>
  <style type="text/css">*{stroke-linecap:butt;stroke-linejoin:round;}</style>
 </defs>
 <g id="figure_1">
  <g id="patch_1">
   <path d="M 0 208.059687 
L 920.084692 208.059687 
L 920.084692 0 
L 0 0 
z
" style="fill:none;"/>
  </g>
  <g id="axes_1">
   <g id="patch_2">
    <path d="M 48.190938 165.1 
L 847.579192 165.1 
L 847.579192 7.2 
L 48.190938 7.2 
z
" style="fill:#eaeaf2;"/>
   </g>
   <g id="matplotlib.axis_1">
    <g id="xtick_1">
     <g id="line2d_1">
      <path clip-path="url(#p6b782d638b)" d="M 48.190938 165.1 
L 48.190938 7.2 
" style="fill:none;stroke:#ffffff;stroke-linecap:round;"/>
     </g>
     <g id="text_1">
      <!-- 0 -->
      <g style="fill:#262626;" transform="translate(44.691563 182.958281)scale(0.11 -0.11)">
       <defs>
        <path d="M 31.78125 66.40625 
Q 24.171875 66.40625 20.328125 58.90625 
Q 16.5 51.421875 16.5 36.375 
Q 16.5 21.390625 20.328125 13.890625 
Q 24.171875 6.390625 31.78125 6.390625 
Q 39.453125 6.390625 43.28125 13.890625 
Q 47.125 21.390625 47.125 36.375 
Q 47.125 51.421875 43.28125 58.90625 
Q 39.453125 66.40625 31.78125 66.40625 
z
M 31.78125 74.21875 
Q 44.046875 74.21875 50.515625 64.515625 
Q 56.984375 54.828125 56.984375 36.375 
Q 56.984375 17.96875 50.515625 8.265625 
Q 44.046875 -1.421875 31.78125 -1.421875 
Q 19.53125 -1.421875 13.0625 8.265625 
Q 6.59375 17.96875 6.59375 36.375 
Q 6.59375 54.828125 13.0625 64.515625 
Q 19.53125 74.21875 31.78125 74.21875 
z
" id="DejaVuSans-48"/>
       </defs>
       <use xlink:href="#DejaVuSans-48"/>
      </g>
     </g>
    </g>
    <g id="xtick_2">
     <g id="line2d_2">
      <path clip-path="url(#p6b782d638b)" d="M 204.221133 165.1 
L 204.221133 7.2 
" style="fill:none;stroke:#ffffff;stroke-linecap:round;"/>
     </g>
     <g id="text_2">
      <!-- 100 -->
      <g style="fill:#262626;" transform="translate(193.723008 182.958281)scale(0.11 -0.11)">
       <defs>
        <path d="M 12.40625 8.296875 
L 28.515625 8.296875 
L 28.515625 63.921875 
L 10.984375 60.40625 
L 10.984375 69.390625 
L 28.421875 72.90625 
L 38.28125 72.90625 
L 38.28125 8.296875 
L 54.390625 8.296875 
L 54.390625 0 
L 12.40625 0 
z
" id="DejaVuSans-49"/>
       </defs>
       <use xlink:href="#DejaVuSans-49"/>
       <use x="63.623047" xlink:href="#DejaVuSans-48"/>
       <use x="127.246094" xlink:href="#DejaVuSans-48"/>
      </g>
     </g>
    </g>
    <g id="xtick_3">
     <g id="line2d_3">
      <path clip-path="url(#p6b782d638b)" d="M 360.251329 165.1 
L 360.251329 7.2 
" style="fill:none;stroke:#ffffff;stroke-linecap:round;"/>
     </g>
     <g id="text_3">
      <!-- 200 -->
      <g style="fill:#262626;" transform="translate(349.753204 182.958281)scale(0.11 -0.11)">
       <defs>
        <path d="M 19.1875 8.296875 
L 53.609375 8.296875 
L 53.609375 0 
L 7.328125 0 
L 7.328125 8.296875 
Q 12.9375 14.109375 22.625 23.890625 
Q 32.328125 33.6875 34.8125 36.53125 
Q 39.546875 41.84375 41.421875 45.53125 
Q 43.3125 49.21875 43.3125 52.78125 
Q 43.3125 58.59375 39.234375 62.25 
Q 35.15625 65.921875 28.609375 65.921875 
Q 23.96875 65.921875 18.8125 64.3125 
Q 13.671875 62.703125 7.8125 59.421875 
L 7.8125 69.390625 
Q 13.765625 71.78125 18.9375 73 
Q 24.125 74.21875 28.421875 74.21875 
Q 39.75 74.21875 46.484375 68.546875 
Q 53.21875 62.890625 53.21875 53.421875 
Q 53.21875 48.921875 51.53125 44.890625 
Q 49.859375 40.875 45.40625 35.40625 
Q 44.1875 33.984375 37.640625 27.21875 
Q 31.109375 20.453125 19.1875 8.296875 
z
" id="DejaVuSans-50"/>
       </defs>
       <use xlink:href="#DejaVuSans-50"/>
       <use x="63.623047" xlink:href="#DejaVuSans-48"/>
       <use x="127.246094" xlink:href="#DejaVuSans-48"/>
      </g>
     </g>
    </g>
    <g id="xtick_4">
     <g id="line2d_4">
      <path clip-path="url(#p6b782d638b)" d="M 516.281525 165.1 
L 516.281525 7.2 
" style="fill:none;stroke:#ffffff;stroke-linecap:round;"/>
     </g>
     <g id="text_4">
      <!-- 300 -->
      <g style="fill:#262626;" transform="translate(505.7834 182.958281)scale(0.11 -0.11)">
       <defs>
        <path d="M 40.578125 39.3125 
Q 47.65625 37.796875 51.625 33 
Q 55.609375 28.21875 55.609375 21.1875 
Q 55.609375 10.40625 48.1875 4.484375 
Q 40.765625 -1.421875 27.09375 -1.421875 
Q 22.515625 -1.421875 17.65625 -0.515625 
Q 12.796875 0.390625 7.625 2.203125 
L 7.625 11.71875 
Q 11.71875 9.328125 16.59375 8.109375 
Q 21.484375 6.890625 26.8125 6.890625 
Q 36.078125 6.890625 40.9375 10.546875 
Q 45.796875 14.203125 45.796875 21.1875 
Q 45.796875 27.640625 41.28125 31.265625 
Q 36.765625 34.90625 28.71875 34.90625 
L 20.21875 34.90625 
L 20.21875 43.015625 
L 29.109375 43.015625 
Q 36.375 43.015625 40.234375 45.921875 
Q 44.09375 48.828125 44.09375 54.296875 
Q 44.09375 59.90625 40.109375 62.90625 
Q 36.140625 65.921875 28.71875 65.921875 
Q 24.65625 65.921875 20.015625 65.03125 
Q 15.375 64.15625 9.8125 62.3125 
L 9.8125 71.09375 
Q 15.4375 72.65625 20.34375 73.4375 
Q 25.25 74.21875 29.59375 74.21875 
Q 40.828125 74.21875 47.359375 69.109375 
Q 53.90625 64.015625 53.90625 55.328125 
Q 53.90625 49.265625 50.4375 45.09375 
Q 46.96875 40.921875 40.578125 39.3125 
z
" id="DejaVuSans-51"/>
       </defs>
       <use xlink:href="#DejaVuSans-51"/>
       <use x="63.623047" xlink:href="#DejaVuSans-48"/>
       <use x="127.246094" xlink:href="#DejaVuSans-48"/>
      </g>
     </g>
    </g>
    <g id="xtick_5">
     <g id="line2d_5">
      <path clip-path="url(#p6b782d638b)" d="M 672.311721 165.1 
L 672.311721 7.2 
" style="fill:none;stroke:#ffffff;stroke-linecap:round;"/>
     </g>
     <g id="text_5">
      <!-- 400 -->
      <g style="fill:#262626;" transform="translate(661.813596 182.958281)scale(0.11 -0.11)">
       <defs>
        <path d="M 37.796875 64.3125 
L 12.890625 25.390625 
L 37.796875 25.390625 
z
M 35.203125 72.90625 
L 47.609375 72.90625 
L 47.609375 25.390625 
L 58.015625 25.390625 
L 58.015625 17.1875 
L 47.609375 17.1875 
L 47.609375 0 
L 37.796875 0 
L 37.796875 17.1875 
L 4.890625 17.1875 
L 4.890625 26.703125 
z
" id="DejaVuSans-52"/>
       </defs>
       <use xlink:href="#DejaVuSans-52"/>
       <use x="63.623047" xlink:href="#DejaVuSans-48"/>
       <use x="127.246094" xlink:href="#DejaVuSans-48"/>
      </g>
     </g>
    </g>
    <g id="xtick_6">
     <g id="line2d_6">
      <path clip-path="url(#p6b782d638b)" d="M 828.341917 165.1 
L 828.341917 7.2 
" style="fill:none;stroke:#ffffff;stroke-linecap:round;"/>
     </g>
     <g id="text_6">
      <!-- 500 -->
      <g style="fill:#262626;" transform="translate(817.843792 182.958281)scale(0.11 -0.11)">
       <defs>
        <path d="M 10.796875 72.90625 
L 49.515625 72.90625 
L 49.515625 64.59375 
L 19.828125 64.59375 
L 19.828125 46.734375 
Q 21.96875 47.46875 24.109375 47.828125 
Q 26.265625 48.1875 28.421875 48.1875 
Q 40.625 48.1875 47.75 41.5 
Q 54.890625 34.8125 54.890625 23.390625 
Q 54.890625 11.625 47.5625 5.09375 
Q 40.234375 -1.421875 26.90625 -1.421875 
Q 22.3125 -1.421875 17.546875 -0.640625 
Q 12.796875 0.140625 7.71875 1.703125 
L 7.71875 11.625 
Q 12.109375 9.234375 16.796875 8.0625 
Q 21.484375 6.890625 26.703125 6.890625 
Q 35.15625 6.890625 40.078125 11.328125 
Q 45.015625 15.765625 45.015625 23.390625 
Q 45.015625 31 40.078125 35.4375 
Q 35.15625 39.890625 26.703125 39.890625 
Q 22.75 39.890625 18.8125 39.015625 
Q 14.890625 38.140625 10.796875 36.28125 
z
" id="DejaVuSans-53"/>
       </defs>
       <use xlink:href="#DejaVuSans-53"/>
       <use x="63.623047" xlink:href="#DejaVuSans-48"/>
       <use x="127.246094" xlink:href="#DejaVuSans-48"/>
      </g>
     </g>
    </g>
    <g id="text_7">
     <!-- Fare -->
     <g style="fill:#262626;" transform="translate(435.281315 198.364062)scale(0.12 -0.12)">
      <defs>
       <path d="M 9.8125 72.90625 
L 51.703125 72.90625 
L 51.703125 64.59375 
L 19.671875 64.59375 
L 19.671875 43.109375 
L 48.578125 43.109375 
L 48.578125 34.8125 
L 19.671875 34.8125 
L 19.671875 0 
L 9.8125 0 
z
" id="DejaVuSans-70"/>
       <path d="M 34.28125 27.484375 
Q 23.390625 27.484375 19.1875 25 
Q 14.984375 22.515625 14.984375 16.5 
Q 14.984375 11.71875 18.140625 8.90625 
Q 21.296875 6.109375 26.703125 6.109375 
Q 34.1875 6.109375 38.703125 11.40625 
Q 43.21875 16.703125 43.21875 25.484375 
L 43.21875 27.484375 
z
M 52.203125 31.203125 
L 52.203125 0 
L 43.21875 0 
L 43.21875 8.296875 
Q 40.140625 3.328125 35.546875 0.953125 
Q 30.953125 -1.421875 24.3125 -1.421875 
Q 15.921875 -1.421875 10.953125 3.296875 
Q 6 8.015625 6 15.921875 
Q 6 25.140625 12.171875 29.828125 
Q 18.359375 34.515625 30.609375 34.515625 
L 43.21875 34.515625 
L 43.21875 35.40625 
Q 43.21875 41.609375 39.140625 45 
Q 35.0625 48.390625 27.6875 48.390625 
Q 23 48.390625 18.546875 47.265625 
Q 14.109375 46.140625 10.015625 43.890625 
L 10.015625 52.203125 
Q 14.9375 54.109375 19.578125 55.046875 
Q 24.21875 56 28.609375 56 
Q 40.484375 56 46.34375 49.84375 
Q 52.203125 43.703125 52.203125 31.203125 
z
" id="DejaVuSans-97"/>
       <path d="M 41.109375 46.296875 
Q 39.59375 47.171875 37.8125 47.578125 
Q 36.03125 48 33.890625 48 
Q 26.265625 48 22.1875 43.046875 
Q 18.109375 38.09375 18.109375 28.8125 
L 18.109375 0 
L 9.078125 0 
L 9.078125 54.6875 
L 18.109375 54.6875 
L 18.109375 46.1875 
Q 20.953125 51.171875 25.484375 53.578125 
Q 30.03125 56 36.53125 56 
Q 37.453125 56 38.578125 55.875 
Q 39.703125 55.765625 41.0625 55.515625 
z
" id="DejaVuSans-114"/>
       <path d="M 56.203125 29.59375 
L 56.203125 25.203125 
L 14.890625 25.203125 
Q 15.484375 15.921875 20.484375 11.0625 
Q 25.484375 6.203125 34.421875 6.203125 
Q 39.59375 6.203125 44.453125 7.46875 
Q 49.3125 8.734375 54.109375 11.28125 
L 54.109375 2.78125 
Q 49.265625 0.734375 44.1875 -0.34375 
Q 39.109375 -1.421875 33.890625 -1.421875 
Q 20.796875 -1.421875 13.15625 6.1875 
Q 5.515625 13.8125 5.515625 26.8125 
Q 5.515625 40.234375 12.765625 48.109375 
Q 20.015625 56 32.328125 56 
Q 43.359375 56 49.78125 48.890625 
Q 56.203125 41.796875 56.203125 29.59375 
z
M 47.21875 32.234375 
Q 47.125 39.59375 43.09375 43.984375 
Q 39.0625 48.390625 32.421875 48.390625 
Q 24.90625 48.390625 20.390625 44.140625 
Q 15.875 39.890625 15.1875 32.171875 
z
" id="DejaVuSans-101"/>
      </defs>
      <use xlink:href="#DejaVuSans-70"/>
      <use x="48.394531" xlink:href="#DejaVuSans-97"/>
      <use x="109.673828" xlink:href="#DejaVuSans-114"/>
      <use x="148.537109" xlink:href="#DejaVuSans-101"/>
     </g>
    </g>
   </g>
   <g id="matplotlib.axis_2">
    <g id="ytick_1">
     <g id="line2d_7">
      <path clip-path="url(#p6b782d638b)" d="M 48.190938 165.1 
L 847.579192 165.1 
" style="fill:none;stroke:#ffffff;stroke-linecap:round;"/>
     </g>
     <g id="text_8">
      <!-- 0.000 -->
      <g style="fill:#262626;" transform="translate(7.2 169.279141)scale(0.11 -0.11)">
       <defs>
        <path d="M 10.6875 12.40625 
L 21 12.40625 
L 21 0 
L 10.6875 0 
z
" id="DejaVuSans-46"/>
       </defs>
       <use xlink:href="#DejaVuSans-48"/>
       <use x="63.623047" xlink:href="#DejaVuSans-46"/>
       <use x="95.410156" xlink:href="#DejaVuSans-48"/>
       <use x="159.033203" xlink:href="#DejaVuSans-48"/>
       <use x="222.65625" xlink:href="#DejaVuSans-48"/>
      </g>
     </g>
    </g>
    <g id="ytick_2">
     <g id="line2d_8">
      <path clip-path="url(#p6b782d638b)" d="M 48.190938 140.002853 
L 847.579192 140.002853 
" style="fill:none;stroke:#ffffff;stroke-linecap:round;"/>
     </g>
     <g id="text_9">
      <!-- 0.005 -->
      <g style="fill:#262626;" transform="translate(7.2 144.181994)scale(0.11 -0.11)">
       <use xlink:href="#DejaVuSans-48"/>
       <use x="63.623047" xlink:href="#DejaVuSans-46"/>
       <use x="95.410156" xlink:href="#DejaVuSans-48"/>
       <use x="159.033203" xlink:href="#DejaVuSans-48"/>
       <use x="222.65625" xlink:href="#DejaVuSans-53"/>
      </g>
     </g>
    </g>
    <g id="ytick_3">
     <g id="line2d_9">
      <path clip-path="url(#p6b782d638b)" d="M 48.190938 114.905706 
L 847.579192 114.905706 
" style="fill:none;stroke:#ffffff;stroke-linecap:round;"/>
     </g>
     <g id="text_10">
      <!-- 0.010 -->
      <g style="fill:#262626;" transform="translate(7.2 119.084847)scale(0.11 -0.11)">
       <use xlink:href="#DejaVuSans-48"/>
       <use x="63.623047" xlink:href="#DejaVuSans-46"/>
       <use x="95.410156" xlink:href="#DejaVuSans-48"/>
       <use x="159.033203" xlink:href="#DejaVuSans-49"/>
       <use x="222.65625" xlink:href="#DejaVuSans-48"/>
      </g>
     </g>
    </g>
    <g id="ytick_4">
     <g id="line2d_10">
      <path clip-path="url(#p6b782d638b)" d="M 48.190938 89.808559 
L 847.579192 89.808559 
" style="fill:none;stroke:#ffffff;stroke-linecap:round;"/>
     </g>
     <g id="text_11">
      <!-- 0.015 -->
      <g style="fill:#262626;" transform="translate(7.2 93.9877)scale(0.11 -0.11)">
       <use xlink:href="#DejaVuSans-48"/>
       <use x="63.623047" xlink:href="#DejaVuSans-46"/>
       <use x="95.410156" xlink:href="#DejaVuSans-48"/>
       <use x="159.033203" xlink:href="#DejaVuSans-49"/>
       <use x="222.65625" xlink:href="#DejaVuSans-53"/>
      </g>
     </g>
    </g>
    <g id="ytick_5">
     <g id="line2d_11">
      <path clip-path="url(#p6b782d638b)" d="M 48.190938 64.711412 
L 847.579192 64.711412 
" style="fill:none;stroke:#ffffff;stroke-linecap:round;"/>
     </g>
     <g id="text_12">
      <!-- 0.020 -->
      <g style="fill:#262626;" transform="translate(7.2 68.890553)scale(0.11 -0.11)">
       <use xlink:href="#DejaVuSans-48"/>
       <use x="63.623047" xlink:href="#DejaVuSans-46"/>
       <use x="95.410156" xlink:href="#DejaVuSans-48"/>
       <use x="159.033203" xlink:href="#DejaVuSans-50"/>
       <use x="222.65625" xlink:href="#DejaVuSans-48"/>
      </g>
     </g>
    </g>
    <g id="ytick_6">
     <g id="line2d_12">
      <path clip-path="url(#p6b782d638b)" d="M 48.190938 39.614265 
L 847.579192 39.614265 
" style="fill:none;stroke:#ffffff;stroke-linecap:round;"/>
     </g>
     <g id="text_13">
      <!-- 0.025 -->
      <g style="fill:#262626;" transform="translate(7.2 43.793406)scale(0.11 -0.11)">
       <use xlink:href="#DejaVuSans-48"/>
       <use x="63.623047" xlink:href="#DejaVuSans-46"/>
       <use x="95.410156" xlink:href="#DejaVuSans-48"/>
       <use x="159.033203" xlink:href="#DejaVuSans-50"/>
       <use x="222.65625" xlink:href="#DejaVuSans-53"/>
      </g>
     </g>
    </g>
    <g id="ytick_7">
     <g id="line2d_13">
      <path clip-path="url(#p6b782d638b)" d="M 48.190938 14.517118 
L 847.579192 14.517118 
" style="fill:none;stroke:#ffffff;stroke-linecap:round;"/>
     </g>
     <g id="text_14">
      <!-- 0.030 -->
      <g style="fill:#262626;" transform="translate(7.2 18.696259)scale(0.11 -0.11)">
       <use xlink:href="#DejaVuSans-48"/>
       <use x="63.623047" xlink:href="#DejaVuSans-46"/>
       <use x="95.410156" xlink:href="#DejaVuSans-48"/>
       <use x="159.033203" xlink:href="#DejaVuSans-51"/>
       <use x="222.65625" xlink:href="#DejaVuSans-48"/>
      </g>
     </g>
    </g>
   </g>
   <g id="PolyCollection_1">
    <defs>
     <path d="M 6.582449 -43.08399 
L 6.582449 -42.959688 
L 9.062732 -42.959688 
L 11.543016 -42.959688 
L 14.023299 -42.959688 
L 16.503582 -42.959688 
L 18.983866 -42.959688 
L 21.464149 -42.959688 
L 23.944433 -42.959688 
L 26.424716 -42.959688 
L 28.904999 -42.959688 
L 31.385283 -42.959688 
L 33.865566 -42.959688 
L 36.345849 -42.959688 
L 38.826133 -42.959688 
L 41.306416 -42.959688 
L 43.7867 -42.959688 
L 46.266983 -42.959688 
L 48.747266 -42.959688 
L 51.22755 -42.959688 
L 53.707833 -42.959688 
L 56.188116 -42.959688 
L 58.6684 -42.959688 
L 61.148683 -42.959688 
L 63.628967 -42.959688 
L 66.10925 -42.959688 
L 68.589533 -42.959688 
L 71.069817 -42.959688 
L 73.5501 -42.959688 
L 76.030383 -42.959688 
L 78.510667 -42.959688 
L 80.99095 -42.959688 
L 83.471234 -42.959688 
L 85.951517 -42.959688 
L 88.4318 -42.959688 
L 90.912084 -42.959688 
L 93.392367 -42.959688 
L 95.872651 -42.959688 
L 98.352934 -42.959688 
L 100.833217 -42.959688 
L 103.313501 -42.959688 
L 105.793784 -42.959688 
L 108.274067 -42.959688 
L 110.754351 -42.959688 
L 113.234634 -42.959688 
L 115.714918 -42.959688 
L 118.195201 -42.959688 
L 120.675484 -42.959688 
L 123.155768 -42.959688 
L 125.636051 -42.959688 
L 128.116334 -42.959688 
L 130.596618 -42.959688 
L 133.076901 -42.959688 
L 135.557185 -42.959688 
L 138.037468 -42.959688 
L 140.517751 -42.959688 
L 142.998035 -42.959688 
L 145.478318 -42.959688 
L 147.958601 -42.959688 
L 150.438885 -42.959688 
L 152.919168 -42.959688 
L 155.399452 -42.959688 
L 157.879735 -42.959688 
L 160.360018 -42.959688 
L 162.840302 -42.959688 
L 165.320585 -42.959688 
L 167.800869 -42.959688 
L 170.281152 -42.959688 
L 172.761435 -42.959688 
L 175.241719 -42.959688 
L 177.722002 -42.959688 
L 180.202285 -42.959688 
L 182.682569 -42.959688 
L 185.162852 -42.959688 
L 187.643136 -42.959688 
L 190.123419 -42.959688 
L 192.603702 -42.959688 
L 195.083986 -42.959688 
L 197.564269 -42.959688 
L 200.044552 -42.959688 
L 202.524836 -42.959688 
L 205.005119 -42.959688 
L 207.485403 -42.959688 
L 209.965686 -42.959688 
L 212.445969 -42.959688 
L 214.926253 -42.959688 
L 217.406536 -42.959688 
L 219.886819 -42.959688 
L 222.367103 -42.959688 
L 224.847386 -42.959688 
L 227.32767 -42.959688 
L 229.807953 -42.959688 
L 232.288236 -42.959688 
L 234.76852 -42.959688 
L 237.248803 -42.959688 
L 239.729087 -42.959688 
L 242.20937 -42.959688 
L 244.689653 -42.959688 
L 247.169937 -42.959688 
L 249.65022 -42.959688 
L 252.130503 -42.959688 
L 254.610787 -42.959688 
L 257.09107 -42.959688 
L 259.571354 -42.959688 
L 262.051637 -42.959688 
L 264.53192 -42.959688 
L 267.012204 -42.959688 
L 269.492487 -42.959688 
L 271.97277 -42.959688 
L 274.453054 -42.959688 
L 276.933337 -42.959688 
L 279.413621 -42.959688 
L 281.893904 -42.959688 
L 284.374187 -42.959688 
L 286.854471 -42.959688 
L 289.334754 -42.959688 
L 291.815037 -42.959688 
L 294.295321 -42.959688 
L 296.775604 -42.959688 
L 299.255888 -42.959688 
L 301.736171 -42.959688 
L 304.216454 -42.959688 
L 306.696738 -42.959688 
L 309.177021 -42.959688 
L 311.657305 -42.959688 
L 314.137588 -42.959688 
L 316.617871 -42.959688 
L 319.098155 -42.959688 
L 321.578438 -42.959688 
L 324.058721 -42.959688 
L 326.539005 -42.959688 
L 329.019288 -42.959688 
L 331.499572 -42.959688 
L 333.979855 -42.959688 
L 336.460138 -42.959688 
L 338.940422 -42.959688 
L 341.420705 -42.959688 
L 343.900988 -42.959688 
L 346.381272 -42.959688 
L 348.861555 -42.959688 
L 351.341839 -42.959688 
L 353.822122 -42.959688 
L 356.302405 -42.959688 
L 358.782689 -42.959688 
L 361.262972 -42.959688 
L 363.743255 -42.959688 
L 366.223539 -42.959688 
L 368.703822 -42.959688 
L 371.184106 -42.959688 
L 373.664389 -42.959688 
L 376.144672 -42.959688 
L 378.624956 -42.959688 
L 381.105239 -42.959688 
L 383.585523 -42.959688 
L 386.065806 -42.959688 
L 388.546089 -42.959688 
L 391.026373 -42.959688 
L 393.506656 -42.959688 
L 395.986939 -42.959688 
L 398.467223 -42.959688 
L 400.947506 -42.959688 
L 403.42779 -42.959688 
L 405.908073 -42.959688 
L 408.388356 -42.959688 
L 410.86864 -42.959688 
L 413.348923 -42.959688 
L 415.829206 -42.959688 
L 418.30949 -42.959688 
L 420.789773 -42.959688 
L 423.270057 -42.959688 
L 425.75034 -42.959688 
L 428.230623 -42.959688 
L 430.710907 -42.959688 
L 433.19119 -42.959688 
L 435.671473 -42.959688 
L 438.151757 -42.959688 
L 440.63204 -42.959688 
L 443.112324 -42.959688 
L 445.592607 -42.959688 
L 448.07289 -42.959688 
L 450.553174 -42.959688 
L 453.033457 -42.959688 
L 455.51374 -42.959688 
L 457.994024 -42.959688 
L 460.474307 -42.959688 
L 462.954591 -42.959688 
L 465.434874 -42.959688 
L 467.915157 -42.959688 
L 470.395441 -42.959688 
L 472.875724 -42.959688 
L 475.356008 -42.959688 
L 477.836291 -42.959688 
L 480.316574 -42.959688 
L 482.796858 -42.959688 
L 485.277141 -42.959688 
L 487.757424 -42.959688 
L 490.237708 -42.959688 
L 492.717991 -42.959688 
L 495.198275 -42.959688 
L 497.678558 -42.959688 
L 500.158841 -42.959688 
L 500.158841 -42.96881 
L 500.158841 -42.96881 
L 497.678558 -42.975042 
L 495.198275 -42.984722 
L 492.717991 -42.999223 
L 490.237708 -43.020166 
L 487.757424 -43.049312 
L 485.277141 -43.088357 
L 482.796858 -43.138664 
L 480.316574 -43.200928 
L 477.836291 -43.274834 
L 475.356008 -43.358798 
L 472.875724 -43.449844 
L 470.395441 -43.543713 
L 467.915157 -43.635215 
L 465.434874 -43.718809 
L 462.954591 -43.789321 
L 460.474307 -43.842663 
L 457.994024 -43.876403 
L 455.51374 -43.890055 
L 453.033457 -43.885022 
L 450.553174 -43.86421 
L 448.07289 -43.83142 
L 445.592607 -43.790663 
L 443.112324 -43.745586 
L 440.63204 -43.699124 
L 438.151757 -43.653435 
L 435.671473 -43.610093 
L 433.19119 -43.570422 
L 430.710907 -43.535845 
L 428.230623 -43.508091 
L 425.75034 -43.489209 
L 423.270057 -43.481333 
L 420.789773 -43.486292 
L 418.30949 -43.505143 
L 415.829206 -43.537768 
L 413.348923 -43.582641 
L 410.86864 -43.636841 
L 408.388356 -43.696308 
L 405.908073 -43.756306 
L 403.42779 -43.811996 
L 400.947506 -43.859003 
L 398.467223 -43.893869 
L 395.986939 -43.914321 
L 393.506656 -43.919323 
L 391.026373 -43.908945 
L 388.546089 -43.884108 
L 386.065806 -43.846284 
L 383.585523 -43.797246 
L 381.105239 -43.738895 
L 378.624956 -43.67319 
L 376.144672 -43.602149 
L 373.664389 -43.527873 
L 371.184106 -43.452549 
L 368.703822 -43.378397 
L 366.223539 -43.307555 
L 363.743255 -43.241926 
L 361.262972 -43.183025 
L 358.782689 -43.131855 
L 356.302405 -43.088854 
L 353.822122 -43.05392 
L 351.341839 -43.026496 
L 348.861555 -43.005704 
L 346.381272 -42.990497 
L 343.900988 -42.979797 
L 341.420705 -42.972617 
L 338.940422 -42.968144 
L 336.460138 -42.9658 
L 333.979855 -42.965287 
L 331.499572 -42.966621 
L 329.019288 -42.970173 
L 326.539005 -42.976715 
L 324.058721 -42.987459 
L 321.578438 -43.00408 
L 319.098155 -43.028688 
L 316.617871 -43.06372 
L 314.137588 -43.111723 
L 311.657305 -43.175012 
L 309.177021 -43.255226 
L 306.696738 -43.352808 
L 304.216454 -43.466533 
L 301.736171 -43.593159 
L 299.255888 -43.727351 
L 296.775604 -43.861948 
L 294.295321 -43.988615 
L 291.815037 -44.0988 
L 289.334754 -44.184871 
L 286.854471 -44.241201 
L 284.374187 -44.264992 
L 281.893904 -44.256633 
L 279.413621 -44.219523 
L 276.933337 -44.159393 
L 274.453054 -44.083281 
L 271.97277 -43.998404 
L 269.492487 -43.911182 
L 267.012204 -43.826608 
L 264.53192 -43.748081 
L 262.051637 -43.677654 
L 259.571354 -43.616598 
L 257.09107 -43.566067 
L 254.610787 -43.527673 
L 252.130503 -43.503796 
L 249.65022 -43.497547 
L 247.169937 -43.512364 
L 244.689653 -43.551332 
L 242.20937 -43.616353 
L 239.729087 -43.70734 
L 237.248803 -43.821603 
L 234.76852 -43.953596 
L 232.288236 -44.095111 
L 229.807953 -44.235964 
L 227.32767 -44.365106 
L 224.847386 -44.472049 
L 222.367103 -44.548369 
L 219.886819 -44.589071 
L 217.406536 -44.593593 
L 214.926253 -44.566258 
L 212.445969 -44.516138 
L 209.965686 -44.456347 
L 207.485403 -44.4029 
L 205.005119 -44.373337 
L 202.524836 -44.385298 
L 200.044552 -44.45521 
L 197.564269 -44.597172 
L 195.083986 -44.822048 
L 192.603702 -45.136728 
L 190.123419 -45.543506 
L 187.643136 -46.039541 
L 185.162852 -46.616447 
L 182.682569 -47.260087 
L 180.202285 -47.950732 
L 177.722002 -48.663741 
L 175.241719 -49.370888 
L 172.761435 -50.042374 
L 170.281152 -50.649438 
L 167.800869 -51.16735 
L 165.320585 -51.578421 
L 162.840302 -51.874584 
L 160.360018 -52.059063 
L 157.879735 -52.146761 
L 155.399452 -52.163115 
L 152.919168 -52.141484 
L 150.438885 -52.119377 
L 147.958601 -52.13414 
L 145.478318 -52.218859 
L 142.998035 -52.399286 
L 140.517751 -52.692433 
L 138.037468 -53.107168 
L 135.557185 -53.646775 
L 133.076901 -54.312965 
L 130.596618 -55.110523 
L 128.116334 -56.051572 
L 125.636051 -57.158422 
L 123.155768 -58.464221 
L 120.675484 -60.011011 
L 118.195201 -61.845338 
L 115.714918 -64.012134 
L 113.234634 -66.548143 
L 110.754351 -69.476535 
L 108.274067 -72.804443 
L 105.793784 -76.524889 
L 103.313501 -80.623752 
L 100.833217 -85.091231 
L 98.352934 -89.935695 
L 95.872651 -95.196263 
L 93.392367 -100.949454 
L 90.912084 -107.305118 
L 88.4318 -114.388228 
L 85.951517 -122.305835 
L 83.471234 -131.102435 
L 80.99095 -140.711138 
L 78.510667 -150.911448 
L 76.030383 -161.305688 
L 73.5501 -171.324494 
L 71.069817 -180.266967 
L 68.589533 -187.373917 
L 66.10925 -191.924594 
L 63.628967 -193.34064 
L 61.148683 -191.277615 
L 58.6684 -185.685617 
L 56.188116 -176.826277 
L 53.707833 -165.242379 
L 51.22755 -151.686258 
L 48.747266 -137.021353 
L 46.266983 -122.115808 
L 43.7867 -107.746891 
L 41.306416 -94.530726 
L 38.826133 -82.884944 
L 36.345849 -73.024377 
L 33.865566 -64.98381 
L 31.385283 -58.658196 
L 28.904999 -53.849881 
L 26.424716 -50.313959 
L 23.944433 -47.79567 
L 21.464149 -46.056993 
L 18.983866 -44.8923 
L 16.503582 -44.134751 
L 14.023299 -43.656012 
L 11.543016 -43.361895 
L 9.062732 -43.186155 
L 6.582449 -43.08399 
z
" id="m6f3ae4fb32" style="stroke:#4c72b0;"/>
    </defs>
    <g clip-path="url(#p6b782d638b)">
     <use style="fill:#4c72b0;fill-opacity:0.25;stroke:#4c72b0;" x="0" xlink:href="#m6f3ae4fb32" y="208.059687"/>
    </g>
   </g>
   <g id="PolyCollection_2">
    <path clip-path="url(#p6b782d638b)" d="M -48.855443 165.005809 
L -48.855443 165.1 
L -43.863076 165.1 
L -38.870709 165.1 
L -33.878342 165.1 
L -28.885975 165.1 
L -23.893608 165.1 
L -18.901241 165.1 
L -13.908874 165.1 
L -8.916507 165.1 
L -3.924141 165.1 
L 1.068226 165.1 
L 6.060593 165.1 
L 11.05296 165.1 
L 16.045327 165.1 
L 21.037694 165.1 
L 26.030061 165.1 
L 31.022428 165.1 
L 36.014795 165.1 
L 41.007162 165.1 
L 45.999529 165.1 
L 50.991895 165.1 
L 55.984262 165.1 
L 60.976629 165.1 
L 65.968996 165.1 
L 70.961363 165.1 
L 75.95373 165.1 
L 80.946097 165.1 
L 85.938464 165.1 
L 90.930831 165.1 
L 95.923198 165.1 
L 100.915565 165.1 
L 105.907931 165.1 
L 110.900298 165.1 
L 115.892665 165.1 
L 120.885032 165.1 
L 125.877399 165.1 
L 130.869766 165.1 
L 135.862133 165.1 
L 140.8545 165.1 
L 145.846867 165.1 
L 150.839234 165.1 
L 155.831601 165.1 
L 160.823967 165.1 
L 165.816334 165.1 
L 170.808701 165.1 
L 175.801068 165.1 
L 180.793435 165.1 
L 185.785802 165.1 
L 190.778169 165.1 
L 195.770536 165.1 
L 200.762903 165.1 
L 205.75527 165.1 
L 210.747637 165.1 
L 215.740003 165.1 
L 220.73237 165.1 
L 225.724737 165.1 
L 230.717104 165.1 
L 235.709471 165.1 
L 240.701838 165.1 
L 245.694205 165.1 
L 250.686572 165.1 
L 255.678939 165.1 
L 260.671306 165.1 
L 265.663673 165.1 
L 270.656039 165.1 
L 275.648406 165.1 
L 280.640773 165.1 
L 285.63314 165.1 
L 290.625507 165.1 
L 295.617874 165.1 
L 300.610241 165.1 
L 305.602608 165.1 
L 310.594975 165.1 
L 315.587342 165.1 
L 320.579709 165.1 
L 325.572075 165.1 
L 330.564442 165.1 
L 335.556809 165.1 
L 340.549176 165.1 
L 345.541543 165.1 
L 350.53391 165.1 
L 355.526277 165.1 
L 360.518644 165.1 
L 365.511011 165.1 
L 370.503378 165.1 
L 375.495745 165.1 
L 380.488111 165.1 
L 385.480478 165.1 
L 390.472845 165.1 
L 395.465212 165.1 
L 400.457579 165.1 
L 405.449946 165.1 
L 410.442313 165.1 
L 415.43468 165.1 
L 420.427047 165.1 
L 425.419414 165.1 
L 430.41178 165.1 
L 435.404147 165.1 
L 440.396514 165.1 
L 445.388881 165.1 
L 450.381248 165.1 
L 455.373615 165.1 
L 460.365982 165.1 
L 465.358349 165.1 
L 470.350716 165.1 
L 475.343083 165.1 
L 480.33545 165.1 
L 485.327816 165.1 
L 490.320183 165.1 
L 495.31255 165.1 
L 500.304917 165.1 
L 505.297284 165.1 
L 510.289651 165.1 
L 515.282018 165.1 
L 520.274385 165.1 
L 525.266752 165.1 
L 530.259119 165.1 
L 535.251486 165.1 
L 540.243852 165.1 
L 545.236219 165.1 
L 550.228586 165.1 
L 555.220953 165.1 
L 560.21332 165.1 
L 565.205687 165.1 
L 570.198054 165.1 
L 575.190421 165.1 
L 580.182788 165.1 
L 585.175155 165.1 
L 590.167522 165.1 
L 595.159888 165.1 
L 600.152255 165.1 
L 605.144622 165.1 
L 610.136989 165.1 
L 615.129356 165.1 
L 620.121723 165.1 
L 625.11409 165.1 
L 630.106457 165.1 
L 635.098824 165.1 
L 640.091191 165.1 
L 645.083558 165.1 
L 650.075924 165.1 
L 655.068291 165.1 
L 660.060658 165.1 
L 665.053025 165.1 
L 670.045392 165.1 
L 675.037759 165.1 
L 680.030126 165.1 
L 685.022493 165.1 
L 690.01486 165.1 
L 695.007227 165.1 
L 699.999594 165.1 
L 704.99196 165.1 
L 709.984327 165.1 
L 714.976694 165.1 
L 719.969061 165.1 
L 724.961428 165.1 
L 729.953795 165.1 
L 734.946162 165.1 
L 739.938529 165.1 
L 744.930896 165.1 
L 749.923263 165.1 
L 754.91563 165.1 
L 759.907996 165.1 
L 764.900363 165.1 
L 769.89273 165.1 
L 774.885097 165.1 
L 779.877464 165.1 
L 784.869831 165.1 
L 789.862198 165.1 
L 794.854565 165.1 
L 799.846932 165.1 
L 804.839299 165.1 
L 809.831666 165.1 
L 814.824032 165.1 
L 819.816399 165.1 
L 824.808766 165.1 
L 829.801133 165.1 
L 834.7935 165.1 
L 839.785867 165.1 
L 844.778234 165.1 
L 849.770601 165.1 
L 854.762968 165.1 
L 859.755335 165.1 
L 864.747701 165.1 
L 869.740068 165.1 
L 874.732435 165.1 
L 879.724802 165.1 
L 884.717169 165.1 
L 889.709536 165.1 
L 894.701903 165.1 
L 899.69427 165.1 
L 904.686637 165.1 
L 909.679004 165.1 
L 914.671371 165.1 
L 919.663737 165.1 
L 924.656104 165.1 
L 929.648471 165.1 
L 934.640838 165.1 
L 939.633205 165.1 
L 944.625572 165.1 
L 944.625572 165.090588 
L 944.625572 165.090588 
L 939.633205 165.085223 
L 934.640838 165.077346 
L 929.648471 165.066088 
L 924.656104 165.050429 
L 919.663737 165.029246 
L 914.671371 165.001387 
L 909.679004 164.965794 
L 904.686637 164.921652 
L 899.69427 164.868571 
L 894.701903 164.806759 
L 889.709536 164.737183 
L 884.717169 164.661664 
L 879.724802 164.582891 
L 874.732435 164.504319 
L 869.740068 164.429959 
L 864.747701 164.364055 
L 859.755335 164.310695 
L 854.762968 164.273389 
L 849.770601 164.254695 
L 844.778234 164.255923 
L 839.785867 164.276987 
L 834.7935 164.316412 
L 829.801133 164.371508 
L 824.808766 164.43867 
L 819.816399 164.513771 
L 814.824032 164.592574 
L 809.831666 164.671121 
L 804.839299 164.746041 
L 799.846932 164.814749 
L 794.854565 164.875531 
L 789.862198 164.927518 
L 784.869831 164.970585 
L 779.877464 165.005183 
L 774.885097 165.032167 
L 769.89273 165.052614 
L 764.900363 165.067676 
L 759.907996 165.07847 
L 754.91563 165.085997 
L 749.923263 165.091107 
L 744.930896 165.094485 
L 739.938529 165.09666 
L 734.946162 165.098025 
L 729.953795 165.09886 
L 724.961428 165.099357 
L 719.969061 165.099646 
L 714.976694 165.09981 
L 709.984327 165.0999 
L 704.99196 165.099949 
L 699.999594 165.099974 
L 695.007227 165.099987 
L 690.01486 165.099994 
L 685.022493 165.099997 
L 680.030126 165.099999 
L 675.037759 165.099999 
L 670.045392 165.1 
L 665.053025 165.1 
L 660.060658 165.1 
L 655.068291 165.1 
L 650.075924 165.1 
L 645.083558 165.1 
L 640.091191 165.1 
L 635.098824 165.1 
L 630.106457 165.099999 
L 625.11409 165.099998 
L 620.121723 165.099996 
L 615.129356 165.099991 
L 610.136989 165.099982 
L 605.144622 165.099963 
L 600.152255 165.099926 
L 595.159888 165.099856 
L 590.167522 165.099727 
L 585.175155 165.099492 
L 580.182788 165.099079 
L 575.190421 165.098368 
L 570.198054 165.097176 
L 565.205687 165.095226 
L 560.21332 165.092119 
L 555.220953 165.087291 
L 550.228586 165.079982 
L 545.236219 165.0692 
L 540.243852 165.053704 
L 535.251486 165.032014 
L 530.259119 165.002452 
L 525.266752 164.963231 
L 520.274385 164.912594 
L 515.282018 164.848999 
L 510.289651 164.771338 
L 505.297284 164.679169 
L 500.304917 164.572916 
L 495.31255 164.454013 
L 490.320183 164.32494 
L 485.327816 164.18913 
L 480.33545 164.05074 
L 475.343083 163.914289 
L 470.350716 163.784224 
L 465.358349 163.664455 
L 460.365982 163.557949 
L 455.373615 163.46645 
L 450.381248 163.390377 
L 445.388881 163.328934 
L 440.396514 163.280402 
L 435.404147 163.24258 
L 430.41178 163.213291 
L 425.419414 163.190853 
L 420.427047 163.17444 
L 415.43468 163.164256 
L 410.442313 163.161494 
L 405.449946 163.168074 
L 400.457579 163.18622 
L 395.465212 163.217925 
L 390.472845 163.264398 
L 385.480478 163.32558 
L 380.488111 163.399795 
L 375.495745 163.483597 
L 370.503378 163.571827 
L 365.511011 163.657868 
L 360.518644 163.734095 
L 355.526277 163.792429 
L 350.53391 163.824973 
L 345.541543 163.824634 
L 340.549176 163.785696 
L 335.556809 163.704268 
L 330.564442 163.57859 
L 325.572075 163.409159 
L 320.579709 163.198672 
L 315.587342 162.951797 
L 310.594975 162.674784 
L 305.602608 162.37496 
L 300.610241 162.060138 
L 295.617874 161.738001 
L 290.625507 161.415486 
L 285.63314 161.098237 
L 280.640773 160.790132 
L 275.648406 160.492933 
L 270.656039 160.206044 
L 265.663673 159.926408 
L 260.671306 159.648523 
L 255.678939 159.364601 
L 250.686572 159.064866 
L 245.694205 158.738028 
L 240.701838 158.371935 
L 235.709471 157.954415 
L 230.717104 157.474294 
L 225.724737 156.922502 
L 220.73237 156.293167 
L 215.740003 155.584529 
L 210.747637 154.79948 
L 205.75527 153.945566 
L 200.762903 153.034301 
L 195.770536 152.079752 
L 190.778169 151.096463 
L 185.785802 150.096876 
L 180.793435 149.088539 
L 175.801068 148.071439 
L 170.808701 147.035808 
L 165.816334 145.960772 
L 160.823967 144.814106 
L 155.831601 143.553337 
L 150.839234 142.128309 
L 145.846867 140.485233 
L 140.8545 138.572145 
L 135.862133 136.345504 
L 130.869766 133.777519 
L 125.877399 130.863567 
L 120.885032 127.628881 
L 115.892665 124.13355 
L 110.900298 120.474833 
L 105.907931 116.785912 
L 100.915565 113.230532 
L 95.923198 109.993403 
L 90.930831 107.266886 
L 85.938464 105.235056 
L 80.946097 104.056804 
L 75.95373 103.849967 
L 70.961363 104.678544 
L 65.968996 106.544776 
L 60.976629 109.387288 
L 55.984262 113.085703 
L 50.991895 117.471198 
L 45.999529 122.341688 
L 41.007162 127.479664 
L 36.014795 132.670429 
L 31.022428 137.718565 
L 26.030061 142.460839 
L 21.037694 146.774454 
L 16.045327 150.580263 
L 11.05296 153.841342 
L 6.060593 156.557819 
L 1.068226 158.759262 
L -3.924141 160.495945 
L -8.916507 161.830234 
L -13.908874 162.828989 
L -18.901241 163.557577 
L -23.893608 164.075695 
L -28.885975 164.434942 
L -33.878342 164.677855 
L -38.870709 164.838058 
L -43.863076 164.941123 
L -48.855443 165.005809 
z
" style="fill:#dd8452;fill-opacity:0.25;stroke:#dd8452;"/>
   </g>
   <g id="patch_3">
    <path d="M 48.190938 165.1 
L 48.190938 7.2 
" style="fill:none;stroke:#ffffff;stroke-linecap:square;stroke-linejoin:miter;stroke-width:1.25;"/>
   </g>
   <g id="patch_4">
    <path d="M 48.190938 165.1 
L 847.579192 165.1 
" style="fill:none;stroke:#ffffff;stroke-linecap:square;stroke-linejoin:miter;stroke-width:1.25;"/>
   </g>
  </g>
  <g id="legend_1">
   <g id="text_15">
    <!-- Survived -->
    <g style="fill:#262626;" transform="translate(857.487817 91.195156)scale(0.12 -0.12)">
     <defs>
      <path d="M 53.515625 70.515625 
L 53.515625 60.890625 
Q 47.90625 63.578125 42.921875 64.890625 
Q 37.9375 66.21875 33.296875 66.21875 
Q 25.25 66.21875 20.875 63.09375 
Q 16.5 59.96875 16.5 54.203125 
Q 16.5 49.359375 19.40625 46.890625 
Q 22.3125 44.4375 30.421875 42.921875 
L 36.375 41.703125 
Q 47.40625 39.59375 52.65625 34.296875 
Q 57.90625 29 57.90625 20.125 
Q 57.90625 9.515625 50.796875 4.046875 
Q 43.703125 -1.421875 29.984375 -1.421875 
Q 24.8125 -1.421875 18.96875 -0.25 
Q 13.140625 0.921875 6.890625 3.21875 
L 6.890625 13.375 
Q 12.890625 10.015625 18.65625 8.296875 
Q 24.421875 6.59375 29.984375 6.59375 
Q 38.421875 6.59375 43.015625 9.90625 
Q 47.609375 13.234375 47.609375 19.390625 
Q 47.609375 24.75 44.3125 27.78125 
Q 41.015625 30.8125 33.5 32.328125 
L 27.484375 33.5 
Q 16.453125 35.6875 11.515625 40.375 
Q 6.59375 45.0625 6.59375 53.421875 
Q 6.59375 63.09375 13.40625 68.65625 
Q 20.21875 74.21875 32.171875 74.21875 
Q 37.3125 74.21875 42.625 73.28125 
Q 47.953125 72.359375 53.515625 70.515625 
z
" id="DejaVuSans-83"/>
      <path d="M 8.5 21.578125 
L 8.5 54.6875 
L 17.484375 54.6875 
L 17.484375 21.921875 
Q 17.484375 14.15625 20.5 10.265625 
Q 23.53125 6.390625 29.59375 6.390625 
Q 36.859375 6.390625 41.078125 11.03125 
Q 45.3125 15.671875 45.3125 23.6875 
L 45.3125 54.6875 
L 54.296875 54.6875 
L 54.296875 0 
L 45.3125 0 
L 45.3125 8.40625 
Q 42.046875 3.421875 37.71875 1 
Q 33.40625 -1.421875 27.6875 -1.421875 
Q 18.265625 -1.421875 13.375 4.4375 
Q 8.5 10.296875 8.5 21.578125 
z
M 31.109375 56 
z
" id="DejaVuSans-117"/>
      <path d="M 2.984375 54.6875 
L 12.5 54.6875 
L 29.59375 8.796875 
L 46.6875 54.6875 
L 56.203125 54.6875 
L 35.6875 0 
L 23.484375 0 
z
" id="DejaVuSans-118"/>
      <path d="M 9.421875 54.6875 
L 18.40625 54.6875 
L 18.40625 0 
L 9.421875 0 
z
M 9.421875 75.984375 
L 18.40625 75.984375 
L 18.40625 64.59375 
L 9.421875 64.59375 
z
" id="DejaVuSans-105"/>
      <path d="M 45.40625 46.390625 
L 45.40625 75.984375 
L 54.390625 75.984375 
L 54.390625 0 
L 45.40625 0 
L 45.40625 8.203125 
Q 42.578125 3.328125 38.25 0.953125 
Q 33.9375 -1.421875 27.875 -1.421875 
Q 17.96875 -1.421875 11.734375 6.484375 
Q 5.515625 14.40625 5.515625 27.296875 
Q 5.515625 40.1875 11.734375 48.09375 
Q 17.96875 56 27.875 56 
Q 33.9375 56 38.25 53.625 
Q 42.578125 51.265625 45.40625 46.390625 
z
M 14.796875 27.296875 
Q 14.796875 17.390625 18.875 11.75 
Q 22.953125 6.109375 30.078125 6.109375 
Q 37.203125 6.109375 41.296875 11.75 
Q 45.40625 17.390625 45.40625 27.296875 
Q 45.40625 37.203125 41.296875 42.84375 
Q 37.203125 48.484375 30.078125 48.484375 
Q 22.953125 48.484375 18.875 42.84375 
Q 14.796875 37.203125 14.796875 27.296875 
z
" id="DejaVuSans-100"/>
     </defs>
     <use xlink:href="#DejaVuSans-83"/>
     <use x="63.476562" xlink:href="#DejaVuSans-117"/>
     <use x="126.855469" xlink:href="#DejaVuSans-114"/>
     <use x="167.96875" xlink:href="#DejaVuSans-118"/>
     <use x="227.148438" xlink:href="#DejaVuSans-105"/>
     <use x="254.931641" xlink:href="#DejaVuSans-118"/>
     <use x="314.111328" xlink:href="#DejaVuSans-101"/>
     <use x="375.634766" xlink:href="#DejaVuSans-100"/>
    </g>
   </g>
   <g id="patch_5">
    <path d="M 864.936879 107.549062 
L 886.936879 107.549062 
L 886.936879 99.849062 
L 864.936879 99.849062 
z
" style="fill:#4c72b0;fill-opacity:0.25;stroke:#4c72b0;stroke-linejoin:miter;"/>
   </g>
   <g id="text_16">
    <!-- 0 -->
    <g style="fill:#262626;" transform="translate(895.736879 107.549062)scale(0.11 -0.11)">
     <use xlink:href="#DejaVuSans-48"/>
    </g>
   </g>
   <g id="patch_6">
    <path d="M 864.936879 123.695 
L 886.936879 123.695 
L 886.936879 115.995 
L 864.936879 115.995 
z
" style="fill:#dd8452;fill-opacity:0.25;stroke:#dd8452;stroke-linejoin:miter;"/>
   </g>
   <g id="text_17">
    <!-- 1 -->
    <g style="fill:#262626;" transform="translate(895.736879 123.695)scale(0.11 -0.11)">
     <use xlink:href="#DejaVuSans-49"/>
    </g>
   </g>
  </g>
 </g>
 <defs>
  <clipPath id="p6b782d638b">
   <rect height="157.9" width="799.388254" x="48.190938" y="7.2"/>
  </clipPath>
 </defs>
</svg>
