<?xml version="1.0" encoding="utf-8" standalone="no"?>
<!DOCTYPE svg PUBLIC "-//W3C//DTD SVG 1.1//EN"
  "http://www.w3.org/Graphics/SVG/1.1/DTD/svg11.dtd">
<!-- Created with matplotlib (https://matplotlib.org/) -->
<svg height="357.959687pt" version="1.1" viewBox="0 0 622.005937 357.959687" width="622.005937pt" xmlns="http://www.w3.org/2000/svg" xmlns:xlink="http://www.w3.org/1999/xlink">
 <metadata>
  <rdf:RDF xmlns:cc="http://creativecommons.org/ns#" xmlns:dc="http://purl.org/dc/elements/1.1/" xmlns:rdf="http://www.w3.org/1999/02/22-rdf-syntax-ns#">
   <cc:Work>
    <dc:type rdf:resource="http://purl.org/dc/dcmitype/StillImage"/>
    <dc:date>2021-07-10T18:06:57.605691</dc:date>
    <dc:format>image/svg+xml</dc:format>
    <dc:creator>
     <cc:Agent>
      <dc:title>Matplotlib v3.3.4, https://matplotlib.org/</dc:title>
     </cc:Agent>
    </dc:creator>
   </cc:Work>
  </rdf:RDF>
 </metadata>
 <defs>
  <style type="text/css">*{stroke-linecap:butt;stroke-linejoin:round;}</style>
 </defs>
 <g id="figure_1">
  <g id="patch_1">
   <path d="M 0 357.959687 
L 622.005937 357.959687 
L 622.005937 0 
L 0 0 
z
" style="fill:none;"/>
  </g>
  <g id="axes_1">
   <g id="patch_2">
    <path d="M 56.805938 315 
L 310.442301 315 
L 310.442301 43.2 
L 56.805938 43.2 
z
" style="fill:#eaeaf2;"/>
   </g>
   <g id="matplotlib.axis_1">
    <g id="xtick_1">
     <g id="line2d_1">
      <path clip-path="url(#p03574426be)" d="M 105.2268 315 
L 105.2268 43.2 
" style="fill:none;stroke:#ffffff;stroke-linecap:round;"/>
     </g>
     <g id="text_1">
      <!-- 5 -->
      <g style="fill:#262626;" transform="translate(101.727425 332.858281)scale(0.11 -0.11)">
       <defs>
        <path d="M 10.796875 72.90625 
L 49.515625 72.90625 
L 49.515625 64.59375 
L 19.828125 64.59375 
L 19.828125 46.734375 
Q 21.96875 47.46875 24.109375 47.828125 
Q 26.265625 48.1875 28.421875 48.1875 
Q 40.625 48.1875 47.75 41.5 
Q 54.890625 34.8125 54.890625 23.390625 
Q 54.890625 11.625 47.5625 5.09375 
Q 40.234375 -1.421875 26.90625 -1.421875 
Q 22.3125 -1.421875 17.546875 -0.640625 
Q 12.796875 0.140625 7.71875 1.703125 
L 7.71875 11.625 
Q 12.109375 9.234375 16.796875 8.0625 
Q 21.484375 6.890625 26.703125 6.890625 
Q 35.15625 6.890625 40.078125 11.328125 
Q 45.015625 15.765625 45.015625 23.390625 
Q 45.015625 31 40.078125 35.4375 
Q 35.15625 39.890625 26.703125 39.890625 
Q 22.75 39.890625 18.8125 39.015625 
Q 14.890625 38.140625 10.796875 36.28125 
z
" id="DejaVuSans-53"/>
       </defs>
       <use xlink:href="#DejaVuSans-53"/>
      </g>
     </g>
    </g>
    <g id="xtick_2">
     <g id="line2d_2">
      <path clip-path="url(#p03574426be)" d="M 168.792194 315 
L 168.792194 43.2 
" style="fill:none;stroke:#ffffff;stroke-linecap:round;"/>
     </g>
     <g id="text_2">
      <!-- 10 -->
      <g style="fill:#262626;" transform="translate(161.793444 332.858281)scale(0.11 -0.11)">
       <defs>
        <path d="M 12.40625 8.296875 
L 28.515625 8.296875 
L 28.515625 63.921875 
L 10.984375 60.40625 
L 10.984375 69.390625 
L 28.421875 72.90625 
L 38.28125 72.90625 
L 38.28125 8.296875 
L 54.390625 8.296875 
L 54.390625 0 
L 12.40625 0 
z
" id="DejaVuSans-49"/>
        <path d="M 31.78125 66.40625 
Q 24.171875 66.40625 20.328125 58.90625 
Q 16.5 51.421875 16.5 36.375 
Q 16.5 21.390625 20.328125 13.890625 
Q 24.171875 6.390625 31.78125 6.390625 
Q 39.453125 6.390625 43.28125 13.890625 
Q 47.125 21.390625 47.125 36.375 
Q 47.125 51.421875 43.28125 58.90625 
Q 39.453125 66.40625 31.78125 66.40625 
z
M 31.78125 74.21875 
Q 44.046875 74.21875 50.515625 64.515625 
Q 56.984375 54.828125 56.984375 36.375 
Q 56.984375 17.96875 50.515625 8.265625 
Q 44.046875 -1.421875 31.78125 -1.421875 
Q 19.53125 -1.421875 13.0625 8.265625 
Q 6.59375 17.96875 6.59375 36.375 
Q 6.59375 54.828125 13.0625 64.515625 
Q 19.53125 74.21875 31.78125 74.21875 
z
" id="DejaVuSans-48"/>
       </defs>
       <use xlink:href="#DejaVuSans-49"/>
       <use x="63.623047" xlink:href="#DejaVuSans-48"/>
      </g>
     </g>
    </g>
    <g id="xtick_3">
     <g id="line2d_3">
      <path clip-path="url(#p03574426be)" d="M 232.357588 315 
L 232.357588 43.2 
" style="fill:none;stroke:#ffffff;stroke-linecap:round;"/>
     </g>
     <g id="text_3">
      <!-- 15 -->
      <g style="fill:#262626;" transform="translate(225.358838 332.858281)scale(0.11 -0.11)">
       <use xlink:href="#DejaVuSans-49"/>
       <use x="63.623047" xlink:href="#DejaVuSans-53"/>
      </g>
     </g>
    </g>
    <g id="xtick_4">
     <g id="line2d_4">
      <path clip-path="url(#p03574426be)" d="M 295.922983 315 
L 295.922983 43.2 
" style="fill:none;stroke:#ffffff;stroke-linecap:round;"/>
     </g>
     <g id="text_4">
      <!-- 20 -->
      <g style="fill:#262626;" transform="translate(288.924233 332.858281)scale(0.11 -0.11)">
       <defs>
        <path d="M 19.1875 8.296875 
L 53.609375 8.296875 
L 53.609375 0 
L 7.328125 0 
L 7.328125 8.296875 
Q 12.9375 14.109375 22.625 23.890625 
Q 32.328125 33.6875 34.8125 36.53125 
Q 39.546875 41.84375 41.421875 45.53125 
Q 43.3125 49.21875 43.3125 52.78125 
Q 43.3125 58.59375 39.234375 62.25 
Q 35.15625 65.921875 28.609375 65.921875 
Q 23.96875 65.921875 18.8125 64.3125 
Q 13.671875 62.703125 7.8125 59.421875 
L 7.8125 69.390625 
Q 13.765625 71.78125 18.9375 73 
Q 24.125 74.21875 28.421875 74.21875 
Q 39.75 74.21875 46.484375 68.546875 
Q 53.21875 62.890625 53.21875 53.421875 
Q 53.21875 48.921875 51.53125 44.890625 
Q 49.859375 40.875 45.40625 35.40625 
Q 44.1875 33.984375 37.640625 27.21875 
Q 31.109375 20.453125 19.1875 8.296875 
z
" id="DejaVuSans-50"/>
       </defs>
       <use xlink:href="#DejaVuSans-50"/>
       <use x="63.623047" xlink:href="#DejaVuSans-48"/>
      </g>
     </g>
    </g>
    <g id="text_5">
     <!-- text -->
     <g style="fill:#262626;" transform="translate(171.781619 348.264062)scale(0.12 -0.12)">
      <defs>
       <path d="M 18.3125 70.21875 
L 18.3125 54.6875 
L 36.8125 54.6875 
L 36.8125 47.703125 
L 18.3125 47.703125 
L 18.3125 18.015625 
Q 18.3125 11.328125 20.140625 9.421875 
Q 21.96875 7.515625 27.59375 7.515625 
L 36.8125 7.515625 
L 36.8125 0 
L 27.59375 0 
Q 17.1875 0 13.234375 3.875 
Q 9.28125 7.765625 9.28125 18.015625 
L 9.28125 47.703125 
L 2.6875 47.703125 
L 2.6875 54.6875 
L 9.28125 54.6875 
L 9.28125 70.21875 
z
" id="DejaVuSans-116"/>
       <path d="M 56.203125 29.59375 
L 56.203125 25.203125 
L 14.890625 25.203125 
Q 15.484375 15.921875 20.484375 11.0625 
Q 25.484375 6.203125 34.421875 6.203125 
Q 39.59375 6.203125 44.453125 7.46875 
Q 49.3125 8.734375 54.109375 11.28125 
L 54.109375 2.78125 
Q 49.265625 0.734375 44.1875 -0.34375 
Q 39.109375 -1.421875 33.890625 -1.421875 
Q 20.796875 -1.421875 13.15625 6.1875 
Q 5.515625 13.8125 5.515625 26.8125 
Q 5.515625 40.234375 12.765625 48.109375 
Q 20.015625 56 32.328125 56 
Q 43.359375 56 49.78125 48.890625 
Q 56.203125 41.796875 56.203125 29.59375 
z
M 47.21875 32.234375 
Q 47.125 39.59375 43.09375 43.984375 
Q 39.0625 48.390625 32.421875 48.390625 
Q 24.90625 48.390625 20.390625 44.140625 
Q 15.875 39.890625 15.1875 32.171875 
z
" id="DejaVuSans-101"/>
       <path d="M 54.890625 54.6875 
L 35.109375 28.078125 
L 55.90625 0 
L 45.3125 0 
L 29.390625 21.484375 
L 13.484375 0 
L 2.875 0 
L 24.125 28.609375 
L 4.6875 54.6875 
L 15.28125 54.6875 
L 29.78125 35.203125 
L 44.28125 54.6875 
z
" id="DejaVuSans-120"/>
      </defs>
      <use xlink:href="#DejaVuSans-116"/>
      <use x="39.208984" xlink:href="#DejaVuSans-101"/>
      <use x="98.982422" xlink:href="#DejaVuSans-120"/>
      <use x="158.162109" xlink:href="#DejaVuSans-116"/>
     </g>
    </g>
   </g>
   <g id="matplotlib.axis_2">
    <g id="ytick_1">
     <g id="line2d_5">
      <path clip-path="url(#p03574426be)" d="M 56.805938 315 
L 310.442301 315 
" style="fill:none;stroke:#ffffff;stroke-linecap:round;"/>
     </g>
     <g id="text_6">
      <!-- 0.00 -->
      <g style="fill:#262626;" transform="translate(22.81375 319.179141)scale(0.11 -0.11)">
       <defs>
        <path d="M 10.6875 12.40625 
L 21 12.40625 
L 21 0 
L 10.6875 0 
z
" id="DejaVuSans-46"/>
       </defs>
       <use xlink:href="#DejaVuSans-48"/>
       <use x="63.623047" xlink:href="#DejaVuSans-46"/>
       <use x="95.410156" xlink:href="#DejaVuSans-48"/>
       <use x="159.033203" xlink:href="#DejaVuSans-48"/>
      </g>
     </g>
    </g>
    <g id="ytick_2">
     <g id="line2d_6">
      <path clip-path="url(#p03574426be)" d="M 56.805938 270.956089 
L 310.442301 270.956089 
" style="fill:none;stroke:#ffffff;stroke-linecap:round;"/>
     </g>
     <g id="text_7">
      <!-- 0.05 -->
      <g style="fill:#262626;" transform="translate(22.81375 275.13523)scale(0.11 -0.11)">
       <use xlink:href="#DejaVuSans-48"/>
       <use x="63.623047" xlink:href="#DejaVuSans-46"/>
       <use x="95.410156" xlink:href="#DejaVuSans-48"/>
       <use x="159.033203" xlink:href="#DejaVuSans-53"/>
      </g>
     </g>
    </g>
    <g id="ytick_3">
     <g id="line2d_7">
      <path clip-path="url(#p03574426be)" d="M 56.805938 226.912178 
L 310.442301 226.912178 
" style="fill:none;stroke:#ffffff;stroke-linecap:round;"/>
     </g>
     <g id="text_8">
      <!-- 0.10 -->
      <g style="fill:#262626;" transform="translate(22.81375 231.091319)scale(0.11 -0.11)">
       <use xlink:href="#DejaVuSans-48"/>
       <use x="63.623047" xlink:href="#DejaVuSans-46"/>
       <use x="95.410156" xlink:href="#DejaVuSans-49"/>
       <use x="159.033203" xlink:href="#DejaVuSans-48"/>
      </g>
     </g>
    </g>
    <g id="ytick_4">
     <g id="line2d_8">
      <path clip-path="url(#p03574426be)" d="M 56.805938 182.868268 
L 310.442301 182.868268 
" style="fill:none;stroke:#ffffff;stroke-linecap:round;"/>
     </g>
     <g id="text_9">
      <!-- 0.15 -->
      <g style="fill:#262626;" transform="translate(22.81375 187.047408)scale(0.11 -0.11)">
       <use xlink:href="#DejaVuSans-48"/>
       <use x="63.623047" xlink:href="#DejaVuSans-46"/>
       <use x="95.410156" xlink:href="#DejaVuSans-49"/>
       <use x="159.033203" xlink:href="#DejaVuSans-53"/>
      </g>
     </g>
    </g>
    <g id="ytick_5">
     <g id="line2d_9">
      <path clip-path="url(#p03574426be)" d="M 56.805938 138.824357 
L 310.442301 138.824357 
" style="fill:none;stroke:#ffffff;stroke-linecap:round;"/>
     </g>
     <g id="text_10">
      <!-- 0.20 -->
      <g style="fill:#262626;" transform="translate(22.81375 143.003497)scale(0.11 -0.11)">
       <use xlink:href="#DejaVuSans-48"/>
       <use x="63.623047" xlink:href="#DejaVuSans-46"/>
       <use x="95.410156" xlink:href="#DejaVuSans-50"/>
       <use x="159.033203" xlink:href="#DejaVuSans-48"/>
      </g>
     </g>
    </g>
    <g id="ytick_6">
     <g id="line2d_10">
      <path clip-path="url(#p03574426be)" d="M 56.805938 94.780446 
L 310.442301 94.780446 
" style="fill:none;stroke:#ffffff;stroke-linecap:round;"/>
     </g>
     <g id="text_11">
      <!-- 0.25 -->
      <g style="fill:#262626;" transform="translate(22.81375 98.959586)scale(0.11 -0.11)">
       <use xlink:href="#DejaVuSans-48"/>
       <use x="63.623047" xlink:href="#DejaVuSans-46"/>
       <use x="95.410156" xlink:href="#DejaVuSans-50"/>
       <use x="159.033203" xlink:href="#DejaVuSans-53"/>
      </g>
     </g>
    </g>
    <g id="ytick_7">
     <g id="line2d_11">
      <path clip-path="url(#p03574426be)" d="M 56.805938 50.736535 
L 310.442301 50.736535 
" style="fill:none;stroke:#ffffff;stroke-linecap:round;"/>
     </g>
     <g id="text_12">
      <!-- 0.30 -->
      <g style="fill:#262626;" transform="translate(22.81375 54.915676)scale(0.11 -0.11)">
       <defs>
        <path d="M 40.578125 39.3125 
Q 47.65625 37.796875 51.625 33 
Q 55.609375 28.21875 55.609375 21.1875 
Q 55.609375 10.40625 48.1875 4.484375 
Q 40.765625 -1.421875 27.09375 -1.421875 
Q 22.515625 -1.421875 17.65625 -0.515625 
Q 12.796875 0.390625 7.625 2.203125 
L 7.625 11.71875 
Q 11.71875 9.328125 16.59375 8.109375 
Q 21.484375 6.890625 26.8125 6.890625 
Q 36.078125 6.890625 40.9375 10.546875 
Q 45.796875 14.203125 45.796875 21.1875 
Q 45.796875 27.640625 41.28125 31.265625 
Q 36.765625 34.90625 28.71875 34.90625 
L 20.21875 34.90625 
L 20.21875 43.015625 
L 29.109375 43.015625 
Q 36.375 43.015625 40.234375 45.921875 
Q 44.09375 48.828125 44.09375 54.296875 
Q 44.09375 59.90625 40.109375 62.90625 
Q 36.140625 65.921875 28.71875 65.921875 
Q 24.65625 65.921875 20.015625 65.03125 
Q 15.375 64.15625 9.8125 62.3125 
L 9.8125 71.09375 
Q 15.4375 72.65625 20.34375 73.4375 
Q 25.25 74.21875 29.59375 74.21875 
Q 40.828125 74.21875 47.359375 69.109375 
Q 53.90625 64.015625 53.90625 55.328125 
Q 53.90625 49.265625 50.4375 45.09375 
Q 46.96875 40.921875 40.578125 39.3125 
z
" id="DejaVuSans-51"/>
       </defs>
       <use xlink:href="#DejaVuSans-48"/>
       <use x="63.623047" xlink:href="#DejaVuSans-46"/>
       <use x="95.410156" xlink:href="#DejaVuSans-51"/>
       <use x="159.033203" xlink:href="#DejaVuSans-48"/>
      </g>
     </g>
    </g>
    <g id="text_13">
     <!-- Density -->
     <g style="fill:#262626;" transform="translate(16.318125 201.910312)rotate(-90)scale(0.12 -0.12)">
      <defs>
       <path d="M 19.671875 64.796875 
L 19.671875 8.109375 
L 31.59375 8.109375 
Q 46.6875 8.109375 53.6875 14.9375 
Q 60.6875 21.78125 60.6875 36.53125 
Q 60.6875 51.171875 53.6875 57.984375 
Q 46.6875 64.796875 31.59375 64.796875 
z
M 9.8125 72.90625 
L 30.078125 72.90625 
Q 51.265625 72.90625 61.171875 64.09375 
Q 71.09375 55.28125 71.09375 36.53125 
Q 71.09375 17.671875 61.125 8.828125 
Q 51.171875 0 30.078125 0 
L 9.8125 0 
z
" id="DejaVuSans-68"/>
       <path d="M 54.890625 33.015625 
L 54.890625 0 
L 45.90625 0 
L 45.90625 32.71875 
Q 45.90625 40.484375 42.875 44.328125 
Q 39.84375 48.1875 33.796875 48.1875 
Q 26.515625 48.1875 22.3125 43.546875 
Q 18.109375 38.921875 18.109375 30.90625 
L 18.109375 0 
L 9.078125 0 
L 9.078125 54.6875 
L 18.109375 54.6875 
L 18.109375 46.1875 
Q 21.34375 51.125 25.703125 53.5625 
Q 30.078125 56 35.796875 56 
Q 45.21875 56 50.046875 50.171875 
Q 54.890625 44.34375 54.890625 33.015625 
z
" id="DejaVuSans-110"/>
       <path d="M 44.28125 53.078125 
L 44.28125 44.578125 
Q 40.484375 46.53125 36.375 47.5 
Q 32.28125 48.484375 27.875 48.484375 
Q 21.1875 48.484375 17.84375 46.4375 
Q 14.5 44.390625 14.5 40.28125 
Q 14.5 37.15625 16.890625 35.375 
Q 19.28125 33.59375 26.515625 31.984375 
L 29.59375 31.296875 
Q 39.15625 29.25 43.1875 25.515625 
Q 47.21875 21.78125 47.21875 15.09375 
Q 47.21875 7.46875 41.1875 3.015625 
Q 35.15625 -1.421875 24.609375 -1.421875 
Q 20.21875 -1.421875 15.453125 -0.5625 
Q 10.6875 0.296875 5.421875 2 
L 5.421875 11.28125 
Q 10.40625 8.6875 15.234375 7.390625 
Q 20.0625 6.109375 24.8125 6.109375 
Q 31.15625 6.109375 34.5625 8.28125 
Q 37.984375 10.453125 37.984375 14.40625 
Q 37.984375 18.0625 35.515625 20.015625 
Q 33.0625 21.96875 24.703125 23.78125 
L 21.578125 24.515625 
Q 13.234375 26.265625 9.515625 29.90625 
Q 5.8125 33.546875 5.8125 39.890625 
Q 5.8125 47.609375 11.28125 51.796875 
Q 16.75 56 26.8125 56 
Q 31.78125 56 36.171875 55.265625 
Q 40.578125 54.546875 44.28125 53.078125 
z
" id="DejaVuSans-115"/>
       <path d="M 9.421875 54.6875 
L 18.40625 54.6875 
L 18.40625 0 
L 9.421875 0 
z
M 9.421875 75.984375 
L 18.40625 75.984375 
L 18.40625 64.59375 
L 9.421875 64.59375 
z
" id="DejaVuSans-105"/>
       <path d="M 32.171875 -5.078125 
Q 28.375 -14.84375 24.75 -17.8125 
Q 21.140625 -20.796875 15.09375 -20.796875 
L 7.90625 -20.796875 
L 7.90625 -13.28125 
L 13.1875 -13.28125 
Q 16.890625 -13.28125 18.9375 -11.515625 
Q 21 -9.765625 23.484375 -3.21875 
L 25.09375 0.875 
L 2.984375 54.6875 
L 12.5 54.6875 
L 29.59375 11.921875 
L 46.6875 54.6875 
L 56.203125 54.6875 
z
" id="DejaVuSans-121"/>
      </defs>
      <use xlink:href="#DejaVuSans-68"/>
      <use x="77.001953" xlink:href="#DejaVuSans-101"/>
      <use x="138.525391" xlink:href="#DejaVuSans-110"/>
      <use x="201.904297" xlink:href="#DejaVuSans-115"/>
      <use x="254.003906" xlink:href="#DejaVuSans-105"/>
      <use x="281.787109" xlink:href="#DejaVuSans-116"/>
      <use x="320.996094" xlink:href="#DejaVuSans-121"/>
     </g>
    </g>
   </g>
   <g id="patch_3">
    <path clip-path="url(#p03574426be)" d="M 79.800642 315 
L 83.953581 315 
L 83.953581 310.053685 
L 79.800642 310.053685 
z
" style="fill:#00008b;opacity:0.4;stroke:#ffffff;stroke-linejoin:miter;"/>
   </g>
   <g id="patch_4">
    <path clip-path="url(#p03574426be)" d="M 83.953581 315 
L 88.10652 315 
L 88.10652 294.390355 
L 83.953581 294.390355 
z
" style="fill:#00008b;opacity:0.4;stroke:#ffffff;stroke-linejoin:miter;"/>
   </g>
   <g id="patch_5">
    <path clip-path="url(#p03574426be)" d="M 88.10652 315 
L 92.259459 315 
L 92.259459 284.497725 
L 88.10652 284.497725 
z
" style="fill:#00008b;opacity:0.4;stroke:#ffffff;stroke-linejoin:miter;"/>
   </g>
   <g id="patch_6">
    <path clip-path="url(#p03574426be)" d="M 92.259459 315 
L 96.412398 315 
L 96.412398 231.737034 
L 92.259459 231.737034 
z
" style="fill:#00008b;opacity:0.4;stroke:#ffffff;stroke-linejoin:miter;"/>
   </g>
   <g id="patch_7">
    <path clip-path="url(#p03574426be)" d="M 96.412398 315 
L 100.565337 315 
L 100.565337 181.4495 
L 96.412398 181.4495 
z
" style="fill:#00008b;opacity:0.4;stroke:#ffffff;stroke-linejoin:miter;"/>
   </g>
   <g id="patch_8">
    <path clip-path="url(#p03574426be)" d="M 100.565337 315 
L 104.718277 315 
L 104.718277 171.55687 
L 100.565337 171.55687 
z
" style="fill:#00008b;opacity:0.4;stroke:#ffffff;stroke-linejoin:miter;"/>
   </g>
   <g id="patch_9">
    <path clip-path="url(#p03574426be)" d="M 104.718277 315 
L 108.871216 315 
L 108.871216 159.191083 
L 104.718277 159.191083 
z
" style="fill:#00008b;opacity:0.4;stroke:#ffffff;stroke-linejoin:miter;"/>
   </g>
   <g id="patch_10">
    <path clip-path="url(#p03574426be)" d="M 108.871216 315 
L 113.024155 315 
L 113.024155 89.118289 
L 108.871216 89.118289 
z
" style="fill:#00008b;opacity:0.4;stroke:#ffffff;stroke-linejoin:miter;"/>
   </g>
   <g id="patch_11">
    <path clip-path="url(#p03574426be)" d="M 113.024155 315 
L 117.177094 315 
L 117.177094 64.386715 
L 113.024155 64.386715 
z
" style="fill:#00008b;opacity:0.4;stroke:#ffffff;stroke-linejoin:miter;"/>
   </g>
   <g id="patch_12">
    <path clip-path="url(#p03574426be)" d="M 117.177094 315 
L 121.330033 315 
L 121.330033 77.576888 
L 117.177094 77.576888 
z
" style="fill:#00008b;opacity:0.4;stroke:#ffffff;stroke-linejoin:miter;"/>
   </g>
   <g id="patch_13">
    <path clip-path="url(#p03574426be)" d="M 121.330033 315 
L 125.482972 315 
L 125.482972 94.064604 
L 121.330033 94.064604 
z
" style="fill:#00008b;opacity:0.4;stroke:#ffffff;stroke-linejoin:miter;"/>
   </g>
   <g id="patch_14">
    <path clip-path="url(#p03574426be)" d="M 125.482972 315 
L 129.635911 315 
L 129.635911 56.142857 
L 125.482972 56.142857 
z
" style="fill:#00008b;opacity:0.4;stroke:#ffffff;stroke-linejoin:miter;"/>
   </g>
   <g id="patch_15">
    <path clip-path="url(#p03574426be)" d="M 129.635911 315 
L 133.78885 315 
L 133.78885 104.78162 
L 129.635911 104.78162 
z
" style="fill:#00008b;opacity:0.4;stroke:#ffffff;stroke-linejoin:miter;"/>
   </g>
   <g id="patch_16">
    <path clip-path="url(#p03574426be)" d="M 133.78885 315 
L 137.941789 315 
L 137.941789 140.230209 
L 133.78885 140.230209 
z
" style="fill:#00008b;opacity:0.4;stroke:#ffffff;stroke-linejoin:miter;"/>
   </g>
   <g id="patch_17">
    <path clip-path="url(#p03574426be)" d="M 137.941789 315 
L 142.094728 315 
L 142.094728 197.11283 
L 137.941789 197.11283 
z
" style="fill:#00008b;opacity:0.4;stroke:#ffffff;stroke-linejoin:miter;"/>
   </g>
   <g id="patch_18">
    <path clip-path="url(#p03574426be)" d="M 142.094728 315 
L 146.247667 315 
L 146.247667 175.678799 
L 142.094728 175.678799 
z
" style="fill:#00008b;opacity:0.4;stroke:#ffffff;stroke-linejoin:miter;"/>
   </g>
   <g id="patch_19">
    <path clip-path="url(#p03574426be)" d="M 146.247667 315 
L 150.400607 315 
L 150.400607 241.629663 
L 146.247667 241.629663 
z
" style="fill:#00008b;opacity:0.4;stroke:#ffffff;stroke-linejoin:miter;"/>
   </g>
   <g id="patch_20">
    <path clip-path="url(#p03574426be)" d="M 150.400607 315 
L 154.553546 315 
L 154.553546 263.063694 
L 150.400607 263.063694 
z
" style="fill:#00008b;opacity:0.4;stroke:#ffffff;stroke-linejoin:miter;"/>
   </g>
   <g id="patch_21">
    <path clip-path="url(#p03574426be)" d="M 154.553546 315 
L 158.706485 315 
L 158.706485 268.834395 
L 154.553546 268.834395 
z
" style="fill:#00008b;opacity:0.4;stroke:#ffffff;stroke-linejoin:miter;"/>
   </g>
   <g id="patch_22">
    <path clip-path="url(#p03574426be)" d="M 158.706485 315 
L 162.859424 315 
L 162.859424 281.200182 
L 158.706485 281.200182 
z
" style="fill:#00008b;opacity:0.4;stroke:#ffffff;stroke-linejoin:miter;"/>
   </g>
   <g id="patch_23">
    <path clip-path="url(#p03574426be)" d="M 162.859424 315 
L 167.012363 315 
L 167.012363 290.268426 
L 162.859424 290.268426 
z
" style="fill:#00008b;opacity:0.4;stroke:#ffffff;stroke-linejoin:miter;"/>
   </g>
   <g id="patch_24">
    <path clip-path="url(#p03574426be)" d="M 167.012363 315 
L 171.165302 315 
L 171.165302 303.458599 
L 167.012363 303.458599 
z
" style="fill:#00008b;opacity:0.4;stroke:#ffffff;stroke-linejoin:miter;"/>
   </g>
   <g id="patch_25">
    <path clip-path="url(#p03574426be)" d="M 171.165302 315 
L 175.318241 315 
L 175.318241 300.161056 
L 171.165302 300.161056 
z
" style="fill:#00008b;opacity:0.4;stroke:#ffffff;stroke-linejoin:miter;"/>
   </g>
   <g id="patch_26">
    <path clip-path="url(#p03574426be)" d="M 175.318241 315 
L 179.47118 315 
L 179.47118 310.053685 
L 175.318241 310.053685 
z
" style="fill:#00008b;opacity:0.4;stroke:#ffffff;stroke-linejoin:miter;"/>
   </g>
   <g id="patch_27">
    <path clip-path="url(#p03574426be)" d="M 179.47118 315 
L 183.624119 315 
L 183.624119 307.580528 
L 179.47118 307.580528 
z
" style="fill:#00008b;opacity:0.4;stroke:#ffffff;stroke-linejoin:miter;"/>
   </g>
   <g id="patch_28">
    <path clip-path="url(#p03574426be)" d="M 183.624119 315 
L 187.777058 315 
L 187.777058 310.053685 
L 183.624119 310.053685 
z
" style="fill:#00008b;opacity:0.4;stroke:#ffffff;stroke-linejoin:miter;"/>
   </g>
   <g id="patch_29">
    <path clip-path="url(#p03574426be)" d="M 187.777058 315 
L 191.929998 315 
L 191.929998 310.878071 
L 187.777058 310.878071 
z
" style="fill:#00008b;opacity:0.4;stroke:#ffffff;stroke-linejoin:miter;"/>
   </g>
   <g id="patch_30">
    <path clip-path="url(#p03574426be)" d="M 191.929998 315 
L 196.082937 315 
L 196.082937 313.351228 
L 191.929998 313.351228 
z
" style="fill:#00008b;opacity:0.4;stroke:#ffffff;stroke-linejoin:miter;"/>
   </g>
   <g id="patch_31">
    <path clip-path="url(#p03574426be)" d="M 196.082937 315 
L 200.235876 315 
L 200.235876 314.175614 
L 196.082937 314.175614 
z
" style="fill:#00008b;opacity:0.4;stroke:#ffffff;stroke-linejoin:miter;"/>
   </g>
   <g id="patch_32">
    <path clip-path="url(#p03574426be)" d="M 200.235876 315 
L 204.388815 315 
L 204.388815 312.526843 
L 200.235876 312.526843 
z
" style="fill:#00008b;opacity:0.4;stroke:#ffffff;stroke-linejoin:miter;"/>
   </g>
   <g id="patch_33">
    <path clip-path="url(#p03574426be)" d="M 204.388815 315 
L 208.541754 315 
L 208.541754 315 
L 204.388815 315 
z
" style="fill:#00008b;opacity:0.4;stroke:#ffffff;stroke-linejoin:miter;"/>
   </g>
   <g id="patch_34">
    <path clip-path="url(#p03574426be)" d="M 208.541754 315 
L 212.694693 315 
L 212.694693 315 
L 208.541754 315 
z
" style="fill:#00008b;opacity:0.4;stroke:#ffffff;stroke-linejoin:miter;"/>
   </g>
   <g id="patch_35">
    <path clip-path="url(#p03574426be)" d="M 212.694693 315 
L 216.847632 315 
L 216.847632 314.175614 
L 212.694693 314.175614 
z
" style="fill:#00008b;opacity:0.4;stroke:#ffffff;stroke-linejoin:miter;"/>
   </g>
   <g id="patch_36">
    <path clip-path="url(#p03574426be)" d="M 216.847632 315 
L 221.000571 315 
L 221.000571 315 
L 216.847632 315 
z
" style="fill:#00008b;opacity:0.4;stroke:#ffffff;stroke-linejoin:miter;"/>
   </g>
   <g id="patch_37">
    <path clip-path="url(#p03574426be)" d="M 221.000571 315 
L 225.15351 315 
L 225.15351 315 
L 221.000571 315 
z
" style="fill:#00008b;opacity:0.4;stroke:#ffffff;stroke-linejoin:miter;"/>
   </g>
   <g id="patch_38">
    <path clip-path="url(#p03574426be)" d="M 225.15351 315 
L 229.306449 315 
L 229.306449 314.175614 
L 225.15351 314.175614 
z
" style="fill:#00008b;opacity:0.4;stroke:#ffffff;stroke-linejoin:miter;"/>
   </g>
   <g id="patch_39">
    <path clip-path="url(#p03574426be)" d="M 229.306449 315 
L 233.459388 315 
L 233.459388 315 
L 229.306449 315 
z
" style="fill:#00008b;opacity:0.4;stroke:#ffffff;stroke-linejoin:miter;"/>
   </g>
   <g id="patch_40">
    <path clip-path="url(#p03574426be)" d="M 233.459388 315 
L 237.612328 315 
L 237.612328 315 
L 233.459388 315 
z
" style="fill:#00008b;opacity:0.4;stroke:#ffffff;stroke-linejoin:miter;"/>
   </g>
   <g id="patch_41">
    <path clip-path="url(#p03574426be)" d="M 237.612328 315 
L 241.765267 315 
L 241.765267 314.175614 
L 237.612328 314.175614 
z
" style="fill:#00008b;opacity:0.4;stroke:#ffffff;stroke-linejoin:miter;"/>
   </g>
   <g id="patch_42">
    <path clip-path="url(#p03574426be)" d="M 241.765267 315 
L 245.918206 315 
L 245.918206 315 
L 241.765267 315 
z
" style="fill:#00008b;opacity:0.4;stroke:#ffffff;stroke-linejoin:miter;"/>
   </g>
   <g id="patch_43">
    <path clip-path="url(#p03574426be)" d="M 245.918206 315 
L 250.071145 315 
L 250.071145 314.175614 
L 245.918206 314.175614 
z
" style="fill:#00008b;opacity:0.4;stroke:#ffffff;stroke-linejoin:miter;"/>
   </g>
   <g id="patch_44">
    <path clip-path="url(#p03574426be)" d="M 250.071145 315 
L 254.224084 315 
L 254.224084 313.351228 
L 250.071145 313.351228 
z
" style="fill:#00008b;opacity:0.4;stroke:#ffffff;stroke-linejoin:miter;"/>
   </g>
   <g id="patch_45">
    <path clip-path="url(#p03574426be)" d="M 254.224084 315 
L 258.377023 315 
L 258.377023 315 
L 254.224084 315 
z
" style="fill:#00008b;opacity:0.4;stroke:#ffffff;stroke-linejoin:miter;"/>
   </g>
   <g id="patch_46">
    <path clip-path="url(#p03574426be)" d="M 258.377023 315 
L 262.529962 315 
L 262.529962 315 
L 258.377023 315 
z
" style="fill:#00008b;opacity:0.4;stroke:#ffffff;stroke-linejoin:miter;"/>
   </g>
   <g id="patch_47">
    <path clip-path="url(#p03574426be)" d="M 262.529962 315 
L 266.682901 315 
L 266.682901 315 
L 262.529962 315 
z
" style="fill:#00008b;opacity:0.4;stroke:#ffffff;stroke-linejoin:miter;"/>
   </g>
   <g id="patch_48">
    <path clip-path="url(#p03574426be)" d="M 266.682901 315 
L 270.83584 315 
L 270.83584 315 
L 266.682901 315 
z
" style="fill:#00008b;opacity:0.4;stroke:#ffffff;stroke-linejoin:miter;"/>
   </g>
   <g id="patch_49">
    <path clip-path="url(#p03574426be)" d="M 270.83584 315 
L 274.988779 315 
L 274.988779 315 
L 270.83584 315 
z
" style="fill:#00008b;opacity:0.4;stroke:#ffffff;stroke-linejoin:miter;"/>
   </g>
   <g id="patch_50">
    <path clip-path="url(#p03574426be)" d="M 274.988779 315 
L 279.141718 315 
L 279.141718 315 
L 274.988779 315 
z
" style="fill:#00008b;opacity:0.4;stroke:#ffffff;stroke-linejoin:miter;"/>
   </g>
   <g id="patch_51">
    <path clip-path="url(#p03574426be)" d="M 279.141718 315 
L 283.294658 315 
L 283.294658 315 
L 279.141718 315 
z
" style="fill:#00008b;opacity:0.4;stroke:#ffffff;stroke-linejoin:miter;"/>
   </g>
   <g id="patch_52">
    <path clip-path="url(#p03574426be)" d="M 283.294658 315 
L 287.447597 315 
L 287.447597 314.175614 
L 283.294658 314.175614 
z
" style="fill:#00008b;opacity:0.4;stroke:#ffffff;stroke-linejoin:miter;"/>
   </g>
   <g id="line2d_12">
    <path clip-path="url(#p03574426be)" d="M 68.334863 314.989985 
L 71.810921 314.875979 
L 74.128293 314.534431 
L 75.286979 314.175811 
L 76.445665 313.615328 
L 77.604351 312.781026 
L 78.763037 311.595375 
L 79.921723 309.98706 
L 81.080409 307.907435 
L 82.239095 305.343712 
L 83.397781 302.315746 
L 84.556467 298.846407 
L 85.715153 294.909915 
L 86.873839 290.38197 
L 88.032525 285.026199 
L 89.191211 278.542054 
L 90.349897 270.670506 
L 91.508583 261.320081 
L 93.825955 239.113816 
L 96.143327 215.862025 
L 97.302013 205.310588 
L 98.460699 195.931897 
L 99.619385 187.751444 
L 101.936757 174.059257 
L 104.254129 161.253165 
L 105.412815 154.028433 
L 106.571501 145.718785 
L 107.730187 136.145738 
L 112.364931 93.248711 
L 113.523617 85.194376 
L 114.682303 79.287671 
L 115.840989 75.363427 
L 116.999675 72.895055 
L 118.158361 71.221105 
L 120.475733 68.41231 
L 121.634419 67.214676 
L 122.793105 66.685901 
L 123.951791 67.435705 
L 125.110477 69.974795 
L 126.269163 74.523771 
L 127.427849 80.946594 
L 128.586535 88.839982 
L 130.903907 107.21875 
L 136.697337 156.871803 
L 137.856023 165.251257 
L 139.014709 172.393591 
L 140.173395 178.376817 
L 143.649453 194.538506 
L 144.808139 201.427062 
L 145.966825 209.557815 
L 150.601569 245.133758 
L 151.760255 251.972536 
L 152.918941 257.574531 
L 154.077627 262.156225 
L 155.236313 266.018675 
L 157.553684 272.605139 
L 164.5058 290.611399 
L 166.823172 296.093217 
L 167.981858 298.306845 
L 169.140544 300.069687 
L 170.29923 301.407287 
L 171.457916 302.419597 
L 174.933974 304.768031 
L 178.410032 306.986764 
L 180.727404 307.981352 
L 185.362148 309.445136 
L 192.314264 312.342093 
L 194.631636 312.751599 
L 200.425066 313.322158 
L 207.377182 314.713919 
L 209.694554 314.793301 
L 216.64667 314.667621 
L 221.281414 314.781757 
L 229.392216 314.702259 
L 234.02696 314.774018 
L 245.61382 314.359425 
L 249.089878 314.002065 
L 251.40725 314.048487 
L 254.883308 314.517007 
L 258.359366 314.884513 
L 262.99411 314.994857 
L 280.3744 314.935528 
L 289.643888 314.697026 
L 296.596004 314.979632 
L 298.913376 314.99603 
L 298.913376 314.99603 
" style="fill:none;stroke:#00008b;stroke-linecap:round;stroke-width:1.5;"/>
   </g>
   <g id="patch_53">
    <path d="M 56.805938 315 
L 56.805938 43.2 
" style="fill:none;stroke:#ffffff;stroke-linecap:square;stroke-linejoin:miter;stroke-width:1.25;"/>
   </g>
   <g id="patch_54">
    <path d="M 310.442301 315 
L 310.442301 43.2 
" style="fill:none;stroke:#ffffff;stroke-linecap:square;stroke-linejoin:miter;stroke-width:1.25;"/>
   </g>
   <g id="patch_55">
    <path d="M 56.805938 315 
L 310.442301 315 
" style="fill:none;stroke:#ffffff;stroke-linecap:square;stroke-linejoin:miter;stroke-width:1.25;"/>
   </g>
   <g id="patch_56">
    <path d="M 56.805938 43.2 
L 310.442301 43.2 
" style="fill:none;stroke:#ffffff;stroke-linecap:square;stroke-linejoin:miter;stroke-width:1.25;"/>
   </g>
   <g id="text_14">
    <!-- Disaster -->
    <g style="fill:#262626;" transform="translate(158.898494 37.2)scale(0.12 -0.12)">
     <defs>
      <path d="M 34.28125 27.484375 
Q 23.390625 27.484375 19.1875 25 
Q 14.984375 22.515625 14.984375 16.5 
Q 14.984375 11.71875 18.140625 8.90625 
Q 21.296875 6.109375 26.703125 6.109375 
Q 34.1875 6.109375 38.703125 11.40625 
Q 43.21875 16.703125 43.21875 25.484375 
L 43.21875 27.484375 
z
M 52.203125 31.203125 
L 52.203125 0 
L 43.21875 0 
L 43.21875 8.296875 
Q 40.140625 3.328125 35.546875 0.953125 
Q 30.953125 -1.421875 24.3125 -1.421875 
Q 15.921875 -1.421875 10.953125 3.296875 
Q 6 8.015625 6 15.921875 
Q 6 25.140625 12.171875 29.828125 
Q 18.359375 34.515625 30.609375 34.515625 
L 43.21875 34.515625 
L 43.21875 35.40625 
Q 43.21875 41.609375 39.140625 45 
Q 35.0625 48.390625 27.6875 48.390625 
Q 23 48.390625 18.546875 47.265625 
Q 14.109375 46.140625 10.015625 43.890625 
L 10.015625 52.203125 
Q 14.9375 54.109375 19.578125 55.046875 
Q 24.21875 56 28.609375 56 
Q 40.484375 56 46.34375 49.84375 
Q 52.203125 43.703125 52.203125 31.203125 
z
" id="DejaVuSans-97"/>
      <path d="M 41.109375 46.296875 
Q 39.59375 47.171875 37.8125 47.578125 
Q 36.03125 48 33.890625 48 
Q 26.265625 48 22.1875 43.046875 
Q 18.109375 38.09375 18.109375 28.8125 
L 18.109375 0 
L 9.078125 0 
L 9.078125 54.6875 
L 18.109375 54.6875 
L 18.109375 46.1875 
Q 20.953125 51.171875 25.484375 53.578125 
Q 30.03125 56 36.53125 56 
Q 37.453125 56 38.578125 55.875 
Q 39.703125 55.765625 41.0625 55.515625 
z
" id="DejaVuSans-114"/>
     </defs>
     <use xlink:href="#DejaVuSans-68"/>
     <use x="77.001953" xlink:href="#DejaVuSans-105"/>
     <use x="104.785156" xlink:href="#DejaVuSans-115"/>
     <use x="156.884766" xlink:href="#DejaVuSans-97"/>
     <use x="218.164062" xlink:href="#DejaVuSans-115"/>
     <use x="270.263672" xlink:href="#DejaVuSans-116"/>
     <use x="309.472656" xlink:href="#DejaVuSans-101"/>
     <use x="370.996094" xlink:href="#DejaVuSans-114"/>
    </g>
   </g>
  </g>
  <g id="axes_2">
   <g id="patch_57">
    <path d="M 361.169574 315 
L 614.805937 315 
L 614.805937 43.2 
L 361.169574 43.2 
z
" style="fill:#eaeaf2;"/>
   </g>
   <g id="matplotlib.axis_3">
    <g id="xtick_5">
     <g id="line2d_13">
      <path clip-path="url(#p0a47716fde)" d="M 424.602352 315 
L 424.602352 43.2 
" style="fill:none;stroke:#ffffff;stroke-linecap:round;"/>
     </g>
     <g id="text_15">
      <!-- 5 -->
      <g style="fill:#262626;" transform="translate(421.102977 332.858281)scale(0.11 -0.11)">
       <use xlink:href="#DejaVuSans-53"/>
      </g>
     </g>
    </g>
    <g id="xtick_6">
     <g id="line2d_14">
      <path clip-path="url(#p0a47716fde)" d="M 494.202011 315 
L 494.202011 43.2 
" style="fill:none;stroke:#ffffff;stroke-linecap:round;"/>
     </g>
     <g id="text_16">
      <!-- 10 -->
      <g style="fill:#262626;" transform="translate(487.203261 332.858281)scale(0.11 -0.11)">
       <use xlink:href="#DejaVuSans-49"/>
       <use x="63.623047" xlink:href="#DejaVuSans-48"/>
      </g>
     </g>
    </g>
    <g id="xtick_7">
     <g id="line2d_15">
      <path clip-path="url(#p0a47716fde)" d="M 563.80167 315 
L 563.80167 43.2 
" style="fill:none;stroke:#ffffff;stroke-linecap:round;"/>
     </g>
     <g id="text_17">
      <!-- 15 -->
      <g style="fill:#262626;" transform="translate(556.80292 332.858281)scale(0.11 -0.11)">
       <use xlink:href="#DejaVuSans-49"/>
       <use x="63.623047" xlink:href="#DejaVuSans-53"/>
      </g>
     </g>
    </g>
    <g id="text_18">
     <!-- text -->
     <g style="fill:#262626;" transform="translate(476.145256 348.264062)scale(0.12 -0.12)">
      <use xlink:href="#DejaVuSans-116"/>
      <use x="39.208984" xlink:href="#DejaVuSans-101"/>
      <use x="98.982422" xlink:href="#DejaVuSans-120"/>
      <use x="158.162109" xlink:href="#DejaVuSans-116"/>
     </g>
    </g>
   </g>
   <g id="matplotlib.axis_4">
    <g id="ytick_8">
     <g id="line2d_16">
      <path clip-path="url(#p0a47716fde)" d="M 361.169574 315 
L 614.805937 315 
" style="fill:none;stroke:#ffffff;stroke-linecap:round;"/>
     </g>
     <g id="text_19">
      <!-- 0.00 -->
      <g style="fill:#262626;" transform="translate(327.177386 319.179141)scale(0.11 -0.11)">
       <use xlink:href="#DejaVuSans-48"/>
       <use x="63.623047" xlink:href="#DejaVuSans-46"/>
       <use x="95.410156" xlink:href="#DejaVuSans-48"/>
       <use x="159.033203" xlink:href="#DejaVuSans-48"/>
      </g>
     </g>
    </g>
    <g id="ytick_9">
     <g id="line2d_17">
      <path clip-path="url(#p0a47716fde)" d="M 361.169574 273.2244 
L 614.805937 273.2244 
" style="fill:none;stroke:#ffffff;stroke-linecap:round;"/>
     </g>
     <g id="text_20">
      <!-- 0.05 -->
      <g style="fill:#262626;" transform="translate(327.177386 277.40354)scale(0.11 -0.11)">
       <use xlink:href="#DejaVuSans-48"/>
       <use x="63.623047" xlink:href="#DejaVuSans-46"/>
       <use x="95.410156" xlink:href="#DejaVuSans-48"/>
       <use x="159.033203" xlink:href="#DejaVuSans-53"/>
      </g>
     </g>
    </g>
    <g id="ytick_10">
     <g id="line2d_18">
      <path clip-path="url(#p0a47716fde)" d="M 361.169574 231.4488 
L 614.805937 231.4488 
" style="fill:none;stroke:#ffffff;stroke-linecap:round;"/>
     </g>
     <g id="text_21">
      <!-- 0.10 -->
      <g style="fill:#262626;" transform="translate(327.177386 235.62794)scale(0.11 -0.11)">
       <use xlink:href="#DejaVuSans-48"/>
       <use x="63.623047" xlink:href="#DejaVuSans-46"/>
       <use x="95.410156" xlink:href="#DejaVuSans-49"/>
       <use x="159.033203" xlink:href="#DejaVuSans-48"/>
      </g>
     </g>
    </g>
    <g id="ytick_11">
     <g id="line2d_19">
      <path clip-path="url(#p0a47716fde)" d="M 361.169574 189.673199 
L 614.805937 189.673199 
" style="fill:none;stroke:#ffffff;stroke-linecap:round;"/>
     </g>
     <g id="text_22">
      <!-- 0.15 -->
      <g style="fill:#262626;" transform="translate(327.177386 193.85234)scale(0.11 -0.11)">
       <use xlink:href="#DejaVuSans-48"/>
       <use x="63.623047" xlink:href="#DejaVuSans-46"/>
       <use x="95.410156" xlink:href="#DejaVuSans-49"/>
       <use x="159.033203" xlink:href="#DejaVuSans-53"/>
      </g>
     </g>
    </g>
    <g id="ytick_12">
     <g id="line2d_20">
      <path clip-path="url(#p0a47716fde)" d="M 361.169574 147.897599 
L 614.805937 147.897599 
" style="fill:none;stroke:#ffffff;stroke-linecap:round;"/>
     </g>
     <g id="text_23">
      <!-- 0.20 -->
      <g style="fill:#262626;" transform="translate(327.177386 152.07674)scale(0.11 -0.11)">
       <use xlink:href="#DejaVuSans-48"/>
       <use x="63.623047" xlink:href="#DejaVuSans-46"/>
       <use x="95.410156" xlink:href="#DejaVuSans-50"/>
       <use x="159.033203" xlink:href="#DejaVuSans-48"/>
      </g>
     </g>
    </g>
    <g id="ytick_13">
     <g id="line2d_21">
      <path clip-path="url(#p0a47716fde)" d="M 361.169574 106.121999 
L 614.805937 106.121999 
" style="fill:none;stroke:#ffffff;stroke-linecap:round;"/>
     </g>
     <g id="text_24">
      <!-- 0.25 -->
      <g style="fill:#262626;" transform="translate(327.177386 110.301139)scale(0.11 -0.11)">
       <use xlink:href="#DejaVuSans-48"/>
       <use x="63.623047" xlink:href="#DejaVuSans-46"/>
       <use x="95.410156" xlink:href="#DejaVuSans-50"/>
       <use x="159.033203" xlink:href="#DejaVuSans-53"/>
      </g>
     </g>
    </g>
    <g id="ytick_14">
     <g id="line2d_22">
      <path clip-path="url(#p0a47716fde)" d="M 361.169574 64.346399 
L 614.805937 64.346399 
" style="fill:none;stroke:#ffffff;stroke-linecap:round;"/>
     </g>
     <g id="text_25">
      <!-- 0.30 -->
      <g style="fill:#262626;" transform="translate(327.177386 68.525539)scale(0.11 -0.11)">
       <use xlink:href="#DejaVuSans-48"/>
       <use x="63.623047" xlink:href="#DejaVuSans-46"/>
       <use x="95.410156" xlink:href="#DejaVuSans-51"/>
       <use x="159.033203" xlink:href="#DejaVuSans-48"/>
      </g>
     </g>
    </g>
    <g id="text_26">
     <!-- Density -->
     <g style="fill:#262626;" transform="translate(320.681761 201.910312)rotate(-90)scale(0.12 -0.12)">
      <use xlink:href="#DejaVuSans-68"/>
      <use x="77.001953" xlink:href="#DejaVuSans-101"/>
      <use x="138.525391" xlink:href="#DejaVuSans-110"/>
      <use x="201.904297" xlink:href="#DejaVuSans-115"/>
      <use x="254.003906" xlink:href="#DejaVuSans-105"/>
      <use x="281.787109" xlink:href="#DejaVuSans-116"/>
      <use x="320.996094" xlink:href="#DejaVuSans-121"/>
     </g>
    </g>
   </g>
   <g id="patch_58">
    <path clip-path="url(#p0a47716fde)" d="M 386.32254 315 
L 390.389149 315 
L 390.389149 313.682661 
L 386.32254 313.682661 
z
" style="fill:#ff00ff;opacity:0.4;stroke:#ffffff;stroke-linejoin:miter;"/>
   </g>
   <g id="patch_59">
    <path clip-path="url(#p0a47716fde)" d="M 390.389149 315 
L 394.455757 315 
L 394.455757 311.047983 
L 390.389149 311.047983 
z
" style="fill:#ff00ff;opacity:0.4;stroke:#ffffff;stroke-linejoin:miter;"/>
   </g>
   <g id="patch_60">
    <path clip-path="url(#p0a47716fde)" d="M 394.455757 315 
L 398.522366 315 
L 398.522366 304.461287 
L 394.455757 304.461287 
z
" style="fill:#ff00ff;opacity:0.4;stroke:#ffffff;stroke-linejoin:miter;"/>
   </g>
   <g id="patch_61">
    <path clip-path="url(#p0a47716fde)" d="M 398.522366 315 
L 402.588975 315 
L 402.588975 286.677208 
L 398.522366 286.677208 
z
" style="fill:#ff00ff;opacity:0.4;stroke:#ffffff;stroke-linejoin:miter;"/>
   </g>
   <g id="patch_62">
    <path clip-path="url(#p0a47716fde)" d="M 402.588975 315 
L 406.655583 315 
L 406.655583 237.27699 
L 402.588975 237.27699 
z
" style="fill:#ff00ff;opacity:0.4;stroke:#ffffff;stroke-linejoin:miter;"/>
   </g>
   <g id="patch_63">
    <path clip-path="url(#p0a47716fde)" d="M 406.655583 315 
L 410.722192 315 
L 410.722192 157.577972 
L 406.655583 157.577972 
z
" style="fill:#ff00ff;opacity:0.4;stroke:#ffffff;stroke-linejoin:miter;"/>
   </g>
   <g id="patch_64">
    <path clip-path="url(#p0a47716fde)" d="M 410.722192 315 
L 414.7888 315 
L 414.7888 133.207197 
L 410.722192 133.207197 
z
" style="fill:#ff00ff;opacity:0.4;stroke:#ffffff;stroke-linejoin:miter;"/>
   </g>
   <g id="patch_65">
    <path clip-path="url(#p0a47716fde)" d="M 414.7888 315 
L 418.855409 315 
L 418.855409 79.196292 
L 414.7888 79.196292 
z
" style="fill:#ff00ff;opacity:0.4;stroke:#ffffff;stroke-linejoin:miter;"/>
   </g>
   <g id="patch_66">
    <path clip-path="url(#p0a47716fde)" d="M 418.855409 315 
L 422.922018 315 
L 422.922018 56.142857 
L 418.855409 56.142857 
z
" style="fill:#ff00ff;opacity:0.4;stroke:#ffffff;stroke-linejoin:miter;"/>
   </g>
   <g id="patch_67">
    <path clip-path="url(#p0a47716fde)" d="M 422.922018 315 
L 426.988626 315 
L 426.988626 99.615049 
L 422.922018 99.615049 
z
" style="fill:#ff00ff;opacity:0.4;stroke:#ffffff;stroke-linejoin:miter;"/>
   </g>
   <g id="patch_68">
    <path clip-path="url(#p0a47716fde)" d="M 426.988626 315 
L 431.055235 315 
L 431.055235 112.788441 
L 426.988626 112.788441 
z
" style="fill:#ff00ff;opacity:0.4;stroke:#ffffff;stroke-linejoin:miter;"/>
   </g>
   <g id="patch_69">
    <path clip-path="url(#p0a47716fde)" d="M 431.055235 315 
L 435.121844 315 
L 435.121844 112.129771 
L 431.055235 112.129771 
z
" style="fill:#ff00ff;opacity:0.4;stroke:#ffffff;stroke-linejoin:miter;"/>
   </g>
   <g id="patch_70">
    <path clip-path="url(#p0a47716fde)" d="M 435.121844 315 
L 439.188452 315 
L 439.188452 128.59651 
L 435.121844 128.59651 
z
" style="fill:#ff00ff;opacity:0.4;stroke:#ffffff;stroke-linejoin:miter;"/>
   </g>
   <g id="patch_71">
    <path clip-path="url(#p0a47716fde)" d="M 439.188452 315 
L 443.255061 315 
L 443.255061 170.092694 
L 439.188452 170.092694 
z
" style="fill:#ff00ff;opacity:0.4;stroke:#ffffff;stroke-linejoin:miter;"/>
   </g>
   <g id="patch_72">
    <path clip-path="url(#p0a47716fde)" d="M 443.255061 315 
L 447.321669 315 
L 447.321669 166.799346 
L 443.255061 166.799346 
z
" style="fill:#ff00ff;opacity:0.4;stroke:#ffffff;stroke-linejoin:miter;"/>
   </g>
   <g id="patch_73">
    <path clip-path="url(#p0a47716fde)" d="M 447.321669 315 
L 451.388278 315 
L 451.388278 169.434024 
L 447.321669 169.434024 
z
" style="fill:#ff00ff;opacity:0.4;stroke:#ffffff;stroke-linejoin:miter;"/>
   </g>
   <g id="patch_74">
    <path clip-path="url(#p0a47716fde)" d="M 451.388278 315 
L 455.454887 315 
L 455.454887 189.852781 
L 451.388278 189.852781 
z
" style="fill:#ff00ff;opacity:0.4;stroke:#ffffff;stroke-linejoin:miter;"/>
   </g>
   <g id="patch_75">
    <path clip-path="url(#p0a47716fde)" d="M 455.454887 315 
L 459.521495 315 
L 459.521495 214.882225 
L 455.454887 214.882225 
z
" style="fill:#ff00ff;opacity:0.4;stroke:#ffffff;stroke-linejoin:miter;"/>
   </g>
   <g id="patch_76">
    <path clip-path="url(#p0a47716fde)" d="M 459.521495 315 
L 463.588104 315 
L 463.588104 210.930207 
L 459.521495 210.930207 
z
" style="fill:#ff00ff;opacity:0.4;stroke:#ffffff;stroke-linejoin:miter;"/>
   </g>
   <g id="patch_77">
    <path clip-path="url(#p0a47716fde)" d="M 463.588104 315 
L 467.654713 315 
L 467.654713 257.037077 
L 463.588104 257.037077 
z
" style="fill:#ff00ff;opacity:0.4;stroke:#ffffff;stroke-linejoin:miter;"/>
   </g>
   <g id="patch_78">
    <path clip-path="url(#p0a47716fde)" d="M 467.654713 315 
L 471.721321 315 
L 471.721321 266.258451 
L 467.654713 266.258451 
z
" style="fill:#ff00ff;opacity:0.4;stroke:#ffffff;stroke-linejoin:miter;"/>
   </g>
   <g id="patch_79">
    <path clip-path="url(#p0a47716fde)" d="M 471.721321 315 
L 475.78793 315 
L 475.78793 272.845147 
L 471.721321 272.845147 
z
" style="fill:#ff00ff;opacity:0.4;stroke:#ffffff;stroke-linejoin:miter;"/>
   </g>
   <g id="patch_80">
    <path clip-path="url(#p0a47716fde)" d="M 475.78793 315 
L 479.854538 315 
L 479.854538 283.38386 
L 475.78793 283.38386 
z
" style="fill:#ff00ff;opacity:0.4;stroke:#ffffff;stroke-linejoin:miter;"/>
   </g>
   <g id="patch_81">
    <path clip-path="url(#p0a47716fde)" d="M 479.854538 315 
L 483.921147 315 
L 483.921147 278.773173 
L 479.854538 278.773173 
z
" style="fill:#ff00ff;opacity:0.4;stroke:#ffffff;stroke-linejoin:miter;"/>
   </g>
   <g id="patch_82">
    <path clip-path="url(#p0a47716fde)" d="M 483.921147 315 
L 487.987756 315 
L 487.987756 290.629226 
L 483.921147 290.629226 
z
" style="fill:#ff00ff;opacity:0.4;stroke:#ffffff;stroke-linejoin:miter;"/>
   </g>
   <g id="patch_83">
    <path clip-path="url(#p0a47716fde)" d="M 487.987756 315 
L 492.054364 315 
L 492.054364 299.19193 
L 487.987756 299.19193 
z
" style="fill:#ff00ff;opacity:0.4;stroke:#ffffff;stroke-linejoin:miter;"/>
   </g>
   <g id="patch_84">
    <path clip-path="url(#p0a47716fde)" d="M 492.054364 315 
L 496.120973 315 
L 496.120973 306.437296 
L 492.054364 306.437296 
z
" style="fill:#ff00ff;opacity:0.4;stroke:#ffffff;stroke-linejoin:miter;"/>
   </g>
   <g id="patch_85">
    <path clip-path="url(#p0a47716fde)" d="M 496.120973 315 
L 500.187582 315 
L 500.187582 307.754635 
L 496.120973 307.754635 
z
" style="fill:#ff00ff;opacity:0.4;stroke:#ffffff;stroke-linejoin:miter;"/>
   </g>
   <g id="patch_86">
    <path clip-path="url(#p0a47716fde)" d="M 500.187582 315 
L 504.25419 315 
L 504.25419 309.730643 
L 500.187582 309.730643 
z
" style="fill:#ff00ff;opacity:0.4;stroke:#ffffff;stroke-linejoin:miter;"/>
   </g>
   <g id="patch_87">
    <path clip-path="url(#p0a47716fde)" d="M 504.25419 315 
L 508.320799 315 
L 508.320799 307.754635 
L 504.25419 307.754635 
z
" style="fill:#ff00ff;opacity:0.4;stroke:#ffffff;stroke-linejoin:miter;"/>
   </g>
   <g id="patch_88">
    <path clip-path="url(#p0a47716fde)" d="M 508.320799 315 
L 512.387407 315 
L 512.387407 309.730643 
L 508.320799 309.730643 
z
" style="fill:#ff00ff;opacity:0.4;stroke:#ffffff;stroke-linejoin:miter;"/>
   </g>
   <g id="patch_89">
    <path clip-path="url(#p0a47716fde)" d="M 512.387407 315 
L 516.454016 315 
L 516.454016 311.047983 
L 512.387407 311.047983 
z
" style="fill:#ff00ff;opacity:0.4;stroke:#ffffff;stroke-linejoin:miter;"/>
   </g>
   <g id="patch_90">
    <path clip-path="url(#p0a47716fde)" d="M 516.454016 315 
L 520.520625 315 
L 520.520625 305.778626 
L 516.454016 305.778626 
z
" style="fill:#ff00ff;opacity:0.4;stroke:#ffffff;stroke-linejoin:miter;"/>
   </g>
   <g id="patch_91">
    <path clip-path="url(#p0a47716fde)" d="M 520.520625 315 
L 524.587233 315 
L 524.587233 311.047983 
L 520.520625 311.047983 
z
" style="fill:#ff00ff;opacity:0.4;stroke:#ffffff;stroke-linejoin:miter;"/>
   </g>
   <g id="patch_92">
    <path clip-path="url(#p0a47716fde)" d="M 524.587233 315 
L 528.653842 315 
L 528.653842 313.023991 
L 524.587233 313.023991 
z
" style="fill:#ff00ff;opacity:0.4;stroke:#ffffff;stroke-linejoin:miter;"/>
   </g>
   <g id="patch_93">
    <path clip-path="url(#p0a47716fde)" d="M 528.653842 315 
L 532.720451 315 
L 532.720451 313.023991 
L 528.653842 313.023991 
z
" style="fill:#ff00ff;opacity:0.4;stroke:#ffffff;stroke-linejoin:miter;"/>
   </g>
   <g id="patch_94">
    <path clip-path="url(#p0a47716fde)" d="M 532.720451 315 
L 536.787059 315 
L 536.787059 311.047983 
L 532.720451 311.047983 
z
" style="fill:#ff00ff;opacity:0.4;stroke:#ffffff;stroke-linejoin:miter;"/>
   </g>
   <g id="patch_95">
    <path clip-path="url(#p0a47716fde)" d="M 536.787059 315 
L 540.853668 315 
L 540.853668 313.682661 
L 536.787059 313.682661 
z
" style="fill:#ff00ff;opacity:0.4;stroke:#ffffff;stroke-linejoin:miter;"/>
   </g>
   <g id="patch_96">
    <path clip-path="url(#p0a47716fde)" d="M 540.853668 315 
L 544.920276 315 
L 544.920276 311.706652 
L 540.853668 311.706652 
z
" style="fill:#ff00ff;opacity:0.4;stroke:#ffffff;stroke-linejoin:miter;"/>
   </g>
   <g id="patch_97">
    <path clip-path="url(#p0a47716fde)" d="M 544.920276 315 
L 548.986885 315 
L 548.986885 313.023991 
L 544.920276 313.023991 
z
" style="fill:#ff00ff;opacity:0.4;stroke:#ffffff;stroke-linejoin:miter;"/>
   </g>
   <g id="patch_98">
    <path clip-path="url(#p0a47716fde)" d="M 548.986885 315 
L 553.053494 315 
L 553.053494 314.34133 
L 548.986885 314.34133 
z
" style="fill:#ff00ff;opacity:0.4;stroke:#ffffff;stroke-linejoin:miter;"/>
   </g>
   <g id="patch_99">
    <path clip-path="url(#p0a47716fde)" d="M 553.053494 315 
L 557.120102 315 
L 557.120102 315 
L 553.053494 315 
z
" style="fill:#ff00ff;opacity:0.4;stroke:#ffffff;stroke-linejoin:miter;"/>
   </g>
   <g id="patch_100">
    <path clip-path="url(#p0a47716fde)" d="M 557.120102 315 
L 561.186711 315 
L 561.186711 315 
L 557.120102 315 
z
" style="fill:#ff00ff;opacity:0.4;stroke:#ffffff;stroke-linejoin:miter;"/>
   </g>
   <g id="patch_101">
    <path clip-path="url(#p0a47716fde)" d="M 561.186711 315 
L 565.25332 315 
L 565.25332 314.34133 
L 561.186711 314.34133 
z
" style="fill:#ff00ff;opacity:0.4;stroke:#ffffff;stroke-linejoin:miter;"/>
   </g>
   <g id="patch_102">
    <path clip-path="url(#p0a47716fde)" d="M 565.25332 315 
L 569.319928 315 
L 569.319928 314.34133 
L 565.25332 314.34133 
z
" style="fill:#ff00ff;opacity:0.4;stroke:#ffffff;stroke-linejoin:miter;"/>
   </g>
   <g id="patch_103">
    <path clip-path="url(#p0a47716fde)" d="M 569.319928 315 
L 573.386537 315 
L 573.386537 313.023991 
L 569.319928 313.023991 
z
" style="fill:#ff00ff;opacity:0.4;stroke:#ffffff;stroke-linejoin:miter;"/>
   </g>
   <g id="patch_104">
    <path clip-path="url(#p0a47716fde)" d="M 573.386537 315 
L 577.453145 315 
L 577.453145 315 
L 573.386537 315 
z
" style="fill:#ff00ff;opacity:0.4;stroke:#ffffff;stroke-linejoin:miter;"/>
   </g>
   <g id="patch_105">
    <path clip-path="url(#p0a47716fde)" d="M 577.453145 315 
L 581.519754 315 
L 581.519754 313.682661 
L 577.453145 313.682661 
z
" style="fill:#ff00ff;opacity:0.4;stroke:#ffffff;stroke-linejoin:miter;"/>
   </g>
   <g id="patch_106">
    <path clip-path="url(#p0a47716fde)" d="M 581.519754 315 
L 585.586363 315 
L 585.586363 313.682661 
L 581.519754 313.682661 
z
" style="fill:#ff00ff;opacity:0.4;stroke:#ffffff;stroke-linejoin:miter;"/>
   </g>
   <g id="patch_107">
    <path clip-path="url(#p0a47716fde)" d="M 585.586363 315 
L 589.652971 315 
L 589.652971 314.34133 
L 585.586363 314.34133 
z
" style="fill:#ff00ff;opacity:0.4;stroke:#ffffff;stroke-linejoin:miter;"/>
   </g>
   <g id="line2d_23">
    <path clip-path="url(#p0a47716fde)" d="M 372.698499 314.996092 
L 378.491929 314.900388 
L 381.967987 314.624549 
L 384.285359 314.232191 
L 386.602731 313.531459 
L 387.761417 312.991768 
L 388.920103 312.26538 
L 390.078789 311.290979 
L 391.237475 309.991531 
L 392.396161 308.270179 
L 393.554847 306.005775 
L 394.713533 303.050926 
L 395.872219 299.236266 
L 397.030905 294.383353 
L 398.189591 288.325215 
L 399.348277 280.929605 
L 400.506963 272.118061 
L 401.665649 261.87559 
L 402.824335 250.250798 
L 405.141707 223.342076 
L 407.459079 192.953514 
L 410.935137 146.590931 
L 413.252509 119.754465 
L 414.411195 108.582601 
L 415.569881 99.23032 
L 416.728567 91.869982 
L 417.887253 86.619448 
L 419.045939 83.526458 
L 420.204625 82.539908 
L 421.363311 83.480808 
L 422.521997 86.031043 
L 423.680683 89.754761 
L 428.315427 107.246754 
L 430.632799 114.216887 
L 432.950171 120.777859 
L 434.108857 124.411193 
L 435.267543 128.454554 
L 437.584915 137.76579 
L 441.060973 152.656236 
L 442.219659 157.060023 
L 443.378345 160.955014 
L 444.537031 164.349629 
L 449.171775 176.265344 
L 450.330461 179.893111 
L 451.489147 184.026565 
L 453.806519 193.505339 
L 458.441263 213.109186 
L 461.917321 227.530612 
L 467.710751 253.137111 
L 468.869437 257.539836 
L 470.028123 261.473066 
L 471.186809 264.934727 
L 472.345495 267.965241 
L 473.504181 270.631201 
L 475.821553 275.169565 
L 478.138925 279.058989 
L 481.614983 284.316724 
L 485.091041 289.65186 
L 488.567099 295.628552 
L 490.884471 299.523701 
L 493.201843 302.815665 
L 494.360529 304.165086 
L 495.519215 305.317063 
L 496.677901 306.284111 
L 497.836587 307.079732 
L 498.995273 307.714542 
L 500.153959 308.196386 
L 501.312645 308.533473 
L 503.630017 308.832995 
L 507.106075 308.771241 
L 510.582133 308.781174 
L 517.534248 309.159606 
L 519.85162 309.642582 
L 522.168992 310.416142 
L 525.64505 311.694725 
L 527.962422 312.30704 
L 530.279794 312.584007 
L 532.597166 312.559078 
L 538.390596 312.206408 
L 540.707968 312.252779 
L 543.02534 312.472026 
L 545.342712 312.875239 
L 552.294828 314.401576 
L 554.6122 314.672662 
L 556.929572 314.761566 
L 560.40563 314.608416 
L 568.516432 313.963993 
L 571.99249 313.993176 
L 580.103292 314.208067 
L 587.055408 314.331884 
L 600.95964 314.988629 
L 603.277012 314.997278 
L 603.277012 314.997278 
" style="fill:none;stroke:#ff00ff;stroke-linecap:round;stroke-width:1.5;"/>
   </g>
   <g id="patch_108">
    <path d="M 361.169574 315 
L 361.169574 43.2 
" style="fill:none;stroke:#ffffff;stroke-linecap:square;stroke-linejoin:miter;stroke-width:1.25;"/>
   </g>
   <g id="patch_109">
    <path d="M 614.805937 315 
L 614.805937 43.2 
" style="fill:none;stroke:#ffffff;stroke-linecap:square;stroke-linejoin:miter;stroke-width:1.25;"/>
   </g>
   <g id="patch_110">
    <path d="M 361.169574 315 
L 614.805937 315 
" style="fill:none;stroke:#ffffff;stroke-linecap:square;stroke-linejoin:miter;stroke-width:1.25;"/>
   </g>
   <g id="patch_111">
    <path d="M 361.169574 43.2 
L 614.805937 43.2 
" style="fill:none;stroke:#ffffff;stroke-linecap:square;stroke-linejoin:miter;stroke-width:1.25;"/>
   </g>
   <g id="text_27">
    <!-- Non disaster -->
    <g style="fill:#262626;" transform="translate(450.203693 37.2)scale(0.12 -0.12)">
     <defs>
      <path d="M 9.8125 72.90625 
L 23.09375 72.90625 
L 55.421875 11.921875 
L 55.421875 72.90625 
L 64.984375 72.90625 
L 64.984375 0 
L 51.703125 0 
L 19.390625 60.984375 
L 19.390625 0 
L 9.8125 0 
z
" id="DejaVuSans-78"/>
      <path d="M 30.609375 48.390625 
Q 23.390625 48.390625 19.1875 42.75 
Q 14.984375 37.109375 14.984375 27.296875 
Q 14.984375 17.484375 19.15625 11.84375 
Q 23.34375 6.203125 30.609375 6.203125 
Q 37.796875 6.203125 41.984375 11.859375 
Q 46.1875 17.53125 46.1875 27.296875 
Q 46.1875 37.015625 41.984375 42.703125 
Q 37.796875 48.390625 30.609375 48.390625 
z
M 30.609375 56 
Q 42.328125 56 49.015625 48.375 
Q 55.71875 40.765625 55.71875 27.296875 
Q 55.71875 13.875 49.015625 6.21875 
Q 42.328125 -1.421875 30.609375 -1.421875 
Q 18.84375 -1.421875 12.171875 6.21875 
Q 5.515625 13.875 5.515625 27.296875 
Q 5.515625 40.765625 12.171875 48.375 
Q 18.84375 56 30.609375 56 
z
" id="DejaVuSans-111"/>
      <path id="DejaVuSans-32"/>
      <path d="M 45.40625 46.390625 
L 45.40625 75.984375 
L 54.390625 75.984375 
L 54.390625 0 
L 45.40625 0 
L 45.40625 8.203125 
Q 42.578125 3.328125 38.25 0.953125 
Q 33.9375 -1.421875 27.875 -1.421875 
Q 17.96875 -1.421875 11.734375 6.484375 
Q 5.515625 14.40625 5.515625 27.296875 
Q 5.515625 40.1875 11.734375 48.09375 
Q 17.96875 56 27.875 56 
Q 33.9375 56 38.25 53.625 
Q 42.578125 51.265625 45.40625 46.390625 
z
M 14.796875 27.296875 
Q 14.796875 17.390625 18.875 11.75 
Q 22.953125 6.109375 30.078125 6.109375 
Q 37.203125 6.109375 41.296875 11.75 
Q 45.40625 17.390625 45.40625 27.296875 
Q 45.40625 37.203125 41.296875 42.84375 
Q 37.203125 48.484375 30.078125 48.484375 
Q 22.953125 48.484375 18.875 42.84375 
Q 14.796875 37.203125 14.796875 27.296875 
z
" id="DejaVuSans-100"/>
     </defs>
     <use xlink:href="#DejaVuSans-78"/>
     <use x="74.804688" xlink:href="#DejaVuSans-111"/>
     <use x="135.986328" xlink:href="#DejaVuSans-110"/>
     <use x="199.365234" xlink:href="#DejaVuSans-32"/>
     <use x="231.152344" xlink:href="#DejaVuSans-100"/>
     <use x="294.628906" xlink:href="#DejaVuSans-105"/>
     <use x="322.412109" xlink:href="#DejaVuSans-115"/>
     <use x="374.511719" xlink:href="#DejaVuSans-97"/>
     <use x="435.791016" xlink:href="#DejaVuSans-115"/>
     <use x="487.890625" xlink:href="#DejaVuSans-116"/>
     <use x="527.099609" xlink:href="#DejaVuSans-101"/>
     <use x="588.623047" xlink:href="#DejaVuSans-114"/>
    </g>
   </g>
  </g>
  <g id="text_28">
   <!-- Average word length in each tweet -->
   <g style="fill:#262626;" transform="translate(221.82375 16.318125)scale(0.12 -0.12)">
    <defs>
     <path d="M 34.1875 63.1875 
L 20.796875 26.90625 
L 47.609375 26.90625 
z
M 28.609375 72.90625 
L 39.796875 72.90625 
L 67.578125 0 
L 57.328125 0 
L 50.6875 18.703125 
L 17.828125 18.703125 
L 11.1875 0 
L 0.78125 0 
z
" id="DejaVuSans-65"/>
     <path d="M 2.984375 54.6875 
L 12.5 54.6875 
L 29.59375 8.796875 
L 46.6875 54.6875 
L 56.203125 54.6875 
L 35.6875 0 
L 23.484375 0 
z
" id="DejaVuSans-118"/>
     <path d="M 45.40625 27.984375 
Q 45.40625 37.75 41.375 43.109375 
Q 37.359375 48.484375 30.078125 48.484375 
Q 22.859375 48.484375 18.828125 43.109375 
Q 14.796875 37.75 14.796875 27.984375 
Q 14.796875 18.265625 18.828125 12.890625 
Q 22.859375 7.515625 30.078125 7.515625 
Q 37.359375 7.515625 41.375 12.890625 
Q 45.40625 18.265625 45.40625 27.984375 
z
M 54.390625 6.78125 
Q 54.390625 -7.171875 48.1875 -13.984375 
Q 42 -20.796875 29.203125 -20.796875 
Q 24.46875 -20.796875 20.265625 -20.09375 
Q 16.0625 -19.390625 12.109375 -17.921875 
L 12.109375 -9.1875 
Q 16.0625 -11.328125 19.921875 -12.34375 
Q 23.78125 -13.375 27.78125 -13.375 
Q 36.625 -13.375 41.015625 -8.765625 
Q 45.40625 -4.15625 45.40625 5.171875 
L 45.40625 9.625 
Q 42.625 4.78125 38.28125 2.390625 
Q 33.9375 0 27.875 0 
Q 17.828125 0 11.671875 7.65625 
Q 5.515625 15.328125 5.515625 27.984375 
Q 5.515625 40.671875 11.671875 48.328125 
Q 17.828125 56 27.875 56 
Q 33.9375 56 38.28125 53.609375 
Q 42.625 51.21875 45.40625 46.390625 
L 45.40625 54.6875 
L 54.390625 54.6875 
z
" id="DejaVuSans-103"/>
     <path d="M 4.203125 54.6875 
L 13.1875 54.6875 
L 24.421875 12.015625 
L 35.59375 54.6875 
L 46.1875 54.6875 
L 57.421875 12.015625 
L 68.609375 54.6875 
L 77.59375 54.6875 
L 63.28125 0 
L 52.6875 0 
L 40.921875 44.828125 
L 29.109375 0 
L 18.5 0 
z
" id="DejaVuSans-119"/>
     <path d="M 9.421875 75.984375 
L 18.40625 75.984375 
L 18.40625 0 
L 9.421875 0 
z
" id="DejaVuSans-108"/>
     <path d="M 54.890625 33.015625 
L 54.890625 0 
L 45.90625 0 
L 45.90625 32.71875 
Q 45.90625 40.484375 42.875 44.328125 
Q 39.84375 48.1875 33.796875 48.1875 
Q 26.515625 48.1875 22.3125 43.546875 
Q 18.109375 38.921875 18.109375 30.90625 
L 18.109375 0 
L 9.078125 0 
L 9.078125 75.984375 
L 18.109375 75.984375 
L 18.109375 46.1875 
Q 21.34375 51.125 25.703125 53.5625 
Q 30.078125 56 35.796875 56 
Q 45.21875 56 50.046875 50.171875 
Q 54.890625 44.34375 54.890625 33.015625 
z
" id="DejaVuSans-104"/>
     <path d="M 48.78125 52.59375 
L 48.78125 44.1875 
Q 44.96875 46.296875 41.140625 47.34375 
Q 37.3125 48.390625 33.40625 48.390625 
Q 24.65625 48.390625 19.8125 42.84375 
Q 14.984375 37.3125 14.984375 27.296875 
Q 14.984375 17.28125 19.8125 11.734375 
Q 24.65625 6.203125 33.40625 6.203125 
Q 37.3125 6.203125 41.140625 7.25 
Q 44.96875 8.296875 48.78125 10.40625 
L 48.78125 2.09375 
Q 45.015625 0.34375 40.984375 -0.53125 
Q 36.96875 -1.421875 32.421875 -1.421875 
Q 20.0625 -1.421875 12.78125 6.34375 
Q 5.515625 14.109375 5.515625 27.296875 
Q 5.515625 40.671875 12.859375 48.328125 
Q 20.21875 56 33.015625 56 
Q 37.15625 56 41.109375 55.140625 
Q 45.0625 54.296875 48.78125 52.59375 
z
" id="DejaVuSans-99"/>
    </defs>
    <use xlink:href="#DejaVuSans-65"/>
    <use x="62.533203" xlink:href="#DejaVuSans-118"/>
    <use x="121.712891" xlink:href="#DejaVuSans-101"/>
    <use x="183.236328" xlink:href="#DejaVuSans-114"/>
    <use x="224.349609" xlink:href="#DejaVuSans-97"/>
    <use x="285.628906" xlink:href="#DejaVuSans-103"/>
    <use x="349.105469" xlink:href="#DejaVuSans-101"/>
    <use x="410.628906" xlink:href="#DejaVuSans-32"/>
    <use x="442.416016" xlink:href="#DejaVuSans-119"/>
    <use x="524.203125" xlink:href="#DejaVuSans-111"/>
    <use x="585.384766" xlink:href="#DejaVuSans-114"/>
    <use x="624.748047" xlink:href="#DejaVuSans-100"/>
    <use x="688.224609" xlink:href="#DejaVuSans-32"/>
    <use x="720.011719" xlink:href="#DejaVuSans-108"/>
    <use x="747.794922" xlink:href="#DejaVuSans-101"/>
    <use x="809.318359" xlink:href="#DejaVuSans-110"/>
    <use x="872.697266" xlink:href="#DejaVuSans-103"/>
    <use x="936.173828" xlink:href="#DejaVuSans-116"/>
    <use x="975.382812" xlink:href="#DejaVuSans-104"/>
    <use x="1038.761719" xlink:href="#DejaVuSans-32"/>
    <use x="1070.548828" xlink:href="#DejaVuSans-105"/>
    <use x="1098.332031" xlink:href="#DejaVuSans-110"/>
    <use x="1161.710938" xlink:href="#DejaVuSans-32"/>
    <use x="1193.498047" xlink:href="#DejaVuSans-101"/>
    <use x="1255.021484" xlink:href="#DejaVuSans-97"/>
    <use x="1316.300781" xlink:href="#DejaVuSans-99"/>
    <use x="1371.28125" xlink:href="#DejaVuSans-104"/>
    <use x="1434.660156" xlink:href="#DejaVuSans-32"/>
    <use x="1466.447266" xlink:href="#DejaVuSans-116"/>
    <use x="1505.65625" xlink:href="#DejaVuSans-119"/>
    <use x="1587.443359" xlink:href="#DejaVuSans-101"/>
    <use x="1648.966797" xlink:href="#DejaVuSans-101"/>
    <use x="1710.490234" xlink:href="#DejaVuSans-116"/>
   </g>
  </g>
 </g>
 <defs>
  <clipPath id="p03574426be">
   <rect height="271.8" width="253.636364" x="56.805938" y="43.2"/>
  </clipPath>
  <clipPath id="p0a47716fde">
   <rect height="271.8" width="253.636364" x="361.169574" y="43.2"/>
  </clipPath>
 </defs>
</svg>
