<?xml version="1.0" encoding="utf-8" standalone="no"?>
<!DOCTYPE svg PUBLIC "-//W3C//DTD SVG 1.1//EN"
  "http://www.w3.org/Graphics/SVG/1.1/DTD/svg11.dtd">
<!-- Created with matplotlib (https://matplotlib.org/) -->
<svg height="223.177812pt" version="1.1" viewBox="0 0 920.084692 223.177812" width="920.084692pt" xmlns="http://www.w3.org/2000/svg" xmlns:xlink="http://www.w3.org/1999/xlink">
 <metadata>
  <rdf:RDF xmlns:cc="http://creativecommons.org/ns#" xmlns:dc="http://purl.org/dc/elements/1.1/" xmlns:rdf="http://www.w3.org/1999/02/22-rdf-syntax-ns#">
   <cc:Work>
    <dc:type rdf:resource="http://purl.org/dc/dcmitype/StillImage"/>
    <dc:date>2021-06-28T12:04:46.789669</dc:date>
    <dc:format>image/svg+xml</dc:format>
    <dc:creator>
     <cc:Agent>
      <dc:title>Matplotlib v3.3.4, https://matplotlib.org/</dc:title>
     </cc:Agent>
    </dc:creator>
   </cc:Work>
  </rdf:RDF>
 </metadata>
 <defs>
  <style type="text/css">*{stroke-linecap:butt;stroke-linejoin:round;}</style>
 </defs>
 <g id="figure_1">
  <g id="patch_1">
   <path d="M 0 223.177812 
L 920.084692 223.177812 
L 920.084692 0 
L 0 0 
z
" style="fill:none;"/>
  </g>
  <g id="axes_1">
   <g id="patch_2">
    <path d="M 48.190938 180.218125 
L 847.579192 180.218125 
L 847.579192 22.318125 
L 48.190938 22.318125 
z
" style="fill:#eaeaf2;"/>
   </g>
   <g id="matplotlib.axis_1">
    <g id="xtick_1">
     <g id="line2d_1">
      <path clip-path="url(#p790df8bdcd)" d="M 48.190938 180.218125 
L 48.190938 22.318125 
" style="fill:none;stroke:#ffffff;stroke-linecap:round;"/>
     </g>
     <g id="text_1">
      <!-- 0 -->
      <g style="fill:#262626;" transform="translate(44.691563 198.076406)scale(0.11 -0.11)">
       <defs>
        <path d="M 31.78125 66.40625 
Q 24.171875 66.40625 20.328125 58.90625 
Q 16.5 51.421875 16.5 36.375 
Q 16.5 21.390625 20.328125 13.890625 
Q 24.171875 6.390625 31.78125 6.390625 
Q 39.453125 6.390625 43.28125 13.890625 
Q 47.125 21.390625 47.125 36.375 
Q 47.125 51.421875 43.28125 58.90625 
Q 39.453125 66.40625 31.78125 66.40625 
z
M 31.78125 74.21875 
Q 44.046875 74.21875 50.515625 64.515625 
Q 56.984375 54.828125 56.984375 36.375 
Q 56.984375 17.96875 50.515625 8.265625 
Q 44.046875 -1.421875 31.78125 -1.421875 
Q 19.53125 -1.421875 13.0625 8.265625 
Q 6.59375 17.96875 6.59375 36.375 
Q 6.59375 54.828125 13.0625 64.515625 
Q 19.53125 74.21875 31.78125 74.21875 
z
" id="DejaVuSans-48"/>
       </defs>
       <use xlink:href="#DejaVuSans-48"/>
      </g>
     </g>
    </g>
    <g id="xtick_2">
     <g id="line2d_2">
      <path clip-path="url(#p790df8bdcd)" d="M 148.114469 180.218125 
L 148.114469 22.318125 
" style="fill:none;stroke:#ffffff;stroke-linecap:round;"/>
     </g>
     <g id="text_2">
      <!-- 10 -->
      <g style="fill:#262626;" transform="translate(141.115719 198.076406)scale(0.11 -0.11)">
       <defs>
        <path d="M 12.40625 8.296875 
L 28.515625 8.296875 
L 28.515625 63.921875 
L 10.984375 60.40625 
L 10.984375 69.390625 
L 28.421875 72.90625 
L 38.28125 72.90625 
L 38.28125 8.296875 
L 54.390625 8.296875 
L 54.390625 0 
L 12.40625 0 
z
" id="DejaVuSans-49"/>
       </defs>
       <use xlink:href="#DejaVuSans-49"/>
       <use x="63.623047" xlink:href="#DejaVuSans-48"/>
      </g>
     </g>
    </g>
    <g id="xtick_3">
     <g id="line2d_3">
      <path clip-path="url(#p790df8bdcd)" d="M 248.038001 180.218125 
L 248.038001 22.318125 
" style="fill:none;stroke:#ffffff;stroke-linecap:round;"/>
     </g>
     <g id="text_3">
      <!-- 20 -->
      <g style="fill:#262626;" transform="translate(241.039251 198.076406)scale(0.11 -0.11)">
       <defs>
        <path d="M 19.1875 8.296875 
L 53.609375 8.296875 
L 53.609375 0 
L 7.328125 0 
L 7.328125 8.296875 
Q 12.9375 14.109375 22.625 23.890625 
Q 32.328125 33.6875 34.8125 36.53125 
Q 39.546875 41.84375 41.421875 45.53125 
Q 43.3125 49.21875 43.3125 52.78125 
Q 43.3125 58.59375 39.234375 62.25 
Q 35.15625 65.921875 28.609375 65.921875 
Q 23.96875 65.921875 18.8125 64.3125 
Q 13.671875 62.703125 7.8125 59.421875 
L 7.8125 69.390625 
Q 13.765625 71.78125 18.9375 73 
Q 24.125 74.21875 28.421875 74.21875 
Q 39.75 74.21875 46.484375 68.546875 
Q 53.21875 62.890625 53.21875 53.421875 
Q 53.21875 48.921875 51.53125 44.890625 
Q 49.859375 40.875 45.40625 35.40625 
Q 44.1875 33.984375 37.640625 27.21875 
Q 31.109375 20.453125 19.1875 8.296875 
z
" id="DejaVuSans-50"/>
       </defs>
       <use xlink:href="#DejaVuSans-50"/>
       <use x="63.623047" xlink:href="#DejaVuSans-48"/>
      </g>
     </g>
    </g>
    <g id="xtick_4">
     <g id="line2d_4">
      <path clip-path="url(#p790df8bdcd)" d="M 347.961533 180.218125 
L 347.961533 22.318125 
" style="fill:none;stroke:#ffffff;stroke-linecap:round;"/>
     </g>
     <g id="text_4">
      <!-- 30 -->
      <g style="fill:#262626;" transform="translate(340.962783 198.076406)scale(0.11 -0.11)">
       <defs>
        <path d="M 40.578125 39.3125 
Q 47.65625 37.796875 51.625 33 
Q 55.609375 28.21875 55.609375 21.1875 
Q 55.609375 10.40625 48.1875 4.484375 
Q 40.765625 -1.421875 27.09375 -1.421875 
Q 22.515625 -1.421875 17.65625 -0.515625 
Q 12.796875 0.390625 7.625 2.203125 
L 7.625 11.71875 
Q 11.71875 9.328125 16.59375 8.109375 
Q 21.484375 6.890625 26.8125 6.890625 
Q 36.078125 6.890625 40.9375 10.546875 
Q 45.796875 14.203125 45.796875 21.1875 
Q 45.796875 27.640625 41.28125 31.265625 
Q 36.765625 34.90625 28.71875 34.90625 
L 20.21875 34.90625 
L 20.21875 43.015625 
L 29.109375 43.015625 
Q 36.375 43.015625 40.234375 45.921875 
Q 44.09375 48.828125 44.09375 54.296875 
Q 44.09375 59.90625 40.109375 62.90625 
Q 36.140625 65.921875 28.71875 65.921875 
Q 24.65625 65.921875 20.015625 65.03125 
Q 15.375 64.15625 9.8125 62.3125 
L 9.8125 71.09375 
Q 15.4375 72.65625 20.34375 73.4375 
Q 25.25 74.21875 29.59375 74.21875 
Q 40.828125 74.21875 47.359375 69.109375 
Q 53.90625 64.015625 53.90625 55.328125 
Q 53.90625 49.265625 50.4375 45.09375 
Q 46.96875 40.921875 40.578125 39.3125 
z
" id="DejaVuSans-51"/>
       </defs>
       <use xlink:href="#DejaVuSans-51"/>
       <use x="63.623047" xlink:href="#DejaVuSans-48"/>
      </g>
     </g>
    </g>
    <g id="xtick_5">
     <g id="line2d_5">
      <path clip-path="url(#p790df8bdcd)" d="M 447.885065 180.218125 
L 447.885065 22.318125 
" style="fill:none;stroke:#ffffff;stroke-linecap:round;"/>
     </g>
     <g id="text_5">
      <!-- 40 -->
      <g style="fill:#262626;" transform="translate(440.886315 198.076406)scale(0.11 -0.11)">
       <defs>
        <path d="M 37.796875 64.3125 
L 12.890625 25.390625 
L 37.796875 25.390625 
z
M 35.203125 72.90625 
L 47.609375 72.90625 
L 47.609375 25.390625 
L 58.015625 25.390625 
L 58.015625 17.1875 
L 47.609375 17.1875 
L 47.609375 0 
L 37.796875 0 
L 37.796875 17.1875 
L 4.890625 17.1875 
L 4.890625 26.703125 
z
" id="DejaVuSans-52"/>
       </defs>
       <use xlink:href="#DejaVuSans-52"/>
       <use x="63.623047" xlink:href="#DejaVuSans-48"/>
      </g>
     </g>
    </g>
    <g id="xtick_6">
     <g id="line2d_6">
      <path clip-path="url(#p790df8bdcd)" d="M 547.808596 180.218125 
L 547.808596 22.318125 
" style="fill:none;stroke:#ffffff;stroke-linecap:round;"/>
     </g>
     <g id="text_6">
      <!-- 50 -->
      <g style="fill:#262626;" transform="translate(540.809846 198.076406)scale(0.11 -0.11)">
       <defs>
        <path d="M 10.796875 72.90625 
L 49.515625 72.90625 
L 49.515625 64.59375 
L 19.828125 64.59375 
L 19.828125 46.734375 
Q 21.96875 47.46875 24.109375 47.828125 
Q 26.265625 48.1875 28.421875 48.1875 
Q 40.625 48.1875 47.75 41.5 
Q 54.890625 34.8125 54.890625 23.390625 
Q 54.890625 11.625 47.5625 5.09375 
Q 40.234375 -1.421875 26.90625 -1.421875 
Q 22.3125 -1.421875 17.546875 -0.640625 
Q 12.796875 0.140625 7.71875 1.703125 
L 7.71875 11.625 
Q 12.109375 9.234375 16.796875 8.0625 
Q 21.484375 6.890625 26.703125 6.890625 
Q 35.15625 6.890625 40.078125 11.328125 
Q 45.015625 15.765625 45.015625 23.390625 
Q 45.015625 31 40.078125 35.4375 
Q 35.15625 39.890625 26.703125 39.890625 
Q 22.75 39.890625 18.8125 39.015625 
Q 14.890625 38.140625 10.796875 36.28125 
z
" id="DejaVuSans-53"/>
       </defs>
       <use xlink:href="#DejaVuSans-53"/>
       <use x="63.623047" xlink:href="#DejaVuSans-48"/>
      </g>
     </g>
    </g>
    <g id="xtick_7">
     <g id="line2d_7">
      <path clip-path="url(#p790df8bdcd)" d="M 647.732128 180.218125 
L 647.732128 22.318125 
" style="fill:none;stroke:#ffffff;stroke-linecap:round;"/>
     </g>
     <g id="text_7">
      <!-- 60 -->
      <g style="fill:#262626;" transform="translate(640.733378 198.076406)scale(0.11 -0.11)">
       <defs>
        <path d="M 33.015625 40.375 
Q 26.375 40.375 22.484375 35.828125 
Q 18.609375 31.296875 18.609375 23.390625 
Q 18.609375 15.53125 22.484375 10.953125 
Q 26.375 6.390625 33.015625 6.390625 
Q 39.65625 6.390625 43.53125 10.953125 
Q 47.40625 15.53125 47.40625 23.390625 
Q 47.40625 31.296875 43.53125 35.828125 
Q 39.65625 40.375 33.015625 40.375 
z
M 52.59375 71.296875 
L 52.59375 62.3125 
Q 48.875 64.0625 45.09375 64.984375 
Q 41.3125 65.921875 37.59375 65.921875 
Q 27.828125 65.921875 22.671875 59.328125 
Q 17.53125 52.734375 16.796875 39.40625 
Q 19.671875 43.65625 24.015625 45.921875 
Q 28.375 48.1875 33.59375 48.1875 
Q 44.578125 48.1875 50.953125 41.515625 
Q 57.328125 34.859375 57.328125 23.390625 
Q 57.328125 12.15625 50.6875 5.359375 
Q 44.046875 -1.421875 33.015625 -1.421875 
Q 20.359375 -1.421875 13.671875 8.265625 
Q 6.984375 17.96875 6.984375 36.375 
Q 6.984375 53.65625 15.1875 63.9375 
Q 23.390625 74.21875 37.203125 74.21875 
Q 40.921875 74.21875 44.703125 73.484375 
Q 48.484375 72.75 52.59375 71.296875 
z
" id="DejaVuSans-54"/>
       </defs>
       <use xlink:href="#DejaVuSans-54"/>
       <use x="63.623047" xlink:href="#DejaVuSans-48"/>
      </g>
     </g>
    </g>
    <g id="xtick_8">
     <g id="line2d_8">
      <path clip-path="url(#p790df8bdcd)" d="M 747.65566 180.218125 
L 747.65566 22.318125 
" style="fill:none;stroke:#ffffff;stroke-linecap:round;"/>
     </g>
     <g id="text_8">
      <!-- 70 -->
      <g style="fill:#262626;" transform="translate(740.65691 198.076406)scale(0.11 -0.11)">
       <defs>
        <path d="M 8.203125 72.90625 
L 55.078125 72.90625 
L 55.078125 68.703125 
L 28.609375 0 
L 18.3125 0 
L 43.21875 64.59375 
L 8.203125 64.59375 
z
" id="DejaVuSans-55"/>
       </defs>
       <use xlink:href="#DejaVuSans-55"/>
       <use x="63.623047" xlink:href="#DejaVuSans-48"/>
      </g>
     </g>
    </g>
    <g id="xtick_9">
     <g id="line2d_9">
      <path clip-path="url(#p790df8bdcd)" d="M 847.579192 180.218125 
L 847.579192 22.318125 
" style="fill:none;stroke:#ffffff;stroke-linecap:round;"/>
     </g>
     <g id="text_9">
      <!-- 80 -->
      <g style="fill:#262626;" transform="translate(840.580442 198.076406)scale(0.11 -0.11)">
       <defs>
        <path d="M 31.78125 34.625 
Q 24.75 34.625 20.71875 30.859375 
Q 16.703125 27.09375 16.703125 20.515625 
Q 16.703125 13.921875 20.71875 10.15625 
Q 24.75 6.390625 31.78125 6.390625 
Q 38.8125 6.390625 42.859375 10.171875 
Q 46.921875 13.96875 46.921875 20.515625 
Q 46.921875 27.09375 42.890625 30.859375 
Q 38.875 34.625 31.78125 34.625 
z
M 21.921875 38.8125 
Q 15.578125 40.375 12.03125 44.71875 
Q 8.5 49.078125 8.5 55.328125 
Q 8.5 64.0625 14.71875 69.140625 
Q 20.953125 74.21875 31.78125 74.21875 
Q 42.671875 74.21875 48.875 69.140625 
Q 55.078125 64.0625 55.078125 55.328125 
Q 55.078125 49.078125 51.53125 44.71875 
Q 48 40.375 41.703125 38.8125 
Q 48.828125 37.15625 52.796875 32.3125 
Q 56.78125 27.484375 56.78125 20.515625 
Q 56.78125 9.90625 50.3125 4.234375 
Q 43.84375 -1.421875 31.78125 -1.421875 
Q 19.734375 -1.421875 13.25 4.234375 
Q 6.78125 9.90625 6.78125 20.515625 
Q 6.78125 27.484375 10.78125 32.3125 
Q 14.796875 37.15625 21.921875 38.8125 
z
M 18.3125 54.390625 
Q 18.3125 48.734375 21.84375 45.5625 
Q 25.390625 42.390625 31.78125 42.390625 
Q 38.140625 42.390625 41.71875 45.5625 
Q 45.3125 48.734375 45.3125 54.390625 
Q 45.3125 60.0625 41.71875 63.234375 
Q 38.140625 66.40625 31.78125 66.40625 
Q 25.390625 66.40625 21.84375 63.234375 
Q 18.3125 60.0625 18.3125 54.390625 
z
" id="DejaVuSans-56"/>
       </defs>
       <use xlink:href="#DejaVuSans-56"/>
       <use x="63.623047" xlink:href="#DejaVuSans-48"/>
      </g>
     </g>
    </g>
    <g id="text_10">
     <!-- Age -->
     <g style="fill:#262626;" transform="translate(436.279752 213.482187)scale(0.12 -0.12)">
      <defs>
       <path d="M 34.1875 63.1875 
L 20.796875 26.90625 
L 47.609375 26.90625 
z
M 28.609375 72.90625 
L 39.796875 72.90625 
L 67.578125 0 
L 57.328125 0 
L 50.6875 18.703125 
L 17.828125 18.703125 
L 11.1875 0 
L 0.78125 0 
z
" id="DejaVuSans-65"/>
       <path d="M 45.40625 27.984375 
Q 45.40625 37.75 41.375 43.109375 
Q 37.359375 48.484375 30.078125 48.484375 
Q 22.859375 48.484375 18.828125 43.109375 
Q 14.796875 37.75 14.796875 27.984375 
Q 14.796875 18.265625 18.828125 12.890625 
Q 22.859375 7.515625 30.078125 7.515625 
Q 37.359375 7.515625 41.375 12.890625 
Q 45.40625 18.265625 45.40625 27.984375 
z
M 54.390625 6.78125 
Q 54.390625 -7.171875 48.1875 -13.984375 
Q 42 -20.796875 29.203125 -20.796875 
Q 24.46875 -20.796875 20.265625 -20.09375 
Q 16.0625 -19.390625 12.109375 -17.921875 
L 12.109375 -9.1875 
Q 16.0625 -11.328125 19.921875 -12.34375 
Q 23.78125 -13.375 27.78125 -13.375 
Q 36.625 -13.375 41.015625 -8.765625 
Q 45.40625 -4.15625 45.40625 5.171875 
L 45.40625 9.625 
Q 42.625 4.78125 38.28125 2.390625 
Q 33.9375 0 27.875 0 
Q 17.828125 0 11.671875 7.65625 
Q 5.515625 15.328125 5.515625 27.984375 
Q 5.515625 40.671875 11.671875 48.328125 
Q 17.828125 56 27.875 56 
Q 33.9375 56 38.28125 53.609375 
Q 42.625 51.21875 45.40625 46.390625 
L 45.40625 54.6875 
L 54.390625 54.6875 
z
" id="DejaVuSans-103"/>
       <path d="M 56.203125 29.59375 
L 56.203125 25.203125 
L 14.890625 25.203125 
Q 15.484375 15.921875 20.484375 11.0625 
Q 25.484375 6.203125 34.421875 6.203125 
Q 39.59375 6.203125 44.453125 7.46875 
Q 49.3125 8.734375 54.109375 11.28125 
L 54.109375 2.78125 
Q 49.265625 0.734375 44.1875 -0.34375 
Q 39.109375 -1.421875 33.890625 -1.421875 
Q 20.796875 -1.421875 13.15625 6.1875 
Q 5.515625 13.8125 5.515625 26.8125 
Q 5.515625 40.234375 12.765625 48.109375 
Q 20.015625 56 32.328125 56 
Q 43.359375 56 49.78125 48.890625 
Q 56.203125 41.796875 56.203125 29.59375 
z
M 47.21875 32.234375 
Q 47.125 39.59375 43.09375 43.984375 
Q 39.0625 48.390625 32.421875 48.390625 
Q 24.90625 48.390625 20.390625 44.140625 
Q 15.875 39.890625 15.1875 32.171875 
z
" id="DejaVuSans-101"/>
      </defs>
      <use xlink:href="#DejaVuSans-65"/>
      <use x="68.408203" xlink:href="#DejaVuSans-103"/>
      <use x="131.884766" xlink:href="#DejaVuSans-101"/>
     </g>
    </g>
   </g>
   <g id="matplotlib.axis_2">
    <g id="ytick_1">
     <g id="line2d_10">
      <path clip-path="url(#p790df8bdcd)" d="M 48.190938 180.218125 
L 847.579192 180.218125 
" style="fill:none;stroke:#ffffff;stroke-linecap:round;"/>
     </g>
     <g id="text_11">
      <!-- 0.000 -->
      <g style="fill:#262626;" transform="translate(7.2 184.397266)scale(0.11 -0.11)">
       <defs>
        <path d="M 10.6875 12.40625 
L 21 12.40625 
L 21 0 
L 10.6875 0 
z
" id="DejaVuSans-46"/>
       </defs>
       <use xlink:href="#DejaVuSans-48"/>
       <use x="63.623047" xlink:href="#DejaVuSans-46"/>
       <use x="95.410156" xlink:href="#DejaVuSans-48"/>
       <use x="159.033203" xlink:href="#DejaVuSans-48"/>
       <use x="222.65625" xlink:href="#DejaVuSans-48"/>
      </g>
     </g>
    </g>
    <g id="ytick_2">
     <g id="line2d_11">
      <path clip-path="url(#p790df8bdcd)" d="M 48.190938 157.038933 
L 847.579192 157.038933 
" style="fill:none;stroke:#ffffff;stroke-linecap:round;"/>
     </g>
     <g id="text_12">
      <!-- 0.005 -->
      <g style="fill:#262626;" transform="translate(7.2 161.218074)scale(0.11 -0.11)">
       <use xlink:href="#DejaVuSans-48"/>
       <use x="63.623047" xlink:href="#DejaVuSans-46"/>
       <use x="95.410156" xlink:href="#DejaVuSans-48"/>
       <use x="159.033203" xlink:href="#DejaVuSans-48"/>
       <use x="222.65625" xlink:href="#DejaVuSans-53"/>
      </g>
     </g>
    </g>
    <g id="ytick_3">
     <g id="line2d_12">
      <path clip-path="url(#p790df8bdcd)" d="M 48.190938 133.859741 
L 847.579192 133.859741 
" style="fill:none;stroke:#ffffff;stroke-linecap:round;"/>
     </g>
     <g id="text_13">
      <!-- 0.010 -->
      <g style="fill:#262626;" transform="translate(7.2 138.038882)scale(0.11 -0.11)">
       <use xlink:href="#DejaVuSans-48"/>
       <use x="63.623047" xlink:href="#DejaVuSans-46"/>
       <use x="95.410156" xlink:href="#DejaVuSans-48"/>
       <use x="159.033203" xlink:href="#DejaVuSans-49"/>
       <use x="222.65625" xlink:href="#DejaVuSans-48"/>
      </g>
     </g>
    </g>
    <g id="ytick_4">
     <g id="line2d_13">
      <path clip-path="url(#p790df8bdcd)" d="M 48.190938 110.680549 
L 847.579192 110.680549 
" style="fill:none;stroke:#ffffff;stroke-linecap:round;"/>
     </g>
     <g id="text_14">
      <!-- 0.015 -->
      <g style="fill:#262626;" transform="translate(7.2 114.85969)scale(0.11 -0.11)">
       <use xlink:href="#DejaVuSans-48"/>
       <use x="63.623047" xlink:href="#DejaVuSans-46"/>
       <use x="95.410156" xlink:href="#DejaVuSans-48"/>
       <use x="159.033203" xlink:href="#DejaVuSans-49"/>
       <use x="222.65625" xlink:href="#DejaVuSans-53"/>
      </g>
     </g>
    </g>
    <g id="ytick_5">
     <g id="line2d_14">
      <path clip-path="url(#p790df8bdcd)" d="M 48.190938 87.501357 
L 847.579192 87.501357 
" style="fill:none;stroke:#ffffff;stroke-linecap:round;"/>
     </g>
     <g id="text_15">
      <!-- 0.020 -->
      <g style="fill:#262626;" transform="translate(7.2 91.680497)scale(0.11 -0.11)">
       <use xlink:href="#DejaVuSans-48"/>
       <use x="63.623047" xlink:href="#DejaVuSans-46"/>
       <use x="95.410156" xlink:href="#DejaVuSans-48"/>
       <use x="159.033203" xlink:href="#DejaVuSans-50"/>
       <use x="222.65625" xlink:href="#DejaVuSans-48"/>
      </g>
     </g>
    </g>
    <g id="ytick_6">
     <g id="line2d_15">
      <path clip-path="url(#p790df8bdcd)" d="M 48.190938 64.322165 
L 847.579192 64.322165 
" style="fill:none;stroke:#ffffff;stroke-linecap:round;"/>
     </g>
     <g id="text_16">
      <!-- 0.025 -->
      <g style="fill:#262626;" transform="translate(7.2 68.501305)scale(0.11 -0.11)">
       <use xlink:href="#DejaVuSans-48"/>
       <use x="63.623047" xlink:href="#DejaVuSans-46"/>
       <use x="95.410156" xlink:href="#DejaVuSans-48"/>
       <use x="159.033203" xlink:href="#DejaVuSans-50"/>
       <use x="222.65625" xlink:href="#DejaVuSans-53"/>
      </g>
     </g>
    </g>
    <g id="ytick_7">
     <g id="line2d_16">
      <path clip-path="url(#p790df8bdcd)" d="M 48.190938 41.142973 
L 847.579192 41.142973 
" style="fill:none;stroke:#ffffff;stroke-linecap:round;"/>
     </g>
     <g id="text_17">
      <!-- 0.030 -->
      <g style="fill:#262626;" transform="translate(7.2 45.322113)scale(0.11 -0.11)">
       <use xlink:href="#DejaVuSans-48"/>
       <use x="63.623047" xlink:href="#DejaVuSans-46"/>
       <use x="95.410156" xlink:href="#DejaVuSans-48"/>
       <use x="159.033203" xlink:href="#DejaVuSans-51"/>
       <use x="222.65625" xlink:href="#DejaVuSans-48"/>
      </g>
     </g>
    </g>
   </g>
   <g id="PolyCollection_1">
    <path clip-path="url(#p790df8bdcd)" d="M -68.509053 180.150795 
L -68.509053 180.218125 
L -63.570226 180.218125 
L -58.6314 180.218125 
L -53.692573 180.218125 
L -48.753747 180.218125 
L -43.814921 180.218125 
L -38.876094 180.218125 
L -33.937268 180.218125 
L -28.998441 180.218125 
L -24.059615 180.218125 
L -19.120788 180.218125 
L -14.181962 180.218125 
L -9.243135 180.218125 
L -4.304309 180.218125 
L 0.634518 180.218125 
L 5.573344 180.218125 
L 10.512171 180.218125 
L 15.450997 180.218125 
L 20.389824 180.218125 
L 25.32865 180.218125 
L 30.267477 180.218125 
L 35.206303 180.218125 
L 40.14513 180.218125 
L 45.083956 180.218125 
L 50.022783 180.218125 
L 54.961609 180.218125 
L 59.900436 180.218125 
L 64.839262 180.218125 
L 69.778088 180.218125 
L 74.716915 180.218125 
L 79.655741 180.218125 
L 84.594568 180.218125 
L 89.533394 180.218125 
L 94.472221 180.218125 
L 99.411047 180.218125 
L 104.349874 180.218125 
L 109.2887 180.218125 
L 114.227527 180.218125 
L 119.166353 180.218125 
L 124.10518 180.218125 
L 129.044006 180.218125 
L 133.982833 180.218125 
L 138.921659 180.218125 
L 143.860486 180.218125 
L 148.799312 180.218125 
L 153.738139 180.218125 
L 158.676965 180.218125 
L 163.615792 180.218125 
L 168.554618 180.218125 
L 173.493445 180.218125 
L 178.432271 180.218125 
L 183.371098 180.218125 
L 188.309924 180.218125 
L 193.24875 180.218125 
L 198.187577 180.218125 
L 203.126403 180.218125 
L 208.06523 180.218125 
L 213.004056 180.218125 
L 217.942883 180.218125 
L 222.881709 180.218125 
L 227.820536 180.218125 
L 232.759362 180.218125 
L 237.698189 180.218125 
L 242.637015 180.218125 
L 247.575842 180.218125 
L 252.514668 180.218125 
L 257.453495 180.218125 
L 262.392321 180.218125 
L 267.331148 180.218125 
L 272.269974 180.218125 
L 277.208801 180.218125 
L 282.147627 180.218125 
L 287.086454 180.218125 
L 292.02528 180.218125 
L 296.964107 180.218125 
L 301.902933 180.218125 
L 306.841759 180.218125 
L 311.780586 180.218125 
L 316.719412 180.218125 
L 321.658239 180.218125 
L 326.597065 180.218125 
L 331.535892 180.218125 
L 336.474718 180.218125 
L 341.413545 180.218125 
L 346.352371 180.218125 
L 351.291198 180.218125 
L 356.230024 180.218125 
L 361.168851 180.218125 
L 366.107677 180.218125 
L 371.046504 180.218125 
L 375.98533 180.218125 
L 380.924157 180.218125 
L 385.862983 180.218125 
L 390.80181 180.218125 
L 395.740636 180.218125 
L 400.679463 180.218125 
L 405.618289 180.218125 
L 410.557116 180.218125 
L 415.495942 180.218125 
L 420.434768 180.218125 
L 425.373595 180.218125 
L 430.312421 180.218125 
L 435.251248 180.218125 
L 440.190074 180.218125 
L 445.128901 180.218125 
L 450.067727 180.218125 
L 455.006554 180.218125 
L 459.94538 180.218125 
L 464.884207 180.218125 
L 469.823033 180.218125 
L 474.76186 180.218125 
L 479.700686 180.218125 
L 484.639513 180.218125 
L 489.578339 180.218125 
L 494.517166 180.218125 
L 499.455992 180.218125 
L 504.394819 180.218125 
L 509.333645 180.218125 
L 514.272472 180.218125 
L 519.211298 180.218125 
L 524.150125 180.218125 
L 529.088951 180.218125 
L 534.027777 180.218125 
L 538.966604 180.218125 
L 543.90543 180.218125 
L 548.844257 180.218125 
L 553.783083 180.218125 
L 558.72191 180.218125 
L 563.660736 180.218125 
L 568.599563 180.218125 
L 573.538389 180.218125 
L 578.477216 180.218125 
L 583.416042 180.218125 
L 588.354869 180.218125 
L 593.293695 180.218125 
L 598.232522 180.218125 
L 603.171348 180.218125 
L 608.110175 180.218125 
L 613.049001 180.218125 
L 617.987828 180.218125 
L 622.926654 180.218125 
L 627.865481 180.218125 
L 632.804307 180.218125 
L 637.743134 180.218125 
L 642.68196 180.218125 
L 647.620787 180.218125 
L 652.559613 180.218125 
L 657.498439 180.218125 
L 662.437266 180.218125 
L 667.376092 180.218125 
L 672.314919 180.218125 
L 677.253745 180.218125 
L 682.192572 180.218125 
L 687.131398 180.218125 
L 692.070225 180.218125 
L 697.009051 180.218125 
L 701.947878 180.218125 
L 706.886704 180.218125 
L 711.825531 180.218125 
L 716.764357 180.218125 
L 721.703184 180.218125 
L 726.64201 180.218125 
L 731.580837 180.218125 
L 736.519663 180.218125 
L 741.45849 180.218125 
L 746.397316 180.218125 
L 751.336143 180.218125 
L 756.274969 180.218125 
L 761.213796 180.218125 
L 766.152622 180.218125 
L 771.091448 180.218125 
L 776.030275 180.218125 
L 780.969101 180.218125 
L 785.907928 180.218125 
L 790.846754 180.218125 
L 795.785581 180.218125 
L 800.724407 180.218125 
L 805.663234 180.218125 
L 810.60206 180.218125 
L 815.540887 180.218125 
L 820.479713 180.218125 
L 825.41854 180.218125 
L 830.357366 180.218125 
L 835.296193 180.218125 
L 840.235019 180.218125 
L 845.173846 180.218125 
L 850.112672 180.218125 
L 855.051499 180.218125 
L 859.990325 180.218125 
L 864.929152 180.218125 
L 869.867978 180.218125 
L 874.806805 180.218125 
L 879.745631 180.218125 
L 884.684457 180.218125 
L 889.623284 180.218125 
L 894.56211 180.218125 
L 899.500937 180.218125 
L 904.439763 180.218125 
L 909.37859 180.218125 
L 914.317416 180.218125 
L 914.317416 180.202992 
L 914.317416 180.202992 
L 909.37859 180.196275 
L 904.439763 180.186953 
L 899.500937 180.174179 
L 894.56211 180.156895 
L 889.623284 180.133804 
L 884.684457 180.103345 
L 879.745631 180.06367 
L 874.806805 180.012643 
L 869.867978 179.94784 
L 864.929152 179.866578 
L 859.990325 179.765961 
L 855.051499 179.642957 
L 850.112672 179.494494 
L 845.173846 179.317585 
L 840.235019 179.109482 
L 835.296193 178.867833 
L 830.357366 178.590858 
L 825.41854 178.277512 
L 820.479713 177.927628 
L 815.540887 177.542029 
L 810.60206 177.122576 
L 805.663234 176.67216 
L 800.724407 176.19462 
L 795.785581 175.694568 
L 790.846754 175.177161 
L 785.907928 174.64779 
L 780.969101 174.111744 
L 776.030275 173.573854 
L 771.091448 173.038152 
L 766.152622 172.507592 
L 761.213796 171.983843 
L 756.274969 171.467194 
L 751.336143 170.956576 
L 746.397316 170.449711 
L 741.45849 169.943365 
L 736.519663 169.433693 
L 731.580837 168.916635 
L 726.64201 168.388327 
L 721.703184 167.845482 
L 716.764357 167.285715 
L 711.825531 166.707755 
L 706.886704 166.111564 
L 701.947878 165.498311 
L 697.009051 164.870246 
L 692.070225 164.230463 
L 687.131398 163.582586 
L 682.192572 162.930417 
L 677.253745 162.277556 
L 672.314919 161.627052 
L 667.376092 160.981083 
L 662.437266 160.340709 
L 657.498439 159.705696 
L 652.559613 159.074428 
L 647.620787 158.4439 
L 642.68196 157.809792 
L 637.743134 157.166612 
L 632.804307 156.5079 
L 627.865481 155.826471 
L 622.926654 155.114692 
L 617.987828 154.364771 
L 613.049001 153.569048 
L 608.110175 152.720279 
L 603.171348 151.811899 
L 598.232522 150.838261 
L 593.293695 149.794838 
L 588.354869 148.678399 
L 583.416042 147.487139 
L 578.477216 146.220779 
L 573.538389 144.880613 
L 568.599563 143.469525 
L 563.660736 141.991943 
L 558.72191 140.453758 
L 553.783083 138.862167 
L 548.844257 137.225473 
L 543.90543 135.552812 
L 538.966604 133.853827 
L 534.027777 132.138291 
L 529.088951 130.415692 
L 524.150125 128.694808 
L 519.211298 126.983284 
L 514.272472 125.28726 
L 509.333645 123.611047 
L 504.394819 121.95691 
L 499.455992 120.324948 
L 494.517166 118.713091 
L 489.578339 117.117215 
L 484.639513 115.531346 
L 479.700686 113.947954 
L 474.76186 112.358284 
L 469.823033 110.75271 
L 464.884207 109.121087 
L 459.94538 107.453052 
L 455.006554 105.738302 
L 450.067727 103.966811 
L 445.128901 102.129007 
L 440.190074 100.215933 
L 435.251248 98.219394 
L 430.312421 96.13213 
L 425.373595 93.948022 
L 420.434768 91.662347 
L 415.495942 89.272078 
L 410.557116 86.776227 
L 405.618289 84.176187 
L 400.679463 81.476065 
L 395.740636 78.68294 
L 390.80181 75.807011 
L 385.862983 72.861609 
L 380.924157 69.863026 
L 375.98533 66.830162 
L 371.046504 63.783995 
L 366.107677 60.74692 
L 361.168851 57.741986 
L 356.230024 54.792134 
L 351.291198 51.919491 
L 346.352371 49.144822 
L 341.413545 46.487202 
L 336.474718 43.963969 
L 331.535892 41.590972 
L 326.597065 39.383123 
L 321.658239 37.355185 
L 316.719412 35.522735 
L 311.780586 33.903188 
L 306.841759 32.516752 
L 301.902933 31.387195 
L 296.964107 30.542287 
L 292.02528 30.013827 
L 287.086454 29.837173 
L 282.147627 30.05024 
L 277.208801 30.691997 
L 272.269974 31.800495 
L 267.331148 33.410553 
L 262.392321 35.551228 
L 257.453495 38.243254 
L 252.514668 41.49662 
L 247.575842 45.308505 
L 242.637015 49.661724 
L 237.698189 54.523859 
L 232.759362 59.847175 
L 227.820536 65.5694 
L 222.881709 71.615346 
L 217.942883 77.899329 
L 213.004056 84.32826 
L 208.06523 90.805215 
L 203.126403 97.233276 
L 198.187577 103.519397 
L 193.24875 109.578028 
L 188.309924 115.334285 
L 183.371098 120.726452 
L 178.432271 125.707678 
L 173.493445 130.246798 
L 168.554618 134.328261 
L 163.615792 137.951253 
L 158.676965 141.12812 
L 153.738139 143.882291 
L 148.799312 146.245886 
L 143.860486 148.257227 
L 138.921659 149.958442 
L 133.982833 151.393324 
L 129.044006 152.605539 
L 124.10518 153.63726 
L 119.166353 154.528214 
L 114.227527 155.31509 
L 109.2887 156.031247 
L 104.349874 156.706601 
L 99.411047 157.367616 
L 94.472221 158.037292 
L 89.533394 158.735113 
L 84.594568 159.476919 
L 79.655741 160.274718 
L 74.716915 161.136472 
L 69.778088 162.06592 
L 64.839262 163.062498 
L 59.900436 164.121412 
L 54.961609 165.233913 
L 50.022783 166.387784 
L 45.083956 167.568035 
L 40.14513 168.757762 
L 35.206303 169.939111 
L 30.267477 171.09428 
L 25.32865 172.20647 
L 20.389824 173.260728 
L 15.450997 174.244605 
L 10.512171 175.148613 
L 5.573344 175.966442 
L 0.634518 176.694961 
L -4.304309 177.334023 
L -9.243135 177.886107 
L -14.181962 178.355856 
L -19.120788 178.749555 
L -24.059615 179.074596 
L -28.998441 179.338974 
L -33.937268 179.550838 
L -38.876094 179.718129 
L -43.814921 179.848296 
L -48.753747 179.948106 
L -53.692573 180.023532 
L -58.6314 180.07971 
L -63.570226 180.120951 
L -68.509053 180.150795 
z
" style="fill:#4c72b0;fill-opacity:0.25;stroke:#4c72b0;"/>
   </g>
   <g id="PolyCollection_2">
    <path clip-path="url(#p790df8bdcd)" d="M -91.816596 180.04294 
L -91.816596 180.218125 
L -86.37137 180.218125 
L -80.926143 180.218125 
L -75.480916 180.218125 
L -70.03569 180.218125 
L -64.590463 180.218125 
L -59.145236 180.218125 
L -53.70001 180.218125 
L -48.254783 180.218125 
L -42.809556 180.218125 
L -37.36433 180.218125 
L -31.919103 180.218125 
L -26.473876 180.218125 
L -21.028649 180.218125 
L -15.583423 180.218125 
L -10.138196 180.218125 
L -4.692969 180.218125 
L 0.752257 180.218125 
L 6.197484 180.218125 
L 11.642711 180.218125 
L 17.087937 180.218125 
L 22.533164 180.218125 
L 27.978391 180.218125 
L 33.423617 180.218125 
L 38.868844 180.218125 
L 44.314071 180.218125 
L 49.759297 180.218125 
L 55.204524 180.218125 
L 60.649751 180.218125 
L 66.094978 180.218125 
L 71.540204 180.218125 
L 76.985431 180.218125 
L 82.430658 180.218125 
L 87.875884 180.218125 
L 93.321111 180.218125 
L 98.766338 180.218125 
L 104.211564 180.218125 
L 109.656791 180.218125 
L 115.102018 180.218125 
L 120.547244 180.218125 
L 125.992471 180.218125 
L 131.437698 180.218125 
L 136.882924 180.218125 
L 142.328151 180.218125 
L 147.773378 180.218125 
L 153.218604 180.218125 
L 158.663831 180.218125 
L 164.109058 180.218125 
L 169.554285 180.218125 
L 174.999511 180.218125 
L 180.444738 180.218125 
L 185.889965 180.218125 
L 191.335191 180.218125 
L 196.780418 180.218125 
L 202.225645 180.218125 
L 207.670871 180.218125 
L 213.116098 180.218125 
L 218.561325 180.218125 
L 224.006551 180.218125 
L 229.451778 180.218125 
L 234.897005 180.218125 
L 240.342231 180.218125 
L 245.787458 180.218125 
L 251.232685 180.218125 
L 256.677911 180.218125 
L 262.123138 180.218125 
L 267.568365 180.218125 
L 273.013592 180.218125 
L 278.458818 180.218125 
L 283.904045 180.218125 
L 289.349272 180.218125 
L 294.794498 180.218125 
L 300.239725 180.218125 
L 305.684952 180.218125 
L 311.130178 180.218125 
L 316.575405 180.218125 
L 322.020632 180.218125 
L 327.465858 180.218125 
L 332.911085 180.218125 
L 338.356312 180.218125 
L 343.801538 180.218125 
L 349.246765 180.218125 
L 354.691992 180.218125 
L 360.137219 180.218125 
L 365.582445 180.218125 
L 371.027672 180.218125 
L 376.472899 180.218125 
L 381.918125 180.218125 
L 387.363352 180.218125 
L 392.808579 180.218125 
L 398.253805 180.218125 
L 403.699032 180.218125 
L 409.144259 180.218125 
L 414.589485 180.218125 
L 420.034712 180.218125 
L 425.479939 180.218125 
L 430.925165 180.218125 
L 436.370392 180.218125 
L 441.815619 180.218125 
L 447.260845 180.218125 
L 452.706072 180.218125 
L 458.151299 180.218125 
L 463.596526 180.218125 
L 469.041752 180.218125 
L 474.486979 180.218125 
L 479.932206 180.218125 
L 485.377432 180.218125 
L 490.822659 180.218125 
L 496.267886 180.218125 
L 501.713112 180.218125 
L 507.158339 180.218125 
L 512.603566 180.218125 
L 518.048792 180.218125 
L 523.494019 180.218125 
L 528.939246 180.218125 
L 534.384472 180.218125 
L 539.829699 180.218125 
L 545.274926 180.218125 
L 550.720153 180.218125 
L 556.165379 180.218125 
L 561.610606 180.218125 
L 567.055833 180.218125 
L 572.501059 180.218125 
L 577.946286 180.218125 
L 583.391513 180.218125 
L 588.836739 180.218125 
L 594.281966 180.218125 
L 599.727193 180.218125 
L 605.172419 180.218125 
L 610.617646 180.218125 
L 616.062873 180.218125 
L 621.508099 180.218125 
L 626.953326 180.218125 
L 632.398553 180.218125 
L 637.843779 180.218125 
L 643.289006 180.218125 
L 648.734233 180.218125 
L 654.17946 180.218125 
L 659.624686 180.218125 
L 665.069913 180.218125 
L 670.51514 180.218125 
L 675.960366 180.218125 
L 681.405593 180.218125 
L 686.85082 180.218125 
L 692.296046 180.218125 
L 697.741273 180.218125 
L 703.1865 180.218125 
L 708.631726 180.218125 
L 714.076953 180.218125 
L 719.52218 180.218125 
L 724.967406 180.218125 
L 730.412633 180.218125 
L 735.85786 180.218125 
L 741.303087 180.218125 
L 746.748313 180.218125 
L 752.19354 180.218125 
L 757.638767 180.218125 
L 763.083993 180.218125 
L 768.52922 180.218125 
L 773.974447 180.218125 
L 779.419673 180.218125 
L 784.8649 180.218125 
L 790.310127 180.218125 
L 795.755353 180.218125 
L 801.20058 180.218125 
L 806.645807 180.218125 
L 812.091033 180.218125 
L 817.53626 180.218125 
L 822.981487 180.218125 
L 828.426713 180.218125 
L 833.87194 180.218125 
L 839.317167 180.218125 
L 844.762394 180.218125 
L 850.20762 180.218125 
L 855.652847 180.218125 
L 861.098074 180.218125 
L 866.5433 180.218125 
L 871.988527 180.218125 
L 877.433754 180.218125 
L 882.87898 180.218125 
L 888.324207 180.218125 
L 893.769434 180.218125 
L 899.21466 180.218125 
L 904.659887 180.218125 
L 910.105114 180.218125 
L 915.55034 180.218125 
L 920.995567 180.218125 
L 926.440794 180.218125 
L 931.886021 180.218125 
L 937.331247 180.218125 
L 942.776474 180.218125 
L 948.221701 180.218125 
L 953.666927 180.218125 
L 959.112154 180.218125 
L 964.557381 180.218125 
L 970.002607 180.218125 
L 975.447834 180.218125 
L 980.893061 180.218125 
L 986.338287 180.218125 
L 991.783514 180.218125 
L 991.783514 180.203398 
L 991.783514 180.203398 
L 986.338287 180.197569 
L 980.893061 180.1898 
L 975.447834 180.179593 
L 970.002607 180.166375 
L 964.557381 180.149509 
L 959.112154 180.128307 
L 953.666927 180.102052 
L 948.221701 180.070035 
L 942.776474 180.031595 
L 937.331247 179.986174 
L 931.886021 179.933369 
L 926.440794 179.873001 
L 920.995567 179.805166 
L 915.55034 179.730296 
L 910.105114 179.649197 
L 904.659887 179.56307 
L 899.21466 179.473511 
L 893.769434 179.382483 
L 888.324207 179.292253 
L 882.87898 179.205313 
L 877.433754 179.124256 
L 871.988527 179.051647 
L 866.5433 178.989874 
L 861.098074 178.940999 
L 855.652847 178.906614 
L 850.20762 178.887713 
L 844.762394 178.884593 
L 839.317167 178.896783 
L 833.87194 178.923012 
L 828.426713 178.961205 
L 822.981487 179.008512 
L 817.53626 179.061371 
L 812.091033 179.115575 
L 806.645807 179.166364 
L 801.20058 179.208514 
L 795.755353 179.236428 
L 790.310127 179.244225 
L 784.8649 179.225829 
L 779.419673 179.175057 
L 773.974447 179.085717 
L 768.52922 178.951717 
L 763.083993 178.767192 
L 757.638767 178.526649 
L 752.19354 178.225137 
L 746.748313 177.858429 
L 741.303087 177.423208 
L 735.85786 176.917248 
L 730.412633 176.339563 
L 724.967406 175.690522 
L 719.52218 174.971886 
L 714.076953 174.186784 
L 708.631726 173.339585 
L 703.1865 172.435695 
L 697.741273 171.481261 
L 692.296046 170.482805 
L 686.85082 169.446826 
L 681.405593 168.379372 
L 675.960366 167.285645 
L 670.51514 166.169656 
L 665.069913 165.033975 
L 659.624686 163.879598 
L 654.17946 162.705954 
L 648.734233 161.511058 
L 643.289006 160.291813 
L 637.843779 159.044433 
L 632.398553 157.764972 
L 626.953326 156.449905 
L 621.508099 155.096722 
L 616.062873 153.704489 
L 610.617646 152.274299 
L 605.172419 150.809592 
L 599.727193 149.31628 
L 594.281966 147.802667 
L 588.836739 146.279123 
L 583.391513 144.757552 
L 577.946286 143.250651 
L 572.501059 141.771008 
L 567.055833 140.330117 
L 561.610606 138.937353 
L 556.165379 137.599015 
L 550.720153 136.317498 
L 545.274926 135.090666 
L 539.829699 133.911503 
L 534.384472 132.768047 
L 528.939246 131.643656 
L 523.494019 130.517566 
L 518.048792 129.365732 
L 512.603566 128.161874 
L 507.158339 126.878678 
L 501.713112 125.489065 
L 496.267886 123.967463 
L 490.822659 122.290994 
L 485.377432 120.440537 
L 479.932206 118.401611 
L 474.486979 116.165045 
L 469.041752 113.727433 
L 463.596526 111.09136 
L 458.151299 108.265405 
L 452.706072 105.263947 
L 447.260845 102.106771 
L 441.815619 98.818509 
L 436.370392 95.427932 
L 430.925165 91.967107 
L 425.479939 88.470469 
L 420.034712 84.973809 
L 414.589485 81.513242 
L 409.144259 78.124176 
L 403.699032 74.840348 
L 398.253805 71.692946 
L 392.808579 68.709884 
L 387.363352 65.91525 
L 381.918125 63.328969 
L 376.472899 60.966674 
L 371.027672 58.839802 
L 365.582445 56.955884 
L 360.137219 55.319008 
L 354.691992 53.930403 
L 349.246765 52.789104 
L 343.801538 51.892635 
L 338.356312 51.237665 
L 332.911085 50.820602 
L 327.465858 50.638068 
L 322.020632 50.687267 
L 316.575405 50.966207 
L 311.130178 51.473807 
L 305.684952 52.209882 
L 300.239725 53.175047 
L 294.794498 54.370535 
L 289.349272 55.797981 
L 283.904045 57.459145 
L 278.458818 59.355613 
L 273.013592 61.488446 
L 267.568365 63.857781 
L 262.123138 66.462358 
L 256.677911 69.29898 
L 251.232685 72.361888 
L 245.787458 75.642076 
L 240.342231 79.12657 
L 234.897005 82.797717 
L 229.451778 86.632562 
L 224.006551 90.602362 
L 218.561325 94.672342 
L 213.116098 98.801751 
L 207.670871 102.944285 
L 202.225645 107.048904 
L 196.780418 111.061066 
L 191.335191 114.924347 
L 185.889965 118.582383 
L 180.444738 121.981066 
L 174.999511 125.070868 
L 169.554285 127.809176 
L 164.109058 130.162495 
L 158.663831 132.108392 
L 153.218604 133.637054 
L 147.773378 134.752351 
L 142.328151 135.472315 
L 136.882924 135.828992 
L 131.437698 135.867626 
L 125.992471 135.645194 
L 120.547244 135.228341 
L 115.102018 134.690778 
L 109.656791 134.110278 
L 104.211564 133.565387 
L 98.766338 133.132042 
L 93.321111 132.880245 
L 87.875884 132.870994 
L 82.430658 133.15365 
L 76.985431 133.76388 
L 71.540204 134.722306 
L 66.094978 136.033951 
L 60.649751 137.688492 
L 55.204524 139.661309 
L 49.759297 141.915253 
L 44.314071 144.402994 
L 38.868844 147.069797 
L 33.423617 149.856527 
L 27.978391 152.702694 
L 22.533164 155.54934 
L 17.087937 158.341599 
L 11.642711 161.030807 
L 6.197484 163.576058 
L 0.752257 165.945177 
L -4.692969 168.115105 
L -10.138196 170.07175 
L -15.583423 171.809374 
L -21.028649 173.329634 
L -26.473876 174.640368 
L -31.919103 175.754266 
L -37.36433 176.687502 
L -42.809556 177.458451 
L -48.254783 178.086518 
L -53.70001 178.591161 
L -59.145236 178.99111 
L -64.590463 179.303793 
L -70.03569 179.54496 
L -75.480916 179.728476 
L -80.926143 179.866257 
L -86.37137 179.968327 
L -91.816596 180.04294 
z
" style="fill:#dd8452;fill-opacity:0.25;stroke:#dd8452;"/>
   </g>
   <g id="patch_3">
    <path d="M 48.190938 180.218125 
L 48.190938 22.318125 
" style="fill:none;stroke:#ffffff;stroke-linecap:square;stroke-linejoin:miter;stroke-width:1.25;"/>
   </g>
   <g id="patch_4">
    <path d="M 48.190938 180.218125 
L 847.579192 180.218125 
" style="fill:none;stroke:#ffffff;stroke-linecap:square;stroke-linejoin:miter;stroke-width:1.25;"/>
   </g>
   <g id="text_18">
    <!-- Survived with Age -->
    <g style="fill:#262626;" transform="translate(393.389127 16.318125)scale(0.12 -0.12)">
     <defs>
      <path d="M 53.515625 70.515625 
L 53.515625 60.890625 
Q 47.90625 63.578125 42.921875 64.890625 
Q 37.9375 66.21875 33.296875 66.21875 
Q 25.25 66.21875 20.875 63.09375 
Q 16.5 59.96875 16.5 54.203125 
Q 16.5 49.359375 19.40625 46.890625 
Q 22.3125 44.4375 30.421875 42.921875 
L 36.375 41.703125 
Q 47.40625 39.59375 52.65625 34.296875 
Q 57.90625 29 57.90625 20.125 
Q 57.90625 9.515625 50.796875 4.046875 
Q 43.703125 -1.421875 29.984375 -1.421875 
Q 24.8125 -1.421875 18.96875 -0.25 
Q 13.140625 0.921875 6.890625 3.21875 
L 6.890625 13.375 
Q 12.890625 10.015625 18.65625 8.296875 
Q 24.421875 6.59375 29.984375 6.59375 
Q 38.421875 6.59375 43.015625 9.90625 
Q 47.609375 13.234375 47.609375 19.390625 
Q 47.609375 24.75 44.3125 27.78125 
Q 41.015625 30.8125 33.5 32.328125 
L 27.484375 33.5 
Q 16.453125 35.6875 11.515625 40.375 
Q 6.59375 45.0625 6.59375 53.421875 
Q 6.59375 63.09375 13.40625 68.65625 
Q 20.21875 74.21875 32.171875 74.21875 
Q 37.3125 74.21875 42.625 73.28125 
Q 47.953125 72.359375 53.515625 70.515625 
z
" id="DejaVuSans-83"/>
      <path d="M 8.5 21.578125 
L 8.5 54.6875 
L 17.484375 54.6875 
L 17.484375 21.921875 
Q 17.484375 14.15625 20.5 10.265625 
Q 23.53125 6.390625 29.59375 6.390625 
Q 36.859375 6.390625 41.078125 11.03125 
Q 45.3125 15.671875 45.3125 23.6875 
L 45.3125 54.6875 
L 54.296875 54.6875 
L 54.296875 0 
L 45.3125 0 
L 45.3125 8.40625 
Q 42.046875 3.421875 37.71875 1 
Q 33.40625 -1.421875 27.6875 -1.421875 
Q 18.265625 -1.421875 13.375 4.4375 
Q 8.5 10.296875 8.5 21.578125 
z
M 31.109375 56 
z
" id="DejaVuSans-117"/>
      <path d="M 41.109375 46.296875 
Q 39.59375 47.171875 37.8125 47.578125 
Q 36.03125 48 33.890625 48 
Q 26.265625 48 22.1875 43.046875 
Q 18.109375 38.09375 18.109375 28.8125 
L 18.109375 0 
L 9.078125 0 
L 9.078125 54.6875 
L 18.109375 54.6875 
L 18.109375 46.1875 
Q 20.953125 51.171875 25.484375 53.578125 
Q 30.03125 56 36.53125 56 
Q 37.453125 56 38.578125 55.875 
Q 39.703125 55.765625 41.0625 55.515625 
z
" id="DejaVuSans-114"/>
      <path d="M 2.984375 54.6875 
L 12.5 54.6875 
L 29.59375 8.796875 
L 46.6875 54.6875 
L 56.203125 54.6875 
L 35.6875 0 
L 23.484375 0 
z
" id="DejaVuSans-118"/>
      <path d="M 9.421875 54.6875 
L 18.40625 54.6875 
L 18.40625 0 
L 9.421875 0 
z
M 9.421875 75.984375 
L 18.40625 75.984375 
L 18.40625 64.59375 
L 9.421875 64.59375 
z
" id="DejaVuSans-105"/>
      <path d="M 45.40625 46.390625 
L 45.40625 75.984375 
L 54.390625 75.984375 
L 54.390625 0 
L 45.40625 0 
L 45.40625 8.203125 
Q 42.578125 3.328125 38.25 0.953125 
Q 33.9375 -1.421875 27.875 -1.421875 
Q 17.96875 -1.421875 11.734375 6.484375 
Q 5.515625 14.40625 5.515625 27.296875 
Q 5.515625 40.1875 11.734375 48.09375 
Q 17.96875 56 27.875 56 
Q 33.9375 56 38.25 53.625 
Q 42.578125 51.265625 45.40625 46.390625 
z
M 14.796875 27.296875 
Q 14.796875 17.390625 18.875 11.75 
Q 22.953125 6.109375 30.078125 6.109375 
Q 37.203125 6.109375 41.296875 11.75 
Q 45.40625 17.390625 45.40625 27.296875 
Q 45.40625 37.203125 41.296875 42.84375 
Q 37.203125 48.484375 30.078125 48.484375 
Q 22.953125 48.484375 18.875 42.84375 
Q 14.796875 37.203125 14.796875 27.296875 
z
" id="DejaVuSans-100"/>
      <path id="DejaVuSans-32"/>
      <path d="M 4.203125 54.6875 
L 13.1875 54.6875 
L 24.421875 12.015625 
L 35.59375 54.6875 
L 46.1875 54.6875 
L 57.421875 12.015625 
L 68.609375 54.6875 
L 77.59375 54.6875 
L 63.28125 0 
L 52.6875 0 
L 40.921875 44.828125 
L 29.109375 0 
L 18.5 0 
z
" id="DejaVuSans-119"/>
      <path d="M 18.3125 70.21875 
L 18.3125 54.6875 
L 36.8125 54.6875 
L 36.8125 47.703125 
L 18.3125 47.703125 
L 18.3125 18.015625 
Q 18.3125 11.328125 20.140625 9.421875 
Q 21.96875 7.515625 27.59375 7.515625 
L 36.8125 7.515625 
L 36.8125 0 
L 27.59375 0 
Q 17.1875 0 13.234375 3.875 
Q 9.28125 7.765625 9.28125 18.015625 
L 9.28125 47.703125 
L 2.6875 47.703125 
L 2.6875 54.6875 
L 9.28125 54.6875 
L 9.28125 70.21875 
z
" id="DejaVuSans-116"/>
      <path d="M 54.890625 33.015625 
L 54.890625 0 
L 45.90625 0 
L 45.90625 32.71875 
Q 45.90625 40.484375 42.875 44.328125 
Q 39.84375 48.1875 33.796875 48.1875 
Q 26.515625 48.1875 22.3125 43.546875 
Q 18.109375 38.921875 18.109375 30.90625 
L 18.109375 0 
L 9.078125 0 
L 9.078125 75.984375 
L 18.109375 75.984375 
L 18.109375 46.1875 
Q 21.34375 51.125 25.703125 53.5625 
Q 30.078125 56 35.796875 56 
Q 45.21875 56 50.046875 50.171875 
Q 54.890625 44.34375 54.890625 33.015625 
z
" id="DejaVuSans-104"/>
     </defs>
     <use xlink:href="#DejaVuSans-83"/>
     <use x="63.476562" xlink:href="#DejaVuSans-117"/>
     <use x="126.855469" xlink:href="#DejaVuSans-114"/>
     <use x="167.96875" xlink:href="#DejaVuSans-118"/>
     <use x="227.148438" xlink:href="#DejaVuSans-105"/>
     <use x="254.931641" xlink:href="#DejaVuSans-118"/>
     <use x="314.111328" xlink:href="#DejaVuSans-101"/>
     <use x="375.634766" xlink:href="#DejaVuSans-100"/>
     <use x="439.111328" xlink:href="#DejaVuSans-32"/>
     <use x="470.898438" xlink:href="#DejaVuSans-119"/>
     <use x="552.685547" xlink:href="#DejaVuSans-105"/>
     <use x="580.46875" xlink:href="#DejaVuSans-116"/>
     <use x="619.677734" xlink:href="#DejaVuSans-104"/>
     <use x="683.056641" xlink:href="#DejaVuSans-32"/>
     <use x="714.84375" xlink:href="#DejaVuSans-65"/>
     <use x="783.251953" xlink:href="#DejaVuSans-103"/>
     <use x="846.728516" xlink:href="#DejaVuSans-101"/>
    </g>
   </g>
  </g>
  <g id="legend_1">
   <g id="text_19">
    <!-- Survived -->
    <g style="fill:#262626;" transform="translate(857.487817 98.754219)scale(0.12 -0.12)">
     <use xlink:href="#DejaVuSans-83"/>
     <use x="63.476562" xlink:href="#DejaVuSans-117"/>
     <use x="126.855469" xlink:href="#DejaVuSans-114"/>
     <use x="167.96875" xlink:href="#DejaVuSans-118"/>
     <use x="227.148438" xlink:href="#DejaVuSans-105"/>
     <use x="254.931641" xlink:href="#DejaVuSans-118"/>
     <use x="314.111328" xlink:href="#DejaVuSans-101"/>
     <use x="375.634766" xlink:href="#DejaVuSans-100"/>
    </g>
   </g>
   <g id="patch_5">
    <path d="M 864.936879 115.108125 
L 886.936879 115.108125 
L 886.936879 107.408125 
L 864.936879 107.408125 
z
" style="fill:#4c72b0;fill-opacity:0.25;stroke:#4c72b0;stroke-linejoin:miter;"/>
   </g>
   <g id="text_20">
    <!-- 0 -->
    <g style="fill:#262626;" transform="translate(895.736879 115.108125)scale(0.11 -0.11)">
     <use xlink:href="#DejaVuSans-48"/>
    </g>
   </g>
   <g id="patch_6">
    <path d="M 864.936879 131.254063 
L 886.936879 131.254063 
L 886.936879 123.554063 
L 864.936879 123.554063 
z
" style="fill:#dd8452;fill-opacity:0.25;stroke:#dd8452;stroke-linejoin:miter;"/>
   </g>
   <g id="text_21">
    <!-- 1 -->
    <g style="fill:#262626;" transform="translate(895.736879 131.254063)scale(0.11 -0.11)">
     <use xlink:href="#DejaVuSans-49"/>
    </g>
   </g>
  </g>
 </g>
 <defs>
  <clipPath id="p790df8bdcd">
   <rect height="157.9" width="799.388254" x="48.190938" y="22.318125"/>
  </clipPath>
 </defs>
</svg>
