<?xml version="1.0" encoding="utf-8" standalone="no"?>
<!DOCTYPE svg PUBLIC "-//W3C//DTD SVG 1.1//EN"
  "http://www.w3.org/Graphics/SVG/1.1/DTD/svg11.dtd">
<!-- Created with matplotlib (https://matplotlib.org/) -->
<svg height="208.059687pt" version="1.1" viewBox="0 0 920.084692 208.059687" width="920.084692pt" xmlns="http://www.w3.org/2000/svg" xmlns:xlink="http://www.w3.org/1999/xlink">
 <metadata>
  <rdf:RDF xmlns:cc="http://creativecommons.org/ns#" xmlns:dc="http://purl.org/dc/elements/1.1/" xmlns:rdf="http://www.w3.org/1999/02/22-rdf-syntax-ns#">
   <cc:Work>
    <dc:type rdf:resource="http://purl.org/dc/dcmitype/StillImage"/>
    <dc:date>2021-06-21T14:05:11.044935</dc:date>
    <dc:format>image/svg+xml</dc:format>
    <dc:creator>
     <cc:Agent>
      <dc:title>Matplotlib v3.3.4, https://matplotlib.org/</dc:title>
     </cc:Agent>
    </dc:creator>
   </cc:Work>
  </rdf:RDF>
 </metadata>
 <defs>
  <style type="text/css">*{stroke-linecap:butt;stroke-linejoin:round;}</style>
 </defs>
 <g id="figure_1">
  <g id="patch_1">
   <path d="M 0 208.059687 
L 920.084692 208.059687 
L 920.084692 0 
L 0 0 
z
" style="fill:none;"/>
  </g>
  <g id="axes_1">
   <g id="patch_2">
    <path d="M 48.190938 165.1 
L 847.579192 165.1 
L 847.579192 7.2 
L 48.190938 7.2 
z
" style="fill:#eaeaf2;"/>
   </g>
   <g id="matplotlib.axis_1">
    <g id="xtick_1">
     <g id="line2d_1">
      <path clip-path="url(#pf3a30fdf39)" d="M 114.806625 165.1 
L 114.806625 7.2 
" style="fill:none;stroke:#ffffff;stroke-linecap:round;"/>
     </g>
     <g id="text_1">
      <!-- 40 -->
      <g style="fill:#262626;" transform="translate(107.807875 182.958281)scale(0.11 -0.11)">
       <defs>
        <path d="M 37.796875 64.3125 
L 12.890625 25.390625 
L 37.796875 25.390625 
z
M 35.203125 72.90625 
L 47.609375 72.90625 
L 47.609375 25.390625 
L 58.015625 25.390625 
L 58.015625 17.1875 
L 47.609375 17.1875 
L 47.609375 0 
L 37.796875 0 
L 37.796875 17.1875 
L 4.890625 17.1875 
L 4.890625 26.703125 
z
" id="DejaVuSans-52"/>
        <path d="M 31.78125 66.40625 
Q 24.171875 66.40625 20.328125 58.90625 
Q 16.5 51.421875 16.5 36.375 
Q 16.5 21.390625 20.328125 13.890625 
Q 24.171875 6.390625 31.78125 6.390625 
Q 39.453125 6.390625 43.28125 13.890625 
Q 47.125 21.390625 47.125 36.375 
Q 47.125 51.421875 43.28125 58.90625 
Q 39.453125 66.40625 31.78125 66.40625 
z
M 31.78125 74.21875 
Q 44.046875 74.21875 50.515625 64.515625 
Q 56.984375 54.828125 56.984375 36.375 
Q 56.984375 17.96875 50.515625 8.265625 
Q 44.046875 -1.421875 31.78125 -1.421875 
Q 19.53125 -1.421875 13.0625 8.265625 
Q 6.59375 17.96875 6.59375 36.375 
Q 6.59375 54.828125 13.0625 64.515625 
Q 19.53125 74.21875 31.78125 74.21875 
z
" id="DejaVuSans-48"/>
       </defs>
       <use xlink:href="#DejaVuSans-52"/>
       <use x="63.623047" xlink:href="#DejaVuSans-48"/>
      </g>
     </g>
    </g>
    <g id="xtick_2">
     <g id="line2d_2">
      <path clip-path="url(#pf3a30fdf39)" d="M 248.038001 165.1 
L 248.038001 7.2 
" style="fill:none;stroke:#ffffff;stroke-linecap:round;"/>
     </g>
     <g id="text_2">
      <!-- 60 -->
      <g style="fill:#262626;" transform="translate(241.039251 182.958281)scale(0.11 -0.11)">
       <defs>
        <path d="M 33.015625 40.375 
Q 26.375 40.375 22.484375 35.828125 
Q 18.609375 31.296875 18.609375 23.390625 
Q 18.609375 15.53125 22.484375 10.953125 
Q 26.375 6.390625 33.015625 6.390625 
Q 39.65625 6.390625 43.53125 10.953125 
Q 47.40625 15.53125 47.40625 23.390625 
Q 47.40625 31.296875 43.53125 35.828125 
Q 39.65625 40.375 33.015625 40.375 
z
M 52.59375 71.296875 
L 52.59375 62.3125 
Q 48.875 64.0625 45.09375 64.984375 
Q 41.3125 65.921875 37.59375 65.921875 
Q 27.828125 65.921875 22.671875 59.328125 
Q 17.53125 52.734375 16.796875 39.40625 
Q 19.671875 43.65625 24.015625 45.921875 
Q 28.375 48.1875 33.59375 48.1875 
Q 44.578125 48.1875 50.953125 41.515625 
Q 57.328125 34.859375 57.328125 23.390625 
Q 57.328125 12.15625 50.6875 5.359375 
Q 44.046875 -1.421875 33.015625 -1.421875 
Q 20.359375 -1.421875 13.671875 8.265625 
Q 6.984375 17.96875 6.984375 36.375 
Q 6.984375 53.65625 15.1875 63.9375 
Q 23.390625 74.21875 37.203125 74.21875 
Q 40.921875 74.21875 44.703125 73.484375 
Q 48.484375 72.75 52.59375 71.296875 
z
" id="DejaVuSans-54"/>
       </defs>
       <use xlink:href="#DejaVuSans-54"/>
       <use x="63.623047" xlink:href="#DejaVuSans-48"/>
      </g>
     </g>
    </g>
    <g id="xtick_3">
     <g id="line2d_3">
      <path clip-path="url(#pf3a30fdf39)" d="M 381.269377 165.1 
L 381.269377 7.2 
" style="fill:none;stroke:#ffffff;stroke-linecap:round;"/>
     </g>
     <g id="text_3">
      <!-- 80 -->
      <g style="fill:#262626;" transform="translate(374.270627 182.958281)scale(0.11 -0.11)">
       <defs>
        <path d="M 31.78125 34.625 
Q 24.75 34.625 20.71875 30.859375 
Q 16.703125 27.09375 16.703125 20.515625 
Q 16.703125 13.921875 20.71875 10.15625 
Q 24.75 6.390625 31.78125 6.390625 
Q 38.8125 6.390625 42.859375 10.171875 
Q 46.921875 13.96875 46.921875 20.515625 
Q 46.921875 27.09375 42.890625 30.859375 
Q 38.875 34.625 31.78125 34.625 
z
M 21.921875 38.8125 
Q 15.578125 40.375 12.03125 44.71875 
Q 8.5 49.078125 8.5 55.328125 
Q 8.5 64.0625 14.71875 69.140625 
Q 20.953125 74.21875 31.78125 74.21875 
Q 42.671875 74.21875 48.875 69.140625 
Q 55.078125 64.0625 55.078125 55.328125 
Q 55.078125 49.078125 51.53125 44.71875 
Q 48 40.375 41.703125 38.8125 
Q 48.828125 37.15625 52.796875 32.3125 
Q 56.78125 27.484375 56.78125 20.515625 
Q 56.78125 9.90625 50.3125 4.234375 
Q 43.84375 -1.421875 31.78125 -1.421875 
Q 19.734375 -1.421875 13.25 4.234375 
Q 6.78125 9.90625 6.78125 20.515625 
Q 6.78125 27.484375 10.78125 32.3125 
Q 14.796875 37.15625 21.921875 38.8125 
z
M 18.3125 54.390625 
Q 18.3125 48.734375 21.84375 45.5625 
Q 25.390625 42.390625 31.78125 42.390625 
Q 38.140625 42.390625 41.71875 45.5625 
Q 45.3125 48.734375 45.3125 54.390625 
Q 45.3125 60.0625 41.71875 63.234375 
Q 38.140625 66.40625 31.78125 66.40625 
Q 25.390625 66.40625 21.84375 63.234375 
Q 18.3125 60.0625 18.3125 54.390625 
z
" id="DejaVuSans-56"/>
       </defs>
       <use xlink:href="#DejaVuSans-56"/>
       <use x="63.623047" xlink:href="#DejaVuSans-48"/>
      </g>
     </g>
    </g>
    <g id="xtick_4">
     <g id="line2d_4">
      <path clip-path="url(#pf3a30fdf39)" d="M 514.500753 165.1 
L 514.500753 7.2 
" style="fill:none;stroke:#ffffff;stroke-linecap:round;"/>
     </g>
     <g id="text_4">
      <!-- 100 -->
      <g style="fill:#262626;" transform="translate(504.002628 182.958281)scale(0.11 -0.11)">
       <defs>
        <path d="M 12.40625 8.296875 
L 28.515625 8.296875 
L 28.515625 63.921875 
L 10.984375 60.40625 
L 10.984375 69.390625 
L 28.421875 72.90625 
L 38.28125 72.90625 
L 38.28125 8.296875 
L 54.390625 8.296875 
L 54.390625 0 
L 12.40625 0 
z
" id="DejaVuSans-49"/>
       </defs>
       <use xlink:href="#DejaVuSans-49"/>
       <use x="63.623047" xlink:href="#DejaVuSans-48"/>
       <use x="127.246094" xlink:href="#DejaVuSans-48"/>
      </g>
     </g>
    </g>
    <g id="xtick_5">
     <g id="line2d_5">
      <path clip-path="url(#pf3a30fdf39)" d="M 647.732128 165.1 
L 647.732128 7.2 
" style="fill:none;stroke:#ffffff;stroke-linecap:round;"/>
     </g>
     <g id="text_5">
      <!-- 120 -->
      <g style="fill:#262626;" transform="translate(637.234003 182.958281)scale(0.11 -0.11)">
       <defs>
        <path d="M 19.1875 8.296875 
L 53.609375 8.296875 
L 53.609375 0 
L 7.328125 0 
L 7.328125 8.296875 
Q 12.9375 14.109375 22.625 23.890625 
Q 32.328125 33.6875 34.8125 36.53125 
Q 39.546875 41.84375 41.421875 45.53125 
Q 43.3125 49.21875 43.3125 52.78125 
Q 43.3125 58.59375 39.234375 62.25 
Q 35.15625 65.921875 28.609375 65.921875 
Q 23.96875 65.921875 18.8125 64.3125 
Q 13.671875 62.703125 7.8125 59.421875 
L 7.8125 69.390625 
Q 13.765625 71.78125 18.9375 73 
Q 24.125 74.21875 28.421875 74.21875 
Q 39.75 74.21875 46.484375 68.546875 
Q 53.21875 62.890625 53.21875 53.421875 
Q 53.21875 48.921875 51.53125 44.890625 
Q 49.859375 40.875 45.40625 35.40625 
Q 44.1875 33.984375 37.640625 27.21875 
Q 31.109375 20.453125 19.1875 8.296875 
z
" id="DejaVuSans-50"/>
       </defs>
       <use xlink:href="#DejaVuSans-49"/>
       <use x="63.623047" xlink:href="#DejaVuSans-50"/>
       <use x="127.246094" xlink:href="#DejaVuSans-48"/>
      </g>
     </g>
    </g>
    <g id="xtick_6">
     <g id="line2d_6">
      <path clip-path="url(#pf3a30fdf39)" d="M 780.963504 165.1 
L 780.963504 7.2 
" style="fill:none;stroke:#ffffff;stroke-linecap:round;"/>
     </g>
     <g id="text_6">
      <!-- 140 -->
      <g style="fill:#262626;" transform="translate(770.465379 182.958281)scale(0.11 -0.11)">
       <use xlink:href="#DejaVuSans-49"/>
       <use x="63.623047" xlink:href="#DejaVuSans-52"/>
       <use x="127.246094" xlink:href="#DejaVuSans-48"/>
      </g>
     </g>
    </g>
    <g id="text_7">
     <!-- Fare -->
     <g style="fill:#262626;" transform="translate(435.281315 198.364062)scale(0.12 -0.12)">
      <defs>
       <path d="M 9.8125 72.90625 
L 51.703125 72.90625 
L 51.703125 64.59375 
L 19.671875 64.59375 
L 19.671875 43.109375 
L 48.578125 43.109375 
L 48.578125 34.8125 
L 19.671875 34.8125 
L 19.671875 0 
L 9.8125 0 
z
" id="DejaVuSans-70"/>
       <path d="M 34.28125 27.484375 
Q 23.390625 27.484375 19.1875 25 
Q 14.984375 22.515625 14.984375 16.5 
Q 14.984375 11.71875 18.140625 8.90625 
Q 21.296875 6.109375 26.703125 6.109375 
Q 34.1875 6.109375 38.703125 11.40625 
Q 43.21875 16.703125 43.21875 25.484375 
L 43.21875 27.484375 
z
M 52.203125 31.203125 
L 52.203125 0 
L 43.21875 0 
L 43.21875 8.296875 
Q 40.140625 3.328125 35.546875 0.953125 
Q 30.953125 -1.421875 24.3125 -1.421875 
Q 15.921875 -1.421875 10.953125 3.296875 
Q 6 8.015625 6 15.921875 
Q 6 25.140625 12.171875 29.828125 
Q 18.359375 34.515625 30.609375 34.515625 
L 43.21875 34.515625 
L 43.21875 35.40625 
Q 43.21875 41.609375 39.140625 45 
Q 35.0625 48.390625 27.6875 48.390625 
Q 23 48.390625 18.546875 47.265625 
Q 14.109375 46.140625 10.015625 43.890625 
L 10.015625 52.203125 
Q 14.9375 54.109375 19.578125 55.046875 
Q 24.21875 56 28.609375 56 
Q 40.484375 56 46.34375 49.84375 
Q 52.203125 43.703125 52.203125 31.203125 
z
" id="DejaVuSans-97"/>
       <path d="M 41.109375 46.296875 
Q 39.59375 47.171875 37.8125 47.578125 
Q 36.03125 48 33.890625 48 
Q 26.265625 48 22.1875 43.046875 
Q 18.109375 38.09375 18.109375 28.8125 
L 18.109375 0 
L 9.078125 0 
L 9.078125 54.6875 
L 18.109375 54.6875 
L 18.109375 46.1875 
Q 20.953125 51.171875 25.484375 53.578125 
Q 30.03125 56 36.53125 56 
Q 37.453125 56 38.578125 55.875 
Q 39.703125 55.765625 41.0625 55.515625 
z
" id="DejaVuSans-114"/>
       <path d="M 56.203125 29.59375 
L 56.203125 25.203125 
L 14.890625 25.203125 
Q 15.484375 15.921875 20.484375 11.0625 
Q 25.484375 6.203125 34.421875 6.203125 
Q 39.59375 6.203125 44.453125 7.46875 
Q 49.3125 8.734375 54.109375 11.28125 
L 54.109375 2.78125 
Q 49.265625 0.734375 44.1875 -0.34375 
Q 39.109375 -1.421875 33.890625 -1.421875 
Q 20.796875 -1.421875 13.15625 6.1875 
Q 5.515625 13.8125 5.515625 26.8125 
Q 5.515625 40.234375 12.765625 48.109375 
Q 20.015625 56 32.328125 56 
Q 43.359375 56 49.78125 48.890625 
Q 56.203125 41.796875 56.203125 29.59375 
z
M 47.21875 32.234375 
Q 47.125 39.59375 43.09375 43.984375 
Q 39.0625 48.390625 32.421875 48.390625 
Q 24.90625 48.390625 20.390625 44.140625 
Q 15.875 39.890625 15.1875 32.171875 
z
" id="DejaVuSans-101"/>
      </defs>
      <use xlink:href="#DejaVuSans-70"/>
      <use x="48.394531" xlink:href="#DejaVuSans-97"/>
      <use x="109.673828" xlink:href="#DejaVuSans-114"/>
      <use x="148.537109" xlink:href="#DejaVuSans-101"/>
     </g>
    </g>
   </g>
   <g id="matplotlib.axis_2">
    <g id="ytick_1">
     <g id="line2d_7">
      <path clip-path="url(#pf3a30fdf39)" d="M 48.190938 165.1 
L 847.579192 165.1 
" style="fill:none;stroke:#ffffff;stroke-linecap:round;"/>
     </g>
     <g id="text_8">
      <!-- 0.000 -->
      <g style="fill:#262626;" transform="translate(7.2 169.279141)scale(0.11 -0.11)">
       <defs>
        <path d="M 10.6875 12.40625 
L 21 12.40625 
L 21 0 
L 10.6875 0 
z
" id="DejaVuSans-46"/>
       </defs>
       <use xlink:href="#DejaVuSans-48"/>
       <use x="63.623047" xlink:href="#DejaVuSans-46"/>
       <use x="95.410156" xlink:href="#DejaVuSans-48"/>
       <use x="159.033203" xlink:href="#DejaVuSans-48"/>
       <use x="222.65625" xlink:href="#DejaVuSans-48"/>
      </g>
     </g>
    </g>
    <g id="ytick_2">
     <g id="line2d_8">
      <path clip-path="url(#pf3a30fdf39)" d="M 48.190938 140.002853 
L 847.579192 140.002853 
" style="fill:none;stroke:#ffffff;stroke-linecap:round;"/>
     </g>
     <g id="text_9">
      <!-- 0.005 -->
      <g style="fill:#262626;" transform="translate(7.2 144.181994)scale(0.11 -0.11)">
       <defs>
        <path d="M 10.796875 72.90625 
L 49.515625 72.90625 
L 49.515625 64.59375 
L 19.828125 64.59375 
L 19.828125 46.734375 
Q 21.96875 47.46875 24.109375 47.828125 
Q 26.265625 48.1875 28.421875 48.1875 
Q 40.625 48.1875 47.75 41.5 
Q 54.890625 34.8125 54.890625 23.390625 
Q 54.890625 11.625 47.5625 5.09375 
Q 40.234375 -1.421875 26.90625 -1.421875 
Q 22.3125 -1.421875 17.546875 -0.640625 
Q 12.796875 0.140625 7.71875 1.703125 
L 7.71875 11.625 
Q 12.109375 9.234375 16.796875 8.0625 
Q 21.484375 6.890625 26.703125 6.890625 
Q 35.15625 6.890625 40.078125 11.328125 
Q 45.015625 15.765625 45.015625 23.390625 
Q 45.015625 31 40.078125 35.4375 
Q 35.15625 39.890625 26.703125 39.890625 
Q 22.75 39.890625 18.8125 39.015625 
Q 14.890625 38.140625 10.796875 36.28125 
z
" id="DejaVuSans-53"/>
       </defs>
       <use xlink:href="#DejaVuSans-48"/>
       <use x="63.623047" xlink:href="#DejaVuSans-46"/>
       <use x="95.410156" xlink:href="#DejaVuSans-48"/>
       <use x="159.033203" xlink:href="#DejaVuSans-48"/>
       <use x="222.65625" xlink:href="#DejaVuSans-53"/>
      </g>
     </g>
    </g>
    <g id="ytick_3">
     <g id="line2d_9">
      <path clip-path="url(#pf3a30fdf39)" d="M 48.190938 114.905706 
L 847.579192 114.905706 
" style="fill:none;stroke:#ffffff;stroke-linecap:round;"/>
     </g>
     <g id="text_10">
      <!-- 0.010 -->
      <g style="fill:#262626;" transform="translate(7.2 119.084847)scale(0.11 -0.11)">
       <use xlink:href="#DejaVuSans-48"/>
       <use x="63.623047" xlink:href="#DejaVuSans-46"/>
       <use x="95.410156" xlink:href="#DejaVuSans-48"/>
       <use x="159.033203" xlink:href="#DejaVuSans-49"/>
       <use x="222.65625" xlink:href="#DejaVuSans-48"/>
      </g>
     </g>
    </g>
    <g id="ytick_4">
     <g id="line2d_10">
      <path clip-path="url(#pf3a30fdf39)" d="M 48.190938 89.808559 
L 847.579192 89.808559 
" style="fill:none;stroke:#ffffff;stroke-linecap:round;"/>
     </g>
     <g id="text_11">
      <!-- 0.015 -->
      <g style="fill:#262626;" transform="translate(7.2 93.9877)scale(0.11 -0.11)">
       <use xlink:href="#DejaVuSans-48"/>
       <use x="63.623047" xlink:href="#DejaVuSans-46"/>
       <use x="95.410156" xlink:href="#DejaVuSans-48"/>
       <use x="159.033203" xlink:href="#DejaVuSans-49"/>
       <use x="222.65625" xlink:href="#DejaVuSans-53"/>
      </g>
     </g>
    </g>
    <g id="ytick_5">
     <g id="line2d_11">
      <path clip-path="url(#pf3a30fdf39)" d="M 48.190938 64.711412 
L 847.579192 64.711412 
" style="fill:none;stroke:#ffffff;stroke-linecap:round;"/>
     </g>
     <g id="text_12">
      <!-- 0.020 -->
      <g style="fill:#262626;" transform="translate(7.2 68.890553)scale(0.11 -0.11)">
       <use xlink:href="#DejaVuSans-48"/>
       <use x="63.623047" xlink:href="#DejaVuSans-46"/>
       <use x="95.410156" xlink:href="#DejaVuSans-48"/>
       <use x="159.033203" xlink:href="#DejaVuSans-50"/>
       <use x="222.65625" xlink:href="#DejaVuSans-48"/>
      </g>
     </g>
    </g>
    <g id="ytick_6">
     <g id="line2d_12">
      <path clip-path="url(#pf3a30fdf39)" d="M 48.190938 39.614265 
L 847.579192 39.614265 
" style="fill:none;stroke:#ffffff;stroke-linecap:round;"/>
     </g>
     <g id="text_13">
      <!-- 0.025 -->
      <g style="fill:#262626;" transform="translate(7.2 43.793406)scale(0.11 -0.11)">
       <use xlink:href="#DejaVuSans-48"/>
       <use x="63.623047" xlink:href="#DejaVuSans-46"/>
       <use x="95.410156" xlink:href="#DejaVuSans-48"/>
       <use x="159.033203" xlink:href="#DejaVuSans-50"/>
       <use x="222.65625" xlink:href="#DejaVuSans-53"/>
      </g>
     </g>
    </g>
    <g id="ytick_7">
     <g id="line2d_13">
      <path clip-path="url(#pf3a30fdf39)" d="M 48.190938 14.517118 
L 847.579192 14.517118 
" style="fill:none;stroke:#ffffff;stroke-linecap:round;"/>
     </g>
     <g id="text_14">
      <!-- 0.030 -->
      <g style="fill:#262626;" transform="translate(7.2 18.696259)scale(0.11 -0.11)">
       <defs>
        <path d="M 40.578125 39.3125 
Q 47.65625 37.796875 51.625 33 
Q 55.609375 28.21875 55.609375 21.1875 
Q 55.609375 10.40625 48.1875 4.484375 
Q 40.765625 -1.421875 27.09375 -1.421875 
Q 22.515625 -1.421875 17.65625 -0.515625 
Q 12.796875 0.390625 7.625 2.203125 
L 7.625 11.71875 
Q 11.71875 9.328125 16.59375 8.109375 
Q 21.484375 6.890625 26.8125 6.890625 
Q 36.078125 6.890625 40.9375 10.546875 
Q 45.796875 14.203125 45.796875 21.1875 
Q 45.796875 27.640625 41.28125 31.265625 
Q 36.765625 34.90625 28.71875 34.90625 
L 20.21875 34.90625 
L 20.21875 43.015625 
L 29.109375 43.015625 
Q 36.375 43.015625 40.234375 45.921875 
Q 44.09375 48.828125 44.09375 54.296875 
Q 44.09375 59.90625 40.109375 62.90625 
Q 36.140625 65.921875 28.71875 65.921875 
Q 24.65625 65.921875 20.015625 65.03125 
Q 15.375 64.15625 9.8125 62.3125 
L 9.8125 71.09375 
Q 15.4375 72.65625 20.34375 73.4375 
Q 25.25 74.21875 29.59375 74.21875 
Q 40.828125 74.21875 47.359375 69.109375 
Q 53.90625 64.015625 53.90625 55.328125 
Q 53.90625 49.265625 50.4375 45.09375 
Q 46.96875 40.921875 40.578125 39.3125 
z
" id="DejaVuSans-51"/>
       </defs>
       <use xlink:href="#DejaVuSans-48"/>
       <use x="63.623047" xlink:href="#DejaVuSans-46"/>
       <use x="95.410156" xlink:href="#DejaVuSans-48"/>
       <use x="159.033203" xlink:href="#DejaVuSans-51"/>
       <use x="222.65625" xlink:href="#DejaVuSans-48"/>
      </g>
     </g>
    </g>
   </g>
   <g id="PolyCollection_1">
    <path clip-path="url(#pf3a30fdf39)" d="M -329.299824 164.975698 
L -329.299824 165.1 
L -318.710477 165.1 
L -308.12113 165.1 
L -297.531784 165.1 
L -286.942437 165.1 
L -276.35309 165.1 
L -265.763744 165.1 
L -255.174397 165.1 
L -244.58505 165.1 
L -233.995704 165.1 
L -223.406357 165.1 
L -212.81701 165.1 
L -202.227664 165.1 
L -191.638317 165.1 
L -181.04897 165.1 
L -170.459624 165.1 
L -159.870277 165.1 
L -149.28093 165.1 
L -138.691584 165.1 
L -128.102237 165.1 
L -117.51289 165.1 
L -106.923544 165.1 
L -96.334197 165.1 
L -85.74485 165.1 
L -75.155504 165.1 
L -64.566157 165.1 
L -53.97681 165.1 
L -43.387464 165.1 
L -32.798117 165.1 
L -22.20877 165.1 
L -11.619424 165.1 
L -1.030077 165.1 
L 9.55927 165.1 
L 20.148616 165.1 
L 30.737963 165.1 
L 41.32731 165.1 
L 51.916656 165.1 
L 62.506003 165.1 
L 73.09535 165.1 
L 83.684696 165.1 
L 94.274043 165.1 
L 104.86339 165.1 
L 115.452736 165.1 
L 126.042083 165.1 
L 136.63143 165.1 
L 147.220776 165.1 
L 157.810123 165.1 
L 168.39947 165.1 
L 178.988816 165.1 
L 189.578163 165.1 
L 200.16751 165.1 
L 210.756856 165.1 
L 221.346203 165.1 
L 231.93555 165.1 
L 242.524896 165.1 
L 253.114243 165.1 
L 263.703589 165.1 
L 274.292936 165.1 
L 284.882283 165.1 
L 295.471629 165.1 
L 306.060976 165.1 
L 316.650323 165.1 
L 327.239669 165.1 
L 337.829016 165.1 
L 348.418363 165.1 
L 359.007709 165.1 
L 369.597056 165.1 
L 380.186403 165.1 
L 390.775749 165.1 
L 401.365096 165.1 
L 411.954443 165.1 
L 422.543789 165.1 
L 433.133136 165.1 
L 443.722483 165.1 
L 454.311829 165.1 
L 464.901176 165.1 
L 475.490523 165.1 
L 486.079869 165.1 
L 496.669216 165.1 
L 507.258563 165.1 
L 517.847909 165.1 
L 528.437256 165.1 
L 539.026603 165.1 
L 549.615949 165.1 
L 560.205296 165.1 
L 570.794643 165.1 
L 581.383989 165.1 
L 591.973336 165.1 
L 602.562683 165.1 
L 613.152029 165.1 
L 623.741376 165.1 
L 634.330723 165.1 
L 644.920069 165.1 
L 655.509416 165.1 
L 666.098763 165.1 
L 676.688109 165.1 
L 687.277456 165.1 
L 697.866803 165.1 
L 708.456149 165.1 
L 719.045496 165.1 
L 729.634843 165.1 
L 740.224189 165.1 
L 750.813536 165.1 
L 761.402883 165.1 
L 771.992229 165.1 
L 782.581576 165.1 
L 793.170923 165.1 
L 803.760269 165.1 
L 814.349616 165.1 
L 824.938963 165.1 
L 835.528309 165.1 
L 846.117656 165.1 
L 856.707003 165.1 
L 867.296349 165.1 
L 877.885696 165.1 
L 888.475043 165.1 
L 899.064389 165.1 
L 909.653736 165.1 
L 920.243083 165.1 
L 930.832429 165.1 
L 941.421776 165.1 
L 952.011123 165.1 
L 962.600469 165.1 
L 973.189816 165.1 
L 983.779163 165.1 
L 994.368509 165.1 
L 1004.957856 165.1 
L 1015.547203 165.1 
L 1026.136549 165.1 
L 1036.725896 165.1 
L 1047.315242 165.1 
L 1057.904589 165.1 
L 1068.493936 165.1 
L 1079.083282 165.1 
L 1089.672629 165.1 
L 1100.261976 165.1 
L 1110.851322 165.1 
L 1121.440669 165.1 
L 1132.030016 165.1 
L 1142.619362 165.1 
L 1153.208709 165.1 
L 1163.798056 165.1 
L 1174.387402 165.1 
L 1184.976749 165.1 
L 1195.566096 165.1 
L 1206.155442 165.1 
L 1216.744789 165.1 
L 1227.334136 165.1 
L 1237.923482 165.1 
L 1248.512829 165.1 
L 1259.102176 165.1 
L 1269.691522 165.1 
L 1280.280869 165.1 
L 1290.870216 165.1 
L 1301.459562 165.1 
L 1312.048909 165.1 
L 1322.638256 165.1 
L 1333.227602 165.1 
L 1343.816949 165.1 
L 1354.406296 165.1 
L 1364.995642 165.1 
L 1375.584989 165.1 
L 1386.174336 165.1 
L 1396.763682 165.1 
L 1407.353029 165.1 
L 1417.942376 165.1 
L 1428.531722 165.1 
L 1439.121069 165.1 
L 1449.710416 165.1 
L 1460.299762 165.1 
L 1470.889109 165.1 
L 1481.478456 165.1 
L 1492.067802 165.1 
L 1502.657149 165.1 
L 1513.246496 165.1 
L 1523.835842 165.1 
L 1534.425189 165.1 
L 1545.014536 165.1 
L 1555.603882 165.1 
L 1566.193229 165.1 
L 1576.782576 165.1 
L 1587.371922 165.1 
L 1597.961269 165.1 
L 1608.550616 165.1 
L 1619.139962 165.1 
L 1629.729309 165.1 
L 1640.318656 165.1 
L 1650.908002 165.1 
L 1661.497349 165.1 
L 1672.086696 165.1 
L 1682.676042 165.1 
L 1693.265389 165.1 
L 1703.854736 165.1 
L 1714.444082 165.1 
L 1725.033429 165.1 
L 1735.622776 165.1 
L 1746.212122 165.1 
L 1756.801469 165.1 
L 1767.390816 165.1 
L 1777.980162 165.1 
L 1777.980162 165.090878 
L 1777.980162 165.090878 
L 1767.390816 165.084645 
L 1756.801469 165.074966 
L 1746.212122 165.060465 
L 1735.622776 165.039521 
L 1725.033429 165.010376 
L 1714.444082 164.971331 
L 1703.854736 164.921023 
L 1693.265389 164.85876 
L 1682.676042 164.784853 
L 1672.086696 164.700889 
L 1661.497349 164.609843 
L 1650.908002 164.515975 
L 1640.318656 164.424473 
L 1629.729309 164.340878 
L 1619.139962 164.270366 
L 1608.550616 164.217024 
L 1597.961269 164.183284 
L 1587.371922 164.169632 
L 1576.782576 164.174666 
L 1566.193229 164.195477 
L 1555.603882 164.228267 
L 1545.014536 164.269025 
L 1534.425189 164.314101 
L 1523.835842 164.360563 
L 1513.246496 164.406252 
L 1502.657149 164.449595 
L 1492.067802 164.489265 
L 1481.478456 164.523843 
L 1470.889109 164.551596 
L 1460.299762 164.570479 
L 1449.710416 164.578355 
L 1439.121069 164.573396 
L 1428.531722 164.554545 
L 1417.942376 164.52192 
L 1407.353029 164.477046 
L 1396.763682 164.422846 
L 1386.174336 164.36338 
L 1375.584989 164.303382 
L 1364.995642 164.247692 
L 1354.406296 164.200685 
L 1343.816949 164.165818 
L 1333.227602 164.145367 
L 1322.638256 164.140365 
L 1312.048909 164.150742 
L 1301.459562 164.175579 
L 1290.870216 164.213403 
L 1280.280869 164.262442 
L 1269.691522 164.320793 
L 1259.102176 164.386498 
L 1248.512829 164.457539 
L 1237.923482 164.531815 
L 1227.334136 164.607138 
L 1216.744789 164.681291 
L 1206.155442 164.752133 
L 1195.566096 164.817761 
L 1184.976749 164.876662 
L 1174.387402 164.927833 
L 1163.798056 164.970834 
L 1153.208709 165.005767 
L 1142.619362 165.033192 
L 1132.030016 165.053983 
L 1121.440669 165.069191 
L 1110.851322 165.079891 
L 1100.261976 165.087071 
L 1089.672629 165.091544 
L 1079.083282 165.093887 
L 1068.493936 165.0944 
L 1057.904589 165.093067 
L 1047.315242 165.089514 
L 1036.725896 165.082973 
L 1026.136549 165.072229 
L 1015.547203 165.055608 
L 1004.957856 165.031 
L 994.368509 164.995968 
L 983.779163 164.947965 
L 973.189816 164.884675 
L 962.600469 164.804462 
L 952.011123 164.706879 
L 941.421776 164.593154 
L 930.832429 164.466529 
L 920.243083 164.332337 
L 909.653736 164.197739 
L 899.064389 164.071072 
L 888.475043 163.960887 
L 877.885696 163.874817 
L 867.296349 163.818486 
L 856.707003 163.794695 
L 846.117656 163.803055 
L 835.528309 163.840164 
L 824.938963 163.900294 
L 814.349616 163.976406 
L 803.760269 164.061283 
L 793.170923 164.148506 
L 782.581576 164.233079 
L 771.992229 164.311607 
L 761.402883 164.382034 
L 750.813536 164.44309 
L 740.224189 164.493621 
L 729.634843 164.532015 
L 719.045496 164.555891 
L 708.456149 164.56214 
L 697.866803 164.547324 
L 687.277456 164.508356 
L 676.688109 164.443334 
L 666.098763 164.352348 
L 655.509416 164.238085 
L 644.920069 164.106092 
L 634.330723 163.964576 
L 623.741376 163.823724 
L 613.152029 163.694581 
L 602.562683 163.587638 
L 591.973336 163.511319 
L 581.383989 163.470616 
L 570.794643 163.466095 
L 560.205296 163.49343 
L 549.615949 163.543549 
L 539.026603 163.60334 
L 528.437256 163.656787 
L 517.847909 163.68635 
L 507.258563 163.67439 
L 496.669216 163.604478 
L 486.079869 163.462516 
L 475.490523 163.237639 
L 464.901176 162.922959 
L 454.311829 162.516182 
L 443.722483 162.020147 
L 433.133136 161.44324 
L 422.543789 160.7996 
L 411.954443 160.108956 
L 401.365096 159.395947 
L 390.775749 158.688799 
L 380.186403 158.017313 
L 369.597056 157.41025 
L 359.007709 156.892338 
L 348.418363 156.481266 
L 337.829016 156.185104 
L 327.239669 156.000624 
L 316.650323 155.912927 
L 306.060976 155.896573 
L 295.471629 155.918204 
L 284.882283 155.940311 
L 274.292936 155.925548 
L 263.703589 155.840829 
L 253.114243 155.660401 
L 242.524896 155.367255 
L 231.93555 154.95252 
L 221.346203 154.412912 
L 210.756856 153.746723 
L 200.16751 152.949165 
L 189.578163 152.008116 
L 178.988816 150.901266 
L 168.39947 149.595467 
L 157.810123 148.048677 
L 147.220776 146.21435 
L 136.63143 144.047554 
L 126.042083 141.511544 
L 115.452736 138.583153 
L 104.86339 135.255244 
L 94.274043 131.534799 
L 83.684696 127.435936 
L 73.09535 122.968456 
L 62.506003 118.123993 
L 51.916656 112.863424 
L 41.32731 107.110234 
L 30.737963 100.754569 
L 20.148616 93.67146 
L 9.55927 85.753852 
L -1.030077 76.957253 
L -11.619424 67.34855 
L -22.20877 57.14824 
L -32.798117 46.753999 
L -43.387464 36.735194 
L -53.97681 27.792721 
L -64.566157 20.68577 
L -75.155504 16.135093 
L -85.74485 14.719048 
L -96.334197 16.782073 
L -106.923544 22.374071 
L -117.51289 31.233411 
L -128.102237 42.817308 
L -138.691584 56.373429 
L -149.28093 71.038334 
L -159.870277 85.943879 
L -170.459624 100.312797 
L -181.04897 113.528961 
L -191.638317 125.174743 
L -202.227664 135.035311 
L -212.81701 143.075877 
L -223.406357 149.401492 
L -233.995704 154.209807 
L -244.58505 157.745728 
L -255.174397 160.264018 
L -265.763744 162.002694 
L -276.35309 163.167388 
L -286.942437 163.924936 
L -297.531784 164.403675 
L -308.12113 164.697792 
L -318.710477 164.873533 
L -329.299824 164.975698 
z
" style="fill:#4c72b0;fill-opacity:0.25;stroke:#4c72b0;"/>
   </g>
   <g id="PolyCollection_2">
    <path clip-path="url(#pf3a30fdf39)" d="M -565.986912 165.005809 
L -565.986912 165.1 
L -544.672451 165.1 
L -523.35799 165.1 
L -502.043528 165.1 
L -480.729067 165.1 
L -459.414606 165.1 
L -438.100145 165.1 
L -416.785684 165.1 
L -395.471222 165.1 
L -374.156761 165.1 
L -352.8423 165.1 
L -331.527839 165.1 
L -310.213378 165.1 
L -288.898916 165.1 
L -267.584455 165.1 
L -246.269994 165.1 
L -224.955533 165.1 
L -203.641072 165.1 
L -182.32661 165.1 
L -161.012149 165.1 
L -139.697688 165.1 
L -118.383227 165.1 
L -97.068766 165.1 
L -75.754304 165.1 
L -54.439843 165.1 
L -33.125382 165.1 
L -11.810921 165.1 
L 9.50354 165.1 
L 30.818002 165.1 
L 52.132463 165.1 
L 73.446924 165.1 
L 94.761385 165.1 
L 116.075846 165.1 
L 137.390308 165.1 
L 158.704769 165.1 
L 180.01923 165.1 
L 201.333691 165.1 
L 222.648152 165.1 
L 243.962614 165.1 
L 265.277075 165.1 
L 286.591536 165.1 
L 307.905997 165.1 
L 329.220458 165.1 
L 350.53492 165.1 
L 371.849381 165.1 
L 393.163842 165.1 
L 414.478303 165.1 
L 435.792764 165.1 
L 457.107226 165.1 
L 478.421687 165.1 
L 499.736148 165.1 
L 521.050609 165.1 
L 542.36507 165.1 
L 563.679532 165.1 
L 584.993993 165.1 
L 606.308454 165.1 
L 627.622915 165.1 
L 648.937376 165.1 
L 670.251838 165.1 
L 691.566299 165.1 
L 712.88076 165.1 
L 734.195221 165.1 
L 755.509682 165.1 
L 776.824144 165.1 
L 798.138605 165.1 
L 819.453066 165.1 
L 840.767527 165.1 
L 862.081988 165.1 
L 883.39645 165.1 
L 904.710911 165.1 
L 926.025372 165.1 
L 947.339833 165.1 
L 968.654294 165.1 
L 989.968756 165.1 
L 1011.283217 165.1 
L 1032.597678 165.1 
L 1053.912139 165.1 
L 1075.2266 165.1 
L 1096.541062 165.1 
L 1117.855523 165.1 
L 1139.169984 165.1 
L 1160.484445 165.1 
L 1181.798906 165.1 
L 1203.113368 165.1 
L 1224.427829 165.1 
L 1245.74229 165.1 
L 1267.056751 165.1 
L 1288.371212 165.1 
L 1309.685674 165.1 
L 1331.000135 165.1 
L 1352.314596 165.1 
L 1373.629057 165.1 
L 1394.943518 165.1 
L 1416.25798 165.1 
L 1437.572441 165.1 
L 1458.886902 165.1 
L 1480.201363 165.1 
L 1501.515824 165.1 
L 1522.830286 165.1 
L 1544.144747 165.1 
L 1565.459208 165.1 
L 1586.773669 165.1 
L 1608.08813 165.1 
L 1629.402592 165.1 
L 1650.717053 165.1 
L 1672.031514 165.1 
L 1693.345975 165.1 
L 1714.660436 165.1 
L 1735.974898 165.1 
L 1757.289359 165.1 
L 1778.60382 165.1 
L 1799.918281 165.1 
L 1821.232742 165.1 
L 1842.547204 165.1 
L 1863.861665 165.1 
L 1885.176126 165.1 
L 1906.490587 165.1 
L 1927.805048 165.1 
L 1949.11951 165.1 
L 1970.433971 165.1 
L 1991.748432 165.1 
L 2013.062893 165.1 
L 2034.377354 165.1 
L 2055.691816 165.1 
L 2077.006277 165.1 
L 2098.320738 165.1 
L 2119.635199 165.1 
L 2140.94966 165.1 
L 2162.264122 165.1 
L 2183.578583 165.1 
L 2204.893044 165.1 
L 2226.207505 165.1 
L 2247.521966 165.1 
L 2268.836428 165.1 
L 2290.150889 165.1 
L 2311.46535 165.1 
L 2332.779811 165.1 
L 2354.094272 165.1 
L 2375.408734 165.1 
L 2396.723195 165.1 
L 2418.037656 165.1 
L 2439.352117 165.1 
L 2460.666578 165.1 
L 2481.98104 165.1 
L 2503.295501 165.1 
L 2524.609962 165.1 
L 2545.924423 165.1 
L 2567.238884 165.1 
L 2588.553346 165.1 
L 2609.867807 165.1 
L 2631.182268 165.1 
L 2652.496729 165.1 
L 2673.81119 165.1 
L 2695.125652 165.1 
L 2716.440113 165.1 
L 2737.754574 165.1 
L 2759.069035 165.1 
L 2780.383496 165.1 
L 2801.697958 165.1 
L 2823.012419 165.1 
L 2844.32688 165.1 
L 2865.641341 165.1 
L 2886.955802 165.1 
L 2908.270264 165.1 
L 2929.584725 165.1 
L 2950.899186 165.1 
L 2972.213647 165.1 
L 2993.528108 165.1 
L 3014.84257 165.1 
L 3036.157031 165.1 
L 3057.471492 165.1 
L 3078.785953 165.1 
L 3100.100414 165.1 
L 3121.414876 165.1 
L 3142.729337 165.1 
L 3164.043798 165.1 
L 3185.358259 165.1 
L 3206.67272 165.1 
L 3227.987182 165.1 
L 3249.301643 165.1 
L 3270.616104 165.1 
L 3291.930565 165.1 
L 3313.245026 165.1 
L 3334.559488 165.1 
L 3355.873949 165.1 
L 3377.18841 165.1 
L 3398.502871 165.1 
L 3419.817332 165.1 
L 3441.131794 165.1 
L 3462.446255 165.1 
L 3483.760716 165.1 
L 3505.075177 165.1 
L 3526.389638 165.1 
L 3547.7041 165.1 
L 3569.018561 165.1 
L 3590.333022 165.1 
L 3611.647483 165.1 
L 3632.961944 165.1 
L 3654.276406 165.1 
L 3675.590867 165.1 
L 3675.590867 165.090588 
L 3675.590867 165.090588 
L 3654.276406 165.085223 
L 3632.961944 165.077346 
L 3611.647483 165.066088 
L 3590.333022 165.050429 
L 3569.018561 165.029246 
L 3547.7041 165.001387 
L 3526.389638 164.965794 
L 3505.075177 164.921652 
L 3483.760716 164.868571 
L 3462.446255 164.806759 
L 3441.131794 164.737183 
L 3419.817332 164.661664 
L 3398.502871 164.582891 
L 3377.18841 164.504319 
L 3355.873949 164.429959 
L 3334.559488 164.364055 
L 3313.245026 164.310695 
L 3291.930565 164.273389 
L 3270.616104 164.254695 
L 3249.301643 164.255923 
L 3227.987182 164.276987 
L 3206.67272 164.316412 
L 3185.358259 164.371508 
L 3164.043798 164.43867 
L 3142.729337 164.513771 
L 3121.414876 164.592574 
L 3100.100414 164.671121 
L 3078.785953 164.746041 
L 3057.471492 164.814749 
L 3036.157031 164.875531 
L 3014.84257 164.927518 
L 2993.528108 164.970585 
L 2972.213647 165.005183 
L 2950.899186 165.032167 
L 2929.584725 165.052614 
L 2908.270264 165.067676 
L 2886.955802 165.07847 
L 2865.641341 165.085997 
L 2844.32688 165.091107 
L 2823.012419 165.094485 
L 2801.697958 165.09666 
L 2780.383496 165.098025 
L 2759.069035 165.09886 
L 2737.754574 165.099357 
L 2716.440113 165.099646 
L 2695.125652 165.09981 
L 2673.81119 165.0999 
L 2652.496729 165.099949 
L 2631.182268 165.099974 
L 2609.867807 165.099987 
L 2588.553346 165.099994 
L 2567.238884 165.099997 
L 2545.924423 165.099999 
L 2524.609962 165.099999 
L 2503.295501 165.1 
L 2481.98104 165.1 
L 2460.666578 165.1 
L 2439.352117 165.1 
L 2418.037656 165.1 
L 2396.723195 165.1 
L 2375.408734 165.1 
L 2354.094272 165.1 
L 2332.779811 165.099999 
L 2311.46535 165.099998 
L 2290.150889 165.099996 
L 2268.836428 165.099991 
L 2247.521966 165.099982 
L 2226.207505 165.099963 
L 2204.893044 165.099926 
L 2183.578583 165.099856 
L 2162.264122 165.099727 
L 2140.94966 165.099492 
L 2119.635199 165.099079 
L 2098.320738 165.098368 
L 2077.006277 165.097176 
L 2055.691816 165.095226 
L 2034.377354 165.092119 
L 2013.062893 165.087291 
L 1991.748432 165.079982 
L 1970.433971 165.0692 
L 1949.11951 165.053704 
L 1927.805048 165.032014 
L 1906.490587 165.002452 
L 1885.176126 164.963231 
L 1863.861665 164.912594 
L 1842.547204 164.848999 
L 1821.232742 164.771338 
L 1799.918281 164.679169 
L 1778.60382 164.572916 
L 1757.289359 164.454013 
L 1735.974898 164.32494 
L 1714.660436 164.18913 
L 1693.345975 164.05074 
L 1672.031514 163.914289 
L 1650.717053 163.784224 
L 1629.402592 163.664455 
L 1608.08813 163.557949 
L 1586.773669 163.46645 
L 1565.459208 163.390377 
L 1544.144747 163.328934 
L 1522.830286 163.280402 
L 1501.515824 163.24258 
L 1480.201363 163.213291 
L 1458.886902 163.190853 
L 1437.572441 163.17444 
L 1416.25798 163.164256 
L 1394.943518 163.161494 
L 1373.629057 163.168074 
L 1352.314596 163.18622 
L 1331.000135 163.217925 
L 1309.685674 163.264398 
L 1288.371212 163.32558 
L 1267.056751 163.399795 
L 1245.74229 163.483597 
L 1224.427829 163.571827 
L 1203.113368 163.657868 
L 1181.798906 163.734095 
L 1160.484445 163.792429 
L 1139.169984 163.824973 
L 1117.855523 163.824634 
L 1096.541062 163.785696 
L 1075.2266 163.704268 
L 1053.912139 163.57859 
L 1032.597678 163.409159 
L 1011.283217 163.198672 
L 989.968756 162.951797 
L 968.654294 162.674784 
L 947.339833 162.37496 
L 926.025372 162.060138 
L 904.710911 161.738001 
L 883.39645 161.415486 
L 862.081988 161.098237 
L 840.767527 160.790132 
L 819.453066 160.492933 
L 798.138605 160.206044 
L 776.824144 159.926408 
L 755.509682 159.648523 
L 734.195221 159.364601 
L 712.88076 159.064866 
L 691.566299 158.738028 
L 670.251838 158.371935 
L 648.937376 157.954415 
L 627.622915 157.474294 
L 606.308454 156.922502 
L 584.993993 156.293167 
L 563.679532 155.584529 
L 542.36507 154.79948 
L 521.050609 153.945566 
L 499.736148 153.034301 
L 478.421687 152.079752 
L 457.107226 151.096463 
L 435.792764 150.096876 
L 414.478303 149.088539 
L 393.163842 148.071439 
L 371.849381 147.035808 
L 350.53492 145.960772 
L 329.220458 144.814106 
L 307.905997 143.553337 
L 286.591536 142.128309 
L 265.277075 140.485233 
L 243.962614 138.572145 
L 222.648152 136.345504 
L 201.333691 133.777519 
L 180.01923 130.863567 
L 158.704769 127.628881 
L 137.390308 124.13355 
L 116.075846 120.474833 
L 94.761385 116.785912 
L 73.446924 113.230532 
L 52.132463 109.993403 
L 30.818002 107.266886 
L 9.50354 105.235056 
L -11.810921 104.056804 
L -33.125382 103.849967 
L -54.439843 104.678544 
L -75.754304 106.544776 
L -97.068766 109.387288 
L -118.383227 113.085703 
L -139.697688 117.471198 
L -161.012149 122.341688 
L -182.32661 127.479664 
L -203.641072 132.670429 
L -224.955533 137.718565 
L -246.269994 142.460839 
L -267.584455 146.774454 
L -288.898916 150.580263 
L -310.213378 153.841342 
L -331.527839 156.557819 
L -352.8423 158.759262 
L -374.156761 160.495945 
L -395.471222 161.830234 
L -416.785684 162.828989 
L -438.100145 163.557577 
L -459.414606 164.075695 
L -480.729067 164.434942 
L -502.043528 164.677855 
L -523.35799 164.838058 
L -544.672451 164.941123 
L -565.986912 165.005809 
z
" style="fill:#dd8452;fill-opacity:0.25;stroke:#dd8452;"/>
   </g>
   <g id="patch_3">
    <path d="M 48.190938 165.1 
L 48.190938 7.2 
" style="fill:none;stroke:#ffffff;stroke-linecap:square;stroke-linejoin:miter;stroke-width:1.25;"/>
   </g>
   <g id="patch_4">
    <path d="M 48.190937 165.1 
L 847.579192 165.1 
" style="fill:none;stroke:#ffffff;stroke-linecap:square;stroke-linejoin:miter;stroke-width:1.25;"/>
   </g>
  </g>
  <g id="legend_1">
   <g id="text_15">
    <!-- Survived -->
    <g style="fill:#262626;" transform="translate(857.487817 91.195156)scale(0.12 -0.12)">
     <defs>
      <path d="M 53.515625 70.515625 
L 53.515625 60.890625 
Q 47.90625 63.578125 42.921875 64.890625 
Q 37.9375 66.21875 33.296875 66.21875 
Q 25.25 66.21875 20.875 63.09375 
Q 16.5 59.96875 16.5 54.203125 
Q 16.5 49.359375 19.40625 46.890625 
Q 22.3125 44.4375 30.421875 42.921875 
L 36.375 41.703125 
Q 47.40625 39.59375 52.65625 34.296875 
Q 57.90625 29 57.90625 20.125 
Q 57.90625 9.515625 50.796875 4.046875 
Q 43.703125 -1.421875 29.984375 -1.421875 
Q 24.8125 -1.421875 18.96875 -0.25 
Q 13.140625 0.921875 6.890625 3.21875 
L 6.890625 13.375 
Q 12.890625 10.015625 18.65625 8.296875 
Q 24.421875 6.59375 29.984375 6.59375 
Q 38.421875 6.59375 43.015625 9.90625 
Q 47.609375 13.234375 47.609375 19.390625 
Q 47.609375 24.75 44.3125 27.78125 
Q 41.015625 30.8125 33.5 32.328125 
L 27.484375 33.5 
Q 16.453125 35.6875 11.515625 40.375 
Q 6.59375 45.0625 6.59375 53.421875 
Q 6.59375 63.09375 13.40625 68.65625 
Q 20.21875 74.21875 32.171875 74.21875 
Q 37.3125 74.21875 42.625 73.28125 
Q 47.953125 72.359375 53.515625 70.515625 
z
" id="DejaVuSans-83"/>
      <path d="M 8.5 21.578125 
L 8.5 54.6875 
L 17.484375 54.6875 
L 17.484375 21.921875 
Q 17.484375 14.15625 20.5 10.265625 
Q 23.53125 6.390625 29.59375 6.390625 
Q 36.859375 6.390625 41.078125 11.03125 
Q 45.3125 15.671875 45.3125 23.6875 
L 45.3125 54.6875 
L 54.296875 54.6875 
L 54.296875 0 
L 45.3125 0 
L 45.3125 8.40625 
Q 42.046875 3.421875 37.71875 1 
Q 33.40625 -1.421875 27.6875 -1.421875 
Q 18.265625 -1.421875 13.375 4.4375 
Q 8.5 10.296875 8.5 21.578125 
z
M 31.109375 56 
z
" id="DejaVuSans-117"/>
      <path d="M 2.984375 54.6875 
L 12.5 54.6875 
L 29.59375 8.796875 
L 46.6875 54.6875 
L 56.203125 54.6875 
L 35.6875 0 
L 23.484375 0 
z
" id="DejaVuSans-118"/>
      <path d="M 9.421875 54.6875 
L 18.40625 54.6875 
L 18.40625 0 
L 9.421875 0 
z
M 9.421875 75.984375 
L 18.40625 75.984375 
L 18.40625 64.59375 
L 9.421875 64.59375 
z
" id="DejaVuSans-105"/>
      <path d="M 45.40625 46.390625 
L 45.40625 75.984375 
L 54.390625 75.984375 
L 54.390625 0 
L 45.40625 0 
L 45.40625 8.203125 
Q 42.578125 3.328125 38.25 0.953125 
Q 33.9375 -1.421875 27.875 -1.421875 
Q 17.96875 -1.421875 11.734375 6.484375 
Q 5.515625 14.40625 5.515625 27.296875 
Q 5.515625 40.1875 11.734375 48.09375 
Q 17.96875 56 27.875 56 
Q 33.9375 56 38.25 53.625 
Q 42.578125 51.265625 45.40625 46.390625 
z
M 14.796875 27.296875 
Q 14.796875 17.390625 18.875 11.75 
Q 22.953125 6.109375 30.078125 6.109375 
Q 37.203125 6.109375 41.296875 11.75 
Q 45.40625 17.390625 45.40625 27.296875 
Q 45.40625 37.203125 41.296875 42.84375 
Q 37.203125 48.484375 30.078125 48.484375 
Q 22.953125 48.484375 18.875 42.84375 
Q 14.796875 37.203125 14.796875 27.296875 
z
" id="DejaVuSans-100"/>
     </defs>
     <use xlink:href="#DejaVuSans-83"/>
     <use x="63.476562" xlink:href="#DejaVuSans-117"/>
     <use x="126.855469" xlink:href="#DejaVuSans-114"/>
     <use x="167.96875" xlink:href="#DejaVuSans-118"/>
     <use x="227.148438" xlink:href="#DejaVuSans-105"/>
     <use x="254.931641" xlink:href="#DejaVuSans-118"/>
     <use x="314.111328" xlink:href="#DejaVuSans-101"/>
     <use x="375.634766" xlink:href="#DejaVuSans-100"/>
    </g>
   </g>
   <g id="patch_5">
    <path d="M 864.936879 107.549062 
L 886.936879 107.549062 
L 886.936879 99.849062 
L 864.936879 99.849062 
z
" style="fill:#4c72b0;fill-opacity:0.25;stroke:#4c72b0;stroke-linejoin:miter;"/>
   </g>
   <g id="text_16">
    <!-- 0 -->
    <g style="fill:#262626;" transform="translate(895.736879 107.549062)scale(0.11 -0.11)">
     <use xlink:href="#DejaVuSans-48"/>
    </g>
   </g>
   <g id="patch_6">
    <path d="M 864.936879 123.695 
L 886.936879 123.695 
L 886.936879 115.995 
L 864.936879 115.995 
z
" style="fill:#dd8452;fill-opacity:0.25;stroke:#dd8452;stroke-linejoin:miter;"/>
   </g>
   <g id="text_17">
    <!-- 1 -->
    <g style="fill:#262626;" transform="translate(895.736879 123.695)scale(0.11 -0.11)">
     <use xlink:href="#DejaVuSans-49"/>
    </g>
   </g>
  </g>
 </g>
 <defs>
  <clipPath id="pf3a30fdf39">
   <rect height="157.9" width="799.388254" x="48.190938" y="7.2"/>
  </clipPath>
 </defs>
</svg>
